G04*
G04 #@! TF.GenerationSoftware,Altium Limited,Altium Designer,19.1.7 (138)*
G04*
G04 Layer_Color=16711935*
%FSLAX44Y44*%
%MOMM*%
G71*
G01*
G75*
G04:AMPARAMS|DCode=25|XSize=1.2032mm|YSize=1.1032mm|CornerRadius=0.3266mm|HoleSize=0mm|Usage=FLASHONLY|Rotation=90.000|XOffset=0mm|YOffset=0mm|HoleType=Round|Shape=RoundedRectangle|*
%AMROUNDEDRECTD25*
21,1,1.2032,0.4500,0,0,90.0*
21,1,0.5500,1.1032,0,0,90.0*
1,1,0.6532,0.2250,0.2750*
1,1,0.6532,0.2250,-0.2750*
1,1,0.6532,-0.2250,-0.2750*
1,1,0.6532,-0.2250,0.2750*
%
%ADD25ROUNDEDRECTD25*%
G04:AMPARAMS|DCode=26|XSize=1.2032mm|YSize=1.1032mm|CornerRadius=0.3266mm|HoleSize=0mm|Usage=FLASHONLY|Rotation=0.000|XOffset=0mm|YOffset=0mm|HoleType=Round|Shape=RoundedRectangle|*
%AMROUNDEDRECTD26*
21,1,1.2032,0.4500,0,0,0.0*
21,1,0.5500,1.1032,0,0,0.0*
1,1,0.6532,0.2750,-0.2250*
1,1,0.6532,-0.2750,-0.2250*
1,1,0.6532,-0.2750,0.2250*
1,1,0.6532,0.2750,0.2250*
%
%ADD26ROUNDEDRECTD26*%
G04:AMPARAMS|DCode=29|XSize=1.2032mm|YSize=1.2032mm|CornerRadius=0.3516mm|HoleSize=0mm|Usage=FLASHONLY|Rotation=90.000|XOffset=0mm|YOffset=0mm|HoleType=Round|Shape=RoundedRectangle|*
%AMROUNDEDRECTD29*
21,1,1.2032,0.5000,0,0,90.0*
21,1,0.5000,1.2032,0,0,90.0*
1,1,0.7032,0.2500,0.2500*
1,1,0.7032,0.2500,-0.2500*
1,1,0.7032,-0.2500,-0.2500*
1,1,0.7032,-0.2500,0.2500*
%
%ADD29ROUNDEDRECTD29*%
G04:AMPARAMS|DCode=31|XSize=2.0032mm|YSize=1.5032mm|CornerRadius=0.4266mm|HoleSize=0mm|Usage=FLASHONLY|Rotation=270.000|XOffset=0mm|YOffset=0mm|HoleType=Round|Shape=RoundedRectangle|*
%AMROUNDEDRECTD31*
21,1,2.0032,0.6500,0,0,270.0*
21,1,1.1500,1.5032,0,0,270.0*
1,1,0.8532,-0.3250,-0.5750*
1,1,0.8532,-0.3250,0.5750*
1,1,0.8532,0.3250,0.5750*
1,1,0.8532,0.3250,-0.5750*
%
%ADD31ROUNDEDRECTD31*%
%ADD33O,1.7272X1.7032*%
%ADD34C,1.7112*%
G04:AMPARAMS|DCode=35|XSize=1.7112mm|YSize=1.7112mm|CornerRadius=0.4786mm|HoleSize=0mm|Usage=FLASHONLY|Rotation=0.000|XOffset=0mm|YOffset=0mm|HoleType=Round|Shape=RoundedRectangle|*
%AMROUNDEDRECTD35*
21,1,1.7112,0.7540,0,0,0.0*
21,1,0.7540,1.7112,0,0,0.0*
1,1,0.9572,0.3770,-0.3770*
1,1,0.9572,-0.3770,-0.3770*
1,1,0.9572,-0.3770,0.3770*
1,1,0.9572,0.3770,0.3770*
%
%ADD35ROUNDEDRECTD35*%
G04:AMPARAMS|DCode=48|XSize=0.6mm|YSize=0.7mm|CornerRadius=0.15mm|HoleSize=0mm|Usage=FLASHONLY|Rotation=270.000|XOffset=0mm|YOffset=0mm|HoleType=Round|Shape=RoundedRectangle|*
%AMROUNDEDRECTD48*
21,1,0.6000,0.4000,0,0,270.0*
21,1,0.3000,0.7000,0,0,270.0*
1,1,0.3000,-0.2000,-0.1500*
1,1,0.3000,-0.2000,0.1500*
1,1,0.3000,0.2000,0.1500*
1,1,0.3000,0.2000,-0.1500*
%
%ADD48ROUNDEDRECTD48*%
G04:AMPARAMS|DCode=56|XSize=1.4032mm|YSize=1.7032mm|CornerRadius=0.4016mm|HoleSize=0mm|Usage=FLASHONLY|Rotation=0.000|XOffset=0mm|YOffset=0mm|HoleType=Round|Shape=RoundedRectangle|*
%AMROUNDEDRECTD56*
21,1,1.4032,0.9000,0,0,0.0*
21,1,0.6000,1.7032,0,0,0.0*
1,1,0.8032,0.3000,-0.4500*
1,1,0.8032,-0.3000,-0.4500*
1,1,0.8032,-0.3000,0.4500*
1,1,0.8032,0.3000,0.4500*
%
%ADD56ROUNDEDRECTD56*%
G04:AMPARAMS|DCode=57|XSize=2.0032mm|YSize=1.5032mm|CornerRadius=0.4266mm|HoleSize=0mm|Usage=FLASHONLY|Rotation=0.000|XOffset=0mm|YOffset=0mm|HoleType=Round|Shape=RoundedRectangle|*
%AMROUNDEDRECTD57*
21,1,2.0032,0.6500,0,0,0.0*
21,1,1.1500,1.5032,0,0,0.0*
1,1,0.8532,0.5750,-0.3250*
1,1,0.8532,-0.5750,-0.3250*
1,1,0.8532,-0.5750,0.3250*
1,1,0.8532,0.5750,0.3250*
%
%ADD57ROUNDEDRECTD57*%
G04:AMPARAMS|DCode=58|XSize=1.7232mm|YSize=1.3032mm|CornerRadius=0.3766mm|HoleSize=0mm|Usage=FLASHONLY|Rotation=270.000|XOffset=0mm|YOffset=0mm|HoleType=Round|Shape=RoundedRectangle|*
%AMROUNDEDRECTD58*
21,1,1.7232,0.5500,0,0,270.0*
21,1,0.9700,1.3032,0,0,270.0*
1,1,0.7532,-0.2750,-0.4850*
1,1,0.7532,-0.2750,0.4850*
1,1,0.7532,0.2750,0.4850*
1,1,0.7532,0.2750,-0.4850*
%
%ADD58ROUNDEDRECTD58*%
G04:AMPARAMS|DCode=59|XSize=1.5032mm|YSize=1.5032mm|CornerRadius=0.4266mm|HoleSize=0mm|Usage=FLASHONLY|Rotation=180.000|XOffset=0mm|YOffset=0mm|HoleType=Round|Shape=RoundedRectangle|*
%AMROUNDEDRECTD59*
21,1,1.5032,0.6500,0,0,180.0*
21,1,0.6500,1.5032,0,0,180.0*
1,1,0.8532,-0.3250,0.3250*
1,1,0.8532,0.3250,0.3250*
1,1,0.8532,0.3250,-0.3250*
1,1,0.8532,-0.3250,-0.3250*
%
%ADD59ROUNDEDRECTD59*%
G04:AMPARAMS|DCode=60|XSize=2.7032mm|YSize=3.2032mm|CornerRadius=0.7266mm|HoleSize=0mm|Usage=FLASHONLY|Rotation=0.000|XOffset=0mm|YOffset=0mm|HoleType=Round|Shape=RoundedRectangle|*
%AMROUNDEDRECTD60*
21,1,2.7032,1.7500,0,0,0.0*
21,1,1.2500,3.2032,0,0,0.0*
1,1,1.4532,0.6250,-0.8750*
1,1,1.4532,-0.6250,-0.8750*
1,1,1.4532,-0.6250,0.8750*
1,1,1.4532,0.6250,0.8750*
%
%ADD60ROUNDEDRECTD60*%
G04:AMPARAMS|DCode=61|XSize=1.7232mm|YSize=1.3032mm|CornerRadius=0.3766mm|HoleSize=0mm|Usage=FLASHONLY|Rotation=180.000|XOffset=0mm|YOffset=0mm|HoleType=Round|Shape=RoundedRectangle|*
%AMROUNDEDRECTD61*
21,1,1.7232,0.5500,0,0,180.0*
21,1,0.9700,1.3032,0,0,180.0*
1,1,0.7532,-0.4850,0.2750*
1,1,0.7532,0.4850,0.2750*
1,1,0.7532,0.4850,-0.2750*
1,1,0.7532,-0.4850,-0.2750*
%
%ADD61ROUNDEDRECTD61*%
D25*
X287918Y345440D02*
D03*
X304918D02*
D03*
X245754Y151892D02*
D03*
X262754D02*
D03*
X158360D02*
D03*
X141360D02*
D03*
X172348Y152146D02*
D03*
X189348D02*
D03*
X363084Y332486D02*
D03*
X346084D02*
D03*
X144898Y366268D02*
D03*
X127898D02*
D03*
X542680Y70358D02*
D03*
X559680D02*
D03*
X514722Y289560D02*
D03*
X497722D02*
D03*
X408042Y96012D02*
D03*
X391042D02*
D03*
X442332Y289306D02*
D03*
X425332D02*
D03*
X548758Y289560D02*
D03*
X531758D02*
D03*
X345304Y108712D02*
D03*
X328304D02*
D03*
D26*
X323088Y320684D02*
D03*
Y337684D02*
D03*
X308610Y314334D02*
D03*
Y331334D02*
D03*
X293878Y314334D02*
D03*
Y331334D02*
D03*
X386334Y127626D02*
D03*
Y110626D02*
D03*
X401066D02*
D03*
Y127626D02*
D03*
X371856Y121530D02*
D03*
Y104530D02*
D03*
D29*
X533358Y87630D02*
D03*
X559858D02*
D03*
X154220Y349758D02*
D03*
X127720D02*
D03*
D31*
X91927Y134619D02*
D03*
X120927D02*
D03*
X135149Y203201D02*
D03*
X106149D02*
D03*
X154481Y214747D02*
D03*
X183481D02*
D03*
X154481Y238507D02*
D03*
X183481D02*
D03*
X566397Y307341D02*
D03*
X595397D02*
D03*
X618511Y214123D02*
D03*
X589511D02*
D03*
X539265Y227331D02*
D03*
X510265D02*
D03*
Y203455D02*
D03*
X539265D02*
D03*
X589049Y237997D02*
D03*
X560049D02*
D03*
X106195Y227075D02*
D03*
X77195D02*
D03*
D33*
X666750Y256540D02*
D03*
Y281940D02*
D03*
Y231140D02*
D03*
Y180340D02*
D03*
Y154940D02*
D03*
Y78740D02*
D03*
Y104140D02*
D03*
X20320Y337820D02*
D03*
Y363220D02*
D03*
Y287020D02*
D03*
Y261620D02*
D03*
Y210820D02*
D03*
Y185420D02*
D03*
Y160020D02*
D03*
X325120Y185420D02*
D03*
Y261620D02*
D03*
Y210820D02*
D03*
Y236220D02*
D03*
X325120Y287020D02*
D03*
X325120Y160020D02*
D03*
X361950Y281940D02*
D03*
X361950Y180340D02*
D03*
Y154940D02*
D03*
Y231140D02*
D03*
Y205740D02*
D03*
Y256540D02*
D03*
D34*
X547370Y307340D02*
D03*
X521970D02*
D03*
X496570D02*
D03*
X445770D02*
D03*
X139700Y134620D02*
D03*
X165100D02*
D03*
X190500D02*
D03*
X241300D02*
D03*
D35*
X420370Y307340D02*
D03*
X266700Y134620D02*
D03*
D48*
X308704Y289560D02*
D03*
X288704Y280060D02*
D03*
Y299060D02*
D03*
X307180Y210820D02*
D03*
X287180Y220320D02*
D03*
Y201320D02*
D03*
X400652Y240640D02*
D03*
Y221640D02*
D03*
X380652Y231140D02*
D03*
X380398Y151384D02*
D03*
X400398Y141884D02*
D03*
Y160884D02*
D03*
D56*
X402196Y305308D02*
D03*
X384696D02*
D03*
X285890Y134874D02*
D03*
X303390D02*
D03*
D57*
X386333Y254741D02*
D03*
Y283741D02*
D03*
X273813Y267739D02*
D03*
Y238739D02*
D03*
X300227Y186965D02*
D03*
Y157965D02*
D03*
X412749Y173459D02*
D03*
Y202459D02*
D03*
D58*
X265016Y114808D02*
D03*
X245016D02*
D03*
X180754Y169672D02*
D03*
X200754D02*
D03*
X164940Y169418D02*
D03*
X144940D02*
D03*
X126586Y165862D02*
D03*
X106586D02*
D03*
X122334Y321818D02*
D03*
X142334D02*
D03*
X163482Y331724D02*
D03*
X183482D02*
D03*
X541942Y118872D02*
D03*
X561942D02*
D03*
X524096Y110998D02*
D03*
X504096D02*
D03*
X542384Y272288D02*
D03*
X522384D02*
D03*
X486570Y272034D02*
D03*
X506570D02*
D03*
X582857Y273558D02*
D03*
X562857D02*
D03*
X444340Y328422D02*
D03*
X424340D02*
D03*
D59*
X180942Y116840D02*
D03*
X148242D02*
D03*
X539336Y325374D02*
D03*
X506636D02*
D03*
X522318Y250444D02*
D03*
X489618D02*
D03*
X202278Y191770D02*
D03*
X169578D02*
D03*
D60*
X103200Y350520D02*
D03*
X49200D02*
D03*
X584378Y90170D02*
D03*
X638378D02*
D03*
D61*
X163576Y287180D02*
D03*
Y307180D02*
D03*
X524002Y155034D02*
D03*
Y135034D02*
D03*
M02*
