G04*
G04 #@! TF.GenerationSoftware,Altium Limited,Altium Designer,19.1.7 (138)*
G04*
G04 Layer_Color=8421504*
%FSLAX44Y44*%
%MOMM*%
G71*
G01*
G75*
%ADD15R,0.7000X0.4500*%
%ADD16R,0.7000X0.4500*%
%ADD17R,0.4500X0.7000*%
G04:AMPARAMS|DCode=18|XSize=1mm|YSize=0.9mm|CornerRadius=0.225mm|HoleSize=0mm|Usage=FLASHONLY|Rotation=90.000|XOffset=0mm|YOffset=0mm|HoleType=Round|Shape=RoundedRectangle|*
%AMROUNDEDRECTD18*
21,1,1.0000,0.4500,0,0,90.0*
21,1,0.5500,0.9000,0,0,90.0*
1,1,0.4500,0.2250,0.2750*
1,1,0.4500,0.2250,-0.2750*
1,1,0.4500,-0.2250,-0.2750*
1,1,0.4500,-0.2250,0.2750*
%
%ADD18ROUNDEDRECTD18*%
G04:AMPARAMS|DCode=19|XSize=1mm|YSize=0.9mm|CornerRadius=0.225mm|HoleSize=0mm|Usage=FLASHONLY|Rotation=0.000|XOffset=0mm|YOffset=0mm|HoleType=Round|Shape=RoundedRectangle|*
%AMROUNDEDRECTD19*
21,1,1.0000,0.4500,0,0,0.0*
21,1,0.5500,0.9000,0,0,0.0*
1,1,0.4500,0.2750,-0.2250*
1,1,0.4500,-0.2750,-0.2250*
1,1,0.4500,-0.2750,0.2250*
1,1,0.4500,0.2750,0.2250*
%
%ADD19ROUNDEDRECTD19*%
G04:AMPARAMS|DCode=20|XSize=1mm|YSize=1mm|CornerRadius=0.25mm|HoleSize=0mm|Usage=FLASHONLY|Rotation=90.000|XOffset=0mm|YOffset=0mm|HoleType=Round|Shape=RoundedRectangle|*
%AMROUNDEDRECTD20*
21,1,1.0000,0.5000,0,0,90.0*
21,1,0.5000,1.0000,0,0,90.0*
1,1,0.5000,0.2500,0.2500*
1,1,0.5000,0.2500,-0.2500*
1,1,0.5000,-0.2500,-0.2500*
1,1,0.5000,-0.2500,0.2500*
%
%ADD20ROUNDEDRECTD20*%
G04:AMPARAMS|DCode=21|XSize=0.99mm|YSize=0.78mm|CornerRadius=0.195mm|HoleSize=0mm|Usage=FLASHONLY|Rotation=0.000|XOffset=0mm|YOffset=0mm|HoleType=Round|Shape=RoundedRectangle|*
%AMROUNDEDRECTD21*
21,1,0.9900,0.3900,0,0,0.0*
21,1,0.6000,0.7800,0,0,0.0*
1,1,0.3900,0.3000,-0.1950*
1,1,0.3900,-0.3000,-0.1950*
1,1,0.3900,-0.3000,0.1950*
1,1,0.3900,0.3000,0.1950*
%
%ADD21ROUNDEDRECTD21*%
G04:AMPARAMS|DCode=22|XSize=1.7272mm|YSize=0.635mm|CornerRadius=0.1588mm|HoleSize=0mm|Usage=FLASHONLY|Rotation=180.000|XOffset=0mm|YOffset=0mm|HoleType=Round|Shape=RoundedRectangle|*
%AMROUNDEDRECTD22*
21,1,1.7272,0.3175,0,0,180.0*
21,1,1.4097,0.6350,0,0,180.0*
1,1,0.3175,-0.7049,0.1588*
1,1,0.3175,0.7049,0.1588*
1,1,0.3175,0.7049,-0.1588*
1,1,0.3175,-0.7049,-0.1588*
%
%ADD22ROUNDEDRECTD22*%
G04:AMPARAMS|DCode=23|XSize=1.8mm|YSize=1.3mm|CornerRadius=0.325mm|HoleSize=0mm|Usage=FLASHONLY|Rotation=270.000|XOffset=0mm|YOffset=0mm|HoleType=Round|Shape=RoundedRectangle|*
%AMROUNDEDRECTD23*
21,1,1.8000,0.6500,0,0,270.0*
21,1,1.1500,1.3000,0,0,270.0*
1,1,0.6500,-0.3250,-0.5750*
1,1,0.6500,-0.3250,0.5750*
1,1,0.6500,0.3250,0.5750*
1,1,0.6500,0.3250,-0.5750*
%
%ADD23ROUNDEDRECTD23*%
G04:AMPARAMS|DCode=24|XSize=1mm|YSize=1mm|CornerRadius=0.25mm|HoleSize=0mm|Usage=FLASHONLY|Rotation=0.000|XOffset=0mm|YOffset=0mm|HoleType=Round|Shape=RoundedRectangle|*
%AMROUNDEDRECTD24*
21,1,1.0000,0.5000,0,0,0.0*
21,1,0.5000,1.0000,0,0,0.0*
1,1,0.5000,0.2500,-0.2500*
1,1,0.5000,-0.2500,-0.2500*
1,1,0.5000,-0.2500,0.2500*
1,1,0.5000,0.2500,0.2500*
%
%ADD24ROUNDEDRECTD24*%
G36*
X404531Y132969D02*
Y177419D01*
X421803D01*
Y132969D01*
X404531D01*
D02*
G37*
G36*
X282550Y308991D02*
Y264541D01*
X265278D01*
Y308991D01*
X282550D01*
D02*
G37*
D15*
X369124Y322732D02*
D03*
Y341732D02*
D03*
X345124Y322732D02*
D03*
Y341732D02*
D03*
X321502Y118466D02*
D03*
Y99466D02*
D03*
X345502Y118466D02*
D03*
Y99466D02*
D03*
D16*
X369124Y332233D02*
D03*
X321502Y108966D02*
D03*
D17*
X330810Y344232D02*
D03*
X321310D02*
D03*
X311810D02*
D03*
X330810Y320232D02*
D03*
X311810D02*
D03*
X360324Y97982D02*
D03*
X369824D02*
D03*
X379324D02*
D03*
X360324Y121982D02*
D03*
X379324D02*
D03*
D18*
X528710Y290068D02*
D03*
X545710D02*
D03*
X497976D02*
D03*
X514976D02*
D03*
X189094Y151892D02*
D03*
X172094D02*
D03*
X158496D02*
D03*
X141496D02*
D03*
X333874Y306832D02*
D03*
X316874D02*
D03*
X347608Y307086D02*
D03*
X364608D02*
D03*
X105274Y338836D02*
D03*
X88274D02*
D03*
X130692Y307086D02*
D03*
X147692D02*
D03*
X598796Y105664D02*
D03*
X581796D02*
D03*
X339716Y135128D02*
D03*
X322716D02*
D03*
X46872Y121158D02*
D03*
X63872D02*
D03*
X620404Y322072D02*
D03*
X637404D02*
D03*
X539046Y135128D02*
D03*
X556046D02*
D03*
X370450D02*
D03*
X353450D02*
D03*
D19*
X294132Y259452D02*
D03*
Y242452D02*
D03*
X296418Y318380D02*
D03*
Y301380D02*
D03*
X393954Y123580D02*
D03*
Y140580D02*
D03*
X143764Y338310D02*
D03*
Y321310D02*
D03*
X392430Y199508D02*
D03*
Y182508D02*
D03*
X543864Y121022D02*
D03*
Y104022D02*
D03*
D20*
X129074Y321818D02*
D03*
X102574D02*
D03*
X558758Y120396D02*
D03*
X585258D02*
D03*
X73956Y338328D02*
D03*
X47456D02*
D03*
X68876Y135890D02*
D03*
X42376D02*
D03*
X642662Y305308D02*
D03*
X616162D02*
D03*
X613368Y105664D02*
D03*
X639868D02*
D03*
D21*
X148590Y279400D02*
D03*
Y293400D02*
D03*
X539496Y148702D02*
D03*
Y162702D02*
D03*
D22*
X273914Y242316D02*
D03*
Y267716D02*
D03*
Y280416D02*
D03*
Y293116D02*
D03*
Y305816D02*
D03*
Y318516D02*
D03*
Y331216D02*
D03*
X166218D02*
D03*
Y318516D02*
D03*
Y305816D02*
D03*
Y293116D02*
D03*
Y280416D02*
D03*
Y267716D02*
D03*
Y255016D02*
D03*
Y242316D02*
D03*
X413167Y199644D02*
D03*
Y136144D02*
D03*
Y110744D02*
D03*
X520863D02*
D03*
X413167Y161544D02*
D03*
Y174244D02*
D03*
Y148844D02*
D03*
X520863Y174244D02*
D03*
X413167Y123444D02*
D03*
X520863Y186944D02*
D03*
Y161544D02*
D03*
Y136144D02*
D03*
Y199644D02*
D03*
Y123444D02*
D03*
Y148844D02*
D03*
D23*
X71649Y247141D02*
D03*
X42649D02*
D03*
Y269747D02*
D03*
X71649D02*
D03*
Y292353D02*
D03*
X42649D02*
D03*
X71649Y314959D02*
D03*
X42649D02*
D03*
Y224281D02*
D03*
X71649D02*
D03*
Y156209D02*
D03*
X42649D02*
D03*
X71649Y178900D02*
D03*
X42649D02*
D03*
X71649Y201590D02*
D03*
X42649D02*
D03*
X41381Y373057D02*
D03*
X70381D02*
D03*
X88117D02*
D03*
X117117D02*
D03*
X134853D02*
D03*
X163853D02*
D03*
X615421Y126493D02*
D03*
X644421D02*
D03*
X615421Y149099D02*
D03*
X644421D02*
D03*
X615421Y171705D02*
D03*
X644421D02*
D03*
X615421Y194311D02*
D03*
X644421D02*
D03*
Y216917D02*
D03*
X615421D02*
D03*
Y239523D02*
D03*
X644421D02*
D03*
X615421Y262129D02*
D03*
X644421D02*
D03*
Y284735D02*
D03*
X615421D02*
D03*
X125751Y240031D02*
D03*
X96751D02*
D03*
X125751Y263651D02*
D03*
X96751D02*
D03*
X183663Y216545D02*
D03*
X154663D02*
D03*
X183663Y192531D02*
D03*
X154663D02*
D03*
X591079Y201930D02*
D03*
X562079D02*
D03*
X591079Y177991D02*
D03*
X562079D02*
D03*
X540027Y228855D02*
D03*
X511027D02*
D03*
X540027Y251461D02*
D03*
X511027D02*
D03*
X599717Y69089D02*
D03*
X570717D02*
D03*
X552981D02*
D03*
X523981D02*
D03*
X646453D02*
D03*
X617453D02*
D03*
D24*
X506476Y69554D02*
D03*
Y96054D02*
D03*
X181610Y344890D02*
D03*
Y371390D02*
D03*
M02*
