G04*
G04 #@! TF.GenerationSoftware,Altium Limited,Altium Designer,19.1.7 (138)*
G04*
G04 Layer_Physical_Order=2*
G04 Layer_Color=16711680*
%FSLAX44Y44*%
%MOMM*%
G71*
G01*
G75*
G04:AMPARAMS|DCode=18|XSize=1mm|YSize=0.9mm|CornerRadius=0.225mm|HoleSize=0mm|Usage=FLASHONLY|Rotation=90.000|XOffset=0mm|YOffset=0mm|HoleType=Round|Shape=RoundedRectangle|*
%AMROUNDEDRECTD18*
21,1,1.0000,0.4500,0,0,90.0*
21,1,0.5500,0.9000,0,0,90.0*
1,1,0.4500,0.2250,0.2750*
1,1,0.4500,0.2250,-0.2750*
1,1,0.4500,-0.2250,-0.2750*
1,1,0.4500,-0.2250,0.2750*
%
%ADD18ROUNDEDRECTD18*%
G04:AMPARAMS|DCode=19|XSize=1mm|YSize=0.9mm|CornerRadius=0.225mm|HoleSize=0mm|Usage=FLASHONLY|Rotation=0.000|XOffset=0mm|YOffset=0mm|HoleType=Round|Shape=RoundedRectangle|*
%AMROUNDEDRECTD19*
21,1,1.0000,0.4500,0,0,0.0*
21,1,0.5500,0.9000,0,0,0.0*
1,1,0.4500,0.2750,-0.2250*
1,1,0.4500,-0.2750,-0.2250*
1,1,0.4500,-0.2750,0.2250*
1,1,0.4500,0.2750,0.2250*
%
%ADD19ROUNDEDRECTD19*%
G04:AMPARAMS|DCode=20|XSize=1mm|YSize=1mm|CornerRadius=0.25mm|HoleSize=0mm|Usage=FLASHONLY|Rotation=90.000|XOffset=0mm|YOffset=0mm|HoleType=Round|Shape=RoundedRectangle|*
%AMROUNDEDRECTD20*
21,1,1.0000,0.5000,0,0,90.0*
21,1,0.5000,1.0000,0,0,90.0*
1,1,0.5000,0.2500,0.2500*
1,1,0.5000,0.2500,-0.2500*
1,1,0.5000,-0.2500,-0.2500*
1,1,0.5000,-0.2500,0.2500*
%
%ADD20ROUNDEDRECTD20*%
G04:AMPARAMS|DCode=23|XSize=1.8mm|YSize=1.3mm|CornerRadius=0.325mm|HoleSize=0mm|Usage=FLASHONLY|Rotation=270.000|XOffset=0mm|YOffset=0mm|HoleType=Round|Shape=RoundedRectangle|*
%AMROUNDEDRECTD23*
21,1,1.8000,0.6500,0,0,270.0*
21,1,1.1500,1.3000,0,0,270.0*
1,1,0.6500,-0.3250,-0.5750*
1,1,0.6500,-0.3250,0.5750*
1,1,0.6500,0.3250,0.5750*
1,1,0.6500,0.3250,-0.5750*
%
%ADD23ROUNDEDRECTD23*%
%ADD36C,0.7620*%
%ADD37C,0.8890*%
%ADD38C,1.2700*%
%ADD40C,0.6350*%
%ADD42O,1.5240X1.5000*%
%ADD43C,1.5080*%
G04:AMPARAMS|DCode=44|XSize=1.508mm|YSize=1.508mm|CornerRadius=0.377mm|HoleSize=0mm|Usage=FLASHONLY|Rotation=0.000|XOffset=0mm|YOffset=0mm|HoleType=Round|Shape=RoundedRectangle|*
%AMROUNDEDRECTD44*
21,1,1.5080,0.7540,0,0,0.0*
21,1,0.7540,1.5080,0,0,0.0*
1,1,0.7540,0.3770,-0.3770*
1,1,0.7540,-0.3770,-0.3770*
1,1,0.7540,-0.3770,0.3770*
1,1,0.7540,0.3770,0.3770*
%
%ADD44ROUNDEDRECTD44*%
%ADD45C,0.6000*%
G04:AMPARAMS|DCode=46|XSize=1.2mm|YSize=1.5mm|CornerRadius=0.3mm|HoleSize=0mm|Usage=FLASHONLY|Rotation=0.000|XOffset=0mm|YOffset=0mm|HoleType=Round|Shape=RoundedRectangle|*
%AMROUNDEDRECTD46*
21,1,1.2000,0.9000,0,0,0.0*
21,1,0.6000,1.5000,0,0,0.0*
1,1,0.6000,0.3000,-0.4500*
1,1,0.6000,-0.3000,-0.4500*
1,1,0.6000,-0.3000,0.4500*
1,1,0.6000,0.3000,0.4500*
%
%ADD46ROUNDEDRECTD46*%
G04:AMPARAMS|DCode=47|XSize=1.8mm|YSize=1.3mm|CornerRadius=0.325mm|HoleSize=0mm|Usage=FLASHONLY|Rotation=0.000|XOffset=0mm|YOffset=0mm|HoleType=Round|Shape=RoundedRectangle|*
%AMROUNDEDRECTD47*
21,1,1.8000,0.6500,0,0,0.0*
21,1,1.1500,1.3000,0,0,0.0*
1,1,0.6500,0.5750,-0.3250*
1,1,0.6500,-0.5750,-0.3250*
1,1,0.6500,-0.5750,0.3250*
1,1,0.6500,0.5750,0.3250*
%
%ADD47ROUNDEDRECTD47*%
G04:AMPARAMS|DCode=48|XSize=0.6mm|YSize=0.7mm|CornerRadius=0.15mm|HoleSize=0mm|Usage=FLASHONLY|Rotation=270.000|XOffset=0mm|YOffset=0mm|HoleType=Round|Shape=RoundedRectangle|*
%AMROUNDEDRECTD48*
21,1,0.6000,0.4000,0,0,270.0*
21,1,0.3000,0.7000,0,0,270.0*
1,1,0.3000,-0.2000,-0.1500*
1,1,0.3000,-0.2000,0.1500*
1,1,0.3000,0.2000,0.1500*
1,1,0.3000,0.2000,-0.1500*
%
%ADD48ROUNDEDRECTD48*%
G04:AMPARAMS|DCode=49|XSize=1.52mm|YSize=1.1mm|CornerRadius=0.275mm|HoleSize=0mm|Usage=FLASHONLY|Rotation=270.000|XOffset=0mm|YOffset=0mm|HoleType=Round|Shape=RoundedRectangle|*
%AMROUNDEDRECTD49*
21,1,1.5200,0.5500,0,0,270.0*
21,1,0.9700,1.1000,0,0,270.0*
1,1,0.5500,-0.2750,-0.4850*
1,1,0.5500,-0.2750,0.4850*
1,1,0.5500,0.2750,0.4850*
1,1,0.5500,0.2750,-0.4850*
%
%ADD49ROUNDEDRECTD49*%
G04:AMPARAMS|DCode=50|XSize=1.3mm|YSize=1.3mm|CornerRadius=0.325mm|HoleSize=0mm|Usage=FLASHONLY|Rotation=180.000|XOffset=0mm|YOffset=0mm|HoleType=Round|Shape=RoundedRectangle|*
%AMROUNDEDRECTD50*
21,1,1.3000,0.6500,0,0,180.0*
21,1,0.6500,1.3000,0,0,180.0*
1,1,0.6500,-0.3250,0.3250*
1,1,0.6500,0.3250,0.3250*
1,1,0.6500,0.3250,-0.3250*
1,1,0.6500,-0.3250,-0.3250*
%
%ADD50ROUNDEDRECTD50*%
G04:AMPARAMS|DCode=51|XSize=2.5mm|YSize=3mm|CornerRadius=0.625mm|HoleSize=0mm|Usage=FLASHONLY|Rotation=0.000|XOffset=0mm|YOffset=0mm|HoleType=Round|Shape=RoundedRectangle|*
%AMROUNDEDRECTD51*
21,1,2.5000,1.7500,0,0,0.0*
21,1,1.2500,3.0000,0,0,0.0*
1,1,1.2500,0.6250,-0.8750*
1,1,1.2500,-0.6250,-0.8750*
1,1,1.2500,-0.6250,0.8750*
1,1,1.2500,0.6250,0.8750*
%
%ADD51ROUNDEDRECTD51*%
G04:AMPARAMS|DCode=52|XSize=1.52mm|YSize=1.1mm|CornerRadius=0.275mm|HoleSize=0mm|Usage=FLASHONLY|Rotation=180.000|XOffset=0mm|YOffset=0mm|HoleType=Round|Shape=RoundedRectangle|*
%AMROUNDEDRECTD52*
21,1,1.5200,0.5500,0,0,180.0*
21,1,0.9700,1.1000,0,0,180.0*
1,1,0.5500,-0.4850,0.2750*
1,1,0.5500,0.4850,0.2750*
1,1,0.5500,0.4850,-0.2750*
1,1,0.5500,-0.4850,-0.2750*
%
%ADD52ROUNDEDRECTD52*%
%ADD53C,1.1176*%
%ADD54C,1.0160*%
%ADD55C,1.1430*%
G36*
X331565Y387604D02*
X332910Y387604D01*
X335588Y387340D01*
X338226Y386815D01*
X340801Y386034D01*
X343287Y385005D01*
X345660Y383736D01*
X347897Y382241D01*
X349977Y380535D01*
X350928Y379583D01*
X350928Y379583D01*
X350928Y379583D01*
X388733Y341779D01*
X390220Y340431D01*
X393554Y338203D01*
X397258Y336669D01*
X401191Y335886D01*
X403196Y335788D01*
X415498D01*
X416444Y334518D01*
X416196Y333272D01*
Y327916D01*
X415940Y327660D01*
X414637Y325962D01*
X413818Y323985D01*
X413539Y321863D01*
Y320876D01*
X413506Y319243D01*
X413353Y317286D01*
X413257Y316644D01*
X413223Y316495D01*
X412693Y316139D01*
X412127Y315844D01*
X411424Y315560D01*
X410586Y315297D01*
X409615Y315064D01*
X408568Y314877D01*
X407693Y314803D01*
X407358Y315026D01*
X405196Y315457D01*
X399196D01*
X397034Y315026D01*
X395202Y313802D01*
X394152Y312230D01*
X393645Y312124D01*
X393247D01*
X392740Y312230D01*
X391690Y313802D01*
X389858Y315026D01*
X387696Y315457D01*
X381696D01*
X379534Y315026D01*
X377702Y313802D01*
X376478Y311970D01*
X376048Y309808D01*
Y300808D01*
X376478Y298646D01*
X376521Y298582D01*
X376543Y296631D01*
X376419Y294332D01*
X376187Y292313D01*
X367774Y292067D01*
X364837D01*
X363452Y291885D01*
X362070Y292067D01*
X361830D01*
X359209Y291721D01*
X356767Y290710D01*
X354669Y289101D01*
X353060Y287003D01*
X352048Y284561D01*
X351703Y281940D01*
X352048Y279319D01*
X353060Y276877D01*
X354669Y274779D01*
X356767Y273170D01*
X359209Y272158D01*
X361830Y271813D01*
X362070D01*
X364691Y272158D01*
X367133Y273170D01*
X367448Y273411D01*
X367461Y273415D01*
X367571Y273505D01*
X367701Y273561D01*
X368195Y273898D01*
X368706Y274149D01*
X369436Y274413D01*
X370373Y274665D01*
X371506Y274891D01*
X372782Y275076D01*
X376195Y275301D01*
X377563Y275268D01*
X378035Y275230D01*
X378324Y275037D01*
X380583Y274587D01*
X392083D01*
X394342Y275037D01*
X396258Y276317D01*
X397537Y278232D01*
X397987Y280491D01*
Y286991D01*
X397537Y289250D01*
X397099Y289906D01*
X397001Y290122D01*
X396300Y291101D01*
X396258Y291165D01*
X396252Y291169D01*
X396249Y291173D01*
X395622Y292187D01*
X395070Y293233D01*
X394593Y294315D01*
X394199Y295402D01*
X393931Y296620D01*
X395060Y297026D01*
X395202Y296814D01*
X397034Y295590D01*
X399196Y295159D01*
X405196D01*
X407358Y295590D01*
X407949Y295985D01*
X408131Y296060D01*
X408724Y296455D01*
X409317Y296758D01*
X410064Y297052D01*
X410963Y297324D01*
X412011Y297565D01*
X413151Y297760D01*
X413853Y297817D01*
X414138Y297626D01*
X416600Y297136D01*
X417691D01*
X417793Y296872D01*
X417971Y296146D01*
X418116Y295169D01*
X418168Y294501D01*
Y292536D01*
X418231Y292219D01*
X418198Y292056D01*
Y286556D01*
X418570Y284687D01*
X419629Y283103D01*
X421213Y282044D01*
X423082Y281672D01*
X427582D01*
X429451Y282044D01*
X431035Y283103D01*
X432094Y284687D01*
X432466Y286556D01*
Y287486D01*
X433736Y287739D01*
X434313Y286347D01*
X435564Y284715D01*
X435570Y284687D01*
X436629Y283103D01*
X438213Y282044D01*
X440082Y281672D01*
X444582D01*
X446451Y282044D01*
X448035Y283103D01*
X449094Y284687D01*
X449277Y285609D01*
X449843Y286347D01*
X450739Y288509D01*
X451045Y290830D01*
Y298682D01*
X452959Y300151D01*
X453390Y300712D01*
X454660Y300281D01*
X454660Y297932D01*
X454376Y294969D01*
X453811Y292047D01*
X452970Y289192D01*
X451860Y286431D01*
X450492Y283787D01*
X448878Y281287D01*
X447033Y278951D01*
X446004Y277877D01*
X446004Y277877D01*
X446004Y277877D01*
X441974Y273672D01*
X440310Y271761D01*
X437564Y267506D01*
X435676Y262808D01*
X434715Y257836D01*
X434594Y255304D01*
X434594D01*
X434594Y105990D01*
X434594Y104596D01*
X434321Y101820D01*
X433777Y99085D01*
X432967Y96417D01*
X431900Y93840D01*
X430585Y91381D01*
X429036Y89062D01*
X427267Y86907D01*
X426281Y85921D01*
X426281Y85921D01*
X426281Y85921D01*
X407185Y66825D01*
X406189Y65828D01*
X404009Y64040D01*
X401664Y62473D01*
X399178Y61144D01*
X396572Y60065D01*
X393874Y59246D01*
X391109Y58696D01*
X388302Y58420D01*
X386893Y58420D01*
X386893Y58420D01*
X386893Y58420D01*
X354174Y58420D01*
X352097D01*
X348023Y59230D01*
X344186Y60820D01*
X340733Y63127D01*
X339264Y64596D01*
X304074Y99786D01*
X302362Y101337D01*
X298526Y103901D01*
X294263Y105666D01*
X289737Y106566D01*
X287431Y106679D01*
X287430Y106680D01*
X287430Y106680D01*
X273402D01*
X272743Y107725D01*
X272760Y107950D01*
X273160Y109958D01*
Y112254D01*
X273677Y113503D01*
X273983Y115824D01*
Y116855D01*
X274048Y119417D01*
X274317Y122438D01*
X274508Y123671D01*
X274737Y124765D01*
X274994Y125688D01*
X275103Y125984D01*
X275196Y126013D01*
X276077Y126212D01*
X277096Y126380D01*
X277153Y126384D01*
X277874Y126275D01*
X278728Y126097D01*
X279352Y125918D01*
X279713Y125770D01*
X280047Y125567D01*
X280191Y125515D01*
X280728Y125155D01*
X282890Y124726D01*
X288890D01*
X291052Y125155D01*
X292884Y126380D01*
X293934Y127952D01*
X294441Y128059D01*
X294839D01*
X295346Y127952D01*
X296396Y126380D01*
X298228Y125155D01*
X300390Y124726D01*
X306390D01*
X308552Y125155D01*
X310384Y126380D01*
X311609Y128212D01*
X312038Y130374D01*
Y139374D01*
X311716Y140994D01*
Y149432D01*
X318786Y149639D01*
X321979D01*
X323057Y149781D01*
X324134Y149923D01*
X324289Y149987D01*
X325000Y149893D01*
X325240D01*
X327861Y150239D01*
X330303Y151250D01*
X332401Y152859D01*
X334010Y154957D01*
X335022Y157399D01*
X335367Y160020D01*
X335022Y162641D01*
X334010Y165083D01*
X332401Y167181D01*
X330303Y168790D01*
X327861Y169802D01*
X325240Y170147D01*
X325000D01*
X322379Y169802D01*
X319937Y168790D01*
X319622Y168549D01*
X319609Y168545D01*
X319497Y168452D01*
X319489Y168447D01*
X319350Y168386D01*
X318788Y167994D01*
X318212Y167698D01*
X317440Y167400D01*
X316479Y167121D01*
X315334Y166871D01*
X314062Y166668D01*
X310459Y166402D01*
X308997Y166437D01*
X308526Y166476D01*
X308236Y166669D01*
X305977Y167119D01*
X294477D01*
X292218Y166669D01*
X290303Y165389D01*
X289023Y163474D01*
X288574Y161215D01*
Y154715D01*
X289023Y152456D01*
X290303Y150541D01*
X290724Y150259D01*
X291456Y149641D01*
X292210Y148864D01*
X292871Y148030D01*
X293444Y147132D01*
X293932Y146163D01*
X294337Y145116D01*
X294658Y143984D01*
X294892Y142762D01*
X294907Y142627D01*
X293678Y142180D01*
X292884Y143368D01*
X291052Y144593D01*
X288890Y145022D01*
X282890D01*
X280728Y144593D01*
X280244Y144269D01*
X280146Y144238D01*
X279967Y144139D01*
X279739Y144065D01*
X279290Y143967D01*
X275182Y143711D01*
X275062Y143718D01*
X274277Y143807D01*
X273739Y143897D01*
X273583Y143939D01*
X273498Y143981D01*
X273436Y143997D01*
X273367Y144043D01*
X273201Y146838D01*
Y148247D01*
X273059Y149325D01*
X272917Y150402D01*
X272086Y152410D01*
X270763Y154135D01*
X269797Y155100D01*
X269516Y156511D01*
X268457Y158095D01*
X266873Y159154D01*
X265004Y159526D01*
X260504D01*
X258635Y159154D01*
X257051Y158095D01*
X255992Y156511D01*
X255620Y154642D01*
X255084Y154236D01*
X253653Y154528D01*
X253519Y154851D01*
X252611Y156036D01*
X252516Y156511D01*
X251457Y158095D01*
X249873Y159154D01*
X248004Y159526D01*
X243504D01*
X241635Y159154D01*
X240051Y158095D01*
X238992Y156511D01*
X238897Y156036D01*
X237989Y154851D01*
X237093Y152689D01*
X236787Y150368D01*
Y143661D01*
X236217Y143425D01*
X234950Y142453D01*
X233680Y143079D01*
Y152364D01*
X233680Y154158D01*
X234380Y157677D01*
X235753Y160993D01*
X237747Y163976D01*
X239015Y165245D01*
X239016Y165245D01*
X250541Y176770D01*
X251528Y177807D01*
X253343Y180018D01*
X254932Y182397D01*
X256281Y184921D01*
X257376Y187564D01*
X258206Y190301D01*
X258764Y193108D01*
X259045Y195955D01*
X259080Y197385D01*
X259080Y197386D01*
Y258341D01*
X260035Y259179D01*
X261366Y259003D01*
X265962D01*
X268063Y258585D01*
X279563D01*
X281664Y259003D01*
X285750D01*
X288071Y259309D01*
X290233Y260205D01*
X292090Y261630D01*
X293515Y263487D01*
X294411Y265649D01*
X294717Y267970D01*
X294411Y270291D01*
X293515Y272453D01*
X292090Y274310D01*
X290233Y275735D01*
X288071Y276631D01*
X285750Y276937D01*
X261366D01*
X260035Y276761D01*
X259080Y277599D01*
Y347015D01*
X259080Y349539D01*
X260065Y354491D01*
X261997Y359156D01*
X264802Y363354D01*
X266587Y365139D01*
X266587Y365139D01*
X282307Y380859D01*
X283911Y382463D01*
X287682Y384983D01*
X291873Y386719D01*
X296323Y387604D01*
X298591Y387604D01*
X298591Y387604D01*
X331565Y387604D01*
D02*
G37*
G36*
X177498Y382460D02*
X180211Y381336D01*
X182653Y379704D01*
X183691Y378665D01*
X183691Y378665D01*
X186567Y375789D01*
X187442Y374915D01*
X188818Y372858D01*
X189764Y370571D01*
X190247Y368144D01*
X190246Y366907D01*
X190246Y366907D01*
X190246Y235556D01*
X190347Y233489D01*
X191154Y229435D01*
X192736Y225616D01*
X195032Y222179D01*
X196422Y220646D01*
X196422Y220646D01*
X201736Y215331D01*
X203353Y213716D01*
X205894Y209915D01*
X207643Y205691D01*
X208534Y201206D01*
X208534Y198921D01*
X208534Y198921D01*
X208534Y118023D01*
X208534Y117379D01*
X208283Y116117D01*
X207790Y114927D01*
X207075Y113857D01*
X206620Y113402D01*
X206620Y113402D01*
X205009Y111791D01*
X204518Y111300D01*
X203365Y110529D01*
X202083Y109999D01*
X200722Y109728D01*
X200029Y109728D01*
X200029D01*
X177459Y109728D01*
X176875Y109728D01*
X175731Y109956D01*
X174654Y110402D01*
X173684Y111050D01*
X173271Y111462D01*
X173271Y111462D01*
X170465Y114269D01*
X170156Y114579D01*
X169669Y115306D01*
X169335Y116114D01*
X169164Y116972D01*
Y117410D01*
X169164Y117410D01*
X169164Y118854D01*
X169164Y119764D01*
X169519Y121550D01*
X170216Y123231D01*
X171227Y124745D01*
X171871Y125389D01*
X171871Y125389D01*
X177844Y131362D01*
X178176Y131729D01*
X178727Y132552D01*
X179105Y133467D01*
X179298Y134438D01*
X179323Y134933D01*
X179323Y134933D01*
X179323Y136483D01*
Y137127D01*
X179574Y138390D01*
X180067Y139580D01*
X180783Y140651D01*
X181238Y141106D01*
X181238Y141106D01*
X183178Y143046D01*
X183454Y143350D01*
X183910Y144032D01*
X184224Y144791D01*
X184384Y145596D01*
X184404Y146006D01*
X184404Y146006D01*
X184404Y152274D01*
X184404Y152787D01*
X184604Y153793D01*
X184997Y154742D01*
X185567Y155595D01*
X185930Y155958D01*
X185930Y155958D01*
X187570Y157598D01*
X187943Y158010D01*
X188561Y158934D01*
X188986Y159960D01*
X189202Y161050D01*
X189230Y161605D01*
X189230Y161605D01*
X189230Y174077D01*
X189190Y174898D01*
X188870Y176508D01*
X188241Y178025D01*
X187329Y179390D01*
X186777Y179999D01*
X186777Y179999D01*
X184645Y182131D01*
X183984Y182792D01*
X182945Y184347D01*
X182229Y186075D01*
X181864Y187910D01*
Y188845D01*
Y188845D01*
X181864Y194143D01*
X181824Y194964D01*
X181504Y196574D01*
X180876Y198091D01*
X179963Y199456D01*
X179411Y200065D01*
X179411Y200065D01*
X176784Y202692D01*
X171052Y208424D01*
X169456Y210020D01*
X166947Y213775D01*
X165219Y217947D01*
X164338Y222376D01*
X164338Y224634D01*
Y224634D01*
X164338Y263888D01*
Y264738D01*
X164670Y266405D01*
X165320Y267975D01*
X166264Y269388D01*
X166865Y269989D01*
X166865Y269989D01*
X171178Y274302D01*
X171868Y275063D01*
X173008Y276769D01*
X173794Y278665D01*
X174194Y280678D01*
X174244Y281704D01*
X174244Y281704D01*
X174244Y333948D01*
X174211Y334624D01*
X173948Y335950D01*
X173431Y337199D01*
X172679Y338322D01*
X172225Y338823D01*
X172225Y338823D01*
X168717Y342330D01*
X168072Y342916D01*
X166625Y343885D01*
X165016Y344551D01*
X163307Y344890D01*
X162437Y344932D01*
X162437Y344932D01*
X149606Y344932D01*
X148696Y344932D01*
X147016Y345628D01*
X145730Y346914D01*
X145034Y348594D01*
X145034Y349504D01*
Y349504D01*
X145034Y354882D01*
X145014Y355292D01*
X144855Y356097D01*
X144541Y356856D01*
X144084Y357538D01*
X143807Y357842D01*
X143808Y357842D01*
X141928Y359722D01*
X141459Y360191D01*
X140721Y361295D01*
X140213Y362522D01*
X139954Y363824D01*
X139954Y364488D01*
Y364488D01*
X139954Y373721D01*
X139954Y374425D01*
X140229Y375806D01*
X140767Y377107D01*
X141550Y378278D01*
X142048Y378775D01*
X142048Y378776D01*
X144390Y381118D01*
X144845Y381573D01*
X145915Y382289D01*
X147105Y382781D01*
X148367Y383032D01*
X149011Y383032D01*
X149011Y383032D01*
X173148Y383032D01*
X174617Y383032D01*
X177498Y382460D01*
D02*
G37*
G36*
X132104Y362376D02*
X131984Y361973D01*
X131877Y361441D01*
X131785Y360783D01*
X131643Y359083D01*
X131643Y359071D01*
X131896Y355352D01*
X132028Y354648D01*
X132180Y354058D01*
X132353Y353583D01*
X132546Y353222D01*
X124256D01*
Y344932D01*
X123895Y345125D01*
X123420Y345298D01*
X122830Y345450D01*
X122126Y345582D01*
X120451Y345777D01*
X119418Y345605D01*
X118423Y345338D01*
X117582Y344995D01*
X116893Y344576D01*
X116358Y344081D01*
X115975Y343510D01*
X115746Y342862D01*
X115669Y342138D01*
Y345946D01*
X115505Y345948D01*
Y353568D01*
X115669Y353569D01*
Y357378D01*
X115746Y356654D01*
X115975Y356006D01*
X116358Y355435D01*
X116893Y354940D01*
X117582Y354520D01*
X118423Y354178D01*
X119418Y353911D01*
X120107Y353797D01*
X122126Y353934D01*
X122830Y354066D01*
X123293Y354185D01*
X123412Y354648D01*
X123544Y355352D01*
X123747Y357102D01*
X123776Y357611D01*
X123557Y362652D01*
X132239D01*
X132104Y362376D01*
D02*
G37*
G36*
X19725Y371348D02*
X19725Y371348D01*
X23368Y371348D01*
X47821Y371348D01*
X49073Y371348D01*
X51529Y370860D01*
X53842Y369902D01*
X55924Y368511D01*
X56809Y367625D01*
X56809D01*
X60093Y364341D01*
X60782Y363652D01*
X61865Y362031D01*
X62611Y360229D01*
X62992Y358317D01*
X62992Y357342D01*
X62992D01*
X62992Y344932D01*
X62992Y344107D01*
X62670Y342487D01*
X62038Y340962D01*
X61121Y339590D01*
X59954Y338422D01*
X58581Y337505D01*
X57056Y336874D01*
X55437Y336551D01*
X54611D01*
X30480Y336550D01*
X25715Y331786D01*
X25278Y331348D01*
X24249Y330661D01*
X23107Y330188D01*
X21893Y329947D01*
X21275Y329947D01*
X21274Y329946D01*
X19471Y329946D01*
X18827Y329946D01*
X17565Y330197D01*
X16375Y330690D01*
X15305Y331405D01*
X14850Y331860D01*
X14850Y331860D01*
X10971Y335739D01*
X10053Y336657D01*
X8612Y338815D01*
X7618Y341212D01*
X7112Y343758D01*
X7112Y345055D01*
X7112Y345055D01*
X7112Y356344D01*
X7112Y357617D01*
X7609Y360113D01*
X8583Y362464D01*
X9997Y364581D01*
X10897Y365480D01*
X10896D01*
X14670Y369255D01*
X15168Y369752D01*
X16339Y370535D01*
X17640Y371074D01*
X19021Y371348D01*
X19725Y371348D01*
D02*
G37*
G36*
X125625Y330200D02*
X126838Y329697D01*
X127767Y328768D01*
X128053Y328079D01*
X128270Y326898D01*
D01*
X128270Y325722D01*
Y313740D01*
X122682Y313740D01*
X122680Y313739D01*
X121974D01*
X120983Y313542D01*
X119676Y313001D01*
X118836Y312439D01*
X117836Y311439D01*
X117275Y310599D01*
X116733Y309292D01*
X116536Y308301D01*
Y305616D01*
X116525Y305562D01*
X116536Y305508D01*
X116536Y281617D01*
X116536Y281617D01*
Y280098D01*
X116586Y279848D01*
Y279593D01*
X117179Y276614D01*
X117276Y276378D01*
X117326Y276128D01*
X118488Y273322D01*
X118630Y273110D01*
X118728Y272874D01*
X120415Y270348D01*
X120596Y270168D01*
X120737Y269956D01*
X128489Y262205D01*
X127963Y260935D01*
X122174D01*
X122174Y260935D01*
X119853Y260629D01*
X117691Y259733D01*
X115834Y258308D01*
X115834Y258308D01*
X99809Y242284D01*
X98384Y240427D01*
X97861Y239166D01*
X97804Y239089D01*
X97741Y238958D01*
X97645Y238849D01*
X96947Y237661D01*
X96830Y237324D01*
X96674Y237003D01*
X96469Y236219D01*
X96460Y236063D01*
X96409Y235916D01*
X96431Y235563D01*
X96410Y235210D01*
X96461Y235063D01*
X96470Y234907D01*
X96625Y234589D01*
X96741Y234256D01*
X96844Y234139D01*
X96913Y233998D01*
X97183Y233643D01*
Y233535D01*
X97041Y232825D01*
Y221325D01*
X97183Y220616D01*
Y209890D01*
X96996Y208951D01*
Y197451D01*
X97445Y195192D01*
X98725Y193277D01*
X100640Y191997D01*
X101350Y191856D01*
X101530Y191779D01*
X102329Y191612D01*
X103087Y191351D01*
X103988Y190935D01*
X105016Y190355D01*
X106157Y189609D01*
X107363Y188724D01*
X111734Y184935D01*
X111745Y184924D01*
X118033Y178636D01*
Y171719D01*
X117831Y171231D01*
X117525Y168910D01*
Y161011D01*
X117831Y158690D01*
X118727Y156527D01*
X120152Y154670D01*
X127732Y147089D01*
X127811Y146543D01*
X127466Y145560D01*
X127081Y145432D01*
X126961Y145472D01*
X126436Y145823D01*
X124177Y146273D01*
X117677D01*
X115418Y145823D01*
X113503Y144544D01*
X112223Y142628D01*
X111773Y140369D01*
Y128869D01*
X112223Y126610D01*
X113503Y124695D01*
X115418Y123415D01*
X117677Y122966D01*
X124177D01*
X126436Y123415D01*
X128351Y124695D01*
X128562Y125011D01*
X128663Y125116D01*
X128943Y125317D01*
X129422Y125561D01*
X130106Y125815D01*
X130405Y125896D01*
X131675Y125102D01*
Y124441D01*
X131980Y122120D01*
X132876Y119957D01*
X134301Y118100D01*
X139157Y113244D01*
X139538Y111331D01*
X140818Y109416D01*
X141491Y108966D01*
X141105Y107696D01*
X60437D01*
X58119Y107696D01*
X53506Y108150D01*
X48959Y109055D01*
X44523Y110400D01*
X40240Y112174D01*
X36152Y114360D01*
X32297Y116935D01*
X28714Y119876D01*
X27075Y121515D01*
X27075Y121515D01*
X27075Y121515D01*
X15394Y133196D01*
X13272Y135782D01*
X11413Y138564D01*
X9836Y141514D01*
X8556Y144605D01*
X7585Y147806D01*
X6932Y151088D01*
X6712Y153318D01*
X6712Y288659D01*
X6858Y290136D01*
X7363Y292676D01*
X8114Y295153D01*
X9105Y297545D01*
X10325Y299828D01*
X11764Y301981D01*
X13406Y303982D01*
X14322Y304897D01*
X14322Y304898D01*
X25776Y316352D01*
X25853Y316367D01*
X27162Y316812D01*
X28498Y317169D01*
X29641Y317643D01*
X30838Y318333D01*
X32077Y318945D01*
X33106Y319632D01*
X34145Y320543D01*
X35241Y321384D01*
X35679Y321822D01*
X35679Y321822D01*
X35679Y321822D01*
X36317Y322460D01*
X36951Y322460D01*
X38986Y321843D01*
X42950Y321452D01*
X55450D01*
X59414Y321843D01*
X63225Y322999D01*
X66738Y324876D01*
X69817Y327403D01*
X72112Y330200D01*
X125625Y330200D01*
D02*
G37*
G36*
X524066Y315265D02*
X525373Y314723D01*
X526550Y313937D01*
X527050Y313436D01*
X529020Y311466D01*
X529020Y311465D01*
X529700Y310787D01*
X530767Y309190D01*
X531502Y307416D01*
X531877Y305532D01*
X531876Y304572D01*
X531876Y299825D01*
Y299825D01*
X531889Y299560D01*
X531992Y299039D01*
X532196Y298549D01*
X532491Y298108D01*
X532669Y297911D01*
X535042Y295538D01*
X535042Y295538D01*
X535437Y295144D01*
X536057Y294215D01*
X536484Y293184D01*
X536702Y292089D01*
X536702Y291530D01*
X536702Y288413D01*
X536702Y288413D01*
X536702Y287659D01*
X536408Y286180D01*
X535830Y284787D01*
X534993Y283533D01*
X534459Y282999D01*
X530596Y279135D01*
X530595Y279135D01*
X530241Y278744D01*
X529655Y277868D01*
X529252Y276894D01*
X529046Y275860D01*
X529021Y275333D01*
X529021Y267654D01*
X529021Y267654D01*
Y267060D01*
X528566Y265963D01*
X527725Y265122D01*
X526628Y264668D01*
X526034Y264668D01*
X517651Y264669D01*
X517651D01*
X517095Y264669D01*
X516069Y265094D01*
X515283Y265880D01*
X514858Y266907D01*
X514858Y267462D01*
X514858Y278428D01*
X514858Y278428D01*
X514832Y278958D01*
X514626Y279999D01*
X514220Y280980D01*
X513629Y281862D01*
X513272Y282256D01*
X510273Y285255D01*
X510273Y285254D01*
X509793Y285735D01*
X509039Y286864D01*
X508519Y288118D01*
X508254Y289450D01*
X508254Y290130D01*
X508254Y293668D01*
Y293667D01*
X508254Y294080D01*
X508414Y294889D01*
X508730Y295651D01*
X509188Y296337D01*
X509480Y296628D01*
X511017Y298165D01*
X511017Y298165D01*
X511253Y298425D01*
X511643Y299007D01*
X511911Y299655D01*
X512047Y300342D01*
X512064Y300692D01*
Y305079D01*
X512064Y305919D01*
X512391Y307566D01*
X513033Y309117D01*
X513966Y310513D01*
X514560Y311106D01*
X516890Y313436D01*
X516890Y313436D01*
X517390Y313937D01*
X518567Y314723D01*
X519874Y315265D01*
X521262Y315541D01*
X522678Y315542D01*
X524066Y315265D01*
D02*
G37*
G36*
X427406Y312996D02*
X414767Y314366D01*
X415030Y314414D01*
X415265Y314618D01*
X415472Y314977D01*
X415652Y315493D01*
X415804Y316165D01*
X415928Y316993D01*
X416094Y319116D01*
X416149Y321863D01*
X427325D01*
X427406Y312996D01*
D02*
G37*
G36*
X414714Y311953D02*
X418501Y311912D01*
X419354Y300736D01*
X417540Y300711D01*
X414714Y300484D01*
Y300304D01*
X414495Y300386D01*
X414174Y300441D01*
X412829Y300333D01*
X411502Y300105D01*
X410297Y299828D01*
X409213Y299500D01*
X408252Y299122D01*
X407412Y298693D01*
X406694Y298214D01*
Y300700D01*
X402975Y300736D01*
X402862Y311912D01*
X404536Y311937D01*
X406694Y312119D01*
Y312402D01*
X406926Y312309D01*
X407370Y312225D01*
X407620Y312197D01*
X408906Y312306D01*
X410145Y312528D01*
X411276Y312799D01*
X412299Y313120D01*
X413212Y313489D01*
X414017Y313908D01*
X414714Y314376D01*
Y311953D01*
D02*
G37*
G36*
X513184Y332328D02*
X513819Y332065D01*
X514391Y331683D01*
X514634Y331439D01*
X514635Y331440D01*
X516605Y329469D01*
X516975Y329100D01*
X517556Y328230D01*
X517956Y327264D01*
X518160Y326238D01*
X518160Y325715D01*
X518160Y325715D01*
Y323813D01*
X518161Y322613D01*
X517694Y320261D01*
X516776Y318045D01*
X515443Y316052D01*
X514594Y315204D01*
X509914Y310524D01*
X509483Y310049D01*
X508771Y308985D01*
X508281Y307802D01*
X508032Y306546D01*
X508001Y305905D01*
Y305905D01*
X508001Y304610D01*
X508002Y304051D01*
X507785Y302955D01*
X507357Y301923D01*
X506736Y300994D01*
X506340Y300600D01*
X506340D01*
X504834Y299094D01*
X504403Y298619D01*
X503691Y297554D01*
X503200Y296370D01*
X502951Y295114D01*
X502920Y294473D01*
Y289114D01*
X502921Y288616D01*
X502727Y287639D01*
X502346Y286719D01*
X501792Y285891D01*
X501440Y285539D01*
X501440Y285540D01*
X501440Y285539D01*
D01*
X499156Y283256D01*
X498688Y282740D01*
X497915Y281584D01*
X497383Y280299D01*
X497112Y278935D01*
X497078Y278240D01*
Y268645D01*
X497121Y267764D01*
X497465Y266036D01*
X498139Y264408D01*
X499118Y262943D01*
X499711Y262290D01*
X499711D01*
X504172Y257828D01*
X504933Y257068D01*
X506128Y255280D01*
X506951Y253294D01*
X507370Y251184D01*
X507369Y250109D01*
X507369Y250109D01*
X507369Y248218D01*
X507410Y247391D01*
X507732Y245770D01*
X508365Y244242D01*
X509284Y242868D01*
X509840Y242254D01*
X509840D01*
X520593Y231500D01*
X521827Y230268D01*
X523766Y227368D01*
X525101Y224145D01*
X525781Y220723D01*
X525780Y218979D01*
X525780Y218979D01*
Y196341D01*
X525780Y196342D01*
X526108Y195582D01*
X526967Y194168D01*
X528069Y192936D01*
X529379Y191926D01*
X530098Y191516D01*
X539373Y191516D01*
X540333Y191516D01*
X542217Y191141D01*
X543992Y190406D01*
X545589Y189339D01*
X546269Y188660D01*
X546268Y188660D01*
X563936Y170993D01*
X565009Y169919D01*
X566697Y167393D01*
X567859Y164587D01*
X568452Y161608D01*
Y160089D01*
X568452Y160089D01*
X568452Y134112D01*
Y133405D01*
X567911Y132098D01*
X566911Y131098D01*
X565604Y130556D01*
X564897D01*
X564896Y130556D01*
X555498Y130556D01*
X554740Y130556D01*
X553340Y131136D01*
X552268Y132208D01*
X551688Y133608D01*
X551688Y134366D01*
X551688Y134366D01*
X551688Y137904D01*
X551652Y138643D01*
X551364Y140092D01*
X550798Y141456D01*
X549977Y142685D01*
X549481Y143233D01*
X549481Y143233D01*
X547837Y144877D01*
X547047Y145667D01*
X545800Y147521D01*
X544933Y149581D01*
X544478Y151769D01*
X544465Y152886D01*
X544465Y152886D01*
X544321Y165451D01*
X544227Y167011D01*
X543592Y170067D01*
X542381Y172943D01*
X540640Y175534D01*
X539589Y176691D01*
X539589Y176691D01*
X537272Y179008D01*
X536689Y179537D01*
X535382Y180410D01*
X533931Y181011D01*
X532390Y181317D01*
X531604Y181356D01*
X531604Y181356D01*
X530098D01*
Y181356D01*
X530096Y181356D01*
X529198Y181356D01*
X527739Y181029D01*
X526378Y180194D01*
X525361Y178963D01*
X525207Y178638D01*
X525204Y178623D01*
X524072Y175891D01*
X522429Y173432D01*
X521382Y172386D01*
X521382Y172386D01*
X517806Y168810D01*
X516870Y167778D01*
X515325Y165465D01*
X514260Y162895D01*
X513717Y160166D01*
X513649Y158775D01*
Y110929D01*
X513705Y109789D01*
X514150Y107552D01*
X515023Y105445D01*
X516290Y103549D01*
X517057Y102703D01*
X517057D01*
X520025Y99735D01*
X520823Y99011D01*
X522612Y97816D01*
X524600Y96993D01*
X526711Y96573D01*
X527786Y96520D01*
X527786D01*
X529361Y96520D01*
X530443Y96520D01*
X532563Y96099D01*
X534561Y95272D01*
X536359Y94070D01*
X537123Y93305D01*
X537123Y93305D01*
X540525Y89903D01*
X540945Y89484D01*
X541605Y88497D01*
X542060Y87400D01*
X542291Y86235D01*
X542290Y85642D01*
X542290Y85642D01*
X542290Y83225D01*
X542324Y82524D01*
X542598Y81150D01*
X543134Y79855D01*
X543913Y78690D01*
X544384Y78170D01*
X544384Y78170D01*
X546092Y76461D01*
X546397Y76158D01*
X546875Y75444D01*
X547203Y74650D01*
X547370Y73807D01*
X547370Y73377D01*
X547370Y73377D01*
X547370Y67372D01*
X547370Y66753D01*
X547130Y65539D01*
X546656Y64396D01*
X545968Y63367D01*
X545530Y62930D01*
X545530Y62930D01*
X543114Y60514D01*
X542616Y60016D01*
X541445Y59233D01*
X540144Y58694D01*
X538763Y58420D01*
X538059Y58420D01*
X510917D01*
X509861Y58420D01*
X507790Y58832D01*
X505838Y59640D01*
X504082Y60814D01*
X503335Y61561D01*
Y61561D01*
X501563Y63333D01*
X500678Y64218D01*
X499287Y66300D01*
X498329Y68613D01*
X497840Y71069D01*
X497840Y72321D01*
Y72321D01*
Y78740D01*
X497840Y213026D01*
X497733Y215209D01*
X496882Y219491D01*
X495211Y223524D01*
X492786Y227153D01*
X491318Y228772D01*
X491318Y228772D01*
X484891Y235199D01*
X483441Y236649D01*
X481161Y240061D01*
X479591Y243852D01*
X478790Y247877D01*
X478790Y249928D01*
Y249928D01*
X478790Y319005D01*
X478790Y319795D01*
X479098Y321343D01*
X479702Y322801D01*
X480579Y324114D01*
X481137Y324672D01*
X481137Y324672D01*
X486348Y329884D01*
X486960Y330496D01*
X488400Y331458D01*
X489999Y332121D01*
X491697Y332459D01*
X492563D01*
Y332459D01*
X512166Y332462D01*
X512510Y332462D01*
X513184Y332328D01*
D02*
G37*
G36*
X167603Y324498D02*
X161741Y318639D01*
X168108Y313037D01*
X168697Y312718D01*
X169136Y312579D01*
X156013Y305279D01*
X156479Y305663D01*
X156726Y306176D01*
X156755Y306818D01*
X156565Y307589D01*
X156157Y308489D01*
X155530Y309518D01*
X154685Y310676D01*
X153622Y311963D01*
X150840Y314924D01*
X154432Y318516D01*
X150840Y322108D01*
X152592Y323902D01*
X156470Y328406D01*
X157303Y329615D01*
X157906Y330677D01*
X158279Y331593D01*
X158423Y332363D01*
X158336Y332986D01*
X158020Y333462D01*
X167603Y324498D01*
D02*
G37*
G36*
X561524Y298779D02*
X560863Y299199D01*
X560035Y299575D01*
X559039Y299906D01*
X557876Y300194D01*
X556544Y300437D01*
X553378Y300791D01*
X549540Y300968D01*
X547370Y300990D01*
Y313690D01*
X549540Y313712D01*
X556543Y314243D01*
X557875Y314487D01*
X559038Y314774D01*
X560034Y315106D01*
X560863Y315483D01*
X561524Y315903D01*
Y298779D01*
D02*
G37*
G36*
X530356Y332486D02*
X530955Y331366D01*
X530632Y330883D01*
X530183Y328624D01*
Y322124D01*
X530632Y319865D01*
X531912Y317950D01*
X533827Y316670D01*
X535740Y316290D01*
X537948Y314081D01*
Y310933D01*
X537550Y309971D01*
X537203Y307340D01*
X537550Y304709D01*
X538403Y302647D01*
Y297565D01*
X538390Y297555D01*
X537688Y297192D01*
X537133Y297109D01*
X536873Y297369D01*
X536873Y297370D01*
X534545Y299697D01*
X534537Y299706D01*
X534491Y299776D01*
X534483Y299795D01*
X534466Y299877D01*
X534466Y299889D01*
X534466Y304570D01*
X534466Y305530D01*
X534417Y305781D01*
X534417Y306036D01*
X534043Y307920D01*
X533945Y308156D01*
X533895Y308407D01*
X533160Y310181D01*
X533018Y310394D01*
X532920Y310630D01*
X531853Y312226D01*
X531672Y312407D01*
X531530Y312619D01*
X530852Y313296D01*
X530852Y313297D01*
X528882Y315266D01*
X528882Y315266D01*
X528382Y315767D01*
X528170Y315909D01*
X527989Y316089D01*
X526813Y316876D01*
X526577Y316974D01*
X526365Y317116D01*
X525057Y317658D01*
X524807Y317708D01*
X524571Y317805D01*
X523183Y318081D01*
X522928Y318081D01*
X522678Y318131D01*
X521262Y318131D01*
X521012Y318081D01*
X520969Y318081D01*
X519989Y319033D01*
X520087Y319270D01*
X520136Y319520D01*
X520234Y319757D01*
X520701Y322109D01*
X520701Y322365D01*
X520751Y322616D01*
X520750Y323815D01*
Y325715D01*
X520750Y325716D01*
X520750Y326238D01*
X520700Y326488D01*
Y326743D01*
X520496Y327769D01*
X520398Y328005D01*
X520349Y328255D01*
X519948Y329221D01*
X519807Y329434D01*
X519709Y329669D01*
X519128Y330539D01*
X518947Y330719D01*
X518806Y330931D01*
X518521Y331216D01*
X518561Y331644D01*
X518910Y332486D01*
X530356Y332486D01*
D02*
G37*
G36*
X637634Y332486D02*
X640088D01*
X644901Y331529D01*
X649435Y329651D01*
X653515Y326925D01*
X655250Y325190D01*
X655250Y325190D01*
X669249Y311191D01*
X670579Y309861D01*
X672966Y306952D01*
X675057Y303823D01*
X676831Y300505D01*
X678271Y297028D01*
X679363Y293427D01*
X680097Y289736D01*
X680466Y285992D01*
X680466Y284110D01*
X680466Y284110D01*
X680466Y284110D01*
Y156641D01*
X680466Y155235D01*
X680190Y152435D01*
X679641Y149675D01*
X678825Y146982D01*
X677748Y144383D01*
X676422Y141902D01*
X674858Y139562D01*
X673074Y137387D01*
X672079Y136393D01*
X672079Y136393D01*
X672079Y136393D01*
X661294Y125608D01*
X661217Y125593D01*
X659908Y125148D01*
X658572Y124791D01*
X657429Y124317D01*
X656232Y123626D01*
X654993Y123015D01*
X653964Y122328D01*
X652925Y121417D01*
X651829Y120576D01*
X651391Y120138D01*
X651391Y120138D01*
X651391Y120138D01*
X650753Y119500D01*
X632458Y119499D01*
X632458Y119499D01*
X631633D01*
X630263Y119319D01*
X628884Y119228D01*
X627265Y118906D01*
X625957Y118462D01*
X624622Y118104D01*
X623097Y117473D01*
X621900Y116782D01*
X620661Y116171D01*
X619288Y115253D01*
X618249Y114342D01*
X617153Y113501D01*
X615985Y112334D01*
X615545Y111760D01*
X558800Y111760D01*
X558194Y111760D01*
X557073Y112224D01*
X556216Y113081D01*
X555752Y114202D01*
X555752Y114808D01*
X555752Y127966D01*
X564896Y127966D01*
X564898Y127967D01*
X565604D01*
X566595Y128164D01*
X567901Y128705D01*
X568742Y129267D01*
X569742Y130267D01*
X570303Y131107D01*
X570845Y132414D01*
X571042Y133405D01*
X571042Y160089D01*
X571042Y160089D01*
Y161608D01*
X570992Y161858D01*
Y162113D01*
X570399Y165092D01*
X570302Y165328D01*
X570252Y165578D01*
X569090Y168384D01*
X568948Y168596D01*
X568850Y168832D01*
X567163Y171357D01*
X566982Y171538D01*
X566841Y171750D01*
X558835Y179755D01*
X559361Y181025D01*
X565658D01*
X567979Y181331D01*
X570141Y182227D01*
X571998Y183652D01*
X572914Y184845D01*
X583094Y195025D01*
X585477Y197290D01*
X588278Y199633D01*
X589504Y200531D01*
X590645Y201277D01*
X591672Y201857D01*
X592573Y202273D01*
X593331Y202534D01*
X594130Y202701D01*
X594311Y202778D01*
X595020Y202919D01*
X596936Y204198D01*
X598215Y206114D01*
X598665Y208373D01*
Y219873D01*
X598215Y222132D01*
X598016Y222431D01*
Y231308D01*
X598202Y232247D01*
Y243747D01*
X597753Y246006D01*
X596473Y247922D01*
X594558Y249201D01*
X593848Y249342D01*
X593668Y249419D01*
X592869Y249586D01*
X592111Y249847D01*
X591210Y250263D01*
X590182Y250843D01*
X589041Y251589D01*
X587835Y252474D01*
X583464Y256263D01*
X583452Y256274D01*
X572244Y267483D01*
Y273138D01*
X571938Y275459D01*
X571043Y277621D01*
X571001Y277676D01*
Y278408D01*
X570590Y280472D01*
X569421Y282222D01*
X567671Y283391D01*
X565716Y283780D01*
X565468Y284028D01*
X565435Y284280D01*
X564539Y286443D01*
X563114Y288300D01*
X556337Y295078D01*
Y296851D01*
X556606Y297076D01*
X557607Y297593D01*
X558318Y297417D01*
X559088Y297161D01*
X559627Y296916D01*
X560133Y296594D01*
X560303Y296528D01*
X560888Y296137D01*
X563147Y295687D01*
X569647D01*
X571906Y296137D01*
X573821Y297416D01*
X575101Y299332D01*
X575551Y301591D01*
Y313091D01*
X575101Y315350D01*
X573821Y317265D01*
X571906Y318545D01*
X569647Y318994D01*
X563147D01*
X560888Y318545D01*
X560303Y318154D01*
X560133Y318088D01*
X559626Y317765D01*
X559087Y317520D01*
X558317Y317264D01*
X557331Y317020D01*
X557151Y316987D01*
X556109Y317650D01*
X555857Y317983D01*
X555576Y320116D01*
X554680Y322279D01*
X553255Y324136D01*
X548420Y328970D01*
X548040Y330883D01*
X547718Y331366D01*
X548316Y332486D01*
X637634Y332486D01*
D02*
G37*
G36*
X425966Y307593D02*
X426014Y307448D01*
X426088Y307289D01*
X426188Y307115D01*
X426314Y306927D01*
X426466Y306723D01*
X426849Y306272D01*
X427336Y305762D01*
X423453Y301879D01*
X424946Y301845D01*
X427783Y302594D01*
X427910Y302784D01*
X428024Y302708D01*
X428124Y302367D01*
X428210Y301770D01*
X428452Y301764D01*
X428464Y300413D01*
X428757Y296046D01*
X428891Y295214D01*
X429050Y294485D01*
X429233Y293860D01*
X429441Y293339D01*
X429673Y292922D01*
X428451D01*
X428452Y292536D01*
X420832D01*
X420797Y294089D01*
X420691Y295459D01*
X420515Y296646D01*
X420269Y297649D01*
X419952Y298470D01*
X419565Y299108D01*
X419108Y299563D01*
X418580Y299834D01*
X417982Y299923D01*
X417314Y299829D01*
X420843Y300761D01*
X420838Y301356D01*
X420783Y301396D01*
X420595Y301522D01*
X420421Y301622D01*
X420262Y301696D01*
X420117Y301744D01*
X419988Y301765D01*
X425945Y307722D01*
X425966Y307593D01*
D02*
G37*
G36*
X390707Y300180D02*
X390834Y298733D01*
X391046Y297326D01*
X391342Y295960D01*
X391723Y294634D01*
X392188Y293349D01*
X392738Y292105D01*
X393372Y290901D01*
X394092Y289737D01*
X394895Y288615D01*
X386278D01*
X380638Y287888D01*
X379878Y278026D01*
X378960Y278015D01*
Y277679D01*
X378759Y277745D01*
X378339Y277804D01*
X377700Y277856D01*
X376140Y277893D01*
X372510Y277654D01*
X371067Y277444D01*
X369783Y277188D01*
X368658Y276886D01*
X367693Y276537D01*
X366887Y276141D01*
X366240Y275699D01*
X364942Y288874D01*
X364905Y288985D01*
X365227Y289084D01*
X365909Y289171D01*
X366951Y289247D01*
X367077Y289249D01*
Y289456D01*
X378311Y289784D01*
X378518Y290562D01*
X378708Y291568D01*
X379001Y294114D01*
X379133Y296576D01*
X379102Y299310D01*
X379205Y299317D01*
X379235Y301347D01*
X390665Y301668D01*
X390707Y300180D01*
D02*
G37*
G36*
X168149Y281717D02*
X167781Y281683D01*
X167452Y281529D01*
X167161Y281253D01*
X166909Y280856D01*
X166696Y280339D01*
X166522Y279701D01*
X166387Y278942D01*
X166290Y278062D01*
X166212Y275940D01*
X158592D01*
X158574Y276935D01*
X158430Y278699D01*
X158303Y279467D01*
X158141Y280160D01*
X157942Y280777D01*
X157707Y281319D01*
X157437Y281785D01*
X157129Y282176D01*
X156786Y282490D01*
X168149Y281717D01*
D02*
G37*
G36*
X132080Y311150D02*
X132838Y311150D01*
X134238Y310570D01*
X135310Y309498D01*
X135890Y308098D01*
X135890Y307340D01*
X135890Y307340D01*
Y303802D01*
X135926Y303063D01*
X136214Y301614D01*
X136780Y300250D01*
X137600Y299021D01*
X138097Y298473D01*
X138097Y298473D01*
X139741Y296829D01*
X140531Y296039D01*
X141778Y294185D01*
X142645Y292125D01*
X143100Y289937D01*
X143113Y288820D01*
X143113Y288820D01*
X143257Y276255D01*
X143351Y274695D01*
X143986Y271639D01*
X145197Y268763D01*
X146938Y266172D01*
X147989Y265016D01*
X150306Y262698D01*
X150889Y262169D01*
X152196Y261297D01*
X153647Y260695D01*
X155188Y260389D01*
X155974Y260350D01*
X155974D01*
X160020Y260350D01*
Y260350D01*
X160864Y260430D01*
X162423Y261072D01*
X163616Y262265D01*
X164258Y263824D01*
X164338Y264668D01*
X164338Y264668D01*
X164338Y245872D01*
X164252Y246713D01*
X163605Y248267D01*
X162415Y249457D01*
X160861Y250104D01*
X160020Y250190D01*
X160020Y250190D01*
D01*
X148205Y250190D01*
X147245Y250190D01*
X145361Y250564D01*
X143586Y251300D01*
X141989Y252367D01*
X141309Y253046D01*
X141310Y253046D01*
X123642Y270714D01*
X122569Y271787D01*
X120881Y274313D01*
X119719Y277119D01*
X119126Y280098D01*
Y281617D01*
X119126Y281617D01*
X119126Y307594D01*
Y308301D01*
X119667Y309608D01*
X120667Y310608D01*
X121974Y311150D01*
X122682D01*
X122682Y311150D01*
X132080Y311150D01*
D02*
G37*
G36*
X581710Y254356D02*
X586218Y250447D01*
X587566Y249459D01*
X588836Y248629D01*
X590028Y247957D01*
X591143Y247441D01*
X592180Y247084D01*
X593139Y246884D01*
X582662Y231407D01*
X582418Y232410D01*
X581928Y233579D01*
X581193Y234914D01*
X580212Y236415D01*
X578986Y238081D01*
X575796Y241910D01*
X571623Y246403D01*
X569168Y248898D01*
X580051Y255975D01*
X581710Y254356D01*
D02*
G37*
G36*
X121593Y242407D02*
X119082Y239807D01*
X115140Y235148D01*
X113707Y233089D01*
X112634Y231211D01*
X111921Y229513D01*
X111567Y227995D01*
X111572Y226658D01*
X111937Y225502D01*
X112662Y224526D01*
X101321Y235637D01*
X100046Y235209D01*
X99264Y235185D01*
X98975Y235565D01*
X99180Y236349D01*
X99878Y237538D01*
X101069Y239130D01*
X102754Y241127D01*
X110769Y249543D01*
X121593Y242407D01*
D02*
G37*
G36*
X593602Y205236D02*
X592642Y205036D01*
X591605Y204679D01*
X590491Y204163D01*
X589298Y203491D01*
X588028Y202661D01*
X586681Y201673D01*
X583753Y199224D01*
X580514Y196145D01*
X569630Y203222D01*
X572085Y205717D01*
X579448Y214039D01*
X580675Y215705D01*
X581656Y217206D01*
X582391Y218541D01*
X582881Y219710D01*
X583125Y220713D01*
X593602Y205236D01*
D02*
G37*
G36*
X506386Y286501D02*
X506646Y285873D01*
X506788Y285661D01*
X506885Y285425D01*
X507640Y284296D01*
X507820Y284115D01*
X507962Y283903D01*
X508442Y283423D01*
X508442Y283423D01*
X508442Y283423D01*
X508442Y283423D01*
X508442Y283423D01*
X511397Y280468D01*
X511584Y280263D01*
X511925Y279753D01*
X512135Y279245D01*
X512255Y278642D01*
X512268Y278362D01*
X512268Y267462D01*
X512268Y266907D01*
X512465Y265916D01*
X512465Y265916D01*
X512890Y264889D01*
X512890Y264889D01*
X513452Y264049D01*
X514237Y263263D01*
X514237Y263263D01*
X515078Y262701D01*
X516104Y262276D01*
X517095Y262079D01*
X519461Y262079D01*
X519634Y262044D01*
X525134D01*
X525304Y262078D01*
X526628Y262078D01*
X527619Y262275D01*
X528716Y262730D01*
X529557Y263291D01*
X530397Y264131D01*
X530606Y264445D01*
X530958Y264971D01*
X530958Y264971D01*
X531413Y266069D01*
X531610Y267060D01*
Y267654D01*
X531610Y267655D01*
X531610Y275270D01*
X531624Y275542D01*
X531742Y276139D01*
X531950Y276641D01*
X532288Y277147D01*
X532472Y277350D01*
X536291Y281168D01*
X536824Y281702D01*
X536966Y281914D01*
X537146Y282094D01*
X537984Y283348D01*
X538081Y283584D01*
X538223Y283796D01*
X538800Y285189D01*
X538838Y285378D01*
X539009Y285483D01*
X539636Y285657D01*
X540236Y285642D01*
X541030Y284608D01*
X542418Y283220D01*
X544203Y281850D01*
X548080Y277973D01*
X548113Y277721D01*
X549009Y275558D01*
X550434Y273701D01*
X554310Y269824D01*
Y263769D01*
X554616Y261448D01*
X555512Y259285D01*
X556937Y257428D01*
X569671Y244694D01*
X569751Y244613D01*
X573851Y240199D01*
X576946Y236483D01*
X578084Y234937D01*
X578972Y233579D01*
X579593Y232451D01*
X579950Y231599D01*
X580082Y231056D01*
Y219732D01*
X580056Y219669D01*
X579435Y218541D01*
X578546Y217183D01*
X577431Y215668D01*
X570191Y207484D01*
X570135Y207427D01*
X561666Y198959D01*
X558292D01*
X555971Y198653D01*
X553809Y197757D01*
X551952Y196332D01*
X550527Y194475D01*
X549631Y192313D01*
X549450Y190937D01*
X548109Y190482D01*
X548101Y190490D01*
X548100Y190491D01*
X547421Y191171D01*
X547208Y191312D01*
X547028Y191493D01*
X545431Y192560D01*
X545195Y192657D01*
X544983Y192799D01*
X543208Y193534D01*
X542958Y193584D01*
X542722Y193682D01*
X540838Y194056D01*
X540583Y194056D01*
X540333Y194106D01*
X539373Y194106D01*
X530794Y194106D01*
X529840Y194841D01*
X529056Y195717D01*
X528415Y196773D01*
X528370Y196877D01*
Y218979D01*
X528370Y218980D01*
X528370Y220722D01*
X528321Y220973D01*
X528321Y221228D01*
X527641Y224650D01*
X527543Y224886D01*
X527494Y225136D01*
X526159Y228359D01*
X526017Y228571D01*
X525919Y228807D01*
X523980Y231707D01*
X523800Y231887D01*
X523658Y232100D01*
X522424Y233332D01*
X511715Y244041D01*
X511331Y244465D01*
X510660Y245469D01*
X510223Y246525D01*
X509987Y247709D01*
X509959Y248282D01*
X509959Y250109D01*
X509959Y250109D01*
X509960Y251182D01*
X509910Y251433D01*
X509910Y251688D01*
X509492Y253798D01*
X509394Y254034D01*
X509344Y254285D01*
X508521Y256271D01*
X508379Y256484D01*
X508281Y256720D01*
X507086Y258508D01*
X506905Y258688D01*
X506763Y258901D01*
X506002Y259660D01*
X501586Y264076D01*
X501165Y264541D01*
X500434Y265635D01*
X499955Y266791D01*
X499698Y268082D01*
X499668Y268708D01*
Y278177D01*
X499689Y278618D01*
X499873Y279544D01*
X500210Y280357D01*
X500734Y281142D01*
X501031Y281469D01*
X501899Y282337D01*
X503425Y283357D01*
X504484Y284941D01*
X504599Y285518D01*
X504739Y285728D01*
X505035Y286443D01*
X505668Y286584D01*
X506386Y286501D01*
D02*
G37*
G36*
X112780Y208788D02*
X113270Y207619D01*
X114005Y206284D01*
X114986Y204783D01*
X116212Y203117D01*
X119403Y199288D01*
X123575Y194795D01*
X126030Y192300D01*
X115147Y185223D01*
X113488Y186842D01*
X108980Y190751D01*
X107632Y191738D01*
X106362Y192569D01*
X105170Y193242D01*
X104055Y193757D01*
X103018Y194114D01*
X102059Y194314D01*
X112536Y209791D01*
X112780Y208788D01*
D02*
G37*
G36*
X322128Y153086D02*
X322252Y152927D01*
X321998Y152785D01*
X321368Y152660D01*
X320360Y152551D01*
X319483Y152505D01*
Y152250D01*
X309112Y151947D01*
X309105Y142423D01*
X297675Y140038D01*
X297620Y141631D01*
X297455Y143146D01*
X297181Y144582D01*
X296796Y145938D01*
X296301Y147216D01*
X295697Y148414D01*
X294983Y149534D01*
X294159Y150575D01*
X293225Y151536D01*
X292181Y152419D01*
X306469Y153647D01*
X307057Y163680D01*
X307601Y163687D01*
Y164027D01*
X307801Y163962D01*
X308221Y163902D01*
X308860Y163850D01*
X310524Y163810D01*
X314362Y164093D01*
X315814Y164325D01*
X317117Y164609D01*
X318270Y164945D01*
X319273Y165332D01*
X320126Y165770D01*
X320830Y166261D01*
X322128Y153086D01*
D02*
G37*
G36*
X528335Y164808D02*
X528456Y163032D01*
X528562Y162309D01*
X528698Y161696D01*
X528865Y161194D01*
X529062Y160802D01*
X529289Y160520D01*
X529546Y160349D01*
X529833Y160288D01*
X519175Y160497D01*
X519465Y160545D01*
X519724Y160702D01*
X519953Y160967D01*
X520151Y161341D01*
X520319Y161823D01*
X520456Y162414D01*
X520563Y163113D01*
X520639Y163921D01*
X520700Y165862D01*
X528320D01*
X528335Y164808D01*
D02*
G37*
G36*
X132265Y169827D02*
X132684Y168230D01*
X133243Y166633D01*
X133941Y165034D01*
X134779Y163435D01*
X135756Y161835D01*
X136873Y160233D01*
X138129Y158631D01*
X141059Y155424D01*
X132878Y145644D01*
X130107Y148441D01*
X121553Y158233D01*
X121473Y158700D01*
X121776Y158835D01*
X122465Y158637D01*
X131986Y171422D01*
X132265Y169827D01*
D02*
G37*
G36*
X140157Y250536D02*
X140370Y250394D01*
X140550Y250213D01*
X142147Y249146D01*
X142383Y249049D01*
X142595Y248907D01*
X144370Y248172D01*
X144620Y248122D01*
X144856Y248025D01*
X146740Y247650D01*
X146995Y247650D01*
X147245Y247600D01*
X148205Y247600D01*
X159888Y247600D01*
X160218Y247567D01*
X160946Y247263D01*
X161411Y246798D01*
X161714Y246070D01*
X161748Y245739D01*
X161748Y224634D01*
X161748Y222376D01*
X161798Y222126D01*
Y221870D01*
X162679Y217442D01*
X162777Y217206D01*
X162826Y216956D01*
X164555Y212784D01*
X164696Y212572D01*
X164794Y212336D01*
X167303Y208581D01*
X167483Y208401D01*
X167625Y208189D01*
X169221Y206592D01*
X174953Y200861D01*
X177531Y198283D01*
X177917Y197857D01*
X178581Y196864D01*
X179014Y195819D01*
X179247Y194647D01*
X179274Y194080D01*
X179274Y187910D01*
X179324Y187660D01*
Y187404D01*
X179689Y185570D01*
X179787Y185334D01*
X179836Y185084D01*
X180552Y183356D01*
X180694Y183144D01*
X180791Y182908D01*
X181831Y181353D01*
X182011Y181173D01*
X182153Y180961D01*
X182814Y180300D01*
X184897Y178217D01*
X185282Y177792D01*
X185946Y176798D01*
X186379Y175753D01*
X186612Y174580D01*
X186640Y174014D01*
X186640Y161675D01*
X186625Y161367D01*
X186496Y160715D01*
X186266Y160161D01*
X185896Y159608D01*
X185822Y159526D01*
X185229Y159408D01*
X183645Y158349D01*
X182586Y156765D01*
X182214Y154896D01*
X181027Y154835D01*
X180927Y154873D01*
X180424Y156087D01*
X180282Y156299D01*
X180185Y156535D01*
X179430Y157664D01*
X179250Y157845D01*
X179108Y158057D01*
X178628Y158537D01*
X178628Y158537D01*
X178628Y158537D01*
X178628Y158537D01*
X178628Y158537D01*
X175673Y161492D01*
X175487Y161697D01*
X175145Y162207D01*
X174935Y162715D01*
X174815Y163318D01*
X174802Y163598D01*
X174802Y174498D01*
X174802Y175053D01*
X174605Y176044D01*
X174605Y176045D01*
X174180Y177071D01*
X174179Y177071D01*
X173618Y177911D01*
X172833Y178697D01*
X172833Y178697D01*
X171992Y179258D01*
X170966Y179684D01*
X169975Y179881D01*
X169419Y179881D01*
X169419Y179881D01*
X160443Y179882D01*
X159451Y179685D01*
X158354Y179230D01*
X157513Y178669D01*
X156673Y177829D01*
X156464Y177515D01*
X156112Y176989D01*
X156112Y176989D01*
X155657Y175891D01*
X155460Y174900D01*
Y174306D01*
X155460Y174305D01*
X155460Y166690D01*
X155446Y166418D01*
X155328Y165821D01*
X155119Y165319D01*
X154782Y164813D01*
X154597Y164610D01*
X150779Y160792D01*
X150246Y160259D01*
X150104Y160046D01*
X149924Y159866D01*
X149086Y158612D01*
X148989Y158377D01*
X148847Y158164D01*
X148731Y157885D01*
X147298Y157744D01*
X147063Y158095D01*
X145479Y159154D01*
X143610Y159526D01*
X140819D01*
X140106Y160306D01*
X138956Y161774D01*
X137926Y163251D01*
X137034Y164712D01*
X136278Y166155D01*
X135967Y166867D01*
Y182350D01*
X135661Y184671D01*
X134765Y186833D01*
X133340Y188690D01*
X125526Y196505D01*
X125447Y196585D01*
X121347Y200999D01*
X118252Y204715D01*
X117114Y206261D01*
X116226Y207619D01*
X115605Y208747D01*
X115248Y209599D01*
X115116Y210142D01*
Y220157D01*
X115348Y221325D01*
Y230741D01*
X115899Y231705D01*
X117196Y233568D01*
X121005Y238069D01*
X122371Y239484D01*
X125888Y243001D01*
X129540D01*
X131861Y243307D01*
X134023Y244203D01*
X135880Y245628D01*
X137305Y247485D01*
X138201Y249647D01*
X138323Y250574D01*
X138969Y250933D01*
X139664Y251029D01*
X140157Y250536D01*
D02*
G37*
G36*
X161036Y177292D02*
X169419Y177291D01*
X169419Y177291D01*
X169974Y177291D01*
X171001Y176866D01*
X171787Y176080D01*
X172212Y175053D01*
X172212Y174498D01*
X172212Y163533D01*
X172212Y163533D01*
X172238Y163002D01*
X172444Y161961D01*
X172850Y160980D01*
X173440Y160098D01*
X173798Y159704D01*
X176797Y156705D01*
X176797Y156705D01*
X177277Y156225D01*
X178032Y155096D01*
X178551Y153841D01*
X178816Y152509D01*
X178816Y151831D01*
X178816Y148293D01*
X178816Y148293D01*
X178816Y147880D01*
X178656Y147071D01*
X178340Y146309D01*
X177882Y145623D01*
X177590Y145332D01*
X176053Y143795D01*
X176053Y143795D01*
X175817Y143535D01*
X175427Y142953D01*
X175159Y142305D01*
X175023Y141618D01*
X175006Y141268D01*
X175006Y136881D01*
X175006Y136881D01*
X175006Y136041D01*
X174679Y134394D01*
X174037Y132843D01*
X173104Y131447D01*
X172510Y130854D01*
X170180Y128524D01*
Y128524D01*
X169680Y128024D01*
X168503Y127237D01*
X167196Y126695D01*
X165808Y126418D01*
X164392Y126418D01*
X163004Y126695D01*
X161697Y127237D01*
X160520Y128023D01*
X160020Y128524D01*
X158050Y130494D01*
X158050Y130494D01*
X157370Y131173D01*
X156303Y132770D01*
X155568Y134544D01*
X155193Y136428D01*
X155194Y137388D01*
X155194Y142135D01*
X155194Y142135D01*
X155181Y142400D01*
X155077Y142921D01*
X154874Y143411D01*
X154579Y143852D01*
X154401Y144049D01*
X152028Y146422D01*
X152028Y146422D01*
X151634Y146816D01*
X151013Y147745D01*
X150586Y148776D01*
X150368Y149871D01*
X150368Y150430D01*
Y153547D01*
X150368Y153547D01*
X150368Y154301D01*
X150662Y155780D01*
X151240Y157173D01*
X152077Y158427D01*
X152610Y158960D01*
X156475Y162824D01*
X156475Y162825D01*
X156829Y163216D01*
X157415Y164092D01*
X157818Y165066D01*
X158024Y166100D01*
X158049Y166627D01*
X158049Y174305D01*
X158049Y174306D01*
Y174900D01*
X158504Y175997D01*
X159345Y176838D01*
X160442Y177292D01*
X161036Y177292D01*
D02*
G37*
G36*
X281392Y140885D02*
X284731Y140843D01*
X285352Y129413D01*
X283312Y129395D01*
X281392Y129265D01*
Y127780D01*
X280882Y128090D01*
X280202Y128368D01*
X279351Y128613D01*
X278331Y128825D01*
X277260Y128987D01*
X276797Y128956D01*
X275580Y128754D01*
X274527Y128517D01*
X273639Y128242D01*
X273171Y128041D01*
X272883Y127450D01*
X272528Y126484D01*
X272219Y125379D01*
X271959Y124134D01*
X271745Y122751D01*
X271461Y119566D01*
X271366Y115824D01*
X258666D01*
X259287Y129874D01*
X272356Y129051D01*
Y129335D01*
X270683Y129397D01*
X268644Y129413D01*
X268854Y140843D01*
X270973Y140854D01*
X272356Y140940D01*
Y141656D01*
X272670Y141502D01*
X273190Y141364D01*
X273915Y141242D01*
X274845Y141136D01*
X275192Y141117D01*
X279648Y141394D01*
X280422Y141563D01*
X281003Y141754D01*
X281392Y141968D01*
Y140885D01*
D02*
G37*
G36*
X270594Y147062D02*
X270887Y142118D01*
X270956Y142067D01*
X259664Y140276D01*
X259568Y140237D01*
X259482Y140384D01*
X259406Y140717D01*
X259340Y141235D01*
X259239Y142829D01*
X259158Y148247D01*
X270590D01*
X270594Y147062D01*
D02*
G37*
G36*
X126213Y142947D02*
X126807Y142737D01*
X127582Y142551D01*
X128538Y142391D01*
X130994Y142144D01*
X134174Y141996D01*
X138080Y141946D01*
Y129246D01*
X136244Y129220D01*
X131636Y128819D01*
X130400Y128578D01*
X129315Y128284D01*
X128379Y127936D01*
X127594Y127535D01*
X126958Y127081D01*
X126473Y126573D01*
X125801Y143181D01*
X126213Y142947D01*
D02*
G37*
G36*
X667599Y112014D02*
X668243Y112014D01*
X669505Y111763D01*
X670695Y111270D01*
X671765Y110555D01*
X672220Y110100D01*
X672220Y110100D01*
X676099Y106221D01*
X677017Y105303D01*
X678458Y103146D01*
X679452Y100748D01*
X679958Y98202D01*
X679958Y96905D01*
X679958Y96905D01*
Y85616D01*
X679958Y84343D01*
X679461Y81847D01*
X678487Y79496D01*
X677073Y77379D01*
X676173Y76480D01*
X676173Y76480D01*
X672399Y72705D01*
X671902Y72208D01*
X670731Y71425D01*
X669430Y70886D01*
X668049Y70612D01*
X667345Y70612D01*
X663702Y70612D01*
X639249Y70612D01*
X637997Y70612D01*
X635541Y71100D01*
X633228Y72058D01*
X631146Y73450D01*
X630261Y74335D01*
Y74335D01*
X626977Y77619D01*
X626288Y78308D01*
X625205Y79929D01*
X624458Y81731D01*
X624078Y83643D01*
X624078Y84618D01*
Y84618D01*
X624078Y97028D01*
X624078Y97853D01*
X624400Y99473D01*
X625032Y100998D01*
X625949Y102370D01*
X627116Y103538D01*
X628489Y104455D01*
X630014Y105086D01*
X631633Y105409D01*
X632459D01*
X632459Y105409D01*
X656590Y105410D01*
X661354Y110174D01*
X661792Y110612D01*
X662820Y111299D01*
X663963Y111772D01*
X665177Y112014D01*
X665795Y112013D01*
X665796Y112014D01*
X667599Y112014D01*
D02*
G37*
G36*
X529120Y133556D02*
X529234Y132233D01*
X529425Y131066D01*
X529692Y130055D01*
X529760Y129885D01*
X530087D01*
X529896Y129821D01*
X529820Y129734D01*
X530034Y129199D01*
X530454Y128499D01*
X530949Y127954D01*
X531520Y127565D01*
X532168Y127332D01*
X532892Y127254D01*
Y119634D01*
X532168Y119549D01*
X531520Y119292D01*
X530949Y118865D01*
X530454Y118267D01*
X530034Y117499D01*
X529692Y116559D01*
X529425Y115448D01*
X529234Y114167D01*
X529120Y112715D01*
X529082Y111092D01*
X518922Y123444D01*
X518912Y124668D01*
X518671Y128275D01*
X518560Y128855D01*
X518429Y129305D01*
X518279Y129628D01*
X518108Y129821D01*
X517917Y129885D01*
X524568D01*
X529082Y135034D01*
X529120Y133556D01*
D02*
G37*
G36*
X152525Y142263D02*
X152533Y142254D01*
X152579Y142184D01*
X152587Y142165D01*
X152604Y142082D01*
X152604Y142071D01*
X152604Y137390D01*
X152604Y136430D01*
X152653Y136179D01*
X152653Y135924D01*
X153027Y134040D01*
X153125Y133804D01*
X153175Y133553D01*
X153910Y131779D01*
X154052Y131566D01*
X154150Y131330D01*
X155217Y129734D01*
X155398Y129553D01*
X155540Y129341D01*
X156218Y128664D01*
X156218Y128663D01*
X158188Y126694D01*
X158188Y126694D01*
X158688Y126193D01*
X158900Y126051D01*
X159081Y125871D01*
X160257Y125084D01*
X160493Y124986D01*
X160705Y124844D01*
X162013Y124302D01*
X162263Y124252D01*
X162499Y124155D01*
X163887Y123878D01*
X164142Y123878D01*
X164392Y123829D01*
X165808Y123829D01*
X166058Y123878D01*
X166313Y123878D01*
X167219Y122764D01*
X167127Y122541D01*
X167077Y122290D01*
X166979Y122055D01*
X166624Y120269D01*
Y120014D01*
X166574Y119764D01*
X166574Y118854D01*
X166574Y117410D01*
X166574Y117410D01*
Y116972D01*
X166624Y116722D01*
Y116467D01*
X166795Y115609D01*
X166892Y115373D01*
X166942Y115123D01*
X167277Y114315D01*
X167418Y114103D01*
X167516Y113867D01*
X168002Y113140D01*
X168182Y112959D01*
X168324Y112747D01*
X168633Y112438D01*
X168633Y112438D01*
X171440Y109632D01*
X171440Y109631D01*
X171852Y109219D01*
X172065Y109077D01*
X172176Y108966D01*
X172153Y108671D01*
X171756Y107696D01*
X155379D01*
X154993Y108966D01*
X155666Y109416D01*
X156946Y111331D01*
X157395Y113590D01*
Y120090D01*
X156946Y122349D01*
X155666Y124264D01*
X153751Y125544D01*
X151838Y125925D01*
X149608Y128155D01*
Y132654D01*
X149867Y134620D01*
X149596Y136680D01*
X149885Y137379D01*
X150191Y139700D01*
Y142801D01*
X151461Y143327D01*
X152525Y142263D01*
D02*
G37*
G36*
X596480Y101055D02*
X596618Y101009D01*
X596846Y100969D01*
X597164Y100934D01*
X598659Y100862D01*
X600964Y100838D01*
Y93218D01*
X600179Y93215D01*
X596886Y92994D01*
X596847Y92942D01*
X596433Y101105D01*
X596480Y101055D01*
D02*
G37*
G36*
X571953Y91442D02*
X572073Y91440D01*
Y83820D01*
X572041Y83820D01*
X572085Y80019D01*
X571999Y80741D01*
X571758Y81387D01*
X571363Y81957D01*
X570812Y82452D01*
X570107Y82870D01*
X569247Y83212D01*
X568232Y83478D01*
X567515Y83594D01*
X565452Y83454D01*
X564748Y83322D01*
X564240Y83191D01*
X564075Y82618D01*
X563920Y81889D01*
X563789Y81055D01*
X563606Y79158D01*
X563920Y74201D01*
X564021Y73974D01*
X555339D01*
X555440Y74201D01*
X555530Y74563D01*
X555610Y75062D01*
X555737Y76466D01*
X555791Y77982D01*
X555459Y82863D01*
X555334Y83420D01*
X555191Y83854D01*
X555032Y84166D01*
X563322D01*
Y92456D01*
X563683Y92263D01*
X564158Y92090D01*
X564748Y91938D01*
X565452Y91806D01*
X567135Y91610D01*
X568179Y91783D01*
X569176Y92050D01*
X570018Y92393D01*
X570706Y92812D01*
X571239Y93307D01*
X571617Y93878D01*
X571840Y94526D01*
X571909Y95250D01*
X571953Y91442D01*
D02*
G37*
%LPC*%
G36*
X310642Y361935D02*
X308412Y361491D01*
X306522Y360228D01*
X305259Y358338D01*
X304815Y356108D01*
Y353578D01*
X304311Y353074D01*
X302668D01*
X300799Y352702D01*
X299215Y351643D01*
X298156Y350059D01*
X297784Y348190D01*
Y342690D01*
X298156Y340821D01*
X299215Y339237D01*
X298556Y338150D01*
X298497Y338096D01*
X297694Y338256D01*
X297689Y338257D01*
X297688Y338257D01*
X296628Y338468D01*
X295404D01*
X294498Y339738D01*
X294559Y340415D01*
X294607Y340711D01*
X294680Y340821D01*
X295052Y342690D01*
Y348190D01*
X294680Y350059D01*
X293621Y351643D01*
X292037Y352702D01*
X290168Y353074D01*
X285668D01*
X283799Y352702D01*
X282215Y351643D01*
X281156Y350059D01*
X280784Y348190D01*
Y342690D01*
X281121Y340995D01*
X281434Y336056D01*
X281172Y335794D01*
X279768Y333694D01*
X279276Y331216D01*
X279768Y328738D01*
X281172Y326638D01*
X281329Y326481D01*
X283429Y325078D01*
X285907Y324585D01*
X289240D01*
X289259Y324572D01*
X291128Y324200D01*
X296628D01*
X297672Y324408D01*
X302844Y324573D01*
X303958Y324538D01*
X304249Y324512D01*
X304415Y324487D01*
X305860Y324200D01*
X311360D01*
X313229Y324572D01*
X314813Y325631D01*
X315872Y327215D01*
X316244Y329084D01*
Y330881D01*
X317514Y331560D01*
X318469Y330922D01*
X320338Y330550D01*
X325838D01*
X327707Y330922D01*
X329291Y331981D01*
X330350Y333565D01*
X330722Y335434D01*
Y339934D01*
X330350Y341803D01*
X329291Y343387D01*
X328268Y344071D01*
X328215Y344128D01*
X328115Y344174D01*
X327707Y344446D01*
X327366Y344514D01*
X327295Y344546D01*
X326519Y344728D01*
X325835Y344938D01*
X325154Y345197D01*
X324474Y345507D01*
X323796Y345869D01*
X323118Y346285D01*
X322468Y346737D01*
X321383Y347629D01*
X316469Y352544D01*
Y356108D01*
X316025Y358338D01*
X314762Y360228D01*
X312872Y361491D01*
X310642Y361935D01*
D02*
G37*
G36*
X361696Y347711D02*
X359466Y347267D01*
X357576Y346004D01*
X356313Y344114D01*
X356259Y343845D01*
X356223Y343792D01*
X355793Y341630D01*
X355869Y341250D01*
Y337566D01*
X355932Y337249D01*
Y333811D01*
X355950Y333720D01*
Y329736D01*
X356322Y327867D01*
X357381Y326283D01*
X358965Y325224D01*
X360834Y324852D01*
X365334D01*
X367203Y325224D01*
X368787Y326283D01*
X369846Y327867D01*
X370218Y329736D01*
Y335236D01*
X369846Y337105D01*
X368787Y338689D01*
X367523Y339534D01*
Y341884D01*
X367079Y344114D01*
X365816Y346004D01*
X363926Y347267D01*
X361696Y347711D01*
D02*
G37*
G36*
X286004Y311389D02*
X283774Y310945D01*
X281884Y309682D01*
X280621Y307792D01*
X280177Y305562D01*
X280621Y303332D01*
X281884Y301442D01*
X282006Y301319D01*
X282010Y301314D01*
X282015Y301311D01*
X282552Y300773D01*
Y299235D01*
X282585Y299070D01*
Y297560D01*
X282898Y295984D01*
X283791Y294647D01*
X285128Y293754D01*
X286704Y293441D01*
X287509D01*
X288554Y293233D01*
X288704D01*
X289749Y293441D01*
X290704D01*
X292280Y293754D01*
X293617Y294647D01*
X294510Y295984D01*
X294823Y297560D01*
Y300560D01*
X294510Y302136D01*
X294206Y302591D01*
Y303187D01*
X293762Y305417D01*
X292499Y307307D01*
X290124Y309682D01*
X288234Y310945D01*
X286004Y311389D01*
D02*
G37*
G36*
X311360Y321468D02*
X305860D01*
X303991Y321096D01*
X302407Y320037D01*
X301348Y318453D01*
X300976Y316584D01*
Y312084D01*
X301197Y310972D01*
X301194Y310940D01*
X301220Y310859D01*
X301348Y310215D01*
X301487Y310006D01*
X301497Y309975D01*
X301627Y309738D01*
X301712Y309516D01*
X301824Y309114D01*
X301938Y308554D01*
X302035Y307909D01*
X302230Y304753D01*
Y289560D01*
Y278036D01*
X302722Y275558D01*
X304126Y273458D01*
X311806Y265778D01*
X312868Y264525D01*
X313424Y263758D01*
X313906Y263005D01*
X314298Y262293D01*
X314604Y261625D01*
X314828Y261005D01*
X314976Y260432D01*
X315079Y259763D01*
X315140Y259594D01*
X315218Y258999D01*
X316230Y256557D01*
X317839Y254459D01*
X319937Y252850D01*
X322379Y251838D01*
X325000Y251493D01*
X325240D01*
X327861Y251838D01*
X330303Y252850D01*
X332401Y254459D01*
X334010Y256557D01*
X335022Y258999D01*
X335367Y261620D01*
X335022Y264241D01*
X334010Y266683D01*
X332401Y268781D01*
X330303Y270390D01*
X327861Y271402D01*
X327266Y271480D01*
X327098Y271541D01*
X326430Y271644D01*
X325857Y271793D01*
X325234Y272019D01*
X324563Y272328D01*
X323845Y272725D01*
X323085Y273213D01*
X322310Y273778D01*
X321042Y274854D01*
X315178Y280718D01*
Y289560D01*
Y305893D01*
X315247Y307225D01*
X315417Y308796D01*
X315508Y309316D01*
X315599Y309686D01*
X315655Y309844D01*
X315744Y310014D01*
X315748Y310030D01*
X315872Y310215D01*
X316014Y310931D01*
X316030Y310983D01*
X316028Y310999D01*
X316244Y312084D01*
Y316584D01*
X315872Y318453D01*
X314813Y320037D01*
X313229Y321096D01*
X311360Y321468D01*
D02*
G37*
G36*
X362070Y266667D02*
X361830D01*
X359209Y266322D01*
X356767Y265310D01*
X354669Y263701D01*
X353060Y261603D01*
X352048Y259161D01*
X351703Y256540D01*
X352048Y253919D01*
X353060Y251477D01*
X354669Y249379D01*
X356767Y247770D01*
X359209Y246758D01*
X361830Y246413D01*
X362070D01*
X364691Y246758D01*
X365655Y247158D01*
X365933Y247213D01*
X365944Y247220D01*
X365956Y247223D01*
X366355Y247392D01*
X366825Y247528D01*
X367447Y247654D01*
X372044Y247951D01*
X373921Y247728D01*
X374971Y247525D01*
X375867Y247292D01*
X376570Y247048D01*
X377071Y246814D01*
X377557Y246501D01*
X377699Y246445D01*
X377820Y246353D01*
X377871Y246339D01*
X378324Y246037D01*
X380583Y245587D01*
X392083D01*
X393555Y245880D01*
X394825Y244948D01*
Y243609D01*
X394533Y242140D01*
Y239140D01*
X394846Y237564D01*
X395739Y236227D01*
X397076Y235334D01*
X398652Y235021D01*
X399607D01*
X400652Y234813D01*
X401697Y235021D01*
X402652D01*
X404228Y235334D01*
X405565Y236227D01*
X406458Y237564D01*
X406771Y239140D01*
Y242140D01*
X406479Y243609D01*
Y247119D01*
X406035Y249349D01*
X404772Y251239D01*
X404749Y251262D01*
X402859Y252525D01*
X400629Y252969D01*
X399257Y252696D01*
X397987Y253661D01*
Y257991D01*
X397537Y260250D01*
X396258Y262165D01*
X394342Y263445D01*
X392083Y263894D01*
X385851D01*
X384189Y264583D01*
X383111Y264724D01*
X382034Y264866D01*
X375955D01*
X371012Y265036D01*
X368483Y265266D01*
X367552Y265404D01*
X366825Y265552D01*
X366355Y265688D01*
X365956Y265857D01*
X365944Y265860D01*
X365933Y265867D01*
X365655Y265922D01*
X364691Y266322D01*
X362070Y266667D01*
D02*
G37*
G36*
X325240Y246347D02*
X325000D01*
X322379Y246002D01*
X319937Y244990D01*
X317839Y243381D01*
X316230Y241283D01*
X315218Y238841D01*
X314873Y236220D01*
X315218Y233599D01*
X316230Y231157D01*
X317839Y229059D01*
X319937Y227450D01*
X322379Y226439D01*
X325000Y226093D01*
X325240D01*
X327861Y226439D01*
X330303Y227450D01*
X332401Y229059D01*
X334010Y231157D01*
X335022Y233599D01*
X335367Y236220D01*
X335022Y238841D01*
X334010Y241283D01*
X332401Y243381D01*
X330303Y244990D01*
X327861Y246002D01*
X325240Y246347D01*
D02*
G37*
G36*
X362070Y241267D02*
X361830D01*
X359209Y240922D01*
X356767Y239910D01*
X354669Y238301D01*
X353060Y236203D01*
X352048Y233761D01*
X351703Y231140D01*
X352048Y228519D01*
X353060Y226077D01*
X354669Y223979D01*
X356767Y222370D01*
X359209Y221358D01*
X361830Y221013D01*
X362070D01*
X364691Y221358D01*
X367133Y222370D01*
X367633Y222754D01*
X367813Y222842D01*
X368502Y223369D01*
X369140Y223789D01*
X369798Y224157D01*
X370479Y224476D01*
X371186Y224747D01*
X371921Y224970D01*
X372687Y225145D01*
X373486Y225271D01*
X373940Y225313D01*
X380652D01*
X381697Y225521D01*
X382652D01*
X384228Y225834D01*
X385565Y226727D01*
X386458Y228064D01*
X386771Y229640D01*
Y232640D01*
X386458Y234216D01*
X385565Y235553D01*
X384228Y236446D01*
X382652Y236759D01*
X381697D01*
X380652Y236967D01*
X373940D01*
X373486Y237009D01*
X372687Y237135D01*
X371921Y237310D01*
X371186Y237533D01*
X370479Y237803D01*
X369798Y238123D01*
X369140Y238491D01*
X368502Y238911D01*
X367813Y239438D01*
X367633Y239526D01*
X367133Y239910D01*
X364691Y240922D01*
X362070Y241267D01*
D02*
G37*
G36*
X325240Y220947D02*
X325000D01*
X322379Y220602D01*
X319937Y219590D01*
X319437Y219206D01*
X319257Y219118D01*
X318568Y218591D01*
X317930Y218171D01*
X317272Y217803D01*
X316591Y217484D01*
X315884Y217213D01*
X315149Y216990D01*
X314383Y216815D01*
X313584Y216689D01*
X313129Y216647D01*
X307180D01*
X306135Y216439D01*
X305180D01*
X303604Y216126D01*
X302267Y215233D01*
X301374Y213896D01*
X301061Y212320D01*
Y209320D01*
X301374Y207744D01*
X302267Y206407D01*
X303604Y205514D01*
X305180Y205201D01*
X306135D01*
X307180Y204993D01*
X313130D01*
X313584Y204951D01*
X314383Y204825D01*
X315149Y204650D01*
X315884Y204427D01*
X316591Y204156D01*
X317272Y203837D01*
X317930Y203469D01*
X318568Y203049D01*
X319257Y202522D01*
X319437Y202434D01*
X319937Y202050D01*
X322379Y201038D01*
X325000Y200693D01*
X325240D01*
X327861Y201038D01*
X330303Y202050D01*
X332401Y203659D01*
X334010Y205757D01*
X335022Y208199D01*
X335367Y210820D01*
X335022Y213441D01*
X334010Y215883D01*
X332401Y217981D01*
X330303Y219590D01*
X327861Y220602D01*
X325240Y220947D01*
D02*
G37*
G36*
X362070Y215867D02*
X361830D01*
X359209Y215522D01*
X356767Y214510D01*
X354669Y212901D01*
X353060Y210803D01*
X352048Y208361D01*
X351703Y205740D01*
X352048Y203119D01*
X353060Y200677D01*
X354669Y198579D01*
X356767Y196970D01*
X359209Y195958D01*
X361830Y195613D01*
X362070D01*
X364691Y195958D01*
X367133Y196970D01*
X369231Y198579D01*
X370840Y200677D01*
X371852Y203119D01*
X372197Y205740D01*
X371852Y208361D01*
X370840Y210803D01*
X369231Y212901D01*
X367133Y214510D01*
X364691Y215522D01*
X362070Y215867D01*
D02*
G37*
G36*
X419678Y184200D02*
X418828Y184200D01*
X406926Y184199D01*
X406925Y184199D01*
X405955Y184199D01*
X405705Y184149D01*
X405450Y184149D01*
X403546Y183771D01*
X403311Y183673D01*
X403060Y183624D01*
X401267Y182881D01*
X401055Y182739D01*
X400819Y182642D01*
X399205Y181563D01*
X399025Y181383D01*
X398813Y181241D01*
X398126Y180555D01*
X398126Y180555D01*
X394037Y176465D01*
X394037Y176465D01*
X393400Y175829D01*
X393259Y175617D01*
X393078Y175436D01*
X392079Y173940D01*
X391981Y173704D01*
X391839Y173492D01*
X391150Y171829D01*
X391101Y171579D01*
X391003Y171344D01*
X390652Y169578D01*
Y169323D01*
X390602Y169073D01*
Y162426D01*
X390652Y162176D01*
X390652Y161920D01*
X390728Y161536D01*
X390826Y161301D01*
X390876Y161051D01*
X391026Y160689D01*
X391167Y160477D01*
X391265Y160241D01*
X391483Y159915D01*
X391663Y159735D01*
X391805Y159523D01*
X394123Y157204D01*
X394124Y157204D01*
X394373Y156955D01*
X394585Y156813D01*
X394765Y156633D01*
X395350Y156241D01*
X395586Y156144D01*
X395798Y156002D01*
X396449Y155733D01*
X396651Y155692D01*
X396822Y155578D01*
X398398Y155265D01*
X402398D01*
X403068Y155398D01*
X403756Y155398D01*
X404006Y155448D01*
X404261D01*
X405879Y155770D01*
X406115Y155867D01*
X406365Y155917D01*
X407889Y156548D01*
X408101Y156690D01*
X408337Y156788D01*
X409708Y157704D01*
X409889Y157885D01*
X410101Y158026D01*
X410684Y158610D01*
X413784Y161709D01*
X414287Y162166D01*
X415465Y162953D01*
X416715Y163471D01*
X418105Y163747D01*
X418782Y163780D01*
X425450Y163780D01*
X426006Y163780D01*
X426334Y163846D01*
X426996Y163977D01*
X426997Y163977D01*
X428024Y164403D01*
X428864Y164964D01*
X429650Y165750D01*
X430211Y166590D01*
X430637Y167617D01*
X430637Y167617D01*
X430637Y167617D01*
X430755Y168214D01*
X430834Y168608D01*
X430834Y168608D01*
X430834Y168608D01*
X430834Y169164D01*
X430834Y173526D01*
X430834Y173526D01*
X430834Y174059D01*
X430784Y174309D01*
Y174564D01*
X430576Y175610D01*
X430478Y175846D01*
X430429Y176096D01*
X430020Y177081D01*
X429879Y177293D01*
X429781Y177529D01*
X429189Y178415D01*
X429008Y178596D01*
X428867Y178808D01*
X428490Y179185D01*
X426760Y180914D01*
X426760Y180914D01*
X426159Y181515D01*
X425947Y181657D01*
X425767Y181837D01*
X424354Y182781D01*
X424118Y182879D01*
X423906Y183021D01*
X422336Y183671D01*
X422086Y183721D01*
X421850Y183818D01*
X420183Y184150D01*
X419928Y184150D01*
X419678Y184200D01*
D02*
G37*
G36*
X287330Y207147D02*
X287180D01*
X286135Y206939D01*
X285180D01*
X283604Y206626D01*
X282267Y205733D01*
X281374Y204396D01*
X281061Y202820D01*
Y199820D01*
X281374Y198244D01*
X282267Y196907D01*
X282920Y196472D01*
X282921Y196469D01*
X282930Y196465D01*
X283359Y196178D01*
X283401Y196143D01*
X283418Y196139D01*
X283604Y196014D01*
X283800Y195975D01*
X283802Y195974D01*
X283882Y195948D01*
X283929Y195924D01*
X284058Y195842D01*
X286939Y193320D01*
X288575Y191684D01*
Y190290D01*
X288582Y190256D01*
X288574Y190215D01*
Y183715D01*
X289023Y181456D01*
X290303Y179541D01*
X292218Y178261D01*
X294477Y177812D01*
X305977D01*
X308236Y178261D01*
X308345Y178334D01*
X312112Y178444D01*
X312468Y178421D01*
X313925Y178247D01*
X316705Y177727D01*
X317884Y177413D01*
X318991Y177048D01*
X319891Y176685D01*
X319937Y176650D01*
X320238Y176525D01*
X320994Y176157D01*
X321071Y176137D01*
X321137Y176093D01*
X321415Y176038D01*
X322379Y175639D01*
X325000Y175293D01*
X325240D01*
X327861Y175639D01*
X330303Y176650D01*
X332401Y178259D01*
X334010Y180357D01*
X335022Y182799D01*
X335367Y185420D01*
X335022Y188041D01*
X334010Y190483D01*
X332401Y192581D01*
X330303Y194190D01*
X327861Y195202D01*
X325240Y195547D01*
X325000D01*
X322775Y195254D01*
X322489Y195291D01*
X315067D01*
X308997Y195438D01*
X308526Y195476D01*
X308236Y195669D01*
X305977Y196119D01*
X299827D01*
X299786Y196328D01*
X298522Y198218D01*
X295121Y201619D01*
X294284Y202517D01*
X293463Y203510D01*
X293221Y203843D01*
X293076Y204071D01*
X293052Y204118D01*
X293026Y204198D01*
X293025Y204200D01*
X292986Y204396D01*
X292581Y205002D01*
X292555Y205050D01*
X292542Y205061D01*
X292535Y205070D01*
X292530Y205079D01*
X292528Y205080D01*
X292093Y205733D01*
X290756Y206626D01*
X289180Y206939D01*
X288375D01*
X287330Y207147D01*
D02*
G37*
G36*
X362070Y190467D02*
X361830D01*
X359209Y190122D01*
X356767Y189110D01*
X354669Y187501D01*
X353060Y185403D01*
X352048Y182961D01*
X351703Y180340D01*
X352048Y177719D01*
X353060Y175277D01*
X354669Y173179D01*
X356767Y171570D01*
X359209Y170558D01*
X359804Y170480D01*
X359972Y170419D01*
X360640Y170316D01*
X361213Y170167D01*
X361836Y169941D01*
X362507Y169632D01*
X363225Y169235D01*
X363985Y168747D01*
X364760Y168183D01*
X366028Y167106D01*
X373924Y159210D01*
Y151384D01*
X374416Y148906D01*
X374497Y148785D01*
X374592Y148308D01*
X375485Y146971D01*
X375995Y146631D01*
X379860Y142766D01*
Y136293D01*
X379778Y134845D01*
X379592Y133272D01*
X379492Y132746D01*
X379390Y132360D01*
X379321Y132171D01*
X379212Y131967D01*
X379204Y131943D01*
X379072Y131745D01*
X378938Y131070D01*
X378916Y131000D01*
X378919Y130976D01*
X378700Y129876D01*
Y125376D01*
X379072Y123507D01*
X380131Y121923D01*
X381715Y120864D01*
X383584Y120492D01*
X389084D01*
X390953Y120864D01*
X392537Y121923D01*
X393596Y123507D01*
X393968Y125376D01*
Y129876D01*
X393749Y130976D01*
X393752Y131000D01*
X393730Y131070D01*
X393596Y131745D01*
X393464Y131943D01*
X393456Y131967D01*
X393347Y132171D01*
X393278Y132360D01*
X393176Y132746D01*
X393088Y133210D01*
X392808Y137241D01*
Y145448D01*
X392316Y147926D01*
X390912Y150026D01*
X386872Y154066D01*
Y161892D01*
X386380Y164370D01*
X384976Y166470D01*
X375264Y176182D01*
X374202Y177435D01*
X373646Y178202D01*
X373163Y178955D01*
X372772Y179667D01*
X372466Y180335D01*
X372242Y180955D01*
X372094Y181528D01*
X371991Y182197D01*
X371930Y182365D01*
X371852Y182961D01*
X370840Y185403D01*
X369231Y187501D01*
X367133Y189110D01*
X364691Y190122D01*
X362070Y190467D01*
D02*
G37*
G36*
X424942Y117789D02*
X424046Y117671D01*
X404261D01*
X403816Y117760D01*
X398316D01*
X397871Y117671D01*
X389529D01*
X389084Y117760D01*
X383584D01*
X381715Y117388D01*
X380131Y116329D01*
X379072Y114745D01*
X378700Y112876D01*
Y111333D01*
X377430Y110654D01*
X376475Y111292D01*
X374606Y111664D01*
X369106D01*
X367237Y111292D01*
X365653Y110233D01*
X364594Y108649D01*
X364222Y106780D01*
Y102280D01*
X364594Y100411D01*
X365653Y98827D01*
X367237Y97768D01*
X369106Y97396D01*
X370364D01*
X372748Y95196D01*
Y90932D01*
X373240Y88454D01*
X374644Y86354D01*
X376744Y84950D01*
X379222Y84458D01*
X381700Y84950D01*
X383800Y86354D01*
X385165Y88397D01*
X385417Y88684D01*
X386408Y89094D01*
X386923Y88750D01*
X388792Y88378D01*
X393292D01*
X395161Y88750D01*
X396745Y89809D01*
X397804Y91393D01*
X398176Y93262D01*
Y98762D01*
X397996Y99664D01*
Y102317D01*
X398072Y102387D01*
X398938Y103086D01*
X399517Y103492D01*
X401963D01*
X402349Y102222D01*
X402339Y102215D01*
X401280Y100631D01*
X400908Y98762D01*
Y93262D01*
X401280Y91393D01*
X402081Y90194D01*
X402088Y90166D01*
X402123Y89965D01*
X402215Y88566D01*
Y87004D01*
X402659Y84774D01*
X403922Y82884D01*
X404058Y82748D01*
X405948Y81485D01*
X408178Y81041D01*
X410408Y81485D01*
X412298Y82748D01*
X413561Y84638D01*
X414005Y86868D01*
X413869Y87552D01*
Y89076D01*
X413953Y89921D01*
X413996Y90166D01*
X414003Y90194D01*
X414804Y91393D01*
X415176Y93262D01*
Y98762D01*
X414804Y100631D01*
X413745Y102215D01*
X413603Y102311D01*
X413988Y103581D01*
X424824D01*
X426647Y103821D01*
X428347Y104525D01*
X429806Y105644D01*
X429924Y105762D01*
X431043Y107221D01*
X431747Y108920D01*
X431987Y110744D01*
X431747Y112567D01*
X431043Y114267D01*
X429924Y115726D01*
X428465Y116845D01*
X426765Y117549D01*
X424942Y117789D01*
D02*
G37*
G36*
X330554Y116346D02*
X326054D01*
X324185Y115974D01*
X322601Y114915D01*
X321542Y113331D01*
X321170Y111462D01*
Y105962D01*
X321542Y104093D01*
X322057Y103322D01*
X322202Y101181D01*
Y99314D01*
X322694Y96836D01*
X324098Y94736D01*
X326198Y93332D01*
X328676Y92840D01*
X331154Y93332D01*
X333254Y94736D01*
X334658Y96836D01*
X335150Y99314D01*
Y104517D01*
X335438Y105962D01*
Y111462D01*
X335066Y113331D01*
X334007Y114915D01*
X332423Y115974D01*
X330554Y116346D01*
D02*
G37*
%LPD*%
G36*
X304994Y334875D02*
X306059Y334869D01*
X305497Y327249D01*
X304994Y327233D01*
Y326993D01*
X304845Y327042D01*
X304551Y327085D01*
X304113Y327124D01*
X302844Y327164D01*
X297494Y326993D01*
Y327246D01*
X296991Y327249D01*
X296429Y334869D01*
X297494Y334875D01*
Y335675D01*
X297797Y335522D01*
X298222Y335385D01*
X298771Y335264D01*
X299443Y335159D01*
X300547Y335055D01*
X303717Y335264D01*
X304266Y335385D01*
X304691Y335522D01*
X304994Y335675D01*
Y334875D01*
D02*
G37*
G36*
X319341Y345956D02*
X320903Y344671D01*
X321700Y344116D01*
X322508Y343621D01*
X323326Y343184D01*
X324155Y342806D01*
X324994Y342487D01*
X325844Y342226D01*
X326704Y342025D01*
X318247Y334568D01*
X318046Y335428D01*
X317785Y336278D01*
X317466Y337117D01*
X317088Y337946D01*
X316651Y338764D01*
X316156Y339572D01*
X315601Y340369D01*
X314988Y341155D01*
X313585Y342697D01*
X318575Y346687D01*
X319341Y345956D01*
D02*
G37*
G36*
X292158Y341597D02*
X292068Y341235D01*
X291988Y340736D01*
X291861Y339332D01*
X291749Y336206D01*
X291728Y333443D01*
X284108D01*
X284103Y334892D01*
X283678Y341597D01*
X283577Y341824D01*
X292259D01*
X292158Y341597D01*
D02*
G37*
G36*
X313273Y310879D02*
X313113Y310423D01*
X312973Y309851D01*
X312851Y309161D01*
X312664Y307430D01*
X312551Y305232D01*
X312514Y302566D01*
X304894Y302440D01*
X304883Y303805D01*
X304613Y308182D01*
X304489Y309006D01*
X304343Y309721D01*
X304174Y310328D01*
X303983Y310827D01*
X303769Y311218D01*
X313451D01*
X313273Y310879D01*
D02*
G37*
G36*
X318821Y273342D02*
X320708Y271740D01*
X321622Y271075D01*
X322517Y270500D01*
X323393Y270016D01*
X324250Y269622D01*
X325087Y269318D01*
X325905Y269104D01*
X326704Y268981D01*
X317639Y260156D01*
X317516Y260954D01*
X317304Y261770D01*
X317004Y262605D01*
X316613Y263458D01*
X316134Y264329D01*
X315565Y265218D01*
X314907Y266125D01*
X313323Y267994D01*
X312397Y268955D01*
X317849Y274279D01*
X318821Y273342D01*
D02*
G37*
G36*
X365487Y263243D02*
X366207Y263035D01*
X367104Y262852D01*
X368176Y262694D01*
X370850Y262450D01*
X376181Y262267D01*
X378311Y262255D01*
Y261646D01*
X380060Y261533D01*
X380094Y261342D01*
X379743Y261127D01*
X378960Y248679D01*
X378326Y249086D01*
X377546Y249451D01*
X376618Y249773D01*
X375542Y250052D01*
X374319Y250288D01*
X372114Y250551D01*
X367104Y250228D01*
X366207Y250045D01*
X365487Y249837D01*
X364942Y249606D01*
Y263474D01*
X365487Y263243D01*
D02*
G37*
G36*
X367002Y236798D02*
X367793Y236277D01*
X368615Y235817D01*
X369465Y235419D01*
X370346Y235081D01*
X371256Y234806D01*
X372196Y234591D01*
X373165Y234438D01*
X374164Y234346D01*
X375192Y234315D01*
Y227965D01*
X374164Y227934D01*
X373165Y227842D01*
X372196Y227689D01*
X371256Y227474D01*
X370346Y227199D01*
X369465Y226861D01*
X368615Y226463D01*
X367793Y226003D01*
X367002Y225482D01*
X366240Y224899D01*
Y237381D01*
X367002Y236798D01*
D02*
G37*
G36*
X320830Y204579D02*
X320068Y205162D01*
X319277Y205683D01*
X318455Y206143D01*
X317605Y206541D01*
X316724Y206879D01*
X315814Y207155D01*
X314874Y207369D01*
X313905Y207522D01*
X312906Y207614D01*
X311877Y207645D01*
Y213995D01*
X312906Y214026D01*
X313905Y214118D01*
X314874Y214271D01*
X315814Y214486D01*
X316724Y214762D01*
X317605Y215099D01*
X318455Y215497D01*
X319277Y215957D01*
X320068Y216478D01*
X320830Y217061D01*
Y204579D01*
D02*
G37*
G36*
X421345Y181278D02*
X422915Y180628D01*
X424328Y179684D01*
X424929Y179083D01*
X424929Y179083D01*
X426658Y177353D01*
X427035Y176977D01*
X427628Y176090D01*
X428036Y175105D01*
X428244Y174059D01*
X428244Y173526D01*
X428244Y173526D01*
X428244Y169164D01*
X428244Y168608D01*
X427819Y167581D01*
X427033Y166795D01*
X426006Y166370D01*
X425450Y166370D01*
X425450D01*
X425450D01*
D01*
X418718Y166370D01*
X417787Y166324D01*
X415960Y165961D01*
X414238Y165248D01*
X412689Y164213D01*
X411998Y163586D01*
X411998Y163587D01*
X408853Y160441D01*
X408270Y159858D01*
X406898Y158941D01*
X405374Y158310D01*
X403756Y157988D01*
X402931Y157988D01*
X398482D01*
X398130Y157988D01*
X397440Y158125D01*
X396789Y158395D01*
X396204Y158786D01*
X395955Y159035D01*
X395955Y159035D01*
X393774Y161216D01*
X393636Y161354D01*
X393418Y161680D01*
X393268Y162042D01*
X393192Y162426D01*
Y162622D01*
Y162622D01*
Y168173D01*
Y169073D01*
X393543Y170838D01*
X394232Y172501D01*
X395232Y173998D01*
X395868Y174634D01*
X395868Y174634D01*
X399958Y178724D01*
X400644Y179410D01*
X402258Y180488D01*
X404051Y181231D01*
X405955Y181609D01*
X406926Y181609D01*
X406926Y181609D01*
X418828Y181610D01*
X419678Y181610D01*
X421345Y181278D01*
D02*
G37*
G36*
X290653Y203120D02*
X290825Y202784D01*
X291080Y202385D01*
X291416Y201922D01*
X292337Y200808D01*
X294337Y198663D01*
X295168Y197822D01*
X290178Y193832D01*
X289337Y194663D01*
X285615Y197920D01*
X285216Y198175D01*
X284880Y198347D01*
X284607Y198436D01*
X290564Y203393D01*
X290653Y203120D01*
D02*
G37*
G36*
X307801Y192962D02*
X308221Y192902D01*
X308860Y192850D01*
X315350Y192694D01*
X319483Y192680D01*
Y192409D01*
X322128Y192354D01*
Y178486D01*
X321049Y179011D01*
X319881Y179481D01*
X318624Y179896D01*
X317277Y180255D01*
X314318Y180808D01*
X312704Y181001D01*
X312156Y181036D01*
X307601Y180903D01*
Y181246D01*
X307329Y181250D01*
X306233Y192680D01*
X307601Y192652D01*
Y193027D01*
X307801Y192962D01*
D02*
G37*
G36*
X369554Y181006D02*
X369766Y180189D01*
X370066Y179355D01*
X370457Y178502D01*
X370936Y177631D01*
X371505Y176742D01*
X372163Y175835D01*
X373747Y173967D01*
X374673Y173005D01*
X369221Y167681D01*
X368249Y168617D01*
X366362Y170219D01*
X365448Y170885D01*
X364553Y171460D01*
X363677Y171944D01*
X362820Y172339D01*
X361983Y172642D01*
X361165Y172856D01*
X360366Y172979D01*
X369431Y181804D01*
X369554Y181006D01*
D02*
G37*
G36*
X383838Y153389D02*
X383998Y153217D01*
X389028Y148142D01*
X383299Y143094D01*
X377825Y148500D01*
X383782Y153457D01*
X383838Y153389D01*
D02*
G37*
G36*
X390154Y138079D02*
X390515Y132877D01*
X390649Y132174D01*
X390804Y131584D01*
X390979Y131107D01*
X391175Y130742D01*
X381493D01*
X381689Y131107D01*
X381864Y131584D01*
X382019Y132174D01*
X382153Y132877D01*
X382359Y134620D01*
X382483Y136813D01*
X382524Y139457D01*
X390144D01*
X390154Y138079D01*
D02*
G37*
G36*
X396141Y114803D02*
X396283Y114404D01*
X396225Y113742D01*
X401904Y106144D01*
X401527Y106505D01*
X401060Y106698D01*
X400503Y106725D01*
X399857Y106583D01*
X399121Y106275D01*
X398295Y105799D01*
X397379Y105155D01*
X396374Y104344D01*
X394094Y102220D01*
X387808Y108506D01*
X389550Y110216D01*
X393574Y113764D01*
X394516Y114419D01*
X395258Y114811D01*
X395799Y114939D01*
X396141Y114803D01*
D02*
G37*
G36*
X376855Y106008D02*
X376980Y105814D01*
X377215Y105519D01*
X378012Y104625D01*
X381916Y100620D01*
X376528Y95232D01*
X371309Y100048D01*
X376838Y106101D01*
X376855Y106008D01*
D02*
G37*
G36*
X411764Y91534D02*
X411649Y91331D01*
X411548Y91053D01*
X411460Y90700D01*
X411386Y90272D01*
X411278Y89190D01*
X411224Y87808D01*
X411217Y87004D01*
X404867D01*
X404860Y87808D01*
X404698Y90272D01*
X404624Y90700D01*
X404536Y91053D01*
X404435Y91331D01*
X404320Y91534D01*
X404192Y91662D01*
X411892D01*
X411764Y91534D01*
D02*
G37*
G36*
X332217Y104351D02*
X332274Y104231D01*
X332323Y104001D01*
X332366Y103661D01*
X332433Y102651D01*
X332486Y99314D01*
X324866D01*
X324862Y100224D01*
X324602Y104072D01*
X324532Y104262D01*
X324454Y104362D01*
X332154D01*
X332217Y104351D01*
D02*
G37*
%LPC*%
G36*
X20440Y220947D02*
X20200D01*
X17579Y220602D01*
X15137Y219590D01*
X13039Y217981D01*
X11430Y215883D01*
X10418Y213441D01*
X10073Y210820D01*
X10418Y208199D01*
X11430Y205757D01*
X13039Y203659D01*
X15137Y202050D01*
X17579Y201038D01*
X20200Y200693D01*
X20440D01*
X23061Y201038D01*
X25503Y202050D01*
X27601Y203659D01*
X29210Y205757D01*
X30222Y208199D01*
X30567Y210820D01*
X30222Y213441D01*
X29210Y215883D01*
X27601Y217981D01*
X25503Y219590D01*
X23061Y220602D01*
X20440Y220947D01*
D02*
G37*
G36*
Y195547D02*
X20200D01*
X17579Y195202D01*
X15137Y194190D01*
X13039Y192581D01*
X11430Y190483D01*
X10418Y188041D01*
X10073Y185420D01*
X10418Y182799D01*
X11430Y180357D01*
X13039Y178259D01*
X15137Y176650D01*
X17579Y175639D01*
X20200Y175293D01*
X20440D01*
X23061Y175639D01*
X25503Y176650D01*
X27601Y178259D01*
X29210Y180357D01*
X30222Y182799D01*
X30567Y185420D01*
X30222Y188041D01*
X29210Y190483D01*
X27601Y192581D01*
X25503Y194190D01*
X23061Y195202D01*
X20440Y195547D01*
D02*
G37*
G36*
Y170147D02*
X20200D01*
X17579Y169802D01*
X15137Y168790D01*
X13039Y167181D01*
X11430Y165083D01*
X10418Y162641D01*
X10073Y160020D01*
X10418Y157399D01*
X11430Y154957D01*
X13039Y152859D01*
X15137Y151250D01*
X17579Y150239D01*
X20200Y149893D01*
X20440D01*
X23061Y150239D01*
X25503Y151250D01*
X27601Y152859D01*
X29210Y154957D01*
X30222Y157399D01*
X30567Y160020D01*
X30222Y162641D01*
X29210Y165083D01*
X27601Y167181D01*
X25503Y168790D01*
X23061Y169802D01*
X20440Y170147D01*
D02*
G37*
G36*
X666870Y292067D02*
X666630D01*
X664009Y291722D01*
X661567Y290710D01*
X659469Y289101D01*
X657860Y287003D01*
X656848Y284561D01*
X656503Y281940D01*
X656848Y279319D01*
X657860Y276877D01*
X659469Y274779D01*
X661567Y273170D01*
X664009Y272159D01*
X666630Y271813D01*
X666870D01*
X669491Y272159D01*
X671933Y273170D01*
X674031Y274779D01*
X675640Y276877D01*
X676652Y279319D01*
X676997Y281940D01*
X676652Y284561D01*
X675640Y287003D01*
X674031Y289101D01*
X671933Y290710D01*
X669491Y291722D01*
X666870Y292067D01*
D02*
G37*
G36*
Y266667D02*
X666630D01*
X664009Y266322D01*
X661567Y265310D01*
X659469Y263701D01*
X657860Y261603D01*
X656848Y259161D01*
X656503Y256540D01*
X656848Y253919D01*
X657860Y251477D01*
X659469Y249379D01*
X661567Y247770D01*
X664009Y246758D01*
X666630Y246413D01*
X666870D01*
X669491Y246758D01*
X671933Y247770D01*
X674031Y249379D01*
X675640Y251477D01*
X676652Y253919D01*
X676997Y256540D01*
X676652Y259161D01*
X675640Y261603D01*
X674031Y263701D01*
X671933Y265310D01*
X669491Y266322D01*
X666870Y266667D01*
D02*
G37*
G36*
Y241267D02*
X666630D01*
X664009Y240922D01*
X661567Y239910D01*
X659469Y238301D01*
X657860Y236203D01*
X656848Y233761D01*
X656503Y231140D01*
X656848Y228519D01*
X657860Y226077D01*
X659469Y223979D01*
X661567Y222370D01*
X664009Y221359D01*
X666630Y221013D01*
X666870D01*
X669491Y221359D01*
X671933Y222370D01*
X674031Y223979D01*
X675640Y226077D01*
X676652Y228519D01*
X676997Y231140D01*
X676652Y233761D01*
X675640Y236203D01*
X674031Y238301D01*
X671933Y239910D01*
X669491Y240922D01*
X666870Y241267D01*
D02*
G37*
%LPD*%
D18*
X287918Y345440D02*
D03*
X304918D02*
D03*
X245754Y151892D02*
D03*
X262754D02*
D03*
X158360D02*
D03*
X141360D02*
D03*
X172348Y152146D02*
D03*
X189348D02*
D03*
X363084Y332486D02*
D03*
X346084D02*
D03*
X144898Y366268D02*
D03*
X127898D02*
D03*
X542680Y70358D02*
D03*
X559680D02*
D03*
X514722Y289560D02*
D03*
X497722D02*
D03*
X408042Y96012D02*
D03*
X391042D02*
D03*
X442332Y289306D02*
D03*
X425332D02*
D03*
X548758Y289560D02*
D03*
X531758D02*
D03*
X345304Y108712D02*
D03*
X328304D02*
D03*
D19*
X323088Y320684D02*
D03*
Y337684D02*
D03*
X308610Y314334D02*
D03*
Y331334D02*
D03*
X293878Y314334D02*
D03*
Y331334D02*
D03*
X386334Y127626D02*
D03*
Y110626D02*
D03*
X401066D02*
D03*
Y127626D02*
D03*
X371856Y121530D02*
D03*
Y104530D02*
D03*
D20*
X533358Y87630D02*
D03*
X559858D02*
D03*
X154220Y349758D02*
D03*
X127720D02*
D03*
D23*
X91927Y134619D02*
D03*
X120927D02*
D03*
X135149Y203201D02*
D03*
X106149D02*
D03*
X154481Y214747D02*
D03*
X183481D02*
D03*
X154481Y238507D02*
D03*
X183481D02*
D03*
X566397Y307341D02*
D03*
X595397D02*
D03*
X618511Y214123D02*
D03*
X589511D02*
D03*
X539265Y227331D02*
D03*
X510265D02*
D03*
Y203455D02*
D03*
X539265D02*
D03*
X589049Y237997D02*
D03*
X560049D02*
D03*
X106195Y227075D02*
D03*
X77195D02*
D03*
D36*
X524510Y155296D02*
Y165862D01*
X532892Y174244D01*
X154432Y267970D02*
X162402Y275940D01*
Y286006D01*
X163576Y287180D01*
X420370Y307340D02*
X424642Y303068D01*
Y292536D02*
Y303068D01*
Y292536D02*
X425332Y291846D01*
X308704Y278036D02*
Y289560D01*
Y278036D02*
X325120Y261620D01*
X308704Y289560D02*
Y314240D01*
X308610Y314334D02*
X308704Y314240D01*
X524248Y155034D02*
X524510Y155296D01*
X533496Y122840D02*
X541522D01*
X543212Y121150D01*
Y120142D02*
Y121150D01*
X581838Y87630D02*
X584378Y90170D01*
X559858Y87630D02*
X581838D01*
X559680Y87452D02*
X559858Y87630D01*
X559680Y70358D02*
Y87452D01*
X591236Y97028D02*
X600964D01*
X584378Y90170D02*
X591236Y97028D01*
X524002Y155034D02*
X524248D01*
X328676Y99314D02*
Y108340D01*
X328304Y108712D02*
X328676Y108340D01*
X379222Y90932D02*
Y97926D01*
X373554Y103594D02*
X379222Y97926D01*
X373554Y103594D02*
Y104094D01*
X372864Y104784D02*
X373554Y104094D01*
X372364Y104784D02*
X372864D01*
X380398Y151384D02*
Y161892D01*
X361950Y180340D02*
X380398Y161892D01*
X386334Y127626D02*
Y145448D01*
X380398Y151384D02*
X386334Y145448D01*
X127720Y349758D02*
Y365972D01*
X128016Y366268D01*
X87630Y346710D02*
X101346D01*
X104394Y349758D01*
X104648Y350012D01*
X104394Y349758D02*
X127720D01*
X308335Y331059D02*
X308610Y331334D01*
X285750Y331216D02*
X285907Y331059D01*
X287918Y333384D02*
Y345440D01*
X285750Y331216D02*
X287918Y333384D01*
X285907Y331059D02*
X308335D01*
X524002Y123444D02*
X532892D01*
X533496Y122840D01*
D37*
X390987Y96067D02*
X391042Y96012D01*
X390987Y96067D02*
Y97963D01*
X390951Y97999D02*
X390987Y97963D01*
X390951Y97999D02*
Y105363D01*
X401066Y110626D02*
X424824D01*
X424942Y110744D01*
X386334Y110626D02*
X401066D01*
X390951Y105363D02*
X396159Y110571D01*
D38*
X127000Y166858D02*
Y182350D01*
X108799Y200551D02*
X127000Y182350D01*
X106299Y200551D02*
X108799D01*
X106149Y200701D02*
X106299Y200551D01*
X106149Y200701D02*
Y203201D01*
X141224Y149996D02*
Y150134D01*
Y149996D02*
X141360Y149860D01*
X141086Y150134D02*
X141224Y149996D01*
X126492Y161011D02*
X137369Y150134D01*
X141086D01*
X140155Y138631D02*
X141224Y139700D01*
X140155Y135075D02*
Y138631D01*
X139700Y134620D02*
X140155Y135075D01*
X266700Y134620D02*
X266954Y134874D01*
X266192Y134112D02*
X266700Y134620D01*
X265016Y132936D02*
X266192Y134112D01*
X266954Y134874D02*
Y135636D01*
X265016Y115824D02*
Y132936D01*
X445770Y307340D02*
Y307984D01*
Y306696D02*
Y307340D01*
X442078Y290830D02*
Y303004D01*
X445770Y306696D01*
X444340Y309414D02*
X445770Y307984D01*
X444340Y309414D02*
Y326390D01*
X261366Y267970D02*
X285750D01*
X241300Y134620D02*
Y135264D01*
Y133976D02*
Y134620D01*
Y135264D02*
X245754Y139718D01*
Y150368D01*
X241300Y133976D02*
X245016Y130260D01*
Y115824D02*
Y130260D01*
X106149Y203201D02*
Y235943D01*
X126492Y161011D02*
Y168910D01*
X106149Y235943D02*
X122174Y251968D01*
X129540D01*
X141224Y139700D02*
Y149996D01*
X547370Y307340D02*
X566396D01*
X566397Y307341D01*
X547370Y290948D02*
Y307340D01*
Y290948D02*
X548758Y289560D01*
X562857Y273558D02*
X563277Y273138D01*
Y263769D02*
Y273138D01*
Y263769D02*
X585129Y241917D01*
X587629D01*
X589049Y240497D01*
Y237997D02*
Y240497D01*
Y214585D02*
Y237997D01*
Y214585D02*
X589511Y214123D01*
Y211623D02*
Y214123D01*
X588091Y210203D02*
X589511Y211623D01*
X585591Y210203D02*
X588091D01*
X565658Y190270D02*
X585591Y210203D01*
X558292Y189992D02*
X565658D01*
Y190270D01*
X556774Y280041D02*
X562857Y273958D01*
Y273558D02*
Y273958D01*
X548758Y289560D02*
X549173D01*
X556774Y281959D01*
Y280041D02*
Y281959D01*
X546915Y307795D02*
Y317795D01*
X539336Y325374D02*
X546915Y317795D01*
Y307795D02*
X547370Y307340D01*
X139700Y134620D02*
X140641Y133679D01*
Y124441D02*
Y133679D01*
Y124441D02*
X148242Y116840D01*
X120927Y134619D02*
Y135446D01*
X121077Y135596D01*
X138080D01*
X139056Y134620D01*
X139700D01*
D40*
X297727Y186965D02*
X300288Y184404D01*
X294402Y190290D02*
X297727Y186965D01*
X300288Y184404D02*
X300990D01*
X294402Y190290D02*
Y194098D01*
X287505Y200995D02*
X294402Y194098D01*
X287505Y200995D02*
Y201145D01*
X287330Y201320D02*
X287505Y201145D01*
X287180Y201320D02*
X287330D01*
X286004Y305562D02*
X288379Y303187D01*
X325120Y210820D02*
X325120Y210820D01*
X307180Y210820D02*
X325120D01*
X400629Y247142D02*
X400652Y247119D01*
Y240640D02*
Y247119D01*
X361950Y231140D02*
X380652D01*
X288554Y299060D02*
X288704D01*
X288379Y299235D02*
X288554Y299060D01*
X288379Y299235D02*
Y303187D01*
X361759Y333811D02*
X363084Y332486D01*
X361759Y333811D02*
Y337503D01*
X361696Y337566D02*
X361759Y337503D01*
X361696Y337566D02*
Y341884D01*
X304918Y345440D02*
Y345940D01*
X306243Y347265D01*
X306743D01*
X310642Y351164D01*
X322588Y337684D02*
X323088D01*
X321263Y339009D02*
X322588Y337684D01*
X321263Y339009D02*
Y339509D01*
X310642Y350130D02*
X321263Y339509D01*
X310642Y350130D02*
Y351164D01*
Y356108D01*
X408042Y87004D02*
Y96012D01*
Y87004D02*
X408178Y86868D01*
D42*
X666750Y256540D02*
D03*
Y281940D02*
D03*
Y231140D02*
D03*
Y180340D02*
D03*
Y154940D02*
D03*
Y78740D02*
D03*
Y104140D02*
D03*
X20320Y337820D02*
D03*
Y363220D02*
D03*
Y287020D02*
D03*
Y261620D02*
D03*
Y210820D02*
D03*
Y185420D02*
D03*
Y160020D02*
D03*
X325120Y185420D02*
D03*
Y261620D02*
D03*
Y210820D02*
D03*
Y236220D02*
D03*
X325120Y287020D02*
D03*
X325120Y160020D02*
D03*
X361950Y281940D02*
D03*
X361950Y180340D02*
D03*
Y154940D02*
D03*
Y231140D02*
D03*
Y205740D02*
D03*
Y256540D02*
D03*
D43*
X547370Y307340D02*
D03*
X521970D02*
D03*
X496570D02*
D03*
X445770D02*
D03*
X139700Y134620D02*
D03*
X165100D02*
D03*
X190500D02*
D03*
X241300D02*
D03*
D44*
X420370Y307340D02*
D03*
X266700Y134620D02*
D03*
D45*
X329184Y327152D02*
D03*
X338836Y327406D02*
D03*
X154432Y318516D02*
D03*
X122174Y251714D02*
D03*
X129540D02*
D03*
X86106Y200558D02*
D03*
Y212852D02*
D03*
Y151384D02*
D03*
Y163678D02*
D03*
Y175971D02*
D03*
Y188265D02*
D03*
X601726Y253695D02*
D03*
Y265989D02*
D03*
Y278282D02*
D03*
Y290576D02*
D03*
Y229108D02*
D03*
X154178Y255016D02*
D03*
Y267462D02*
D03*
X130810Y297434D02*
D03*
X122174Y305562D02*
D03*
X285750Y331216D02*
D03*
X286004Y267970D02*
D03*
X261366D02*
D03*
Y242316D02*
D03*
X302260D02*
D03*
X286004D02*
D03*
X86868Y263652D02*
D03*
Y251714D02*
D03*
Y239776D02*
D03*
X509016Y186690D02*
D03*
X193040Y192278D02*
D03*
Y204216D02*
D03*
Y216154D02*
D03*
X145034Y192024D02*
D03*
Y203962D02*
D03*
Y215900D02*
D03*
X565658Y189992D02*
D03*
X555752Y143764D02*
D03*
X601726Y241402D02*
D03*
X549656Y239268D02*
D03*
Y227330D02*
D03*
X558292Y189992D02*
D03*
X601726Y178562D02*
D03*
Y190500D02*
D03*
Y202438D02*
D03*
X500126Y251968D02*
D03*
Y240030D02*
D03*
Y228092D02*
D03*
X564388Y135636D02*
D03*
X408178Y86868D02*
D03*
X400629Y247142D02*
D03*
X328676Y99314D02*
D03*
X353314Y115062D02*
D03*
X379222Y90932D02*
D03*
X401066Y171196D02*
D03*
X384302Y199644D02*
D03*
X400558D02*
D03*
X424942D02*
D03*
Y171196D02*
D03*
X532892Y186690D02*
D03*
Y174244D02*
D03*
X87630Y346710D02*
D03*
X286004Y305308D02*
D03*
X361442Y341630D02*
D03*
X600964Y97028D02*
D03*
X549656Y251206D02*
D03*
X364744Y115824D02*
D03*
X424942Y110744D02*
D03*
X310642Y356108D02*
D03*
X532892Y123444D02*
D03*
D46*
X402196Y305308D02*
D03*
X384696D02*
D03*
X285890Y134874D02*
D03*
X303390D02*
D03*
D47*
X386333Y254741D02*
D03*
Y283741D02*
D03*
X273813Y267739D02*
D03*
Y238739D02*
D03*
X300227Y186965D02*
D03*
Y157965D02*
D03*
X412749Y173459D02*
D03*
Y202459D02*
D03*
D48*
X308704Y289560D02*
D03*
X288704Y280060D02*
D03*
Y299060D02*
D03*
X307180Y210820D02*
D03*
X287180Y220320D02*
D03*
Y201320D02*
D03*
X400652Y240640D02*
D03*
Y221640D02*
D03*
X380652Y231140D02*
D03*
X380398Y151384D02*
D03*
X400398Y141884D02*
D03*
Y160884D02*
D03*
D49*
X265016Y114808D02*
D03*
X245016D02*
D03*
X180754Y169672D02*
D03*
X200754D02*
D03*
X164940Y169418D02*
D03*
X144940D02*
D03*
X126586Y165862D02*
D03*
X106586D02*
D03*
X122334Y321818D02*
D03*
X142334D02*
D03*
X163482Y331724D02*
D03*
X183482D02*
D03*
X541942Y118872D02*
D03*
X561942D02*
D03*
X524096Y110998D02*
D03*
X504096D02*
D03*
X542384Y272288D02*
D03*
X522384D02*
D03*
X486570Y272034D02*
D03*
X506570D02*
D03*
X582857Y273558D02*
D03*
X562857D02*
D03*
X444340Y328422D02*
D03*
X424340D02*
D03*
D50*
X180942Y116840D02*
D03*
X148242D02*
D03*
X539336Y325374D02*
D03*
X506636D02*
D03*
X522318Y250444D02*
D03*
X489618D02*
D03*
X202278Y191770D02*
D03*
X169578D02*
D03*
D51*
X103200Y350520D02*
D03*
X49200D02*
D03*
X584378Y90170D02*
D03*
X638378D02*
D03*
D52*
X163576Y287180D02*
D03*
Y307180D02*
D03*
X524002Y155034D02*
D03*
Y135034D02*
D03*
D53*
X424340Y324466D02*
Y326390D01*
X421737Y321863D02*
X424340Y324466D01*
X421737Y308707D02*
Y321863D01*
X420370Y307340D02*
X421737Y308707D01*
X402336Y305562D02*
Y305798D01*
X402862Y306324D01*
X419354D01*
X420370Y307340D01*
D54*
X154432Y318516D02*
X161056Y311892D01*
Y307600D02*
Y311892D01*
Y307600D02*
X161476Y307180D01*
X163576D01*
X153093Y319855D02*
X154432Y318516D01*
X142754Y319855D02*
X153093D01*
X142334Y320275D02*
X142754Y319855D01*
X142334Y320275D02*
Y321818D01*
X154432Y318516D02*
X163062Y327146D01*
Y331304D01*
X163482Y331724D01*
X524002Y123444D02*
Y135034D01*
Y111092D02*
Y123444D01*
Y111092D02*
X524096Y110998D01*
D55*
X264875Y135429D02*
X266192Y134112D01*
X266954Y134874D02*
X267208Y135128D01*
X264875Y135429D02*
Y148247D01*
X267208Y135128D02*
X285496D01*
X262754Y150368D02*
X264875Y148247D01*
X300227Y186965D02*
X322489D01*
X297727D02*
X300227D01*
X323780Y185674D02*
X324612D01*
X322489Y186965D02*
X323780Y185674D01*
X324288Y160274D02*
X325374D01*
X299466Y157734D02*
X302836D01*
X321979Y157965D02*
X324288Y160274D01*
X300227Y157965D02*
X321979D01*
X302836Y157734D02*
X303390Y157180D01*
Y134874D02*
Y157180D01*
X384950Y283741D02*
Y305308D01*
Y283741D02*
X386333D01*
X364837D02*
X384950D01*
X361696Y281432D02*
X362528D01*
X364837Y283741D01*
X384950Y283096D02*
Y283741D01*
X383812Y254762D02*
X388112D01*
X382034Y256540D02*
X383812Y254762D01*
X361950Y256540D02*
X382034D01*
M02*
