G04*
G04 #@! TF.GenerationSoftware,Altium Limited,Altium Designer,19.1.7 (138)*
G04*
G04 Layer_Color=32768*
%FSLAX44Y44*%
%MOMM*%
G71*
G01*
G75*
%ADD10C,0.2000*%
%ADD11C,0.1500*%
%ADD12C,0.1270*%
%ADD13C,0.1524*%
%ADD64C,0.3000*%
%ADD68C,0.0500*%
%ADD69C,0.1000*%
%ADD70C,0.2500*%
G36*
X267056Y336931D02*
X285090D01*
Y236601D01*
X267056D01*
Y233426D01*
X173076D01*
Y236601D01*
X155042D01*
Y336931D01*
X173076D01*
Y340106D01*
X267056D01*
Y336931D01*
D02*
G37*
G36*
X420025Y105029D02*
X401991D01*
Y205359D01*
X420025D01*
Y208534D01*
X514005D01*
Y205359D01*
X532039D01*
Y105029D01*
X514005D01*
Y101854D01*
X420025D01*
Y105029D01*
D02*
G37*
D10*
X131630Y316024D02*
G03*
X131574Y316318I734J294D01*
G01*
X556202Y126190D02*
G03*
X556258Y125896I-734J-294D01*
G01*
X44900Y344122D02*
G03*
X44956Y343828I-734J-294D01*
G01*
X71432Y130096D02*
G03*
X71376Y130390I734J294D01*
G01*
X613605Y311102D02*
G03*
X613662Y310808I-734J-294D01*
G01*
X512270Y98610D02*
G03*
X511976Y98554I-294J734D01*
G01*
X642424Y99870D02*
G03*
X642368Y100164I734J294D01*
G01*
X125220Y344258D02*
G03*
X125163Y343964I-790J0D01*
G01*
X562358Y93130D02*
G03*
X562415Y93424I790J0D01*
G01*
X175816Y342333D02*
G03*
X176110Y342390I294J-734D01*
G01*
X283704Y306060D02*
X313704D01*
X283704Y273060D02*
Y306060D01*
Y273060D02*
X313704D01*
Y306060D01*
X282180Y194320D02*
X312180D01*
X282180D02*
Y227320D01*
X312180D01*
Y194320D02*
Y227320D01*
X374374Y315732D02*
Y348732D01*
X339874D02*
X374374D01*
X339874Y315732D02*
Y348732D01*
Y315732D02*
X374374D01*
X304810Y349482D02*
X337810D01*
X304810Y314982D02*
Y349482D01*
Y314982D02*
X337810D01*
Y349482D01*
X33020Y323850D02*
Y377190D01*
X119380Y323850D02*
Y377190D01*
X33020Y323850D02*
X119380D01*
X33020Y377190D02*
X119380D01*
X375652Y214640D02*
Y247640D01*
Y214640D02*
X405652D01*
Y247640D01*
X375652D02*
X405652D01*
X353324Y92732D02*
X386324D01*
Y127232D01*
X353324D02*
X386324D01*
X353324Y92732D02*
Y127232D01*
X316252Y92466D02*
Y125466D01*
Y92466D02*
X350752D01*
Y125466D01*
X316252D02*
X350752D01*
X654558Y63500D02*
Y116840D01*
X568198Y63500D02*
Y116840D01*
X654558D01*
X568198Y63500D02*
X654558D01*
X375398Y167884D02*
X405398D01*
Y134884D02*
Y167884D01*
X375398Y134884D02*
X405398D01*
X375398D02*
Y167884D01*
D11*
X138938Y104340D02*
X189738D01*
Y129540D01*
X138938D02*
X189738D01*
X138938Y104340D02*
Y129540D01*
X135824Y313068D02*
Y330568D01*
X95824D02*
X135824D01*
X95824Y313068D02*
Y330568D01*
Y313068D02*
X96074D01*
X135824D01*
X552008Y111646D02*
Y129146D01*
Y111646D02*
X592008D01*
Y129146D01*
X591758D02*
X592008D01*
X552008D02*
X591758D01*
X40706Y347078D02*
X80456D01*
X80706D01*
Y329578D02*
Y347078D01*
X40706Y329578D02*
X80706D01*
X40706D02*
Y347078D01*
X35876Y127140D02*
X75626D01*
X35626D02*
X35876D01*
X35626D02*
Y144640D01*
X75626D01*
Y127140D02*
Y144640D01*
X609412Y314058D02*
X649162D01*
X649412D01*
Y296558D02*
Y314058D01*
X609412Y296558D02*
X649412D01*
X609412D02*
Y314058D01*
X515226Y63054D02*
Y102804D01*
Y62804D02*
Y63054D01*
X497726Y62804D02*
X515226D01*
X497726D02*
Y102804D01*
X515226D01*
X646618Y96914D02*
Y114414D01*
X606618D02*
X646618D01*
X606618Y96914D02*
Y114414D01*
Y96914D02*
X606868D01*
X646618D01*
X120970Y341008D02*
X160720D01*
X160970D01*
Y358508D01*
X120970D02*
X160970D01*
X120970Y341008D02*
Y358508D01*
X531622Y237744D02*
Y262944D01*
X480822Y237744D02*
X531622D01*
X480822D02*
Y262944D01*
X531622D01*
X526858Y96380D02*
X566608D01*
X526608D02*
X526858D01*
X526608Y78880D02*
Y96380D01*
Y78880D02*
X566608D01*
Y96380D01*
X497840Y337874D02*
X548640D01*
X497840Y312674D02*
Y337874D01*
Y312674D02*
X548640D01*
Y337874D01*
X172860Y338140D02*
X190360D01*
Y378140D01*
X172860D02*
X190360D01*
X172860Y377890D02*
Y378140D01*
Y338140D02*
Y377890D01*
X160274Y179270D02*
X211074D01*
Y204470D01*
X160274D02*
X211074D01*
X160274Y179270D02*
Y204470D01*
D12*
X654298Y218442D02*
X679197D01*
Y294642D01*
X654298D02*
X679197D01*
X654298Y218442D02*
Y294642D01*
X654299Y142242D02*
Y193042D01*
X679199D01*
Y142242D02*
Y193042D01*
X654299Y142242D02*
X679199D01*
X654299Y66042D02*
X679199D01*
Y116842D01*
X654299D02*
X679199D01*
X654299Y66042D02*
Y116842D01*
X7869Y325122D02*
Y375922D01*
X32768D01*
Y325122D02*
Y375922D01*
X7869Y325122D02*
X32768D01*
X7869Y248922D02*
Y299722D01*
X32768D01*
Y248922D02*
Y299722D01*
X7869Y248922D02*
X32768D01*
X7868Y147322D02*
X32767D01*
Y223522D01*
X7868D02*
X32767D01*
X7868Y147322D02*
Y223522D01*
X312620Y147320D02*
X337520D01*
Y298958D01*
X312620Y299212D02*
X337520D01*
X312620Y147320D02*
Y298450D01*
X349450Y142240D02*
X374350D01*
Y293878D01*
X349450Y294132D02*
X374350D01*
X349450Y142240D02*
Y293370D01*
D13*
X285090Y236601D02*
Y336931D01*
X267056Y236601D02*
X285090D01*
X267056Y233426D02*
Y236601D01*
X173076Y233426D02*
X267056D01*
X173076D02*
Y236601D01*
X155042D02*
X173076D01*
X155042D02*
Y336931D01*
X173076D01*
Y340106D01*
X267056D01*
Y336931D02*
Y340106D01*
Y336931D02*
X285090D01*
X401991Y105029D02*
Y205359D01*
X420025D01*
Y208534D01*
X514005D01*
Y205359D02*
Y208534D01*
Y205359D02*
X532039D01*
Y105029D02*
Y205359D01*
X514005Y105029D02*
X532039D01*
X514005Y101854D02*
Y105029D01*
X420025Y101854D02*
X514005D01*
X420025D02*
Y105029D01*
X401991D02*
X420025D01*
D64*
X114971Y371520D02*
G03*
X114971Y371520I-1521J0D01*
G01*
X575649Y69170D02*
G03*
X575649Y69170I-1521J0D01*
G01*
D68*
X386332Y267990D02*
Y270490D01*
X385082Y269240D02*
X387582D01*
X296418Y344690D02*
Y346190D01*
X295668Y345440D02*
X297168D01*
X323088Y327684D02*
Y330684D01*
X321588Y329184D02*
X324588D01*
X308610Y322084D02*
Y323584D01*
X307860Y322834D02*
X309360D01*
X293878Y322084D02*
Y323584D01*
X293128Y322834D02*
X294628D01*
X272562Y253238D02*
X275062D01*
X273812Y251988D02*
Y254488D01*
X300228Y171216D02*
Y173716D01*
X298978Y172466D02*
X301478D01*
X255016Y113058D02*
Y116558D01*
X253266Y114808D02*
X256766D01*
X254254Y150392D02*
Y153392D01*
X252754Y151892D02*
X255754D01*
X190754Y167922D02*
Y171422D01*
X189004Y169672D02*
X192504D01*
X154190Y169418D02*
X155690D01*
X154940Y168668D02*
Y170168D01*
X149860Y150392D02*
Y153392D01*
X148360Y151892D02*
X151360D01*
X116586Y164112D02*
Y167612D01*
X114836Y165862D02*
X118336D01*
X179348Y152146D02*
X182348D01*
X180848Y150646D02*
Y153646D01*
X106426Y133870D02*
Y135370D01*
X105676Y134620D02*
X107176D01*
X132334Y321068D02*
Y322568D01*
X131584Y321818D02*
X133084D01*
X537210Y288568D02*
Y291568D01*
X535710Y290068D02*
X538710D01*
X506476Y288568D02*
Y291568D01*
X504976Y290068D02*
X507976D01*
X180594Y150392D02*
Y153392D01*
X179094Y151892D02*
X182094D01*
X149996Y150392D02*
Y153392D01*
X148496Y151892D02*
X151496D01*
X292632Y250952D02*
X295632D01*
X294132Y249452D02*
Y252452D01*
X324624Y306832D02*
X326124D01*
X325374Y306082D02*
Y307582D01*
X356108Y306336D02*
Y307836D01*
X355358Y307086D02*
X356858D01*
X295668Y309880D02*
X297168D01*
X296418Y309130D02*
Y310630D01*
X354584Y330986D02*
Y333986D01*
X353084Y332486D02*
X356084D01*
X136398Y365518D02*
Y367018D01*
X135648Y366268D02*
X137148D01*
X96774Y338086D02*
Y339586D01*
X96024Y338836D02*
X97524D01*
X139192Y305586D02*
Y308586D01*
X137692Y307086D02*
X140692D01*
X173482Y329974D02*
Y333474D01*
X171732Y331724D02*
X175232D01*
X161826Y297180D02*
X165326D01*
X163576Y295430D02*
Y298930D01*
X142090Y298800D02*
X155090D01*
X142090Y274000D02*
Y298800D01*
Y274000D02*
X155090D01*
Y298800D01*
X119400Y203200D02*
X121900D01*
X120650Y201950D02*
Y204450D01*
X590296Y104914D02*
Y106414D01*
X589546Y105664D02*
X591046D01*
X550430Y70358D02*
X551930D01*
X551180Y69608D02*
Y71108D01*
X393204Y132080D02*
X394704D01*
X393954Y131330D02*
Y132830D01*
X551192Y118872D02*
X552692D01*
X551942Y118122D02*
Y119622D01*
X522252Y145034D02*
X525752D01*
X524002Y143284D02*
Y146784D01*
X514096Y109248D02*
Y112748D01*
X512346Y110998D02*
X515846D01*
X330466Y135128D02*
X331966D01*
X331216Y134378D02*
Y135878D01*
X56400Y247142D02*
X57900D01*
X57150Y246392D02*
Y247892D01*
X56400Y269748D02*
X57900D01*
X57150Y268998D02*
Y270498D01*
X56400Y292354D02*
X57900D01*
X57150Y291604D02*
Y293104D01*
X56400Y314960D02*
X57900D01*
X57150Y314210D02*
Y315710D01*
X56400Y224282D02*
X57900D01*
X57150Y223532D02*
Y225032D01*
X56400Y156210D02*
X57900D01*
X57150Y155460D02*
Y156960D01*
X56400Y178901D02*
X57900D01*
X57150Y178151D02*
Y179651D01*
X56400Y201591D02*
X57900D01*
X57150Y200841D02*
Y202341D01*
X54622Y121158D02*
X56122D01*
X55372Y120408D02*
Y121908D01*
X55132Y373058D02*
X56632D01*
X55882Y372308D02*
Y373808D01*
X101868Y373058D02*
X103368D01*
X102618Y372308D02*
Y373808D01*
X148604Y373058D02*
X150104D01*
X149354Y372308D02*
Y373808D01*
X143764Y329060D02*
Y330560D01*
X143014Y329810D02*
X144514D01*
X629170Y126492D02*
X630670D01*
X629920Y125742D02*
Y127242D01*
X629170Y149098D02*
X630670D01*
X629920Y148348D02*
Y149848D01*
X629170Y171704D02*
X630670D01*
X629920Y170954D02*
Y172454D01*
X629170Y194310D02*
X630670D01*
X629920Y193560D02*
Y195060D01*
X629170Y216916D02*
X630670D01*
X629920Y216166D02*
Y217666D01*
X629170Y239522D02*
X630670D01*
X629920Y238772D02*
Y240272D01*
X629170Y262128D02*
X630670D01*
X629920Y261378D02*
Y262878D01*
X629170Y284734D02*
X630670D01*
X629920Y283984D02*
Y285484D01*
X628154Y322072D02*
X629654D01*
X628904Y321322D02*
Y322822D01*
X392430Y189508D02*
Y192508D01*
X390930Y191008D02*
X393930D01*
X111250Y238780D02*
Y241280D01*
X110000Y240030D02*
X112500D01*
X111252Y262402D02*
Y264902D01*
X110002Y263652D02*
X112502D01*
X169164Y215296D02*
Y217796D01*
X167914Y216546D02*
X170414D01*
X169164Y191282D02*
Y193782D01*
X167914Y192532D02*
X170414D01*
X532996Y143302D02*
X545996D01*
Y168102D01*
X532996D02*
X545996D01*
X532996Y143302D02*
Y168102D01*
X546046Y135128D02*
X549046D01*
X547546Y133628D02*
Y136628D01*
X576580Y200681D02*
Y203181D01*
X575330Y201931D02*
X577830D01*
X576578Y176740D02*
Y179240D01*
X575328Y177990D02*
X577828D01*
X525526Y227604D02*
Y230104D01*
X524276Y228854D02*
X526776D01*
X525526Y250210D02*
Y252710D01*
X524276Y251460D02*
X526776D01*
X584466Y69088D02*
X585966D01*
X585216Y68338D02*
Y69838D01*
X543114Y112522D02*
X544614D01*
X543864Y111772D02*
Y113272D01*
X538480Y68338D02*
Y69838D01*
X537730Y69088D02*
X539230D01*
X168982Y213496D02*
Y215996D01*
X167732Y214746D02*
X170232D01*
X168982Y237256D02*
Y239756D01*
X167732Y238506D02*
X170232D01*
X411500Y187960D02*
X414000D01*
X412750Y186710D02*
Y189210D01*
X504722Y289560D02*
X507722D01*
X506222Y288060D02*
Y291060D01*
X532384Y271538D02*
Y273038D01*
X531634Y272288D02*
X533134D01*
X494820Y272034D02*
X498320D01*
X496570Y270284D02*
Y273784D01*
X580148Y307340D02*
X581648D01*
X580898Y306590D02*
Y308090D01*
X571107Y273558D02*
X574607D01*
X572857Y271808D02*
Y275308D01*
X524764Y202206D02*
Y204706D01*
X523514Y203456D02*
X526014D01*
X524764Y226082D02*
Y228582D01*
X523514Y227332D02*
X526014D01*
X604012Y212872D02*
Y215372D01*
X602762Y214122D02*
X605262D01*
X401066Y118376D02*
Y119876D01*
X400316Y119126D02*
X401816D01*
X398792Y96012D02*
X400292D01*
X399542Y95262D02*
Y96762D01*
X540258Y288060D02*
Y291060D01*
X538758Y289560D02*
X541758D01*
X432332Y289306D02*
X435332D01*
X433832Y287806D02*
Y290806D01*
X432590Y328422D02*
X436090D01*
X434340Y326672D02*
Y330172D01*
X385584Y119126D02*
X387084D01*
X386334Y118376D02*
Y119876D01*
X361950Y134378D02*
Y135878D01*
X361200Y135128D02*
X362700D01*
X336804Y107212D02*
Y110212D01*
X335304Y108712D02*
X338304D01*
X370356Y113030D02*
X373356D01*
X371856Y111530D02*
Y114530D01*
X631202Y69088D02*
X632702D01*
X631952Y68338D02*
Y69838D01*
X574548Y236748D02*
Y239248D01*
X573298Y237998D02*
X575798D01*
X91694Y225826D02*
Y228326D01*
X90444Y227076D02*
X92944D01*
D69*
X664250Y256540D02*
X669250D01*
X666750Y254040D02*
Y259040D01*
Y165140D02*
Y170140D01*
X664250Y167640D02*
X669250D01*
X664250Y91440D02*
X669250D01*
X666750Y88940D02*
Y93940D01*
X374833Y245741D02*
Y292741D01*
X397833Y245741D02*
Y292741D01*
X374833D02*
X397833D01*
X374833Y245741D02*
X397833D01*
X281668Y338690D02*
X311168D01*
X281668Y352190D02*
X311168D01*
X281668Y338690D02*
Y352190D01*
X311168Y338690D02*
Y352190D01*
X316338Y343934D02*
X329838D01*
X316338Y314434D02*
X329838D01*
X316338D02*
Y343934D01*
X329838Y314434D02*
Y343934D01*
X301860Y308084D02*
X315360D01*
X301860Y337584D02*
X315360D01*
Y308084D02*
Y337584D01*
X301860Y308084D02*
Y337584D01*
X287128Y308084D02*
X300628D01*
X287128Y337584D02*
X300628D01*
Y308084D02*
Y337584D01*
X287128Y308084D02*
Y337584D01*
X293704Y289560D02*
X303704D01*
X298704Y284560D02*
Y294560D01*
X262313Y229739D02*
X285313D01*
X262313Y276739D02*
X285313D01*
Y229739D02*
Y276739D01*
X262313Y229739D02*
Y276739D01*
X311727Y148965D02*
Y195965D01*
X288727Y148965D02*
Y195965D01*
Y148965D02*
X311727D01*
X288727Y195965D02*
X311727D01*
X292180Y210820D02*
X302180D01*
X297180Y205820D02*
Y215820D01*
X237516Y105308D02*
Y124308D01*
X272516Y105308D02*
Y124308D01*
X237516Y105308D02*
X272516D01*
X237516Y124308D02*
X272516D01*
X239504Y158642D02*
X269004D01*
X239504Y145142D02*
X269004D01*
Y158642D01*
X239504Y145142D02*
Y158642D01*
X208254Y160172D02*
Y179172D01*
X173254Y160172D02*
Y179172D01*
X208254D01*
X173254Y160172D02*
X208254D01*
X172190Y160168D02*
Y178668D01*
X137690Y160168D02*
Y178668D01*
X172190D01*
X137690Y160168D02*
X172190D01*
X135110Y145142D02*
X164610D01*
X135110Y158642D02*
X164610D01*
X135110Y145142D02*
Y158642D01*
X164610Y145142D02*
Y158642D01*
X99086Y156362D02*
Y175362D01*
X134086Y156362D02*
Y175362D01*
X99086Y156362D02*
X134086D01*
X99086Y175362D02*
X134086D01*
X195598Y145396D02*
Y158896D01*
X166098Y145396D02*
Y158896D01*
X195598D01*
X166098Y145396D02*
X195598D01*
X164338Y113090D02*
Y120590D01*
X160588Y116840D02*
X168088D01*
X83676Y123870D02*
Y145370D01*
X129176Y123870D02*
Y145370D01*
X83676Y123870D02*
X129176D01*
X83676Y145370D02*
X129176D01*
X115084Y312568D02*
X149584D01*
X115084Y331068D02*
X149584D01*
X115084Y312568D02*
Y331068D01*
X149584Y312568D02*
Y331068D01*
X20320Y348020D02*
Y353020D01*
X17820Y350520D02*
X22820D01*
X20320Y271820D02*
Y276820D01*
X17820Y274320D02*
X22820D01*
X17820Y185420D02*
X22820D01*
X20320Y182920D02*
Y187920D01*
X522460Y283318D02*
X551960D01*
X522460Y296818D02*
X551960D01*
Y283318D02*
Y296818D01*
X522460Y283318D02*
Y296818D01*
X491726Y283318D02*
X521226D01*
X491726Y296818D02*
X521226D01*
Y283318D02*
Y296818D01*
X491726Y283318D02*
Y296818D01*
X165844Y158642D02*
X195344D01*
X165844Y145142D02*
X195344D01*
X165844D02*
Y158642D01*
X195344Y145142D02*
Y158642D01*
X135246D02*
X164746D01*
X135246Y145142D02*
X164746D01*
X135246D02*
Y158642D01*
X164746Y145142D02*
Y158642D01*
X287382Y236202D02*
Y265702D01*
X300882Y236202D02*
Y265702D01*
X287382Y236202D02*
X300882D01*
X287382Y265702D02*
X300882D01*
X340124Y300082D02*
Y313582D01*
X310624Y300082D02*
Y313582D01*
Y300082D02*
X340124D01*
X310624Y313582D02*
X340124D01*
X341358Y313836D02*
X370858D01*
X341358Y300336D02*
X370858D01*
X341358D02*
Y313836D01*
X370858Y300336D02*
Y313836D01*
X357124Y327232D02*
Y337232D01*
X352124Y332232D02*
X362124D01*
X316310D02*
X326310D01*
X321310Y327232D02*
Y337232D01*
X303168Y295130D02*
Y324630D01*
X289668Y295130D02*
Y324630D01*
X303168D01*
X289668Y295130D02*
X303168D01*
X339834Y325736D02*
X369334D01*
X339834Y339236D02*
X369334D01*
X339834Y325736D02*
Y339236D01*
X369334Y325736D02*
Y339236D01*
X121648Y373018D02*
X151148D01*
X121648Y359518D02*
X151148D01*
Y373018D01*
X121648Y359518D02*
Y373018D01*
X76200Y346770D02*
Y354270D01*
X72450Y350520D02*
X79950D01*
X82024Y332086D02*
X111524D01*
X82024Y345586D02*
X111524D01*
Y332086D02*
Y345586D01*
X82024Y332086D02*
Y345586D01*
X112074Y321818D02*
X119574D01*
X115824Y318068D02*
Y325568D01*
X124442Y300336D02*
X153942D01*
X124442Y313836D02*
X153942D01*
Y300336D02*
Y313836D01*
X124442Y300336D02*
Y313836D01*
X190982Y322224D02*
Y341224D01*
X155982Y322224D02*
Y341224D01*
X190982D01*
X155982Y322224D02*
X190982D01*
X154076Y314680D02*
X173076D01*
X154076Y279680D02*
X173076D01*
X154076D02*
Y314680D01*
X173076Y279680D02*
Y314680D01*
X97149Y191701D02*
X144149D01*
X97149Y214701D02*
X144149D01*
X97149Y191701D02*
Y214701D01*
X144149Y191701D02*
Y214701D01*
X575546Y112414D02*
X605046D01*
X575546Y98914D02*
X605046D01*
X575546D02*
Y112414D01*
X605046Y98914D02*
Y112414D01*
X568258Y120396D02*
X575758D01*
X572008Y116646D02*
Y124146D01*
X565930Y63608D02*
Y77108D01*
X536430Y63608D02*
Y77108D01*
X565930D01*
X536430Y63608D02*
X565930D01*
X390652Y226140D02*
Y236140D01*
X385652Y231140D02*
X395652D01*
X387204Y117330D02*
Y146830D01*
X400704Y117330D02*
Y146830D01*
X387204Y117330D02*
X400704D01*
X387204Y146830D02*
X400704D01*
X364824Y109982D02*
X374824D01*
X369824Y104982D02*
Y114982D01*
X333502Y103966D02*
Y113966D01*
X328502Y108966D02*
X338502D01*
X534692Y109622D02*
Y128122D01*
X569192Y109622D02*
Y128122D01*
X534692Y109622D02*
X569192D01*
X534692Y128122D02*
X569192D01*
X514502Y127534D02*
X533502D01*
X514502Y162534D02*
X533502D01*
Y127534D02*
Y162534D01*
X514502Y127534D02*
Y162534D01*
X496596Y101498D02*
Y120498D01*
X531596Y101498D02*
Y120498D01*
X496596Y101498D02*
X531596D01*
X496596Y120498D02*
X531596D01*
X322620Y210820D02*
X327620D01*
X325120Y208320D02*
Y213320D01*
X359450Y205740D02*
X364450D01*
X361950Y203240D02*
Y208240D01*
X316466Y128378D02*
Y141878D01*
X345966Y128378D02*
Y141878D01*
X316466D02*
X345966D01*
X316466Y128378D02*
X345966D01*
X34400Y257892D02*
X79900D01*
X34400Y236392D02*
X79900D01*
X34400D02*
Y257892D01*
X79900Y236392D02*
Y257892D01*
X34400Y280498D02*
X79900D01*
X34400Y258998D02*
X79900D01*
X34400D02*
Y280498D01*
X79900Y258998D02*
Y280498D01*
X34400Y303104D02*
X79900D01*
X34400Y281604D02*
X79900D01*
X34400D02*
Y303104D01*
X79900Y281604D02*
Y303104D01*
X34400Y325710D02*
X79900D01*
X34400Y304210D02*
X79900D01*
X34400D02*
Y325710D01*
X79900Y304210D02*
Y325710D01*
X34400Y235032D02*
X79900D01*
X34400Y213532D02*
X79900D01*
X34400D02*
Y235032D01*
X79900Y213532D02*
Y235032D01*
X34400Y166960D02*
X79900D01*
X34400Y145460D02*
X79900D01*
X34400D02*
Y166960D01*
X79900Y145460D02*
Y166960D01*
X34400Y189651D02*
X79900D01*
X34400Y168151D02*
X79900D01*
X34400D02*
Y189651D01*
X79900Y168151D02*
Y189651D01*
X34400Y212341D02*
X79900D01*
X34400Y190841D02*
X79900D01*
X34400D02*
Y212341D01*
X79900Y190841D02*
Y212341D01*
X70122Y114408D02*
Y127908D01*
X40622Y114408D02*
Y127908D01*
Y114408D02*
X70122D01*
X40622Y127908D02*
X70122D01*
X33132Y383808D02*
X78632D01*
X33132Y362308D02*
X78632D01*
X33132D02*
Y383808D01*
X78632Y362308D02*
Y383808D01*
X79868D02*
X125368D01*
X79868Y362308D02*
X125368D01*
X79868D02*
Y383808D01*
X125368Y362308D02*
Y383808D01*
X126604D02*
X172104D01*
X126604Y362308D02*
X172104D01*
X126604D02*
Y383808D01*
X172104Y362308D02*
Y383808D01*
X137014Y344560D02*
X150514D01*
X137014Y315060D02*
X150514D01*
Y344560D01*
X137014Y315060D02*
Y344560D01*
X607170Y115742D02*
X652670D01*
X607170Y137242D02*
X652670D01*
Y115742D02*
Y137242D01*
X607170Y115742D02*
Y137242D01*
Y138348D02*
X652670D01*
X607170Y159848D02*
X652670D01*
Y138348D02*
Y159848D01*
X607170Y138348D02*
Y159848D01*
Y160954D02*
X652670D01*
X607170Y182454D02*
X652670D01*
Y160954D02*
Y182454D01*
X607170Y160954D02*
Y182454D01*
Y183560D02*
X652670D01*
X607170Y205060D02*
X652670D01*
Y183560D02*
Y205060D01*
X607170Y183560D02*
Y205060D01*
Y206166D02*
X652670D01*
X607170Y227666D02*
X652670D01*
Y206166D02*
Y227666D01*
X607170Y206166D02*
Y227666D01*
Y228772D02*
X652670D01*
X607170Y250272D02*
X652670D01*
Y228772D02*
Y250272D01*
X607170Y228772D02*
Y250272D01*
Y251378D02*
X652670D01*
X607170Y272878D02*
X652670D01*
Y251378D02*
Y272878D01*
X607170Y251378D02*
Y272878D01*
Y273984D02*
X652670D01*
X607170Y295484D02*
X652670D01*
Y273984D02*
Y295484D01*
X607170Y273984D02*
Y295484D01*
X614154Y315322D02*
Y328822D01*
X643654Y315322D02*
Y328822D01*
X614154D02*
X643654D01*
X614154Y315322D02*
X643654D01*
X60706Y334578D02*
Y342078D01*
X56956Y338328D02*
X64456D01*
X55626Y132140D02*
Y139640D01*
X51876Y135890D02*
X59376D01*
X629412Y301558D02*
Y309058D01*
X625662Y305308D02*
X633162D01*
X385680Y176258D02*
X399180D01*
X385680Y205758D02*
X399180D01*
X385680Y176258D02*
Y205758D01*
X399180Y176258D02*
Y205758D01*
X87751Y228531D02*
Y251531D01*
X134751Y228531D02*
Y251531D01*
X87751D02*
X134751D01*
X87751Y228531D02*
X134751D01*
Y252151D02*
Y275151D01*
X87751Y252151D02*
Y275151D01*
Y252151D02*
X134751D01*
X87751Y275151D02*
X134751D01*
X192663Y205045D02*
Y228045D01*
X145663Y205045D02*
Y228045D01*
Y205045D02*
X192663D01*
X145663Y228045D02*
X192663D01*
Y181031D02*
Y204031D01*
X145663Y181031D02*
Y204031D01*
Y181031D02*
X192663D01*
X145663Y204031D02*
X192663D01*
X562296Y128378D02*
Y141878D01*
X532796Y128378D02*
Y141878D01*
Y128378D02*
X562296D01*
X532796Y141878D02*
X562296D01*
X600079Y190430D02*
Y213430D01*
X553079Y190430D02*
Y213430D01*
Y190430D02*
X600079D01*
X553079Y213430D02*
X600079D01*
X553079Y166491D02*
Y189491D01*
X600079Y166491D02*
Y189491D01*
X553079D02*
X600079D01*
X553079Y166491D02*
X600079D01*
X502027Y217355D02*
Y240355D01*
X549027Y217355D02*
Y240355D01*
X502027D02*
X549027D01*
X502027Y217355D02*
X549027D01*
X502027Y239961D02*
Y262961D01*
X549027Y239961D02*
Y262961D01*
X502027D02*
X549027D01*
X502027Y239961D02*
X549027D01*
X502726Y82804D02*
X510226D01*
X506476Y79054D02*
Y86554D01*
X562466Y58338D02*
X607966D01*
X562466Y79838D02*
X607966D01*
Y58338D02*
Y79838D01*
X562466Y58338D02*
Y79838D01*
X537114Y97772D02*
Y127272D01*
X550614Y97772D02*
Y127272D01*
X537114Y97772D02*
X550614D01*
X537114Y127272D02*
X550614D01*
X622868Y105664D02*
X630368D01*
X626618Y101914D02*
Y109414D01*
X515730Y58338D02*
Y79838D01*
X561230Y58338D02*
Y79838D01*
X515730D02*
X561230D01*
X515730Y58338D02*
X561230D01*
X192481Y203247D02*
Y226247D01*
X145481Y203247D02*
Y226247D01*
X192481D01*
X145481Y203247D02*
X192481D01*
Y227007D02*
Y250007D01*
X145481Y227007D02*
Y250007D01*
X192481D01*
X145481Y227007D02*
X192481D01*
X140970Y346008D02*
Y353508D01*
X137220Y349758D02*
X144720D01*
X401249Y211459D02*
X424249D01*
X401249Y164459D02*
X424249D01*
X401249D02*
Y211459D01*
X424249Y164459D02*
Y211459D01*
X611378Y86420D02*
Y93920D01*
X607628Y90170D02*
X615128D01*
X491472Y282810D02*
Y296310D01*
X520972Y282810D02*
Y296310D01*
X491472Y282810D02*
X520972D01*
X491472Y296310D02*
X520972D01*
X515134Y281538D02*
X549634D01*
X515134Y263038D02*
X549634D01*
Y281538D01*
X515134Y263038D02*
Y281538D01*
X479070Y281534D02*
X514070D01*
X479070Y262534D02*
X514070D01*
Y281534D01*
X479070Y262534D02*
Y281534D01*
X502472Y250444D02*
X509972D01*
X506222Y246694D02*
Y254194D01*
X558148Y296590D02*
X603648D01*
X558148Y318090D02*
X603648D01*
X558148Y296590D02*
Y318090D01*
X603648Y296590D02*
Y318090D01*
X555357Y264058D02*
X590357D01*
X555357Y283058D02*
X590357D01*
X555357Y264058D02*
Y283058D01*
X590357Y264058D02*
Y283058D01*
X546608Y83880D02*
Y91380D01*
X542858Y87630D02*
X550358D01*
X501265Y191955D02*
Y214955D01*
X548265Y191955D02*
Y214955D01*
X501265Y191955D02*
X548265D01*
X501265Y214955D02*
X548265D01*
X501265Y215831D02*
Y238831D01*
X548265Y215831D02*
Y238831D01*
X501265Y215831D02*
X548265D01*
X501265Y238831D02*
X548265D01*
X627511Y202623D02*
Y225623D01*
X580511Y202623D02*
Y225623D01*
X627511D01*
X580511Y202623D02*
X627511D01*
X394316Y133876D02*
X407816D01*
X394316Y104376D02*
X407816D01*
X394316D02*
Y133876D01*
X407816Y104376D02*
Y133876D01*
X414292Y89262D02*
Y102762D01*
X384792Y89262D02*
Y102762D01*
X414292D01*
X384792Y89262D02*
X414292D01*
X525508Y296310D02*
X555008D01*
X525508Y282810D02*
X555008D01*
Y296310D01*
X525508Y282810D02*
Y296310D01*
X448582Y282556D02*
Y296056D01*
X419082Y282556D02*
Y296056D01*
X448582D01*
X419082Y282556D02*
X448582D01*
X416840Y318922D02*
X451840D01*
X416840Y337922D02*
X451840D01*
X416840Y318922D02*
Y337922D01*
X451840Y318922D02*
Y337922D01*
X393084Y104376D02*
Y133876D01*
X379584Y104376D02*
Y133876D01*
Y104376D02*
X393084D01*
X379584Y133876D02*
X393084D01*
X385398Y151384D02*
X395398D01*
X390398Y146384D02*
Y156384D01*
X523240Y321624D02*
Y329124D01*
X519490Y325374D02*
X526990D01*
X347200Y128378D02*
X376700D01*
X347200Y141878D02*
X376700D01*
Y128378D02*
Y141878D01*
X347200Y128378D02*
Y141878D01*
X322054Y115462D02*
X351554D01*
X322054Y101962D02*
X351554D01*
Y115462D01*
X322054Y101962D02*
Y115462D01*
X365106Y98280D02*
Y127780D01*
X378606Y98280D02*
Y127780D01*
X365106D02*
X378606D01*
X365106Y98280D02*
X378606D01*
X181610Y354390D02*
Y361890D01*
X177860Y358140D02*
X185360D01*
X609202Y58338D02*
X654702D01*
X609202Y79838D02*
X654702D01*
Y58338D02*
Y79838D01*
X609202Y58338D02*
Y79838D01*
X551049Y226497D02*
Y249497D01*
X598049Y226497D02*
Y249497D01*
X551049Y226497D02*
X598049D01*
X551049Y249497D02*
X598049D01*
X68195Y215575D02*
Y238575D01*
X115195Y215575D02*
Y238575D01*
X68195Y215575D02*
X115195D01*
X68195Y238575D02*
X115195D01*
X185674Y188020D02*
Y195520D01*
X181924Y191770D02*
X189424D01*
D70*
X143394Y107884D02*
G03*
X143338Y107590I-790J0D01*
G01*
X527165Y259400D02*
G03*
X527222Y259694I790J0D01*
G01*
X544184Y334330D02*
G03*
X544240Y334624I790J0D01*
G01*
X164730Y182814D02*
G03*
X164674Y182520I-790J0D01*
G01*
M02*
