G04*
G04 #@! TF.GenerationSoftware,Altium Limited,Altium Designer,19.1.7 (138)*
G04*
G04 Layer_Color=32768*
%FSLAX44Y44*%
%MOMM*%
G71*
G01*
G75*
%ADD66C,0.0254*%
D66*
X264516Y213106D02*
Y286766D01*
X175616Y213106D02*
Y286766D01*
Y216916D02*
X264516D01*
X261976Y215646D02*
X264516Y216916D01*
X261976Y218186D02*
X264516Y216916D01*
X261976Y215646D02*
Y218186D01*
X175616Y216916D02*
X178156Y215646D01*
X175616Y216916D02*
X178156Y218186D01*
Y215646D02*
Y218186D01*
X278994Y194056D02*
Y286766D01*
X161138Y194056D02*
Y286766D01*
Y197866D02*
X278994D01*
X276454Y196596D02*
X278994Y197866D01*
X276454Y199136D02*
X278994Y197866D01*
X276454Y196596D02*
Y199136D01*
X161138Y197866D02*
X163678Y196596D01*
X161138Y197866D02*
X163678Y199136D01*
Y196596D02*
Y199136D01*
X146406Y235966D02*
X220066D01*
X146406Y337566D02*
X220066D01*
X150216Y235966D02*
Y337566D01*
Y235966D02*
X151486Y238506D01*
X148946D02*
X150216Y235966D01*
X148946Y238506D02*
X151486D01*
X150216Y337566D02*
X151486Y335026D01*
X148946D02*
X150216Y337566D01*
X148946Y335026D02*
X151486D01*
X273914Y242316D02*
X303124D01*
X273914Y255016D02*
X303124D01*
X299314Y229616D02*
Y242316D01*
Y255016D02*
Y267716D01*
Y242316D02*
X300584Y239776D01*
X298044D02*
X299314Y242316D01*
X298044Y239776D02*
X300584D01*
X299314Y255016D02*
X300584Y257556D01*
X298044D02*
X299314Y255016D01*
X298044Y257556D02*
X300584D01*
X278994Y286766D02*
Y360426D01*
X268834Y286766D02*
Y360426D01*
X278994Y356616D02*
X291694D01*
X256134D02*
X268834D01*
X278994D02*
X281534Y355346D01*
X278994Y356616D02*
X281534Y357886D01*
Y355346D02*
Y357886D01*
X266294Y355346D02*
X268834Y356616D01*
X266294Y357886D02*
X268834Y356616D01*
X266294Y355346D02*
Y357886D01*
X422565Y155194D02*
Y228854D01*
X511465Y155194D02*
Y228854D01*
X422565Y225044D02*
X511465D01*
X422565D02*
X425105Y226314D01*
X422565Y225044D02*
X425105Y223774D01*
Y226314D01*
X508925D02*
X511465Y225044D01*
X508925Y223774D02*
X511465Y225044D01*
X508925Y223774D02*
Y226314D01*
X408087Y155194D02*
Y247904D01*
X525943Y155194D02*
Y247904D01*
X408087Y244094D02*
X525943D01*
X408087D02*
X410627Y245364D01*
X408087Y244094D02*
X410627Y242824D01*
Y245364D01*
X523403D02*
X525943Y244094D01*
X523403Y242824D02*
X525943Y244094D01*
X523403Y242824D02*
Y245364D01*
X467015Y205994D02*
X540675D01*
X467015Y104394D02*
X540675D01*
X536865D02*
Y205994D01*
X535595Y203454D02*
X536865Y205994D01*
X538135Y203454D01*
X535595D02*
X538135D01*
X535595Y106934D02*
X536865Y104394D01*
X538135Y106934D01*
X535595D02*
X538135D01*
X383957Y199644D02*
X413167D01*
X383957Y186944D02*
X413167D01*
X387767Y199644D02*
Y212344D01*
Y174244D02*
Y186944D01*
X386497Y202184D02*
X387767Y199644D01*
X389037Y202184D01*
X386497D02*
X389037D01*
X386497Y184404D02*
X387767Y186944D01*
X389037Y184404D01*
X386497D02*
X389037D01*
X408087Y81534D02*
Y155194D01*
X418247Y81534D02*
Y155194D01*
X395387Y85344D02*
X408087D01*
X418247D02*
X430947D01*
X405547Y86614D02*
X408087Y85344D01*
X405547Y84074D02*
X408087Y85344D01*
X405547Y84074D02*
Y86614D01*
X418247Y85344D02*
X420787Y86614D01*
X418247Y85344D02*
X420787Y84074D01*
Y86614D01*
M02*
