M48
;Layer_Color=9474304
;FILE_FORMAT=2:5
INCH,LZ
;TYPE=PLATED
T1F00S00C0.01575
T2F00S00C0.04173
T3F00S00C0.04331
T4F00S00C0.05118
;TYPE=NON_PLATED
%
T01
X011811Y0393701
X015748
X019685
X0236221
X0275591
X0216535Y0433071
X0334646
X0314961Y0393701
Y0472441
X0275591
X0236221
X015748
T02
X0121844Y0476394
X0131844Y0476
X0141844
X0151845
T03
X01205Y0421815
X0140185
Y04415
X01205
X0177157Y0440343
X0196843
Y0420657
X0177157
X0236658Y0420157
X0256343
Y0439843
X0236658
X0297158
Y0420157
X0316843
Y0439843
T04
X0185658Y04785
X0205343
M30
