G04*
G04 #@! TF.GenerationSoftware,Altium Limited,Altium Designer,21.7.2 (23)*
G04*
G04 Layer_Physical_Order=1*
G04 Layer_Color=255*
%FSLAX25Y25*%
%MOIN*%
G70*
G04*
G04 #@! TF.SameCoordinates,8D50E169-6EBF-4F53-8ABA-2A95F56EF69C*
G04*
G04*
G04 #@! TF.FilePolarity,Positive*
G04*
G01*
G75*
%ADD18C,0.03150*%
%ADD19C,0.12598*%
%ADD20R,0.07677X0.07677*%
%ADD21C,0.07677*%
%ADD22R,0.06260X0.06260*%
%ADD23C,0.06260*%
%ADD24C,0.08661*%
%ADD25C,0.02756*%
G36*
X339500Y497500D02*
Y385000D01*
X101500D01*
Y498146D01*
X101854Y498498D01*
X339500Y497500D01*
D02*
G37*
%LPC*%
G36*
X120500Y443909D02*
X119578Y443725D01*
X118797Y443203D01*
X118275Y442422D01*
X118091Y441500D01*
Y421815D01*
X118275Y420893D01*
X118797Y420112D01*
X119578Y419590D01*
X120500Y419407D01*
X121422Y419590D01*
X122203Y420112D01*
X122725Y420893D01*
X122908Y421815D01*
Y441500D01*
X122725Y442422D01*
X122203Y443203D01*
X121422Y443725D01*
X120500Y443909D01*
D02*
G37*
G36*
X177157Y442751D02*
X176236Y442568D01*
X175454Y442046D01*
X174932Y441264D01*
X174749Y440343D01*
Y420657D01*
X174932Y419736D01*
X175454Y418954D01*
X176236Y418432D01*
X177157Y418249D01*
X178079Y418432D01*
X178860Y418954D01*
X179383Y419736D01*
X179566Y420657D01*
Y440343D01*
X179383Y441264D01*
X178860Y442046D01*
X178079Y442568D01*
X177157Y442751D01*
D02*
G37*
G36*
X297158Y442251D02*
X296236Y442068D01*
X295454Y441546D01*
X294932Y440764D01*
X294749Y439843D01*
Y420157D01*
X294932Y419236D01*
X295454Y418454D01*
X296236Y417932D01*
X297158Y417749D01*
X298079Y417932D01*
X298861Y418454D01*
X299383Y419236D01*
X299566Y420157D01*
Y439843D01*
X299383Y440764D01*
X298861Y441546D01*
X298079Y442068D01*
X297158Y442251D01*
D02*
G37*
G36*
X236658D02*
X235736Y442068D01*
X234954Y441546D01*
X234432Y440764D01*
X234249Y439843D01*
Y420157D01*
X234432Y419236D01*
X234954Y418454D01*
X235736Y417932D01*
X236658Y417749D01*
X237579Y417932D01*
X238361Y418454D01*
X238883Y419236D01*
X239066Y420157D01*
Y439843D01*
X238883Y440764D01*
X238361Y441546D01*
X237579Y442068D01*
X236658Y442251D01*
D02*
G37*
G36*
X122360Y480311D02*
X121329D01*
X120332Y480044D01*
X119439Y479528D01*
X118710Y478799D01*
X118194Y477906D01*
X117927Y476909D01*
Y475878D01*
X118194Y474882D01*
X118710Y473988D01*
X119436Y473262D01*
Y459841D01*
X119619Y458919D01*
X120141Y458138D01*
X135286Y442993D01*
X135067Y442174D01*
Y440826D01*
X135416Y439525D01*
X136090Y438357D01*
X137042Y437404D01*
X137777Y436981D01*
Y426334D01*
X137042Y425911D01*
X136090Y424958D01*
X135416Y423791D01*
X135067Y422489D01*
Y421141D01*
X135416Y419839D01*
X136090Y418672D01*
X137042Y417720D01*
X138209Y417046D01*
X139511Y416697D01*
X140859D01*
X142161Y417046D01*
X143328Y417720D01*
X144281Y418672D01*
X144954Y419839D01*
X145303Y421141D01*
Y422489D01*
X144954Y423791D01*
X144281Y424958D01*
X143328Y425911D01*
X142594Y426334D01*
Y436981D01*
X143328Y437404D01*
X144281Y438357D01*
X144954Y439525D01*
X145303Y440826D01*
Y442174D01*
X144954Y443475D01*
X144281Y444643D01*
X143328Y445596D01*
X142161Y446269D01*
X140859Y446618D01*
X139511D01*
X138692Y446399D01*
X124253Y460838D01*
Y473262D01*
X124979Y473988D01*
X125495Y474882D01*
X125762Y475878D01*
Y476909D01*
X125495Y477906D01*
X124979Y478799D01*
X124250Y479528D01*
X123356Y480044D01*
X122360Y480311D01*
D02*
G37*
G36*
X132360Y479917D02*
X131329D01*
X130332Y479650D01*
X129439Y479135D01*
X128710Y478405D01*
X128194Y477512D01*
X127927Y476516D01*
Y475484D01*
X128194Y474488D01*
X128710Y473595D01*
X129436Y472869D01*
Y463156D01*
X129619Y462234D01*
X130141Y461452D01*
X141797Y449797D01*
X142578Y449275D01*
X143500Y449091D01*
X184687D01*
X191944Y441835D01*
X191724Y441016D01*
Y439669D01*
X192073Y438367D01*
X192747Y437200D01*
X193700Y436247D01*
X194434Y435823D01*
Y425177D01*
X193700Y424753D01*
X192747Y423800D01*
X192073Y422633D01*
X191724Y421331D01*
Y419984D01*
X192073Y418682D01*
X192747Y417515D01*
X193700Y416562D01*
X194867Y415888D01*
X196169Y415539D01*
X197516D01*
X198818Y415888D01*
X199985Y416562D01*
X200938Y417515D01*
X201612Y418682D01*
X201961Y419984D01*
Y421331D01*
X201612Y422633D01*
X200938Y423800D01*
X199985Y424753D01*
X199251Y425177D01*
Y435823D01*
X199985Y436247D01*
X200938Y437200D01*
X201612Y438367D01*
X201961Y439669D01*
Y441016D01*
X201612Y442318D01*
X200938Y443485D01*
X199985Y444438D01*
X198818Y445112D01*
X197516Y445461D01*
X196169D01*
X195350Y445241D01*
X187388Y453203D01*
X186607Y453725D01*
X185685Y453908D01*
X144498D01*
X134253Y464153D01*
Y472869D01*
X134979Y473595D01*
X135495Y474488D01*
X135762Y475484D01*
Y476516D01*
X135495Y477512D01*
X134979Y478405D01*
X134250Y479135D01*
X133356Y479650D01*
X132360Y479917D01*
D02*
G37*
G36*
X190284Y483126D02*
X181032D01*
Y473874D01*
X186877D01*
X194454Y466297D01*
X195236Y465775D01*
X196158Y465591D01*
X287687D01*
X311944Y441335D01*
X311724Y440516D01*
Y439169D01*
X312073Y437867D01*
X312747Y436700D01*
X313700Y435747D01*
X314434Y435323D01*
Y424677D01*
X313700Y424253D01*
X312747Y423300D01*
X312073Y422133D01*
X311724Y420831D01*
Y419484D01*
X312073Y418182D01*
X312747Y417015D01*
X313700Y416062D01*
X314867Y415388D01*
X316169Y415039D01*
X317516D01*
X318818Y415388D01*
X319985Y416062D01*
X320938Y417015D01*
X321612Y418182D01*
X321961Y419484D01*
Y420831D01*
X321612Y422133D01*
X320938Y423300D01*
X319985Y424253D01*
X319251Y424677D01*
Y435323D01*
X319985Y435747D01*
X320938Y436700D01*
X321612Y437867D01*
X321961Y439169D01*
Y440516D01*
X321612Y441818D01*
X320938Y442985D01*
X319985Y443938D01*
X318818Y444612D01*
X317516Y444961D01*
X316169D01*
X315350Y444741D01*
X290388Y469703D01*
X289607Y470225D01*
X288685Y470408D01*
X197155D01*
X190284Y477280D01*
Y483126D01*
D02*
G37*
G36*
X142360Y479917D02*
X141329D01*
X140332Y479650D01*
X139439Y479135D01*
X138710Y478405D01*
X138194Y477512D01*
X137927Y476516D01*
Y475484D01*
X138194Y474488D01*
X138710Y473595D01*
X139436Y472869D01*
Y465656D01*
X139619Y464734D01*
X140141Y463952D01*
X147297Y456797D01*
X148078Y456275D01*
X149000Y456091D01*
X236687D01*
X251444Y441335D01*
X251224Y440516D01*
Y439169D01*
X251573Y437867D01*
X252247Y436700D01*
X253200Y435747D01*
X253934Y435323D01*
Y424677D01*
X253200Y424253D01*
X252247Y423300D01*
X251573Y422133D01*
X251224Y420831D01*
Y419484D01*
X251573Y418182D01*
X252247Y417015D01*
X253200Y416062D01*
X254367Y415388D01*
X255669Y415039D01*
X257016D01*
X258318Y415388D01*
X259485Y416062D01*
X260438Y417015D01*
X261112Y418182D01*
X261461Y419484D01*
Y420831D01*
X261112Y422133D01*
X260438Y423300D01*
X259485Y424253D01*
X258751Y424677D01*
Y435323D01*
X259485Y435747D01*
X260438Y436700D01*
X261112Y437867D01*
X261461Y439169D01*
Y440516D01*
X261112Y441818D01*
X260438Y442985D01*
X259485Y443938D01*
X258318Y444612D01*
X257016Y444961D01*
X255669D01*
X254850Y444741D01*
X239388Y460203D01*
X238607Y460725D01*
X237685Y460909D01*
X149998D01*
X144253Y466653D01*
Y472869D01*
X144979Y473595D01*
X145495Y474488D01*
X145762Y475484D01*
Y476516D01*
X145495Y477512D01*
X144979Y478405D01*
X144250Y479135D01*
X143357Y479650D01*
X142360Y479917D01*
D02*
G37*
%LPD*%
D18*
X297158Y420157D02*
Y439843D01*
X185658Y478500D02*
X196158Y468000D01*
X288685D01*
X316843Y439843D01*
Y420157D02*
Y439843D01*
X237685Y458500D02*
X256343Y439843D01*
X149000Y458500D02*
X237685D01*
X236658Y420157D02*
Y439843D01*
X256343Y420157D02*
Y439843D01*
X120500Y421815D02*
Y441500D01*
X177157Y420657D02*
Y440343D01*
X196843Y420657D02*
Y440343D01*
X140185Y421815D02*
Y441500D01*
X141844Y465656D02*
Y476000D01*
Y465656D02*
X149000Y458500D01*
X131844Y463156D02*
X143500Y451500D01*
X131844Y463156D02*
Y476000D01*
X185685Y451500D02*
X196843Y440343D01*
X143500Y451500D02*
X185685D01*
X121844Y459841D02*
Y476394D01*
Y459841D02*
X140185Y441500D01*
D19*
X331500Y490500D02*
D03*
X331000Y393000D02*
D03*
X110000Y491500D02*
D03*
D20*
X185658Y478500D02*
D03*
D21*
X205343D02*
D03*
D22*
X151845Y476000D02*
D03*
D23*
X141844D02*
D03*
X131844D02*
D03*
X121844Y476394D02*
D03*
D24*
X316843Y439843D02*
D03*
Y420157D02*
D03*
X297158D02*
D03*
Y439843D02*
D03*
X140185Y441500D02*
D03*
Y421815D02*
D03*
X120500D02*
D03*
Y441500D02*
D03*
X196843Y440343D02*
D03*
Y420657D02*
D03*
X177157D02*
D03*
Y440343D02*
D03*
X256343Y439843D02*
D03*
Y420157D02*
D03*
X236658D02*
D03*
Y439843D02*
D03*
D25*
X314961Y472441D02*
D03*
X334646Y433071D02*
D03*
X314961Y393701D02*
D03*
X275591Y472441D02*
D03*
Y393701D02*
D03*
X236221Y472441D02*
D03*
Y393701D02*
D03*
X216535Y433071D02*
D03*
X196850Y393701D02*
D03*
X157480Y472441D02*
D03*
Y393701D02*
D03*
X118110D02*
D03*
M02*
