G04*
G04 #@! TF.GenerationSoftware,Altium Limited,Altium Designer,21.7.2 (23)*
G04*
G04 Layer_Color=32896*
%FSLAX25Y25*%
%MOIN*%
G70*
G04*
G04 #@! TF.SameCoordinates,8D50E169-6EBF-4F53-8ABA-2A95F56EF69C*
G04*
G04*
G04 #@! TF.FilePolarity,Positive*
G04*
G01*
G75*
%ADD10C,0.00500*%
%ADD11C,0.01000*%
%ADD26C,0.01102*%
D10*
X159738Y476000D02*
G03*
X159738Y476000I-394J0D01*
G01*
X175815Y462752D02*
X215185D01*
Y495429D01*
X175815D02*
X215185D01*
X175815Y462752D02*
Y495429D01*
X157750Y463205D02*
Y488795D01*
X115939Y463205D02*
X157750D01*
X115939D02*
Y488795D01*
X157750D01*
D11*
X225500Y482499D02*
X227499D01*
X226499D01*
Y477501D01*
X227499Y476501D01*
X228499D01*
X229498Y477501D01*
X223500D02*
X222501Y476501D01*
X220501D01*
X219502Y477501D01*
Y481499D01*
X220501Y482499D01*
X222501D01*
X223500Y481499D01*
Y480500D01*
X222501Y479500D01*
X219502D01*
X108500Y481999D02*
X110499D01*
X109499D01*
Y477001D01*
X110499Y476001D01*
X111499D01*
X112498Y477001D01*
X106500Y480999D02*
X105501Y481999D01*
X103501D01*
X102502Y480999D01*
Y480000D01*
X103501Y479000D01*
X104501D01*
X103501D01*
X102502Y478000D01*
Y477001D01*
X103501Y476001D01*
X105501D01*
X106500Y477001D01*
D26*
X181091Y472594D02*
G03*
X181091Y472594I-551J0D01*
G01*
M02*
