G04*
G04 #@! TF.GenerationSoftware,Altium Limited,Altium Designer,21.7.2 (23)*
G04*
G04 Layer_Physical_Order=2*
G04 Layer_Color=16711680*
%FSLAX25Y25*%
%MOIN*%
G70*
G04*
G04 #@! TF.SameCoordinates,8D50E169-6EBF-4F53-8ABA-2A95F56EF69C*
G04*
G04*
G04 #@! TF.FilePolarity,Positive*
G04*
G01*
G75*
%ADD19C,0.12598*%
%ADD20R,0.07677X0.07677*%
%ADD21C,0.07677*%
%ADD22R,0.06260X0.06260*%
%ADD23C,0.06260*%
%ADD24C,0.08661*%
%ADD25C,0.02756*%
G36*
X340000Y498500D02*
Y386000D01*
X102000D01*
Y499197D01*
X174062D01*
X340000Y498500D01*
D02*
G37*
%LPC*%
G36*
X190284Y483126D02*
X181032D01*
Y473874D01*
X190284D01*
Y483126D01*
D02*
G37*
G36*
X122360Y480311D02*
X121329D01*
X120332Y480044D01*
X119439Y479528D01*
X118710Y478799D01*
X118194Y477906D01*
X117927Y476909D01*
Y475878D01*
X118194Y474882D01*
X118710Y473988D01*
X119439Y473259D01*
X120332Y472743D01*
X121329Y472476D01*
X122360D01*
X123356Y472743D01*
X124250Y473259D01*
X124979Y473988D01*
X125495Y474882D01*
X125762Y475878D01*
Y476909D01*
X125495Y477906D01*
X124979Y478799D01*
X124250Y479528D01*
X123356Y480044D01*
X122360Y480311D01*
D02*
G37*
G36*
X142360Y479917D02*
X141329D01*
X140332Y479650D01*
X139439Y479135D01*
X138710Y478405D01*
X138194Y477512D01*
X137927Y476516D01*
Y475484D01*
X138194Y474488D01*
X138710Y473595D01*
X139439Y472865D01*
X140332Y472350D01*
X141329Y472083D01*
X142360D01*
X143357Y472350D01*
X144250Y472865D01*
X144979Y473595D01*
X145495Y474488D01*
X145762Y475484D01*
Y476516D01*
X145495Y477512D01*
X144979Y478405D01*
X144250Y479135D01*
X143357Y479650D01*
X142360Y479917D01*
D02*
G37*
G36*
X132360D02*
X131329D01*
X130332Y479650D01*
X129439Y479135D01*
X128710Y478405D01*
X128194Y477512D01*
X127927Y476516D01*
Y475484D01*
X128194Y474488D01*
X128710Y473595D01*
X129439Y472865D01*
X130332Y472350D01*
X131329Y472083D01*
X132360D01*
X133356Y472350D01*
X134250Y472865D01*
X134979Y473595D01*
X135495Y474488D01*
X135762Y475484D01*
Y476516D01*
X135495Y477512D01*
X134979Y478405D01*
X134250Y479135D01*
X133356Y479650D01*
X132360Y479917D01*
D02*
G37*
G36*
X140859Y446618D02*
X139511D01*
X138209Y446269D01*
X137042Y445596D01*
X136090Y444643D01*
X135416Y443475D01*
X135067Y442174D01*
Y440826D01*
X135416Y439525D01*
X136090Y438357D01*
X137042Y437404D01*
X138209Y436731D01*
X139511Y436382D01*
X140859D01*
X142161Y436731D01*
X143328Y437404D01*
X144281Y438357D01*
X144954Y439525D01*
X145303Y440826D01*
Y442174D01*
X144954Y443475D01*
X144281Y444643D01*
X143328Y445596D01*
X142161Y446269D01*
X140859Y446618D01*
D02*
G37*
G36*
X197516Y445461D02*
X196169D01*
X194867Y445112D01*
X193700Y444438D01*
X192747Y443485D01*
X192073Y442318D01*
X191724Y441016D01*
Y439669D01*
X192073Y438367D01*
X192747Y437200D01*
X193700Y436247D01*
X194867Y435573D01*
X196169Y435224D01*
X197516D01*
X198818Y435573D01*
X199985Y436247D01*
X200938Y437200D01*
X201612Y438367D01*
X201961Y439669D01*
Y441016D01*
X201612Y442318D01*
X200938Y443485D01*
X199985Y444438D01*
X198818Y445112D01*
X197516Y445461D01*
D02*
G37*
G36*
X317516Y444961D02*
X316169D01*
X314867Y444612D01*
X313700Y443938D01*
X312747Y442985D01*
X312073Y441818D01*
X311724Y440516D01*
Y439169D01*
X312073Y437867D01*
X312747Y436700D01*
X313700Y435747D01*
X314867Y435073D01*
X316169Y434724D01*
X317516D01*
X318818Y435073D01*
X319985Y435747D01*
X320938Y436700D01*
X321612Y437867D01*
X321961Y439169D01*
Y440516D01*
X321612Y441818D01*
X320938Y442985D01*
X319985Y443938D01*
X318818Y444612D01*
X317516Y444961D01*
D02*
G37*
G36*
X257016D02*
X255669D01*
X254367Y444612D01*
X253200Y443938D01*
X252247Y442985D01*
X251573Y441818D01*
X251224Y440516D01*
Y439169D01*
X251573Y437867D01*
X252247Y436700D01*
X253200Y435747D01*
X254367Y435073D01*
X255669Y434724D01*
X257016D01*
X258318Y435073D01*
X259485Y435747D01*
X260438Y436700D01*
X261112Y437867D01*
X261461Y439169D01*
Y440516D01*
X261112Y441818D01*
X260438Y442985D01*
X259485Y443938D01*
X258318Y444612D01*
X257016Y444961D01*
D02*
G37*
G36*
X140859Y426933D02*
X139511D01*
X138209Y426584D01*
X137042Y425911D01*
X136090Y424958D01*
X135416Y423791D01*
X135067Y422489D01*
Y421141D01*
X135416Y419839D01*
X136090Y418672D01*
X137042Y417720D01*
X138209Y417046D01*
X139511Y416697D01*
X140859D01*
X142161Y417046D01*
X143328Y417720D01*
X144281Y418672D01*
X144954Y419839D01*
X145303Y421141D01*
Y422489D01*
X144954Y423791D01*
X144281Y424958D01*
X143328Y425911D01*
X142161Y426584D01*
X140859Y426933D01*
D02*
G37*
G36*
X197516Y425776D02*
X196169D01*
X194867Y425427D01*
X193700Y424753D01*
X192747Y423800D01*
X192073Y422633D01*
X191724Y421331D01*
Y419984D01*
X192073Y418682D01*
X192747Y417515D01*
X193700Y416562D01*
X194867Y415888D01*
X196169Y415539D01*
X197516D01*
X198818Y415888D01*
X199985Y416562D01*
X200938Y417515D01*
X201612Y418682D01*
X201961Y419984D01*
Y421331D01*
X201612Y422633D01*
X200938Y423800D01*
X199985Y424753D01*
X198818Y425427D01*
X197516Y425776D01*
D02*
G37*
G36*
X317516Y425276D02*
X316169D01*
X314867Y424927D01*
X313700Y424253D01*
X312747Y423300D01*
X312073Y422133D01*
X311724Y420831D01*
Y419484D01*
X312073Y418182D01*
X312747Y417015D01*
X313700Y416062D01*
X314867Y415388D01*
X316169Y415039D01*
X317516D01*
X318818Y415388D01*
X319985Y416062D01*
X320938Y417015D01*
X321612Y418182D01*
X321961Y419484D01*
Y420831D01*
X321612Y422133D01*
X320938Y423300D01*
X319985Y424253D01*
X318818Y424927D01*
X317516Y425276D01*
D02*
G37*
G36*
X257016D02*
X255669D01*
X254367Y424927D01*
X253200Y424253D01*
X252247Y423300D01*
X251573Y422133D01*
X251224Y420831D01*
Y419484D01*
X251573Y418182D01*
X252247Y417015D01*
X253200Y416062D01*
X254367Y415388D01*
X255669Y415039D01*
X257016D01*
X258318Y415388D01*
X259485Y416062D01*
X260438Y417015D01*
X261112Y418182D01*
X261461Y419484D01*
Y420831D01*
X261112Y422133D01*
X260438Y423300D01*
X259485Y424253D01*
X258318Y424927D01*
X257016Y425276D01*
D02*
G37*
%LPD*%
D19*
X331500Y490500D02*
D03*
X331000Y393000D02*
D03*
X110000Y491500D02*
D03*
D20*
X185658Y478500D02*
D03*
D21*
X205343D02*
D03*
D22*
X151845Y476000D02*
D03*
D23*
X141844D02*
D03*
X131844D02*
D03*
X121844Y476394D02*
D03*
D24*
X316843Y439843D02*
D03*
Y420157D02*
D03*
X297158D02*
D03*
Y439843D02*
D03*
X140185Y441500D02*
D03*
Y421815D02*
D03*
X120500D02*
D03*
Y441500D02*
D03*
X196843Y440343D02*
D03*
Y420657D02*
D03*
X177157D02*
D03*
Y440343D02*
D03*
X256343Y439843D02*
D03*
Y420157D02*
D03*
X236658D02*
D03*
Y439843D02*
D03*
D25*
X314961Y472441D02*
D03*
X334646Y433071D02*
D03*
X314961Y393701D02*
D03*
X275591Y472441D02*
D03*
Y393701D02*
D03*
X236221Y472441D02*
D03*
Y393701D02*
D03*
X216535Y433071D02*
D03*
X196850Y393701D02*
D03*
X157480Y472441D02*
D03*
Y393701D02*
D03*
X118110D02*
D03*
M02*
