M48
;Layer_Color=9474304
;FILE_FORMAT=2:5
INCH,LZ
;TYPE=PLATED
T4F00S00C0.03858
;TYPE=NON_PLATED
T8F00S00C0.12598
%
G90
G05
T04
G00X0090441Y0307551
M15
G01Y0326449
M16
G00X0118Y0307551
M15
G01Y0326449
M16
G00X02365Y0438449
M15
G01Y0419551
M16
G00X0264059Y0438449
M15
G01Y0419551
M16
G00X03405Y0435949
M15
G01Y0417051
M16
G00X0368059Y0435949
M15
G01Y0417051
M16
G00X04465Y0434449
M15
G01Y0415551
M16
G00X0474059Y0434449
M15
G01Y0415551
M16
T08
G00X0074Y00185
M15
G01Y00185
M16
G00X05685Y00185
M15
G01Y00185
M16
G00X05695Y05305
M15
G01Y05305
M16
G00X0071Y0532
M15
G01Y0532
M16
M17
M30
