M48
;Layer_Color=9474304
;FILE_FORMAT=2:5
INCH,LZ
;TYPE=PLATED
T1F00S00C0.01575
T2F00S00C0.03346
T3F00S00C0.03740
T5F00S00C0.04173
T6F00S00C0.05118
;TYPE=NON_PLATED
T7F00S00C0.12598
%
T01
X007874Y003937
X011811
X0098425Y007874
X011811Y011811
X007874
X015748
X0236221
X0255906Y007874
X0295276
X0275591Y003937
X0236221
X019685
X015748
X0314961
X0354331
X0393701
X0433071
X0413386Y007874
X0374016
X0334646
X0354331Y011811
X0393701
X0433071
X0314961
X0492126Y007874
X0531496
X0570866
X0551181Y011811
Y003937
X0511811
X0472441
X0570866Y015748
X0551181Y0275591
X0511811
X0433071
X0393701
X0354331
X0334646Y0236221
X0354331Y019685
X0393701
X0433071
X0452756Y0236221
X0413386
Y015748
X0452756
X0374016
X0334646
X0314961Y019685
X0275591
X0236221
X0255906Y0236221
X0295276
X0216535
X0177165
X019685Y0275591
X0236221
X015748
Y019685
X011811
X007874
X0098425Y0236221
X0137795
X011811Y0275591
X007874
Y0354331
X011811
X0137795Y0393701
X0098425
X011811Y0433071
X007874
X015748
X019685
X0216535Y0393701
X0255906
X0295276
X0275591Y0433071
X0236221Y0354331
X0216535Y0314961
X0295276
X015748Y0354331
X0177165Y0393701
X0334646
X0374016
X0413386
X0433071Y0433071
X0393701
X0354331
X0314961
Y0354331
X0354331
X0393701
X0433071
X0413386Y0314961
X0334646
X0492126
X0531496
X0570866
X0551181Y0354331
X0511811
X0531496Y0393701
X0570866
X0551181Y0433071
X0511811
X0492126Y0393701
X0531496Y0472441
X0570866
X0551181Y0511811
X0511811
X0472441
X0433071
X0393701
X0354331
X0314961
X0452756Y0472441
X0275591Y0511811
X0236221
X0216535Y0472441
X0177165
X0137795
X0098425
X007874Y0511811
T02
X0216Y0064
X0226
X0236
X0246
X0256
X0266
X0276
X0286
X0306
X0316
X0326
X0336
X0346
X0356
X0366
X0376
X0396
X0406
X0416
X0426
X0436
X0446
X0456
X0466
X0446Y0254
X0436
X0426
X0416
X0406
X0396
X0386
X0376
X0356
X0346
X0336
X0326
X0316
X0306
X0296
X0286
X027
X026
X025
X024
X023
X022
X021
X02
X019
X018
T03
X01982Y0102
Y0112
Y0122
X02082
Y0112
Y0102
X03565Y0154
X03665
X0476
X0486
Y0144
Y0134
Y0124
Y0114
X0476
Y0104
Y0094
Y0084
X0486
Y0094
Y0104
X0476Y0124
Y0134
Y0144
Y0164
X0486
Y0174
Y0184
Y0194
X0476
Y0184
Y0174
Y0204
Y0214
Y0224
Y0234
Y0244
Y0254
X0486
Y0244
Y0234
Y0224
Y0214
Y0204
X03665Y0174
Y0164
X03565
Y0174
T05
X0556394Y0126
X0556Y0136
Y0146
Y0156
X0556394Y01805
X0556Y01905
Y02005
Y02105
X05575Y02325
X0557106Y02425
Y02525
Y02625
X0241Y0516894
X0231Y05165
X0221
X0211
X01905Y0516394
X01805Y0516
X01705
X01605
X0143Y0516394
X0133Y0516
X0123
X0113
T06
X0089Y0076445
Y009613
Y0115815
Y01355
Y0155185
X05515Y0096842
Y0077157
X0089Y017487
Y0194555
Y021424
T07
X0161Y0064
X0366Y0084
X0486Y0064
X0461Y0254
X0366Y0194
X0166Y0254
M30
