G04*
G04 #@! TF.GenerationSoftware,Altium Limited,Altium Designer,21.7.2 (23)*
G04*
G04 Layer_Physical_Order=2*
G04 Layer_Color=16711680*
%FSLAX25Y25*%
%MOIN*%
G70*
G04*
G04 #@! TF.SameCoordinates,C79372BE-A85D-4624-A7F0-99D61F2BA69B*
G04*
G04*
G04 #@! TF.FilePolarity,Positive*
G04*
G01*
G75*
%ADD41C,0.03150*%
%ADD43C,0.12598*%
%ADD44C,0.07677*%
%ADD45R,0.07677X0.07677*%
%ADD46P,0.06061X8X112.5*%
%ADD47C,0.06260*%
%ADD48R,0.06260X0.06260*%
%ADD49O,0.12835X0.25669*%
%ADD50P,0.07144X8X292.5*%
%ADD51R,0.06260X0.06260*%
%ADD52C,0.12598*%
%ADD53P,0.06605X8X112.5*%
%ADD54C,0.02756*%
G36*
X577500Y10500D02*
X577000Y10000D01*
X65000D01*
Y527324D01*
X65481Y527478D01*
X65500Y527478D01*
X65743Y527235D01*
X65965Y526965D01*
X66235Y526743D01*
X66483Y526496D01*
X66773Y526301D01*
X67044Y526079D01*
X67352Y525914D01*
X67643Y525720D01*
X67966Y525586D01*
X68275Y525421D01*
X68610Y525320D01*
X68933Y525186D01*
X69276Y525117D01*
X69611Y525016D01*
X69959Y524982D01*
X70302Y524913D01*
X70652D01*
X71000Y524879D01*
X71348Y524913D01*
X71698D01*
X72041Y524982D01*
X72389Y525016D01*
X72724Y525117D01*
X73067Y525186D01*
X73390Y525320D01*
X73725Y525421D01*
X74034Y525586D01*
X74357Y525720D01*
X74648Y525914D01*
X74956Y526079D01*
X75227Y526301D01*
X75517Y526496D01*
X75765Y526743D01*
X76035Y526965D01*
X76257Y527235D01*
X76504Y527483D01*
X76699Y527773D01*
X76921Y528044D01*
X77086Y528352D01*
X77280Y528643D01*
X77414Y528966D01*
X77579Y529275D01*
X77680Y529610D01*
X77814Y529933D01*
X77882Y530276D01*
X77984Y530611D01*
X78018Y530959D01*
X78087Y531302D01*
Y531652D01*
X78121Y532000D01*
X78087Y532348D01*
Y532698D01*
X78018Y533041D01*
X77984Y533389D01*
X77882Y533724D01*
X77814Y534067D01*
X77680Y534390D01*
X77579Y534725D01*
X77414Y535034D01*
X77280Y535357D01*
X77086Y535648D01*
X76921Y535956D01*
X76699Y536227D01*
X76504Y536517D01*
X76257Y536765D01*
X76064Y537000D01*
X76088Y537146D01*
X76257Y537500D01*
X566502D01*
X566627Y537000D01*
X566466Y536914D01*
X566143Y536780D01*
X565852Y536586D01*
X565544Y536421D01*
X565273Y536199D01*
X564983Y536004D01*
X564735Y535757D01*
X564465Y535535D01*
X564243Y535265D01*
X563996Y535017D01*
X563801Y534727D01*
X563579Y534456D01*
X563414Y534148D01*
X563220Y533857D01*
X563086Y533534D01*
X562921Y533225D01*
X562820Y532890D01*
X562686Y532567D01*
X562617Y532224D01*
X562516Y531889D01*
X562482Y531541D01*
X562413Y531198D01*
Y530848D01*
X562379Y530500D01*
X562413Y530152D01*
Y529802D01*
X562482Y529459D01*
X562516Y529111D01*
X562617Y528776D01*
X562686Y528433D01*
X562820Y528110D01*
X562921Y527775D01*
X563086Y527466D01*
X563220Y527143D01*
X563414Y526852D01*
X563579Y526544D01*
X563801Y526273D01*
X563996Y525983D01*
X564243Y525735D01*
X564465Y525465D01*
X564735Y525243D01*
X564983Y524996D01*
X565273Y524801D01*
X565544Y524579D01*
X565852Y524414D01*
X566143Y524220D01*
X566466Y524086D01*
X566775Y523921D01*
X567110Y523820D01*
X567433Y523686D01*
X567776Y523618D01*
X568111Y523516D01*
X568459Y523482D01*
X568802Y523413D01*
X569152D01*
X569500Y523379D01*
X569848Y523413D01*
X570198D01*
X570541Y523482D01*
X570889Y523516D01*
X571224Y523618D01*
X571567Y523686D01*
X571890Y523820D01*
X572225Y523921D01*
X572534Y524086D01*
X572857Y524220D01*
X573148Y524414D01*
X573456Y524579D01*
X573727Y524801D01*
X574017Y524996D01*
X574265Y525243D01*
X574535Y525465D01*
X574757Y525735D01*
X575004Y525983D01*
X575199Y526273D01*
X575421Y526544D01*
X575586Y526852D01*
X575780Y527143D01*
X575914Y527466D01*
X576079Y527775D01*
X576180Y528110D01*
X576314Y528433D01*
X576382Y528776D01*
X576484Y529111D01*
X576518Y529459D01*
X576587Y529802D01*
Y530152D01*
X576621Y530500D01*
X576587Y530848D01*
Y531198D01*
X576518Y531541D01*
X576484Y531889D01*
X576382Y532224D01*
X576314Y532567D01*
X576180Y532890D01*
X576079Y533225D01*
X575914Y533534D01*
X575780Y533857D01*
X575586Y534148D01*
X575421Y534456D01*
X575199Y534727D01*
X575004Y535017D01*
X574757Y535265D01*
X574535Y535535D01*
X574265Y535757D01*
X574017Y536004D01*
X573727Y536199D01*
X573456Y536421D01*
X573148Y536586D01*
X572857Y536780D01*
X572534Y536914D01*
X572373Y537000D01*
X572498Y537500D01*
X577500D01*
Y10500D01*
D02*
G37*
%LPC*%
G36*
X241516Y520811D02*
X240484D01*
X239488Y520544D01*
X238595Y520028D01*
X237865Y519299D01*
X237350Y518406D01*
X237083Y517409D01*
Y516378D01*
X237350Y515382D01*
X237865Y514488D01*
X238595Y513759D01*
X239488Y513243D01*
X240484Y512976D01*
X241516D01*
X242512Y513243D01*
X243405Y513759D01*
X244135Y514488D01*
X244650Y515382D01*
X244917Y516378D01*
Y517409D01*
X244650Y518406D01*
X244135Y519299D01*
X243405Y520028D01*
X242512Y520544D01*
X241516Y520811D01*
D02*
G37*
G36*
X231516Y520417D02*
X230484D01*
X229488Y520150D01*
X228595Y519635D01*
X227865Y518905D01*
X227350Y518012D01*
X227083Y517016D01*
Y515984D01*
X227350Y514988D01*
X227865Y514095D01*
X228595Y513365D01*
X229488Y512850D01*
X230484Y512583D01*
X231516D01*
X232512Y512850D01*
X233405Y513365D01*
X234135Y514095D01*
X234650Y514988D01*
X234917Y515984D01*
Y517016D01*
X234650Y518012D01*
X234135Y518905D01*
X233405Y519635D01*
X232512Y520150D01*
X231516Y520417D01*
D02*
G37*
G36*
X221516D02*
X220484D01*
X219488Y520150D01*
X218595Y519635D01*
X217865Y518905D01*
X217350Y518012D01*
X217083Y517016D01*
Y515984D01*
X217350Y514988D01*
X217865Y514095D01*
X218595Y513365D01*
X219488Y512850D01*
X220484Y512583D01*
X221516D01*
X222512Y512850D01*
X223405Y513365D01*
X224135Y514095D01*
X224650Y514988D01*
X224917Y515984D01*
Y517016D01*
X224650Y518012D01*
X224135Y518905D01*
X223405Y519635D01*
X222512Y520150D01*
X221516Y520417D01*
D02*
G37*
G36*
X214917D02*
X207083D01*
Y512583D01*
X214917D01*
Y520417D01*
D02*
G37*
G36*
X191016Y520311D02*
X189984D01*
X188988Y520044D01*
X188095Y519528D01*
X187365Y518799D01*
X186850Y517906D01*
X186583Y516909D01*
Y515878D01*
X186850Y514882D01*
X187365Y513988D01*
X188095Y513259D01*
X188988Y512743D01*
X189984Y512476D01*
X191016D01*
X192012Y512743D01*
X192905Y513259D01*
X193635Y513988D01*
X194150Y514882D01*
X194417Y515878D01*
Y516909D01*
X194150Y517906D01*
X193635Y518799D01*
X192905Y519528D01*
X192012Y520044D01*
X191016Y520311D01*
D02*
G37*
G36*
X143516D02*
X142484D01*
X141488Y520044D01*
X140595Y519528D01*
X139865Y518799D01*
X139350Y517906D01*
X139083Y516909D01*
Y515878D01*
X139350Y514882D01*
X139865Y513988D01*
X140595Y513259D01*
X141488Y512743D01*
X142484Y512476D01*
X143516D01*
X144512Y512743D01*
X145405Y513259D01*
X146135Y513988D01*
X146650Y514882D01*
X146917Y515878D01*
Y516909D01*
X146650Y517906D01*
X146135Y518799D01*
X145405Y519528D01*
X144512Y520044D01*
X143516Y520311D01*
D02*
G37*
G36*
X133516Y519917D02*
X132484D01*
X131488Y519650D01*
X130595Y519135D01*
X129865Y518405D01*
X129350Y517512D01*
X129083Y516516D01*
Y515484D01*
X129350Y514488D01*
X129865Y513595D01*
X130595Y512865D01*
X131488Y512350D01*
X132484Y512083D01*
X133516D01*
X134512Y512350D01*
X135405Y512865D01*
X136135Y513595D01*
X136650Y514488D01*
X136917Y515484D01*
Y516516D01*
X136650Y517512D01*
X136135Y518405D01*
X135405Y519135D01*
X134512Y519650D01*
X133516Y519917D01*
D02*
G37*
G36*
X123516D02*
X122484D01*
X121488Y519650D01*
X120595Y519135D01*
X119865Y518405D01*
X119350Y517512D01*
X119083Y516516D01*
Y515484D01*
X119350Y514488D01*
X119865Y513595D01*
X120595Y512865D01*
X121488Y512350D01*
X122484Y512083D01*
X123516D01*
X124512Y512350D01*
X125405Y512865D01*
X126135Y513595D01*
X126650Y514488D01*
X126917Y515484D01*
Y516516D01*
X126650Y517512D01*
X126135Y518405D01*
X125405Y519135D01*
X124512Y519650D01*
X123516Y519917D01*
D02*
G37*
G36*
X236500Y442657D02*
X235088Y442518D01*
X233730Y442106D01*
X232478Y441437D01*
X231381Y440536D01*
X230481Y439439D01*
X229812Y438188D01*
X229399Y436830D01*
X229260Y435417D01*
Y422583D01*
X229399Y421170D01*
X229812Y419812D01*
X230481Y418561D01*
X231381Y417463D01*
X232478Y416563D01*
X233730Y415894D01*
X235088Y415482D01*
X236500Y415343D01*
X237912Y415482D01*
X239270Y415894D01*
X240522Y416563D01*
X241619Y417463D01*
X242519Y418561D01*
X243189Y419812D01*
X243601Y421170D01*
X243740Y422583D01*
Y435417D01*
X243601Y436830D01*
X243189Y438188D01*
X242519Y439439D01*
X241619Y440536D01*
X240522Y441437D01*
X239270Y442106D01*
X237912Y442518D01*
X236500Y442657D01*
D02*
G37*
G36*
X340500Y440157D02*
X339088Y440018D01*
X337730Y439606D01*
X336478Y438937D01*
X335381Y438036D01*
X334481Y436939D01*
X333811Y435688D01*
X333400Y434330D01*
X333260Y432917D01*
Y420083D01*
X333400Y418670D01*
X333811Y417312D01*
X334481Y416061D01*
X335381Y414963D01*
X336478Y414063D01*
X337730Y413394D01*
X339088Y412982D01*
X340500Y412843D01*
X341912Y412982D01*
X343270Y413394D01*
X344522Y414063D01*
X345619Y414963D01*
X346519Y416061D01*
X347188Y417312D01*
X347601Y418670D01*
X347740Y420083D01*
Y432917D01*
X347601Y434330D01*
X347188Y435688D01*
X346519Y436939D01*
X345619Y438036D01*
X344522Y438937D01*
X343270Y439606D01*
X341912Y440018D01*
X340500Y440157D01*
D02*
G37*
G36*
X474059Y438657D02*
X472647Y438518D01*
X471289Y438106D01*
X470037Y437437D01*
X468940Y436537D01*
X468040Y435439D01*
X467371Y434188D01*
X466959Y432830D01*
X466819Y431417D01*
Y418583D01*
X466959Y417170D01*
X467371Y415812D01*
X468040Y414561D01*
X468940Y413463D01*
X470037Y412563D01*
X471289Y411894D01*
X472647Y411482D01*
X474059Y411343D01*
X475471Y411482D01*
X476829Y411894D01*
X478081Y412563D01*
X479178Y413463D01*
X480079Y414561D01*
X480748Y415812D01*
X481159Y417170D01*
X481299Y418583D01*
Y431417D01*
X481159Y432830D01*
X480748Y434188D01*
X480079Y435439D01*
X479178Y436537D01*
X478081Y437437D01*
X476829Y438106D01*
X475471Y438518D01*
X474059Y438657D01*
D02*
G37*
G36*
X446500D02*
X445088Y438518D01*
X443729Y438106D01*
X442478Y437437D01*
X441381Y436537D01*
X440481Y435439D01*
X439812Y434188D01*
X439399Y432830D01*
X439260Y431417D01*
Y418583D01*
X439399Y417170D01*
X439812Y415812D01*
X440481Y414561D01*
X441381Y413463D01*
X442478Y412563D01*
X443729Y411894D01*
X445088Y411482D01*
X446500Y411343D01*
X447912Y411482D01*
X449270Y411894D01*
X450522Y412563D01*
X451619Y413463D01*
X452520Y414561D01*
X453189Y415812D01*
X453601Y417170D01*
X453740Y418583D01*
Y431417D01*
X453601Y432830D01*
X453189Y434188D01*
X452520Y435439D01*
X451619Y436537D01*
X450522Y437437D01*
X449270Y438106D01*
X447912Y438518D01*
X446500Y438657D01*
D02*
G37*
G36*
X118000Y330657D02*
X116588Y330518D01*
X115229Y330106D01*
X113978Y329437D01*
X112881Y328537D01*
X111980Y327439D01*
X111311Y326188D01*
X110899Y324830D01*
X110760Y323417D01*
Y310583D01*
X110899Y309170D01*
X111311Y307812D01*
X111980Y306561D01*
X112881Y305464D01*
X113978Y304563D01*
X115229Y303894D01*
X116588Y303482D01*
X118000Y303343D01*
X119412Y303482D01*
X120771Y303894D01*
X122022Y304563D01*
X123119Y305464D01*
X124020Y306561D01*
X124688Y307812D01*
X125101Y309170D01*
X125240Y310583D01*
Y323417D01*
X125101Y324830D01*
X124688Y326188D01*
X124020Y327439D01*
X123119Y328537D01*
X122022Y329437D01*
X120771Y330106D01*
X119412Y330518D01*
X118000Y330657D01*
D02*
G37*
G36*
X561024Y266417D02*
X553189D01*
Y258583D01*
X561024D01*
Y266417D01*
D02*
G37*
G36*
X181016Y519917D02*
X179984D01*
X178988Y519650D01*
X178095Y519135D01*
X177365Y518405D01*
X176850Y517512D01*
X176583Y516516D01*
Y515484D01*
X176850Y514488D01*
X177365Y513595D01*
X178095Y512865D01*
X178772Y512474D01*
X178870Y511983D01*
X179392Y511202D01*
X198797Y491797D01*
X199578Y491275D01*
X200500Y491091D01*
X347502D01*
X467253Y371341D01*
Y258259D01*
X466775Y258114D01*
X466504Y258517D01*
X465517Y259505D01*
X464357Y260280D01*
X463067Y260814D01*
X461698Y261087D01*
X460302D01*
X458933Y260814D01*
X457643Y260280D01*
X456483Y259505D01*
X455496Y258517D01*
X454909Y257639D01*
X454409Y257791D01*
Y367500D01*
X454225Y368422D01*
X453703Y369203D01*
X342203Y480703D01*
X341422Y481225D01*
X340500Y481409D01*
X199498D01*
X172908Y507998D01*
Y512869D01*
X173635Y513595D01*
X174150Y514488D01*
X174417Y515484D01*
Y516516D01*
X174150Y517512D01*
X173635Y518405D01*
X172905Y519135D01*
X172012Y519650D01*
X171016Y519917D01*
X169984D01*
X168988Y519650D01*
X168095Y519135D01*
X167365Y518405D01*
X166850Y517512D01*
X166583Y516516D01*
Y515484D01*
X166850Y514488D01*
X167365Y513595D01*
X168091Y512869D01*
Y507000D01*
X168275Y506078D01*
X168797Y505297D01*
X196797Y477297D01*
X197578Y476775D01*
X198500Y476591D01*
X339502D01*
X449591Y366502D01*
Y256497D01*
X449091Y256290D01*
X447794Y257587D01*
X444206D01*
X442413Y255794D01*
Y252206D01*
X444206Y250413D01*
X447794D01*
X449091Y251710D01*
X449591Y251503D01*
Y250751D01*
X449775Y249829D01*
X450297Y249048D01*
X467048Y232297D01*
X467829Y231775D01*
X468751Y231592D01*
X472277D01*
X473956Y229913D01*
X478044D01*
X480087Y231956D01*
Y236044D01*
X478044Y238087D01*
X473956D01*
X472277Y236408D01*
X469748D01*
X459590Y246567D01*
X459826Y247008D01*
X460302Y246913D01*
X461698D01*
X463067Y247186D01*
X464357Y247720D01*
X465517Y248496D01*
X466504Y249483D01*
X466820Y249954D01*
X467350Y249849D01*
X467436Y249417D01*
X467958Y248636D01*
X471913Y244681D01*
Y241956D01*
X473956Y239913D01*
X478044D01*
X480087Y241956D01*
Y246044D01*
X478044Y248087D01*
X475319D01*
X473993Y249413D01*
X474201Y249913D01*
X478044D01*
X480087Y251956D01*
Y256044D01*
X478044Y258087D01*
X473956D01*
X472532Y256663D01*
X472070Y256854D01*
Y372339D01*
X471887Y373260D01*
X471364Y374042D01*
X350203Y495203D01*
X349422Y495725D01*
X348500Y495908D01*
X201498D01*
X183699Y513707D01*
X184150Y514488D01*
X184417Y515484D01*
Y516516D01*
X184150Y517512D01*
X183635Y518405D01*
X182905Y519135D01*
X182012Y519650D01*
X181016Y519917D01*
D02*
G37*
G36*
X437794Y257587D02*
X434206D01*
X432413Y255794D01*
Y252206D01*
X434206Y250413D01*
X437794D01*
X439587Y252206D01*
Y255794D01*
X437794Y257587D01*
D02*
G37*
G36*
X427794D02*
X424206D01*
X422413Y255794D01*
Y252206D01*
X424206Y250413D01*
X427794D01*
X429587Y252206D01*
Y255794D01*
X427794Y257587D01*
D02*
G37*
G36*
X417794D02*
X414206D01*
X412413Y255794D01*
Y252206D01*
X414206Y250413D01*
X417794D01*
X419587Y252206D01*
Y255794D01*
X417794Y257587D01*
D02*
G37*
G36*
X407794D02*
X404206D01*
X402413Y255794D01*
Y252206D01*
X404206Y250413D01*
X407794D01*
X409587Y252206D01*
Y255794D01*
X407794Y257587D01*
D02*
G37*
G36*
X397794D02*
X394206D01*
X392413Y255794D01*
Y252206D01*
X394206Y250413D01*
X397794D01*
X399587Y252206D01*
Y255794D01*
X397794Y257587D01*
D02*
G37*
G36*
X337794D02*
X334206D01*
X332413Y255794D01*
Y252206D01*
X334206Y250413D01*
X337794D01*
X339587Y252206D01*
Y255794D01*
X337794Y257587D01*
D02*
G37*
G36*
X327794D02*
X324206D01*
X322413Y255794D01*
Y252206D01*
X324206Y250413D01*
X327794D01*
X329587Y252206D01*
Y255794D01*
X327794Y257587D01*
D02*
G37*
G36*
X317794D02*
X314206D01*
X312413Y255794D01*
Y252206D01*
X314206Y250413D01*
X317794D01*
X319587Y252206D01*
Y255794D01*
X317794Y257587D01*
D02*
G37*
G36*
X307794D02*
X304206D01*
X302413Y255794D01*
Y252206D01*
X304206Y250413D01*
X307794D01*
X309587Y252206D01*
Y255794D01*
X307794Y257587D01*
D02*
G37*
G36*
X297794D02*
X294206D01*
X292413Y255794D01*
Y252206D01*
X294206Y250413D01*
X297794D01*
X299587Y252206D01*
Y255794D01*
X297794Y257587D01*
D02*
G37*
G36*
X287794D02*
X284206D01*
X282413Y255794D01*
Y252206D01*
X284206Y250413D01*
X287794D01*
X289587Y252206D01*
Y255794D01*
X287794Y257587D01*
D02*
G37*
G36*
X271794D02*
X268206D01*
X266413Y255794D01*
Y252206D01*
X268206Y250413D01*
X271794D01*
X273587Y252206D01*
Y255794D01*
X271794Y257587D01*
D02*
G37*
G36*
X261794D02*
X258206D01*
X256413Y255794D01*
Y252206D01*
X258206Y250413D01*
X261794D01*
X263587Y252206D01*
Y255794D01*
X261794Y257587D01*
D02*
G37*
G36*
X251794D02*
X248206D01*
X246413Y255794D01*
Y252206D01*
X248206Y250413D01*
X251794D01*
X253587Y252206D01*
Y255794D01*
X251794Y257587D01*
D02*
G37*
G36*
X241794D02*
X238206D01*
X236413Y255794D01*
Y252206D01*
X238206Y250413D01*
X241794D01*
X243587Y252206D01*
Y255794D01*
X241794Y257587D01*
D02*
G37*
G36*
X231794D02*
X228206D01*
X226413Y255794D01*
Y252206D01*
X228206Y250413D01*
X231794D01*
X233587Y252206D01*
Y255794D01*
X231794Y257587D01*
D02*
G37*
G36*
X221794D02*
X218206D01*
X216413Y255794D01*
Y252206D01*
X218206Y250413D01*
X221794D01*
X223587Y252206D01*
Y255794D01*
X221794Y257587D01*
D02*
G37*
G36*
X201794D02*
X198206D01*
X196413Y255794D01*
Y252206D01*
X198206Y250413D01*
X201794D01*
X203587Y252206D01*
Y255794D01*
X201794Y257587D01*
D02*
G37*
G36*
X191794D02*
X188206D01*
X186413Y255794D01*
Y252206D01*
X188206Y250413D01*
X191794D01*
X193587Y252206D01*
Y255794D01*
X191794Y257587D01*
D02*
G37*
G36*
X181794D02*
X178206D01*
X176413Y255794D01*
Y252206D01*
X178206Y250413D01*
X181794D01*
X183587Y252206D01*
Y255794D01*
X181794Y257587D01*
D02*
G37*
G36*
X488044Y258087D02*
X483956D01*
X481913Y256044D01*
Y251956D01*
X483956Y249913D01*
X488044D01*
X490087Y251956D01*
Y256044D01*
X488044Y258087D01*
D02*
G37*
G36*
X557622Y256417D02*
X556591D01*
X555594Y256150D01*
X554701Y255635D01*
X553972Y254905D01*
X553456Y254012D01*
X553189Y253016D01*
Y251984D01*
X553456Y250988D01*
X553972Y250095D01*
X554701Y249365D01*
X555594Y248850D01*
X556591Y248583D01*
X557622D01*
X558618Y248850D01*
X559512Y249365D01*
X560241Y250095D01*
X560757Y250988D01*
X561024Y251984D01*
Y253016D01*
X560757Y254012D01*
X560241Y254905D01*
X559512Y255635D01*
X558618Y256150D01*
X557622Y256417D01*
D02*
G37*
G36*
X166698Y261087D02*
X165302D01*
X163933Y260814D01*
X162643Y260280D01*
X161483Y259505D01*
X160495Y258517D01*
X159720Y257357D01*
X159186Y256067D01*
X158913Y254698D01*
Y253302D01*
X159186Y251933D01*
X159720Y250643D01*
X160495Y249483D01*
X161483Y248496D01*
X162643Y247720D01*
X163933Y247186D01*
X165302Y246913D01*
X166698D01*
X168067Y247186D01*
X169357Y247720D01*
X170517Y248496D01*
X171504Y249483D01*
X172280Y250643D01*
X172814Y251933D01*
X173087Y253302D01*
Y254698D01*
X172814Y256067D01*
X172280Y257357D01*
X171504Y258517D01*
X170517Y259505D01*
X169357Y260280D01*
X168067Y260814D01*
X166698Y261087D01*
D02*
G37*
G36*
X488044Y248087D02*
X483956D01*
X481913Y246044D01*
Y241956D01*
X483956Y239913D01*
X488044D01*
X490087Y241956D01*
Y246044D01*
X488044Y248087D01*
D02*
G37*
G36*
X557622Y246417D02*
X556591D01*
X555594Y246150D01*
X554701Y245635D01*
X553972Y244905D01*
X553456Y244012D01*
X553189Y243016D01*
Y241984D01*
X553456Y240988D01*
X553972Y240095D01*
X554701Y239365D01*
X555594Y238850D01*
X556591Y238583D01*
X557622D01*
X558618Y238850D01*
X559512Y239365D01*
X560241Y240095D01*
X560757Y240988D01*
X561024Y241984D01*
Y243016D01*
X560757Y244012D01*
X560241Y244905D01*
X559512Y245635D01*
X558618Y246150D01*
X557622Y246417D01*
D02*
G37*
G36*
X488044Y238087D02*
X483956D01*
X481913Y236044D01*
Y231956D01*
X483956Y229913D01*
X488044D01*
X490087Y231956D01*
Y236044D01*
X488044Y238087D01*
D02*
G37*
G36*
Y228087D02*
X483956D01*
X481913Y226044D01*
Y221956D01*
X483956Y219913D01*
X488044D01*
X490087Y221956D01*
Y226044D01*
X488044Y228087D01*
D02*
G37*
G36*
X478044D02*
X473956D01*
X471913Y226044D01*
Y221956D01*
X473956Y219913D01*
X478044D01*
X480087Y221956D01*
Y226044D01*
X478044Y228087D01*
D02*
G37*
G36*
X488044Y218087D02*
X483956D01*
X481913Y216044D01*
Y211956D01*
X483956Y209913D01*
X488044D01*
X490087Y211956D01*
Y216044D01*
X488044Y218087D01*
D02*
G37*
G36*
X478044D02*
X473956D01*
X471913Y216044D01*
Y211956D01*
X473956Y209913D01*
X478044D01*
X480087Y211956D01*
Y216044D01*
X478044Y218087D01*
D02*
G37*
G36*
X347794Y257587D02*
X344206D01*
X342413Y255794D01*
Y253819D01*
X315002Y226409D01*
X98760D01*
X97838Y226225D01*
X97057Y225703D01*
X90220Y218866D01*
X84374D01*
Y209614D01*
X93626D01*
Y215460D01*
X99757Y221591D01*
X316000D01*
X316922Y221775D01*
X317703Y222297D01*
X345819Y250413D01*
X347794D01*
X349587Y252206D01*
Y255794D01*
X347794Y257587D01*
D02*
G37*
G36*
X559917Y214417D02*
X552083D01*
Y206583D01*
X559917D01*
Y214417D01*
D02*
G37*
G36*
X488044Y208087D02*
X483956D01*
X481913Y206044D01*
Y201956D01*
X483956Y199913D01*
X488044D01*
X490087Y201956D01*
Y206044D01*
X488044Y208087D01*
D02*
G37*
G36*
X478044D02*
X473956D01*
X471913Y206044D01*
Y201956D01*
X473956Y199913D01*
X478044D01*
X480087Y201956D01*
Y206044D01*
X478044Y208087D01*
D02*
G37*
G36*
X357794Y257587D02*
X354206D01*
X352413Y255794D01*
Y252206D01*
X353591Y251027D01*
Y245998D01*
X315502Y207909D01*
X99945D01*
X99023Y207725D01*
X98242Y207203D01*
X90091Y199052D01*
X89609Y199181D01*
X88391D01*
X87214Y198866D01*
X86160Y198257D01*
X85298Y197396D01*
X84689Y196341D01*
X84374Y195164D01*
Y193946D01*
X84689Y192770D01*
X85298Y191715D01*
X86160Y190853D01*
X87214Y190244D01*
X88391Y189929D01*
X89609D01*
X90786Y190244D01*
X91840Y190853D01*
X92702Y191715D01*
X93311Y192770D01*
X93626Y193946D01*
Y195164D01*
X93497Y195646D01*
X100943Y203092D01*
X316500D01*
X317422Y203275D01*
X318203Y203797D01*
X357703Y243297D01*
X358225Y244078D01*
X358408Y245000D01*
Y251027D01*
X359587Y252206D01*
Y255794D01*
X357794Y257587D01*
D02*
G37*
G36*
X556516Y204417D02*
X555484D01*
X554488Y204150D01*
X553595Y203635D01*
X552865Y202905D01*
X552350Y202012D01*
X552083Y201016D01*
Y199984D01*
X552350Y198988D01*
X552865Y198095D01*
X553595Y197365D01*
X554488Y196850D01*
X555484Y196583D01*
X556516D01*
X557512Y196850D01*
X558405Y197365D01*
X559135Y198095D01*
X559650Y198988D01*
X559917Y199984D01*
Y201016D01*
X559650Y202012D01*
X559135Y202905D01*
X558405Y203635D01*
X557512Y204150D01*
X556516Y204417D01*
D02*
G37*
G36*
X488044Y198087D02*
X483956D01*
X481913Y196044D01*
Y191956D01*
X483956Y189913D01*
X488044D01*
X490087Y191956D01*
Y196044D01*
X488044Y198087D01*
D02*
G37*
G36*
X478044D02*
X473956D01*
X471913Y196044D01*
Y191956D01*
X473956Y189913D01*
X478044D01*
X480087Y191956D01*
Y196044D01*
X478044Y198087D01*
D02*
G37*
G36*
X366698Y201087D02*
X365302D01*
X363933Y200814D01*
X362643Y200280D01*
X361483Y199504D01*
X360495Y198517D01*
X359720Y197357D01*
X359186Y196067D01*
X358913Y194698D01*
Y193302D01*
X359186Y191933D01*
X359720Y190643D01*
X360495Y189483D01*
X361483Y188496D01*
X362643Y187720D01*
X363933Y187186D01*
X365302Y186913D01*
X366698D01*
X368067Y187186D01*
X369357Y187720D01*
X370517Y188496D01*
X371504Y189483D01*
X372280Y190643D01*
X372814Y191933D01*
X373087Y193302D01*
Y194698D01*
X372814Y196067D01*
X372280Y197357D01*
X371504Y198517D01*
X370517Y199504D01*
X369357Y200280D01*
X368067Y200814D01*
X366698Y201087D01*
D02*
G37*
G36*
X556516Y194417D02*
X555484D01*
X554488Y194150D01*
X553595Y193635D01*
X552865Y192905D01*
X552350Y192012D01*
X552083Y191016D01*
Y189984D01*
X552350Y188988D01*
X552865Y188095D01*
X553595Y187365D01*
X554488Y186850D01*
X555484Y186583D01*
X556516D01*
X557512Y186850D01*
X558405Y187365D01*
X559135Y188095D01*
X559650Y188988D01*
X559917Y189984D01*
Y191016D01*
X559650Y192012D01*
X559135Y192905D01*
X558405Y193635D01*
X557512Y194150D01*
X556516Y194417D01*
D02*
G37*
G36*
X488044Y188087D02*
X483956D01*
X481913Y186044D01*
Y181956D01*
X483956Y179913D01*
X488044D01*
X490087Y181956D01*
Y186044D01*
X488044Y188087D01*
D02*
G37*
G36*
X478044D02*
X473956D01*
X471913Y186044D01*
Y181956D01*
X473956Y179913D01*
X478044D01*
X480087Y181956D01*
Y186044D01*
X478044Y188087D01*
D02*
G37*
G36*
X377794Y257587D02*
X374206D01*
X372413Y255794D01*
Y252206D01*
X373591Y251027D01*
Y242498D01*
X308372Y177279D01*
X92951D01*
X92702Y177710D01*
X91840Y178572D01*
X90786Y179181D01*
X89609Y179496D01*
X88391D01*
X87214Y179181D01*
X86160Y178572D01*
X85298Y177710D01*
X84689Y176656D01*
X84374Y175479D01*
Y174261D01*
X84689Y173084D01*
X85298Y172030D01*
X86160Y171168D01*
X87214Y170559D01*
X88391Y170244D01*
X89609D01*
X90786Y170559D01*
X91840Y171168D01*
X92702Y172030D01*
X92951Y172462D01*
X309370D01*
X310292Y172645D01*
X311073Y173167D01*
X377703Y239797D01*
X378225Y240578D01*
X378409Y241500D01*
Y251027D01*
X379587Y252206D01*
Y255794D01*
X377794Y257587D01*
D02*
G37*
G36*
X368419Y177839D02*
X364581D01*
X362661Y175919D01*
Y172081D01*
X364581Y170161D01*
X368419D01*
X370339Y172081D01*
Y175919D01*
X368419Y177839D01*
D02*
G37*
G36*
X358419D02*
X354581D01*
X352661Y175919D01*
Y172081D01*
X354581Y170161D01*
X358419D01*
X360339Y172081D01*
Y175919D01*
X358419Y177839D01*
D02*
G37*
G36*
X488044Y178087D02*
X483956D01*
X481913Y176044D01*
Y171956D01*
X483956Y169913D01*
X488044D01*
X490087Y171956D01*
Y176044D01*
X488044Y178087D01*
D02*
G37*
G36*
X478044D02*
X473956D01*
X471913Y176044D01*
Y171956D01*
X473956Y169913D01*
X478044D01*
X480087Y171956D01*
Y176044D01*
X478044Y178087D01*
D02*
G37*
G36*
X368419Y167839D02*
X364581D01*
X362661Y165919D01*
Y162081D01*
X364581Y160161D01*
X368419D01*
X370339Y162081D01*
Y165919D01*
X368419Y167839D01*
D02*
G37*
G36*
X358419D02*
X354581D01*
X352661Y165919D01*
Y162081D01*
X354581Y160161D01*
X358419D01*
X360339Y162081D01*
Y165919D01*
X358419Y167839D01*
D02*
G37*
G36*
X488044Y168087D02*
X483956D01*
X481913Y166044D01*
Y161956D01*
X483956Y159913D01*
X488044D01*
X490087Y161956D01*
Y166044D01*
X488044Y168087D01*
D02*
G37*
G36*
X478044D02*
X473956D01*
X471913Y166044D01*
Y161956D01*
X473956Y159913D01*
X478044D01*
X480087Y161956D01*
Y166044D01*
X478044Y168087D01*
D02*
G37*
G36*
X387794Y257587D02*
X384206D01*
X382413Y255794D01*
Y252206D01*
X383592Y251027D01*
Y234998D01*
X311502Y162908D01*
X297000D01*
X296078Y162725D01*
X295297Y162203D01*
X290687Y157594D01*
X92951D01*
X92702Y158026D01*
X91840Y158887D01*
X90786Y159496D01*
X89609Y159811D01*
X88391D01*
X87214Y159496D01*
X86160Y158887D01*
X85298Y158026D01*
X84689Y156971D01*
X84374Y155794D01*
Y154576D01*
X84689Y153400D01*
X85298Y152345D01*
X86160Y151483D01*
X87214Y150874D01*
X88391Y150559D01*
X89609D01*
X90786Y150874D01*
X91840Y151483D01*
X92702Y152345D01*
X92951Y152777D01*
X291685D01*
X292607Y152960D01*
X293388Y153482D01*
X297998Y158091D01*
X312500D01*
X313422Y158275D01*
X314203Y158797D01*
X387703Y232297D01*
X388225Y233078D01*
X388408Y234000D01*
Y251027D01*
X389587Y252206D01*
Y255794D01*
X387794Y257587D01*
D02*
G37*
G36*
X559917Y159917D02*
X552083D01*
Y152083D01*
X559917D01*
Y159917D01*
D02*
G37*
G36*
X368419Y157839D02*
X364581D01*
X362661Y155919D01*
Y152081D01*
X364581Y150161D01*
X368419D01*
X370339Y152081D01*
Y155919D01*
X368419Y157839D01*
D02*
G37*
G36*
X358419D02*
X354581D01*
X352661Y155919D01*
Y152081D01*
X354581Y150161D01*
X358419D01*
X360339Y152081D01*
Y155919D01*
X358419Y157839D01*
D02*
G37*
G36*
X488044Y158087D02*
X483956D01*
X481913Y156044D01*
Y151956D01*
X483956Y149913D01*
X488044D01*
X490087Y151956D01*
Y156044D01*
X488044Y158087D01*
D02*
G37*
G36*
X478044D02*
X473956D01*
X471913Y156044D01*
Y151956D01*
X473956Y149913D01*
X478044D01*
X480087Y151956D01*
Y156044D01*
X478044Y158087D01*
D02*
G37*
G36*
X556516Y149917D02*
X555484D01*
X554488Y149650D01*
X553595Y149135D01*
X552865Y148405D01*
X552350Y147512D01*
X552083Y146516D01*
Y145484D01*
X552350Y144488D01*
X552865Y143595D01*
X553595Y142865D01*
X554488Y142350D01*
X555484Y142083D01*
X556516D01*
X557512Y142350D01*
X558405Y142865D01*
X559135Y143595D01*
X559650Y144488D01*
X559917Y145484D01*
Y146516D01*
X559650Y147512D01*
X559135Y148405D01*
X558405Y149135D01*
X557512Y149650D01*
X556516Y149917D01*
D02*
G37*
G36*
X488044Y148087D02*
X483956D01*
X481913Y146044D01*
Y141956D01*
X483956Y139913D01*
X488044D01*
X490087Y141956D01*
Y146044D01*
X488044Y148087D01*
D02*
G37*
G36*
X478044D02*
X473956D01*
X471913Y146044D01*
Y141956D01*
X473956Y139913D01*
X478044D01*
X480087Y141956D01*
Y146044D01*
X478044Y148087D01*
D02*
G37*
G36*
X556516Y139917D02*
X555484D01*
X554488Y139650D01*
X553595Y139135D01*
X552865Y138405D01*
X552350Y137512D01*
X552083Y136516D01*
Y135484D01*
X552350Y134488D01*
X552865Y133595D01*
X553595Y132865D01*
X554488Y132350D01*
X555484Y132083D01*
X556516D01*
X557512Y132350D01*
X558405Y132865D01*
X559135Y133595D01*
X559650Y134488D01*
X559917Y135484D01*
Y136516D01*
X559650Y137512D01*
X559135Y138405D01*
X558405Y139135D01*
X557512Y139650D01*
X556516Y139917D01*
D02*
G37*
G36*
X488044Y138087D02*
X483956D01*
X481913Y136044D01*
Y131956D01*
X483956Y129913D01*
X488044D01*
X490087Y131956D01*
Y136044D01*
X488044Y138087D01*
D02*
G37*
G36*
X478044D02*
X473956D01*
X471913Y136044D01*
Y131956D01*
X473956Y129913D01*
X478044D01*
X480087Y131956D01*
Y136044D01*
X478044Y138087D01*
D02*
G37*
G36*
X488044Y128087D02*
X483956D01*
X481913Y126044D01*
Y121956D01*
X483956Y119913D01*
X488044D01*
X490087Y121956D01*
Y126044D01*
X488044Y128087D01*
D02*
G37*
G36*
X478044D02*
X473956D01*
X471913Y126044D01*
Y121956D01*
X473956Y119913D01*
X478044D01*
X480087Y121956D01*
Y126044D01*
X478044Y128087D01*
D02*
G37*
G36*
X210119Y125839D02*
X206281D01*
X204361Y123919D01*
Y120081D01*
X206281Y118161D01*
X210119D01*
X212039Y120081D01*
Y123919D01*
X210119Y125839D01*
D02*
G37*
G36*
X200119D02*
X196281D01*
X194361Y123919D01*
Y120081D01*
X196281Y118161D01*
X200119D01*
X202039Y120081D01*
Y123919D01*
X200119Y125839D01*
D02*
G37*
G36*
X488044Y118087D02*
X483956D01*
X481913Y116044D01*
Y111956D01*
X483956Y109913D01*
X488044D01*
X490087Y111956D01*
Y116044D01*
X488044Y118087D01*
D02*
G37*
G36*
X478044D02*
X473956D01*
X471913Y116044D01*
Y111956D01*
X473956Y109913D01*
X478044D01*
X480087Y111956D01*
Y116044D01*
X478044Y118087D01*
D02*
G37*
G36*
X210119Y115839D02*
X206281D01*
X204361Y113919D01*
Y110081D01*
X206281Y108161D01*
X210119D01*
X212039Y110081D01*
Y113919D01*
X210119Y115839D01*
D02*
G37*
G36*
X200119D02*
X196281D01*
X194361Y113919D01*
Y110081D01*
X196281Y108161D01*
X200119D01*
X202039Y110081D01*
Y113919D01*
X200119Y115839D01*
D02*
G37*
G36*
X488044Y108087D02*
X483956D01*
X481913Y106044D01*
Y101956D01*
X483956Y99913D01*
X488044D01*
X490087Y101956D01*
Y106044D01*
X488044Y108087D01*
D02*
G37*
G36*
X478044D02*
X473956D01*
X471913Y106044D01*
Y101956D01*
X473956Y99913D01*
X478044D01*
X480087Y101956D01*
Y106044D01*
X478044Y108087D01*
D02*
G37*
G36*
X210119Y105839D02*
X206281D01*
X204361Y103919D01*
Y100081D01*
X206281Y98161D01*
X210119D01*
X212039Y100081D01*
Y103919D01*
X210119Y105839D01*
D02*
G37*
G36*
X200119D02*
X196281D01*
X194361Y103919D01*
Y100081D01*
X196281Y98161D01*
X200119D01*
X202039Y100081D01*
Y103919D01*
X200119Y105839D01*
D02*
G37*
G36*
X488044Y98087D02*
X483956D01*
X481913Y96044D01*
Y91956D01*
X483956Y89913D01*
X488044D01*
X490087Y91956D01*
Y96044D01*
X488044Y98087D01*
D02*
G37*
G36*
X478044D02*
X473956D01*
X471913Y96044D01*
Y91956D01*
X473956Y89913D01*
X478044D01*
X480087Y91956D01*
Y96044D01*
X478044Y98087D01*
D02*
G37*
G36*
X488044Y88087D02*
X483956D01*
X481913Y86044D01*
Y81956D01*
X483956Y79913D01*
X488044D01*
X490087Y81956D01*
Y86044D01*
X488044Y88087D01*
D02*
G37*
G36*
X478044D02*
X473956D01*
X471913Y86044D01*
Y81956D01*
X473956Y79913D01*
X478044D01*
X480087Y81956D01*
Y86044D01*
X478044Y88087D01*
D02*
G37*
G36*
X556126Y81783D02*
X546874D01*
Y72531D01*
X556126D01*
Y81783D01*
D02*
G37*
G36*
X89609Y140126D02*
X88391D01*
X87214Y139811D01*
X86160Y139202D01*
X85298Y138340D01*
X84689Y137286D01*
X84374Y136109D01*
Y134891D01*
X84689Y133714D01*
X85298Y132660D01*
X86160Y131798D01*
X87214Y131189D01*
X88391Y130874D01*
X89609D01*
X90786Y131189D01*
X91840Y131798D01*
X92702Y132660D01*
X92951Y133091D01*
X408002D01*
X463591Y77502D01*
Y66973D01*
X462413Y65794D01*
Y62206D01*
X464206Y60413D01*
X467794D01*
X469587Y62206D01*
Y65794D01*
X468408Y66973D01*
Y78500D01*
X468225Y79422D01*
X467703Y80203D01*
X410703Y137203D01*
X409922Y137725D01*
X409000Y137908D01*
X92951D01*
X92702Y138340D01*
X91840Y139202D01*
X90786Y139811D01*
X89609Y140126D01*
D02*
G37*
G36*
Y120441D02*
X88391D01*
X87214Y120126D01*
X86160Y119517D01*
X85298Y118655D01*
X84689Y117601D01*
X84374Y116424D01*
Y115206D01*
X84689Y114029D01*
X85298Y112975D01*
X86160Y112113D01*
X87214Y111504D01*
X88391Y111189D01*
X89609D01*
X90091Y111318D01*
X111612Y89797D01*
X112393Y89275D01*
X113315Y89091D01*
X360416D01*
X360608Y88630D01*
X360495Y88517D01*
X359720Y87357D01*
X359186Y86067D01*
X358913Y84698D01*
Y83302D01*
X359186Y81933D01*
X359720Y80643D01*
X360495Y79483D01*
X361483Y78496D01*
X362643Y77720D01*
X363933Y77186D01*
X365302Y76913D01*
X366698D01*
X368067Y77186D01*
X369357Y77720D01*
X370517Y78496D01*
X371504Y79483D01*
X372280Y80643D01*
X372814Y81933D01*
X373087Y83302D01*
Y84698D01*
X372814Y86067D01*
X372280Y87357D01*
X371504Y88517D01*
X371392Y88630D01*
X371584Y89091D01*
X435502D01*
X453591Y71002D01*
Y66973D01*
X452413Y65794D01*
Y62206D01*
X454206Y60413D01*
X457794D01*
X459587Y62206D01*
Y65794D01*
X458408Y66973D01*
Y72000D01*
X458225Y72922D01*
X457703Y73703D01*
X438203Y93203D01*
X437422Y93725D01*
X436500Y93909D01*
X371747D01*
X371291Y94365D01*
X370509Y94887D01*
X369588Y95070D01*
X362412D01*
X361491Y94887D01*
X360709Y94365D01*
X360253Y93909D01*
X114313D01*
X93497Y114724D01*
X93626Y115206D01*
Y116424D01*
X93311Y117601D01*
X92702Y118655D01*
X91840Y119517D01*
X90786Y120126D01*
X89609Y120441D01*
D02*
G37*
G36*
X447794Y67587D02*
X444206D01*
X442413Y65794D01*
Y62206D01*
X444206Y60413D01*
X447794D01*
X449587Y62206D01*
Y65794D01*
X447794Y67587D01*
D02*
G37*
G36*
X437794D02*
X434206D01*
X432413Y65794D01*
Y62206D01*
X434206Y60413D01*
X437794D01*
X439587Y62206D01*
Y65794D01*
X437794Y67587D01*
D02*
G37*
G36*
X427794D02*
X424206D01*
X422413Y65794D01*
Y62206D01*
X424206Y60413D01*
X427794D01*
X429587Y62206D01*
Y65794D01*
X427794Y67587D01*
D02*
G37*
G36*
X417794D02*
X414206D01*
X412413Y65794D01*
Y62206D01*
X414206Y60413D01*
X417794D01*
X419587Y62206D01*
Y65794D01*
X417794Y67587D01*
D02*
G37*
G36*
X407794D02*
X404206D01*
X402413Y65794D01*
Y62206D01*
X404206Y60413D01*
X407794D01*
X409587Y62206D01*
Y65794D01*
X407794Y67587D01*
D02*
G37*
G36*
X397794D02*
X394206D01*
X392413Y65794D01*
Y62206D01*
X394206Y60413D01*
X397794D01*
X399587Y62206D01*
Y65794D01*
X397794Y67587D01*
D02*
G37*
G36*
X377794D02*
X374206D01*
X372413Y65794D01*
Y62206D01*
X374206Y60413D01*
X377794D01*
X379587Y62206D01*
Y65794D01*
X377794Y67587D01*
D02*
G37*
G36*
X367794D02*
X364206D01*
X362413Y65794D01*
Y62206D01*
X364206Y60413D01*
X367794D01*
X369587Y62206D01*
Y65794D01*
X367794Y67587D01*
D02*
G37*
G36*
X357794D02*
X354206D01*
X352413Y65794D01*
Y62206D01*
X354206Y60413D01*
X357794D01*
X359587Y62206D01*
Y65794D01*
X357794Y67587D01*
D02*
G37*
G36*
X347794D02*
X344206D01*
X342413Y65794D01*
Y62206D01*
X344206Y60413D01*
X347794D01*
X349587Y62206D01*
Y65794D01*
X347794Y67587D01*
D02*
G37*
G36*
X337794D02*
X334206D01*
X332413Y65794D01*
Y62206D01*
X334206Y60413D01*
X337794D01*
X339587Y62206D01*
Y65794D01*
X337794Y67587D01*
D02*
G37*
G36*
X327794D02*
X324206D01*
X322413Y65794D01*
Y62206D01*
X324206Y60413D01*
X327794D01*
X329587Y62206D01*
Y65794D01*
X327794Y67587D01*
D02*
G37*
G36*
X317794D02*
X314206D01*
X312413Y65794D01*
Y62206D01*
X314206Y60413D01*
X317794D01*
X319587Y62206D01*
Y65794D01*
X317794Y67587D01*
D02*
G37*
G36*
X307794D02*
X304206D01*
X302413Y65794D01*
Y62206D01*
X304206Y60413D01*
X307794D01*
X309587Y62206D01*
Y65794D01*
X307794Y67587D01*
D02*
G37*
G36*
X287794D02*
X284206D01*
X282413Y65794D01*
Y62206D01*
X284206Y60413D01*
X287794D01*
X289587Y62206D01*
Y65794D01*
X287794Y67587D01*
D02*
G37*
G36*
X89609Y100756D02*
X88391D01*
X87214Y100441D01*
X86160Y99832D01*
X85298Y98970D01*
X84689Y97916D01*
X84374Y96739D01*
Y95521D01*
X84689Y94344D01*
X85298Y93290D01*
X86160Y92428D01*
X87214Y91819D01*
X88391Y91504D01*
X89609D01*
X89988Y91606D01*
X102797Y78797D01*
X103578Y78275D01*
X104500Y78092D01*
X241502D01*
X252844Y66750D01*
Y66225D01*
X252413Y65794D01*
Y62206D01*
X254206Y60413D01*
X257794D01*
X259587Y62206D01*
Y65794D01*
X257794Y67587D01*
X257661D01*
Y67748D01*
X257477Y68669D01*
X256955Y69451D01*
X244203Y82203D01*
X243422Y82725D01*
X242500Y82908D01*
X105498D01*
X93469Y94937D01*
X93626Y95521D01*
Y96739D01*
X93311Y97916D01*
X92702Y98970D01*
X91840Y99832D01*
X90786Y100441D01*
X89609Y100756D01*
D02*
G37*
G36*
X247794Y67587D02*
X244206D01*
X242413Y65794D01*
Y62206D01*
X244206Y60413D01*
X247794D01*
X249587Y62206D01*
Y65794D01*
X247794Y67587D01*
D02*
G37*
G36*
X237794D02*
X234206D01*
X232413Y65794D01*
Y62206D01*
X234206Y60413D01*
X237794D01*
X239587Y62206D01*
Y65794D01*
X237794Y67587D01*
D02*
G37*
G36*
X227794D02*
X224206D01*
X222413Y65794D01*
Y62206D01*
X224206Y60413D01*
X227794D01*
X229587Y62206D01*
Y65794D01*
X227794Y67587D01*
D02*
G37*
G36*
X217794D02*
X214206D01*
X212413Y65794D01*
Y62206D01*
X214206Y60413D01*
X217794D01*
X219587Y62206D01*
Y65794D01*
X217794Y67587D01*
D02*
G37*
G36*
X486698Y71087D02*
X485302D01*
X483933Y70814D01*
X482643Y70280D01*
X481483Y69504D01*
X480496Y68517D01*
X479720Y67357D01*
X479186Y66067D01*
X478913Y64698D01*
Y63302D01*
X479186Y61933D01*
X479720Y60643D01*
X480496Y59483D01*
X481483Y58495D01*
X482643Y57720D01*
X483933Y57186D01*
X485302Y56913D01*
X486698D01*
X488067Y57186D01*
X489357Y57720D01*
X490517Y58495D01*
X491504Y59483D01*
X492280Y60643D01*
X492814Y61933D01*
X493087Y63302D01*
Y64698D01*
X492814Y66067D01*
X492280Y67357D01*
X491504Y68517D01*
X490517Y69504D01*
X489357Y70280D01*
X488067Y70814D01*
X486698Y71087D01*
D02*
G37*
G36*
X161698D02*
X160302D01*
X158933Y70814D01*
X157643Y70280D01*
X156483Y69504D01*
X155496Y68517D01*
X154720Y67357D01*
X154186Y66067D01*
X153913Y64698D01*
Y63302D01*
X154186Y61933D01*
X154720Y60643D01*
X155496Y59483D01*
X156483Y58495D01*
X157643Y57720D01*
X158933Y57186D01*
X160302Y56913D01*
X161698D01*
X163067Y57186D01*
X164357Y57720D01*
X165517Y58495D01*
X166505Y59483D01*
X167280Y60643D01*
X167814Y61933D01*
X168087Y63302D01*
Y64698D01*
X167814Y66067D01*
X167280Y67357D01*
X166505Y68517D01*
X165517Y69504D01*
X164357Y70280D01*
X163067Y70814D01*
X161698Y71087D01*
D02*
G37*
G36*
X89000Y78853D02*
X88078Y78670D01*
X87297Y78148D01*
X86775Y77367D01*
X86592Y76445D01*
X86775Y75523D01*
X87297Y74742D01*
X88668Y73371D01*
X88471Y73174D01*
X88391Y73056D01*
X88308Y72940D01*
X88305Y72926D01*
X88297Y72914D01*
X88269Y72774D01*
X88236Y72635D01*
X88238Y72621D01*
X88236Y72606D01*
X88263Y72466D01*
X88286Y72326D01*
X88294Y72313D01*
X88297Y72299D01*
X88376Y72180D01*
X88451Y72059D01*
X88463Y72051D01*
X88471Y72039D01*
X88590Y71959D01*
X88705Y71876D01*
X88719Y71873D01*
X88731Y71865D01*
X88871Y71837D01*
X89010Y71804D01*
X89283Y71794D01*
X89517Y71765D01*
X89749Y71713D01*
X89981Y71639D01*
X90215Y71541D01*
X90452Y71419D01*
X90691Y71271D01*
X90933Y71095D01*
X91000Y71039D01*
X115242Y46797D01*
X116023Y46275D01*
X116945Y46091D01*
X250500D01*
X251422Y46275D01*
X252203Y46797D01*
X264381Y58975D01*
X264601Y59165D01*
X264995Y59470D01*
X265378Y59730D01*
X265748Y59946D01*
X266104Y60118D01*
X266446Y60248D01*
X266775Y60338D01*
X267090Y60391D01*
X267439Y60410D01*
X267569Y60444D01*
X267701Y60470D01*
X267720Y60483D01*
X267743Y60489D01*
X267850Y60570D01*
X267962Y60644D01*
X267974Y60663D01*
X267993Y60677D01*
X268061Y60793D01*
X268136Y60905D01*
X268140Y60927D01*
X268152Y60947D01*
X268171Y61080D01*
X268197Y61212D01*
X268192Y61235D01*
X268196Y61257D01*
X268162Y61387D01*
X268136Y61519D01*
X268123Y61538D01*
X268117Y61561D01*
X268036Y61668D01*
X267962Y61780D01*
X267574Y62168D01*
X267703Y62297D01*
X268225Y63078D01*
X268408Y64000D01*
X268225Y64922D01*
X267703Y65703D01*
X266922Y66225D01*
X266000Y66408D01*
X265078Y66225D01*
X264297Y65703D01*
X264168Y65574D01*
X263780Y65962D01*
X263668Y66036D01*
X263561Y66117D01*
X263538Y66123D01*
X263519Y66136D01*
X263387Y66162D01*
X263257Y66196D01*
X263235Y66192D01*
X263212Y66197D01*
X263080Y66171D01*
X262947Y66152D01*
X262927Y66140D01*
X262905Y66136D01*
X262793Y66061D01*
X262677Y65993D01*
X262663Y65974D01*
X262644Y65962D01*
X262570Y65850D01*
X262489Y65743D01*
X262483Y65720D01*
X262470Y65701D01*
X262444Y65570D01*
X262410Y65439D01*
X262391Y65089D01*
X262338Y64774D01*
X262248Y64446D01*
X262118Y64104D01*
X261946Y63748D01*
X261730Y63378D01*
X261477Y63005D01*
X260922Y62328D01*
X249502Y50908D01*
X117943D01*
X94406Y74445D01*
X94350Y74512D01*
X94174Y74754D01*
X94026Y74993D01*
X93904Y75230D01*
X93806Y75463D01*
X93732Y75696D01*
X93680Y75928D01*
X93650Y76162D01*
X93641Y76435D01*
X93608Y76574D01*
X93580Y76714D01*
X93572Y76726D01*
X93569Y76740D01*
X93485Y76856D01*
X93406Y76974D01*
X93394Y76982D01*
X93386Y76994D01*
X93264Y77069D01*
X93146Y77148D01*
X93131Y77151D01*
X93119Y77159D01*
X92978Y77182D01*
X92838Y77209D01*
X92824Y77206D01*
X92810Y77209D01*
X92671Y77176D01*
X92531Y77148D01*
X92519Y77140D01*
X92505Y77137D01*
X92389Y77053D01*
X92271Y76974D01*
X92074Y76777D01*
X90703Y78148D01*
X89922Y78670D01*
X89000Y78853D01*
D02*
G37*
G36*
X568500Y25621D02*
X568152Y25587D01*
X567802D01*
X567459Y25518D01*
X567111Y25484D01*
X566776Y25383D01*
X566433Y25314D01*
X566110Y25180D01*
X565775Y25079D01*
X565466Y24914D01*
X565143Y24780D01*
X564852Y24586D01*
X564544Y24421D01*
X564273Y24199D01*
X563982Y24004D01*
X563735Y23757D01*
X563465Y23535D01*
X563243Y23265D01*
X562995Y23017D01*
X562801Y22727D01*
X562579Y22456D01*
X562414Y22148D01*
X562220Y21857D01*
X562086Y21533D01*
X561921Y21225D01*
X561820Y20890D01*
X561686Y20567D01*
X561618Y20224D01*
X561516Y19889D01*
X561482Y19541D01*
X561413Y19198D01*
Y18848D01*
X561379Y18500D01*
X561413Y18152D01*
Y17802D01*
X561482Y17459D01*
X561516Y17111D01*
X561618Y16776D01*
X561686Y16433D01*
X561820Y16110D01*
X561921Y15775D01*
X562086Y15466D01*
X562220Y15143D01*
X562414Y14852D01*
X562579Y14544D01*
X562801Y14273D01*
X562995Y13983D01*
X563243Y13735D01*
X563465Y13465D01*
X563735Y13243D01*
X563982Y12995D01*
X564273Y12801D01*
X564544Y12579D01*
X564852Y12414D01*
X565143Y12220D01*
X565466Y12086D01*
X565775Y11921D01*
X566110Y11820D01*
X566433Y11686D01*
X566776Y11618D01*
X567111Y11516D01*
X567459Y11482D01*
X567802Y11413D01*
X568152D01*
X568500Y11379D01*
X568848Y11413D01*
X569198D01*
X569541Y11482D01*
X569889Y11516D01*
X570224Y11618D01*
X570567Y11686D01*
X570890Y11820D01*
X571225Y11921D01*
X571534Y12086D01*
X571857Y12220D01*
X572148Y12414D01*
X572456Y12579D01*
X572727Y12801D01*
X573018Y12995D01*
X573265Y13243D01*
X573535Y13465D01*
X573757Y13735D01*
X574005Y13983D01*
X574199Y14273D01*
X574421Y14544D01*
X574586Y14852D01*
X574780Y15143D01*
X574914Y15466D01*
X575079Y15775D01*
X575180Y16110D01*
X575314Y16433D01*
X575383Y16776D01*
X575484Y17111D01*
X575518Y17459D01*
X575587Y17802D01*
Y18152D01*
X575621Y18500D01*
X575587Y18848D01*
Y19198D01*
X575518Y19541D01*
X575484Y19889D01*
X575383Y20224D01*
X575314Y20567D01*
X575180Y20890D01*
X575079Y21225D01*
X574914Y21533D01*
X574780Y21857D01*
X574586Y22148D01*
X574421Y22456D01*
X574199Y22727D01*
X574005Y23017D01*
X573757Y23265D01*
X573535Y23535D01*
X573265Y23757D01*
X573018Y24004D01*
X572727Y24199D01*
X572456Y24421D01*
X572148Y24586D01*
X571857Y24780D01*
X571534Y24914D01*
X571225Y25079D01*
X570890Y25180D01*
X570567Y25314D01*
X570224Y25383D01*
X569889Y25484D01*
X569541Y25518D01*
X569198Y25587D01*
X568848D01*
X568500Y25621D01*
D02*
G37*
G36*
X74000D02*
X73652Y25587D01*
X73302D01*
X72959Y25518D01*
X72611Y25484D01*
X72276Y25383D01*
X71933Y25314D01*
X71610Y25180D01*
X71275Y25079D01*
X70966Y24914D01*
X70643Y24780D01*
X70352Y24586D01*
X70044Y24421D01*
X69773Y24199D01*
X69483Y24004D01*
X69235Y23757D01*
X68965Y23535D01*
X68743Y23265D01*
X68496Y23017D01*
X68301Y22727D01*
X68079Y22456D01*
X67914Y22148D01*
X67720Y21857D01*
X67586Y21533D01*
X67421Y21225D01*
X67320Y20890D01*
X67186Y20567D01*
X67118Y20224D01*
X67016Y19889D01*
X66982Y19541D01*
X66913Y19198D01*
Y18848D01*
X66879Y18500D01*
X66913Y18152D01*
Y17802D01*
X66982Y17459D01*
X67016Y17111D01*
X67118Y16776D01*
X67186Y16433D01*
X67320Y16110D01*
X67421Y15775D01*
X67586Y15466D01*
X67720Y15143D01*
X67914Y14852D01*
X68079Y14544D01*
X68301Y14273D01*
X68496Y13983D01*
X68743Y13735D01*
X68965Y13465D01*
X69235Y13243D01*
X69483Y12995D01*
X69773Y12801D01*
X70044Y12579D01*
X70352Y12414D01*
X70643Y12220D01*
X70966Y12086D01*
X71275Y11921D01*
X71610Y11820D01*
X71933Y11686D01*
X72276Y11618D01*
X72611Y11516D01*
X72959Y11482D01*
X73302Y11413D01*
X73652D01*
X74000Y11379D01*
X74348Y11413D01*
X74698D01*
X75041Y11482D01*
X75389Y11516D01*
X75724Y11618D01*
X76067Y11686D01*
X76390Y11820D01*
X76725Y11921D01*
X77034Y12086D01*
X77357Y12220D01*
X77648Y12414D01*
X77956Y12579D01*
X78227Y12801D01*
X78517Y12995D01*
X78765Y13243D01*
X79035Y13465D01*
X79257Y13735D01*
X79505Y13983D01*
X79699Y14273D01*
X79921Y14544D01*
X80086Y14852D01*
X80280Y15143D01*
X80414Y15466D01*
X80579Y15775D01*
X80680Y16110D01*
X80814Y16433D01*
X80883Y16776D01*
X80984Y17111D01*
X81018Y17459D01*
X81087Y17802D01*
Y18152D01*
X81121Y18500D01*
X81087Y18848D01*
Y19198D01*
X81018Y19541D01*
X80984Y19889D01*
X80883Y20224D01*
X80814Y20567D01*
X80680Y20890D01*
X80579Y21225D01*
X80414Y21533D01*
X80280Y21857D01*
X80086Y22148D01*
X79921Y22456D01*
X79699Y22727D01*
X79505Y23017D01*
X79257Y23265D01*
X79035Y23535D01*
X78765Y23757D01*
X78517Y24004D01*
X78227Y24199D01*
X77956Y24421D01*
X77648Y24586D01*
X77357Y24780D01*
X77034Y24914D01*
X76725Y25079D01*
X76390Y25180D01*
X76067Y25314D01*
X75724Y25383D01*
X75389Y25484D01*
X75041Y25518D01*
X74698Y25587D01*
X74348D01*
X74000Y25621D01*
D02*
G37*
%LPD*%
G36*
X92849Y76097D02*
X92889Y75790D01*
X92956Y75487D01*
X93052Y75187D01*
X93175Y74890D01*
X93327Y74596D01*
X93508Y74306D01*
X93716Y74019D01*
X93953Y73735D01*
X94217Y73454D01*
X91990Y71227D01*
X91710Y71492D01*
X91426Y71729D01*
X91139Y71937D01*
X90849Y72118D01*
X90555Y72269D01*
X90258Y72393D01*
X89958Y72489D01*
X89655Y72556D01*
X89348Y72596D01*
X89038Y72606D01*
X92838Y76407D01*
X92849Y76097D01*
D02*
G37*
G36*
X267394Y61212D02*
X267000Y61190D01*
X266601Y61123D01*
X266197Y61012D01*
X265787Y60856D01*
X265371Y60655D01*
X264950Y60410D01*
X264524Y60121D01*
X264092Y59787D01*
X263655Y59408D01*
X263212Y58985D01*
X260985Y61212D01*
X261408Y61655D01*
X262121Y62524D01*
X262410Y62950D01*
X262655Y63371D01*
X262856Y63787D01*
X263012Y64197D01*
X263123Y64601D01*
X263190Y65000D01*
X263212Y65394D01*
X267394Y61212D01*
D02*
G37*
D41*
X116945Y48500D02*
X250500D01*
X89000Y76445D02*
X116945Y48500D01*
X250500D02*
X266000Y64000D01*
X255252Y64748D02*
X256000Y64000D01*
X242500Y80500D02*
X255252Y67748D01*
X104500Y80500D02*
X242500D01*
X255252Y64748D02*
Y67748D01*
X89000Y96000D02*
X104500Y80500D01*
X89000Y96000D02*
Y96130D01*
X370749Y91500D02*
X436500D01*
X369588Y92661D02*
X370749Y91500D01*
X362412Y92661D02*
X369588D01*
X436500Y91500D02*
X456000Y72000D01*
X361251Y91500D02*
X362412Y92661D01*
X113315Y91500D02*
X361251D01*
X89000Y115815D02*
X113315Y91500D01*
X456000Y64000D02*
Y72000D01*
X409000Y135500D02*
X466000Y78500D01*
X89000Y135500D02*
X409000D01*
X466000Y64000D02*
Y78500D01*
X291685Y155185D02*
X297000Y160500D01*
X89000Y155185D02*
X291685D01*
X297000Y160500D02*
X312500D01*
X89000Y174870D02*
X309370D01*
X376000Y241500D02*
Y254000D01*
X309370Y174870D02*
X376000Y241500D01*
X386000Y234000D02*
Y254000D01*
X312500Y160500D02*
X386000Y234000D01*
X89000Y194555D02*
X99945Y205500D01*
X316500D01*
X356000Y245000D02*
Y254000D01*
X316500Y205500D02*
X356000Y245000D01*
X98760Y224000D02*
X316000D01*
X89000Y214240D02*
X98760Y224000D01*
X316000D02*
X346000Y254000D01*
X452000Y250751D02*
X468751Y234000D01*
X340500Y479000D02*
X452000Y367500D01*
Y250751D02*
Y367500D01*
X198500Y479000D02*
X340500D01*
X170500Y507000D02*
Y516000D01*
Y507000D02*
X198500Y479000D01*
X468751Y234000D02*
X476000D01*
X348500Y493500D02*
X469661Y372339D01*
X200500Y493500D02*
X348500D01*
X180500Y516000D02*
X181095Y515405D01*
Y512905D02*
Y515405D01*
Y512905D02*
X200500Y493500D01*
X469661Y250339D02*
Y372339D01*
Y250339D02*
X476000Y244000D01*
D43*
X74000Y18500D02*
D03*
X568500D02*
D03*
X569500Y530500D02*
D03*
X71000Y532000D02*
D03*
D44*
X89000Y76445D02*
D03*
Y96130D02*
D03*
Y115815D02*
D03*
Y135500D02*
D03*
Y155185D02*
D03*
Y174870D02*
D03*
Y194555D02*
D03*
X551500Y96842D02*
D03*
D45*
X89000Y214240D02*
D03*
X551500Y77157D02*
D03*
D46*
X266000Y64000D02*
D03*
X276000D02*
D03*
X256000D02*
D03*
X456000D02*
D03*
X466000D02*
D03*
X356000Y254000D02*
D03*
X386000D02*
D03*
X346000D02*
D03*
X376000D02*
D03*
X446000Y64000D02*
D03*
X436000D02*
D03*
X426000D02*
D03*
X416000D02*
D03*
X406000D02*
D03*
X396000D02*
D03*
X376000D02*
D03*
X366000D02*
D03*
X356000D02*
D03*
X346000D02*
D03*
X336000D02*
D03*
X326000D02*
D03*
X316000D02*
D03*
X306000D02*
D03*
X446000Y254000D02*
D03*
X436000D02*
D03*
X426000D02*
D03*
X416000D02*
D03*
X406000D02*
D03*
X396000D02*
D03*
X286000Y64000D02*
D03*
X246000D02*
D03*
X236000D02*
D03*
X226000D02*
D03*
X216000D02*
D03*
X286000Y254000D02*
D03*
X296000D02*
D03*
X306000D02*
D03*
X316000D02*
D03*
X326000D02*
D03*
X336000D02*
D03*
X180000D02*
D03*
X190000D02*
D03*
X200000D02*
D03*
X210000D02*
D03*
X220000D02*
D03*
X230000D02*
D03*
X240000D02*
D03*
X250000D02*
D03*
X260000D02*
D03*
X270000D02*
D03*
D47*
X241000Y516894D02*
D03*
X231000Y516500D02*
D03*
X221000D02*
D03*
X170500Y516000D02*
D03*
X180500D02*
D03*
X190500Y516394D02*
D03*
X123000Y516000D02*
D03*
X133000D02*
D03*
X143000Y516394D02*
D03*
X556394Y126000D02*
D03*
X556000Y136000D02*
D03*
Y146000D02*
D03*
X557500Y232500D02*
D03*
X557106Y242500D02*
D03*
Y252500D02*
D03*
X556394Y180500D02*
D03*
X556000Y190500D02*
D03*
Y200500D02*
D03*
D48*
X211000Y516500D02*
D03*
X160500Y516000D02*
D03*
X113000D02*
D03*
D49*
X118000Y317000D02*
D03*
X90441D02*
D03*
X340500Y426500D02*
D03*
X368059D02*
D03*
X446500Y425000D02*
D03*
X474059D02*
D03*
X236500Y429000D02*
D03*
X264059D02*
D03*
D50*
X486000Y144000D02*
D03*
Y134000D02*
D03*
Y124000D02*
D03*
Y114000D02*
D03*
Y164000D02*
D03*
Y184000D02*
D03*
Y154000D02*
D03*
Y174000D02*
D03*
Y194000D02*
D03*
X476000Y84000D02*
D03*
Y94000D02*
D03*
Y104000D02*
D03*
Y114000D02*
D03*
Y124000D02*
D03*
Y134000D02*
D03*
Y144000D02*
D03*
Y154000D02*
D03*
Y164000D02*
D03*
Y174000D02*
D03*
Y184000D02*
D03*
Y194000D02*
D03*
Y204000D02*
D03*
Y214000D02*
D03*
Y224000D02*
D03*
Y234000D02*
D03*
Y244000D02*
D03*
Y254000D02*
D03*
X486000Y104000D02*
D03*
Y254000D02*
D03*
Y244000D02*
D03*
Y234000D02*
D03*
Y224000D02*
D03*
Y214000D02*
D03*
Y204000D02*
D03*
Y94000D02*
D03*
Y84000D02*
D03*
D51*
X556000Y156000D02*
D03*
X557106Y262500D02*
D03*
X556000Y210500D02*
D03*
D52*
X366000Y84000D02*
D03*
Y194000D02*
D03*
X161000Y64000D02*
D03*
X461000Y254000D02*
D03*
X166000D02*
D03*
X486000Y64000D02*
D03*
D53*
X198200Y122000D02*
D03*
X208200D02*
D03*
X198200Y112000D02*
D03*
X208200D02*
D03*
X198200Y102000D02*
D03*
X208200D02*
D03*
X366500Y154000D02*
D03*
X356500D02*
D03*
X366500Y164000D02*
D03*
X356500D02*
D03*
X366500Y174000D02*
D03*
X356500D02*
D03*
D54*
X551181Y511811D02*
D03*
X570866Y472441D02*
D03*
X551181Y433071D02*
D03*
X570866Y393701D02*
D03*
X551181Y354331D02*
D03*
X570866Y314961D02*
D03*
X551181Y275591D02*
D03*
X570866Y157480D02*
D03*
X551181Y118110D02*
D03*
X570866Y78740D02*
D03*
X551181Y39370D02*
D03*
X511811Y511811D02*
D03*
X531496Y472441D02*
D03*
X511811Y433071D02*
D03*
X531496Y393701D02*
D03*
X511811Y354331D02*
D03*
X531496Y314961D02*
D03*
X511811Y275591D02*
D03*
X531496Y78740D02*
D03*
X511811Y39370D02*
D03*
X472441Y511811D02*
D03*
X492126Y393701D02*
D03*
Y314961D02*
D03*
Y78740D02*
D03*
X472441Y39370D02*
D03*
X433071Y511811D02*
D03*
X452756Y472441D02*
D03*
X433071Y433071D02*
D03*
Y354331D02*
D03*
Y275591D02*
D03*
X452756Y236221D02*
D03*
X433071Y196850D02*
D03*
X452756Y157480D02*
D03*
X433071Y118110D02*
D03*
Y39370D02*
D03*
X393701Y511811D02*
D03*
Y433071D02*
D03*
X413386Y393701D02*
D03*
X393701Y354331D02*
D03*
X413386Y314961D02*
D03*
X393701Y275591D02*
D03*
X413386Y236221D02*
D03*
X393701Y196850D02*
D03*
X413386Y157480D02*
D03*
X393701Y118110D02*
D03*
X413386Y78740D02*
D03*
X393701Y39370D02*
D03*
X354331Y511811D02*
D03*
Y433071D02*
D03*
X374016Y393701D02*
D03*
X354331Y354331D02*
D03*
Y275591D02*
D03*
Y196850D02*
D03*
X374016Y157480D02*
D03*
X354331Y118110D02*
D03*
X374016Y78740D02*
D03*
X354331Y39370D02*
D03*
X314961Y511811D02*
D03*
Y433071D02*
D03*
X334646Y393701D02*
D03*
X314961Y354331D02*
D03*
X334646Y314961D02*
D03*
Y236221D02*
D03*
X314961Y196850D02*
D03*
X334646Y157480D02*
D03*
X314961Y118110D02*
D03*
X334646Y78740D02*
D03*
X314961Y39370D02*
D03*
X275591Y511811D02*
D03*
Y433071D02*
D03*
X295276Y393701D02*
D03*
Y314961D02*
D03*
Y236221D02*
D03*
X275591Y196850D02*
D03*
X295276Y78740D02*
D03*
X275591Y39370D02*
D03*
X236221Y511811D02*
D03*
X255906Y393701D02*
D03*
X236221Y354331D02*
D03*
Y275591D02*
D03*
X255906Y236221D02*
D03*
X236221Y196850D02*
D03*
Y118110D02*
D03*
X255906Y78740D02*
D03*
X236221Y39370D02*
D03*
X216535Y472441D02*
D03*
X196850Y433071D02*
D03*
X216535Y393701D02*
D03*
Y314961D02*
D03*
X196850Y275591D02*
D03*
X216535Y236221D02*
D03*
X196850Y39370D02*
D03*
X177165Y472441D02*
D03*
X157480Y433071D02*
D03*
X177165Y393701D02*
D03*
X157480Y354331D02*
D03*
Y275591D02*
D03*
X177165Y236221D02*
D03*
X157480Y196850D02*
D03*
Y118110D02*
D03*
Y39370D02*
D03*
X137795Y472441D02*
D03*
X118110Y433071D02*
D03*
X137795Y393701D02*
D03*
X118110Y354331D02*
D03*
Y275591D02*
D03*
X137795Y236221D02*
D03*
X118110Y196850D02*
D03*
Y118110D02*
D03*
Y39370D02*
D03*
X78740Y511811D02*
D03*
X98425Y472441D02*
D03*
X78740Y433071D02*
D03*
X98425Y393701D02*
D03*
X78740Y354331D02*
D03*
Y275591D02*
D03*
X98425Y236221D02*
D03*
X78740Y196850D02*
D03*
Y118110D02*
D03*
X98425Y78740D02*
D03*
X78740Y39370D02*
D03*
M02*
