G04*
G04 #@! TF.GenerationSoftware,Altium Limited,Altium Designer,21.7.2 (23)*
G04*
G04 Layer_Color=32896*
%FSLAX25Y25*%
%MOIN*%
G70*
G04*
G04 #@! TF.SameCoordinates,C9020EFE-5469-4C63-B031-BAE70B3800EC*
G04*
G04*
G04 #@! TF.FilePolarity,Positive*
G04*
G01*
G75*
%ADD11C,0.00500*%
%ADD12C,0.01000*%
%ADD49C,0.01102*%
D11*
X242315Y375252D02*
Y407929D01*
X281685D01*
Y375252D02*
Y407929D01*
X242315Y375252D02*
X281685D01*
X294315D02*
Y407929D01*
X333685D01*
Y375252D02*
Y407929D01*
X294315Y375252D02*
X333685D01*
X190736Y374752D02*
Y407429D01*
X230106D01*
Y374752D02*
Y407429D01*
X190736Y374752D02*
X230106D01*
D12*
X344500Y335499D02*
Y341497D01*
X342501Y339498D01*
X340501Y341497D01*
Y335499D01*
X337502Y339498D02*
X335503D01*
X334503Y338498D01*
Y335499D01*
X337502D01*
X338502Y336499D01*
X337502Y337499D01*
X334503D01*
X332504Y339498D02*
Y335499D01*
Y337499D01*
X331504Y338498D01*
X330504Y339498D01*
X329505D01*
X325506Y340498D02*
Y339498D01*
X326506D01*
X324506D01*
X325506D01*
Y336499D01*
X324506Y335499D01*
X311511D02*
X315509D01*
X311511Y339498D01*
Y340498D01*
X312510Y341497D01*
X314510D01*
X315509Y340498D01*
X309511D02*
X308512Y341497D01*
X306512D01*
X305513Y340498D01*
Y336499D01*
X306512Y335499D01*
X308512D01*
X309511Y336499D01*
Y340498D01*
X299515Y335499D02*
X303513D01*
X299515Y339498D01*
Y340498D01*
X300514Y341497D01*
X302514D01*
X303513Y340498D01*
X293516Y335499D02*
X297515D01*
X293516Y339498D01*
Y340498D01*
X294516Y341497D01*
X296515D01*
X297515Y340498D01*
X290517Y334500D02*
X289518Y335499D01*
Y336499D01*
X290517D01*
Y335499D01*
X289518D01*
X290517Y334500D01*
X291517Y333500D01*
X279521Y341497D02*
X275522D01*
X277522D01*
Y335499D01*
X270524D02*
X272523D01*
X273523Y336499D01*
Y338498D01*
X272523Y339498D01*
X270524D01*
X269524Y338498D01*
Y337499D01*
X273523D01*
X267525Y333500D02*
Y339498D01*
X264526D01*
X263526Y338498D01*
Y336499D01*
X264526Y335499D01*
X267525D01*
X258528D02*
X260527D01*
X261527Y336499D01*
Y338498D01*
X260527Y339498D01*
X258528D01*
X257528Y338498D01*
Y337499D01*
X261527D01*
X249531Y341497D02*
Y335499D01*
X245532D01*
X242533Y339498D02*
X240534D01*
X239534Y338498D01*
Y335499D01*
X242533D01*
X243533Y336499D01*
X242533Y337499D01*
X239534D01*
X237535Y335499D02*
Y339498D01*
X236535D01*
X235535Y338498D01*
Y335499D01*
Y338498D01*
X234536Y339498D01*
X233536Y338498D01*
Y335499D01*
X231537Y341497D02*
Y335499D01*
X228538D01*
X227538Y336499D01*
Y337499D01*
Y338498D01*
X228538Y339498D01*
X231537D01*
X224539D02*
X222539D01*
X221540Y338498D01*
Y335499D01*
X224539D01*
X225538Y336499D01*
X224539Y337499D01*
X221540D01*
X219540Y335499D02*
X216541D01*
X215542Y336499D01*
X216541Y337499D01*
X218541D01*
X219540Y338498D01*
X218541Y339498D01*
X215542D01*
X213542Y335499D02*
X211543D01*
X212543D01*
Y339498D01*
X213542D01*
X202546Y341497D02*
Y337499D01*
X200547Y335499D01*
X198547Y337499D01*
Y341497D01*
X196548Y335499D02*
X194548D01*
X195548D01*
Y341497D01*
X196548Y340498D01*
X191550Y335499D02*
Y336499D01*
X190550D01*
Y335499D01*
X191550D01*
X186551Y340498D02*
X185551Y341497D01*
X183552D01*
X182552Y340498D01*
Y336499D01*
X183552Y335499D01*
X185551D01*
X186551Y336499D01*
Y340498D01*
X196401Y425598D02*
X198401D01*
X197401D01*
Y420600D01*
X198401Y419600D01*
X199400D01*
X200400Y420600D01*
X194402Y424598D02*
X193402Y425598D01*
X191403D01*
X190403Y424598D01*
Y423599D01*
X191403Y422599D01*
X190403Y421599D01*
Y420600D01*
X191403Y419600D01*
X193402D01*
X194402Y420600D01*
Y421599D01*
X193402Y422599D01*
X194402Y423599D01*
Y424598D01*
X193402Y422599D02*
X191403D01*
X299901Y426098D02*
X301901D01*
X300901D01*
Y421100D01*
X301901Y420100D01*
X302900D01*
X303900Y421100D01*
X297902Y426098D02*
X293903D01*
Y425098D01*
X297902Y421100D01*
Y420100D01*
X247901Y426098D02*
X249901D01*
X248901D01*
Y421100D01*
X249901Y420100D01*
X250900D01*
X251900Y421100D01*
X241903Y426098D02*
X243903Y425098D01*
X245902Y423099D01*
Y421100D01*
X244902Y420100D01*
X242903D01*
X241903Y421100D01*
Y422099D01*
X242903Y423099D01*
X245902D01*
D49*
X247590Y385094D02*
G03*
X247590Y385094I-551J0D01*
G01*
X299590D02*
G03*
X299590Y385094I-551J0D01*
G01*
X196012Y384594D02*
G03*
X196012Y384594I-551J0D01*
G01*
M02*
