G04*
G04 #@! TF.GenerationSoftware,Altium Limited,Altium Designer,21.7.2 (23)*
G04*
G04 Layer_Color=8421504*
%FSLAX25Y25*%
%MOIN*%
G70*
G04*
G04 #@! TF.SameCoordinates,1BAC81EE-5B99-4A96-87E3-02ACC132FAAA*
G04*
G04*
G04 #@! TF.FilePolarity,Positive*
G04*
G01*
G75*
%ADD13R,0.05709X0.11417*%
G04:AMPARAMS|DCode=14|XSize=25.59mil|YSize=35.43mil|CornerRadius=0mil|HoleSize=0mil|Usage=FLASHONLY|Rotation=40.000|XOffset=0mil|YOffset=0mil|HoleType=Round|Shape=Rectangle|*
%AMROTATEDRECTD14*
4,1,4,0.00159,-0.02180,-0.02119,0.00535,-0.00159,0.02180,0.02119,-0.00535,0.00159,-0.02180,0.0*
%
%ADD14ROTATEDRECTD14*%

%ADD15R,0.02559X0.03543*%
G36*
X165740Y327709D02*
X158260D01*
Y329283D01*
X165740D01*
Y327709D01*
D02*
G37*
G36*
Y319441D02*
X158260D01*
Y324559D01*
X165740D01*
Y319441D01*
D02*
G37*
G36*
X186371Y285801D02*
X180641Y280993D01*
X179629Y282199D01*
X185359Y287007D01*
X186371Y285801D01*
D02*
G37*
G36*
X191686Y279468D02*
X185955Y274659D01*
X182666Y278580D01*
X188396Y283388D01*
X191686Y279468D01*
D02*
G37*
G36*
X218426Y254593D02*
X214686Y248115D01*
X213322Y248903D01*
X217062Y255381D01*
X218426Y254593D01*
D02*
G37*
G36*
X225586Y250460D02*
X221846Y243981D01*
X217414Y246540D01*
X221154Y253019D01*
X225586Y250460D01*
D02*
G37*
G36*
X170965Y379394D02*
X163484D01*
Y380968D01*
X170965D01*
Y379394D01*
D02*
G37*
G36*
Y371126D02*
X163484D01*
Y376244D01*
X170965D01*
Y371126D01*
D02*
G37*
G36*
X254740Y354012D02*
X247260D01*
Y357358D01*
X254740D01*
Y354012D01*
D02*
G37*
G36*
X253362Y348500D02*
X248638D01*
Y353224D01*
X253362D01*
Y348500D01*
D02*
G37*
G36*
X258087Y339642D02*
X255724D01*
Y343579D01*
X258087D01*
Y339642D01*
D02*
G37*
G36*
X252181D02*
X249819D01*
Y343579D01*
X252181D01*
Y339642D01*
D02*
G37*
G36*
X246276D02*
X243913D01*
Y343579D01*
X246276D01*
Y339642D01*
D02*
G37*
G36*
X364740Y381709D02*
X357260D01*
Y383283D01*
X364740D01*
Y381709D01*
D02*
G37*
G36*
Y373441D02*
X357260D01*
Y378559D01*
X364740D01*
Y373441D01*
D02*
G37*
G36*
X293240Y353512D02*
X285760D01*
Y356858D01*
X293240D01*
Y353512D01*
D02*
G37*
G36*
X291862Y348000D02*
X287138D01*
Y352724D01*
X291862D01*
Y348000D01*
D02*
G37*
G36*
X296587Y339142D02*
X294224D01*
Y343079D01*
X296587D01*
Y339142D01*
D02*
G37*
G36*
X290681D02*
X288319D01*
Y343079D01*
X290681D01*
Y339142D01*
D02*
G37*
G36*
X284776D02*
X282413D01*
Y343079D01*
X284776D01*
Y339142D01*
D02*
G37*
G36*
X371506Y323065D02*
X370967Y321585D01*
X363938Y324144D01*
X364476Y325623D01*
X371506Y323065D01*
D02*
G37*
G36*
X369890Y318625D02*
X368139Y313816D01*
X361110Y316374D01*
X362861Y321184D01*
X369890Y318625D01*
D02*
G37*
G36*
X344233Y272306D02*
X340943Y268385D01*
X335213Y273194D01*
X338503Y277114D01*
X344233Y272306D01*
D02*
G37*
G36*
X338918Y265973D02*
X337906Y264766D01*
X332176Y269575D01*
X333188Y270781D01*
X338918Y265973D01*
D02*
G37*
G36*
X295327Y239776D02*
X290209D01*
Y247256D01*
X295327D01*
Y239776D01*
D02*
G37*
G36*
X287059D02*
X285484D01*
Y247256D01*
X287059D01*
Y239776D01*
D02*
G37*
D13*
X316409Y345000D02*
D03*
X342590D02*
D03*
X199909Y345500D02*
D03*
X226091D02*
D03*
D14*
X193597Y298118D02*
D03*
X189224Y294449D02*
D03*
D15*
X358146Y393000D02*
D03*
X363854D02*
D03*
X169354Y392000D02*
D03*
X163646D02*
D03*
X269913Y244516D02*
D03*
X275622D02*
D03*
M02*
