M48
;Layer_Color=9474304
;FILE_FORMAT=2:4
INCH,TZ
;TYPE=PLATED
T1F00S00C0.0118
T2F00S00C0.0280
T3F00S00C0.0354
T4F00S00C0.0512
%
T01
X17717Y27559
X21654
X25591
X29528
X27559Y23622
X23622
Y31496
X27559
X19685
X15748
X17717Y35433
X21654
X23622Y39370
X25591Y43307
X29528
X21654
X31496Y39370
X33465Y35433
X37402
X35433Y31496
X31496
T02
X24400Y33900
X25900Y33850
X29750
X35600Y39550
T03
X25604Y30400
X28596
T04
X20058Y39050
X22026
X25216Y39100
X27184
X30416
X32384
M30
