G04*
G04 #@! TF.GenerationSoftware,Altium Limited,Altium Designer,21.7.2 (23)*
G04*
G04 Layer_Color=16711935*
%FSLAX25Y25*%
%MOIN*%
G70*
G04*
G04 #@! TF.SameCoordinates,14A67933-5EF9-4AFF-BA5B-A8FCC5FD6F51*
G04*
G04*
G04 #@! TF.FilePolarity,Positive*
G04*
G01*
G75*
%ADD10C,0.00787*%
%ADD11C,0.00500*%
%ADD12C,0.01000*%
%ADD50C,0.01102*%
D10*
X260988Y356476D02*
G03*
X260988Y356476I-394J0D01*
G01*
X293488Y355476D02*
G03*
X293488Y355476I-394J0D01*
G01*
D11*
X290165Y317000D02*
G03*
X290165Y317000I-27165J0D01*
G01*
X329094Y431874D02*
X334999Y442102D01*
X317952Y451945D02*
X334999Y442102D01*
X312046Y441716D02*
X317952Y451945D01*
X312046Y441716D02*
X329094Y431874D01*
X341098Y358201D02*
Y370799D01*
X315902Y358201D02*
Y370799D01*
Y358201D02*
X341098D01*
X315902Y370799D02*
X341098D01*
X149150Y421256D02*
X158197Y413664D01*
X170851Y428744D01*
X161803Y436336D02*
X170851Y428744D01*
X149150Y421256D02*
X161803Y436336D01*
X233658Y427429D02*
X273028D01*
Y394752D02*
Y427429D01*
X233658Y394752D02*
X273028D01*
X233658D02*
Y427429D01*
X185315Y427929D02*
X224685D01*
Y395252D02*
Y427929D01*
X185315Y395252D02*
X224685D01*
X185315D02*
Y427929D01*
X283815Y427429D02*
X323185D01*
Y394752D02*
Y427429D01*
X283815Y394752D02*
X323185D01*
X283815D02*
Y427429D01*
X196811Y362701D02*
Y375299D01*
X222008Y362701D02*
Y375299D01*
X196811D02*
X222008D01*
X196811Y362701D02*
X222008D01*
X263358Y363079D02*
Y372921D01*
X245642D02*
X263358D01*
X245642Y363079D02*
Y372921D01*
Y363079D02*
X263358D01*
X295858Y362079D02*
Y371921D01*
X278142D02*
X295858D01*
X278142Y362079D02*
Y371921D01*
Y362079D02*
X295858D01*
X306622Y449668D02*
X308197Y452395D01*
X299803Y453605D02*
X301378Y456332D01*
X299803Y453605D02*
X306622Y449668D01*
X301378Y456332D02*
X308197Y452395D01*
X348105Y407303D02*
X350832Y408878D01*
X344168Y414122D02*
X346895Y415697D01*
X344168Y414122D02*
X348105Y407303D01*
X346895Y415697D02*
X350832Y408878D01*
X371674Y344839D02*
X374633Y343762D01*
X374367Y352238D02*
X377326Y351161D01*
X371674Y344839D02*
X374367Y352238D01*
X374633Y343762D02*
X377326Y351161D01*
X340303Y290395D02*
X341878Y287668D01*
X347122Y294332D02*
X348697Y291605D01*
X340303Y290395D02*
X347122Y294332D01*
X341878Y287668D02*
X348697Y291605D01*
X269563Y264925D02*
Y268075D01*
X277437Y264925D02*
Y268075D01*
X269563D02*
X277437D01*
X269563Y264925D02*
X277437D01*
X190972Y281324D02*
X192996Y283737D01*
X197004Y276263D02*
X199028Y278676D01*
X192996Y283737D02*
X199028Y278676D01*
X190972Y281324D02*
X197004Y276263D01*
X150425Y381063D02*
X153575D01*
X150425Y388937D02*
X153575D01*
X150425Y381063D02*
Y388937D01*
X153575Y381063D02*
Y388937D01*
X174263Y443996D02*
X176676Y441972D01*
X179324Y450028D02*
X181737Y448004D01*
X174263Y443996D02*
X179324Y450028D01*
X176676Y441972D02*
X181737Y448004D01*
X228000Y317000D02*
X233000D01*
X230500Y314500D02*
Y319500D01*
X293500Y317000D02*
X298500D01*
X362307Y380523D02*
X372536Y386429D01*
X362693Y403477D02*
X372536Y386429D01*
X352464Y397571D02*
X362693Y403477D01*
X352464Y397571D02*
X362307Y380523D01*
X358584Y319271D02*
X369683Y315231D01*
X376416Y333729D01*
X365317Y337769D02*
X376416Y333729D01*
X358584Y319271D02*
X365317Y337769D01*
X315523Y281193D02*
X321429Y270964D01*
X338477Y280807D01*
X332571Y291036D02*
X338477Y280807D01*
X315523Y281193D02*
X332571Y291036D01*
X239158Y260595D02*
Y272406D01*
Y260595D02*
X258842D01*
Y272406D01*
X239158D02*
X258842D01*
X166164Y295303D02*
X173756Y304350D01*
X166164Y295303D02*
X181244Y282649D01*
X188836Y291697D01*
X173756Y304350D02*
X188836Y291697D01*
X146095Y342465D02*
X157905D01*
Y362150D01*
X146095D02*
X157905D01*
X146095Y342465D02*
Y362150D01*
D12*
X233292Y430552D02*
Y433893D01*
X234962Y435563D01*
X236633Y433893D01*
Y430552D01*
X238303Y435563D02*
Y432223D01*
X239973Y430552D01*
X241644Y432223D01*
Y435563D01*
Y433058D01*
X238303D01*
X243314Y430552D02*
Y435563D01*
X246655D01*
X248325Y430552D02*
Y434728D01*
X249160Y435563D01*
X250831D01*
X251666Y434728D01*
Y430552D01*
X256677D02*
X253336D01*
Y435563D01*
X256677D01*
X253336Y433058D02*
X255006D01*
X233315Y390472D02*
Y385467D01*
X236652Y390472D01*
Y385467D01*
X238320Y390472D02*
Y387135D01*
X239989Y385467D01*
X241657Y387135D01*
Y390472D01*
Y387970D01*
X238320D01*
X243325Y390472D02*
Y385467D01*
X244994Y387135D01*
X246662Y385467D01*
Y390472D01*
X251668Y385467D02*
X248331D01*
Y390472D01*
X251668D01*
X248331Y387970D02*
X249999D01*
X184950Y431052D02*
Y434393D01*
X186620Y436063D01*
X188290Y434393D01*
Y431052D01*
X189961Y436063D02*
Y432723D01*
X191631Y431052D01*
X193301Y432723D01*
Y436063D01*
Y433558D01*
X189961D01*
X194972Y431052D02*
Y436063D01*
X198312D01*
X199983Y431052D02*
Y435228D01*
X200818Y436063D01*
X202488D01*
X203323Y435228D01*
Y431052D01*
X208334D02*
X204994D01*
Y436063D01*
X208334D01*
X204994Y433558D02*
X206664D01*
X184972Y390972D02*
Y385967D01*
X188309Y390972D01*
Y385967D01*
X189978Y390972D02*
Y387635D01*
X191646Y385967D01*
X193315Y387635D01*
Y390972D01*
Y388470D01*
X189978D01*
X194983Y390972D02*
Y385967D01*
X196651Y387635D01*
X198320Y385967D01*
Y390972D01*
X203325Y385967D02*
X199988D01*
Y390972D01*
X203325D01*
X199988Y388470D02*
X201657D01*
X283450Y430552D02*
Y433893D01*
X285120Y435563D01*
X286790Y433893D01*
Y430552D01*
X288460Y435563D02*
Y432223D01*
X290131Y430552D01*
X291801Y432223D01*
Y435563D01*
Y433058D01*
X288460D01*
X293472Y430552D02*
Y435563D01*
X296812D01*
X298482Y430552D02*
Y434728D01*
X299318Y435563D01*
X300988D01*
X301823Y434728D01*
Y430552D01*
X306834D02*
X303494D01*
Y435563D01*
X306834D01*
X303494Y433058D02*
X305164D01*
X283472Y390472D02*
Y385467D01*
X286809Y390472D01*
Y385467D01*
X288478Y390472D02*
Y387135D01*
X290146Y385467D01*
X291814Y387135D01*
Y390472D01*
Y387970D01*
X288478D01*
X293483Y390472D02*
Y385467D01*
X295151Y387135D01*
X296820Y385467D01*
Y390472D01*
X301825Y385467D02*
X298488D01*
Y390472D01*
X301825D01*
X298488Y387970D02*
X300157D01*
D50*
X238933Y404595D02*
G03*
X238933Y404595I-551J0D01*
G01*
X190591Y405094D02*
G03*
X190591Y405094I-551J0D01*
G01*
X289090Y404595D02*
G03*
X289090Y404595I-551J0D01*
G01*
M02*
