G04*
G04 #@! TF.GenerationSoftware,Altium Limited,Altium Designer,21.7.2 (23)*
G04*
G04 Layer_Color=32896*
%FSLAX25Y25*%
%MOIN*%
G70*
G04*
G04 #@! TF.SameCoordinates,14A67933-5EF9-4AFF-BA5B-A8FCC5FD6F51*
G04*
G04*
G04 #@! TF.FilePolarity,Positive*
G04*
G01*
G75*
%ADD11C,0.00500*%
%ADD12C,0.01000*%
%ADD50C,0.01102*%
D11*
X233658Y394752D02*
Y427429D01*
X273028D01*
Y394752D02*
Y427429D01*
X233658Y394752D02*
X273028D01*
X185315Y395252D02*
Y427929D01*
X224685D01*
Y395252D02*
Y427929D01*
X185315Y395252D02*
X224685D01*
X283815Y394752D02*
Y427429D01*
X323185D01*
Y394752D02*
Y427429D01*
X283815Y394752D02*
X323185D01*
D12*
X190901Y446098D02*
X192901D01*
X191901D01*
Y441100D01*
X192901Y440100D01*
X193900D01*
X194900Y441100D01*
X184903Y446098D02*
X188902D01*
Y443099D01*
X186903Y444099D01*
X185903D01*
X184903Y443099D01*
Y441100D01*
X185903Y440100D01*
X187902D01*
X188902Y441100D01*
X289401Y445598D02*
X291401D01*
X290401D01*
Y440600D01*
X291401Y439600D01*
X292400D01*
X293400Y440600D01*
X284403Y439600D02*
Y445598D01*
X287402Y442599D01*
X283403D01*
X239301Y445598D02*
X241301D01*
X240301D01*
Y440600D01*
X241301Y439600D01*
X242300D01*
X243300Y440600D01*
X237302Y444598D02*
X236302Y445598D01*
X234303D01*
X233303Y444598D01*
Y443599D01*
X234303Y442599D01*
X235303D01*
X234303D01*
X233303Y441599D01*
Y440600D01*
X234303Y439600D01*
X236302D01*
X237302Y440600D01*
D50*
X238933Y404595D02*
G03*
X238933Y404595I-551J0D01*
G01*
X190591Y405094D02*
G03*
X190591Y405094I-551J0D01*
G01*
X289090Y404595D02*
G03*
X289090Y404595I-551J0D01*
G01*
M02*
