G04*
G04 #@! TF.GenerationSoftware,Altium Limited,Altium Designer,21.7.2 (23)*
G04*
G04 Layer_Color=65535*
%FSLAX25Y25*%
%MOIN*%
G70*
G04*
G04 #@! TF.SameCoordinates,14A67933-5EF9-4AFF-BA5B-A8FCC5FD6F51*
G04*
G04*
G04 #@! TF.FilePolarity,Positive*
G04*
G01*
G75*
%ADD10C,0.00787*%
%ADD11C,0.00500*%
%ADD12C,0.01000*%
D10*
X260988Y356476D02*
G03*
X260988Y356476I-394J0D01*
G01*
X293488Y355476D02*
G03*
X293488Y355476I-394J0D01*
G01*
D11*
X290165Y317000D02*
G03*
X290165Y317000I-27165J0D01*
G01*
X317952Y451945D02*
X334999Y442102D01*
X312046Y441716D02*
X329094Y431874D01*
X319524Y358201D02*
X337476D01*
X319524Y370799D02*
X337476D01*
X158197Y413664D02*
X170851Y428744D01*
X149150Y421256D02*
X161803Y436336D01*
X200433Y375299D02*
X218386D01*
X200433Y362701D02*
X218386D01*
X260012Y372921D02*
X263358D01*
Y363079D02*
Y372921D01*
X245642D02*
X248988D01*
X245642Y363079D02*
Y372921D01*
X292512Y371921D02*
X295858D01*
Y362079D02*
Y371921D01*
X278142D02*
X281488D01*
X278142Y362079D02*
Y371921D01*
X302940Y451794D02*
X303485Y451479D01*
X304515Y454521D02*
X305060Y454206D01*
X345979Y410985D02*
X346294Y410440D01*
X348706Y412560D02*
X349021Y412015D01*
X372912Y348243D02*
X373128Y348835D01*
X375872Y347165D02*
X376088Y347757D01*
X343440Y292206D02*
X343985Y292521D01*
X345015Y289479D02*
X345560Y289794D01*
X273185Y268075D02*
X273815D01*
X273185Y264925D02*
X273815D01*
X195771Y281409D02*
X196254Y281004D01*
X193746Y278996D02*
X194229Y278591D01*
X150425Y384685D02*
Y385315D01*
X153575Y384685D02*
Y385315D01*
X176591Y446771D02*
X176996Y447254D01*
X179004Y444746D02*
X179409Y445229D01*
X228000Y317000D02*
X233000D01*
X230500Y314500D02*
Y319500D01*
X293500Y317000D02*
X298500D01*
X362693Y403477D02*
X372536Y386429D01*
X352464Y397571D02*
X362307Y380523D01*
X369683Y315231D02*
X376416Y333729D01*
X358584Y319271D02*
X365317Y337769D01*
X321429Y270964D02*
X338477Y280807D01*
X315523Y281193D02*
X332571Y291036D01*
X239158Y260595D02*
X258842D01*
X239158Y272406D02*
X258842D01*
X166164Y295303D02*
X181244Y282649D01*
X173756Y304350D02*
X188836Y291697D01*
X157905Y342465D02*
Y362150D01*
X146095Y342465D02*
Y362150D01*
D12*
X278100Y386098D02*
X282099D01*
X280099D01*
Y380100D01*
X284098D02*
Y386098D01*
X287097D01*
X288097Y385098D01*
Y383099D01*
X287097Y382099D01*
X284098D01*
X286097D02*
X288097Y380100D01*
X290096D02*
Y386098D01*
X294095Y380100D01*
Y386098D01*
X299093Y380100D02*
Y386098D01*
X296094Y383099D01*
X300093D01*
X245600Y387098D02*
X249599D01*
X247599D01*
Y381100D01*
X251598D02*
Y387098D01*
X254597D01*
X255597Y386098D01*
Y384099D01*
X254597Y383099D01*
X251598D01*
X253597D02*
X255597Y381100D01*
X257596D02*
Y387098D01*
X261595Y381100D01*
Y387098D01*
X263594Y386098D02*
X264594Y387098D01*
X266593D01*
X267593Y386098D01*
Y385099D01*
X266593Y384099D01*
X265594D01*
X266593D01*
X267593Y383099D01*
Y382100D01*
X266593Y381100D01*
X264594D01*
X263594Y382100D01*
X299100Y461100D02*
Y467098D01*
X302099D01*
X303099Y466098D01*
Y464099D01*
X302099Y463099D01*
X299100D01*
X301099D02*
X303099Y461100D01*
X309097D02*
X305098D01*
X309097Y465099D01*
Y466098D01*
X308097Y467098D01*
X306098D01*
X305098Y466098D01*
X315095Y461100D02*
X311096D01*
X315095Y465099D01*
Y466098D01*
X314095Y467098D01*
X312096D01*
X311096Y466098D01*
X343400Y420400D02*
Y426398D01*
X346399D01*
X347399Y425398D01*
Y423399D01*
X346399Y422399D01*
X343400D01*
X345399D02*
X347399Y420400D01*
X353397D02*
X349398D01*
X353397Y424399D01*
Y425398D01*
X352397Y426398D01*
X350398D01*
X349398Y425398D01*
X355396Y420400D02*
X357396D01*
X356396D01*
Y426398D01*
X355396Y425398D01*
X371000Y356900D02*
Y362898D01*
X373999D01*
X374999Y361898D01*
Y359899D01*
X373999Y358899D01*
X371000D01*
X372999D02*
X374999Y356900D01*
X380997D02*
X376998D01*
X380997Y360899D01*
Y361898D01*
X379997Y362898D01*
X377998D01*
X376998Y361898D01*
X382996D02*
X383996Y362898D01*
X385995D01*
X386995Y361898D01*
Y357900D01*
X385995Y356900D01*
X383996D01*
X382996Y357900D01*
Y361898D01*
X339600Y299100D02*
Y305098D01*
X342599D01*
X343599Y304098D01*
Y302099D01*
X342599Y301099D01*
X339600D01*
X341599D02*
X343599Y299100D01*
X345598D02*
X347597D01*
X346598D01*
Y305098D01*
X345598Y304098D01*
X350596Y300100D02*
X351596Y299100D01*
X353595D01*
X354595Y300100D01*
Y304098D01*
X353595Y305098D01*
X351596D01*
X350596Y304098D01*
Y303099D01*
X351596Y302099D01*
X354595D01*
X269300Y272400D02*
Y278398D01*
X272299D01*
X273299Y277398D01*
Y275399D01*
X272299Y274399D01*
X269300D01*
X271299D02*
X273299Y272400D01*
X275298D02*
X277297D01*
X276298D01*
Y278398D01*
X275298Y277398D01*
X280296D02*
X281296Y278398D01*
X283295D01*
X284295Y277398D01*
Y276399D01*
X283295Y275399D01*
X284295Y274399D01*
Y273400D01*
X283295Y272400D01*
X281296D01*
X280296Y273400D01*
Y274399D01*
X281296Y275399D01*
X280296Y276399D01*
Y277398D01*
X281296Y275399D02*
X283295D01*
X190200Y288500D02*
Y294498D01*
X193199D01*
X194199Y293498D01*
Y291499D01*
X193199Y290499D01*
X190200D01*
X192199D02*
X194199Y288500D01*
X196198D02*
X198197D01*
X197198D01*
Y294498D01*
X196198Y293498D01*
X201196Y294498D02*
X205195D01*
Y293498D01*
X201196Y289500D01*
Y288500D01*
X150100Y393200D02*
Y399198D01*
X153099D01*
X154099Y398198D01*
Y396199D01*
X153099Y395199D01*
X150100D01*
X152099D02*
X154099Y393200D01*
X156098D02*
X158097D01*
X157098D01*
Y399198D01*
X156098Y398198D01*
X165095Y399198D02*
X163096Y398198D01*
X161096Y396199D01*
Y394200D01*
X162096Y393200D01*
X164095D01*
X165095Y394200D01*
Y395199D01*
X164095Y396199D01*
X161096D01*
X173500Y454800D02*
Y460798D01*
X176499D01*
X177499Y459798D01*
Y457799D01*
X176499Y456799D01*
X173500D01*
X175499D02*
X177499Y454800D01*
X179498D02*
X181497D01*
X180498D01*
Y460798D01*
X179498Y459798D01*
X188495Y460798D02*
X184496D01*
Y457799D01*
X186496Y458799D01*
X187496D01*
X188495Y457799D01*
Y455800D01*
X187496Y454800D01*
X185496D01*
X184496Y455800D01*
X312500Y374900D02*
Y380898D01*
X315499D01*
X316499Y379898D01*
Y377899D01*
X315499Y376899D01*
X312500D01*
X314499D02*
X316499Y374900D01*
X318498D02*
X320497D01*
X319498D01*
Y380898D01*
X318498Y379898D01*
X326496Y374900D02*
Y380898D01*
X323496Y377899D01*
X327495D01*
X193400Y379400D02*
Y385398D01*
X196399D01*
X197399Y384398D01*
Y382399D01*
X196399Y381399D01*
X193400D01*
X195399D02*
X197399Y379400D01*
X199398D02*
X201397D01*
X200398D01*
Y385398D01*
X199398Y384398D01*
X204396D02*
X205396Y385398D01*
X207396D01*
X208395Y384398D01*
Y383399D01*
X207396Y382399D01*
X206396D01*
X207396D01*
X208395Y381399D01*
Y380400D01*
X207396Y379400D01*
X205396D01*
X204396Y380400D01*
X309900Y463398D02*
Y457400D01*
X312899D01*
X313899Y458400D01*
Y462398D01*
X312899Y463398D01*
X309900D01*
X315898Y457400D02*
X317897D01*
X316898D01*
Y463398D01*
X315898Y462398D01*
X324895Y463398D02*
X322896Y462398D01*
X320896Y460399D01*
Y458400D01*
X321896Y457400D01*
X323896D01*
X324895Y458400D01*
Y459399D01*
X323896Y460399D01*
X320896D01*
X351000Y415698D02*
Y409700D01*
X353999D01*
X354999Y410700D01*
Y414698D01*
X353999Y415698D01*
X351000D01*
X356998Y409700D02*
X358997D01*
X357998D01*
Y415698D01*
X356998Y414698D01*
X365995Y415698D02*
X361996D01*
Y412699D01*
X363996Y413699D01*
X364996D01*
X365995Y412699D01*
Y410700D01*
X364996Y409700D01*
X362996D01*
X361996Y410700D01*
X357500Y349998D02*
Y344000D01*
X360499D01*
X361499Y345000D01*
Y348998D01*
X360499Y349998D01*
X357500D01*
X363498Y344000D02*
X365497D01*
X364498D01*
Y349998D01*
X363498Y348998D01*
X371496Y344000D02*
Y349998D01*
X368496Y346999D01*
X372495D01*
X313300Y302498D02*
Y296500D01*
X316299D01*
X317299Y297500D01*
Y301498D01*
X316299Y302498D01*
X313300D01*
X319298Y296500D02*
X321297D01*
X320298D01*
Y302498D01*
X319298Y301498D01*
X324296D02*
X325296Y302498D01*
X327295D01*
X328295Y301498D01*
Y300499D01*
X327295Y299499D01*
X326296D01*
X327295D01*
X328295Y298499D01*
Y297500D01*
X327295Y296500D01*
X325296D01*
X324296Y297500D01*
X237100Y282498D02*
Y276500D01*
X240099D01*
X241099Y277500D01*
Y281498D01*
X240099Y282498D01*
X237100D01*
X243098Y276500D02*
X245097D01*
X244098D01*
Y282498D01*
X243098Y281498D01*
X252095Y276500D02*
X248096D01*
X252095Y280499D01*
Y281498D01*
X251096Y282498D01*
X249096D01*
X248096Y281498D01*
X164100Y316098D02*
Y310100D01*
X167099D01*
X168099Y311100D01*
Y315098D01*
X167099Y316098D01*
X164100D01*
X170098Y310100D02*
X172097D01*
X171098D01*
Y316098D01*
X170098Y315098D01*
X175096Y310100D02*
X177096D01*
X176096D01*
Y316098D01*
X175096Y315098D01*
X146000Y374198D02*
Y368200D01*
X148999D01*
X149999Y369200D01*
Y373198D01*
X148999Y374198D01*
X146000D01*
X151998Y368200D02*
X153997D01*
X152998D01*
Y374198D01*
X151998Y373198D01*
X156996D02*
X157996Y374198D01*
X159995D01*
X160995Y373198D01*
Y369200D01*
X159995Y368200D01*
X157996D01*
X156996Y369200D01*
Y373198D01*
X147400Y448398D02*
Y442400D01*
X150399D01*
X151399Y443400D01*
Y447398D01*
X150399Y448398D01*
X147400D01*
X153398Y443400D02*
X154398Y442400D01*
X156397D01*
X157397Y443400D01*
Y447398D01*
X156397Y448398D01*
X154398D01*
X153398Y447398D01*
Y446399D01*
X154398Y445399D01*
X157397D01*
X228800Y354198D02*
Y348200D01*
X231799D01*
X232799Y349200D01*
Y350199D01*
X231799Y351199D01*
X228800D01*
X231799D01*
X232799Y352199D01*
Y353198D01*
X231799Y354198D01*
X228800D01*
X234798Y348200D02*
X236797D01*
X235798D01*
Y354198D01*
X234798Y353198D01*
M02*
