G04*
G04 #@! TF.GenerationSoftware,Altium Limited,Altium Designer,21.7.2 (23)*
G04*
G04 Layer_Physical_Order=2*
G04 Layer_Color=16711680*
%FSLAX25Y25*%
%MOIN*%
G70*
G04*
G04 #@! TF.SameCoordinates,14A67933-5EF9-4AFF-BA5B-A8FCC5FD6F51*
G04*
G04*
G04 #@! TF.FilePolarity,Positive*
G04*
G01*
G75*
%ADD46C,0.07677*%
%ADD47R,0.07677X0.07677*%
%ADD48C,0.05543*%
%ADD49C,0.05000*%
G36*
X265573Y489781D02*
X271930Y489155D01*
X278248Y488217D01*
X284512Y486971D01*
X290708Y485419D01*
X296820Y483565D01*
X302834Y481414D01*
X308735Y478969D01*
X314509Y476238D01*
X320143Y473227D01*
X325621Y469944D01*
X330932Y466395D01*
X336062Y462590D01*
X341000Y458538D01*
X345732Y454249D01*
X350249Y449732D01*
X354538Y445000D01*
X358590Y440062D01*
X362395Y434932D01*
X365944Y429621D01*
X369227Y424143D01*
X372238Y418509D01*
X374969Y412735D01*
X377414Y406834D01*
X379565Y400820D01*
X381419Y394708D01*
X382971Y388512D01*
X384218Y382248D01*
X385155Y375930D01*
X385781Y369573D01*
X386094Y363194D01*
Y360000D01*
Y356806D01*
X385781Y350427D01*
X385155Y344070D01*
X384218Y337752D01*
X382971Y331488D01*
X381419Y325292D01*
X379565Y319180D01*
X377414Y313166D01*
X374969Y307265D01*
X372238Y301490D01*
X369227Y295858D01*
X365944Y290379D01*
X362395Y285068D01*
X358590Y279938D01*
X354538Y275000D01*
X350249Y270268D01*
X345732Y265751D01*
X341000Y261462D01*
X336062Y257410D01*
X330932Y253605D01*
X325621Y250056D01*
X320143Y246773D01*
X314509Y243762D01*
X308735Y241031D01*
X302834Y238586D01*
X296820Y236435D01*
X290708Y234580D01*
X284512Y233029D01*
X278248Y231783D01*
X271930Y230845D01*
X265573Y230219D01*
X259194Y229906D01*
X252806D01*
X246427Y230219D01*
X240070Y230845D01*
X233752Y231783D01*
X227488Y233029D01*
X221292Y234580D01*
X215179Y236435D01*
X209166Y238586D01*
X203265Y241031D01*
X197491Y243762D01*
X191858Y246773D01*
X186379Y250056D01*
X181068Y253605D01*
X175938Y257410D01*
X171000Y261462D01*
X166268Y265751D01*
X161751Y270268D01*
X157462Y275000D01*
X153410Y279938D01*
X149605Y285068D01*
X146056Y290379D01*
X142773Y295858D01*
X139762Y301490D01*
X137031Y307265D01*
X134587Y313166D01*
X132435Y319180D01*
X130580Y325292D01*
X129029Y331488D01*
X127782Y337752D01*
X126845Y344070D01*
X126219Y350427D01*
X125906Y356806D01*
Y360000D01*
Y363194D01*
X126219Y369573D01*
X126845Y375930D01*
X127782Y382248D01*
X129029Y388512D01*
X130580Y394708D01*
X132435Y400820D01*
X134587Y406834D01*
X137031Y412735D01*
X139762Y418509D01*
X142773Y424143D01*
X146056Y429621D01*
X149605Y434932D01*
X153410Y440062D01*
X157462Y445000D01*
X161751Y449732D01*
X166268Y454249D01*
X171000Y458538D01*
X175938Y462590D01*
X181068Y466395D01*
X186379Y469944D01*
X191858Y473227D01*
X197491Y476238D01*
X203265Y478969D01*
X209166Y481414D01*
X215179Y483565D01*
X221292Y485419D01*
X227488Y486971D01*
X233752Y488217D01*
X240070Y489155D01*
X246427Y489781D01*
X252806Y490094D01*
X259194D01*
X265573Y489781D01*
D02*
G37*
%LPC*%
G36*
X333000Y445490D02*
Y442500D01*
X335989D01*
X335761Y443351D01*
X335301Y444149D01*
X334649Y444801D01*
X333851Y445261D01*
X333000Y445490D01*
D02*
G37*
G36*
X332000D02*
X331149Y445261D01*
X330351Y444801D01*
X329699Y444149D01*
X329239Y443351D01*
X329011Y442500D01*
X332000D01*
Y445490D01*
D02*
G37*
G36*
X335989Y441500D02*
X333000D01*
Y438511D01*
X333851Y438738D01*
X334649Y439199D01*
X335301Y439851D01*
X335761Y440649D01*
X335989Y441500D01*
D02*
G37*
G36*
X332000D02*
X329011D01*
X329239Y440649D01*
X329699Y439851D01*
X330351Y439199D01*
X331149Y438738D01*
X332000Y438511D01*
Y441500D01*
D02*
G37*
G36*
X152000Y425989D02*
Y423000D01*
X154990D01*
X154762Y423851D01*
X154301Y424649D01*
X153649Y425301D01*
X152851Y425762D01*
X152000Y425989D01*
D02*
G37*
G36*
X151000D02*
X150149Y425762D01*
X149351Y425301D01*
X148699Y424649D01*
X148239Y423851D01*
X148011Y423000D01*
X151000D01*
Y425989D01*
D02*
G37*
G36*
X154990Y422000D02*
X152000D01*
Y419010D01*
X152851Y419239D01*
X153649Y419699D01*
X154301Y420351D01*
X154762Y421149D01*
X154990Y422000D01*
D02*
G37*
G36*
X151000D02*
X148011D01*
X148239Y421149D01*
X148699Y420351D01*
X149351Y419699D01*
X150149Y419239D01*
X151000Y419010D01*
Y422000D01*
D02*
G37*
G36*
X199996Y415839D02*
X195658D01*
Y411500D01*
X199996D01*
Y415839D01*
D02*
G37*
G36*
X194658D02*
X190319D01*
Y411500D01*
X194658D01*
Y415839D01*
D02*
G37*
G36*
X298496Y415339D02*
X294158D01*
Y411000D01*
X298496D01*
Y415339D01*
D02*
G37*
G36*
X293158D02*
X288819D01*
Y411000D01*
X293158D01*
Y415339D01*
D02*
G37*
G36*
X248339D02*
X244000D01*
Y411000D01*
X248339D01*
Y415339D01*
D02*
G37*
G36*
X243000D02*
X238661D01*
Y411000D01*
X243000D01*
Y415339D01*
D02*
G37*
G36*
X215479Y415839D02*
X214206D01*
X212975Y415509D01*
X211872Y414872D01*
X210971Y413971D01*
X210334Y412868D01*
X210004Y411637D01*
Y410363D01*
X210334Y409132D01*
X210971Y408029D01*
X211872Y407128D01*
X212975Y406491D01*
X214206Y406161D01*
X215479D01*
X216710Y406491D01*
X217813Y407128D01*
X218714Y408029D01*
X219351Y409132D01*
X219681Y410363D01*
Y411637D01*
X219351Y412868D01*
X218714Y413971D01*
X217813Y414872D01*
X216710Y415509D01*
X215479Y415839D01*
D02*
G37*
G36*
X199996Y410500D02*
X195658D01*
Y406161D01*
X199996D01*
Y410500D01*
D02*
G37*
G36*
X194658D02*
X190319D01*
Y406161D01*
X194658D01*
Y410500D01*
D02*
G37*
G36*
X313980Y415339D02*
X312705D01*
X311475Y415009D01*
X310372Y414372D01*
X309471Y413471D01*
X308834Y412368D01*
X308504Y411137D01*
Y409863D01*
X308834Y408632D01*
X309471Y407529D01*
X310372Y406628D01*
X311475Y405991D01*
X312705Y405661D01*
X313980D01*
X315210Y405991D01*
X316314Y406628D01*
X317214Y407529D01*
X317851Y408632D01*
X318181Y409863D01*
Y411137D01*
X317851Y412368D01*
X317214Y413471D01*
X316314Y414372D01*
X315210Y415009D01*
X313980Y415339D01*
D02*
G37*
G36*
X298496Y410000D02*
X294158D01*
Y405661D01*
X298496D01*
Y410000D01*
D02*
G37*
G36*
X293158D02*
X288819D01*
Y405661D01*
X293158D01*
Y410000D01*
D02*
G37*
G36*
X263822Y415339D02*
X262548D01*
X261317Y415009D01*
X260214Y414372D01*
X259313Y413471D01*
X258676Y412368D01*
X258347Y411137D01*
Y409863D01*
X258676Y408632D01*
X259313Y407529D01*
X260214Y406628D01*
X261317Y405991D01*
X262548Y405661D01*
X263822D01*
X265053Y405991D01*
X266156Y406628D01*
X267057Y407529D01*
X267694Y408632D01*
X268024Y409863D01*
Y411137D01*
X267694Y412368D01*
X267057Y413471D01*
X266156Y414372D01*
X265053Y415009D01*
X263822Y415339D01*
D02*
G37*
G36*
X248339Y410000D02*
X244000D01*
Y405661D01*
X248339D01*
Y410000D01*
D02*
G37*
G36*
X243000D02*
X238661D01*
Y405661D01*
X243000D01*
Y410000D01*
D02*
G37*
G36*
X371937Y388671D02*
Y385681D01*
X374927D01*
X374699Y386532D01*
X374238Y387330D01*
X373587Y387982D01*
X372789Y388443D01*
X371937Y388671D01*
D02*
G37*
G36*
X370937D02*
X370087Y388443D01*
X369288Y387982D01*
X368637Y387330D01*
X368176Y386532D01*
X367948Y385681D01*
X370937D01*
Y388671D01*
D02*
G37*
G36*
X374927Y384681D02*
X371937D01*
Y381692D01*
X372789Y381920D01*
X373587Y382381D01*
X374238Y383032D01*
X374699Y383830D01*
X374927Y384681D01*
D02*
G37*
G36*
X370937D02*
X367948D01*
X368176Y383830D01*
X368637Y383032D01*
X369288Y382381D01*
X370087Y381920D01*
X370937Y381692D01*
Y384681D01*
D02*
G37*
G36*
X156831Y344379D02*
Y341390D01*
X159820D01*
X159592Y342241D01*
X159131Y343039D01*
X158480Y343690D01*
X157682Y344151D01*
X156831Y344379D01*
D02*
G37*
G36*
X155831D02*
X154980Y344151D01*
X154182Y343690D01*
X153530Y343039D01*
X153069Y342241D01*
X152841Y341390D01*
X155831D01*
Y344379D01*
D02*
G37*
G36*
X159820Y340390D02*
X156831D01*
Y337400D01*
X157682Y337628D01*
X158480Y338089D01*
X159131Y338741D01*
X159592Y339539D01*
X159820Y340390D01*
D02*
G37*
G36*
X155831D02*
X152841D01*
X153069Y339539D01*
X153530Y338741D01*
X154182Y338089D01*
X154980Y337628D01*
X155831Y337400D01*
Y340390D01*
D02*
G37*
G36*
X370000Y323489D02*
Y320500D01*
X372990D01*
X372762Y321351D01*
X372301Y322149D01*
X371649Y322801D01*
X370851Y323261D01*
X370000Y323489D01*
D02*
G37*
G36*
X369000D02*
X368149Y323261D01*
X367351Y322801D01*
X366699Y322149D01*
X366238Y321351D01*
X366010Y320500D01*
X369000D01*
Y323489D01*
D02*
G37*
G36*
X278461Y320771D02*
Y317500D01*
X281731D01*
X281475Y318456D01*
X280979Y319316D01*
X280276Y320018D01*
X279416Y320515D01*
X278461Y320771D01*
D02*
G37*
G36*
X277461D02*
X276505Y320515D01*
X275645Y320018D01*
X274943Y319316D01*
X274446Y318456D01*
X274190Y317500D01*
X277461D01*
Y320771D01*
D02*
G37*
G36*
X372990Y319500D02*
X370000D01*
Y316511D01*
X370851Y316739D01*
X371649Y317199D01*
X372301Y317851D01*
X372762Y318649D01*
X372990Y319500D01*
D02*
G37*
G36*
X369000D02*
X366010D01*
X366238Y318649D01*
X366699Y317851D01*
X367351Y317199D01*
X368149Y316739D01*
X369000Y316511D01*
Y319500D01*
D02*
G37*
G36*
X281731Y316500D02*
X278461D01*
Y313229D01*
X279416Y313485D01*
X280276Y313982D01*
X280979Y314684D01*
X281475Y315544D01*
X281731Y316500D01*
D02*
G37*
G36*
X277461D02*
X274190D01*
X274446Y315544D01*
X274943Y314684D01*
X275645Y313982D01*
X276505Y313485D01*
X277461Y313229D01*
Y316500D01*
D02*
G37*
G36*
X248536Y320772D02*
X247543D01*
X246584Y320515D01*
X245724Y320018D01*
X245021Y319316D01*
X244525Y318456D01*
X244268Y317496D01*
Y316504D01*
X244525Y315544D01*
X245021Y314684D01*
X245724Y313982D01*
X246584Y313485D01*
X247543Y313228D01*
X248536D01*
X249495Y313485D01*
X250355Y313982D01*
X251057Y314684D01*
X251554Y315544D01*
X251811Y316504D01*
Y317496D01*
X251554Y318456D01*
X251057Y319316D01*
X250355Y320018D01*
X249495Y320515D01*
X248536Y320772D01*
D02*
G37*
G36*
X174500Y305489D02*
Y302500D01*
X177489D01*
X177261Y303351D01*
X176801Y304149D01*
X176149Y304801D01*
X175351Y305261D01*
X174500Y305489D01*
D02*
G37*
G36*
X173500D02*
X172649Y305261D01*
X171851Y304801D01*
X171199Y304149D01*
X170738Y303351D01*
X170510Y302500D01*
X173500D01*
Y305489D01*
D02*
G37*
G36*
X177489Y301500D02*
X174500D01*
Y298511D01*
X175351Y298739D01*
X176149Y299199D01*
X176801Y299851D01*
X177261Y300649D01*
X177489Y301500D01*
D02*
G37*
G36*
X173500D02*
X170510D01*
X170738Y300649D01*
X171199Y299851D01*
X171851Y299199D01*
X172649Y298739D01*
X173500Y298511D01*
Y301500D01*
D02*
G37*
G36*
X325500Y277489D02*
Y274500D01*
X328489D01*
X328261Y275351D01*
X327801Y276149D01*
X327149Y276801D01*
X326351Y277261D01*
X325500Y277489D01*
D02*
G37*
G36*
X324500D02*
X323649Y277261D01*
X322851Y276801D01*
X322199Y276149D01*
X321739Y275351D01*
X321511Y274500D01*
X324500D01*
Y277489D01*
D02*
G37*
G36*
X328489Y273500D02*
X325500D01*
Y270511D01*
X326351Y270739D01*
X327149Y271199D01*
X327801Y271851D01*
X328261Y272649D01*
X328489Y273500D01*
D02*
G37*
G36*
X324500D02*
X321511D01*
X321739Y272649D01*
X322199Y271851D01*
X322851Y271199D01*
X323649Y270739D01*
X324500Y270511D01*
Y273500D01*
D02*
G37*
G36*
X240386Y265462D02*
Y262472D01*
X243375D01*
X243147Y263323D01*
X242687Y264122D01*
X242035Y264773D01*
X241237Y265234D01*
X240386Y265462D01*
D02*
G37*
G36*
X239386D02*
X238535Y265234D01*
X237737Y264773D01*
X237085Y264122D01*
X236624Y263323D01*
X236396Y262472D01*
X239386D01*
Y265462D01*
D02*
G37*
G36*
X243375Y261472D02*
X240386D01*
Y258483D01*
X241237Y258711D01*
X242035Y259172D01*
X242687Y259823D01*
X243147Y260622D01*
X243375Y261472D01*
D02*
G37*
G36*
X239386D02*
X236396D01*
X236624Y260622D01*
X237085Y259823D01*
X237737Y259172D01*
X238535Y258711D01*
X239386Y258483D01*
Y261472D01*
D02*
G37*
%LPD*%
D46*
X263185Y410500D02*
D03*
X214843Y411000D02*
D03*
X313342Y410500D02*
D03*
D47*
X243500D02*
D03*
X195158Y411000D02*
D03*
X293657Y410500D02*
D03*
D48*
X248039Y317000D02*
D03*
X277961D02*
D03*
D49*
X151500Y422500D02*
D03*
X325000Y274000D02*
D03*
X369500Y320000D02*
D03*
X332500Y442000D02*
D03*
X371438Y385181D02*
D03*
X239886Y261972D02*
D03*
X174000Y302000D02*
D03*
X156331Y340890D02*
D03*
M02*
