G04*
G04 #@! TF.GenerationSoftware,Altium Limited,Altium Designer,21.7.2 (23)*
G04*
G04 Layer_Color=128*
%FSLAX25Y25*%
%MOIN*%
G70*
G04*
G04 #@! TF.SameCoordinates,14A67933-5EF9-4AFF-BA5B-A8FCC5FD6F51*
G04*
G04*
G04 #@! TF.FilePolarity,Positive*
G04*
G01*
G75*
%ADD52C,0.00200*%
D52*
X260626Y410500D02*
X265744D01*
X263185Y407941D02*
Y413059D01*
X240941Y410500D02*
X246059D01*
X243500Y407941D02*
Y413059D01*
X212283Y411000D02*
X217402D01*
X214843Y408441D02*
Y413559D01*
X192598Y411000D02*
X197716D01*
X195158Y408441D02*
Y413559D01*
X310784Y410500D02*
X315902D01*
X313342Y407941D02*
Y413059D01*
X291098Y410500D02*
X296217D01*
X293657Y407941D02*
Y413059D01*
X246268Y317000D02*
X249811D01*
X248039Y315228D02*
Y318772D01*
X276189Y317000D02*
X279732D01*
X277961Y315228D02*
Y318772D01*
X150100Y422500D02*
X152900D01*
X151500Y421100D02*
Y423900D01*
X323600Y274000D02*
X326400D01*
X325000Y272600D02*
Y275400D01*
X368100Y320000D02*
X370900D01*
X369500Y318600D02*
Y321400D01*
X331100Y442000D02*
X333900D01*
X332500Y440600D02*
Y443400D01*
X370038Y385181D02*
X372837D01*
X371438Y383781D02*
Y386581D01*
X238486Y261972D02*
X241286D01*
X239886Y260572D02*
Y263372D01*
X172600Y302000D02*
X175400D01*
X174000Y300600D02*
Y303400D01*
X154931Y340890D02*
X157731D01*
X156331Y339490D02*
Y342290D01*
M02*
