G04*
G04 #@! TF.GenerationSoftware,Altium Limited,Altium Designer,21.7.2 (23)*
G04*
G04 Layer_Color=32768*
%FSLAX25Y25*%
%MOIN*%
G70*
G04*
G04 #@! TF.SameCoordinates,14A67933-5EF9-4AFF-BA5B-A8FCC5FD6F51*
G04*
G04*
G04 #@! TF.FilePolarity,Positive*
G04*
G01*
G75*
%ADD51C,0.00197*%
D51*
X291150Y317000D02*
G03*
X291150Y317000I-28150J0D01*
G01*
X331159Y429545D02*
X338049Y441478D01*
X315887Y454274D02*
X338049Y441478D01*
X308997Y442340D02*
X315887Y454274D01*
X308997Y442340D02*
X331159Y429545D01*
X345429Y357217D02*
Y371783D01*
X311571D02*
X345429D01*
X311571Y357217D02*
Y371783D01*
Y357217D02*
X345429D01*
X146497Y419627D02*
X157053Y410770D01*
X173503Y430373D01*
X162947Y439230D02*
X173503Y430373D01*
X146497Y419627D02*
X162947Y439230D01*
X232673Y393768D02*
Y428413D01*
X274012D01*
Y393768D02*
Y428413D01*
X232673Y393768D02*
X274012D01*
X184331Y394268D02*
Y428913D01*
X225669D01*
Y394268D02*
Y428913D01*
X184331Y394268D02*
X225669D01*
X282831Y393768D02*
Y428413D01*
X324169D01*
Y393768D02*
Y428413D01*
X282831Y393768D02*
X324169D01*
X192480Y361717D02*
Y376284D01*
Y361717D02*
X226339D01*
Y376284D01*
X192480D02*
X226339D01*
X244657Y357961D02*
X264342D01*
X244657D02*
Y374693D01*
X264342Y357961D02*
Y374693D01*
X259421D02*
X264342D01*
X259421D02*
Y378039D01*
X249579D02*
X259421D01*
X249579Y374693D02*
Y378039D01*
X244657Y374693D02*
X249579D01*
X277157Y356961D02*
X296843D01*
X277157D02*
Y373693D01*
X296843Y356961D02*
Y373693D01*
X291921D02*
X296843D01*
X291921D02*
Y377039D01*
X282079D02*
X291921D01*
X282079Y373693D02*
Y377039D01*
X277157Y373693D02*
X282079D01*
X307054Y448054D02*
X309810Y452828D01*
X300945Y457946D02*
X309810Y452828D01*
X298190Y453172D02*
X300945Y457946D01*
X298190Y453172D02*
X307054Y448054D01*
X347672Y405690D02*
X352446Y408446D01*
X347328Y417310D02*
X352446Y408446D01*
X342554Y414555D02*
X347328Y417310D01*
X342554Y414555D02*
X347672Y405690D01*
X370160Y344133D02*
X375339Y342248D01*
X378840Y351867D01*
X373661Y353752D02*
X378840Y351867D01*
X370160Y344133D02*
X373661Y353752D01*
X338690Y290828D02*
X341445Y286054D01*
X350310Y291172D01*
X347554Y295946D02*
X350310Y291172D01*
X338690Y290828D02*
X347554Y295946D01*
X268382Y263744D02*
Y269256D01*
Y263744D02*
X278618D01*
Y269256D01*
X268382D02*
X278618D01*
X189308Y281179D02*
X192851Y285401D01*
X189308Y281179D02*
X197149Y274599D01*
X200692Y278821D01*
X192851Y285401D02*
X200692Y278821D01*
X149244Y379882D02*
X154756D01*
Y390118D01*
X149244D02*
X154756D01*
X149244Y379882D02*
Y390118D01*
X172599Y443851D02*
X176821Y440308D01*
X183401Y448149D01*
X179179Y451692D02*
X183401Y448149D01*
X172599Y443851D02*
X179179Y451692D01*
X362931Y377474D02*
X374864Y384364D01*
X362069Y406526D02*
X374864Y384364D01*
X350136Y399636D02*
X362069Y406526D01*
X350136Y399636D02*
X362931Y377474D01*
X356649Y316833D02*
X369598Y312120D01*
X378350Y336167D01*
X365402Y340880D02*
X378350Y336167D01*
X356649Y316833D02*
X365402Y340880D01*
X312474Y280569D02*
X319364Y268636D01*
X341526Y281431D01*
X334636Y293364D02*
X341526Y281431D01*
X312474Y280569D02*
X334636Y293364D01*
X236205Y259610D02*
Y273390D01*
Y259610D02*
X261795D01*
Y273390D01*
X236205D02*
X261795D01*
X163270Y296447D02*
X172127Y307002D01*
X163270Y296447D02*
X182873Y279997D01*
X191730Y290553D01*
X172127Y307002D02*
X191730Y290553D01*
X145110Y339512D02*
X158890D01*
Y365102D01*
X145110D02*
X158890D01*
X145110Y339512D02*
Y365102D01*
M02*
