G04*
G04 #@! TF.GenerationSoftware,Altium Limited,Altium Designer,21.7.2 (23)*
G04*
G04 Layer_Color=8388736*
%FSLAX25Y25*%
%MOIN*%
G70*
G04*
G04 #@! TF.SameCoordinates,14A67933-5EF9-4AFF-BA5B-A8FCC5FD6F51*
G04*
G04*
G04 #@! TF.FilePolarity,Negative*
G04*
G01*
G75*
%ADD22R,0.06509X0.12217*%
%ADD23R,0.03556X0.05131*%
G04:AMPARAMS|DCode=24|XSize=33.59mil|YSize=43.43mil|CornerRadius=0mil|HoleSize=0mil|Usage=FLASHONLY|Rotation=150.000|XOffset=0mil|YOffset=0mil|HoleType=Round|Shape=Rectangle|*
%AMROTATEDRECTD24*
4,1,4,0.02540,0.01041,0.00369,-0.02721,-0.02540,-0.01041,-0.00369,0.02721,0.02540,0.01041,0.0*
%
%ADD24ROTATEDRECTD24*%

G04:AMPARAMS|DCode=25|XSize=33.59mil|YSize=43.43mil|CornerRadius=0mil|HoleSize=0mil|Usage=FLASHONLY|Rotation=120.000|XOffset=0mil|YOffset=0mil|HoleType=Round|Shape=Rectangle|*
%AMROTATEDRECTD25*
4,1,4,0.02721,-0.00369,-0.01041,-0.02540,-0.02721,0.00369,0.01041,0.02540,0.02721,-0.00369,0.0*
%
%ADD25ROTATEDRECTD25*%

G04:AMPARAMS|DCode=26|XSize=33.59mil|YSize=43.43mil|CornerRadius=0mil|HoleSize=0mil|Usage=FLASHONLY|Rotation=70.000|XOffset=0mil|YOffset=0mil|HoleType=Round|Shape=Rectangle|*
%AMROTATEDRECTD26*
4,1,4,0.01466,-0.02321,-0.02615,-0.00836,-0.01466,0.02321,0.02615,0.00836,0.01466,-0.02321,0.0*
%
%ADD26ROTATEDRECTD26*%

G04:AMPARAMS|DCode=27|XSize=33.59mil|YSize=43.43mil|CornerRadius=0mil|HoleSize=0mil|Usage=FLASHONLY|Rotation=30.000|XOffset=0mil|YOffset=0mil|HoleType=Round|Shape=Rectangle|*
%AMROTATEDRECTD27*
4,1,4,-0.00369,-0.02721,-0.02540,0.01041,0.00369,0.02721,0.02540,-0.01041,-0.00369,-0.02721,0.0*
%
%ADD27ROTATEDRECTD27*%

%ADD28R,0.03359X0.04343*%
G04:AMPARAMS|DCode=29|XSize=33.59mil|YSize=43.43mil|CornerRadius=0mil|HoleSize=0mil|Usage=FLASHONLY|Rotation=320.000|XOffset=0mil|YOffset=0mil|HoleType=Round|Shape=Rectangle|*
%AMROTATEDRECTD29*
4,1,4,-0.02682,-0.00584,0.00109,0.02743,0.02682,0.00584,-0.00109,-0.02743,-0.02682,-0.00584,0.0*
%
%ADD29ROTATEDRECTD29*%

%ADD30R,0.04343X0.03359*%
G04:AMPARAMS|DCode=31|XSize=33.59mil|YSize=43.43mil|CornerRadius=0mil|HoleSize=0mil|Usage=FLASHONLY|Rotation=50.000|XOffset=0mil|YOffset=0mil|HoleType=Round|Shape=Rectangle|*
%AMROTATEDRECTD31*
4,1,4,0.00584,-0.02682,-0.02743,0.00109,-0.00584,0.02682,0.02743,-0.00109,0.00584,-0.02682,0.0*
%
%ADD31ROTATEDRECTD31*%

%ADD32C,0.08477*%
%ADD33R,0.08477X0.08477*%
%ADD34C,0.06343*%
%ADD35C,0.05800*%
G36*
X183203Y295396D02*
X176616Y287546D01*
X165136Y297179D01*
X171722Y305029D01*
X183203Y295396D01*
D02*
G37*
G36*
X189838Y289829D02*
X183251Y281979D01*
X177830Y286527D01*
X184417Y294377D01*
X189838Y289829D01*
D02*
G37*
G36*
X252150Y261371D02*
X237163D01*
Y271618D01*
X252150D01*
Y261371D01*
D02*
G37*
G36*
X260811Y261371D02*
X253735D01*
Y271618D01*
X260811D01*
Y261371D01*
D02*
G37*
G36*
X171521Y430751D02*
X166973Y425330D01*
X159123Y431917D01*
X163671Y437338D01*
X171521Y430751D01*
D02*
G37*
G36*
X165954Y424116D02*
X156321Y412636D01*
X148471Y419222D01*
X158104Y430703D01*
X165954Y424116D01*
D02*
G37*
G36*
X258831Y365736D02*
X256272D01*
Y358551D01*
X252728D01*
Y365736D01*
X250169D01*
Y377449D01*
X258831D01*
Y365736D01*
D02*
G37*
G36*
X157129Y357042D02*
X146882D01*
Y364118D01*
X157129D01*
Y357042D01*
D02*
G37*
G36*
X157129Y340470D02*
X146882D01*
Y355457D01*
X157129D01*
Y340470D01*
D02*
G37*
G36*
X291331Y364736D02*
X288772D01*
Y357551D01*
X285228D01*
Y364736D01*
X282669D01*
Y376449D01*
X291331D01*
Y364736D01*
D02*
G37*
G36*
X376360Y335844D02*
X373939Y329195D01*
X364310Y332700D01*
X366730Y339349D01*
X376360Y335844D01*
D02*
G37*
G36*
X373397Y327705D02*
X368272Y313623D01*
X358642Y317128D01*
X363768Y331210D01*
X373397Y327705D01*
D02*
G37*
G36*
X339793Y282463D02*
X333665Y278925D01*
X328541Y287800D01*
X334670Y291338D01*
X339793Y282463D01*
D02*
G37*
G36*
X332292Y278133D02*
X319314Y270639D01*
X314190Y279514D01*
X327169Y287007D01*
X332292Y278133D01*
D02*
G37*
G36*
X364575Y398665D02*
X355700Y393541D01*
X352162Y399670D01*
X361037Y404793D01*
X364575Y398665D01*
D02*
G37*
G36*
X372861Y384314D02*
X363986Y379190D01*
X356493Y392169D01*
X365367Y397292D01*
X372861Y384314D01*
D02*
G37*
G36*
X321987Y448719D02*
X316863Y439844D01*
X310735Y443383D01*
X315859Y452257D01*
X321987Y448719D01*
D02*
G37*
G36*
X336338Y440433D02*
X331215Y431559D01*
X318236Y439052D01*
X323360Y447926D01*
X336338Y440433D01*
D02*
G37*
D22*
X341590Y364500D02*
D03*
X315409D02*
D03*
X196319Y369000D02*
D03*
X222500D02*
D03*
D23*
X260405Y361110D02*
D03*
X248594D02*
D03*
X292905Y360110D02*
D03*
X281095D02*
D03*
D24*
X306472Y451573D02*
D03*
X301528Y454427D02*
D03*
D25*
X348927Y409028D02*
D03*
X346073Y413972D02*
D03*
D26*
X373524Y345318D02*
D03*
X375476Y350682D02*
D03*
D27*
X342028Y289573D02*
D03*
X346972Y292427D02*
D03*
D28*
X270646Y266500D02*
D03*
X276354D02*
D03*
D29*
X192814Y281835D02*
D03*
X197187Y278165D02*
D03*
D30*
X152000Y382146D02*
D03*
Y387854D02*
D03*
D31*
X176165Y443814D02*
D03*
X179835Y448186D02*
D03*
D32*
X263185Y410500D02*
D03*
X214843Y411000D02*
D03*
X313342Y410500D02*
D03*
D33*
X243500D02*
D03*
X195158Y411000D02*
D03*
X293657Y410500D02*
D03*
D34*
X248039Y317000D02*
D03*
X277961D02*
D03*
D35*
X151500Y422500D02*
D03*
X325000Y274000D02*
D03*
X369500Y320000D02*
D03*
X332500Y442000D02*
D03*
X371438Y385181D02*
D03*
X239886Y261972D02*
D03*
X174000Y302000D02*
D03*
X156331Y340890D02*
D03*
M02*
