G04*
G04 #@! TF.GenerationSoftware,Altium Limited,Altium Designer,21.7.2 (23)*
G04*
G04 Layer_Color=8388736*
%FSLAX25Y25*%
%MOIN*%
G70*
G04*
G04 #@! TF.SameCoordinates,1580A9D1-778B-403B-A8E6-1BC37CE1D180*
G04*
G04*
G04 #@! TF.FilePolarity,Negative*
G04*
G01*
G75*
%ADD16R,0.06509X0.12217*%
G04:AMPARAMS|DCode=17|XSize=33.59mil|YSize=43.43mil|CornerRadius=0mil|HoleSize=0mil|Usage=FLASHONLY|Rotation=40.000|XOffset=0mil|YOffset=0mil|HoleType=Round|Shape=Rectangle|*
%AMROTATEDRECTD17*
4,1,4,0.00109,-0.02743,-0.02682,0.00584,-0.00109,0.02743,0.02682,-0.00584,0.00109,-0.02743,0.0*
%
%ADD17ROTATEDRECTD17*%

%ADD18R,0.03359X0.04343*%
%ADD19R,0.10249X0.07099*%
G04:AMPARAMS|DCode=20|XSize=70.99mil|YSize=102.49mil|CornerRadius=0mil|HoleSize=0mil|Usage=FLASHONLY|Rotation=70.000|XOffset=0mil|YOffset=0mil|HoleType=Round|Shape=Rectangle|*
%AMROTATEDRECTD20*
4,1,4,0.03601,-0.05088,-0.06029,-0.01583,-0.03601,0.05088,0.06029,0.01583,0.03601,-0.05088,0.0*
%
%ADD20ROTATEDRECTD20*%

G04:AMPARAMS|DCode=21|XSize=70.99mil|YSize=102.49mil|CornerRadius=0mil|HoleSize=0mil|Usage=FLASHONLY|Rotation=230.000|XOffset=0mil|YOffset=0mil|HoleType=Round|Shape=Rectangle|*
%AMROTATEDRECTD21*
4,1,4,-0.01644,0.06013,0.06207,-0.00575,0.01644,-0.06013,-0.06207,0.00575,-0.01644,0.06013,0.0*
%
%ADD21ROTATEDRECTD21*%

%ADD22R,0.07099X0.10249*%
G04:AMPARAMS|DCode=23|XSize=70.99mil|YSize=102.49mil|CornerRadius=0mil|HoleSize=0mil|Usage=FLASHONLY|Rotation=150.000|XOffset=0mil|YOffset=0mil|HoleType=Round|Shape=Rectangle|*
%AMROTATEDRECTD23*
4,1,4,0.05636,0.02663,0.00512,-0.06213,-0.05636,-0.02663,-0.00512,0.06213,0.05636,0.02663,0.0*
%
%ADD23ROTATEDRECTD23*%

G04:AMPARAMS|DCode=24|XSize=70.99mil|YSize=102.49mil|CornerRadius=0mil|HoleSize=0mil|Usage=FLASHONLY|Rotation=130.000|XOffset=0mil|YOffset=0mil|HoleType=Round|Shape=Rectangle|*
%AMROTATEDRECTD24*
4,1,4,0.06207,0.00575,-0.01644,-0.06013,-0.06207,-0.00575,0.01644,0.06013,0.06207,0.00575,0.0*
%
%ADD24ROTATEDRECTD24*%

%ADD25R,0.03556X0.05131*%
%ADD26C,0.06343*%
%ADD27C,0.08477*%
%ADD28R,0.08477X0.08477*%
G36*
X213821Y251342D02*
X212799Y251933D01*
X214177Y254319D01*
X215199Y253729D01*
X217070Y256968D01*
X219797Y255393D01*
X214679Y246528D01*
X211951Y248103D01*
X213821Y251342D01*
D02*
G37*
G36*
X180932Y284321D02*
X180173Y285225D01*
X182284Y286997D01*
X183043Y286092D01*
X185908Y288496D01*
X187933Y286084D01*
X180092Y279504D01*
X178067Y281916D01*
X180932Y284321D01*
D02*
G37*
G36*
X160622Y330071D02*
Y331252D01*
X163378D01*
Y330071D01*
X167118D01*
Y326921D01*
X156882D01*
Y330071D01*
X160622D01*
D02*
G37*
G36*
X165847Y381756D02*
Y382937D01*
X168602D01*
Y381756D01*
X172343D01*
Y378606D01*
X162106D01*
Y381756D01*
X165847D01*
D02*
G37*
G36*
X255331Y346236D02*
X252772D01*
Y339051D01*
X249228D01*
Y346236D01*
X246669D01*
Y357949D01*
X255331D01*
Y346236D01*
D02*
G37*
G36*
X284697Y242138D02*
X283516D01*
Y244894D01*
X284697D01*
Y248634D01*
X287846D01*
Y238398D01*
X284697D01*
Y242138D01*
D02*
G37*
G36*
X335591Y265682D02*
X334831Y264777D01*
X332720Y266548D01*
X333479Y267453D01*
X330614Y269857D01*
X332639Y272270D01*
X340480Y265690D01*
X338456Y263277D01*
X335591Y265682D01*
D02*
G37*
G36*
X366966Y325555D02*
X367370Y326665D01*
X369959Y325723D01*
X369555Y324613D01*
X373070Y323334D01*
X371993Y320374D01*
X362374Y323875D01*
X363451Y326835D01*
X366966Y325555D01*
D02*
G37*
G36*
X293831Y345736D02*
X291272D01*
Y338551D01*
X287728D01*
Y345736D01*
X285169D01*
Y357449D01*
X293831D01*
Y345736D01*
D02*
G37*
G36*
X359622Y384071D02*
X359622Y385252D01*
X362378D01*
Y384071D01*
X366118D01*
Y380921D01*
X355882D01*
Y384071D01*
X359622D01*
D02*
G37*
D16*
X316409Y345000D02*
D03*
X342590D02*
D03*
X199909Y345500D02*
D03*
X226091D02*
D03*
D17*
X193597Y298118D02*
D03*
X189224Y294449D02*
D03*
D18*
X358146Y393000D02*
D03*
X363854D02*
D03*
X169354Y392000D02*
D03*
X163646D02*
D03*
X269913Y244516D02*
D03*
X275622D02*
D03*
D19*
X361000Y376000D02*
D03*
X162000Y322000D02*
D03*
X167224Y373685D02*
D03*
D20*
X365500Y317500D02*
D03*
D21*
X339723Y272750D02*
D03*
D22*
X292768Y243516D02*
D03*
D23*
X221500Y248500D02*
D03*
D24*
X187176Y279024D02*
D03*
D25*
X256906Y341610D02*
D03*
X245094D02*
D03*
X295406Y341110D02*
D03*
X283594D02*
D03*
D26*
X256039Y304000D02*
D03*
X285961D02*
D03*
D27*
X271843Y391000D02*
D03*
X323843D02*
D03*
X220264Y390500D02*
D03*
D28*
X252157Y391000D02*
D03*
X304157D02*
D03*
X200579Y390500D02*
D03*
M02*
