G04*
G04 #@! TF.GenerationSoftware,Altium Limited,Altium Designer,19.1.7 (138)*
G04*
G04 Layer_Color=32896*
%FSLAX44Y44*%
%MOMM*%
G71*
G01*
G75*
%ADD10C,0.2000*%
%ADD12C,0.1270*%
G36*
X289640Y128874D02*
X284640D01*
Y140874D01*
X289640D01*
Y128874D01*
D02*
G37*
G36*
X304640D02*
X299640D01*
Y140874D01*
X304640D01*
Y128874D01*
D02*
G37*
G36*
X388446Y299308D02*
X383446D01*
Y311308D01*
X388446D01*
Y299308D01*
D02*
G37*
G36*
X403446D02*
X398446D01*
Y311308D01*
X403446D01*
Y299308D01*
D02*
G37*
D10*
X393870Y307340D02*
G03*
X393870Y307340I-1000J0D01*
G01*
D02*
G03*
X393870Y307340I-1000J0D01*
G01*
X295200Y134620D02*
G03*
X295200Y134620I-1000J0D01*
G01*
D02*
G03*
X295200Y134620I-1000J0D01*
G01*
D12*
X383446Y299308D02*
Y311308D01*
X403446D01*
Y299308D02*
Y311308D01*
X383446Y299308D02*
X403446D01*
X383446D02*
Y311308D01*
X403446D01*
Y299308D02*
Y311308D01*
X383446Y299308D02*
X403446D01*
X304640Y128874D02*
Y140874D01*
X284640Y128874D02*
X304640D01*
X284640D02*
Y140874D01*
X304640D01*
Y128874D02*
Y140874D01*
X284640Y128874D02*
X304640D01*
X284640D02*
Y140874D01*
X304640D01*
X399070Y323840D02*
X594070D01*
X399070Y263840D02*
Y323840D01*
Y263840D02*
X594070D01*
Y323840D01*
X399070D02*
X594070D01*
X399070Y263840D02*
Y323840D01*
Y263840D02*
X594070D01*
Y323840D01*
X93000Y118120D02*
X288000D01*
Y178120D01*
X93000D02*
X288000D01*
X93000Y118120D02*
Y178120D01*
Y118120D02*
X288000D01*
Y178120D01*
X93000D02*
X288000D01*
X93000Y118120D02*
Y178120D01*
M02*
