G04*
G04 #@! TF.GenerationSoftware,Altium Limited,Altium Designer,19.1.7 (138)*
G04*
G04 Layer_Color=32768*
%FSLAX44Y44*%
%MOMM*%
G71*
G01*
G75*
%ADD10C,0.2000*%
%ADD11C,0.1500*%
%ADD12C,0.1270*%
%ADD64C,0.3000*%
%ADD69C,0.1000*%
%ADD70C,0.2500*%
D10*
X131630Y316024D02*
G03*
X131574Y316318I734J294D01*
G01*
X556202Y126190D02*
G03*
X556258Y125896I-734J-294D01*
G01*
X44900Y344122D02*
G03*
X44956Y343828I-734J-294D01*
G01*
X71432Y130096D02*
G03*
X71376Y130390I734J294D01*
G01*
X613605Y311102D02*
G03*
X613662Y310808I-734J-294D01*
G01*
X512270Y98610D02*
G03*
X511976Y98554I-294J734D01*
G01*
X642424Y99870D02*
G03*
X642368Y100164I734J294D01*
G01*
X125220Y344258D02*
G03*
X125163Y343964I-790J0D01*
G01*
X562358Y93130D02*
G03*
X562415Y93424I790J0D01*
G01*
X175816Y342333D02*
G03*
X176110Y342390I294J-734D01*
G01*
X33020Y377190D02*
X119380D01*
X33020Y323850D02*
X119380D01*
Y377190D01*
X33020Y323850D02*
Y377190D01*
X568198Y63500D02*
X654558D01*
X568198Y116840D02*
X654558D01*
X568198Y63500D02*
Y116840D01*
X654558Y63500D02*
Y116840D01*
D11*
X138938Y104340D02*
Y129540D01*
X189738D01*
Y104340D02*
Y129540D01*
X138938Y104340D02*
X189738D01*
X96074Y313068D02*
X135824D01*
X95824D02*
X96074D01*
X95824D02*
Y330568D01*
X135824D01*
Y313068D02*
Y330568D01*
X552008Y129146D02*
X591758D01*
X592008D01*
Y111646D02*
Y129146D01*
X552008Y111646D02*
X592008D01*
X552008D02*
Y129146D01*
X40706Y329578D02*
Y347078D01*
Y329578D02*
X80706D01*
Y347078D01*
X80456D02*
X80706D01*
X40706D02*
X80456D01*
X75626Y127140D02*
Y144640D01*
X35626D02*
X75626D01*
X35626Y127140D02*
Y144640D01*
Y127140D02*
X35876D01*
X75626D01*
X609412Y296558D02*
Y314058D01*
Y296558D02*
X649412D01*
Y314058D01*
X649162D02*
X649412D01*
X609412D02*
X649162D01*
X497726Y102804D02*
X515226D01*
X497726Y62804D02*
Y102804D01*
Y62804D02*
X515226D01*
Y63054D01*
Y102804D01*
X606868Y96914D02*
X646618D01*
X606618D02*
X606868D01*
X606618D02*
Y114414D01*
X646618D01*
Y96914D02*
Y114414D01*
X120970Y341008D02*
Y358508D01*
X160970D01*
Y341008D02*
Y358508D01*
X160720Y341008D02*
X160970D01*
X120970D02*
X160720D01*
X480822Y262944D02*
X531622D01*
X480822Y237744D02*
Y262944D01*
Y237744D02*
X531622D01*
Y262944D01*
X566608Y78880D02*
Y96380D01*
X526608Y78880D02*
X566608D01*
X526608D02*
Y96380D01*
X526858D01*
X566608D01*
X548640Y312674D02*
Y337874D01*
X497840Y312674D02*
X548640D01*
X497840D02*
Y337874D01*
X548640D01*
X172860Y338140D02*
Y377890D01*
Y378140D01*
X190360D01*
Y338140D02*
Y378140D01*
X172860Y338140D02*
X190360D01*
X160274Y179270D02*
Y204470D01*
X211074D01*
Y179270D02*
Y204470D01*
X160274Y179270D02*
X211074D01*
D12*
X654298Y218442D02*
Y294642D01*
X679197D01*
Y218442D02*
Y294642D01*
X654298Y218442D02*
X679197D01*
X654299Y142242D02*
X679199D01*
Y193042D01*
X654299D02*
X679199D01*
X654299Y142242D02*
Y193042D01*
Y66042D02*
Y116842D01*
X679199D01*
Y66042D02*
Y116842D01*
X654299Y66042D02*
X679199D01*
X7869Y325122D02*
X32768D01*
Y375922D01*
X7869D02*
X32768D01*
X7869Y325122D02*
Y375922D01*
Y248922D02*
X32768D01*
Y299722D01*
X7869D02*
X32768D01*
X7869Y248922D02*
Y299722D01*
X7868Y147322D02*
Y223522D01*
X32767D01*
Y147322D02*
Y223522D01*
X7868Y147322D02*
X32767D01*
X312620Y147320D02*
Y298450D01*
Y298958D02*
X337520D01*
Y147320D02*
Y298704D01*
X312620Y147320D02*
X337520D01*
X349450Y142240D02*
Y293370D01*
Y293878D02*
X374350D01*
Y142240D02*
Y293624D01*
X349450Y142240D02*
X374350D01*
D64*
X114971Y371520D02*
G03*
X114971Y371520I-1521J0D01*
G01*
X575649Y69170D02*
G03*
X575649Y69170I-1521J0D01*
G01*
D69*
X374833Y245741D02*
X397833D01*
X374833Y292741D02*
X397833D01*
Y245741D02*
Y292741D01*
X374833Y245741D02*
Y292741D01*
X329838Y314434D02*
Y343934D01*
X316338Y314434D02*
Y343934D01*
Y314434D02*
X329838D01*
X316338Y343934D02*
X329838D01*
X262313Y229739D02*
Y276739D01*
X285313Y229739D02*
Y276739D01*
X262313D02*
X285313D01*
X262313Y229739D02*
X285313D01*
X288727Y195965D02*
X311727D01*
X288727Y148965D02*
X311727D01*
X288727D02*
Y195965D01*
X311727Y148965D02*
Y195965D01*
X237516Y124308D02*
X272516D01*
X237516Y105308D02*
X272516D01*
Y124308D01*
X237516Y105308D02*
Y124308D01*
X239504Y145142D02*
Y158642D01*
X269004Y145142D02*
Y158642D01*
X239504Y145142D02*
X269004D01*
X239504Y158642D02*
X269004D01*
X173254Y160172D02*
X208254D01*
X173254Y179172D02*
X208254D01*
X173254Y160172D02*
Y179172D01*
X208254Y160172D02*
Y179172D01*
X164610Y145142D02*
Y158642D01*
X135110Y145142D02*
Y158642D01*
X164610D01*
X135110Y145142D02*
X164610D01*
X99086Y175362D02*
X134086D01*
X99086Y156362D02*
X134086D01*
Y175362D01*
X99086Y156362D02*
Y175362D01*
X166098Y145396D02*
X195598D01*
X166098Y158896D02*
X195598D01*
X166098Y145396D02*
Y158896D01*
X195598Y145396D02*
Y158896D01*
X522460Y283318D02*
Y296818D01*
X551960Y283318D02*
Y296818D01*
X522460D02*
X551960D01*
X522460Y283318D02*
X551960D01*
X491726D02*
Y296818D01*
X521226Y283318D02*
Y296818D01*
X491726D02*
X521226D01*
X491726Y283318D02*
X521226D01*
X195344Y145142D02*
Y158642D01*
X165844Y145142D02*
Y158642D01*
Y145142D02*
X195344D01*
X165844Y158642D02*
X195344D01*
X164746Y145142D02*
Y158642D01*
X135246Y145142D02*
Y158642D01*
Y145142D02*
X164746D01*
X135246Y158642D02*
X164746D01*
X287382Y265702D02*
X300882D01*
X287382Y236202D02*
X300882D01*
Y265702D01*
X287382Y236202D02*
Y265702D01*
X369334Y325736D02*
Y339236D01*
X339834Y325736D02*
Y339236D01*
X369334D01*
X339834Y325736D02*
X369334D01*
X124442Y300336D02*
Y313836D01*
X153942Y300336D02*
Y313836D01*
X124442D02*
X153942D01*
X124442Y300336D02*
X153942D01*
X155982Y322224D02*
X190982D01*
X155982Y341224D02*
X190982D01*
X155982Y322224D02*
Y341224D01*
X190982Y322224D02*
Y341224D01*
X173076Y279680D02*
Y314680D01*
X154076Y279680D02*
Y314680D01*
Y279680D02*
X173076D01*
X154076Y314680D02*
X173076D01*
X144149Y191701D02*
Y214701D01*
X97149Y191701D02*
Y214701D01*
X144149D01*
X97149Y191701D02*
X144149D01*
X514502Y127534D02*
Y162534D01*
X533502Y127534D02*
Y162534D01*
X514502D02*
X533502D01*
X514502Y127534D02*
X533502D01*
X496596Y120498D02*
X531596D01*
X496596Y101498D02*
X531596D01*
Y120498D01*
X496596Y101498D02*
Y120498D01*
X399180Y176258D02*
Y205758D01*
X385680Y176258D02*
Y205758D01*
X399180D01*
X385680Y176258D02*
X399180D01*
X87751Y228531D02*
X134751D01*
X87751Y251531D02*
X134751D01*
Y228531D02*
Y251531D01*
X87751Y228531D02*
Y251531D01*
Y275151D02*
X134751D01*
X87751Y252151D02*
X134751D01*
X87751D02*
Y275151D01*
X134751Y252151D02*
Y275151D01*
X145663Y228045D02*
X192663D01*
X145663Y205045D02*
X192663D01*
X145663D02*
Y228045D01*
X192663Y205045D02*
Y228045D01*
X145663Y204031D02*
X192663D01*
X145663Y181031D02*
X192663D01*
X145663D02*
Y204031D01*
X192663Y181031D02*
Y204031D01*
X532796Y141878D02*
X562296D01*
X532796Y128378D02*
X562296D01*
X532796D02*
Y141878D01*
X562296Y128378D02*
Y141878D01*
X553079Y213430D02*
X600079D01*
X553079Y190430D02*
X600079D01*
X553079D02*
Y213430D01*
X600079Y190430D02*
Y213430D01*
X553079Y166491D02*
X600079D01*
X553079Y189491D02*
X600079D01*
Y166491D02*
Y189491D01*
X553079Y166491D02*
Y189491D01*
X502027Y217355D02*
X549027D01*
X502027Y240355D02*
X549027D01*
Y217355D02*
Y240355D01*
X502027Y217355D02*
Y240355D01*
Y239961D02*
X549027D01*
X502027Y262961D02*
X549027D01*
Y239961D02*
Y262961D01*
X502027Y239961D02*
Y262961D01*
X145481Y203247D02*
X192481D01*
X145481Y226247D02*
X192481D01*
X145481Y203247D02*
Y226247D01*
X192481Y203247D02*
Y226247D01*
X145481Y227007D02*
X192481D01*
X145481Y250007D02*
X192481D01*
X145481Y227007D02*
Y250007D01*
X192481Y227007D02*
Y250007D01*
X424249Y164459D02*
Y211459D01*
X401249Y164459D02*
Y211459D01*
Y164459D02*
X424249D01*
X401249Y211459D02*
X424249D01*
X491472Y296310D02*
X520972D01*
X491472Y282810D02*
X520972D01*
Y296310D01*
X491472Y282810D02*
Y296310D01*
X479070Y262534D02*
Y281534D01*
X514070Y262534D02*
Y281534D01*
X479070Y262534D02*
X514070D01*
X479070Y281534D02*
X514070D01*
X590357Y264058D02*
Y283058D01*
X555357Y264058D02*
Y283058D01*
X590357D01*
X555357Y264058D02*
X590357D01*
X501265Y214955D02*
X548265D01*
X501265Y191955D02*
X548265D01*
Y214955D01*
X501265Y191955D02*
Y214955D01*
Y238831D02*
X548265D01*
X501265Y215831D02*
X548265D01*
Y238831D01*
X501265Y215831D02*
Y238831D01*
X580511Y202623D02*
X627511D01*
X580511Y225623D02*
X627511D01*
X580511Y202623D02*
Y225623D01*
X627511Y202623D02*
Y225623D01*
X525508Y282810D02*
Y296310D01*
X555008Y282810D02*
Y296310D01*
X525508Y282810D02*
X555008D01*
X525508Y296310D02*
X555008D01*
X419082Y282556D02*
X448582D01*
X419082Y296056D02*
X448582D01*
X419082Y282556D02*
Y296056D01*
X448582Y282556D02*
Y296056D01*
X451840Y318922D02*
Y337922D01*
X416840Y318922D02*
Y337922D01*
X451840D01*
X416840Y318922D02*
X451840D01*
X322054Y101962D02*
Y115462D01*
X351554Y101962D02*
Y115462D01*
X322054Y101962D02*
X351554D01*
X322054Y115462D02*
X351554D01*
X365106Y98280D02*
X378606D01*
X365106Y127780D02*
X378606D01*
Y98280D02*
Y127780D01*
X365106Y98280D02*
Y127780D01*
X551049Y249497D02*
X598049D01*
X551049Y226497D02*
X598049D01*
Y249497D01*
X551049Y226497D02*
Y249497D01*
X68195Y238575D02*
X115195D01*
X68195Y215575D02*
X115195D01*
Y238575D01*
X68195Y215575D02*
Y238575D01*
D70*
X143394Y107884D02*
G03*
X143338Y107590I-790J0D01*
G01*
X527165Y259400D02*
G03*
X527222Y259694I790J0D01*
G01*
X544184Y334330D02*
G03*
X544240Y334624I790J0D01*
G01*
X164730Y182814D02*
G03*
X164674Y182520I-790J0D01*
G01*
M02*
