G04*
G04 #@! TF.GenerationSoftware,Altium Limited,Altium Designer,19.1.7 (138)*
G04*
G04 Layer_Physical_Order=1*
G04 Layer_Color=255*
%FSLAX44Y44*%
%MOMM*%
G71*
G01*
G75*
G04:AMPARAMS|DCode=18|XSize=1mm|YSize=0.9mm|CornerRadius=0.225mm|HoleSize=0mm|Usage=FLASHONLY|Rotation=90.000|XOffset=0mm|YOffset=0mm|HoleType=Round|Shape=RoundedRectangle|*
%AMROUNDEDRECTD18*
21,1,1.0000,0.4500,0,0,90.0*
21,1,0.5500,0.9000,0,0,90.0*
1,1,0.4500,0.2250,0.2750*
1,1,0.4500,0.2250,-0.2750*
1,1,0.4500,-0.2250,-0.2750*
1,1,0.4500,-0.2250,0.2750*
%
%ADD18ROUNDEDRECTD18*%
G04:AMPARAMS|DCode=19|XSize=1mm|YSize=0.9mm|CornerRadius=0.225mm|HoleSize=0mm|Usage=FLASHONLY|Rotation=0.000|XOffset=0mm|YOffset=0mm|HoleType=Round|Shape=RoundedRectangle|*
%AMROUNDEDRECTD19*
21,1,1.0000,0.4500,0,0,0.0*
21,1,0.5500,0.9000,0,0,0.0*
1,1,0.4500,0.2750,-0.2250*
1,1,0.4500,-0.2750,-0.2250*
1,1,0.4500,-0.2750,0.2250*
1,1,0.4500,0.2750,0.2250*
%
%ADD19ROUNDEDRECTD19*%
G04:AMPARAMS|DCode=20|XSize=1mm|YSize=1mm|CornerRadius=0.25mm|HoleSize=0mm|Usage=FLASHONLY|Rotation=90.000|XOffset=0mm|YOffset=0mm|HoleType=Round|Shape=RoundedRectangle|*
%AMROUNDEDRECTD20*
21,1,1.0000,0.5000,0,0,90.0*
21,1,0.5000,1.0000,0,0,90.0*
1,1,0.5000,0.2500,0.2500*
1,1,0.5000,0.2500,-0.2500*
1,1,0.5000,-0.2500,-0.2500*
1,1,0.5000,-0.2500,0.2500*
%
%ADD20ROUNDEDRECTD20*%
G04:AMPARAMS|DCode=21|XSize=0.99mm|YSize=0.78mm|CornerRadius=0.195mm|HoleSize=0mm|Usage=FLASHONLY|Rotation=0.000|XOffset=0mm|YOffset=0mm|HoleType=Round|Shape=RoundedRectangle|*
%AMROUNDEDRECTD21*
21,1,0.9900,0.3900,0,0,0.0*
21,1,0.6000,0.7800,0,0,0.0*
1,1,0.3900,0.3000,-0.1950*
1,1,0.3900,-0.3000,-0.1950*
1,1,0.3900,-0.3000,0.1950*
1,1,0.3900,0.3000,0.1950*
%
%ADD21ROUNDEDRECTD21*%
G04:AMPARAMS|DCode=22|XSize=1.7272mm|YSize=0.635mm|CornerRadius=0.1588mm|HoleSize=0mm|Usage=FLASHONLY|Rotation=180.000|XOffset=0mm|YOffset=0mm|HoleType=Round|Shape=RoundedRectangle|*
%AMROUNDEDRECTD22*
21,1,1.7272,0.3175,0,0,180.0*
21,1,1.4097,0.6350,0,0,180.0*
1,1,0.3175,-0.7049,0.1588*
1,1,0.3175,0.7049,0.1588*
1,1,0.3175,0.7049,-0.1588*
1,1,0.3175,-0.7049,-0.1588*
%
%ADD22ROUNDEDRECTD22*%
G04:AMPARAMS|DCode=23|XSize=1.8mm|YSize=1.3mm|CornerRadius=0.325mm|HoleSize=0mm|Usage=FLASHONLY|Rotation=270.000|XOffset=0mm|YOffset=0mm|HoleType=Round|Shape=RoundedRectangle|*
%AMROUNDEDRECTD23*
21,1,1.8000,0.6500,0,0,270.0*
21,1,1.1500,1.3000,0,0,270.0*
1,1,0.6500,-0.3250,-0.5750*
1,1,0.6500,-0.3250,0.5750*
1,1,0.6500,0.3250,0.5750*
1,1,0.6500,0.3250,-0.5750*
%
%ADD23ROUNDEDRECTD23*%
G04:AMPARAMS|DCode=24|XSize=1mm|YSize=1mm|CornerRadius=0.25mm|HoleSize=0mm|Usage=FLASHONLY|Rotation=0.000|XOffset=0mm|YOffset=0mm|HoleType=Round|Shape=RoundedRectangle|*
%AMROUNDEDRECTD24*
21,1,1.0000,0.5000,0,0,0.0*
21,1,0.5000,1.0000,0,0,0.0*
1,1,0.5000,0.2500,-0.2500*
1,1,0.5000,-0.2500,-0.2500*
1,1,0.5000,-0.2500,0.2500*
1,1,0.5000,0.2500,0.2500*
%
%ADD24ROUNDEDRECTD24*%
G04:AMPARAMS|DCode=27|XSize=0.8mm|YSize=0.55mm|CornerRadius=0.1375mm|HoleSize=0mm|Usage=FLASHONLY|Rotation=180.000|XOffset=0mm|YOffset=0mm|HoleType=Round|Shape=RoundedRectangle|*
%AMROUNDEDRECTD27*
21,1,0.8000,0.2750,0,0,180.0*
21,1,0.5250,0.5500,0,0,180.0*
1,1,0.2750,-0.2625,0.1375*
1,1,0.2750,0.2625,0.1375*
1,1,0.2750,0.2625,-0.1375*
1,1,0.2750,-0.2625,-0.1375*
%
%ADD27ROUNDEDRECTD27*%
G04:AMPARAMS|DCode=28|XSize=0.8mm|YSize=0.55mm|CornerRadius=0.1375mm|HoleSize=0mm|Usage=FLASHONLY|Rotation=270.000|XOffset=0mm|YOffset=0mm|HoleType=Round|Shape=RoundedRectangle|*
%AMROUNDEDRECTD28*
21,1,0.8000,0.2750,0,0,270.0*
21,1,0.5250,0.5500,0,0,270.0*
1,1,0.2750,-0.1375,-0.2625*
1,1,0.2750,-0.1375,0.2625*
1,1,0.2750,0.1375,0.2625*
1,1,0.2750,0.1375,-0.2625*
%
%ADD28ROUNDEDRECTD28*%
%ADD36C,0.7620*%
%ADD37C,0.8890*%
%ADD38C,1.2700*%
%ADD39C,0.8128*%
%ADD40C,0.6350*%
%ADD41C,0.5080*%
%ADD42O,1.5240X1.5000*%
%ADD43C,1.5080*%
G04:AMPARAMS|DCode=44|XSize=1.508mm|YSize=1.508mm|CornerRadius=0.377mm|HoleSize=0mm|Usage=FLASHONLY|Rotation=0.000|XOffset=0mm|YOffset=0mm|HoleType=Round|Shape=RoundedRectangle|*
%AMROUNDEDRECTD44*
21,1,1.5080,0.7540,0,0,0.0*
21,1,0.7540,1.5080,0,0,0.0*
1,1,0.7540,0.3770,-0.3770*
1,1,0.7540,-0.3770,-0.3770*
1,1,0.7540,-0.3770,0.3770*
1,1,0.7540,0.3770,0.3770*
%
%ADD44ROUNDEDRECTD44*%
%ADD45C,0.6000*%
G36*
X333143Y387253D02*
X336660Y386553D01*
X340092Y385512D01*
X343406Y384140D01*
X346569Y382449D01*
X349551Y380456D01*
X352323Y378181D01*
X353591Y376913D01*
X353591Y376913D01*
X353591Y376913D01*
X388825Y341679D01*
X390161Y340468D01*
X393157Y338466D01*
X396485Y337087D01*
X400019Y336385D01*
X401820Y336296D01*
X434012D01*
X435648Y336296D01*
X438859Y335661D01*
X441886Y334415D01*
X444613Y332606D01*
X445775Y331453D01*
X445775Y331453D01*
X445776Y331453D01*
X450392Y326877D01*
X451407Y325872D01*
X453001Y323502D01*
X454100Y320866D01*
X454660Y318065D01*
X454659Y316637D01*
X454659Y316637D01*
X454659Y316637D01*
X454660Y293217D01*
X454660Y291739D01*
X454099Y288838D01*
X452997Y286095D01*
X451394Y283612D01*
X450371Y282545D01*
X450371Y282545D01*
X450371Y282545D01*
X440817Y272575D01*
X439585Y271160D01*
X437553Y268012D01*
X436157Y264536D01*
X435445Y260857D01*
X435356Y258984D01*
X435356D01*
X435356Y258984D01*
X435356Y104535D01*
X435356Y102146D01*
X434424Y97460D01*
X432595Y93045D01*
X429940Y89072D01*
X428251Y87383D01*
X428251Y87383D01*
X428251Y87383D01*
X407811Y66943D01*
X406801Y65932D01*
X404590Y64118D01*
X402213Y62530D01*
X399691Y61182D01*
X397050Y60088D01*
X394313Y59258D01*
X391509Y58700D01*
X388664Y58420D01*
X387234Y58420D01*
X387234Y58420D01*
X387234Y58420D01*
X357810Y58420D01*
X356373D01*
X353513Y58702D01*
X350694Y59262D01*
X347944Y60097D01*
X345289Y61196D01*
X342754Y62551D01*
X340364Y64148D01*
X338143Y65971D01*
X337127Y66987D01*
Y66987D01*
X304508Y99606D01*
X302752Y101198D01*
X298815Y103828D01*
X294441Y105640D01*
X289797Y106563D01*
X287431Y106679D01*
X287430Y106680D01*
X287430Y106680D01*
X245531Y106680D01*
X244525Y106680D01*
X242551Y107072D01*
X240693Y107842D01*
X239020Y108960D01*
X238308Y109671D01*
X238308Y109672D01*
X235212Y112768D01*
X234212Y114265D01*
X233523Y115927D01*
X233172Y117693D01*
X233172Y118592D01*
Y150629D01*
X233172Y152741D01*
X233996Y156884D01*
X235613Y160787D01*
X237959Y164299D01*
X239453Y165793D01*
X239453Y165793D01*
X252904Y179244D01*
X254294Y180777D01*
X256590Y184214D01*
X258172Y188033D01*
X258978Y192087D01*
X259080Y194154D01*
X259080Y194154D01*
Y235295D01*
X260062Y236101D01*
X261366Y235842D01*
X289286D01*
X289513Y235690D01*
X291382Y235318D01*
X296882D01*
X298751Y235690D01*
X298978Y235842D01*
X302260D01*
X304738Y236334D01*
X306838Y237738D01*
X308242Y239838D01*
X308734Y242316D01*
X308242Y244794D01*
X306838Y246894D01*
X304738Y248298D01*
X302260Y248790D01*
X299385D01*
X298751Y249214D01*
X296882Y249586D01*
X291382D01*
X289513Y249214D01*
X288879Y248790D01*
X261366D01*
X260062Y248531D01*
X259080Y249337D01*
Y348706D01*
Y350889D01*
X259932Y355171D01*
X261602Y359204D01*
X264028Y362834D01*
X265571Y364377D01*
X265571Y364377D01*
X282337Y381143D01*
X283874Y382680D01*
X287486Y385094D01*
X291501Y386756D01*
X295762Y387604D01*
X297934Y387604D01*
X297935Y387604D01*
X327780Y387604D01*
X329574Y387604D01*
X333143Y387253D01*
D02*
G37*
G36*
X47523Y382430D02*
X48166Y381787D01*
X48514Y380947D01*
X48514Y380492D01*
X48514Y380492D01*
X48514Y364236D01*
X48514Y363125D01*
X47663Y361071D01*
X46091Y359499D01*
X44038Y358648D01*
X42926Y358648D01*
X42926Y358648D01*
X37400Y358648D01*
X36784Y358618D01*
X35577Y358378D01*
X34439Y357906D01*
X33415Y357222D01*
X32958Y356808D01*
X32958Y356808D01*
X30362Y354212D01*
X29874Y353674D01*
X29068Y352467D01*
X28513Y351127D01*
X28230Y349704D01*
X28194Y348978D01*
X28194Y348978D01*
X28194Y337820D01*
X28194Y337095D01*
X27911Y335672D01*
X27356Y334331D01*
X26550Y333125D01*
X25524Y332099D01*
X24318Y331293D01*
X22977Y330738D01*
X21554Y330455D01*
X20829Y330455D01*
X20828Y330454D01*
X17693Y330454D01*
X17049Y330454D01*
X15787Y330705D01*
X14598Y331198D01*
X13527Y331913D01*
X13072Y332368D01*
X13072Y332368D01*
X9026Y336414D01*
X8631Y336809D01*
X8011Y337737D01*
X7584Y338769D01*
X7366Y339864D01*
X7366Y340422D01*
X7366Y340422D01*
Y371479D01*
X7366Y372293D01*
X7684Y373891D01*
X8307Y375396D01*
X9212Y376750D01*
X9788Y377326D01*
X9788Y377326D01*
X12325Y379863D01*
X13018Y380556D01*
X14648Y381645D01*
X16460Y382396D01*
X18383Y382778D01*
X19363Y382778D01*
X19363Y382778D01*
X46228Y382778D01*
X46683Y382778D01*
X47523Y382430D01*
D02*
G37*
G36*
X159512Y384048D02*
X159512Y384048D01*
X182118Y384048D01*
X183128Y384048D01*
X184995Y383275D01*
X186425Y381846D01*
X187198Y379978D01*
X187198Y378968D01*
X187198Y378968D01*
X187198Y369570D01*
X187198Y368459D01*
X186347Y366405D01*
X184775Y364833D01*
X182722Y363982D01*
X181610Y363982D01*
X181610D01*
X181610D01*
D01*
X168916Y363982D01*
X168766Y363658D01*
X168474Y362865D01*
X168226Y362014D01*
X168023Y361103D01*
X167866Y360134D01*
X167685Y358020D01*
X167663Y356875D01*
X160043D01*
X160020Y358020D01*
X159840Y360134D01*
X159683Y361103D01*
X159480Y362014D01*
X159232Y362865D01*
X158939Y363658D01*
X158774Y364017D01*
X156711Y364871D01*
X155067Y366515D01*
X154178Y368662D01*
Y369824D01*
X154178Y369824D01*
X154178Y378714D01*
X154178Y379775D01*
X154990Y381736D01*
X156490Y383236D01*
X158451Y384048D01*
X159512Y384048D01*
D02*
G37*
G36*
X114046Y384048D02*
X114046Y384048D01*
X137160Y384048D01*
X138019Y384048D01*
X139606Y383391D01*
X140821Y382176D01*
X141478Y380589D01*
X141478Y379730D01*
X141478Y379730D01*
X141478Y365760D01*
X141478Y364952D01*
X140859Y363458D01*
X139716Y362315D01*
X138223Y361696D01*
X137414Y361696D01*
X113792Y361696D01*
X112832D01*
X111058Y362431D01*
X109701Y363788D01*
X108966Y365562D01*
X108966Y366522D01*
X108966Y366522D01*
X108966Y378968D01*
X108966Y379979D01*
X109740Y381846D01*
X111168Y383275D01*
X113036Y384048D01*
X114046Y384048D01*
D02*
G37*
G36*
X67183D02*
X67183Y384048D01*
X90297Y384048D01*
X91156Y384048D01*
X92743Y383391D01*
X93958Y382176D01*
X94615Y380589D01*
X94615Y379730D01*
X94615Y379730D01*
X94615Y365760D01*
X94615Y364952D01*
X93996Y363458D01*
X92853Y362315D01*
X91360Y361696D01*
X90551Y361696D01*
X66929Y361696D01*
X65969D01*
X64195Y362431D01*
X62838Y363788D01*
X62103Y365562D01*
X62103Y366522D01*
X62103Y366522D01*
X62103Y378968D01*
X62103Y379979D01*
X62876Y381846D01*
X64306Y383275D01*
X66173Y384048D01*
X67183Y384048D01*
D02*
G37*
G36*
X85158Y342153D02*
X86171Y342138D01*
Y334518D01*
X85158Y334511D01*
Y333995D01*
X84933Y334095D01*
X84573Y334184D01*
X84076Y334262D01*
X82818Y334374D01*
X79550Y334152D01*
X78846Y334020D01*
X78256Y333868D01*
X77781Y333695D01*
X77420Y333502D01*
Y334513D01*
X76782Y334518D01*
X76251Y342138D01*
X77420Y342152D01*
Y343154D01*
X77781Y342961D01*
X78256Y342788D01*
X78846Y342636D01*
X79550Y342504D01*
X80680Y342373D01*
X80846Y342384D01*
X81780Y342523D01*
X83389Y342892D01*
X84065Y343123D01*
X84654Y343384D01*
X85158Y343677D01*
Y342153D01*
D02*
G37*
G36*
X154165Y341799D02*
X153155Y340779D01*
X149214Y336336D01*
X148910Y335875D01*
X148707Y335495D01*
X148605Y335194D01*
X140148Y342651D01*
X141164Y342889D01*
X142169Y343198D01*
X143162Y343578D01*
X144145Y344028D01*
X145116Y344549D01*
X146075Y345140D01*
X147024Y345802D01*
X147961Y346535D01*
X149801Y348211D01*
X154165Y341799D01*
D02*
G37*
G36*
X186166Y340953D02*
X185924Y340385D01*
X185711Y339723D01*
X185526Y338965D01*
X185369Y338113D01*
X185142Y336125D01*
X185028Y333758D01*
X185014Y332432D01*
X177394Y332947D01*
X177388Y334394D01*
X177003Y340795D01*
X176900Y341177D01*
X176784Y341426D01*
X186436D01*
X186166Y340953D01*
D02*
G37*
G36*
X109417Y334863D02*
X109241Y334415D01*
X109085Y333874D01*
X108950Y333242D01*
X108836Y332519D01*
X108670Y330796D01*
X108586Y328706D01*
X108576Y327524D01*
X100956Y327566D01*
X100933Y335220D01*
X109615D01*
X109417Y334863D01*
D02*
G37*
G36*
X617288Y317231D02*
X616923Y317427D01*
X616446Y317602D01*
X615856Y317757D01*
X615153Y317891D01*
X613410Y318097D01*
X611217Y318221D01*
X608573Y318262D01*
Y325882D01*
X609951Y325892D01*
X615153Y326253D01*
X615856Y326387D01*
X616446Y326542D01*
X616923Y326717D01*
X617288Y326913D01*
Y317231D01*
D02*
G37*
G36*
X507064Y312446D02*
X506499Y311860D01*
X505549Y310744D01*
X505484Y310655D01*
X505816Y309854D01*
X506221Y307811D01*
X506220Y306770D01*
X506222Y306770D01*
X506222Y289447D01*
X506318Y287490D01*
X507081Y283652D01*
X508579Y280036D01*
X510754Y276782D01*
X512070Y275330D01*
X512070Y275330D01*
X515553Y271847D01*
X517079Y270321D01*
X519477Y266733D01*
X521128Y262746D01*
X521969Y258513D01*
X521968Y256355D01*
X521969Y256356D01*
X521970Y224572D01*
X521970Y222570D01*
X521189Y218643D01*
X519657Y214945D01*
X517432Y211616D01*
X516017Y210201D01*
X516018Y210202D01*
X511810Y205994D01*
X511296Y205427D01*
X510445Y204154D01*
X509860Y202741D01*
X509562Y201240D01*
X509524Y200475D01*
X509524Y200475D01*
X509524Y198182D01*
X509545Y197746D01*
X509715Y196892D01*
X510048Y196088D01*
X510532Y195364D01*
X510825Y195041D01*
X510825Y195041D01*
X512764Y193102D01*
X513284Y192631D01*
X514449Y191852D01*
X515744Y191316D01*
X517118Y191042D01*
X517819Y191008D01*
X517819D01*
X521970Y190500D01*
Y182880D01*
X510874Y182880D01*
X509647Y182880D01*
X507240Y183358D01*
X504973Y184297D01*
X502933Y185661D01*
X502066Y186528D01*
Y186528D01*
X499934Y188660D01*
X499315Y189279D01*
X498343Y190734D01*
X497673Y192350D01*
X497332Y194067D01*
X497332Y194942D01*
Y194942D01*
Y213132D01*
X497285Y214088D01*
X496912Y215962D01*
X496181Y217728D01*
X495119Y219317D01*
X494476Y220026D01*
X494476Y220026D01*
X490703Y223799D01*
X489742Y224760D01*
X488233Y227018D01*
X487194Y229527D01*
X486664Y232191D01*
X486664Y233549D01*
Y233549D01*
X486664Y307068D01*
X486664Y307978D01*
X487019Y309764D01*
X487715Y311446D01*
X488727Y312959D01*
X489371Y313603D01*
X489371Y313603D01*
X491354Y315586D01*
X491749Y315981D01*
X492677Y316601D01*
X493708Y317027D01*
X494803Y317245D01*
X495361Y317244D01*
Y317244D01*
X497778Y317246D01*
X498337Y317246D01*
X499431Y317028D01*
X500369Y316639D01*
X500523Y316764D01*
X501676Y317834D01*
X507064Y312446D01*
D02*
G37*
G36*
X523030Y315722D02*
X523442Y315722D01*
X524251Y315561D01*
X525013Y315245D01*
X525699Y314787D01*
X525990Y314496D01*
X525990Y314496D01*
X529813Y310673D01*
X530183Y310303D01*
X530764Y309434D01*
X531164Y308468D01*
X531368Y307442D01*
X531368Y306919D01*
X531368D01*
Y301052D01*
X531389Y300616D01*
X531559Y299762D01*
X531892Y298958D01*
X532376Y298234D01*
X532669Y297911D01*
X532669Y297911D01*
X533443Y297136D01*
X533735Y296845D01*
X534193Y296159D01*
X534509Y295397D01*
X534670Y294588D01*
X534670Y294175D01*
X534670Y294176D01*
X534670Y289560D01*
X534670Y288499D01*
X533858Y286538D01*
X532357Y285038D01*
X530397Y284226D01*
X529336Y284226D01*
X529336Y284226D01*
X514350Y284226D01*
X513340Y284226D01*
X511472Y284999D01*
X510043Y286428D01*
X509270Y288295D01*
X509270Y289305D01*
Y289306D01*
X509270Y294789D01*
Y295116D01*
X509398Y295757D01*
X509648Y296361D01*
X510011Y296905D01*
X510242Y297136D01*
X510242Y297136D01*
X511271Y298165D01*
X511507Y298425D01*
X511896Y299008D01*
X512164Y299655D01*
X512301Y300342D01*
X512318Y300692D01*
X512318Y300692D01*
Y306516D01*
X512318Y307075D01*
X512536Y308169D01*
X512963Y309201D01*
X513583Y310129D01*
X513978Y310524D01*
X513978Y310524D01*
X517875Y314421D01*
X518185Y314730D01*
X518912Y315217D01*
X519720Y315551D01*
X520578Y315722D01*
X521016Y315722D01*
X521016Y315722D01*
X523030Y315722D01*
D02*
G37*
G36*
X553070Y312339D02*
X553441Y312090D01*
X553867Y311869D01*
X554349Y311679D01*
X554886Y311517D01*
X555478Y311385D01*
X555927Y311314D01*
X565150Y311150D01*
Y303530D01*
X554272Y302971D01*
X553867Y302811D01*
X553441Y302591D01*
X553070Y302341D01*
X552755Y302062D01*
Y302893D01*
X551857Y302847D01*
Y311833D01*
X552113Y311703D01*
X552608Y311587D01*
X552755Y311567D01*
Y312618D01*
X553070Y312339D01*
D02*
G37*
G36*
X133730Y325636D02*
X134209Y325223D01*
X134789Y324858D01*
X135472Y324542D01*
X136256Y324274D01*
X137112Y324063D01*
X137716Y324204D01*
X138309Y324398D01*
X138790Y324622D01*
X139158Y324876D01*
X139414Y325160D01*
X139540Y323751D01*
X141712Y323666D01*
Y317610D01*
X148605Y318194D01*
X148635Y318169D01*
X148662Y317997D01*
X148686Y317680D01*
X148758Y313906D01*
X148764Y311375D01*
X141144Y311348D01*
X141128Y312527D01*
X140885Y315303D01*
X140738Y315974D01*
X140713Y316051D01*
X139714Y316056D01*
X137580Y316195D01*
X136637Y316129D01*
X131798Y316046D01*
Y323666D01*
X133065Y323681D01*
X133138Y323686D01*
X133354Y326098D01*
X133730Y325636D01*
D02*
G37*
G36*
X134276Y310765D02*
X134988Y310053D01*
X135373Y309122D01*
X135373Y308619D01*
X135373D01*
X135373Y297680D01*
Y296974D01*
X134833Y295670D01*
X133836Y294672D01*
X132532Y294132D01*
X131826Y294132D01*
X122428Y294132D01*
X121721Y294132D01*
X120414Y294673D01*
X119413Y295674D01*
X118872Y296981D01*
X118872Y297688D01*
X118872Y297688D01*
X118872Y308356D01*
X118872Y308912D01*
X119297Y309939D01*
X120083Y310725D01*
X121110Y311150D01*
X121666Y311150D01*
Y311150D01*
X132842Y311150D01*
X133345Y311150D01*
X134276Y310765D01*
D02*
G37*
G36*
X151843Y311092D02*
X152261Y310784D01*
X152796Y310513D01*
X153448Y310278D01*
X154218Y310079D01*
X155105Y309916D01*
X156109Y309789D01*
X158469Y309644D01*
X159825Y309626D01*
Y302006D01*
X150808Y302245D01*
X151542Y311436D01*
X151843Y311092D01*
D02*
G37*
G36*
X611882Y301028D02*
X611772Y301117D01*
X611568Y301197D01*
X611270Y301268D01*
X610878Y301329D01*
X609812Y301423D01*
X607508Y301493D01*
X606552Y301498D01*
Y309118D01*
X607508Y309123D01*
X611270Y309349D01*
X611568Y309419D01*
X611772Y309499D01*
X611882Y309588D01*
Y301028D01*
D02*
G37*
G36*
X145557Y272724D02*
X146499Y272580D01*
X147427Y272366D01*
X147881Y272224D01*
X147881D01*
X148525Y272022D01*
X148922Y271907D01*
X149726Y271721D01*
X150542Y271596D01*
X151365Y271534D01*
X151778Y271526D01*
X151778Y271526D01*
X164846D01*
Y264160D01*
X156018D01*
X155282Y264124D01*
X153839Y263837D01*
X152479Y263274D01*
X151255Y262456D01*
X150709Y261961D01*
X150709Y261961D01*
X148831Y260083D01*
X148377Y259582D01*
X147626Y258458D01*
X147109Y257210D01*
X146846Y255884D01*
X146812Y255209D01*
X146812Y255208D01*
X146812Y250252D01*
X146812Y249573D01*
X146547Y248241D01*
X146027Y246986D01*
X145273Y245857D01*
X144793Y245377D01*
X144793Y245377D01*
X133083Y233667D01*
X132482Y233066D01*
X131069Y232122D01*
X129499Y231472D01*
X127832Y231140D01*
X126982Y231140D01*
X126982Y231140D01*
X118364Y231140D01*
X117758D01*
X116637Y231604D01*
X115780Y232461D01*
X115316Y233582D01*
X115316Y234188D01*
X115316Y234188D01*
X115316Y269748D01*
X115316Y270354D01*
X115780Y271475D01*
X116637Y272332D01*
X117758Y272796D01*
X118364Y272796D01*
X118364Y272796D01*
X144132D01*
X144608Y272796D01*
X145557Y272724D01*
D02*
G37*
G36*
X179830Y258601D02*
X182097Y257663D01*
X184137Y256299D01*
X185004Y255431D01*
X185005Y255432D01*
X187136Y253300D01*
X187755Y252681D01*
X188727Y251226D01*
X189397Y249610D01*
X189738Y247893D01*
X189738Y247018D01*
X189738Y247018D01*
X189738Y228828D01*
X189785Y227872D01*
X190158Y225998D01*
X190889Y224232D01*
X191951Y222643D01*
X192594Y221934D01*
X192594Y221934D01*
X196367Y218160D01*
X197328Y217200D01*
X198837Y214942D01*
X199876Y212433D01*
X200406Y209769D01*
X200406Y208411D01*
X200406Y208411D01*
X200406Y134892D01*
X200406Y133982D01*
X200051Y132196D01*
X199354Y130514D01*
X198343Y129001D01*
X197699Y128357D01*
X197699Y128357D01*
X195716Y126374D01*
X195321Y125979D01*
X194393Y125359D01*
X193362Y124932D01*
X192267Y124715D01*
X191709Y124716D01*
X191709D01*
X191709D01*
D01*
X189291Y124714D01*
X188733Y124714D01*
X187638Y124932D01*
X186701Y125321D01*
X186547Y125196D01*
X185394Y124126D01*
X180006Y129514D01*
X180571Y130100D01*
X181521Y131216D01*
X181586Y131305D01*
X181254Y132106D01*
X180849Y134149D01*
X180849Y135190D01*
X180848Y135190D01*
Y152513D01*
X180752Y154470D01*
X179989Y158308D01*
X178491Y161924D01*
X176316Y165178D01*
X175000Y166630D01*
Y166630D01*
X171517Y170113D01*
X169991Y171639D01*
X167593Y175227D01*
X165942Y179214D01*
X165101Y183447D01*
X165102Y185604D01*
X165100Y185604D01*
X165100Y217388D01*
X165100Y219390D01*
X165881Y223316D01*
X167413Y227015D01*
X169638Y230343D01*
X171053Y231758D01*
X171052Y231758D01*
X175260Y235966D01*
X175774Y236534D01*
X176625Y237806D01*
X177210Y239219D01*
X177508Y240720D01*
X177546Y241485D01*
X177546Y241485D01*
X177546Y243778D01*
X177525Y244214D01*
X177355Y245068D01*
X177022Y245872D01*
X176538Y246596D01*
X176245Y246919D01*
X176245Y246919D01*
X174305Y248858D01*
X173786Y249329D01*
X172621Y250108D01*
X171326Y250644D01*
X169952Y250917D01*
X169251Y250952D01*
X169251Y250952D01*
X165100Y250952D01*
X165100Y259080D01*
X176196D01*
X177423Y259080D01*
X179830Y258601D01*
D02*
G37*
G36*
X67512Y324813D02*
X67511Y324813D01*
X75745Y324813D01*
X76542D01*
X78017Y324203D01*
X79145Y323074D01*
X79756Y321600D01*
Y320802D01*
X79756D01*
X79756Y241300D01*
Y240593D01*
X79215Y239286D01*
X78214Y238286D01*
X76908Y237744D01*
X76200D01*
X76200Y237744D01*
X67056Y237744D01*
X66349Y237744D01*
X65042Y238285D01*
X64041Y239286D01*
X63500Y240593D01*
X63500Y241300D01*
X63500Y241300D01*
X63500Y320802D01*
X63500Y321600D01*
X64111Y323074D01*
X65239Y324203D01*
X66714Y324813D01*
X67512Y324813D01*
D02*
G37*
G36*
X77333Y234099D02*
X78905Y232527D01*
X79756Y230474D01*
X79756Y229362D01*
X79756Y229362D01*
Y229093D01*
X80430Y228843D01*
X81516Y228578D01*
X82767Y228389D01*
X84184Y228275D01*
X85766Y228237D01*
Y220617D01*
X84207Y220579D01*
X82812Y220465D01*
X81583Y220276D01*
X80520Y220010D01*
X79756Y219720D01*
X79756Y150876D01*
Y149815D01*
X78944Y147855D01*
X77443Y146354D01*
X75483Y145542D01*
X74422D01*
Y145542D01*
X68834Y145542D01*
X67773Y145542D01*
X65813Y146354D01*
X64312Y147855D01*
X63500Y149815D01*
X63500Y150876D01*
X63500Y150876D01*
X63500Y229616D01*
X63500Y230677D01*
X64312Y232638D01*
X65813Y234138D01*
X67773Y234950D01*
X68834Y234950D01*
X68834Y234950D01*
X74168Y234950D01*
X75279D01*
X77333Y234099D01*
D02*
G37*
G36*
X87122Y272796D02*
Y272796D01*
X101346D01*
X102306Y272796D01*
X104080Y272061D01*
X105437Y270704D01*
X106172Y268930D01*
X106172Y267970D01*
X106172D01*
X106172Y235458D01*
Y234599D01*
X105515Y233012D01*
X104300Y231798D01*
X102713Y231140D01*
X101854Y231140D01*
X101854Y231140D01*
X86106Y231140D01*
X85348Y231140D01*
X83948Y231720D01*
X82876Y232792D01*
X82296Y234192D01*
X82296Y234950D01*
X82296Y234950D01*
X82296Y267970D01*
X82296Y268930D01*
X83031Y270704D01*
X84388Y272062D01*
X86162Y272796D01*
X87122Y272796D01*
D02*
G37*
G36*
X159342Y225795D02*
X160771Y224366D01*
X161544Y222498D01*
X161544Y221488D01*
X161544Y221488D01*
X161544Y188337D01*
X161544Y187523D01*
X161226Y185925D01*
X160603Y184420D01*
X159698Y183066D01*
X159122Y182490D01*
X159122Y182490D01*
X130049Y153417D01*
X129114Y152482D01*
X127069Y150806D01*
X124867Y149341D01*
X122532Y148100D01*
X120086Y147096D01*
X117552Y146339D01*
X114956Y145836D01*
X112323Y145592D01*
X111001Y145601D01*
X111001D01*
X88414Y145752D01*
X87245Y145760D01*
X85089Y146665D01*
X83441Y148324D01*
X82550Y150485D01*
X82550Y151654D01*
X82550Y213614D01*
X82550Y214473D01*
X83207Y216059D01*
X84422Y217274D01*
X86008Y217931D01*
X86867Y217931D01*
X86868Y217932D01*
X134199Y217932D01*
X134900Y217966D01*
X136274Y218239D01*
X137569Y218776D01*
X138734Y219554D01*
X139253Y220026D01*
X139254D01*
X143956Y224728D01*
X144394Y225166D01*
X145422Y225853D01*
X146565Y226326D01*
X147779Y226568D01*
X148397Y226568D01*
X148397Y226568D01*
X156464Y226568D01*
X157474Y226568D01*
X159342Y225795D01*
D02*
G37*
G36*
X578213Y296092D02*
X578213Y296092D01*
X598910Y295954D01*
X600079Y295946D01*
X602235Y295041D01*
X603882Y293382D01*
X604774Y291220D01*
Y290051D01*
X604774Y290051D01*
X604774Y228092D01*
X604774Y227233D01*
X604117Y225646D01*
X602902Y224431D01*
X601315Y223774D01*
X600456Y223774D01*
X600456Y223774D01*
X553125Y223774D01*
X552424Y223740D01*
X551049Y223467D01*
X549755Y222930D01*
X548590Y222151D01*
X548070Y221680D01*
X548070Y221680D01*
X546924Y220534D01*
X546426Y220036D01*
X545255Y219253D01*
X543954Y218714D01*
X542573Y218440D01*
X541869Y218440D01*
X537780Y218440D01*
X537342Y218440D01*
X536484Y218610D01*
X535676Y218945D01*
X534948Y219431D01*
X534639Y219741D01*
X534639Y219741D01*
X533939Y220441D01*
X533629Y220751D01*
X533143Y221478D01*
X532809Y222286D01*
X532638Y223144D01*
Y223582D01*
Y223582D01*
X532638Y254577D01*
Y256191D01*
X533268Y259358D01*
X534503Y262341D01*
X536297Y265025D01*
X537438Y266166D01*
X537439Y266166D01*
X559815Y288543D01*
X561626Y290354D01*
X565888Y293191D01*
X570625Y295135D01*
X575653Y296109D01*
X578213Y296092D01*
D02*
G37*
G36*
X603122Y210240D02*
X604194Y209168D01*
X604774Y207768D01*
X604774Y207010D01*
X604774Y207010D01*
X604774Y173990D01*
X604774Y173030D01*
X604039Y171256D01*
X602682Y169898D01*
X600908Y169164D01*
X599948Y169164D01*
X585724Y169164D01*
X584764Y169164D01*
X582990Y169899D01*
X581633Y171256D01*
X580898Y173030D01*
X580898Y173990D01*
Y173990D01*
X580898Y206502D01*
Y207361D01*
X581555Y208948D01*
X582770Y210163D01*
X584357Y210820D01*
X585216Y210820D01*
X600964D01*
X601722Y210820D01*
X603122Y210240D01*
D02*
G37*
G36*
X568706Y210820D02*
X569312D01*
X570433Y210356D01*
X571290Y209498D01*
X571754Y208378D01*
X571754Y207772D01*
X571754Y207772D01*
X571754Y172212D01*
X571754Y171606D01*
X571290Y170485D01*
X570433Y169628D01*
X569312Y169164D01*
X568706Y169164D01*
X542938Y169164D01*
X542462Y169164D01*
X541513Y169236D01*
X540571Y169380D01*
X539643Y169594D01*
X539189Y169736D01*
X539189Y169736D01*
X538545Y169937D01*
X538148Y170053D01*
X537344Y170239D01*
X536528Y170364D01*
X535704Y170426D01*
X535292Y170434D01*
X535292Y170434D01*
X522224D01*
Y177800D01*
X531052Y177800D01*
X531788Y177836D01*
X533232Y178123D01*
X534591Y178686D01*
X535815Y179504D01*
X536361Y179999D01*
X536361Y179999D01*
X538239Y181877D01*
X538693Y182378D01*
X539444Y183502D01*
X539961Y184750D01*
X540224Y186076D01*
X540258Y186751D01*
X540258Y186752D01*
Y191708D01*
X540258Y192387D01*
X540523Y193719D01*
X541043Y194974D01*
X541797Y196103D01*
X542277Y196583D01*
X542277Y196583D01*
X553987Y208293D01*
X554588Y208894D01*
X556001Y209838D01*
X557571Y210488D01*
X559238Y210820D01*
X560088Y210820D01*
X560088Y210820D01*
X568706Y210820D01*
D02*
G37*
G36*
X618236Y296418D02*
X619297Y296418D01*
X621257Y295606D01*
X622758Y294105D01*
X623570Y292145D01*
X623570Y291084D01*
X623570Y291084D01*
X623570Y212344D01*
X623570Y211283D01*
X622758Y209322D01*
X621257Y207822D01*
X619297Y207010D01*
X618236Y207010D01*
X618236Y207010D01*
X612902Y207010D01*
X611790D01*
X609737Y207861D01*
X608165Y209433D01*
X607314Y211486D01*
X607314Y212551D01*
X606507Y212862D01*
X605455Y213128D01*
X604237Y213318D01*
X602853Y213432D01*
X601303Y213470D01*
Y221090D01*
X602905Y221128D01*
X604340Y221242D01*
X605609Y221431D01*
X606712Y221697D01*
X607314Y221916D01*
X607314Y291084D01*
Y292145D01*
X608126Y294105D01*
X609627Y295606D01*
X611587Y296418D01*
X612648D01*
X612648Y296418D01*
X618236Y296418D01*
D02*
G37*
G36*
X535747Y144944D02*
X535319Y145202D01*
X534848Y145434D01*
X534334Y145638D01*
X533778Y145814D01*
X533180Y145964D01*
X532538Y146086D01*
X531610Y146194D01*
X529356Y146052D01*
X528994Y145975D01*
X528715Y145887D01*
X528519Y145790D01*
Y151898D01*
X528715Y151800D01*
X528994Y151713D01*
X529356Y151636D01*
X529802Y151569D01*
X530943Y151466D01*
X531318Y151454D01*
X532763Y151556D01*
X533406Y151653D01*
X534518Y151911D01*
X534986Y152073D01*
X535396Y152256D01*
X535747Y152460D01*
Y144944D01*
D02*
G37*
G36*
X566148Y146525D02*
X567149Y145524D01*
X567690Y144217D01*
X567690Y143510D01*
X567690Y143510D01*
X567690Y132842D01*
X567690Y132286D01*
X567265Y131259D01*
X566479Y130473D01*
X565452Y130048D01*
X564896Y130048D01*
X553720D01*
X553217Y130048D01*
X552286Y130433D01*
X551574Y131145D01*
X551189Y132076D01*
X551189Y132579D01*
Y132579D01*
X551189Y143518D01*
Y144224D01*
X551729Y145528D01*
X552726Y146526D01*
X554030Y147066D01*
X554736Y147066D01*
X554736Y147066D01*
X564134Y147066D01*
X564841Y147066D01*
X566148Y146525D01*
D02*
G37*
G36*
X72701Y140523D02*
X73176Y140350D01*
X73766Y140198D01*
X74470Y140066D01*
X76220Y139863D01*
X78427Y139741D01*
X81091Y139700D01*
Y132080D01*
X79702Y132070D01*
X74470Y131714D01*
X73766Y131582D01*
X73176Y131430D01*
X72701Y131257D01*
X72340Y131064D01*
Y140716D01*
X72701Y140523D01*
D02*
G37*
G36*
X133503Y130324D02*
X133230Y130658D01*
X132897Y130956D01*
X132504Y131220D01*
X132051Y131448D01*
X131538Y131641D01*
X130965Y131799D01*
X130333Y131922D01*
X129641Y132010D01*
X128889Y132062D01*
X128077Y132080D01*
X129604Y139700D01*
X130427Y139710D01*
X132554Y139865D01*
X133150Y139957D01*
X133690Y140071D01*
X134172Y140204D01*
X134599Y140359D01*
X134968Y140534D01*
X135281Y140730D01*
X133503Y130324D01*
D02*
G37*
G36*
X535930Y130287D02*
X543415Y131812D01*
X543508Y131812D01*
X543623Y131780D01*
X543761Y131715D01*
X543922Y131617D01*
X544106Y131487D01*
X544542Y131129D01*
X545070Y130640D01*
X545368Y130346D01*
X539980Y124958D01*
X538923Y126028D01*
X535812Y129587D01*
X535624Y129941D01*
X535581Y130176D01*
X535683Y130291D01*
X535930Y130287D01*
X535289Y130676D01*
X534589Y131024D01*
X533833Y131331D01*
X533018Y131597D01*
X532146Y131822D01*
X531217Y132007D01*
X529184Y132252D01*
X528082Y132313D01*
X526922Y132334D01*
X528288Y139954D01*
X535930Y139969D01*
Y130287D01*
D02*
G37*
G36*
X157734Y157734D02*
X157734Y157734D01*
X172720Y157734D01*
X173731Y157734D01*
X175598Y156961D01*
X177027Y155532D01*
X177800Y153665D01*
X177800Y152654D01*
X177800Y152654D01*
X177800Y147171D01*
Y146844D01*
X177672Y146203D01*
X177422Y145599D01*
X177059Y145055D01*
X176828Y144824D01*
X176828Y144824D01*
X175799Y143795D01*
X175563Y143535D01*
X175174Y142952D01*
X174906Y142305D01*
X174769Y141618D01*
X174752Y141268D01*
X174752Y141268D01*
X174752Y135444D01*
X174752Y134885D01*
X174534Y133791D01*
X174107Y132759D01*
X173487Y131831D01*
X173092Y131436D01*
X173092Y131436D01*
X169195Y127539D01*
X168885Y127229D01*
X168158Y126743D01*
X167350Y126409D01*
X166492Y126238D01*
X166054Y126238D01*
X166054Y126238D01*
X164040Y126238D01*
X163628Y126238D01*
X162819Y126399D01*
X162057Y126715D01*
X161371Y127173D01*
X161080Y127465D01*
X161080Y127464D01*
X157257Y131287D01*
X156887Y131657D01*
X156306Y132526D01*
X155906Y133492D01*
X155702Y134518D01*
X155702Y135041D01*
X155702Y135041D01*
X155702Y140908D01*
X155681Y141344D01*
X155511Y142198D01*
X155178Y143002D01*
X154694Y143726D01*
X154401Y144049D01*
X154401Y144049D01*
X153626Y144824D01*
X153335Y145115D01*
X152877Y145801D01*
X152561Y146563D01*
X152400Y147372D01*
X152400Y147785D01*
X152400Y147784D01*
X152400Y152400D01*
X152400Y153461D01*
X153212Y155422D01*
X154713Y156922D01*
X156673Y157734D01*
X157734Y157734D01*
D02*
G37*
G36*
X51736Y334048D02*
X51667Y333942D01*
X51606Y333722D01*
X51551Y333389D01*
X51504Y332941D01*
X51406Y330914D01*
X51373Y327860D01*
X45961D01*
X49210Y324612D01*
X49376Y324612D01*
X50029Y324342D01*
X50529Y323841D01*
X50800Y323188D01*
X50800Y322834D01*
X50800Y131020D01*
X50800D01*
X50826Y130490D01*
X51033Y129449D01*
X51439Y128468D01*
X52029Y127586D01*
X52386Y127192D01*
X53668Y125910D01*
Y125910D01*
X53892Y125686D01*
X54244Y125159D01*
X54486Y124574D01*
X54610Y123953D01*
X54610Y123637D01*
X54610Y117602D01*
X54610Y117602D01*
X54610Y117046D01*
X54185Y116019D01*
X53399Y115233D01*
X52372Y114808D01*
X51816Y114808D01*
X41500Y114808D01*
Y114808D01*
X39544Y114808D01*
X35707Y115571D01*
X32093Y117068D01*
X28840Y119242D01*
X27457Y120625D01*
X13696Y134386D01*
X13696Y134386D01*
X12010Y136073D01*
X9360Y140038D01*
X7534Y144445D01*
X6604Y149123D01*
X6604Y151507D01*
X6604Y216135D01*
X6604Y216135D01*
X6604Y218676D01*
X7595Y223661D01*
X9541Y228356D01*
X12364Y232582D01*
X14161Y234379D01*
X27304Y247522D01*
Y247522D01*
X28647Y249004D01*
X30867Y252326D01*
X32396Y256018D01*
X33176Y259938D01*
X33274Y261936D01*
X33274Y316825D01*
X33274Y316825D01*
X33274Y317529D01*
X33549Y318910D01*
X34088Y320211D01*
X34870Y321382D01*
X35368Y321880D01*
X36440Y322952D01*
X36440D01*
X36835Y323347D01*
X37763Y323967D01*
X38222Y324157D01*
X38263Y324331D01*
X38503Y324770D01*
X38912Y325348D01*
X39492Y326065D01*
X41158Y327915D01*
X42513Y329306D01*
X42630Y334865D01*
X51736Y334048D01*
D02*
G37*
G36*
X635254Y327152D02*
X645570Y327152D01*
X645570Y327152D01*
X647526Y327152D01*
X651363Y326389D01*
X654977Y324892D01*
X658230Y322719D01*
X659613Y321335D01*
X673374Y307574D01*
X673374Y307574D01*
X675061Y305888D01*
X677710Y301922D01*
X679536Y297515D01*
X680466Y292838D01*
X680466Y290453D01*
X680466Y225825D01*
X680466Y225825D01*
X680466Y223284D01*
X679474Y218299D01*
X677530Y213604D01*
X674706Y209378D01*
X672909Y207581D01*
X659766Y194438D01*
X659766Y194438D01*
X658423Y192956D01*
X656203Y189634D01*
X654674Y185942D01*
X653894Y182022D01*
X653796Y180024D01*
X653796Y125135D01*
X653796Y125135D01*
X653796Y124431D01*
X653521Y123050D01*
X652982Y121749D01*
X652200Y120578D01*
X651702Y120080D01*
X650630Y119008D01*
X650630Y119008D01*
X650235Y118613D01*
X649307Y117993D01*
X648276Y117566D01*
X647180Y117348D01*
X646622Y117348D01*
X638048Y117348D01*
X638048D01*
X637694Y117348D01*
X637041Y117619D01*
X636540Y118119D01*
X636270Y118772D01*
X636270Y119126D01*
X636270Y310940D01*
X636270Y310940D01*
X636244Y311470D01*
X636037Y312511D01*
X635631Y313492D01*
X635041Y314374D01*
X634684Y314768D01*
X633402Y316050D01*
X633401D01*
X633178Y316274D01*
X632826Y316801D01*
X632584Y317386D01*
X632460Y318007D01*
X632460Y318323D01*
Y324358D01*
X632460Y324914D01*
X632885Y325941D01*
X633671Y326727D01*
X634698Y327152D01*
X635254Y327152D01*
D02*
G37*
G36*
X622028Y203675D02*
X623029Y202674D01*
X623570Y201367D01*
X623570Y200660D01*
X623570Y200660D01*
X623570Y121158D01*
X623570Y120360D01*
X622959Y118886D01*
X621831Y117757D01*
X620356Y117146D01*
X619558Y117147D01*
X619558D01*
X619558D01*
D01*
X611325Y117147D01*
X610527D01*
X609053Y117757D01*
X607925Y118886D01*
X607314Y120360D01*
Y121158D01*
Y121158D01*
X607314Y161684D01*
X603663Y165335D01*
X607314Y168909D01*
X607314Y200660D01*
Y201367D01*
X607855Y202674D01*
X608856Y203674D01*
X610163Y204216D01*
X610870D01*
X610870Y204216D01*
X620014Y204216D01*
X620721Y204216D01*
X622028Y203675D01*
D02*
G37*
G36*
X67629Y125610D02*
X68328Y125262D01*
X69085Y124955D01*
X69900Y124689D01*
X70772Y124464D01*
X71701Y124279D01*
X73734Y124034D01*
X74836Y123973D01*
X75996Y123952D01*
X74630Y116332D01*
X66988Y116317D01*
Y125999D01*
X67629Y125610D01*
D02*
G37*
G36*
X579439Y121079D02*
X579817Y119811D01*
X580240Y117896D01*
X584959Y116962D01*
X585634D01*
X585635Y116828D01*
X589427Y116078D01*
X588707Y116130D01*
X588062Y115985D01*
X587493Y115644D01*
X587000Y115107D01*
X586582Y114373D01*
X586241Y113443D01*
X585975Y112317D01*
X585894Y111746D01*
X586041Y109492D01*
X586137Y109280D01*
X585668D01*
X585634Y107758D01*
X578014Y107944D01*
X578022Y109280D01*
X577455D01*
X577561Y109507D01*
X577657Y109855D01*
X577740Y110323D01*
X577813Y110911D01*
X577964Y113396D01*
X578014Y116962D01*
X578335D01*
X578571Y121003D01*
X578815Y121675D01*
X579105Y121700D01*
X579439Y121079D01*
D02*
G37*
G36*
X547880Y125143D02*
X548386Y124946D01*
X548999Y124773D01*
X549719Y124622D01*
X550545Y124495D01*
X551172Y124436D01*
X553164Y124572D01*
X553868Y124704D01*
X554458Y124856D01*
X554933Y125029D01*
X555294Y125222D01*
Y124214D01*
X556279Y124206D01*
X555294Y119680D01*
Y115570D01*
X554933Y115763D01*
X554458Y115936D01*
X553868Y116088D01*
X553164Y116220D01*
X551414Y116423D01*
X549207Y116545D01*
X546543Y116586D01*
Y124206D01*
X547480Y124213D01*
Y125363D01*
X547880Y125143D01*
D02*
G37*
G36*
X671283Y111255D02*
X672472Y110762D01*
X673542Y110047D01*
X673997Y109592D01*
X673998Y109592D01*
X678044Y105546D01*
X678439Y105151D01*
X679059Y104223D01*
X679486Y103191D01*
X679704Y102096D01*
X679704Y101538D01*
X679704Y101538D01*
X679704Y70481D01*
X679704Y69667D01*
X679386Y68069D01*
X678763Y66564D01*
X677858Y65210D01*
X677282Y64634D01*
X677282Y64634D01*
X674745Y62097D01*
X674052Y61404D01*
X672422Y60315D01*
X670610Y59564D01*
X668687Y59182D01*
X667707Y59182D01*
X640842D01*
X640387Y59182D01*
X639547Y59530D01*
X638904Y60173D01*
X638556Y61013D01*
X638556Y61468D01*
Y61468D01*
Y77724D01*
X638556Y78836D01*
X639407Y80889D01*
X640979Y82461D01*
X643032Y83312D01*
X644144Y83312D01*
X644144Y83312D01*
X649670Y83312D01*
X650286Y83342D01*
X651494Y83582D01*
X652631Y84054D01*
X653655Y84738D01*
X654111Y85152D01*
X654112D01*
X656708Y87748D01*
X657196Y88286D01*
X658002Y89493D01*
X658557Y90833D01*
X658840Y92256D01*
X658876Y92982D01*
X658876Y92982D01*
X658876Y104140D01*
X658876Y104865D01*
X659159Y106288D01*
X659714Y107629D01*
X660520Y108835D01*
X661546Y109861D01*
X662752Y110667D01*
X664093Y111222D01*
X665516Y111505D01*
X666241Y111505D01*
X666242Y111505D01*
X669377Y111506D01*
X670021Y111506D01*
X671283Y111255D01*
D02*
G37*
G36*
X602277Y110309D02*
X602754Y110134D01*
X603344Y109979D01*
X604047Y109845D01*
X605435Y109681D01*
X607774Y109840D01*
X608478Y109972D01*
X609068Y110124D01*
X609543Y110297D01*
X609904Y110490D01*
Y109485D01*
X610627Y109474D01*
Y101854D01*
X609904Y101849D01*
Y100838D01*
X609543Y101031D01*
X609068Y101204D01*
X608478Y101356D01*
X607774Y101488D01*
X606409Y101647D01*
X604047Y101483D01*
X603344Y101349D01*
X602754Y101194D01*
X602277Y101019D01*
X601912Y100823D01*
Y101842D01*
X601153Y101854D01*
Y109474D01*
X601912Y109480D01*
Y110505D01*
X602277Y110309D01*
D02*
G37*
G36*
X509703Y107269D02*
X509945Y103930D01*
X510091Y102985D01*
X510479Y101346D01*
X510721Y100652D01*
X510995Y100043D01*
X511302Y99518D01*
X501650D01*
X501729Y99712D01*
X501800Y100047D01*
X501862Y100522D01*
X501963Y101891D01*
X502067Y107762D01*
X509687Y108551D01*
X509703Y107269D01*
D02*
G37*
G36*
X547480Y99681D02*
X546583Y99465D01*
X545682Y99174D01*
X544778Y98807D01*
X543869Y98364D01*
X542956Y97846D01*
X542040Y97252D01*
X541120Y96583D01*
X539267Y95017D01*
X538335Y94121D01*
X533463Y100025D01*
X534450Y101028D01*
X537948Y105070D01*
X538361Y105684D01*
X538677Y106233D01*
X538898Y106718D01*
X539023Y107138D01*
X547480Y99681D01*
D02*
G37*
G36*
X623129Y79529D02*
X624486Y78172D01*
X625221Y76398D01*
X625221Y75438D01*
X625221Y75438D01*
X625221Y62992D01*
X625221Y61981D01*
X624448Y60114D01*
X623018Y58685D01*
X621151Y57912D01*
X620141Y57912D01*
X597027D01*
X596168Y57912D01*
X594581Y58569D01*
X593366Y59784D01*
X592709Y61371D01*
X592709Y62230D01*
Y62230D01*
X592709Y76200D01*
X592709Y77008D01*
X593328Y78502D01*
X594471Y79645D01*
X595965Y80264D01*
X596773Y80264D01*
X596773Y80264D01*
X620395Y80264D01*
X621355D01*
X623129Y79529D01*
D02*
G37*
G36*
X576520D02*
X577877Y78172D01*
X578612Y76398D01*
X578612Y75438D01*
X578612Y75438D01*
X578612Y62992D01*
X578612Y61981D01*
X577839Y60114D01*
X576409Y58685D01*
X574542Y57912D01*
X573532Y57912D01*
X550418D01*
X549559Y57912D01*
X547972Y58569D01*
X546757Y59784D01*
X546100Y61371D01*
X546100Y62230D01*
Y62230D01*
X546100Y76200D01*
X546100Y77008D01*
X546719Y78502D01*
X547862Y79645D01*
X549355Y80264D01*
X550164Y80264D01*
X550164Y80264D01*
X573786Y80264D01*
X574746D01*
X576520Y79529D01*
D02*
G37*
G36*
X529558Y84714D02*
X529563Y83260D01*
X529933Y76962D01*
X530098D01*
X530654Y76962D01*
X531681Y76536D01*
X532467Y75750D01*
X532892Y74723D01*
X532892Y74168D01*
X532892Y74168D01*
X532892Y63246D01*
X532892Y62185D01*
X532080Y60224D01*
X530579Y58724D01*
X528619Y57912D01*
X527557Y57912D01*
X507238Y57912D01*
X506027Y57912D01*
X503790Y58839D01*
X502078Y60551D01*
X501151Y62788D01*
X501151Y63999D01*
Y63999D01*
X501151Y70875D01*
X501151Y72086D01*
X502078Y74323D01*
X503790Y76035D01*
X506027Y76962D01*
X507238Y76961D01*
X507238Y76962D01*
X521426Y76962D01*
X518435Y77135D01*
X519100Y77705D01*
X519696Y78338D01*
X520221Y79036D01*
X520677Y79797D01*
X521062Y80622D01*
X521378Y81511D01*
X521623Y82464D01*
X521798Y83481D01*
X521903Y84562D01*
X521938Y85706D01*
X529558Y84714D01*
D02*
G37*
%LPC*%
G36*
X336298Y361056D02*
X326235D01*
X323758Y360564D01*
X321657Y359160D01*
X316922Y354425D01*
X315518Y352324D01*
X315026Y349847D01*
Y345187D01*
X314836Y344232D01*
X315328Y341754D01*
X316162Y340507D01*
X316247Y340079D01*
X317112Y338784D01*
X318407Y337919D01*
X319935Y337615D01*
X322685D01*
X324212Y337919D01*
X325215Y338589D01*
X326060Y338707D01*
X326905Y338589D01*
X327907Y337919D01*
X329435Y337615D01*
X332185D01*
X333713Y337919D01*
X335008Y338784D01*
X335873Y340079D01*
X336177Y341607D01*
Y343888D01*
X337350Y344374D01*
X338460Y343264D01*
Y341922D01*
X338507Y341682D01*
Y340357D01*
X338811Y338829D01*
X339676Y337534D01*
X340971Y336669D01*
X341399Y336584D01*
X342646Y335750D01*
X345124Y335258D01*
X347602Y335750D01*
X348849Y336584D01*
X349277Y336669D01*
X350572Y337534D01*
X351437Y338829D01*
X351741Y340357D01*
Y343107D01*
X351437Y344635D01*
X351408Y344677D01*
Y345946D01*
X350916Y348424D01*
X349512Y350524D01*
X340876Y359160D01*
X338776Y360564D01*
X336298Y361056D01*
D02*
G37*
G36*
X369124Y338059D02*
X364597D01*
X362367Y337615D01*
X360477Y336352D01*
X351011Y326886D01*
X350572Y326930D01*
X349277Y327795D01*
X349203Y327809D01*
X345028Y331984D01*
X342928Y333388D01*
X340450Y333880D01*
X338836D01*
X336358Y333388D01*
X334258Y331984D01*
X334189Y331882D01*
X333857Y331640D01*
X332533Y331689D01*
X332492Y331730D01*
X330392Y333134D01*
X327914Y333626D01*
X325436Y333134D01*
X323336Y331730D01*
X321932Y329630D01*
X321440Y327152D01*
X321932Y324674D01*
X323336Y322574D01*
X324146Y321764D01*
Y320422D01*
X324638Y317944D01*
X325689Y316372D01*
X325747Y316080D01*
X326613Y314784D01*
X327557Y314153D01*
X327683Y313925D01*
X327900Y312960D01*
X327897Y312626D01*
X327112Y311451D01*
X326740Y309582D01*
Y304082D01*
X327112Y302213D01*
X328171Y300629D01*
X329755Y299570D01*
X331624Y299198D01*
X332628D01*
Y295607D01*
X331358Y294981D01*
X330303Y295790D01*
X327861Y296802D01*
X325240Y297147D01*
X325000D01*
X322379Y296802D01*
X319937Y295790D01*
X317839Y294181D01*
X316230Y292083D01*
X315218Y289641D01*
X314873Y287020D01*
X315218Y284399D01*
X316230Y281957D01*
X317839Y279859D01*
X319937Y278250D01*
X322379Y277238D01*
X325000Y276893D01*
X325240D01*
X327861Y277238D01*
X330303Y278250D01*
X331358Y279059D01*
X332628Y278433D01*
Y270207D01*
X331358Y269581D01*
X330303Y270390D01*
X327861Y271402D01*
X325240Y271747D01*
X325000D01*
X322379Y271402D01*
X319937Y270390D01*
X317839Y268781D01*
X316230Y266683D01*
X315218Y264241D01*
X314873Y261620D01*
X315218Y258999D01*
X316230Y256557D01*
X317839Y254459D01*
X319937Y252850D01*
X322379Y251838D01*
X325000Y251493D01*
X325240D01*
X327861Y251838D01*
X330303Y252850D01*
X331358Y253659D01*
X332628Y253033D01*
Y226061D01*
X329205Y222637D01*
X328549Y222059D01*
X327620Y221325D01*
X326822Y220783D01*
X326757Y220747D01*
X325240Y220947D01*
X325000D01*
X322379Y220602D01*
X319937Y219590D01*
X317839Y217981D01*
X316230Y215883D01*
X315218Y213441D01*
X314873Y210820D01*
X315218Y208199D01*
X316230Y205757D01*
X317839Y203659D01*
X319937Y202050D01*
X322379Y201038D01*
X325000Y200693D01*
X325240D01*
X327861Y201038D01*
X330303Y202050D01*
X332401Y203659D01*
X334010Y205757D01*
X335022Y208199D01*
X335103Y208817D01*
X335167Y209002D01*
X335273Y209771D01*
X335418Y210434D01*
X335616Y211090D01*
X335870Y211747D01*
X336181Y212403D01*
X336553Y213062D01*
X336987Y213724D01*
X337486Y214389D01*
X337759Y214710D01*
X341652Y218603D01*
X342822Y217978D01*
X342788Y217805D01*
Y149466D01*
X343232Y147236D01*
X344495Y145346D01*
X347135Y142705D01*
X347162Y142389D01*
X346854Y141538D01*
X346390Y141289D01*
X345957Y141397D01*
X345435Y141561D01*
X344983Y141740D01*
X344597Y141929D01*
X344168Y142187D01*
X344104Y142210D01*
X343835Y142390D01*
X343322Y142492D01*
X343218Y142530D01*
X343150Y142526D01*
X341966Y142762D01*
X337466D01*
X335597Y142390D01*
X334013Y141331D01*
X332954Y139747D01*
X332582Y137878D01*
Y132378D01*
X332954Y130509D01*
X333313Y129972D01*
X330652Y127310D01*
X329389Y125420D01*
X328945Y123190D01*
Y121789D01*
X328625Y121670D01*
X327675Y121578D01*
X326950Y122664D01*
X325654Y123529D01*
X324127Y123833D01*
X318877D01*
X317349Y123529D01*
X316054Y122664D01*
X315189Y121369D01*
X314885Y119841D01*
Y117091D01*
X315189Y115563D01*
X316054Y114269D01*
Y113163D01*
X315189Y111868D01*
X314885Y110341D01*
Y107591D01*
X315189Y106063D01*
X316054Y104768D01*
X317349Y103903D01*
X318877Y103599D01*
X319247D01*
X319272Y103583D01*
X321502Y103139D01*
X327406D01*
X329636Y103583D01*
X331526Y104846D01*
X338892Y112212D01*
X340155Y114102D01*
X340247Y114140D01*
X341349Y113403D01*
X341423Y113389D01*
X344328Y110484D01*
X346428Y109080D01*
X348906Y108588D01*
X353314D01*
X355792Y109080D01*
X357892Y110484D01*
X358859Y111931D01*
X360367Y111959D01*
X360674Y111500D01*
X362774Y110096D01*
X365252Y109604D01*
X367730Y110096D01*
X369830Y111500D01*
X371234Y113600D01*
X371726Y116078D01*
Y117054D01*
X371234Y119532D01*
X369830Y121632D01*
X365401Y126061D01*
X365387Y126135D01*
X364521Y127430D01*
X363227Y128295D01*
X361699Y128599D01*
X360463D01*
X359784Y129869D01*
X360212Y130509D01*
X360584Y132378D01*
Y137878D01*
X360212Y139747D01*
X359436Y140908D01*
X359277Y143074D01*
Y143869D01*
X360330Y144939D01*
X360501Y144988D01*
X361830Y144813D01*
X362070D01*
X364691Y145158D01*
X367133Y146170D01*
X369231Y147779D01*
X370840Y149877D01*
X371852Y152319D01*
X372197Y154940D01*
X371852Y157561D01*
X370840Y160003D01*
X369231Y162101D01*
X367133Y163710D01*
X364691Y164722D01*
X362070Y165067D01*
X361830D01*
X359209Y164722D01*
X356767Y163710D01*
X355712Y162901D01*
X354442Y163527D01*
Y171753D01*
X355712Y172379D01*
X356767Y171570D01*
X359209Y170558D01*
X361830Y170213D01*
X362070D01*
X364691Y170558D01*
X367133Y171570D01*
X369231Y173179D01*
X370840Y175277D01*
X371852Y177719D01*
X372197Y180340D01*
X371852Y182961D01*
X370840Y185403D01*
X369231Y187501D01*
X367133Y189110D01*
X364691Y190122D01*
X362070Y190467D01*
X361830D01*
X359209Y190122D01*
X356767Y189110D01*
X355712Y188301D01*
X354442Y188927D01*
Y215391D01*
X357639Y218589D01*
X358005Y218892D01*
X358667Y219370D01*
X359342Y219790D01*
X360031Y220155D01*
X360738Y220467D01*
X361465Y220727D01*
X362214Y220936D01*
X362988Y221094D01*
X363875Y221211D01*
X364065Y221276D01*
X364691Y221358D01*
X367133Y222370D01*
X369231Y223979D01*
X370840Y226077D01*
X371852Y228519D01*
X372197Y231140D01*
X371852Y233761D01*
X370840Y236203D01*
X369231Y238301D01*
X367133Y239910D01*
X364691Y240922D01*
X362070Y241267D01*
X361830D01*
X359209Y240922D01*
X356767Y239910D01*
X354669Y238301D01*
X353060Y236203D01*
X352048Y233761D01*
X351966Y233134D01*
X351901Y232944D01*
X351784Y232056D01*
X351627Y231282D01*
X351420Y230534D01*
X351164Y229811D01*
X350856Y229109D01*
X350497Y228426D01*
X350084Y227759D01*
X349615Y227108D01*
X349320Y226750D01*
X345418Y222849D01*
X344248Y223474D01*
X344282Y223647D01*
Y298665D01*
X345264Y299471D01*
X345358Y299452D01*
X349858D01*
X351727Y299824D01*
X353311Y300883D01*
X354370Y302467D01*
X354742Y304336D01*
Y306907D01*
X355040Y307348D01*
X357023Y309667D01*
X358704Y311348D01*
X359967Y313238D01*
X360411Y315468D01*
Y317138D01*
X360666Y318420D01*
Y319764D01*
X361555Y320497D01*
X362757Y320101D01*
X362811Y319830D01*
X363676Y318534D01*
X364972Y317669D01*
X366499Y317365D01*
X371749D01*
X373276Y317669D01*
X374572Y318534D01*
X375437Y319830D01*
X375741Y321357D01*
Y324107D01*
X375437Y325634D01*
X374572Y326930D01*
Y328035D01*
X375437Y329329D01*
X375741Y330857D01*
Y333607D01*
X375437Y335135D01*
X374572Y336430D01*
X373276Y337295D01*
X371749Y337599D01*
X371379D01*
X371354Y337615D01*
X369124Y338059D01*
D02*
G37*
G36*
X285750Y337690D02*
X273914D01*
X271436Y337198D01*
X271158Y337012D01*
X266865D01*
X265255Y336692D01*
X263889Y335779D01*
X262977Y334414D01*
X262657Y332803D01*
Y329628D01*
X262977Y328018D01*
X263889Y326653D01*
X265255Y325741D01*
X266396Y325513D01*
Y324219D01*
X265255Y323992D01*
X263889Y323079D01*
X262977Y321714D01*
X262657Y320103D01*
Y316929D01*
X262977Y315318D01*
X263889Y313953D01*
X265255Y313041D01*
X266865Y312720D01*
X271158D01*
X271436Y312534D01*
X273914Y312042D01*
X287761D01*
X289143Y312012D01*
X290695Y311890D01*
X291207Y311822D01*
X291541Y311758D01*
X291614Y311737D01*
X291639Y311725D01*
X291799Y311618D01*
X293668Y311246D01*
X299168D01*
X300863Y311583D01*
X305056Y311849D01*
X305422Y310008D01*
X306826Y307908D01*
X309740Y304993D01*
Y304082D01*
X310112Y302213D01*
X311171Y300629D01*
X312755Y299570D01*
X314624Y299198D01*
X319124D01*
X320993Y299570D01*
X322577Y300629D01*
X323636Y302213D01*
X324008Y304082D01*
Y309582D01*
X323636Y311451D01*
X322577Y313035D01*
X320993Y314094D01*
X319124Y314466D01*
X318580D01*
X317878Y315168D01*
Y320548D01*
X317386Y323026D01*
X317040Y323542D01*
X316873Y324384D01*
X316007Y325680D01*
X314713Y326545D01*
X313185Y326849D01*
X312277D01*
X311404Y327022D01*
X310531Y326849D01*
X310435D01*
X308908Y326545D01*
X307612Y325680D01*
X307579Y325629D01*
X306826Y325126D01*
X306644Y324854D01*
X304200D01*
X302690Y324908D01*
X301443Y325021D01*
X301147Y325069D01*
X301037Y325142D01*
X299168Y325514D01*
X293668D01*
X292616Y325304D01*
X290464Y325201D01*
X290051Y326453D01*
X290328Y326638D01*
X291732Y328738D01*
X292224Y331216D01*
X291732Y333694D01*
X290328Y335794D01*
X288228Y337198D01*
X285750Y337690D01*
D02*
G37*
G36*
X424140Y317544D02*
X416600D01*
X414138Y317054D01*
X412051Y315659D01*
X410656Y313572D01*
X410166Y311110D01*
Y303570D01*
X410656Y301108D01*
X412051Y299021D01*
X414138Y297626D01*
X416600Y297136D01*
X424140D01*
X426602Y297626D01*
X428689Y299021D01*
X430084Y301108D01*
X430574Y303570D01*
Y311110D01*
X430084Y313572D01*
X428689Y315659D01*
X426602Y317054D01*
X424140Y317544D01*
D02*
G37*
G36*
X362070Y292067D02*
X361830D01*
X359209Y291721D01*
X356767Y290710D01*
X354669Y289101D01*
X353060Y287003D01*
X352048Y284561D01*
X351703Y281940D01*
X352048Y279319D01*
X353060Y276877D01*
X354669Y274779D01*
X356767Y273170D01*
X359209Y272158D01*
X361830Y271813D01*
X362070D01*
X364691Y272158D01*
X367133Y273170D01*
X369231Y274779D01*
X370840Y276877D01*
X371852Y279319D01*
X372197Y281940D01*
X371852Y284561D01*
X370840Y287003D01*
X369231Y289101D01*
X367133Y290710D01*
X364691Y291721D01*
X362070Y292067D01*
D02*
G37*
G36*
X395180Y206642D02*
X389680D01*
X387811Y206270D01*
X387584Y206118D01*
X384302D01*
X381824Y205626D01*
X379724Y204222D01*
X378320Y202122D01*
X377828Y199644D01*
X378320Y197166D01*
X379724Y195066D01*
X381824Y193662D01*
X384302Y193170D01*
X387177D01*
X387811Y192746D01*
X389680Y192374D01*
X395180D01*
X397049Y192746D01*
X397683Y193170D01*
X424942D01*
X427420Y193662D01*
X429520Y195066D01*
X430924Y197166D01*
X431416Y199644D01*
X430924Y202122D01*
X429520Y204222D01*
X427420Y205626D01*
X424942Y206118D01*
X397276D01*
X397049Y206270D01*
X395180Y206642D01*
D02*
G37*
G36*
X325240Y170147D02*
X325000D01*
X322379Y169802D01*
X319937Y168790D01*
X317839Y167181D01*
X316230Y165083D01*
X315218Y162641D01*
X314873Y160020D01*
X315218Y157399D01*
X316230Y154957D01*
X317839Y152859D01*
X319937Y151250D01*
X322379Y150239D01*
X325000Y149893D01*
X325240D01*
X327861Y150239D01*
X330303Y151250D01*
X332401Y152859D01*
X334010Y154957D01*
X335022Y157399D01*
X335367Y160020D01*
X335022Y162641D01*
X334010Y165083D01*
X332401Y167181D01*
X330303Y168790D01*
X327861Y169802D01*
X325240Y170147D01*
D02*
G37*
G36*
X270470Y144824D02*
X262930D01*
X260468Y144334D01*
X258381Y142939D01*
X256986Y140852D01*
X256496Y138390D01*
Y130850D01*
X256986Y128388D01*
X258381Y126301D01*
X260468Y124906D01*
X262930Y124416D01*
X270470D01*
X272932Y124906D01*
X275019Y126301D01*
X276414Y128388D01*
X276904Y130850D01*
Y138390D01*
X276414Y140852D01*
X275019Y142939D01*
X272932Y144334D01*
X270470Y144824D01*
D02*
G37*
G36*
X372700Y142762D02*
X368200D01*
X366331Y142390D01*
X364747Y141331D01*
X363688Y139747D01*
X363316Y137878D01*
Y132378D01*
X363688Y130509D01*
X364747Y128925D01*
X365770Y128241D01*
X365823Y128184D01*
X365923Y128138D01*
X366331Y127866D01*
X366672Y127798D01*
X366743Y127766D01*
X367519Y127584D01*
X368203Y127374D01*
X368884Y127115D01*
X369563Y126805D01*
X370242Y126443D01*
X370920Y126027D01*
X371570Y125575D01*
X372262Y125006D01*
X372433Y124822D01*
X373210Y123850D01*
X373811Y122986D01*
X373957Y122732D01*
Y119357D01*
X374261Y117830D01*
X375126Y116534D01*
X376422Y115669D01*
X377949Y115365D01*
X380699D01*
X382226Y115669D01*
X382876Y116103D01*
X382905Y116112D01*
X382967Y116164D01*
X383522Y116534D01*
X383658Y116740D01*
X383681Y116759D01*
X383852Y116969D01*
X383931Y117038D01*
X384100Y117147D01*
X384380Y117280D01*
X384777Y117418D01*
X385291Y117549D01*
X385882Y117654D01*
X386103Y117673D01*
X387208Y117549D01*
X387764Y117450D01*
X388232Y117337D01*
X388582Y117226D01*
X388802Y117134D01*
X389058Y116988D01*
X389103Y116973D01*
X389335Y116818D01*
X389920Y116701D01*
X390016Y116670D01*
X390064Y116673D01*
X391204Y116446D01*
X394230D01*
X394590Y116399D01*
X402490D01*
X402821Y115846D01*
X403023Y115129D01*
X402230Y113942D01*
X401910Y112331D01*
Y109157D01*
X402230Y107546D01*
X403143Y106181D01*
X404508Y105268D01*
X406119Y104948D01*
X409246D01*
X409644Y104643D01*
X411344Y103939D01*
X413167Y103699D01*
X424942D01*
X426765Y103939D01*
X428465Y104643D01*
X429924Y105762D01*
X431043Y107221D01*
X431747Y108921D01*
X431987Y110744D01*
X431747Y112567D01*
X431043Y114267D01*
X429924Y115726D01*
X428465Y116845D01*
X426765Y117549D01*
X424942Y117789D01*
X423844D01*
X423513Y118342D01*
X423311Y119059D01*
X424104Y120246D01*
X424424Y121856D01*
Y125031D01*
X424104Y126642D01*
X423191Y128007D01*
X421826Y128919D01*
X420215Y129240D01*
X417088D01*
X416690Y129545D01*
X414990Y130249D01*
X413167Y130489D01*
X397833D01*
X396704Y130714D01*
X391204D01*
X390064Y130487D01*
X390016Y130490D01*
X389920Y130458D01*
X389335Y130342D01*
X389103Y130187D01*
X389058Y130172D01*
X388802Y130026D01*
X388582Y129934D01*
X388233Y129823D01*
X387764Y129710D01*
X387253Y129619D01*
X384483Y129407D01*
X384412D01*
X380437Y133381D01*
X380032Y133827D01*
X379523Y134480D01*
X379051Y135158D01*
X378635Y135836D01*
X378273Y136515D01*
X377963Y137194D01*
X377704Y137875D01*
X377494Y138559D01*
X377312Y139335D01*
X377280Y139406D01*
X377212Y139747D01*
X376940Y140155D01*
X376894Y140255D01*
X376837Y140308D01*
X376153Y141331D01*
X374569Y142390D01*
X372700Y142762D01*
D02*
G37*
G36*
X348913Y105293D02*
X345502D01*
X343272Y104849D01*
X343247Y104833D01*
X342877D01*
X341349Y104529D01*
X340054Y103664D01*
X339189Y102368D01*
X338885Y100841D01*
Y98091D01*
X339189Y96564D01*
X340054Y95268D01*
X341349Y94403D01*
X342877Y94099D01*
X343247D01*
X343272Y94083D01*
X345502Y93639D01*
X346032D01*
Y92420D01*
X346476Y90190D01*
X347739Y88300D01*
X351892Y84147D01*
X353782Y82884D01*
X356012Y82440D01*
X364636D01*
X366866Y82884D01*
X368756Y84147D01*
X373944Y89335D01*
X375207Y91225D01*
X375651Y93455D01*
Y97982D01*
X375207Y100212D01*
X375191Y100237D01*
Y100607D01*
X374887Y102135D01*
X374022Y103430D01*
X372727Y104295D01*
X371199Y104599D01*
X368449D01*
X366922Y104295D01*
X365626Y103430D01*
X364521D01*
X363227Y104295D01*
X361699Y104599D01*
X358949D01*
X357421Y104295D01*
X356126Y103430D01*
X355670Y102746D01*
X354134Y102485D01*
X353033Y103586D01*
X351143Y104849D01*
X348913Y105293D01*
D02*
G37*
%LPD*%
G36*
X344492Y310010D02*
X344652Y310007D01*
Y303657D01*
X344492Y303654D01*
Y302245D01*
X344036Y302514D01*
X343511Y302754D01*
X342920Y302965D01*
X342260Y303149D01*
X341533Y303304D01*
X340927Y303387D01*
X339413Y303057D01*
X338727Y302841D01*
X338094Y302591D01*
X337515Y302308D01*
X336990Y301991D01*
Y303654D01*
X336880Y303657D01*
X336779Y310007D01*
X336990Y310011D01*
Y311673D01*
X337515Y311356D01*
X338094Y311073D01*
X338727Y310823D01*
X339413Y310607D01*
X340152Y310423D01*
X340519Y310354D01*
X341127Y310487D01*
X341879Y310698D01*
X342591Y310948D01*
X343264Y311236D01*
X343898Y311562D01*
X344492Y311927D01*
Y310010D01*
D02*
G37*
G36*
X356611Y313005D02*
X355474Y311840D01*
X352976Y308920D01*
X352448Y308138D01*
X352072Y307452D01*
X351849Y306862D01*
X351777Y306368D01*
X351858Y305970D01*
X352090Y305667D01*
X344492Y311927D01*
X345022Y312066D01*
X345584Y312277D01*
X346177Y312561D01*
X346802Y312918D01*
X347459Y313348D01*
X348867Y314426D01*
X349618Y315074D01*
X351215Y316589D01*
X356611Y313005D01*
D02*
G37*
G36*
X363534Y223779D02*
X362558Y223649D01*
X361607Y223455D01*
X360680Y223197D01*
X359779Y222874D01*
X358902Y222488D01*
X358049Y222036D01*
X357222Y221521D01*
X356419Y220941D01*
X355641Y220297D01*
X354888Y219588D01*
X350334Y224014D01*
X351032Y224757D01*
X351667Y225525D01*
X352238Y226319D01*
X352746Y227139D01*
X353191Y227985D01*
X353573Y228857D01*
X353892Y229755D01*
X354147Y230679D01*
X354340Y231629D01*
X354469Y232604D01*
X363534Y223779D01*
D02*
G37*
G36*
X336854Y217556D02*
X336124Y216786D01*
X335461Y216005D01*
X334866Y215213D01*
X334339Y214410D01*
X333880Y213595D01*
X333489Y212770D01*
X333165Y211933D01*
X332910Y211085D01*
X332722Y210226D01*
X332601Y209356D01*
X324064Y218203D01*
X324543Y217835D01*
X325105Y217639D01*
X325749Y217615D01*
X326476Y217762D01*
X327285Y218082D01*
X328177Y218573D01*
X329152Y219235D01*
X330209Y220070D01*
X331349Y221076D01*
X332572Y222254D01*
X336854Y217556D01*
D02*
G37*
G36*
X356632Y143733D02*
X356868Y140519D01*
X356956Y140131D01*
X357057Y139829D01*
X357172Y139611D01*
X357300Y139478D01*
X350334D01*
Y138306D01*
X350494Y138303D01*
Y131953D01*
X350334Y131950D01*
Y130287D01*
X349809Y130604D01*
X349230Y130887D01*
X348597Y131137D01*
X347911Y131353D01*
X347172Y131537D01*
X346597Y131645D01*
X345255Y131353D01*
X344569Y131137D01*
X343936Y130887D01*
X343357Y130604D01*
X342832Y130287D01*
Y131950D01*
X342672Y131953D01*
Y138303D01*
X342832Y138306D01*
Y139969D01*
X343357Y139652D01*
X343936Y139369D01*
X344569Y139119D01*
X345255Y138903D01*
X345994Y138719D01*
X346569Y138611D01*
X347911Y138903D01*
X348597Y139119D01*
X349230Y139369D01*
X349729Y139614D01*
X349843Y139829D01*
X349944Y140131D01*
X350032Y140519D01*
X350106Y140992D01*
X350214Y142193D01*
X350268Y143733D01*
X350275Y144631D01*
X356625D01*
X356632Y143733D01*
D02*
G37*
G36*
X300261Y322620D02*
X300623Y322530D01*
X301122Y322450D01*
X302526Y322323D01*
X305652Y322211D01*
X308415Y322190D01*
Y314570D01*
X306966Y314565D01*
X300261Y314140D01*
X300034Y314039D01*
Y322721D01*
X300261Y322620D01*
D02*
G37*
G36*
X292802Y314039D02*
X292538Y314166D01*
X292144Y314279D01*
X291620Y314379D01*
X290968Y314466D01*
X289273Y314599D01*
X284330Y314706D01*
X284591Y322326D01*
X292802Y322721D01*
Y314039D01*
D02*
G37*
G36*
X374992Y137884D02*
X375253Y137034D01*
X375572Y136195D01*
X375950Y135366D01*
X376387Y134548D01*
X376882Y133740D01*
X377437Y132943D01*
X378050Y132157D01*
X379453Y130615D01*
X379442Y130601D01*
X379706Y130333D01*
X382858Y126767D01*
X384161Y126785D01*
X387582Y127046D01*
X388295Y127175D01*
X388927Y127326D01*
X389478Y127501D01*
X389949Y127699D01*
X390338Y127921D01*
Y126871D01*
X390976Y126880D01*
Y120280D01*
X390861Y120304D01*
X390572Y120325D01*
X390338Y120330D01*
Y119239D01*
X389949Y119461D01*
X389478Y119659D01*
X388927Y119834D01*
X388295Y119985D01*
X387582Y120114D01*
X386134Y120275D01*
X385543Y120223D01*
X384746Y120082D01*
X384030Y119901D01*
X383396Y119679D01*
X382842Y119417D01*
X382370Y119114D01*
X381978Y118771D01*
X381668Y118388D01*
X381267Y125136D01*
X376609Y120020D01*
X376946Y120530D01*
X377108Y121126D01*
X377094Y121808D01*
X376906Y122577D01*
X376541Y123432D01*
X376001Y124373D01*
X375286Y125400D01*
X374396Y126514D01*
X374042Y126895D01*
X373135Y127641D01*
X372338Y128196D01*
X371530Y128691D01*
X370712Y129128D01*
X369883Y129506D01*
X369044Y129825D01*
X368194Y130086D01*
X367334Y130287D01*
X374791Y138744D01*
X374992Y137884D01*
D02*
G37*
%LPC*%
G36*
X541869Y218440D02*
X541869D01*
D01*
X541869D01*
D02*
G37*
G36*
X599948Y169164D02*
X599948D01*
D01*
X599948D01*
D02*
G37*
G36*
X527558Y57912D02*
X527557D01*
D01*
X527558D01*
D02*
G37*
%LPD*%
D18*
X528710Y290068D02*
D03*
X545710D02*
D03*
X497976D02*
D03*
X514976D02*
D03*
X189094Y151892D02*
D03*
X172094D02*
D03*
X158496D02*
D03*
X141496D02*
D03*
X333874Y306832D02*
D03*
X316874D02*
D03*
X347608Y307086D02*
D03*
X364608D02*
D03*
X105274Y338836D02*
D03*
X88274D02*
D03*
X130692Y307086D02*
D03*
X147692D02*
D03*
X598796Y105664D02*
D03*
X581796D02*
D03*
X339716Y135128D02*
D03*
X322716D02*
D03*
X46872Y121158D02*
D03*
X63872D02*
D03*
X620404Y322072D02*
D03*
X637404D02*
D03*
X539046Y135128D02*
D03*
X556046D02*
D03*
X370450D02*
D03*
X353450D02*
D03*
D19*
X294132Y259452D02*
D03*
Y242452D02*
D03*
X296418Y318380D02*
D03*
Y301380D02*
D03*
X393954Y123580D02*
D03*
Y140580D02*
D03*
X143764Y338310D02*
D03*
Y321310D02*
D03*
X392430Y199508D02*
D03*
Y182508D02*
D03*
X543864Y121022D02*
D03*
Y104022D02*
D03*
D20*
X129074Y321818D02*
D03*
X102574D02*
D03*
X558758Y120396D02*
D03*
X585258D02*
D03*
X73956Y338328D02*
D03*
X47456D02*
D03*
X68876Y135890D02*
D03*
X42376D02*
D03*
X642662Y305308D02*
D03*
X616162D02*
D03*
X613368Y105664D02*
D03*
X639868D02*
D03*
D21*
X148590Y279400D02*
D03*
Y293400D02*
D03*
X539496Y148702D02*
D03*
Y162702D02*
D03*
D22*
X273914Y242316D02*
D03*
Y267716D02*
D03*
Y280416D02*
D03*
Y293116D02*
D03*
Y305816D02*
D03*
Y318516D02*
D03*
Y331216D02*
D03*
X166218D02*
D03*
Y318516D02*
D03*
Y305816D02*
D03*
Y293116D02*
D03*
Y280416D02*
D03*
Y267716D02*
D03*
Y255016D02*
D03*
Y242316D02*
D03*
X413167Y199644D02*
D03*
Y136144D02*
D03*
Y110744D02*
D03*
X520863D02*
D03*
X413167Y161544D02*
D03*
Y174244D02*
D03*
Y148844D02*
D03*
X520863Y174244D02*
D03*
X413167Y123444D02*
D03*
X520863Y186944D02*
D03*
Y161544D02*
D03*
Y136144D02*
D03*
Y199644D02*
D03*
Y123444D02*
D03*
Y148844D02*
D03*
D23*
X71649Y247141D02*
D03*
X42649D02*
D03*
Y269747D02*
D03*
X71649D02*
D03*
Y292353D02*
D03*
X42649D02*
D03*
X71649Y314959D02*
D03*
X42649D02*
D03*
Y224281D02*
D03*
X71649D02*
D03*
Y156209D02*
D03*
X42649D02*
D03*
X71649Y178900D02*
D03*
X42649D02*
D03*
X71649Y201590D02*
D03*
X42649D02*
D03*
X41381Y373057D02*
D03*
X70381D02*
D03*
X88117D02*
D03*
X117117D02*
D03*
X134853D02*
D03*
X163853D02*
D03*
X615421Y126493D02*
D03*
X644421D02*
D03*
X615421Y149099D02*
D03*
X644421D02*
D03*
X615421Y171705D02*
D03*
X644421D02*
D03*
X615421Y194311D02*
D03*
X644421D02*
D03*
Y216917D02*
D03*
X615421D02*
D03*
Y239523D02*
D03*
X644421D02*
D03*
X615421Y262129D02*
D03*
X644421D02*
D03*
Y284735D02*
D03*
X615421D02*
D03*
X125751Y240031D02*
D03*
X96751D02*
D03*
X125751Y263651D02*
D03*
X96751D02*
D03*
X183663Y216545D02*
D03*
X154663D02*
D03*
X183663Y192531D02*
D03*
X154663D02*
D03*
X591079Y201930D02*
D03*
X562079D02*
D03*
X591079Y177991D02*
D03*
X562079D02*
D03*
X540027Y228855D02*
D03*
X511027D02*
D03*
X540027Y251461D02*
D03*
X511027D02*
D03*
X599717Y69089D02*
D03*
X570717D02*
D03*
X552981D02*
D03*
X523981D02*
D03*
X646453D02*
D03*
X617453D02*
D03*
D24*
X506476Y69554D02*
D03*
Y96054D02*
D03*
X181610Y344890D02*
D03*
Y371390D02*
D03*
D27*
X345124Y322732D02*
D03*
Y341732D02*
D03*
X369124D02*
D03*
Y332232D02*
D03*
Y322732D02*
D03*
X345502Y118466D02*
D03*
Y99466D02*
D03*
X321502D02*
D03*
Y108966D02*
D03*
Y118466D02*
D03*
D28*
X330810Y320232D02*
D03*
X311810D02*
D03*
Y344232D02*
D03*
X321310D02*
D03*
X330810D02*
D03*
X360324Y121982D02*
D03*
X379324D02*
D03*
Y97982D02*
D03*
X369824D02*
D03*
X360324D02*
D03*
D36*
X338836Y327406D02*
X340450D01*
X345124Y322732D01*
X327914Y327152D02*
X330620Y324446D01*
Y320422D02*
Y324446D01*
Y320422D02*
X330810Y320232D01*
X604520Y307340D02*
X606552Y305308D01*
X616162D01*
X155114Y318516D02*
X166218D01*
X163853Y356875D02*
Y373057D01*
X144954Y337976D02*
X163853Y356875D01*
X144954Y337476D02*
Y337976D01*
X144264Y336786D02*
X144954Y337476D01*
X143764Y336786D02*
X144264D01*
X129074Y322580D02*
X131798Y319856D01*
X143694D01*
X143764Y319786D01*
X144264D01*
X144954Y319096D01*
Y311348D02*
Y319096D01*
Y311348D02*
X147002Y309300D01*
Y306506D02*
Y309300D01*
Y306506D02*
X147692Y305816D01*
X166218D01*
X103764Y326522D02*
X104766Y327524D01*
Y338836D01*
X103764Y323770D02*
Y326522D01*
X102574Y322580D02*
X103764Y323770D01*
X71795Y224427D02*
X133749D01*
X71649Y224281D02*
X71795Y224427D01*
X133749D02*
X151638Y242316D01*
X166218D01*
X69596Y279654D02*
X69850Y279400D01*
X148590D01*
X149640D01*
X150656Y280416D01*
X166218D01*
X63872Y120832D02*
Y121158D01*
Y120832D02*
X64562Y120142D01*
X159649D01*
X159903Y119888D01*
X175768D01*
X190500Y134620D01*
X138430Y135890D02*
X139700Y134620D01*
X68876Y135890D02*
X138430D01*
X520863Y174244D02*
X532892D01*
X176130Y267462D02*
X181204Y272535D01*
Y343976D01*
X496570Y307340D02*
X511302Y322072D01*
X547370Y307340D02*
X604520D01*
X336298Y354582D02*
X344934Y345946D01*
Y341922D02*
Y345946D01*
Y341922D02*
X345124Y341732D01*
X326235Y354582D02*
X336298D01*
X309402Y318380D02*
X311254Y320232D01*
X296418Y318380D02*
X309402D01*
X273914Y318516D02*
X296282D01*
X296418Y318380D01*
X273914Y331216D02*
X285750D01*
X294268Y242316D02*
X302260D01*
X294132Y242452D02*
X294268Y242316D01*
X286004D02*
X293996D01*
X294132Y242452D01*
X273914Y242316D02*
X286004D01*
X261366D02*
X273914D01*
X400558Y199644D02*
X413167D01*
X392566D02*
X400558D01*
X392430Y199508D02*
X392566Y199644D01*
X384302D02*
X392294D01*
X392430Y199508D01*
X641731Y123803D02*
X644421Y126493D01*
X641731Y114992D02*
Y123803D01*
X641096Y114357D02*
X641731Y114992D01*
X641096Y110039D02*
Y114357D01*
X641058Y110001D02*
X641096Y110039D01*
X641058Y106854D02*
Y110001D01*
X639868Y105664D02*
X641058Y106854D01*
X509524Y186690D02*
X520609D01*
X532892Y174244D02*
X534670D01*
X151194Y293116D02*
X166218D01*
X151000Y293310D02*
X151194Y293116D01*
X148680Y293310D02*
X151000D01*
X148590Y293400D02*
X148680Y293310D01*
X365252Y116078D02*
Y117054D01*
X360324Y121982D02*
X365252Y117054D01*
X348906Y115062D02*
X353314D01*
X345502Y118466D02*
X348906Y115062D01*
X539557Y162641D02*
X606357D01*
X535686Y199644D02*
X553322Y217280D01*
X520863Y199644D02*
X535686D01*
X513702Y174244D02*
X520863D01*
X505877Y166419D02*
X513702Y174244D01*
X505877Y96653D02*
Y166419D01*
Y96653D02*
X506476Y96054D01*
X520863Y123444D02*
X532514D01*
X615421Y169205D02*
Y171705D01*
X612731Y166515D02*
X615421Y169205D01*
X610231Y166515D02*
X612731D01*
X606357Y162641D02*
X610231Y166515D01*
X539496Y162702D02*
X539557Y162641D01*
X531114Y161544D02*
X532182Y162612D01*
X539406D01*
X539496Y162702D01*
X520863Y161544D02*
X531114D01*
X511302Y322072D02*
X620404D01*
X413167Y199644D02*
X424942D01*
X543364Y105038D02*
X543864D01*
X542674Y104348D02*
X543364Y105038D01*
X542674Y103848D02*
Y104348D01*
X525748Y86922D02*
X542674Y103848D01*
X525748Y75936D02*
Y86922D01*
X523981Y74169D02*
X525748Y75936D01*
X553322Y217280D02*
X615058D01*
X615421Y216917D01*
X87630Y338464D02*
X87766Y338328D01*
X73956D02*
X87122D01*
X87376Y338582D01*
X87630Y338464D02*
Y346710D01*
X321310Y344232D02*
X321500Y344422D01*
Y349847D01*
X326235Y354582D01*
X316874Y306832D02*
Y307332D01*
X316184Y308022D02*
X316874Y307332D01*
X315868Y308022D02*
X316184D01*
X311404Y312486D02*
X315868Y308022D01*
X311404Y312486D02*
Y320232D01*
Y320548D01*
X311254Y320232D02*
X311404D01*
X154178Y267462D02*
X176130D01*
X181204Y343976D02*
X182118Y344890D01*
X600964Y97028D02*
Y100702D01*
X598796Y105664D02*
X613368D01*
X521117Y186690D02*
X532892D01*
X533400D01*
X581796Y105664D02*
X581824Y105692D01*
Y116962D01*
X585258Y120396D01*
X520863Y136144D02*
X538356D01*
X543864Y121022D02*
X544490Y120396D01*
X558758D01*
X539046Y134628D02*
Y135128D01*
X543364Y121022D02*
X543864D01*
X542674Y121712D02*
X543364Y121022D01*
X542674Y121712D02*
Y127652D01*
X539736Y130590D02*
X542674Y127652D01*
X539736Y130590D02*
Y134764D01*
X538356Y136144D02*
X539736Y134764D01*
D37*
X46928Y337800D02*
X47456Y338328D01*
X46928Y327860D02*
Y337800D01*
X46645Y327577D02*
X46928Y327860D01*
X46645Y327177D02*
Y327577D01*
X42649Y323182D02*
X46645Y327177D01*
X42649Y314959D02*
Y323182D01*
X393954Y123580D02*
X394454D01*
X394590Y123444D01*
X413167D01*
Y110744D02*
X424942D01*
D38*
X139700Y148318D02*
X141496Y150114D01*
X139700Y134620D02*
Y148318D01*
X547370Y292744D02*
Y307340D01*
X545456Y290830D02*
X547370Y292744D01*
D39*
X154178Y255016D02*
X166218D01*
D40*
X348257Y309141D02*
X354584Y315468D01*
Y318165D01*
X354839Y318420D01*
X353450Y135128D02*
Y144631D01*
X340106Y128524D02*
Y135010D01*
X334772Y123190D02*
X340106Y128524D01*
X334772Y116332D02*
Y123190D01*
X340106Y135010D02*
X340224Y135128D01*
X353450D01*
X327406Y108966D02*
X334772Y116332D01*
X321502Y108966D02*
X327406D01*
X351859Y92420D02*
Y96520D01*
Y92420D02*
X356012Y88267D01*
X364636D01*
X348913Y99466D02*
X351859Y96520D01*
X345502Y99466D02*
X348913D01*
X364636Y88267D02*
X369824Y93455D01*
Y97982D01*
X348615Y149466D02*
X353450Y144631D01*
X348615Y149466D02*
Y217805D01*
X361950Y231140D01*
X370450Y134628D02*
Y135128D01*
Y134628D02*
X371775Y133303D01*
X372275D01*
X381998Y123580D01*
X393954D01*
X354839Y318420D02*
Y322474D01*
X364597Y332232D02*
X369124D01*
X354839Y322474D02*
X364597Y332232D01*
X333874Y306832D02*
X344678D01*
X344932Y306578D01*
X333874Y306332D02*
Y306832D01*
Y306332D02*
X338455Y301751D01*
X325120Y210820D02*
X325120Y210820D01*
Y212344D01*
X325251Y212475D01*
X325120Y212344D02*
X327152D01*
X338455Y223647D01*
Y301751D01*
X323850Y211074D02*
X325120Y212344D01*
D41*
X538338Y148844D02*
X539496Y147686D01*
X520863Y148844D02*
X538338D01*
D42*
X666750Y256540D02*
D03*
Y281940D02*
D03*
Y231140D02*
D03*
Y180340D02*
D03*
Y154940D02*
D03*
Y78740D02*
D03*
Y104140D02*
D03*
X20320Y337820D02*
D03*
Y363220D02*
D03*
Y287020D02*
D03*
Y261620D02*
D03*
Y210820D02*
D03*
Y185420D02*
D03*
Y160020D02*
D03*
X325120Y185420D02*
D03*
Y261620D02*
D03*
Y210820D02*
D03*
Y236220D02*
D03*
X325120Y287020D02*
D03*
X325120Y160020D02*
D03*
X361950Y281940D02*
D03*
X361950Y180340D02*
D03*
Y154940D02*
D03*
Y231140D02*
D03*
Y205740D02*
D03*
Y256540D02*
D03*
D43*
X547370Y307340D02*
D03*
X521970D02*
D03*
X496570D02*
D03*
X445770D02*
D03*
X139700Y134620D02*
D03*
X165100D02*
D03*
X190500D02*
D03*
X241300D02*
D03*
D44*
X420370Y307340D02*
D03*
X266700Y134620D02*
D03*
D45*
X329184Y327152D02*
D03*
X338836Y327406D02*
D03*
X154432Y318516D02*
D03*
X122174Y251714D02*
D03*
X129540D02*
D03*
X86106Y200558D02*
D03*
Y212852D02*
D03*
Y151384D02*
D03*
Y163678D02*
D03*
Y175971D02*
D03*
Y188265D02*
D03*
X601726Y253695D02*
D03*
Y265989D02*
D03*
Y278282D02*
D03*
Y290576D02*
D03*
Y229108D02*
D03*
X154178Y255016D02*
D03*
Y267462D02*
D03*
X130810Y297434D02*
D03*
X122174Y305562D02*
D03*
X285750Y331216D02*
D03*
X286004Y267970D02*
D03*
X261366D02*
D03*
Y242316D02*
D03*
X302260D02*
D03*
X286004D02*
D03*
X86868Y263652D02*
D03*
Y251714D02*
D03*
Y239776D02*
D03*
X509016Y186690D02*
D03*
X193040Y192278D02*
D03*
Y204216D02*
D03*
Y216154D02*
D03*
X145034Y192024D02*
D03*
Y203962D02*
D03*
Y215900D02*
D03*
X565658Y189992D02*
D03*
X555752Y143764D02*
D03*
X601726Y241402D02*
D03*
X549656Y239268D02*
D03*
Y227330D02*
D03*
X558292Y189992D02*
D03*
X601726Y178562D02*
D03*
Y190500D02*
D03*
Y202438D02*
D03*
X500126Y251968D02*
D03*
Y240030D02*
D03*
Y228092D02*
D03*
X564388Y135636D02*
D03*
X408178Y86868D02*
D03*
X400629Y247142D02*
D03*
X328676Y99314D02*
D03*
X353314Y115062D02*
D03*
X379222Y90932D02*
D03*
X401066Y171196D02*
D03*
X384302Y199644D02*
D03*
X400558D02*
D03*
X424942D02*
D03*
Y171196D02*
D03*
X532892Y186690D02*
D03*
Y174244D02*
D03*
X87630Y346710D02*
D03*
X286004Y305308D02*
D03*
X361442Y341630D02*
D03*
X600964Y97028D02*
D03*
X549656Y251206D02*
D03*
X364744Y115824D02*
D03*
X424942Y110744D02*
D03*
X310642Y356108D02*
D03*
X532892Y123444D02*
D03*
M02*
