M48
;Layer_Color=9474304
;FILE_FORMAT=4:4
METRIC,LZ
;TYPE=PLATED
T1F00S00C0.3000
T2F00S00C0.9000
T3F00S00C1.0000
%
T01
X00328676Y00099314
X00353314Y00115062
X00364744Y00115824
X00379222Y00090932
X00408178Y00086868
X00424942Y00110744
X00532892Y00123444
X00564388Y00135636
X00600964Y00097028
X00601726Y00178562
Y001905
Y00202438
Y00229108
Y00241402
Y00253695
Y00265989
Y00278282
Y00290576
X00549656Y00251206
Y00239268
Y0022733
X00558292Y00189992
X00565658
X00555752Y00143764
X00532892Y00174244
Y0018669
X00509016
X00500126Y00228092
Y0024003
Y00251968
X00400629Y00247142
X00400558Y00199644
X00384302
X00424942
Y00171196
X00401066
X0030226Y00242316
X00286004
X00261366
Y0026797
X00286004
Y00305308
X0028575Y00331216
X00329184Y00327152
X00338836Y00327406
X00361442Y0034163
X00310642Y00356108
X00154432Y00318516
X00154178Y00267462
Y00255016
X00145034Y002159
Y00203962
Y00192024
X0019304Y00192278
Y00204216
Y00216154
X0012954Y00251714
X00122174
X00086868
Y00263652
Y00239776
X00086106Y00212852
Y00200558
Y00188265
Y00175971
Y00163678
Y00151384
X00122174Y00305562
X0013081Y00297434
X0008763Y0034671
T02
X0066675Y0007874
Y0010414
Y0015494
Y0018034
Y0023114
Y0025654
Y0028194
X0036195Y0028194
X0036195Y0025654
Y0023114
Y0020574
Y0018034
Y0015494
X0032512Y0016002
Y0018542
Y0021082
Y0023622
Y0026162
X0032512Y0028702
X0002032
Y0026162
Y0021082
Y0018542
Y0016002
Y0033782
Y0036322
T03
X001397Y0013462
X001651
X001905
X002413
X002667
X0054737Y0030734
X0052197
X0049657
X0044577
X0042037
M30
