G04*
G04 #@! TF.GenerationSoftware,Altium Limited,Altium Designer,19.1.7 (138)*
G04*
G04 Layer_Color=128*
%FSLAX44Y44*%
%MOMM*%
G71*
G01*
G75*
%ADD71C,0.0508*%
D71*
X662250Y256540D02*
X671250D01*
X666750Y252040D02*
Y261040D01*
X662250Y281940D02*
X671250D01*
X666750Y277440D02*
Y286440D01*
X662250Y231140D02*
X671250D01*
X666750Y226640D02*
Y235640D01*
X662250Y180340D02*
X671250D01*
X666750Y175840D02*
Y184840D01*
X662250Y154940D02*
X671250D01*
X666750Y150440D02*
Y159440D01*
X662250Y78740D02*
X671250D01*
X666750Y74240D02*
Y83240D01*
X662250Y104140D02*
X671250D01*
X666750Y99640D02*
Y108640D01*
X15820Y337820D02*
X24820D01*
X20320Y333320D02*
Y342320D01*
X15820Y363220D02*
X24820D01*
X20320Y358720D02*
Y367720D01*
X15820Y287020D02*
X24820D01*
X20320Y282520D02*
Y291520D01*
X15820Y261620D02*
X24820D01*
X20320Y257120D02*
Y266120D01*
X15820Y210820D02*
X24820D01*
X20320Y206320D02*
Y215320D01*
X15820Y185420D02*
X24820D01*
X20320Y180920D02*
Y189920D01*
X15820Y160020D02*
X24820D01*
X20320Y155520D02*
Y164520D01*
X542370Y307340D02*
X552370D01*
X547370Y302340D02*
Y312340D01*
X516970Y307340D02*
X526970D01*
X521970Y302340D02*
Y312340D01*
X491570Y307340D02*
X501570D01*
X496570Y302340D02*
Y312340D01*
X440770Y307340D02*
X450770D01*
X445770Y302340D02*
Y312340D01*
X415370Y307340D02*
X425370D01*
X420370Y302340D02*
Y312340D01*
X134700Y134620D02*
X144700D01*
X139700Y129620D02*
Y139620D01*
X160100Y134620D02*
X170100D01*
X165100Y129620D02*
Y139620D01*
X185500Y134620D02*
X195500D01*
X190500Y129620D02*
Y139620D01*
X236300Y134620D02*
X246300D01*
X241300Y129620D02*
Y139620D01*
X261700Y134620D02*
X271700D01*
X266700Y129620D02*
Y139620D01*
X320620Y185420D02*
X329620D01*
X325120Y180920D02*
Y189920D01*
X320620Y261620D02*
X329620D01*
X325120Y257120D02*
Y266120D01*
X320620Y210820D02*
X329620D01*
X325120Y206320D02*
Y215320D01*
X320620Y236220D02*
X329620D01*
X325120Y231720D02*
Y240720D01*
X320620Y287020D02*
X329620D01*
X325120Y282520D02*
Y291520D01*
X320620Y160020D02*
X329620D01*
X325120Y155520D02*
Y164520D01*
X357450Y281940D02*
X366450D01*
X361950Y277440D02*
Y286440D01*
X357450Y180340D02*
X366450D01*
X361950Y175840D02*
Y184840D01*
X357450Y154940D02*
X366450D01*
X361950Y150440D02*
Y159440D01*
X357450Y231140D02*
X366450D01*
X361950Y226640D02*
Y235640D01*
X357450Y205740D02*
X366450D01*
X361950Y201240D02*
Y210240D01*
X357450Y256540D02*
X366450D01*
X361950Y252040D02*
Y261040D01*
X327684Y327152D02*
X330684D01*
X329184Y325652D02*
Y328652D01*
X337336Y327406D02*
X340336D01*
X338836Y325906D02*
Y328906D01*
X152932Y318516D02*
X155932D01*
X154432Y317016D02*
Y320016D01*
X120674Y251714D02*
X123674D01*
X122174Y250214D02*
Y253214D01*
X128040Y251714D02*
X131040D01*
X129540Y250214D02*
Y253214D01*
X84606Y200558D02*
X87606D01*
X86106Y199058D02*
Y202058D01*
X84606Y212852D02*
X87606D01*
X86106Y211352D02*
Y214352D01*
X84606Y151384D02*
X87606D01*
X86106Y149884D02*
Y152884D01*
X84606Y163678D02*
X87606D01*
X86106Y162178D02*
Y165178D01*
X84606Y175971D02*
X87606D01*
X86106Y174471D02*
Y177471D01*
X84606Y188265D02*
X87606D01*
X86106Y186765D02*
Y189765D01*
X600226Y253695D02*
X603226D01*
X601726Y252195D02*
Y255195D01*
X600226Y265989D02*
X603226D01*
X601726Y264489D02*
Y267489D01*
X600226Y278282D02*
X603226D01*
X601726Y276782D02*
Y279782D01*
X600226Y290576D02*
X603226D01*
X601726Y289076D02*
Y292076D01*
X600226Y229108D02*
X603226D01*
X601726Y227608D02*
Y230608D01*
X152678Y255016D02*
X155678D01*
X154178Y253516D02*
Y256516D01*
X152678Y267462D02*
X155678D01*
X154178Y265962D02*
Y268962D01*
X129310Y297434D02*
X132310D01*
X130810Y295934D02*
Y298934D01*
X120674Y305562D02*
X123674D01*
X122174Y304062D02*
Y307062D01*
X284250Y331216D02*
X287250D01*
X285750Y329716D02*
Y332716D01*
X284504Y267970D02*
X287504D01*
X286004Y266470D02*
Y269470D01*
X259866Y267970D02*
X262866D01*
X261366Y266470D02*
Y269470D01*
X259866Y242316D02*
X262866D01*
X261366Y240816D02*
Y243816D01*
X300760Y242316D02*
X303760D01*
X302260Y240816D02*
Y243816D01*
X284504Y242316D02*
X287504D01*
X286004Y240816D02*
Y243816D01*
X85368Y263652D02*
X88368D01*
X86868Y262152D02*
Y265152D01*
X85368Y251714D02*
X88368D01*
X86868Y250214D02*
Y253214D01*
X85368Y239776D02*
X88368D01*
X86868Y238276D02*
Y241276D01*
X507516Y186690D02*
X510516D01*
X509016Y185190D02*
Y188190D01*
X191540Y192278D02*
X194540D01*
X193040Y190778D02*
Y193778D01*
X191540Y204216D02*
X194540D01*
X193040Y202716D02*
Y205716D01*
X191540Y216154D02*
X194540D01*
X193040Y214654D02*
Y217654D01*
X143534Y192024D02*
X146534D01*
X145034Y190524D02*
Y193524D01*
X143534Y203962D02*
X146534D01*
X145034Y202462D02*
Y205462D01*
X143534Y215900D02*
X146534D01*
X145034Y214400D02*
Y217400D01*
X564158Y189992D02*
X567158D01*
X565658Y188492D02*
Y191492D01*
X554252Y143764D02*
X557252D01*
X555752Y142264D02*
Y145264D01*
X600226Y241402D02*
X603226D01*
X601726Y239902D02*
Y242902D01*
X548156Y239268D02*
X551156D01*
X549656Y237768D02*
Y240768D01*
X548156Y227330D02*
X551156D01*
X549656Y225830D02*
Y228830D01*
X556792Y189992D02*
X559792D01*
X558292Y188492D02*
Y191492D01*
X600226Y178562D02*
X603226D01*
X601726Y177062D02*
Y180062D01*
X600226Y190500D02*
X603226D01*
X601726Y189000D02*
Y192000D01*
X600226Y202438D02*
X603226D01*
X601726Y200938D02*
Y203938D01*
X498626Y251968D02*
X501626D01*
X500126Y250468D02*
Y253468D01*
X498626Y240030D02*
X501626D01*
X500126Y238530D02*
Y241530D01*
X498626Y228092D02*
X501626D01*
X500126Y226592D02*
Y229592D01*
X562888Y135636D02*
X565888D01*
X564388Y134136D02*
Y137136D01*
X406678Y86868D02*
X409678D01*
X408178Y85368D02*
Y88368D01*
X399129Y247142D02*
X402129D01*
X400629Y245642D02*
Y248642D01*
X327176Y99314D02*
X330176D01*
X328676Y97814D02*
Y100814D01*
X351814Y115062D02*
X354814D01*
X353314Y113562D02*
Y116562D01*
X377722Y90932D02*
X380722D01*
X379222Y89432D02*
Y92432D01*
X399566Y171196D02*
X402566D01*
X401066Y169696D02*
Y172696D01*
X382802Y199644D02*
X385802D01*
X384302Y198144D02*
Y201144D01*
X399058Y199644D02*
X402058D01*
X400558Y198144D02*
Y201144D01*
X423442Y199644D02*
X426442D01*
X424942Y198144D02*
Y201144D01*
X423442Y171196D02*
X426442D01*
X424942Y169696D02*
Y172696D01*
X531392Y186690D02*
X534392D01*
X532892Y185190D02*
Y188190D01*
X531392Y174244D02*
X534392D01*
X532892Y172744D02*
Y175744D01*
X86130Y346710D02*
X89130D01*
X87630Y345210D02*
Y348210D01*
X284504Y305308D02*
X287504D01*
X286004Y303808D02*
Y306808D01*
X359942Y341630D02*
X362942D01*
X361442Y340130D02*
Y343130D01*
X599464Y97028D02*
X602464D01*
X600964Y95528D02*
Y98528D01*
X548156Y251206D02*
X551156D01*
X549656Y249706D02*
Y252706D01*
X363244Y115824D02*
X366244D01*
X364744Y114324D02*
Y117324D01*
X423442Y110744D02*
X426442D01*
X424942Y109244D02*
Y112244D01*
X309142Y356108D02*
X312142D01*
X310642Y354608D02*
Y357608D01*
X531392Y123444D02*
X534392D01*
X532892Y121944D02*
Y124944D01*
M02*
