M48
;Layer_Color=9474304
;FILE_FORMAT=4:4
METRIC,LZ
;TYPE=PLATED
T3F00S00C0.6000
T10F00S00C2.0000
%
G90
G05
T03
G00X0149682Y0081374
M15
G01X0146482
M16
G00X0149682Y0086534
M15
G01X0146482
M16
G00X0149682Y0091694
M15
G01X0146482
M16
T10
G00X0169926Y0008566
M15
G01Y0011566
M16
G00X0169926Y0018566
M15
G01Y0021566
M16
G00X01014333Y0018566
M15
G01Y0021566
M16
G00X01014333Y0008566
M15
G01Y0011566
M16
G00X00332343Y0008566
M15
G01Y0011566
M16
G00X00332343Y0018566
M15
G01Y0021566
M16
G00X0089408Y0077875
M15
G01Y0080875
M16
G00X0089408Y0087875
M15
G01Y0090875
M16
M17
M30
