G04 Layer_Physical_Order=1*
G04 Layer_Color=255*
%FSLAX44Y44*%
%MOMM*%
G71*
G01*
G75*
G04:AMPARAMS|DCode=10|XSize=21.5mm|YSize=13.5mm|CornerRadius=0.3375mm|HoleSize=0mm|Usage=FLASHONLY|Rotation=180.000|XOffset=0mm|YOffset=0mm|HoleType=Round|Shape=RoundedRectangle|*
%AMROUNDEDRECTD10*
21,1,21.5000,12.8250,0,0,180.0*
21,1,20.8250,13.5000,0,0,180.0*
1,1,0.6750,-10.4125,6.4125*
1,1,0.6750,10.4125,6.4125*
1,1,0.6750,10.4125,-6.4125*
1,1,0.6750,-10.4125,-6.4125*
%
%ADD10ROUNDEDRECTD10*%
%ADD11R,0.8000X4.7000*%
%ADD12R,1.5200X1.1000*%
%ADD13C,1.0160*%
%ADD14C,2.0000*%
%ADD15C,0.8000*%
%ADD16R,16.0020X16.8910*%
%ADD17C,7.0000*%
%ADD18R,2.0000X1.5000*%
%ADD19O,2.0000X1.5000*%
%ADD20C,2.5000*%
%ADD21C,1.8000*%
%ADD22R,1.5000X1.5000*%
%ADD23C,1.5000*%
%ADD24O,5.0000X8.0000*%
%ADD25C,1.5240*%
%ADD26C,4.0000*%
%ADD27C,2.0000*%
%ADD28R,1.5000X2.0000*%
%ADD29O,1.5000X2.0000*%
%ADD30O,4.5000X1.5000*%
%ADD31C,0.8000*%
%ADD32C,0.6000*%
G36*
X1909491Y432443D02*
X1909322Y431655D01*
X1909364Y430770D01*
X1909616Y429786D01*
X1910080Y428704D01*
X1910754Y427523D01*
X1911639Y426244D01*
X1912735Y424867D01*
X1914041Y423392D01*
X1915559Y421818D01*
X1909010Y417054D01*
X1907921Y418128D01*
X1903757Y421805D01*
X1903181Y422201D01*
X1902690Y422484D01*
X1902284Y422654D01*
X1901963Y422710D01*
X1909872Y433132D01*
X1909491Y432443D01*
D02*
G37*
G36*
X1908821Y144467D02*
X1908705Y144495D01*
X1908533Y144452D01*
X1908305Y144339D01*
X1908022Y144155D01*
X1907684Y143900D01*
X1906841Y143178D01*
X1905159Y141565D01*
X1898929Y149704D01*
X1906662Y154472D01*
X1908821Y144467D01*
D02*
G37*
G36*
X1927910Y145500D02*
X1927809Y145516D01*
X1927504Y145529D01*
X1922994Y145553D01*
X1918702Y145326D01*
Y145575D01*
X1917751Y145580D01*
Y155740D01*
X1918702Y155744D01*
Y155994D01*
X1918795Y155946D01*
X1918974Y155903D01*
X1919239Y155864D01*
X1920029Y155803D01*
X1920492Y155793D01*
X1927504Y156188D01*
X1927809Y156307D01*
X1927910Y156440D01*
Y145500D01*
D02*
G37*
G36*
X1918795Y136846D02*
X1918974Y136803D01*
X1919239Y136764D01*
X1920029Y136704D01*
X1922643Y136643D01*
X1923512Y136640D01*
Y136526D01*
X1927910Y136440D01*
Y125500D01*
X1927809Y125687D01*
X1927504Y125853D01*
X1926996Y126000D01*
X1926285Y126127D01*
X1925370Y126235D01*
X1922932Y126392D01*
X1922108Y126406D01*
X1919284Y126257D01*
X1919356Y122416D01*
X1909196Y120542D01*
X1909191Y121409D01*
X1908952Y124858D01*
X1908878Y125140D01*
X1908794Y125340D01*
X1908699Y125456D01*
X1917751Y126673D01*
Y136640D01*
X1918702Y136621D01*
Y136894D01*
X1918795Y136846D01*
D02*
G37*
G36*
X1760078Y663716D02*
X1763083Y662471D01*
X1765787Y660664D01*
X1768087Y658365D01*
X1769893Y655660D01*
X1771138Y652656D01*
X1771772Y649466D01*
X1771772Y647840D01*
X1771772Y647840D01*
X1771772Y557670D01*
X1771772Y555168D01*
X1770797Y550261D01*
X1768882Y545638D01*
X1766102Y541478D01*
X1762564Y537940D01*
X1758404Y535161D01*
X1753781Y533246D01*
X1748874Y532270D01*
X1746373Y532270D01*
X1746373D01*
X1746373D01*
D01*
X1731132Y532270D01*
X1728712Y532151D01*
X1723964Y531207D01*
X1719491Y529355D01*
X1715466Y526665D01*
X1712043Y523242D01*
X1709353Y519217D01*
X1707501Y514744D01*
X1706557Y509996D01*
X1706438Y507576D01*
Y507576D01*
X1706438Y402000D01*
X1706406Y399935D01*
X1705546Y395893D01*
X1703921Y392094D01*
X1701593Y388680D01*
X1698649Y385780D01*
X1695200Y383504D01*
X1691376Y381938D01*
X1687322Y381140D01*
X1685255Y381140D01*
X1685256Y381140D01*
X1442580Y381140D01*
X1439850Y381140D01*
X1434438Y381853D01*
X1429164Y383266D01*
X1424120Y385355D01*
X1419392Y388084D01*
X1415061Y391408D01*
X1411200Y395269D01*
X1407877Y399600D01*
X1405147Y404328D01*
X1403058Y409372D01*
X1401645Y414645D01*
X1400932Y420058D01*
X1400932Y422788D01*
Y422788D01*
X1400932Y591960D01*
X1400932Y594790D01*
X1401671Y600402D01*
X1403136Y605869D01*
X1405302Y611099D01*
X1408132Y616001D01*
X1411578Y620492D01*
X1415581Y624494D01*
X1420071Y627940D01*
X1424973Y630770D01*
X1430203Y632936D01*
X1435670Y634401D01*
X1441282Y635140D01*
X1444112Y635140D01*
X1444112Y635140D01*
X1663822Y635140D01*
X1664818Y635189D01*
X1666772Y635577D01*
X1668612Y636339D01*
X1670268Y637446D01*
X1671676Y638854D01*
X1672783Y640510D01*
X1673545Y642351D01*
X1673933Y644304D01*
X1673982Y645300D01*
X1673982Y645300D01*
X1673982Y649110D01*
X1673982Y650611D01*
X1674568Y653555D01*
X1675717Y656329D01*
X1677385Y658825D01*
X1679507Y660948D01*
X1682004Y662616D01*
X1684777Y663764D01*
X1687721Y664350D01*
X1689223Y664350D01*
X1689223Y664350D01*
X1755262Y664350D01*
X1756888Y664350D01*
X1760078Y663716D01*
D02*
G37*
G36*
X1919380Y-13551D02*
X1919738Y-18123D01*
X1919953Y-19240D01*
X1920216Y-20155D01*
X1920527Y-20866D01*
X1920885Y-21374D01*
X1921292Y-21679D01*
X1921745Y-21781D01*
X1906806D01*
X1907260Y-21679D01*
X1907667Y-21374D01*
X1908025Y-20866D01*
X1908336Y-20155D01*
X1908599Y-19240D01*
X1908814Y-18123D01*
X1908981Y-16802D01*
X1909172Y-13551D01*
X1909196Y-11621D01*
X1919356D01*
X1919380Y-13551D01*
D02*
G37*
G36*
X1953210Y126480D02*
X1951279Y126470D01*
X1949500Y126356D01*
Y125500D01*
X1949399Y125687D01*
X1949094Y125853D01*
X1948586Y126000D01*
X1947875Y126127D01*
X1947194Y126208D01*
X1943964Y126000D01*
X1943456Y125853D01*
X1943151Y125687D01*
X1943049Y125500D01*
Y126417D01*
X1939341Y126480D01*
Y136640D01*
X1944172Y136545D01*
X1944675Y136568D01*
X1953210Y136640D01*
Y126480D01*
D02*
G37*
G36*
X1923745Y413712D02*
X1924946Y412750D01*
X1926195Y411902D01*
X1927490Y411166D01*
X1928833Y410544D01*
X1930222Y410035D01*
X1931658Y409639D01*
X1933141Y409356D01*
X1934670Y409187D01*
X1936247Y409130D01*
X1926590Y401130D01*
X1908933Y409130D01*
X1910397Y409187D01*
X1911587Y409356D01*
X1912504Y409639D01*
X1913148Y410035D01*
X1913519Y410544D01*
X1913617Y411166D01*
X1913441Y411902D01*
X1912993Y412750D01*
X1912271Y413712D01*
X1911276Y414787D01*
X1922590D01*
X1923745Y413712D01*
D02*
G37*
G36*
X1487047Y360490D02*
X1485583Y360433D01*
X1484393Y360264D01*
X1483476Y359981D01*
X1482832Y359585D01*
X1482461Y359076D01*
X1482363Y358453D01*
X1482539Y357718D01*
X1482987Y356870D01*
X1483709Y355908D01*
X1484704Y354833D01*
X1473390D01*
X1472235Y355908D01*
X1471033Y356870D01*
X1469785Y357718D01*
X1468490Y358453D01*
X1467147Y359076D01*
X1465758Y359585D01*
X1464322Y359981D01*
X1462839Y360264D01*
X1461310Y360433D01*
X1459733Y360490D01*
X1469390Y368490D01*
X1487047Y360490D01*
D02*
G37*
G36*
X1398464Y344514D02*
X1395909Y341916D01*
X1388377Y333340D01*
X1387166Y331651D01*
X1386225Y330144D01*
X1385552Y328818D01*
X1385148Y327675D01*
X1385013Y326714D01*
X1383264Y328463D01*
X1383149Y328299D01*
X1382467Y327111D01*
X1382012Y326036D01*
X1381782Y325075D01*
X1381779Y324229D01*
X1382003Y323495D01*
X1382452Y322876D01*
X1371169Y334159D01*
X1371788Y333709D01*
X1372522Y333486D01*
X1373369Y333489D01*
X1374329Y333719D01*
X1375404Y334174D01*
X1376592Y334856D01*
X1376756Y334971D01*
X1375007Y336720D01*
X1375968Y336855D01*
X1377111Y337259D01*
X1378437Y337932D01*
X1379944Y338873D01*
X1381633Y340084D01*
X1385557Y343312D01*
X1390209Y347616D01*
X1392807Y350171D01*
X1398464Y344514D01*
D02*
G37*
G36*
X1487410Y352152D02*
X1490335Y349606D01*
X1491185Y348984D01*
X1491971Y348475D01*
X1492696Y348079D01*
X1493357Y347796D01*
X1493956Y347626D01*
X1494493Y347570D01*
X1486584Y336012D01*
X1486939Y336727D01*
X1487088Y337534D01*
X1487033Y338434D01*
X1486772Y339426D01*
X1486306Y340511D01*
X1485634Y341689D01*
X1484758Y342959D01*
X1483676Y344322D01*
X1482389Y345778D01*
X1480897Y347326D01*
X1486310Y353226D01*
X1487410Y352152D01*
D02*
G37*
G36*
X1718707Y387350D02*
X1947307D01*
X1947306Y387349D01*
X1949558Y387349D01*
X1953974Y386471D01*
X1958135Y384748D01*
X1961879Y382247D01*
X1965063Y379062D01*
X1967565Y375318D01*
X1969288Y371158D01*
X1970167Y366742D01*
X1970167Y364490D01*
X1970167Y269594D01*
X1970166Y269593D01*
X1970166Y266355D01*
X1969639Y259901D01*
X1968587Y253512D01*
X1967018Y247229D01*
X1964942Y241095D01*
X1962373Y235151D01*
X1959328Y229436D01*
X1955828Y223988D01*
X1951895Y218843D01*
X1947556Y214036D01*
X1942840Y209598D01*
X1937778Y205560D01*
X1935090Y203754D01*
X1927274Y198500D01*
X1927274Y198500D01*
X1923076Y195679D01*
X1914288Y190673D01*
X1905154Y186330D01*
X1895724Y182674D01*
X1886049Y179725D01*
X1876183Y177498D01*
X1866179Y176007D01*
X1856093Y175260D01*
X1851035Y175260D01*
X1740297D01*
X1740297Y175260D01*
X1739177Y175205D01*
X1736979Y174768D01*
X1734909Y173910D01*
X1733046Y172665D01*
X1731461Y171081D01*
X1730217Y169218D01*
X1729359Y167148D01*
X1728922Y164950D01*
X1728867Y163830D01*
X1728867Y163830D01*
X1728867Y162704D01*
X1728428Y160496D01*
X1727566Y158416D01*
X1726315Y156544D01*
X1724723Y154952D01*
X1722851Y153701D01*
X1720771Y152839D01*
X1718563Y152400D01*
X1717437Y152400D01*
X1675671D01*
X1673463Y152839D01*
X1671383Y153701D01*
X1669511Y154952D01*
X1667919Y156544D01*
X1666668Y158416D01*
X1665806Y160496D01*
X1665367Y162704D01*
X1665367Y163830D01*
X1665367Y163830D01*
X1665312Y164950D01*
X1664875Y167148D01*
X1664018Y169218D01*
X1662773Y171081D01*
X1661188Y172666D01*
X1659325Y173910D01*
X1657255Y174768D01*
X1655057Y175205D01*
X1653937Y175260D01*
X1584087Y175260D01*
X1551214D01*
X1543951Y176216D01*
X1536876Y178112D01*
X1530108Y180915D01*
X1523764Y184578D01*
X1517953Y189037D01*
X1512774Y194217D01*
X1508314Y200028D01*
X1504652Y206372D01*
X1501849Y213139D01*
X1499953Y220215D01*
X1498997Y227477D01*
X1498997Y231140D01*
X1498997Y347107D01*
Y347107D01*
X1498997Y347785D01*
X1499516Y349040D01*
X1500476Y350001D01*
X1501731Y350520D01*
X1502410Y350520D01*
X1581547Y350520D01*
X1581547Y350520D01*
X1582810Y350520D01*
X1585144Y349553D01*
X1586930Y347767D01*
X1587897Y345433D01*
X1587897Y344170D01*
X1587897Y300593D01*
X1587897Y300593D01*
X1587987Y299679D01*
X1588686Y297991D01*
X1589978Y296699D01*
X1591667Y296000D01*
X1592580Y295910D01*
X1597660Y295910D01*
X1597660Y295910D01*
X1598899Y296032D01*
X1601188Y296980D01*
X1602940Y298732D01*
X1603888Y301021D01*
X1604010Y302260D01*
X1604010Y346710D01*
Y347468D01*
X1604590Y348868D01*
X1605662Y349940D01*
X1607062Y350520D01*
X1607820D01*
X1681877Y350520D01*
X1681877D01*
X1683621Y350577D01*
X1687080Y351032D01*
X1690450Y351935D01*
X1693673Y353270D01*
X1696694Y355014D01*
X1699462Y357138D01*
X1701929Y359605D01*
X1704052Y362372D01*
X1705797Y365394D01*
X1707132Y368617D01*
X1708035Y371987D01*
X1708490Y375446D01*
X1708547Y377190D01*
X1708547Y377189D01*
X1708547Y378190D01*
X1708937Y380153D01*
X1709702Y382002D01*
X1710814Y383667D01*
X1712229Y385082D01*
X1713894Y386194D01*
X1715743Y386960D01*
X1717706Y387350D01*
X1718707Y387350D01*
D02*
G37*
G36*
X1949500Y155804D02*
X1953210Y155740D01*
Y145580D01*
X1949500Y145551D01*
Y145500D01*
X1949399Y145516D01*
X1949094Y145529D01*
X1947662Y145537D01*
X1943049Y145500D01*
Y145561D01*
X1939341Y145580D01*
Y155740D01*
X1941271Y155747D01*
X1943049Y155847D01*
Y156440D01*
X1943151Y156307D01*
X1943456Y156188D01*
X1943964Y156083D01*
X1944675Y155992D01*
X1945099Y155963D01*
X1949094Y156188D01*
X1949399Y156307D01*
X1949500Y156440D01*
Y155804D01*
D02*
G37*
G36*
X2020119Y407915D02*
X2021947Y407827D01*
X2011456Y397336D01*
X2011325Y402302D01*
X2016981Y407958D01*
X2017008Y407980D01*
X2017140Y407994D01*
X2017375Y407999D01*
X2020119Y407915D01*
D02*
G37*
G36*
X1645047Y171450D02*
X1645922Y171450D01*
X1647640Y171108D01*
X1649258Y170438D01*
X1650714Y169465D01*
X1651952Y168227D01*
X1652925Y166771D01*
X1653595Y165153D01*
X1653937Y163435D01*
Y162560D01*
X1653937Y157480D01*
Y157480D01*
X1653980Y156608D01*
X1654320Y154899D01*
X1654987Y153289D01*
X1655955Y151840D01*
X1657187Y150608D01*
X1658636Y149640D01*
X1660246Y148973D01*
X1661956Y148633D01*
X1662827Y148590D01*
X1754267Y148590D01*
Y148590D01*
X1756514Y148590D01*
X1760971Y148003D01*
X1765313Y146840D01*
X1769466Y145120D01*
X1773358Y142872D01*
X1776924Y140136D01*
X1780103Y136958D01*
X1782839Y133391D01*
X1785087Y129499D01*
X1786807Y125346D01*
X1787970Y121004D01*
X1788557Y116547D01*
Y114300D01*
X1788557Y5080D01*
X1788557Y5080D01*
Y2666D01*
X1787927Y-2121D01*
X1786677Y-6784D01*
X1784830Y-11244D01*
X1782416Y-15426D01*
X1779477Y-19256D01*
X1776063Y-22670D01*
X1772233Y-25609D01*
X1768051Y-28023D01*
X1763591Y-29870D01*
X1758927Y-31120D01*
X1754141Y-31750D01*
X1751727D01*
X1670447Y-31750D01*
X1501537Y-31750D01*
X1501537D01*
X1499536Y-31750D01*
X1495610Y-30969D01*
X1491912Y-29437D01*
X1488584Y-27214D01*
X1485753Y-24383D01*
X1483530Y-21055D01*
X1481998Y-17357D01*
X1481217Y-13431D01*
X1481217Y-11430D01*
X1481217Y154940D01*
X1481217Y154940D01*
X1481217Y156566D01*
X1481851Y159756D01*
X1483096Y162760D01*
X1484903Y165464D01*
X1487202Y167764D01*
X1489906Y169571D01*
X1492911Y170815D01*
X1496101Y171450D01*
X1497727Y171450D01*
X1645047Y171450D01*
X1645047Y171450D01*
D02*
G37*
G36*
X1868575Y-15400D02*
X1869020Y-21448D01*
X1869223Y-22667D01*
X1869743Y-24756D01*
X1870058Y-25625D01*
X1870410Y-26378D01*
X1856542D01*
X1856894Y-25625D01*
X1857209Y-24756D01*
X1857487Y-23770D01*
X1857728Y-22667D01*
X1858099Y-20111D01*
X1858229Y-18658D01*
X1858396Y-13596D01*
X1868556D01*
X1868575Y-15400D01*
D02*
G37*
G36*
X1893974D02*
X1894420Y-21448D01*
X1894624Y-22667D01*
X1895143Y-24756D01*
X1895458Y-25625D01*
X1895810Y-26378D01*
X1881942D01*
X1882294Y-25625D01*
X1882609Y-24756D01*
X1882887Y-23770D01*
X1883128Y-22667D01*
X1883499Y-20111D01*
X1883629Y-18658D01*
X1883796Y-13596D01*
X1893956D01*
X1893974Y-15400D01*
D02*
G37*
G36*
X2012038Y1029122D02*
X2007742Y1027664D01*
X2002452Y1025055D01*
X1997547Y1021777D01*
X1993112Y1017888D01*
X1989223Y1013453D01*
X1985945Y1008548D01*
X1983336Y1003258D01*
X1981440Y997672D01*
X1980289Y991886D01*
X1979903Y986000D01*
X1980289Y980114D01*
X1981440Y974328D01*
X1983336Y968742D01*
X1985945Y963452D01*
X1989223Y958547D01*
X1993112Y954112D01*
X1997547Y950222D01*
X2002452Y946945D01*
X2007742Y944336D01*
X2013328Y942440D01*
X2019114Y941289D01*
X2025000Y940903D01*
X2030886Y941289D01*
X2036672Y942440D01*
X2042258Y944336D01*
X2047548Y946945D01*
X2052453Y950222D01*
X2056888Y954112D01*
X2060777Y958547D01*
X2061658Y959864D01*
X2062873Y959496D01*
Y936000D01*
X2062887Y935898D01*
X2063279Y927904D01*
X2064469Y919886D01*
X2066438Y912023D01*
X2069169Y904390D01*
X2072635Y897063D01*
X2076802Y890110D01*
X2081631Y883599D01*
X2087074Y877593D01*
X2093080Y872150D01*
X2099591Y867321D01*
X2106544Y863154D01*
X2113871Y859688D01*
X2121504Y856957D01*
X2129367Y854988D01*
X2137385Y853798D01*
X2145379Y853406D01*
X2145481Y853392D01*
X2149873D01*
Y493000D01*
Y132608D01*
X2145481D01*
X2145481Y132608D01*
Y132608D01*
X2145380Y132594D01*
X2137385Y132202D01*
X2129367Y131012D01*
X2121504Y129043D01*
X2113871Y126312D01*
X2106544Y122846D01*
X2099591Y118679D01*
X2093080Y113850D01*
X2087074Y108407D01*
X2081631Y102401D01*
X2076802Y95890D01*
X2072635Y88937D01*
X2069169Y81609D01*
X2066438Y73977D01*
X2064469Y66114D01*
X2063279Y58096D01*
X2062887Y50102D01*
X2062873Y50000D01*
Y-44392D01*
X1931776D01*
Y-22204D01*
X1931832Y-21781D01*
X1931804Y-21571D01*
X1931823Y-21361D01*
X1931776Y-21091D01*
Y-11750D01*
X1929445D01*
X1929442Y-11496D01*
X1929429Y-11409D01*
Y115470D01*
X1942626D01*
X1943049Y115414D01*
X1943170Y115430D01*
X1943290Y115417D01*
X1943630Y115470D01*
X1948920D01*
X1949260Y115417D01*
X1949380Y115430D01*
X1949500Y115414D01*
X1949924Y115470D01*
X1974670D01*
Y135470D01*
Y166470D01*
X1949924D01*
X1949500Y166526D01*
X1949077Y166470D01*
X1943473D01*
X1943049Y166526D01*
X1942626Y166470D01*
X1931587D01*
X1930734Y167411D01*
X1930965Y169760D01*
X1930625Y173214D01*
X1929618Y176535D01*
X1927981Y179597D01*
X1925780Y182279D01*
X1924250Y183535D01*
X1924357Y184801D01*
X1928069Y186915D01*
X1928367Y187141D01*
X1928703Y187308D01*
X1932900Y190129D01*
X1932901Y190129D01*
X1940717Y195383D01*
X1943404Y197189D01*
X1943714Y197462D01*
X1944068Y197675D01*
X1949130Y201714D01*
X1949416Y202011D01*
X1949751Y202253D01*
X1954468Y206690D01*
X1954729Y207010D01*
X1955043Y207278D01*
X1959382Y212085D01*
X1959617Y212425D01*
X1959908Y212717D01*
X1963841Y217862D01*
X1964047Y218220D01*
X1964313Y218535D01*
X1967814Y223983D01*
X1967990Y224357D01*
X1968230Y224693D01*
X1971275Y230408D01*
X1971420Y230795D01*
X1971631Y231150D01*
X1974200Y237094D01*
X1974313Y237491D01*
X1974496Y237862D01*
X1976572Y243995D01*
X1976652Y244401D01*
X1976803Y244785D01*
X1978372Y251068D01*
X1978419Y251478D01*
X1978539Y251873D01*
X1979591Y258263D01*
X1979604Y258675D01*
X1979691Y259079D01*
X1980219Y265533D01*
X1980199Y265946D01*
X1980252Y266355D01*
X1980252Y269587D01*
X1980253Y269594D01*
X1980253Y364490D01*
X1980253Y366741D01*
X1980124Y367722D01*
X1980060Y368709D01*
X1979181Y373126D01*
X1978863Y374063D01*
X1978607Y375018D01*
X1976884Y379178D01*
X1976389Y380035D01*
X1975952Y380922D01*
X1973450Y384666D01*
X1972797Y385410D01*
X1972195Y386195D01*
X1969011Y389379D01*
X1968226Y389981D01*
X1967482Y390633D01*
X1963738Y393135D01*
X1962851Y393572D01*
X1961994Y394067D01*
X1958805Y395387D01*
X1959058Y396657D01*
X2006919D01*
Y372440D01*
Y347040D01*
X2007414Y343281D01*
X2008865Y339778D01*
X2009543Y338894D01*
Y335140D01*
X2013297D01*
X2014181Y334462D01*
X2017684Y333011D01*
X2021443Y332516D01*
X2025202Y333011D01*
X2028705Y334462D01*
X2029589Y335140D01*
X2033343D01*
Y338894D01*
X2034021Y339778D01*
X2035472Y343281D01*
X2035967Y347040D01*
Y372440D01*
Y397840D01*
X2035472Y401599D01*
X2034021Y405102D01*
X2031713Y408110D01*
X2028705Y410418D01*
X2025202Y411869D01*
X2022491Y412226D01*
X2022162Y412308D01*
X2021699Y412331D01*
X2021443Y412364D01*
X2021323Y412349D01*
X2020334Y412396D01*
X2020295Y412390D01*
X2020258Y412399D01*
X2018404Y412456D01*
X2018389Y412467D01*
X2016346Y413314D01*
X2014153Y413602D01*
X1936454D01*
X1936408Y413613D01*
X1934999Y413664D01*
X1933809Y413796D01*
X1932676Y414012D01*
X1931592Y414311D01*
X1930551Y414692D01*
X1929545Y415159D01*
X1928567Y415714D01*
X1927613Y416363D01*
X1926679Y417110D01*
X1925647Y418071D01*
X1925606Y418096D01*
X1918821Y424881D01*
X1918788Y424932D01*
X1917337Y426437D01*
X1916172Y427753D01*
X1915242Y428921D01*
X1914553Y429916D01*
X1914405Y430176D01*
Y446180D01*
X1914333Y446731D01*
Y474080D01*
X1897533D01*
Y446731D01*
X1897460Y446180D01*
Y425787D01*
X1897533Y425237D01*
Y422337D01*
X1897518Y422101D01*
X1897533Y422060D01*
Y418280D01*
X1900966D01*
X1900993Y418262D01*
X1904830Y414873D01*
X1904833Y414792D01*
X1904312Y413602D01*
X1819609D01*
X1809333Y423879D01*
Y445629D01*
X1809405Y446180D01*
X1809333Y446731D01*
Y474080D01*
X1792533D01*
Y447209D01*
X1792388Y446107D01*
Y420370D01*
X1792533Y419268D01*
Y418280D01*
X1792663D01*
X1792676Y418177D01*
X1793523Y416134D01*
X1794869Y414379D01*
X1810109Y399139D01*
X1810673Y398706D01*
X1810242Y397436D01*
X1718709D01*
X1717708Y397436D01*
X1717479Y397406D01*
X1717273Y397479D01*
X1716393Y398352D01*
X1716328Y398554D01*
X1716349Y398812D01*
X1716492Y399781D01*
X1716523Y401847D01*
X1716514Y401924D01*
X1716524Y402000D01*
X1716524Y507328D01*
X1716595Y508759D01*
X1717200Y511802D01*
X1718292Y514439D01*
X1719877Y516812D01*
X1721896Y518830D01*
X1724269Y520416D01*
X1726906Y521508D01*
X1729949Y522113D01*
X1731380Y522184D01*
X1746372Y522184D01*
X1748874Y522184D01*
X1749854Y522313D01*
X1750842Y522377D01*
X1755749Y523353D01*
X1756686Y523671D01*
X1757641Y523927D01*
X1762264Y525842D01*
X1763120Y526337D01*
X1764008Y526774D01*
X1768168Y529554D01*
X1768912Y530206D01*
X1769696Y530808D01*
X1773234Y534346D01*
X1773837Y535131D01*
X1774489Y535875D01*
X1777268Y540035D01*
X1777706Y540922D01*
X1778200Y541779D01*
X1780115Y546401D01*
X1780371Y547357D01*
X1780689Y548293D01*
X1781665Y553201D01*
X1781730Y554188D01*
X1781859Y555169D01*
X1781859Y557670D01*
X1781859Y647840D01*
X1781859Y647841D01*
X1781859Y649466D01*
X1781729Y650446D01*
X1781665Y651434D01*
X1781030Y654623D01*
X1780712Y655560D01*
X1780457Y656516D01*
X1779212Y659520D01*
X1778717Y660377D01*
X1778280Y661264D01*
X1776473Y663968D01*
X1775821Y664712D01*
X1775219Y665497D01*
X1772919Y667796D01*
X1772134Y668399D01*
X1771391Y669051D01*
X1768687Y670858D01*
X1767799Y671295D01*
X1766943Y671790D01*
X1763938Y673034D01*
X1762983Y673290D01*
X1762046Y673608D01*
X1758856Y674243D01*
X1757869Y674307D01*
X1756888Y674436D01*
X1755262Y674436D01*
X1689223Y674436D01*
X1689222Y674436D01*
X1687722Y674436D01*
X1686741Y674307D01*
X1685754Y674242D01*
X1682809Y673657D01*
X1681873Y673339D01*
X1680917Y673083D01*
X1678144Y671934D01*
X1677287Y671440D01*
X1676400Y671002D01*
X1673904Y669334D01*
X1673160Y668682D01*
X1672375Y668080D01*
X1670253Y665957D01*
X1669650Y665172D01*
X1668998Y664429D01*
X1667330Y661933D01*
X1666893Y661046D01*
X1666398Y660189D01*
X1665250Y657415D01*
X1664994Y656460D01*
X1664676Y655523D01*
X1664090Y652579D01*
X1664025Y651591D01*
X1663896Y650611D01*
X1663896Y649110D01*
X1663896Y645549D01*
X1663896Y645542D01*
X1663846Y645293D01*
X1663844Y645288D01*
X1663842Y645284D01*
X1663838Y645281D01*
X1663834Y645278D01*
X1663830Y645276D01*
X1663580Y645226D01*
X1663575Y645226D01*
X1444112Y645226D01*
X1444112Y645226D01*
X1441282Y645226D01*
X1440627Y645140D01*
X1439966D01*
X1434354Y644401D01*
X1433715Y644230D01*
X1433060Y644144D01*
X1427592Y642679D01*
X1426982Y642426D01*
X1426343Y642255D01*
X1421113Y640089D01*
X1420541Y639758D01*
X1419930Y639505D01*
X1415028Y636675D01*
X1414504Y636272D01*
X1413931Y635942D01*
X1409441Y632496D01*
X1408973Y632029D01*
X1408449Y631626D01*
X1404446Y627624D01*
X1404044Y627099D01*
X1403576Y626632D01*
X1400130Y622141D01*
X1399800Y621569D01*
X1399397Y621044D01*
X1396567Y616142D01*
X1396314Y615531D01*
X1395984Y614959D01*
X1393818Y609729D01*
X1393647Y609091D01*
X1393394Y608480D01*
X1391929Y603013D01*
X1391842Y602357D01*
X1391671Y601719D01*
X1390932Y596107D01*
Y595446D01*
X1390846Y594790D01*
X1390846Y591960D01*
X1390846Y445820D01*
X1384700D01*
X1382704Y446887D01*
X1378934Y448031D01*
X1375013Y448417D01*
X1371092Y448031D01*
X1367322Y446887D01*
X1365326Y445820D01*
X1357513D01*
Y438007D01*
X1356446Y436011D01*
X1355302Y432241D01*
X1354916Y428320D01*
Y402920D01*
Y377520D01*
X1355302Y373599D01*
X1356446Y369829D01*
X1358303Y366355D01*
X1360802Y363309D01*
X1363848Y360810D01*
X1367322Y358953D01*
X1371092Y357809D01*
X1375013Y357423D01*
X1378934Y357809D01*
X1382704Y358953D01*
X1386178Y360810D01*
X1389224Y363309D01*
X1391723Y366355D01*
X1393580Y369829D01*
X1394724Y373599D01*
X1395110Y377520D01*
Y399110D01*
X1396380Y399363D01*
X1396412Y399285D01*
X1399142Y394557D01*
X1399544Y394032D01*
X1399875Y393460D01*
X1403198Y389128D01*
X1403666Y388661D01*
X1404068Y388136D01*
X1407929Y384276D01*
X1408453Y383873D01*
X1408921Y383406D01*
X1413252Y380083D01*
X1413601Y379881D01*
X1413551Y379232D01*
X1413226Y378611D01*
X1412783D01*
X1409128Y378130D01*
X1405723Y376719D01*
X1402798Y374475D01*
X1383144Y354821D01*
X1378923Y350915D01*
X1375484Y348087D01*
X1374328Y347258D01*
X1373472Y346723D01*
X1373330Y346651D01*
X1371092Y346431D01*
X1367322Y345287D01*
X1365326Y344220D01*
X1357513D01*
Y336407D01*
X1356446Y334411D01*
X1355302Y330641D01*
X1354916Y326720D01*
Y301320D01*
Y275920D01*
X1355302Y271999D01*
X1356446Y268229D01*
X1358303Y264755D01*
X1360802Y261709D01*
X1363848Y259210D01*
X1367322Y257353D01*
X1371092Y256209D01*
X1375013Y255823D01*
X1378934Y256209D01*
X1382704Y257353D01*
X1386178Y259210D01*
X1389224Y261709D01*
X1391723Y264755D01*
X1393580Y268229D01*
X1394724Y271999D01*
X1395110Y275920D01*
Y301320D01*
Y325329D01*
X1395551Y326035D01*
X1396285Y327059D01*
X1403234Y334971D01*
X1418632Y350369D01*
X1460514D01*
X1460572Y350367D01*
X1461336Y350282D01*
X1462033Y350149D01*
X1462677Y349972D01*
X1463284Y349749D01*
X1463871Y349477D01*
X1464452Y349147D01*
X1465039Y348749D01*
X1465639Y348268D01*
X1465681Y348229D01*
X1474981Y338929D01*
X1475942Y337842D01*
X1476403Y337262D01*
Y324100D01*
X1476523Y323182D01*
Y290600D01*
X1488911D01*
X1488911Y231140D01*
X1488911Y227478D01*
X1488997Y226822D01*
Y226161D01*
X1489953Y218899D01*
X1490124Y218260D01*
X1490210Y217605D01*
X1492106Y210529D01*
X1492359Y209918D01*
X1492530Y209280D01*
X1495333Y202512D01*
X1495664Y201940D01*
X1495917Y201329D01*
X1499579Y194985D01*
X1499982Y194461D01*
X1500312Y193888D01*
X1504772Y188077D01*
X1505239Y187609D01*
X1505641Y187085D01*
X1509920Y182806D01*
X1509394Y181536D01*
X1497727D01*
X1496101Y181536D01*
X1495120Y181407D01*
X1494133Y181342D01*
X1490943Y180708D01*
X1490007Y180390D01*
X1489051Y180134D01*
X1486047Y178889D01*
X1485190Y178395D01*
X1484303Y177957D01*
X1481599Y176150D01*
X1480855Y175498D01*
X1480070Y174896D01*
X1477771Y172596D01*
X1477168Y171812D01*
X1476516Y171068D01*
X1474709Y168364D01*
X1474272Y167477D01*
X1473777Y166620D01*
X1472533Y163615D01*
X1472277Y162660D01*
X1471959Y161723D01*
X1471324Y158534D01*
X1471260Y157547D01*
X1471131Y156566D01*
X1471131Y154940D01*
X1471131Y154940D01*
X1471131Y-11430D01*
X1471131Y-13431D01*
X1471260Y-14412D01*
X1471324Y-15399D01*
X1472105Y-19325D01*
X1472423Y-20262D01*
X1472679Y-21217D01*
X1474211Y-24915D01*
X1474706Y-25772D01*
X1475143Y-26659D01*
X1477367Y-29987D01*
X1478019Y-30731D01*
X1478621Y-31515D01*
X1481452Y-34346D01*
X1482236Y-34948D01*
X1482980Y-35600D01*
X1486308Y-37824D01*
X1487195Y-38261D01*
X1488052Y-38756D01*
X1491750Y-40288D01*
X1492705Y-40544D01*
X1493642Y-40862D01*
X1497568Y-41642D01*
X1498555Y-41707D01*
X1499536Y-41836D01*
X1501537Y-41836D01*
X1670447Y-41836D01*
X1751727Y-41836D01*
X1754141D01*
X1754796Y-41750D01*
X1755457D01*
X1760244Y-41120D01*
X1760883Y-40949D01*
X1761538Y-40862D01*
X1766201Y-39613D01*
X1766812Y-39360D01*
X1767451Y-39189D01*
X1771911Y-37341D01*
X1772484Y-37011D01*
X1773094Y-36758D01*
X1777276Y-34344D01*
X1777800Y-33941D01*
X1778373Y-33611D01*
X1782203Y-30672D01*
X1782670Y-30204D01*
X1783195Y-29802D01*
X1786609Y-26388D01*
X1787011Y-25863D01*
X1787478Y-25396D01*
X1790418Y-21566D01*
X1790748Y-20993D01*
X1791151Y-20469D01*
X1793565Y-16288D01*
X1793818Y-15677D01*
X1794148Y-15104D01*
X1795996Y-10644D01*
X1796167Y-10005D01*
X1796420Y-9395D01*
X1797669Y-4731D01*
X1797756Y-4076D01*
X1797927Y-3437D01*
X1798557Y1349D01*
Y2011D01*
X1798643Y2666D01*
Y5080D01*
X1798643Y5080D01*
X1798643Y114300D01*
Y116547D01*
X1798557Y117203D01*
Y117864D01*
X1797970Y122321D01*
X1797799Y122959D01*
X1797713Y123615D01*
X1796550Y127956D01*
X1796297Y128567D01*
X1796125Y129206D01*
X1794405Y133358D01*
X1794075Y133931D01*
X1793822Y134542D01*
X1791574Y138435D01*
X1791172Y138959D01*
X1790841Y139531D01*
X1788105Y143098D01*
X1787637Y143565D01*
X1787235Y144090D01*
X1784057Y147268D01*
X1783532Y147671D01*
X1783065Y148138D01*
X1779498Y150874D01*
X1778926Y151205D01*
X1778401Y151607D01*
X1774509Y153855D01*
X1773898Y154108D01*
X1773325Y154438D01*
X1769173Y156158D01*
X1768534Y156329D01*
X1767923Y156582D01*
X1763581Y157746D01*
X1762926Y157832D01*
X1762287Y158003D01*
X1757831Y158590D01*
X1757170D01*
X1756514Y158676D01*
X1754267Y158676D01*
X1754267Y158676D01*
X1739350D01*
X1738545Y159658D01*
X1738759Y160737D01*
X1738824Y161724D01*
X1738953Y162704D01*
X1738953Y163580D01*
X1738960Y163712D01*
X1739058Y164206D01*
X1739155Y164440D01*
X1739296Y164651D01*
X1739476Y164831D01*
X1739687Y164972D01*
X1739921Y165069D01*
X1740415Y165167D01*
X1740546Y165174D01*
X1851035D01*
X1856092Y165174D01*
X1856464Y165223D01*
X1856838Y165201D01*
X1866924Y165949D01*
X1867291Y166025D01*
X1867666Y166031D01*
X1877670Y167522D01*
X1878030Y167625D01*
X1878403Y167659D01*
X1881233Y168298D01*
X1881846Y167186D01*
X1852761Y138101D01*
X1850877Y135805D01*
X1849476Y133185D01*
X1848614Y130342D01*
X1848323Y127386D01*
X1848323Y127386D01*
Y-13217D01*
X1848315Y-13264D01*
X1848158Y-18042D01*
X1848078Y-18937D01*
X1847798Y-20864D01*
X1847698Y-21322D01*
X1847602Y-21663D01*
X1847567Y-21759D01*
X1847408Y-22100D01*
X1847339Y-22317D01*
X1847230Y-22521D01*
X1846996Y-23292D01*
X1846799Y-23767D01*
X1846759Y-24074D01*
X1846229Y-25819D01*
X1845891Y-29250D01*
Y-34250D01*
X1846229Y-37681D01*
X1847230Y-40979D01*
X1848375Y-43122D01*
X1847614Y-44392D01*
X1245579D01*
Y-11750D01*
X1210579D01*
Y-12394D01*
X1209636Y-12960D01*
X1209309Y-12974D01*
X1206110Y-12003D01*
X1202679Y-11665D01*
X1199248Y-12003D01*
X1195950Y-13004D01*
X1192909Y-14629D01*
X1190909Y-16271D01*
X1189979Y-16695D01*
X1189049Y-16271D01*
X1187048Y-14629D01*
X1184008Y-13004D01*
X1180710Y-12003D01*
X1177279Y-11665D01*
X1173848Y-12003D01*
X1170550Y-13004D01*
X1167510Y-14629D01*
X1164845Y-16816D01*
X1162658Y-19481D01*
X1161033Y-22521D01*
X1160032Y-25819D01*
X1159694Y-29250D01*
Y-34250D01*
X1160032Y-37681D01*
X1161033Y-40979D01*
X1162178Y-43122D01*
X1161417Y-44392D01*
X563589D01*
Y-11750D01*
X528589D01*
Y-12394D01*
X527646Y-12960D01*
X527319Y-12974D01*
X524120Y-12003D01*
X520689Y-11665D01*
X517258Y-12003D01*
X513960Y-13004D01*
X510919Y-14629D01*
X508919Y-16271D01*
X507989Y-16695D01*
X507059Y-16271D01*
X505059Y-14629D01*
X502018Y-13004D01*
X498720Y-12003D01*
X495289Y-11665D01*
X491858Y-12003D01*
X488560Y-13004D01*
X485519Y-14629D01*
X482855Y-16816D01*
X480668Y-19481D01*
X479043Y-22521D01*
X478042Y-25819D01*
X477704Y-29250D01*
Y-34250D01*
X478042Y-37681D01*
X479043Y-40979D01*
X480188Y-43122D01*
X479427Y-44392D01*
X-37911D01*
Y50000D01*
X-37911Y50000D01*
X-37911D01*
X-37924Y50101D01*
X-38317Y58096D01*
X-39507Y66114D01*
X-41476Y73977D01*
X-44207Y81609D01*
X-47673Y88937D01*
X-51840Y95890D01*
X-56669Y102401D01*
X-62112Y108407D01*
X-68118Y113850D01*
X-74629Y118679D01*
X-81582Y122846D01*
X-88910Y126312D01*
X-96542Y129043D01*
X-104405Y131012D01*
X-112423Y132202D01*
X-120418Y132594D01*
X-120519Y132608D01*
Y132608D01*
X-120519Y132608D01*
X-124911D01*
Y493000D01*
Y853392D01*
X-120519D01*
X-120417Y853406D01*
X-112423Y853798D01*
X-104405Y854988D01*
X-96542Y856957D01*
X-88910Y859688D01*
X-81582Y863154D01*
X-74629Y867321D01*
X-68118Y872150D01*
X-62112Y877593D01*
X-56669Y883599D01*
X-51840Y890110D01*
X-47673Y897063D01*
X-44207Y904390D01*
X-41476Y912023D01*
X-39507Y919886D01*
X-38317Y927904D01*
X-37924Y935899D01*
X-37911Y936000D01*
X-37911D01*
X-37911Y936000D01*
Y959553D01*
X-36696Y959921D01*
X-35777Y958547D01*
X-31888Y954112D01*
X-27453Y950222D01*
X-22548Y946945D01*
X-17258Y944336D01*
X-11672Y942440D01*
X-5886Y941289D01*
X0Y940903D01*
X5886Y941289D01*
X11672Y942440D01*
X17258Y944336D01*
X22548Y946945D01*
X27453Y950222D01*
X31888Y954112D01*
X35777Y958547D01*
X39055Y963452D01*
X41664Y968742D01*
X43560Y974328D01*
X44711Y980114D01*
X45097Y986000D01*
X44711Y991886D01*
X43560Y997672D01*
X41664Y1003258D01*
X39055Y1008548D01*
X35777Y1013453D01*
X31888Y1017888D01*
X27453Y1021777D01*
X22548Y1025055D01*
X17258Y1027664D01*
X12962Y1029122D01*
X13171Y1030392D01*
X429329D01*
X429538Y1029122D01*
X425242Y1027664D01*
X419952Y1025055D01*
X415047Y1021777D01*
X410612Y1017888D01*
X406722Y1013453D01*
X403445Y1008548D01*
X400836Y1003258D01*
X398940Y997672D01*
X397789Y991886D01*
X397403Y986000D01*
X397789Y980114D01*
X398940Y974328D01*
X400836Y968742D01*
X403445Y963452D01*
X406722Y958547D01*
X410612Y954112D01*
X415047Y950222D01*
X419952Y946945D01*
X425242Y944336D01*
X430828Y942440D01*
X436614Y941289D01*
X442500Y940903D01*
X448386Y941289D01*
X454172Y942440D01*
X459758Y944336D01*
X465048Y946945D01*
X469953Y950222D01*
X474388Y954112D01*
X478278Y958547D01*
X481555Y963452D01*
X484164Y968742D01*
X486060Y974328D01*
X487211Y980114D01*
X487597Y986000D01*
X487211Y991886D01*
X486060Y997672D01*
X484164Y1003258D01*
X481555Y1008548D01*
X478278Y1013453D01*
X474388Y1017888D01*
X469953Y1021777D01*
X465048Y1025055D01*
X459758Y1027664D01*
X455462Y1029122D01*
X455671Y1030392D01*
X629329D01*
X629538Y1029122D01*
X625242Y1027664D01*
X619952Y1025055D01*
X615047Y1021777D01*
X610612Y1017888D01*
X606722Y1013453D01*
X603445Y1008548D01*
X600836Y1003258D01*
X598940Y997672D01*
X597789Y991886D01*
X597403Y986000D01*
X597789Y980114D01*
X598940Y974328D01*
X600836Y968742D01*
X603445Y963452D01*
X606722Y958547D01*
X610612Y954112D01*
X615047Y950222D01*
X619952Y946945D01*
X625242Y944336D01*
X630828Y942440D01*
X636614Y941289D01*
X642500Y940903D01*
X648386Y941289D01*
X654172Y942440D01*
X659758Y944336D01*
X665048Y946945D01*
X669953Y950222D01*
X674388Y954112D01*
X678278Y958547D01*
X681555Y963452D01*
X684164Y968742D01*
X686060Y974328D01*
X687094Y979525D01*
X688364Y979400D01*
Y848295D01*
X688707Y845685D01*
X689715Y843252D01*
X691318Y841163D01*
X693407Y839560D01*
X695839Y838553D01*
X698450Y838209D01*
X858470D01*
X861080Y838553D01*
X863513Y839560D01*
X865602Y841163D01*
X867205Y843252D01*
X868213Y845685D01*
X868556Y848295D01*
Y852851D01*
X869826Y853437D01*
X873444Y850347D01*
X878141Y847468D01*
X883231Y845360D01*
X887217Y844403D01*
Y843097D01*
X883231Y842140D01*
X878141Y840032D01*
X873444Y837153D01*
X869255Y833575D01*
X865677Y829386D01*
X862798Y824689D01*
X860690Y819599D01*
X859404Y814242D01*
X858972Y808750D01*
Y778750D01*
X859404Y773258D01*
X860690Y767901D01*
X862798Y762811D01*
X865677Y758114D01*
X869255Y753925D01*
X873444Y750347D01*
X878141Y747468D01*
X883231Y745360D01*
X888588Y744074D01*
X894080Y743642D01*
X899572Y744074D01*
X904929Y745360D01*
X910019Y747468D01*
X914716Y750347D01*
X918905Y753925D01*
X922483Y758114D01*
X925362Y762811D01*
X927470Y767901D01*
X928756Y773258D01*
X929188Y778750D01*
Y808750D01*
X928756Y814242D01*
X927470Y819599D01*
X925362Y824689D01*
X922483Y829386D01*
X918905Y833575D01*
X914716Y837153D01*
X910019Y840032D01*
X904929Y842140D01*
X900943Y843097D01*
Y844403D01*
X904929Y845360D01*
X910019Y847468D01*
X914716Y850347D01*
X918905Y853925D01*
X922483Y858114D01*
X925362Y862811D01*
X927470Y867901D01*
X928756Y873258D01*
X929188Y878750D01*
Y908750D01*
X928756Y914242D01*
X927470Y919599D01*
X925362Y924689D01*
X922483Y929386D01*
X918905Y933575D01*
X914716Y937153D01*
X910019Y940032D01*
X904929Y942140D01*
X899572Y943426D01*
X894080Y943858D01*
X888588Y943426D01*
X883231Y942140D01*
X878141Y940032D01*
X873444Y937153D01*
X869826Y934063D01*
X868556Y934649D01*
Y1017205D01*
X868213Y1019816D01*
X867205Y1022249D01*
X865602Y1024337D01*
X863513Y1025940D01*
X861080Y1026948D01*
X858470Y1027292D01*
X698450D01*
X695839Y1026948D01*
X693407Y1025940D01*
X691318Y1024337D01*
X689715Y1022249D01*
X688707Y1019816D01*
X688364Y1017205D01*
Y992600D01*
X687094Y992475D01*
X686060Y997672D01*
X684164Y1003258D01*
X681555Y1008548D01*
X678278Y1013453D01*
X674388Y1017888D01*
X669953Y1021777D01*
X665048Y1025055D01*
X659758Y1027664D01*
X655462Y1029122D01*
X655671Y1030392D01*
X1369329D01*
X1369538Y1029122D01*
X1365242Y1027664D01*
X1359952Y1025055D01*
X1355047Y1021777D01*
X1350612Y1017888D01*
X1346723Y1013453D01*
X1343445Y1008548D01*
X1340836Y1003258D01*
X1338940Y997672D01*
X1337789Y991886D01*
X1337403Y986000D01*
X1337789Y980114D01*
X1338940Y974328D01*
X1340836Y968742D01*
X1343445Y963452D01*
X1346723Y958547D01*
X1350612Y954112D01*
X1355047Y950222D01*
X1359952Y946945D01*
X1365242Y944336D01*
X1370828Y942440D01*
X1376614Y941289D01*
X1382500Y940903D01*
X1388386Y941289D01*
X1394172Y942440D01*
X1399758Y944336D01*
X1405048Y946945D01*
X1409953Y950222D01*
X1414388Y954112D01*
X1418277Y958547D01*
X1421555Y963452D01*
X1424164Y968742D01*
X1426060Y974328D01*
X1427211Y980114D01*
X1427597Y986000D01*
X1427211Y991886D01*
X1426060Y997672D01*
X1424164Y1003258D01*
X1421555Y1008548D01*
X1418277Y1013453D01*
X1414388Y1017888D01*
X1409953Y1021777D01*
X1405048Y1025055D01*
X1399758Y1027664D01*
X1395462Y1029122D01*
X1395671Y1030392D01*
X1569329D01*
X1569538Y1029122D01*
X1565242Y1027664D01*
X1559952Y1025055D01*
X1555047Y1021777D01*
X1550612Y1017888D01*
X1546723Y1013453D01*
X1543445Y1008548D01*
X1540836Y1003258D01*
X1538940Y997672D01*
X1537789Y991886D01*
X1537404Y986000D01*
X1537789Y980114D01*
X1538940Y974328D01*
X1540836Y968742D01*
X1543445Y963452D01*
X1546723Y958547D01*
X1550612Y954112D01*
X1555047Y950222D01*
X1559952Y946945D01*
X1565242Y944336D01*
X1570828Y942440D01*
X1576614Y941289D01*
X1582500Y940903D01*
X1588386Y941289D01*
X1594172Y942440D01*
X1599758Y944336D01*
X1605048Y946945D01*
X1609953Y950222D01*
X1614388Y954112D01*
X1618277Y958547D01*
X1621555Y963452D01*
X1624164Y968742D01*
X1626060Y974328D01*
X1627211Y980114D01*
X1627597Y986000D01*
X1627211Y991886D01*
X1626060Y997672D01*
X1624164Y1003258D01*
X1621555Y1008548D01*
X1618277Y1013453D01*
X1614388Y1017888D01*
X1609953Y1021777D01*
X1605048Y1025055D01*
X1599758Y1027664D01*
X1595462Y1029122D01*
X1595671Y1030392D01*
X1769329D01*
X1769538Y1029122D01*
X1765242Y1027664D01*
X1759952Y1025055D01*
X1755047Y1021777D01*
X1750612Y1017888D01*
X1746723Y1013453D01*
X1743445Y1008548D01*
X1740836Y1003258D01*
X1738940Y997672D01*
X1737789Y991886D01*
X1737403Y986000D01*
X1737789Y980114D01*
X1738940Y974328D01*
X1740836Y968742D01*
X1743445Y963452D01*
X1746723Y958547D01*
X1750612Y954112D01*
X1755047Y950222D01*
X1759952Y946945D01*
X1765242Y944336D01*
X1770828Y942440D01*
X1776614Y941289D01*
X1782500Y940903D01*
X1788386Y941289D01*
X1794172Y942440D01*
X1799758Y944336D01*
X1805048Y946945D01*
X1809953Y950222D01*
X1814388Y954112D01*
X1818277Y958547D01*
X1821555Y963452D01*
X1824164Y968742D01*
X1826060Y974328D01*
X1827211Y980114D01*
X1827596Y986000D01*
X1827211Y991886D01*
X1826060Y997672D01*
X1824164Y1003258D01*
X1821555Y1008548D01*
X1818277Y1013453D01*
X1814388Y1017888D01*
X1809953Y1021777D01*
X1805048Y1025055D01*
X1799758Y1027664D01*
X1795462Y1029122D01*
X1795671Y1030392D01*
X2011829D01*
X2012038Y1029122D01*
D02*
G37*
%LPC*%
G36*
X1495820Y882925D02*
X1465820D01*
X1462389Y882587D01*
X1459091Y881586D01*
X1456051Y879961D01*
X1453386Y877774D01*
X1451199Y875109D01*
X1449574Y872069D01*
X1448573Y868771D01*
X1448235Y865340D01*
X1448573Y861909D01*
X1449574Y858611D01*
X1451199Y855571D01*
X1453386Y852906D01*
X1456051Y850719D01*
X1459091Y849094D01*
X1462389Y848093D01*
X1465820Y847755D01*
X1495820D01*
X1499251Y848093D01*
X1502549Y849094D01*
X1505589Y850719D01*
X1508254Y852906D01*
X1510441Y855571D01*
X1512066Y858611D01*
X1513067Y861909D01*
X1513405Y865340D01*
X1513067Y868771D01*
X1512066Y872069D01*
X1510441Y875109D01*
X1508254Y877774D01*
X1505589Y879961D01*
X1502549Y881586D01*
X1499251Y882587D01*
X1495820Y882925D01*
D02*
G37*
G36*
X86360Y915419D02*
X81949Y914985D01*
X77708Y913698D01*
X73799Y911609D01*
X70373Y908797D01*
X67561Y905371D01*
X65472Y901462D01*
X64186Y897221D01*
X63751Y892810D01*
X64186Y888399D01*
X65472Y884158D01*
X67561Y880249D01*
X70373Y876823D01*
X73799Y874011D01*
X77708Y871922D01*
X81949Y870636D01*
X86360Y870201D01*
X90771Y870636D01*
X95012Y871922D01*
X98921Y874011D01*
X102347Y876823D01*
X105159Y880249D01*
X107248Y884158D01*
X108534Y888399D01*
X108969Y892810D01*
X108534Y897221D01*
X107248Y901462D01*
X105159Y905371D01*
X102347Y908797D01*
X98921Y911609D01*
X95012Y913698D01*
X90771Y914985D01*
X86360Y915419D01*
D02*
G37*
G36*
X1631950Y876877D02*
X1628029Y876491D01*
X1624259Y875347D01*
X1620785Y873490D01*
X1617739Y870991D01*
X1615240Y867945D01*
X1613383Y864471D01*
X1612239Y860701D01*
X1611853Y856780D01*
X1612239Y852859D01*
X1613383Y849089D01*
X1615240Y845615D01*
X1617739Y842569D01*
X1620785Y840070D01*
X1624259Y838213D01*
X1628029Y837069D01*
X1631950Y836683D01*
X1635871Y837069D01*
X1639641Y838213D01*
X1643115Y840070D01*
X1646161Y842569D01*
X1648660Y845615D01*
X1650517Y849089D01*
X1651661Y852859D01*
X1652047Y856780D01*
X1651661Y860701D01*
X1650517Y864471D01*
X1648660Y867945D01*
X1646161Y870991D01*
X1643115Y873490D01*
X1639641Y875347D01*
X1635871Y876491D01*
X1631950Y876877D01*
D02*
G37*
G36*
X1107440Y957345D02*
X1104009Y957007D01*
X1100711Y956006D01*
X1097671Y954381D01*
X1095670Y952739D01*
X1094740Y952315D01*
X1093810Y952739D01*
X1091809Y954381D01*
X1088769Y956006D01*
X1085471Y957007D01*
X1082040Y957345D01*
X1078609Y957007D01*
X1075410Y956036D01*
X1075083Y956050D01*
X1074140Y956616D01*
Y957260D01*
X1039140D01*
Y927714D01*
X1039084Y927290D01*
X1039112Y927081D01*
X1039093Y926871D01*
X1039140Y926600D01*
Y917260D01*
X1041471D01*
X1041475Y917006D01*
X1041487Y916919D01*
Y862330D01*
X1041487Y862330D01*
X1041778Y859374D01*
X1042641Y856531D01*
X1044041Y853911D01*
X1045925Y851615D01*
X1082755Y814785D01*
X1082755Y814785D01*
X1085051Y812901D01*
X1087671Y811500D01*
X1090514Y810638D01*
X1093470Y810347D01*
X1093470Y810347D01*
X1097020D01*
X1097116Y810334D01*
X1097754Y810330D01*
X1098243Y809929D01*
X1101304Y808292D01*
X1104626Y807285D01*
X1108080Y806945D01*
X1111534Y807285D01*
X1114855Y808292D01*
X1117916Y809929D01*
X1120600Y812131D01*
X1122801Y814814D01*
X1124438Y817875D01*
X1125445Y821196D01*
X1125785Y824650D01*
X1125445Y828104D01*
X1124438Y831425D01*
X1122955Y834200D01*
X1124438Y836974D01*
X1125445Y840296D01*
X1125785Y843750D01*
X1125445Y847204D01*
X1124438Y850526D01*
X1122955Y853300D01*
X1124438Y856075D01*
X1125445Y859396D01*
X1125785Y862850D01*
X1125445Y866304D01*
X1124438Y869625D01*
X1122801Y872686D01*
X1120600Y875369D01*
X1117916Y877571D01*
X1114855Y879208D01*
X1111534Y880215D01*
X1108080Y880555D01*
X1104626Y880215D01*
X1101304Y879208D01*
X1098243Y877571D01*
X1095561Y875369D01*
X1093359Y872686D01*
X1091722Y869625D01*
X1090715Y866304D01*
X1090375Y862850D01*
X1090715Y859396D01*
X1091722Y856075D01*
X1093205Y853300D01*
X1091722Y850526D01*
X1091651Y850289D01*
X1090419Y849981D01*
X1071793Y868607D01*
Y916919D01*
X1071805Y917006D01*
X1071809Y917260D01*
X1074140D01*
Y917904D01*
X1075083Y918470D01*
X1075410Y918484D01*
X1078609Y917513D01*
X1082040Y917175D01*
X1085471Y917513D01*
X1088769Y918514D01*
X1091809Y920139D01*
X1093810Y921781D01*
X1094740Y922205D01*
X1095670Y921781D01*
X1097671Y920139D01*
X1100711Y918514D01*
X1104009Y917513D01*
X1107440Y917175D01*
X1110871Y917513D01*
X1114169Y918514D01*
X1117209Y920139D01*
X1119874Y922326D01*
X1122061Y924990D01*
X1123686Y928031D01*
X1124687Y931329D01*
X1125025Y934760D01*
Y939760D01*
X1124687Y943191D01*
X1123686Y946489D01*
X1122061Y949529D01*
X1119874Y952194D01*
X1117209Y954381D01*
X1114169Y956006D01*
X1110871Y957007D01*
X1107440Y957345D01*
D02*
G37*
G36*
X-77500Y338097D02*
X-83386Y337711D01*
X-89172Y336560D01*
X-94758Y334664D01*
X-100048Y332055D01*
X-104953Y328778D01*
X-109388Y324888D01*
X-113278Y320453D01*
X-116555Y315548D01*
X-119164Y310258D01*
X-121060Y304672D01*
X-122211Y298886D01*
X-122597Y293000D01*
X-122211Y287114D01*
X-121060Y281328D01*
X-119164Y275742D01*
X-116555Y270452D01*
X-113278Y265547D01*
X-109388Y261112D01*
X-104953Y257222D01*
X-100048Y253945D01*
X-94758Y251336D01*
X-89172Y249440D01*
X-83386Y248289D01*
X-77500Y247903D01*
X-71614Y248289D01*
X-65828Y249440D01*
X-60242Y251336D01*
X-54952Y253945D01*
X-50047Y257222D01*
X-45612Y261112D01*
X-41722Y265547D01*
X-38445Y270452D01*
X-35836Y275742D01*
X-33940Y281328D01*
X-32789Y287114D01*
X-32403Y293000D01*
X-32789Y298886D01*
X-33940Y304672D01*
X-35836Y310258D01*
X-38445Y315548D01*
X-41722Y320453D01*
X-45612Y324888D01*
X-50047Y328778D01*
X-54952Y332055D01*
X-60242Y334664D01*
X-65828Y336560D01*
X-71614Y337711D01*
X-77500Y338097D01*
D02*
G37*
G36*
X2102500D02*
X2096614Y337711D01*
X2090828Y336560D01*
X2085242Y334664D01*
X2079952Y332055D01*
X2075047Y328778D01*
X2070612Y324888D01*
X2066723Y320453D01*
X2063445Y315548D01*
X2060836Y310258D01*
X2058940Y304672D01*
X2057789Y298886D01*
X2057404Y293000D01*
X2057789Y287114D01*
X2058940Y281328D01*
X2060836Y275742D01*
X2063445Y270452D01*
X2066723Y265547D01*
X2070612Y261112D01*
X2075047Y257222D01*
X2079952Y253945D01*
X2085242Y251336D01*
X2090828Y249440D01*
X2096614Y248289D01*
X2102500Y247903D01*
X2108386Y248289D01*
X2114172Y249440D01*
X2119758Y251336D01*
X2125048Y253945D01*
X2129953Y257222D01*
X2134388Y261112D01*
X2138277Y265547D01*
X2141555Y270452D01*
X2144164Y275742D01*
X2146060Y281328D01*
X2147211Y287114D01*
X2147597Y293000D01*
X2147211Y298886D01*
X2146060Y304672D01*
X2144164Y310258D01*
X2141555Y315548D01*
X2138277Y320453D01*
X2134388Y324888D01*
X2129953Y328778D01*
X2125048Y332055D01*
X2119758Y334664D01*
X2114172Y336560D01*
X2108386Y337711D01*
X2102500Y338097D01*
D02*
G37*
G36*
X1495820Y934525D02*
X1465820D01*
X1462389Y934187D01*
X1459091Y933186D01*
X1456051Y931561D01*
X1453386Y929374D01*
X1451199Y926710D01*
X1449574Y923669D01*
X1448573Y920371D01*
X1448235Y916940D01*
X1448573Y913509D01*
X1449574Y910211D01*
X1451199Y907170D01*
X1453386Y904506D01*
X1456051Y902319D01*
X1459091Y900694D01*
X1462389Y899693D01*
X1465820Y899355D01*
X1495820D01*
X1499251Y899693D01*
X1502549Y900694D01*
X1505589Y902319D01*
X1508254Y904506D01*
X1510441Y907170D01*
X1512066Y910211D01*
X1513067Y913509D01*
X1513405Y916940D01*
X1513067Y920371D01*
X1512066Y923669D01*
X1510441Y926710D01*
X1508254Y929374D01*
X1505589Y931561D01*
X1502549Y933186D01*
X1499251Y934187D01*
X1495820Y934525D01*
D02*
G37*
G36*
X86360Y991619D02*
X81949Y991184D01*
X77708Y989898D01*
X73799Y987809D01*
X70373Y984997D01*
X67561Y981571D01*
X65472Y977662D01*
X64186Y973421D01*
X63751Y969010D01*
X64186Y964599D01*
X65472Y960358D01*
X67561Y956449D01*
X70373Y953023D01*
X73799Y950211D01*
X77708Y948122D01*
X81949Y946835D01*
X86360Y946401D01*
X90771Y946835D01*
X95012Y948122D01*
X98921Y950211D01*
X102347Y953023D01*
X105159Y956449D01*
X107248Y960358D01*
X108534Y964599D01*
X108969Y969010D01*
X108534Y973421D01*
X107248Y977662D01*
X105159Y981571D01*
X102347Y984997D01*
X98921Y987809D01*
X95012Y989898D01*
X90771Y991184D01*
X86360Y991619D01*
D02*
G37*
G36*
X2102500Y738097D02*
X2096614Y737711D01*
X2090828Y736560D01*
X2085242Y734664D01*
X2079952Y732055D01*
X2075047Y728777D01*
X2070612Y724888D01*
X2066723Y720453D01*
X2063445Y715548D01*
X2060836Y710258D01*
X2058940Y704672D01*
X2057789Y698886D01*
X2057404Y693000D01*
X2057789Y687114D01*
X2058940Y681328D01*
X2060836Y675742D01*
X2063445Y670452D01*
X2066723Y665547D01*
X2070612Y661112D01*
X2075047Y657223D01*
X2079952Y653945D01*
X2085242Y651336D01*
X2090828Y649440D01*
X2096614Y648289D01*
X2102500Y647904D01*
X2108386Y648289D01*
X2114172Y649440D01*
X2119758Y651336D01*
X2125048Y653945D01*
X2129953Y657223D01*
X2134388Y661112D01*
X2138277Y665547D01*
X2141555Y670452D01*
X2144164Y675742D01*
X2146060Y681328D01*
X2147211Y687114D01*
X2147597Y693000D01*
X2147211Y698886D01*
X2146060Y704672D01*
X2144164Y710258D01*
X2141555Y715548D01*
X2138277Y720453D01*
X2134388Y724888D01*
X2129953Y728777D01*
X2125048Y732055D01*
X2119758Y734664D01*
X2114172Y736560D01*
X2108386Y737711D01*
X2102500Y738097D01*
D02*
G37*
G36*
X-77500D02*
X-83386Y737711D01*
X-89172Y736560D01*
X-94758Y734664D01*
X-100048Y732055D01*
X-104953Y728777D01*
X-109388Y724888D01*
X-113278Y720453D01*
X-116555Y715548D01*
X-119164Y710258D01*
X-121060Y704672D01*
X-122211Y698886D01*
X-122597Y693000D01*
X-122211Y687114D01*
X-121060Y681328D01*
X-119164Y675742D01*
X-116555Y670452D01*
X-113278Y665547D01*
X-109388Y661112D01*
X-104953Y657223D01*
X-100048Y653945D01*
X-94758Y651336D01*
X-89172Y649440D01*
X-83386Y648289D01*
X-77500Y647904D01*
X-71614Y648289D01*
X-65828Y649440D01*
X-60242Y651336D01*
X-54952Y653945D01*
X-50047Y657223D01*
X-45612Y661112D01*
X-41722Y665547D01*
X-38445Y670452D01*
X-35836Y675742D01*
X-33940Y681328D01*
X-32789Y687114D01*
X-32403Y693000D01*
X-32789Y698886D01*
X-33940Y704672D01*
X-35836Y710258D01*
X-38445Y715548D01*
X-41722Y720453D01*
X-45612Y724888D01*
X-50047Y728777D01*
X-54952Y732055D01*
X-60242Y734664D01*
X-65828Y736560D01*
X-71614Y737711D01*
X-77500Y738097D01*
D02*
G37*
G36*
X1495820Y831325D02*
X1465820D01*
X1462389Y830987D01*
X1459091Y829986D01*
X1456051Y828361D01*
X1453386Y826174D01*
X1451199Y823510D01*
X1449574Y820469D01*
X1448573Y817171D01*
X1448235Y813740D01*
X1448573Y810309D01*
X1449574Y807011D01*
X1451199Y803970D01*
X1453386Y801306D01*
X1456051Y799119D01*
X1459091Y797494D01*
X1462389Y796493D01*
X1465820Y796155D01*
X1495820D01*
X1499251Y796493D01*
X1502549Y797494D01*
X1505589Y799119D01*
X1508254Y801306D01*
X1510441Y803970D01*
X1512066Y807011D01*
X1513067Y810309D01*
X1513405Y813740D01*
X1513067Y817171D01*
X1512066Y820469D01*
X1510441Y823510D01*
X1508254Y826174D01*
X1505589Y828361D01*
X1502549Y829986D01*
X1499251Y830987D01*
X1495820Y831325D01*
D02*
G37*
G36*
X390498Y674436D02*
X388872Y674436D01*
X322832Y674436D01*
X322831Y674436D01*
X321331Y674436D01*
X320350Y674307D01*
X319363Y674242D01*
X316419Y673657D01*
X315482Y673339D01*
X314527Y673083D01*
X311753Y671934D01*
X310897Y671440D01*
X310010Y671002D01*
X307514Y669334D01*
X306770Y668682D01*
X305985Y668080D01*
X303862Y665957D01*
X303260Y665172D01*
X302608Y664429D01*
X300940Y661933D01*
X300503Y661046D01*
X300008Y660189D01*
X298859Y657415D01*
X298603Y656460D01*
X298285Y655523D01*
X297700Y652579D01*
X297635Y651591D01*
X297506Y650611D01*
X297506Y649110D01*
X297506Y645549D01*
X297505Y645542D01*
X297456Y645293D01*
X297454Y645288D01*
X297451Y645284D01*
X297448Y645281D01*
X297444Y645278D01*
X297439Y645276D01*
X297190Y645226D01*
X297185Y645226D01*
X77722Y645226D01*
X77721Y645226D01*
X74892Y645226D01*
X74236Y645140D01*
X73575D01*
X67963Y644401D01*
X67325Y644230D01*
X66669Y644144D01*
X61202Y642679D01*
X60591Y642426D01*
X59953Y642255D01*
X54723Y640089D01*
X54150Y639758D01*
X53540Y639505D01*
X48638Y636675D01*
X48113Y636272D01*
X47541Y635942D01*
X43050Y632496D01*
X42583Y632029D01*
X42058Y631626D01*
X38056Y627624D01*
X37653Y627099D01*
X37186Y626632D01*
X33740Y622141D01*
X33410Y621569D01*
X33007Y621044D01*
X30177Y616142D01*
X29924Y615531D01*
X29593Y614959D01*
X27427Y609729D01*
X27256Y609091D01*
X27003Y608480D01*
X25538Y603013D01*
X25452Y602357D01*
X25281Y601719D01*
X24542Y596107D01*
Y595446D01*
X24456Y594790D01*
X24456Y591960D01*
Y445820D01*
X18310D01*
X16313Y446887D01*
X12543Y448031D01*
X8622Y448417D01*
X4702Y448031D01*
X932Y446887D01*
X-1064Y445820D01*
X-8878D01*
Y438007D01*
X-9944Y436011D01*
X-11088Y432241D01*
X-11474Y428320D01*
Y402920D01*
Y377520D01*
X-11088Y373599D01*
X-9944Y369829D01*
X-8087Y366355D01*
X-5588Y363309D01*
X-2543Y360810D01*
X932Y358953D01*
X4702Y357809D01*
X8622Y357423D01*
X12543Y357809D01*
X15687Y358763D01*
X16360Y357640D01*
X5200Y346480D01*
X4702Y346431D01*
X932Y345287D01*
X-1064Y344220D01*
X-8878D01*
Y336407D01*
X-9944Y334411D01*
X-11088Y330641D01*
X-11474Y326720D01*
Y301320D01*
Y275920D01*
X-11088Y271999D01*
X-9944Y268229D01*
X-8087Y264755D01*
X-5588Y261709D01*
X-2543Y259210D01*
X932Y257353D01*
X4702Y256209D01*
X8622Y255823D01*
X12543Y256209D01*
X16313Y257353D01*
X19788Y259210D01*
X22833Y261709D01*
X25332Y264755D01*
X27190Y268229D01*
X28333Y271999D01*
X28719Y275920D01*
Y301320D01*
Y326720D01*
X28420Y329760D01*
X51569Y352909D01*
X88914D01*
X88972Y352907D01*
X89736Y352822D01*
X90433Y352689D01*
X91077Y352512D01*
X91684Y352289D01*
X92271Y352017D01*
X92852Y351688D01*
X93439Y351289D01*
X94039Y350808D01*
X94081Y350769D01*
X108536Y336314D01*
X109449Y335278D01*
X110012Y334564D01*
Y324100D01*
X110133Y323182D01*
Y290600D01*
X121994D01*
X121994Y231140D01*
X121994Y227477D01*
X122080Y226822D01*
Y226161D01*
X123036Y218899D01*
X123207Y218260D01*
X123293Y217605D01*
X125189Y210529D01*
X125442Y209918D01*
X125613Y209280D01*
X128417Y202512D01*
X128747Y201940D01*
X129000Y201329D01*
X132663Y194985D01*
X133065Y194461D01*
X133396Y193888D01*
X137855Y188077D01*
X138322Y187609D01*
X138725Y187085D01*
X143003Y182806D01*
X142477Y181536D01*
X130810D01*
X129184Y181536D01*
X128203Y181407D01*
X127216Y181342D01*
X124026Y180708D01*
X123090Y180390D01*
X122134Y180134D01*
X119130Y178889D01*
X118273Y178395D01*
X117386Y177957D01*
X114682Y176150D01*
X113938Y175498D01*
X113153Y174896D01*
X110854Y172596D01*
X110251Y171812D01*
X109599Y171068D01*
X107793Y168364D01*
X107355Y167477D01*
X106860Y166620D01*
X105616Y163615D01*
X105360Y162660D01*
X105042Y161723D01*
X104408Y158534D01*
X104343Y157547D01*
X104214Y156566D01*
X104214Y154940D01*
X104214Y154940D01*
X104214Y-11430D01*
X104214Y-13431D01*
X104343Y-14412D01*
X104407Y-15399D01*
X105188Y-19325D01*
X105506Y-20262D01*
X105762Y-21217D01*
X107294Y-24915D01*
X107789Y-25772D01*
X108226Y-26659D01*
X110450Y-29987D01*
X111102Y-30731D01*
X111704Y-31515D01*
X114535Y-34346D01*
X115319Y-34948D01*
X116063Y-35600D01*
X119391Y-37824D01*
X120278Y-38261D01*
X121135Y-38756D01*
X124833Y-40288D01*
X125788Y-40544D01*
X126725Y-40862D01*
X130651Y-41642D01*
X131638Y-41707D01*
X132619Y-41836D01*
X134620Y-41836D01*
X303530Y-41836D01*
X384810Y-41836D01*
X387224D01*
X387879Y-41750D01*
X388540D01*
X393327Y-41120D01*
X393966Y-40949D01*
X394621Y-40862D01*
X399285Y-39613D01*
X399895Y-39360D01*
X400534Y-39189D01*
X404994Y-37341D01*
X405567Y-37011D01*
X406177Y-36758D01*
X410359Y-34344D01*
X410883Y-33941D01*
X411456Y-33611D01*
X415286Y-30672D01*
X415753Y-30204D01*
X416278Y-29802D01*
X419692Y-26388D01*
X420094Y-25863D01*
X420561Y-25396D01*
X423501Y-21566D01*
X423831Y-20993D01*
X424234Y-20469D01*
X426648Y-16288D01*
X426901Y-15677D01*
X427231Y-15104D01*
X429079Y-10644D01*
X429250Y-10005D01*
X429503Y-9395D01*
X430752Y-4731D01*
X430839Y-4076D01*
X431010Y-3437D01*
X431640Y1349D01*
Y2011D01*
X431726Y2666D01*
Y5080D01*
X431726Y5080D01*
X431726Y114300D01*
Y116547D01*
X431640Y117203D01*
Y117864D01*
X431053Y122321D01*
X430882Y122959D01*
X430796Y123615D01*
X429632Y127956D01*
X429380Y128567D01*
X429208Y129206D01*
X427488Y133358D01*
X427158Y133931D01*
X426905Y134542D01*
X424657Y138435D01*
X424255Y138959D01*
X423924Y139531D01*
X421188Y143098D01*
X420720Y143565D01*
X420318Y144090D01*
X417140Y147268D01*
X416615Y147671D01*
X416148Y148138D01*
X412581Y150874D01*
X412009Y151205D01*
X411484Y151607D01*
X407592Y153855D01*
X406981Y154108D01*
X406408Y154438D01*
X402256Y156158D01*
X401617Y156329D01*
X401006Y156582D01*
X396664Y157746D01*
X396009Y157832D01*
X395370Y158003D01*
X390914Y158590D01*
X390253D01*
X389597Y158676D01*
X387350Y158676D01*
X387350Y158676D01*
X372434D01*
X371628Y159658D01*
X371842Y160737D01*
X371907Y161724D01*
X372036Y162704D01*
X372036Y163580D01*
X372043Y163712D01*
X372141Y164206D01*
X372238Y164440D01*
X372379Y164651D01*
X372559Y164831D01*
X372770Y164972D01*
X373004Y165069D01*
X373498Y165167D01*
X373629Y165174D01*
X484118D01*
X489175Y165174D01*
X489547Y165223D01*
X489921Y165201D01*
X500008Y165949D01*
X500374Y166025D01*
X500749Y166031D01*
X510753Y167522D01*
X511113Y167625D01*
X511486Y167659D01*
X521352Y169886D01*
X521704Y170015D01*
X522073Y170077D01*
X527779Y171816D01*
X528761Y171011D01*
X528638Y169760D01*
X528978Y166306D01*
X529986Y162985D01*
X531468Y160210D01*
X529986Y157436D01*
X528978Y154114D01*
X528638Y150660D01*
X528978Y147206D01*
X529986Y143884D01*
X531468Y141110D01*
X529986Y138336D01*
X528978Y135014D01*
X528638Y131560D01*
X528978Y128106D01*
X529986Y124784D01*
X531622Y121723D01*
X533824Y119040D01*
X536507Y116839D01*
X539567Y115202D01*
X542889Y114195D01*
X546343Y113855D01*
X549797Y114195D01*
X553119Y115202D01*
X556180Y116839D01*
X558862Y119040D01*
X561064Y121723D01*
X562701Y124784D01*
X563708Y128106D01*
X564048Y131560D01*
X563708Y135014D01*
X562701Y138336D01*
X561218Y141110D01*
X562701Y143884D01*
X563708Y147206D01*
X564048Y150660D01*
X563708Y154114D01*
X562701Y157436D01*
X561218Y160210D01*
X562701Y162985D01*
X563708Y166306D01*
X564048Y169760D01*
X563708Y173214D01*
X562701Y176535D01*
X561064Y179597D01*
X558862Y182279D01*
X557333Y183535D01*
X557440Y184801D01*
X561152Y186915D01*
X561451Y187142D01*
X561786Y187308D01*
X565983Y190129D01*
X565984Y190129D01*
X573800Y195383D01*
X576487Y197189D01*
X576797Y197462D01*
X577151Y197675D01*
X582213Y201714D01*
X582499Y202011D01*
X582835Y202253D01*
X587551Y206690D01*
X587812Y207010D01*
X588126Y207278D01*
X592465Y212085D01*
X592700Y212425D01*
X592991Y212717D01*
X596924Y217862D01*
X597130Y218220D01*
X597397Y218535D01*
X600897Y223983D01*
X601073Y224357D01*
X601313Y224693D01*
X604358Y230408D01*
X604503Y230795D01*
X604715Y231150D01*
X607284Y237094D01*
X607397Y237491D01*
X607579Y237862D01*
X609655Y243996D01*
X609735Y244401D01*
X609887Y244785D01*
X611456Y251068D01*
X611503Y251478D01*
X611622Y251873D01*
X612674Y258263D01*
X612687Y258676D01*
X612775Y259079D01*
X613302Y265534D01*
X613282Y265946D01*
X613336Y266356D01*
X613336Y269590D01*
X613336Y269594D01*
X613336Y364490D01*
X613336Y366741D01*
X613207Y367722D01*
X613143Y368709D01*
X612264Y373126D01*
X611946Y374062D01*
X611690Y375018D01*
X609967Y379178D01*
X609472Y380035D01*
X609035Y380922D01*
X606533Y384666D01*
X605881Y385410D01*
X605278Y386195D01*
X602094Y389379D01*
X601309Y389981D01*
X600566Y390633D01*
X596822Y393135D01*
X595934Y393572D01*
X595078Y394067D01*
X594896Y394142D01*
X595144Y395387D01*
X640269D01*
Y372440D01*
Y347040D01*
X640764Y343281D01*
X642215Y339778D01*
X642894Y338894D01*
Y335140D01*
X646647D01*
X647531Y334462D01*
X651034Y333011D01*
X654793Y332516D01*
X658553Y333011D01*
X662056Y334462D01*
X662940Y335140D01*
X666693D01*
Y338894D01*
X667372Y339778D01*
X668823Y343281D01*
X669318Y347040D01*
Y372440D01*
Y397840D01*
X668823Y401599D01*
X667372Y405102D01*
X665064Y408110D01*
X662056Y410418D01*
X658553Y411869D01*
X654793Y412364D01*
X651302Y411905D01*
X650966Y412044D01*
X648773Y412332D01*
X573744D01*
X573698Y412343D01*
X572289Y412394D01*
X571099Y412526D01*
X569966Y412742D01*
X568882Y413041D01*
X567841Y413422D01*
X566835Y413889D01*
X565857Y414444D01*
X564903Y415093D01*
X563969Y415840D01*
X562937Y416801D01*
X562896Y416825D01*
X552174Y427548D01*
X552141Y427599D01*
X550747Y429047D01*
X549628Y430316D01*
X548731Y431450D01*
X548057Y432429D01*
X547756Y432960D01*
Y446180D01*
X547683Y446731D01*
Y474080D01*
X530883D01*
Y446731D01*
X530811Y446180D01*
Y428457D01*
X530883Y427906D01*
Y423398D01*
X530878Y423384D01*
X530883Y423278D01*
Y423184D01*
X530838Y423016D01*
X530883Y422665D01*
Y418280D01*
X534626D01*
X534640Y418275D01*
X534746Y418280D01*
X534841D01*
X535008Y418235D01*
X535552Y418198D01*
X535885Y418132D01*
X536327Y417992D01*
X536875Y417757D01*
X537519Y417414D01*
X538249Y416953D01*
X539012Y416403D01*
X540904Y414799D01*
X541917Y413823D01*
X541968Y413790D01*
X542252Y413506D01*
X541766Y412332D01*
X455629D01*
X442756Y425206D01*
Y446180D01*
X442683Y446731D01*
Y474080D01*
X425883D01*
Y446731D01*
X425811Y446180D01*
Y421697D01*
X425883Y421146D01*
Y418280D01*
X426606D01*
X426946Y417461D01*
X428292Y415706D01*
X445292Y398706D01*
X444766Y397436D01*
X351791D01*
X351095Y397436D01*
X350932Y397490D01*
X350464Y397887D01*
X349942Y398606D01*
X349958Y398812D01*
X350101Y399781D01*
X350133Y401847D01*
X350124Y401924D01*
X350134Y402000D01*
X350134Y507328D01*
X350204Y508759D01*
X350809Y511802D01*
X351902Y514439D01*
X353487Y516812D01*
X355505Y518830D01*
X357878Y520416D01*
X360515Y521508D01*
X363559Y522113D01*
X364989Y522184D01*
X379982Y522184D01*
X382483Y522184D01*
X383464Y522313D01*
X384451Y522377D01*
X389358Y523353D01*
X390295Y523671D01*
X391251Y523927D01*
X395873Y525842D01*
X396730Y526337D01*
X397617Y526774D01*
X401777Y529554D01*
X402521Y530206D01*
X403306Y530808D01*
X406844Y534346D01*
X407446Y535131D01*
X408098Y535875D01*
X410878Y540035D01*
X411315Y540922D01*
X411810Y541779D01*
X413725Y546401D01*
X413981Y547357D01*
X414299Y548293D01*
X415275Y553201D01*
X415339Y554188D01*
X415468Y555169D01*
X415468Y557670D01*
X415468Y647840D01*
X415468Y647841D01*
X415468Y649466D01*
X415339Y650446D01*
X415274Y651434D01*
X414640Y654623D01*
X414322Y655560D01*
X414066Y656516D01*
X412822Y659520D01*
X412327Y660377D01*
X411889Y661264D01*
X410083Y663968D01*
X409430Y664712D01*
X408828Y665497D01*
X406529Y667796D01*
X405744Y668399D01*
X405000Y669051D01*
X402296Y670858D01*
X401409Y671295D01*
X400552Y671790D01*
X397548Y673034D01*
X396592Y673290D01*
X395655Y673608D01*
X392466Y674243D01*
X391479Y674307D01*
X390498Y674436D01*
D02*
G37*
G36*
X1073628D02*
X1072002Y674436D01*
X1005963Y674436D01*
X1005962Y674436D01*
X1004462Y674436D01*
X1003481Y674307D01*
X1002494Y674242D01*
X999549Y673657D01*
X998613Y673339D01*
X997657Y673083D01*
X994884Y671934D01*
X994027Y671440D01*
X993140Y671002D01*
X990644Y669334D01*
X989900Y668682D01*
X989115Y668080D01*
X986993Y665957D01*
X986390Y665172D01*
X985738Y664429D01*
X984070Y661933D01*
X983633Y661046D01*
X983138Y660189D01*
X981990Y657415D01*
X981734Y656460D01*
X981416Y655523D01*
X980830Y652579D01*
X980765Y651591D01*
X980636Y650611D01*
X980636Y649110D01*
X980636Y645549D01*
X980636Y645542D01*
X980586Y645293D01*
X980584Y645288D01*
X980582Y645284D01*
X980578Y645281D01*
X980574Y645278D01*
X980570Y645276D01*
X980320Y645226D01*
X980315Y645226D01*
X760852Y645226D01*
X760852Y645226D01*
X758022Y645226D01*
X757367Y645140D01*
X756706D01*
X751094Y644401D01*
X750455Y644230D01*
X749800Y644144D01*
X744332Y642679D01*
X743722Y642426D01*
X743083Y642255D01*
X737853Y640089D01*
X737281Y639758D01*
X736670Y639505D01*
X731768Y636675D01*
X731244Y636272D01*
X730671Y635942D01*
X726181Y632496D01*
X725713Y632029D01*
X725189Y631626D01*
X721186Y627624D01*
X720784Y627099D01*
X720316Y626632D01*
X716870Y622141D01*
X716540Y621569D01*
X716137Y621044D01*
X713307Y616142D01*
X713054Y615531D01*
X712724Y614959D01*
X710558Y609729D01*
X710387Y609091D01*
X710134Y608480D01*
X708669Y603013D01*
X708582Y602357D01*
X708411Y601719D01*
X707672Y596107D01*
Y595446D01*
X707586Y594790D01*
X707586Y591960D01*
Y445820D01*
X701440D01*
X699444Y446887D01*
X695674Y448031D01*
X691753Y448417D01*
X687832Y448031D01*
X684062Y446887D01*
X682066Y445820D01*
X674253D01*
Y438007D01*
X673186Y436011D01*
X672042Y432241D01*
X671656Y428320D01*
Y402920D01*
Y377520D01*
X672042Y373599D01*
X673186Y369829D01*
X675043Y366355D01*
X677542Y363309D01*
X680588Y360810D01*
X684062Y358953D01*
X687832Y357809D01*
X691753Y357423D01*
X695674Y357809D01*
X699444Y358953D01*
X702918Y360810D01*
X705964Y363309D01*
X708463Y366355D01*
X710320Y369829D01*
X711464Y373599D01*
X711850Y377520D01*
Y391563D01*
X713120Y391903D01*
X714188Y390053D01*
X714590Y389529D01*
X714921Y388956D01*
X717433Y385682D01*
X717901Y385214D01*
X718303Y384690D01*
X721222Y381771D01*
X721747Y381368D01*
X722214Y380901D01*
X724203Y379375D01*
X724038Y378115D01*
X723733Y377989D01*
X720808Y375745D01*
X699884Y354821D01*
X695663Y350915D01*
X692224Y348087D01*
X691068Y347258D01*
X690212Y346723D01*
X690070Y346651D01*
X687832Y346431D01*
X684062Y345287D01*
X682066Y344220D01*
X674253D01*
Y336407D01*
X673186Y334411D01*
X672042Y330641D01*
X671656Y326720D01*
Y301320D01*
Y275920D01*
X672042Y271999D01*
X673186Y268229D01*
X675043Y264755D01*
X677542Y261709D01*
X680588Y259210D01*
X684062Y257353D01*
X687832Y256209D01*
X691753Y255823D01*
X695674Y256209D01*
X699444Y257353D01*
X702918Y259210D01*
X705964Y261709D01*
X708463Y264755D01*
X710320Y268229D01*
X711464Y271999D01*
X711850Y275920D01*
Y301320D01*
Y325329D01*
X712291Y326035D01*
X713025Y327059D01*
X719974Y334971D01*
X736642Y351639D01*
X774714D01*
X774772Y351637D01*
X775536Y351552D01*
X776233Y351419D01*
X776877Y351242D01*
X777484Y351019D01*
X778071Y350747D01*
X778652Y350418D01*
X779239Y350019D01*
X779839Y349538D01*
X779881Y349499D01*
X791635Y337746D01*
X792572Y336683D01*
X793083Y336038D01*
Y324100D01*
X793203Y323182D01*
Y290600D01*
X805254D01*
X805254Y217170D01*
X805254Y214423D01*
X805340Y213768D01*
Y213106D01*
X806057Y207660D01*
X806228Y207021D01*
X806315Y206366D01*
X807737Y201059D01*
X807990Y200448D01*
X808161Y199810D01*
X810263Y194734D01*
X810594Y194161D01*
X810847Y193551D01*
X813594Y188793D01*
X813996Y188269D01*
X814326Y187696D01*
X817671Y183337D01*
X818138Y182870D01*
X818187Y182806D01*
X817596Y181536D01*
X811927D01*
X810301Y181536D01*
X809320Y181407D01*
X808333Y181342D01*
X805143Y180708D01*
X804207Y180390D01*
X803251Y180134D01*
X800247Y178889D01*
X799390Y178395D01*
X798503Y177957D01*
X795799Y176150D01*
X795055Y175498D01*
X794270Y174896D01*
X791971Y172596D01*
X791368Y171812D01*
X790716Y171068D01*
X788910Y168364D01*
X788472Y167477D01*
X787977Y166620D01*
X786733Y163615D01*
X786477Y162660D01*
X786159Y161723D01*
X785525Y158534D01*
X785460Y157547D01*
X785331Y156566D01*
X785331Y154940D01*
X785331Y154940D01*
X785331Y-11430D01*
X785331Y-13431D01*
X785460Y-14412D01*
X785524Y-15399D01*
X786305Y-19325D01*
X786623Y-20262D01*
X786879Y-21217D01*
X788411Y-24915D01*
X788906Y-25772D01*
X789343Y-26659D01*
X791567Y-29987D01*
X792219Y-30731D01*
X792821Y-31515D01*
X795652Y-34346D01*
X796436Y-34948D01*
X797180Y-35600D01*
X800508Y-37824D01*
X801395Y-38261D01*
X802252Y-38756D01*
X805950Y-40288D01*
X806905Y-40544D01*
X807842Y-40862D01*
X811768Y-41642D01*
X812755Y-41707D01*
X813736Y-41836D01*
X815737Y-41836D01*
X984647Y-41836D01*
X1065927Y-41836D01*
X1068341D01*
X1068996Y-41750D01*
X1069657D01*
X1074444Y-41120D01*
X1075083Y-40949D01*
X1075738Y-40862D01*
X1080402Y-39613D01*
X1081012Y-39360D01*
X1081651Y-39189D01*
X1086111Y-37341D01*
X1086684Y-37011D01*
X1087294Y-36758D01*
X1091476Y-34344D01*
X1092000Y-33941D01*
X1092573Y-33611D01*
X1096403Y-30672D01*
X1096870Y-30204D01*
X1097395Y-29802D01*
X1100809Y-26388D01*
X1101211Y-25863D01*
X1101678Y-25396D01*
X1104618Y-21566D01*
X1104948Y-20993D01*
X1105351Y-20469D01*
X1107765Y-16288D01*
X1108018Y-15677D01*
X1108348Y-15104D01*
X1110196Y-10644D01*
X1110367Y-10005D01*
X1110620Y-9395D01*
X1111869Y-4731D01*
X1111956Y-4076D01*
X1112127Y-3437D01*
X1112757Y1349D01*
Y2011D01*
X1112843Y2666D01*
Y5080D01*
X1112843Y5080D01*
X1112843Y114300D01*
Y116547D01*
X1112757Y117203D01*
Y117864D01*
X1112170Y122321D01*
X1111999Y122959D01*
X1111913Y123615D01*
X1110750Y127956D01*
X1110497Y128567D01*
X1110325Y129206D01*
X1108605Y133358D01*
X1108275Y133931D01*
X1108022Y134542D01*
X1105774Y138435D01*
X1105372Y138959D01*
X1105041Y139531D01*
X1102305Y143098D01*
X1101837Y143565D01*
X1101435Y144090D01*
X1098257Y147268D01*
X1097732Y147671D01*
X1097265Y148138D01*
X1093698Y150874D01*
X1093126Y151205D01*
X1092601Y151607D01*
X1088709Y153855D01*
X1088098Y154108D01*
X1087525Y154438D01*
X1083373Y156158D01*
X1082734Y156329D01*
X1082123Y156582D01*
X1077781Y157746D01*
X1077126Y157832D01*
X1076487Y158003D01*
X1072031Y158590D01*
X1071370D01*
X1070714Y158676D01*
X1068467Y158676D01*
X1068467Y158676D01*
X1054424D01*
X1053618Y159658D01*
X1053832Y160737D01*
X1053897Y161724D01*
X1054026Y162704D01*
X1054026Y163580D01*
X1054033Y163712D01*
X1054131Y164206D01*
X1054228Y164440D01*
X1054369Y164651D01*
X1054548Y164831D01*
X1054760Y164972D01*
X1054994Y165069D01*
X1055488Y165167D01*
X1055618Y165174D01*
X1156691Y165174D01*
X1162891Y165174D01*
X1163262Y165222D01*
X1163636Y165201D01*
X1176003Y166118D01*
X1176370Y166194D01*
X1176744Y166200D01*
X1189010Y168028D01*
X1189370Y168131D01*
X1189743Y168165D01*
X1201839Y170895D01*
X1202191Y171024D01*
X1202560Y171086D01*
X1209696Y173261D01*
X1210877Y172293D01*
X1210628Y169760D01*
X1210968Y166306D01*
X1211975Y162985D01*
X1213458Y160210D01*
X1211975Y157436D01*
X1210968Y154114D01*
X1210628Y150660D01*
X1210968Y147206D01*
X1211975Y143884D01*
X1213458Y141110D01*
X1211975Y138336D01*
X1210968Y135014D01*
X1210628Y131560D01*
X1210968Y128106D01*
X1211975Y124784D01*
X1213612Y121723D01*
X1215814Y119040D01*
X1218496Y116839D01*
X1221557Y115202D01*
X1224879Y114195D01*
X1228333Y113855D01*
X1231787Y114195D01*
X1235108Y115202D01*
X1238169Y116839D01*
X1240853Y119040D01*
X1243054Y121723D01*
X1244691Y124784D01*
X1245698Y128106D01*
X1246038Y131560D01*
X1245698Y135014D01*
X1244691Y138336D01*
X1243208Y141110D01*
X1244691Y143884D01*
X1245698Y147206D01*
X1246038Y150660D01*
X1245698Y154114D01*
X1244691Y157436D01*
X1243208Y160210D01*
X1244691Y162985D01*
X1245698Y166306D01*
X1246038Y169760D01*
X1245698Y173214D01*
X1244691Y176535D01*
X1243054Y179597D01*
X1240853Y182279D01*
X1238965Y183828D01*
X1238870Y184124D01*
X1238879Y184686D01*
X1239118Y185346D01*
X1239235Y185393D01*
X1250010Y191531D01*
X1250308Y191758D01*
X1250644Y191924D01*
X1255790Y195383D01*
X1258477Y197189D01*
X1258787Y197462D01*
X1259141Y197675D01*
X1264203Y201714D01*
X1264489Y202011D01*
X1264825Y202253D01*
X1269541Y206690D01*
X1269802Y207010D01*
X1270117Y207278D01*
X1274455Y212085D01*
X1274690Y212425D01*
X1274981Y212717D01*
X1278914Y217862D01*
X1279120Y218220D01*
X1279387Y218535D01*
X1282887Y223983D01*
X1283063Y224357D01*
X1283303Y224693D01*
X1286348Y230408D01*
X1286493Y230795D01*
X1286705Y231150D01*
X1289274Y237094D01*
X1289387Y237491D01*
X1289569Y237862D01*
X1291645Y243996D01*
X1291725Y244401D01*
X1291877Y244785D01*
X1293446Y251068D01*
X1293493Y251478D01*
X1293613Y251873D01*
X1294665Y258263D01*
X1294678Y258676D01*
X1294765Y259080D01*
X1295293Y265534D01*
X1295272Y265946D01*
X1295326Y266356D01*
X1295326Y269593D01*
X1295326Y269594D01*
X1295326Y364490D01*
X1295326Y366741D01*
X1295197Y367722D01*
X1295133Y368709D01*
X1294254Y373125D01*
X1293936Y374062D01*
X1293680Y375018D01*
X1291957Y379178D01*
X1291463Y380035D01*
X1291025Y380922D01*
X1288523Y384666D01*
X1287871Y385410D01*
X1287269Y386195D01*
X1284085Y389379D01*
X1283300Y389981D01*
X1282556Y390633D01*
X1278812Y393135D01*
X1277925Y393573D01*
X1277068Y394067D01*
X1273880Y395387D01*
X1274133Y396657D01*
X1323659D01*
Y372440D01*
Y347040D01*
X1324154Y343281D01*
X1325605Y339778D01*
X1326283Y338894D01*
Y335140D01*
X1330037D01*
X1330921Y334462D01*
X1334424Y333011D01*
X1338183Y332516D01*
X1341942Y333011D01*
X1345445Y334462D01*
X1346329Y335140D01*
X1350083D01*
Y338894D01*
X1350761Y339778D01*
X1352212Y343281D01*
X1352707Y347040D01*
Y372440D01*
Y397840D01*
X1352212Y401599D01*
X1350761Y405102D01*
X1348453Y408110D01*
X1345445Y410418D01*
X1341942Y411869D01*
X1339231Y412226D01*
X1338902Y412308D01*
X1338439Y412331D01*
X1338183Y412364D01*
X1338063Y412349D01*
X1337074Y412396D01*
X1337035Y412390D01*
X1336998Y412399D01*
X1335144Y412456D01*
X1335129Y412467D01*
X1333086Y413314D01*
X1330893Y413602D01*
X1254464D01*
X1254418Y413613D01*
X1253009Y413664D01*
X1251819Y413796D01*
X1250686Y414012D01*
X1249602Y414311D01*
X1248561Y414692D01*
X1247555Y415159D01*
X1246577Y415714D01*
X1245623Y416363D01*
X1244689Y417110D01*
X1243656Y418071D01*
X1243616Y418096D01*
X1235562Y426150D01*
X1235529Y426201D01*
X1234108Y427676D01*
X1232965Y428969D01*
X1232053Y430119D01*
X1231372Y431106D01*
X1231145Y431504D01*
Y446180D01*
X1231073Y446731D01*
Y474080D01*
X1214273D01*
Y446731D01*
X1214200Y446180D01*
Y427057D01*
X1214273Y426507D01*
Y423268D01*
X1214239Y423160D01*
X1214273Y422815D01*
Y418280D01*
X1218145D01*
X1218254Y418247D01*
X1218438Y418228D01*
X1218648Y418141D01*
X1219048Y417928D01*
X1219594Y417581D01*
X1220188Y417152D01*
X1222825Y414873D01*
X1222826Y414704D01*
X1222314Y413602D01*
X1136349D01*
X1126145Y423807D01*
Y446180D01*
X1126073Y446731D01*
Y474080D01*
X1109273D01*
Y446731D01*
X1109200Y446180D01*
Y420297D01*
X1109273Y419747D01*
Y418280D01*
X1109466D01*
X1109489Y418105D01*
X1110335Y416061D01*
X1111682Y414306D01*
X1126849Y399139D01*
X1127413Y398706D01*
X1126982Y397436D01*
X1036322D01*
X1035058Y397436D01*
X1034202Y397324D01*
X1033959Y397428D01*
X1033065Y398514D01*
X1033089Y398812D01*
X1033232Y399781D01*
X1033263Y401847D01*
X1033254Y401924D01*
X1033264Y402000D01*
X1033264Y507328D01*
X1033335Y508759D01*
X1033940Y511802D01*
X1035032Y514439D01*
X1036618Y516812D01*
X1038636Y518830D01*
X1041009Y520416D01*
X1043645Y521508D01*
X1046689Y522113D01*
X1048120Y522184D01*
X1063112Y522184D01*
X1065614Y522184D01*
X1066594Y522313D01*
X1067582Y522377D01*
X1072489Y523353D01*
X1073426Y523671D01*
X1074381Y523927D01*
X1079004Y525842D01*
X1079860Y526337D01*
X1080748Y526774D01*
X1084908Y529554D01*
X1085652Y530206D01*
X1086436Y530808D01*
X1089974Y534346D01*
X1090576Y535131D01*
X1091229Y535875D01*
X1094008Y540035D01*
X1094446Y540922D01*
X1094940Y541779D01*
X1096855Y546401D01*
X1097111Y547357D01*
X1097429Y548293D01*
X1098405Y553201D01*
X1098470Y554188D01*
X1098599Y555169D01*
X1098599Y557670D01*
X1098599Y647840D01*
X1098599Y647841D01*
X1098599Y649466D01*
X1098469Y650446D01*
X1098405Y651434D01*
X1097770Y654623D01*
X1097452Y655560D01*
X1097197Y656516D01*
X1095952Y659520D01*
X1095457Y660377D01*
X1095020Y661264D01*
X1093213Y663968D01*
X1092561Y664712D01*
X1091959Y665497D01*
X1089659Y667796D01*
X1088874Y668399D01*
X1088131Y669051D01*
X1085426Y670858D01*
X1084539Y671295D01*
X1083683Y671790D01*
X1080678Y673034D01*
X1079723Y673290D01*
X1078786Y673608D01*
X1075596Y674243D01*
X1074609Y674307D01*
X1073628Y674436D01*
D02*
G37*
G36*
X86360Y839215D02*
X81949Y838781D01*
X77708Y837494D01*
X73799Y835405D01*
X70373Y832593D01*
X67561Y829167D01*
X65472Y825258D01*
X64186Y821017D01*
X63751Y816606D01*
X64186Y812195D01*
X65472Y807954D01*
X67561Y804045D01*
X70373Y800619D01*
X73799Y797807D01*
X77708Y795718D01*
X81949Y794432D01*
X86360Y793997D01*
X90771Y794432D01*
X95012Y795718D01*
X98921Y797807D01*
X102347Y800619D01*
X105159Y804045D01*
X107248Y807954D01*
X108534Y812195D01*
X108969Y816606D01*
X108534Y821017D01*
X107248Y825258D01*
X105159Y829167D01*
X102347Y832593D01*
X98921Y835405D01*
X95012Y837494D01*
X90771Y838781D01*
X86360Y839215D01*
D02*
G37*
G36*
X-10200Y910395D02*
X-15200D01*
X-18631Y910057D01*
X-21929Y909056D01*
X-24970Y907431D01*
X-27634Y905244D01*
X-29821Y902580D01*
X-31446Y899539D01*
X-32447Y896241D01*
X-32785Y892810D01*
X-32447Y889379D01*
X-31446Y886081D01*
X-29821Y883040D01*
X-28179Y881040D01*
X-27755Y880110D01*
X-28179Y879180D01*
X-29821Y877180D01*
X-31446Y874139D01*
X-32447Y870841D01*
X-32785Y867410D01*
X-32447Y863979D01*
X-31476Y860780D01*
X-31490Y860453D01*
X-32056Y859510D01*
X-32700D01*
Y824510D01*
X7300D01*
Y859510D01*
X6656D01*
X6090Y860453D01*
X6076Y860780D01*
X7047Y863979D01*
X7385Y867410D01*
X7047Y870841D01*
X6046Y874139D01*
X4421Y877180D01*
X2779Y879180D01*
X2355Y880110D01*
X2779Y881040D01*
X4421Y883040D01*
X6046Y886081D01*
X7047Y889379D01*
X7385Y892810D01*
X7047Y896241D01*
X6046Y899539D01*
X4421Y902580D01*
X2234Y905244D01*
X-430Y907431D01*
X-3471Y909056D01*
X-6769Y910057D01*
X-10200Y910395D01*
D02*
G37*
G36*
X289560Y835702D02*
X285835Y835335D01*
X282254Y834249D01*
X278953Y832484D01*
X276060Y830110D01*
X273686Y827217D01*
X271921Y823916D01*
X270835Y820335D01*
X270468Y816610D01*
X270835Y812885D01*
X271921Y809304D01*
X273686Y806003D01*
X276060Y803110D01*
X278953Y800736D01*
X282254Y798971D01*
X285835Y797885D01*
X289560Y797518D01*
X293285Y797885D01*
X296866Y798971D01*
X300167Y800736D01*
X303060Y803110D01*
X305434Y806003D01*
X307199Y809304D01*
X308285Y812885D01*
X308652Y816610D01*
X308285Y820335D01*
X307199Y823916D01*
X305434Y827217D01*
X303060Y830110D01*
X300167Y832484D01*
X296866Y834249D01*
X293285Y835335D01*
X289560Y835702D01*
D02*
G37*
G36*
X-77500Y538097D02*
X-83386Y537711D01*
X-89172Y536560D01*
X-94758Y534664D01*
X-100048Y532055D01*
X-104953Y528778D01*
X-109388Y524888D01*
X-113278Y520453D01*
X-116555Y515548D01*
X-119164Y510258D01*
X-121060Y504672D01*
X-122211Y498886D01*
X-122597Y493000D01*
X-122211Y487114D01*
X-121060Y481328D01*
X-119164Y475742D01*
X-116555Y470452D01*
X-113278Y465547D01*
X-109388Y461112D01*
X-104953Y457223D01*
X-100048Y453945D01*
X-94758Y451336D01*
X-89172Y449440D01*
X-83386Y448289D01*
X-77500Y447903D01*
X-71614Y448289D01*
X-65828Y449440D01*
X-60242Y451336D01*
X-54952Y453945D01*
X-50047Y457223D01*
X-45612Y461112D01*
X-41722Y465547D01*
X-38445Y470452D01*
X-35836Y475742D01*
X-33940Y481328D01*
X-32789Y487114D01*
X-32403Y493000D01*
X-32789Y498886D01*
X-33940Y504672D01*
X-35836Y510258D01*
X-38445Y515548D01*
X-41722Y520453D01*
X-45612Y524888D01*
X-50047Y528778D01*
X-54952Y532055D01*
X-60242Y534664D01*
X-65828Y536560D01*
X-71614Y537711D01*
X-77500Y538097D01*
D02*
G37*
G36*
X2102500D02*
X2096614Y537711D01*
X2090828Y536560D01*
X2085242Y534664D01*
X2079952Y532055D01*
X2075047Y528778D01*
X2070612Y524888D01*
X2066723Y520453D01*
X2063445Y515548D01*
X2060836Y510258D01*
X2058940Y504672D01*
X2057789Y498886D01*
X2057404Y493000D01*
X2057789Y487114D01*
X2058940Y481328D01*
X2060836Y475742D01*
X2063445Y470452D01*
X2066723Y465547D01*
X2070612Y461112D01*
X2075047Y457223D01*
X2079952Y453945D01*
X2085242Y451336D01*
X2090828Y449440D01*
X2096614Y448289D01*
X2102500Y447903D01*
X2108386Y448289D01*
X2114172Y449440D01*
X2119758Y451336D01*
X2125048Y453945D01*
X2129953Y457223D01*
X2134388Y461112D01*
X2138277Y465547D01*
X2141555Y470452D01*
X2144164Y475742D01*
X2146060Y481328D01*
X2147211Y487114D01*
X2147597Y493000D01*
X2147211Y498886D01*
X2146060Y504672D01*
X2144164Y510258D01*
X2141555Y515548D01*
X2138277Y520453D01*
X2134388Y524888D01*
X2129953Y528778D01*
X2125048Y532055D01*
X2119758Y534664D01*
X2114172Y536560D01*
X2108386Y537711D01*
X2102500Y538097D01*
D02*
G37*
%LPD*%
G36*
X1103267Y830558D02*
X1102077Y819956D01*
X1101963Y820044D01*
X1101765Y820123D01*
X1101483Y820193D01*
X1101118Y820253D01*
X1100136Y820346D01*
X1098037Y820415D01*
X1097170Y820420D01*
X1098723Y830580D01*
X1103267Y830558D01*
D02*
G37*
G36*
X1063655Y927189D02*
X1063249Y926884D01*
X1062891Y926376D01*
X1062580Y925665D01*
X1062317Y924751D01*
X1062102Y923633D01*
X1061935Y922312D01*
X1061744Y919061D01*
X1061720Y917131D01*
X1051560D01*
X1051536Y919061D01*
X1051178Y923633D01*
X1050963Y924751D01*
X1050700Y925665D01*
X1050389Y926376D01*
X1050031Y926884D01*
X1049624Y927189D01*
X1049171Y927290D01*
X1064109D01*
X1063655Y927189D01*
D02*
G37*
G36*
X21749Y337402D02*
X20018Y335615D01*
X17330Y332477D01*
X16374Y331127D01*
X15676Y329923D01*
X15237Y328864D01*
X15056Y327952D01*
X15132Y327185D01*
X15468Y326564D01*
X16062Y326088D01*
X1566Y334159D01*
X2330Y333854D01*
X3175Y333743D01*
X4102Y333826D01*
X5111Y334103D01*
X6201Y334575D01*
X7373Y335241D01*
X8627Y336101D01*
X9963Y337155D01*
X11380Y338404D01*
X12880Y339846D01*
X21749Y337402D01*
D02*
G37*
G36*
X278130Y171450D02*
X279005Y171450D01*
X280723Y171108D01*
X282341Y170438D01*
X283797Y169465D01*
X285035Y168227D01*
X286008Y166771D01*
X286678Y165153D01*
X287020Y163435D01*
Y162560D01*
X287020Y157480D01*
Y157480D01*
X287063Y156608D01*
X287403Y154899D01*
X288070Y153289D01*
X289038Y151840D01*
X290270Y150608D01*
X291719Y149640D01*
X293329Y148973D01*
X295039Y148633D01*
X295910Y148590D01*
X387350Y148590D01*
Y148590D01*
X389597Y148590D01*
X394054Y148003D01*
X398396Y146840D01*
X402549Y145120D01*
X406441Y142872D01*
X410008Y140136D01*
X413186Y136958D01*
X415922Y133391D01*
X418170Y129499D01*
X419890Y125346D01*
X421053Y121004D01*
X421640Y116547D01*
Y114300D01*
X421640Y5080D01*
X421640Y5080D01*
Y2666D01*
X421010Y-2121D01*
X419760Y-6784D01*
X417913Y-11244D01*
X415499Y-15426D01*
X412560Y-19256D01*
X409146Y-22670D01*
X405316Y-25609D01*
X401134Y-28023D01*
X396674Y-29870D01*
X392010Y-31120D01*
X387224Y-31750D01*
X384810D01*
X303530Y-31750D01*
X134620Y-31750D01*
X134620D01*
X132619Y-31750D01*
X128693Y-30969D01*
X124995Y-29437D01*
X121667Y-27214D01*
X118836Y-24383D01*
X116613Y-21055D01*
X115081Y-17357D01*
X114300Y-13431D01*
X114300Y-11430D01*
X114300Y154940D01*
X114300Y154940D01*
X114300Y156566D01*
X114934Y159756D01*
X116179Y162760D01*
X117986Y165464D01*
X120285Y167764D01*
X122990Y169571D01*
X125994Y170815D01*
X129184Y171450D01*
X130810Y171450D01*
X278130Y171450D01*
X278130Y171450D01*
D02*
G37*
G36*
X118377Y352152D02*
X120603Y350341D01*
X121702Y349606D01*
X122792Y348984D01*
X123872Y348475D01*
X124944Y348079D01*
X126006Y347796D01*
X127059Y347626D01*
X128103Y347570D01*
X120194Y333343D01*
X120499Y334107D01*
X120610Y334953D01*
X120526Y335880D01*
X120249Y336889D01*
X119777Y337979D01*
X119111Y339151D01*
X118251Y340405D01*
X117197Y341741D01*
X115949Y343158D01*
X114507Y344657D01*
X117250Y353226D01*
X118377Y352152D01*
D02*
G37*
G36*
X542897Y435057D02*
X542771Y434226D01*
X542844Y433310D01*
X543115Y432307D01*
X543584Y431219D01*
X544252Y430045D01*
X545119Y428784D01*
X546184Y427438D01*
X547447Y426006D01*
X548909Y424487D01*
X545029Y417054D01*
X543914Y418128D01*
X541779Y419939D01*
X540760Y420674D01*
X539772Y421296D01*
X538816Y421805D01*
X537893Y422201D01*
X537001Y422484D01*
X536141Y422654D01*
X535313Y422710D01*
X543222Y435801D01*
X542897Y435057D01*
D02*
G37*
G36*
X561035Y412442D02*
X562237Y411480D01*
X563485Y410632D01*
X564780Y409897D01*
X566123Y409274D01*
X567512Y408765D01*
X568948Y408369D01*
X570431Y408086D01*
X571960Y407917D01*
X573537Y407860D01*
X563880Y399860D01*
X546223Y407860D01*
X547687Y407917D01*
X548877Y408086D01*
X549794Y408369D01*
X550438Y408765D01*
X550809Y409274D01*
X550907Y409897D01*
X550731Y410632D01*
X550283Y411480D01*
X549561Y412442D01*
X548566Y413517D01*
X559880D01*
X561035Y412442D01*
D02*
G37*
G36*
X393688Y663716D02*
X396692Y662471D01*
X399397Y660664D01*
X401696Y658365D01*
X403503Y655660D01*
X404748Y652656D01*
X405382Y649466D01*
X405382Y647840D01*
X405382Y647840D01*
X405382Y557670D01*
X405382Y555168D01*
X404406Y550261D01*
X402491Y545638D01*
X399712Y541478D01*
X396174Y537940D01*
X392014Y535161D01*
X387391Y533246D01*
X382484Y532270D01*
X379982Y532270D01*
X364742Y532270D01*
X362321Y532151D01*
X357573Y531207D01*
X353101Y529355D01*
X349076Y526665D01*
X345653Y523242D01*
X342963Y519217D01*
X341111Y514744D01*
X340166Y509996D01*
X340048Y507576D01*
Y507576D01*
X340047Y402000D01*
X340016Y399935D01*
X339156Y395893D01*
X337531Y392094D01*
X335202Y388680D01*
X332258Y385780D01*
X328809Y383504D01*
X324986Y381938D01*
X320931Y381140D01*
X318865Y381140D01*
X318865Y381140D01*
X62090Y381140D01*
X60284D01*
X56704Y381611D01*
X53216Y382546D01*
X49880Y383928D01*
X46752Y385733D01*
X43887Y387932D01*
X41334Y390485D01*
X39135Y393350D01*
X37330Y396478D01*
X35948Y399814D01*
X35013Y403302D01*
X34542Y406883D01*
X34542Y408688D01*
X34542D01*
Y591960D01*
X34542Y594790D01*
X35281Y600402D01*
X36746Y605869D01*
X38912Y611099D01*
X41742Y616001D01*
X45188Y620492D01*
X49190Y624494D01*
X53681Y627940D01*
X58583Y630770D01*
X63812Y632936D01*
X69280Y634401D01*
X74892Y635140D01*
X77722Y635140D01*
X77722Y635140D01*
X297432Y635140D01*
X298428Y635189D01*
X300381Y635577D01*
X302221Y636339D01*
X303877Y637446D01*
X305286Y638854D01*
X306392Y640510D01*
X307154Y642351D01*
X307543Y644304D01*
X307592Y645300D01*
X307592Y645300D01*
X307592Y649110D01*
X307592Y650611D01*
X308178Y653555D01*
X309326Y656329D01*
X310994Y658825D01*
X313117Y660948D01*
X315613Y662616D01*
X318387Y663764D01*
X321331Y664350D01*
X322832Y664350D01*
X322832Y664350D01*
X388872Y664350D01*
X390498Y664350D01*
X393688Y663716D01*
D02*
G37*
G36*
X351790Y387350D02*
X580390D01*
X580390Y387349D01*
X582641Y387350D01*
X587058Y386471D01*
X591218Y384748D01*
X594962Y382247D01*
X598147Y379062D01*
X600648Y375318D01*
X602371Y371158D01*
X603250Y366742D01*
X603250Y364490D01*
X603250Y269594D01*
X603250Y269593D01*
X603250Y266355D01*
X602722Y259901D01*
X601670Y253512D01*
X600101Y247229D01*
X598025Y241095D01*
X595456Y235151D01*
X592411Y229436D01*
X588911Y223988D01*
X584978Y218843D01*
X580639Y214036D01*
X575923Y209598D01*
X570861Y205560D01*
X568173Y203754D01*
X560357Y198500D01*
X560357Y198500D01*
X556160Y195679D01*
X547371Y190673D01*
X538237Y186330D01*
X528807Y182674D01*
X519132Y179725D01*
X509266Y177498D01*
X499262Y176007D01*
X489175Y175260D01*
X484118Y175260D01*
X373380D01*
X373380Y175260D01*
X372260Y175205D01*
X370062Y174768D01*
X367992Y173910D01*
X366129Y172665D01*
X364544Y171081D01*
X363300Y169218D01*
X362442Y167148D01*
X362005Y164950D01*
X361950Y163830D01*
X361950Y163830D01*
X361950Y162704D01*
X361511Y160496D01*
X360649Y158416D01*
X359398Y156544D01*
X357806Y154952D01*
X355934Y153701D01*
X353854Y152839D01*
X351646Y152400D01*
X350520Y152400D01*
X308754D01*
X306546Y152839D01*
X304466Y153701D01*
X302594Y154952D01*
X301002Y156544D01*
X299751Y158416D01*
X298890Y160496D01*
X298450Y162704D01*
X298450Y163830D01*
X298450Y163830D01*
X298395Y164950D01*
X297958Y167148D01*
X297101Y169218D01*
X295856Y171081D01*
X294271Y172666D01*
X292408Y173910D01*
X290338Y174768D01*
X288140Y175205D01*
X287020Y175260D01*
X217170Y175260D01*
X184297D01*
X177035Y176216D01*
X169959Y178112D01*
X163192Y180915D01*
X156848Y184578D01*
X151037Y189037D01*
X145857Y194217D01*
X141398Y200028D01*
X137735Y206372D01*
X134932Y213139D01*
X133036Y220215D01*
X132080Y227477D01*
X132080Y231140D01*
X132080Y345440D01*
X132080Y345440D01*
Y346450D01*
X132853Y348317D01*
X134282Y349747D01*
X136149Y350520D01*
X137160D01*
X214630Y350520D01*
X214630Y350520D01*
X215893Y350520D01*
X218227Y349553D01*
X220013Y347767D01*
X220980Y345433D01*
X220980Y344170D01*
X220980Y300990D01*
X220980Y300990D01*
X221077Y299999D01*
X221836Y298168D01*
X223238Y296766D01*
X225069Y296007D01*
X226060Y295910D01*
X232410Y295910D01*
X232410D01*
X233401Y296008D01*
X235232Y296766D01*
X236634Y298168D01*
X237392Y299999D01*
X237490Y300990D01*
X237490Y346710D01*
X237490Y347468D01*
X238070Y348868D01*
X239142Y349940D01*
X240542Y350520D01*
X241300Y350520D01*
X314960D01*
X316704Y350577D01*
X320163Y351032D01*
X323533Y351935D01*
X326756Y353270D01*
X329777Y355014D01*
X332545Y357138D01*
X335012Y359605D01*
X337136Y362373D01*
X338880Y365394D01*
X340215Y368617D01*
X341118Y371987D01*
X341573Y375446D01*
X341630Y377190D01*
X341630Y377189D01*
X341630Y378190D01*
X342020Y380153D01*
X342786Y382002D01*
X343898Y383667D01*
X345313Y385082D01*
X346977Y386194D01*
X348826Y386960D01*
X350789Y387350D01*
X351790Y387350D01*
D02*
G37*
G36*
X115447Y363030D02*
X113983Y362973D01*
X112793Y362804D01*
X111876Y362521D01*
X111232Y362125D01*
X110861Y361616D01*
X110763Y360993D01*
X110939Y360258D01*
X111387Y359410D01*
X112109Y358448D01*
X113104Y357373D01*
X101790D01*
X100635Y358448D01*
X99433Y359410D01*
X98185Y360258D01*
X96890Y360993D01*
X95547Y361616D01*
X94158Y362125D01*
X92722Y362521D01*
X91239Y362804D01*
X89710Y362973D01*
X88133Y363030D01*
X97790Y371030D01*
X115447Y363030D01*
D02*
G37*
%LPC*%
G36*
X379982Y532270D02*
X379982D01*
D01*
X379982D01*
D02*
G37*
G36*
X237490Y346710D02*
Y346710D01*
D01*
Y346710D01*
D02*
G37*
%LPD*%
G36*
X715204Y344514D02*
X712649Y341916D01*
X705117Y333340D01*
X703906Y331651D01*
X702965Y330144D01*
X702292Y328818D01*
X701888Y327675D01*
X701753Y326714D01*
X700004Y328463D01*
X699889Y328299D01*
X699207Y327111D01*
X698752Y326036D01*
X698522Y325075D01*
X698519Y324229D01*
X698743Y323495D01*
X699192Y322876D01*
X687909Y334159D01*
X688528Y333709D01*
X689262Y333486D01*
X690109Y333489D01*
X691069Y333719D01*
X692144Y334174D01*
X693332Y334856D01*
X693496Y334971D01*
X691747Y336720D01*
X692708Y336855D01*
X693851Y337259D01*
X695177Y337932D01*
X696684Y338873D01*
X698373Y340084D01*
X702297Y343312D01*
X706949Y347616D01*
X709548Y350171D01*
X715204Y344514D01*
D02*
G37*
G36*
X959247Y171450D02*
X960122Y171450D01*
X961840Y171108D01*
X963458Y170438D01*
X964914Y169465D01*
X966152Y168227D01*
X967125Y166771D01*
X967795Y165153D01*
X968137Y163435D01*
Y162560D01*
X968137Y157480D01*
Y157480D01*
X968180Y156608D01*
X968520Y154899D01*
X969187Y153289D01*
X970155Y151840D01*
X971387Y150608D01*
X972836Y149640D01*
X974446Y148973D01*
X976156Y148633D01*
X977027Y148590D01*
X1068467Y148590D01*
Y148590D01*
X1070714Y148590D01*
X1075171Y148003D01*
X1079513Y146840D01*
X1083666Y145120D01*
X1087558Y142872D01*
X1091124Y140136D01*
X1094303Y136958D01*
X1097039Y133391D01*
X1099287Y129499D01*
X1101007Y125346D01*
X1102170Y121004D01*
X1102757Y116547D01*
Y114300D01*
X1102757Y5080D01*
X1102757Y5080D01*
Y2666D01*
X1102127Y-2121D01*
X1100877Y-6784D01*
X1099030Y-11244D01*
X1096616Y-15426D01*
X1093677Y-19256D01*
X1090263Y-22670D01*
X1086432Y-25609D01*
X1082251Y-28023D01*
X1077791Y-29870D01*
X1073128Y-31120D01*
X1068341Y-31750D01*
X1065927D01*
X984647Y-31750D01*
X815737Y-31750D01*
X815737D01*
X813736Y-31750D01*
X809810Y-30969D01*
X806112Y-29437D01*
X802784Y-27214D01*
X799953Y-24383D01*
X797730Y-21055D01*
X796198Y-17357D01*
X795417Y-13431D01*
X795417Y-11430D01*
X795417Y154940D01*
X795417Y154940D01*
X795417Y156566D01*
X796051Y159756D01*
X797296Y162760D01*
X799103Y165464D01*
X801402Y167764D01*
X804107Y169571D01*
X807111Y170815D01*
X810301Y171450D01*
X811927Y171450D01*
X959247Y171450D01*
X959247Y171450D01*
D02*
G37*
G36*
X1226260Y433684D02*
X1226113Y432875D01*
X1226170Y431974D01*
X1226432Y430980D01*
X1226898Y429895D01*
X1227569Y428718D01*
X1228445Y427448D01*
X1229525Y426087D01*
X1230810Y424633D01*
X1232299Y423088D01*
X1227020Y417054D01*
X1225918Y418128D01*
X1222974Y420674D01*
X1222112Y421296D01*
X1221310Y421805D01*
X1220569Y422201D01*
X1219887Y422484D01*
X1219265Y422654D01*
X1218703Y422710D01*
X1226612Y434402D01*
X1226260Y433684D01*
D02*
G37*
G36*
X1241755Y413712D02*
X1242956Y412750D01*
X1244205Y411902D01*
X1245500Y411166D01*
X1246843Y410544D01*
X1248232Y410035D01*
X1249668Y409639D01*
X1251151Y409356D01*
X1252680Y409187D01*
X1254257Y409130D01*
X1244600Y401130D01*
X1226943Y409130D01*
X1228407Y409187D01*
X1229597Y409356D01*
X1230514Y409639D01*
X1231158Y410035D01*
X1231529Y410544D01*
X1231627Y411166D01*
X1231451Y411902D01*
X1231003Y412750D01*
X1230281Y413712D01*
X1229286Y414787D01*
X1240600D01*
X1241755Y413712D01*
D02*
G37*
G36*
X1076818Y663716D02*
X1079823Y662471D01*
X1082527Y660664D01*
X1084827Y658365D01*
X1086633Y655660D01*
X1087878Y652656D01*
X1088512Y649466D01*
X1088512Y647840D01*
X1088512Y647840D01*
X1088512Y557670D01*
X1088512Y555168D01*
X1087536Y550261D01*
X1085622Y545638D01*
X1082842Y541478D01*
X1079304Y537940D01*
X1075144Y535161D01*
X1070521Y533246D01*
X1065614Y532270D01*
X1063112Y532270D01*
X1063112D01*
X1063112D01*
D01*
X1047872Y532270D01*
X1045452Y532151D01*
X1040704Y531207D01*
X1036231Y529355D01*
X1032206Y526665D01*
X1028783Y523242D01*
X1026094Y519217D01*
X1024241Y514744D01*
X1023297Y509996D01*
X1023178Y507576D01*
Y507576D01*
X1023178Y402000D01*
X1023146Y399935D01*
X1022286Y395893D01*
X1020661Y392094D01*
X1018333Y388680D01*
X1015389Y385780D01*
X1011940Y383504D01*
X1008116Y381938D01*
X1004062Y381140D01*
X1001995Y381140D01*
X1001996Y381140D01*
X749160Y381140D01*
X747096Y381140D01*
X743004Y381679D01*
X739017Y382747D01*
X735203Y384327D01*
X731629Y386390D01*
X728354Y388903D01*
X725435Y391822D01*
X722923Y395096D01*
X720859Y398671D01*
X719279Y402485D01*
X718211Y406471D01*
X717672Y410564D01*
X717672Y412628D01*
X717672Y412628D01*
Y591960D01*
X717672Y594790D01*
X718411Y600402D01*
X719876Y605869D01*
X722042Y611099D01*
X724873Y616001D01*
X728318Y620492D01*
X732321Y624494D01*
X736811Y627940D01*
X741713Y630770D01*
X746943Y632936D01*
X752410Y634401D01*
X758022Y635140D01*
X760852Y635140D01*
X760852Y635140D01*
X980562Y635140D01*
X981558Y635189D01*
X983512Y635577D01*
X985352Y636339D01*
X987008Y637446D01*
X988416Y638854D01*
X989523Y640510D01*
X990285Y642351D01*
X990673Y644304D01*
X990722Y645300D01*
X990722Y645300D01*
X990722Y649110D01*
X990722Y650611D01*
X991308Y653555D01*
X992457Y656329D01*
X994125Y658825D01*
X996247Y660948D01*
X998744Y662616D01*
X1001517Y663764D01*
X1004461Y664350D01*
X1005963Y664350D01*
X1005963Y664350D01*
X1072002Y664350D01*
X1073628Y664350D01*
X1076818Y663716D01*
D02*
G37*
G36*
X801247Y361760D02*
X799783Y361703D01*
X798593Y361534D01*
X797676Y361251D01*
X797032Y360855D01*
X796661Y360346D01*
X796563Y359724D01*
X796739Y358988D01*
X797187Y358140D01*
X797909Y357178D01*
X798904Y356103D01*
X787590D01*
X786435Y357178D01*
X785234Y358140D01*
X783985Y358988D01*
X782690Y359724D01*
X781347Y360346D01*
X779958Y360855D01*
X778522Y361251D01*
X777039Y361534D01*
X775510Y361703D01*
X773933Y361760D01*
X783590Y369760D01*
X801247Y361760D01*
D02*
G37*
G36*
X802893Y352152D02*
X805002Y350341D01*
X805999Y349606D01*
X806957Y348984D01*
X807877Y348475D01*
X808759Y348079D01*
X809602Y347796D01*
X810407Y347626D01*
X811173Y347570D01*
X803264Y334802D01*
X803595Y335541D01*
X803726Y336367D01*
X803656Y337280D01*
X803387Y338280D01*
X802919Y339368D01*
X802250Y340543D01*
X801382Y341805D01*
X800313Y343155D01*
X799045Y344592D01*
X797577Y346116D01*
X801780Y353226D01*
X802893Y352152D01*
D02*
G37*
G36*
X1036320Y387350D02*
X1262380Y387350D01*
X1262380Y387350D01*
X1264632Y387350D01*
X1269048Y386472D01*
X1273208Y384749D01*
X1276953Y382247D01*
X1280137Y379063D01*
X1282639Y375319D01*
X1284362Y371158D01*
X1285240Y366742D01*
X1285240Y364490D01*
X1285240Y269594D01*
X1285240Y269594D01*
X1285240Y266356D01*
X1284712Y259902D01*
X1283660Y253512D01*
X1282091Y247229D01*
X1280015Y241095D01*
X1277446Y235151D01*
X1274401Y229436D01*
X1270901Y223988D01*
X1266968Y218843D01*
X1262629Y214036D01*
X1257913Y209598D01*
X1252851Y205560D01*
X1250163Y203754D01*
X1245017Y200295D01*
X1234242Y194157D01*
X1223043Y188832D01*
X1211481Y184350D01*
X1199619Y180734D01*
X1187523Y178004D01*
X1175258Y176176D01*
X1162891Y175260D01*
X1156691Y175260D01*
X1055370Y175260D01*
Y175260D01*
X1054250Y175205D01*
X1052052Y174768D01*
X1049982Y173910D01*
X1048119Y172665D01*
X1046535Y171081D01*
X1045290Y169218D01*
X1044432Y167148D01*
X1043995Y164950D01*
X1043940Y163830D01*
X1043940Y163830D01*
X1043940Y162704D01*
X1043501Y160496D01*
X1042639Y158416D01*
X1041388Y156544D01*
X1039796Y154952D01*
X1037924Y153701D01*
X1035844Y152839D01*
X1033636Y152400D01*
X1032510Y152400D01*
X990744D01*
X988536Y152839D01*
X986456Y153701D01*
X984584Y154952D01*
X982992Y156544D01*
X981741Y158416D01*
X980880Y160496D01*
X980440Y162704D01*
X980440Y163830D01*
X980440Y163830D01*
X980385Y164950D01*
X979948Y167148D01*
X979091Y169218D01*
X977846Y171081D01*
X976261Y172666D01*
X974398Y173910D01*
X972328Y174768D01*
X970130Y175205D01*
X969010Y175260D01*
X935812D01*
X857250Y175260D01*
X857250Y175260D01*
X854503Y175260D01*
X849056Y175977D01*
X843750Y177399D01*
X838674Y179501D01*
X833916Y182248D01*
X829558Y185593D01*
X825673Y189478D01*
X822328Y193836D01*
X819582Y198594D01*
X817479Y203669D01*
X816057Y208976D01*
X815340Y214423D01*
X815340Y217170D01*
X815340Y345440D01*
Y345440D01*
X815340Y346450D01*
X816113Y348317D01*
X817542Y349747D01*
X819409Y350520D01*
X820420Y350520D01*
X896620Y350520D01*
X896620Y350520D01*
X897883Y350520D01*
X900217Y349554D01*
X902003Y347767D01*
X902970Y345433D01*
X902970Y344170D01*
X902970Y300990D01*
Y300990D01*
X903067Y299999D01*
X903826Y298167D01*
X905228Y296766D01*
X907059Y296007D01*
X908050Y295910D01*
X920750Y295910D01*
X920750Y346710D01*
X920750Y347468D01*
X921330Y348868D01*
X922402Y349940D01*
X923802Y350520D01*
X924560Y350520D01*
X996950Y350520D01*
X996950D01*
X999397Y350632D01*
X1004210Y351527D01*
X1008778Y353285D01*
X1012947Y355850D01*
X1016578Y359133D01*
X1019548Y363024D01*
X1021756Y367393D01*
X1023128Y372091D01*
X1023486Y374515D01*
X1023485Y375779D01*
X1023978Y378259D01*
X1024945Y380595D01*
X1026350Y382698D01*
X1028137Y384486D01*
X1030240Y385890D01*
X1032576Y386857D01*
X1035055Y387350D01*
X1036320Y387350D01*
D02*
G37*
G36*
X1336859Y407915D02*
X1338687Y407827D01*
X1328196Y397336D01*
X1328065Y402302D01*
X1333721Y407958D01*
X1333748Y407980D01*
X1333880Y407994D01*
X1334115Y407999D01*
X1336859Y407915D01*
D02*
G37*
%LPC*%
G36*
X920750Y346710D02*
Y346710D01*
D01*
Y346710D01*
D02*
G37*
%LPD*%
D10*
X1815833Y315290D02*
D03*
X1132572D02*
D03*
X449183D02*
D03*
X1580623Y454990D02*
D03*
X897303D02*
D03*
X214233D02*
D03*
D11*
X1829733Y446180D02*
D03*
X1842433D02*
D03*
X1855133D02*
D03*
X1880533D02*
D03*
X1893233D02*
D03*
X1905933D02*
D03*
X1800933Y446180D02*
D03*
X1788233D02*
D03*
X1775533D02*
D03*
X1750133D02*
D03*
X1737433D02*
D03*
X1724733D02*
D03*
X1146473Y446180D02*
D03*
X1159173D02*
D03*
X1171873D02*
D03*
X1197273D02*
D03*
X1209973D02*
D03*
X1222673D02*
D03*
X1117673Y446180D02*
D03*
X1104973D02*
D03*
X1092273D02*
D03*
X1066873D02*
D03*
X1054173D02*
D03*
X1041473D02*
D03*
X463083Y446180D02*
D03*
X475783D02*
D03*
X488483D02*
D03*
X513883D02*
D03*
X526583D02*
D03*
X539283D02*
D03*
X434283Y446180D02*
D03*
X421583D02*
D03*
X408883D02*
D03*
X383483D02*
D03*
X370783D02*
D03*
X358083D02*
D03*
X1566723Y324100D02*
D03*
X1554023D02*
D03*
X1541323D02*
D03*
X1515923D02*
D03*
X1503223D02*
D03*
X1490523D02*
D03*
X1595523Y324100D02*
D03*
X1608223D02*
D03*
X1620923D02*
D03*
X1646323D02*
D03*
X1659023D02*
D03*
X1671723D02*
D03*
X883403Y324100D02*
D03*
X870703D02*
D03*
X858003D02*
D03*
X832603D02*
D03*
X819903D02*
D03*
X807203D02*
D03*
X912203Y324100D02*
D03*
X924903D02*
D03*
X937603D02*
D03*
X963003D02*
D03*
X975703D02*
D03*
X988403D02*
D03*
X200333Y324100D02*
D03*
X187633D02*
D03*
X174933D02*
D03*
X149533D02*
D03*
X136833D02*
D03*
X124133D02*
D03*
X229133Y324100D02*
D03*
X241833D02*
D03*
X254533D02*
D03*
X279933D02*
D03*
X292633D02*
D03*
X305333D02*
D03*
D12*
X1957070Y130970D02*
D03*
Y150970D02*
D03*
X1935480Y130970D02*
D03*
Y150970D02*
D03*
D13*
X1093470Y825500D02*
X1107230D01*
X1056640Y862330D02*
X1093470Y825500D01*
X1056640Y862330D02*
Y937260D01*
X1107230Y825500D02*
X1108080Y824650D01*
X1907070Y150660D02*
X1913260D01*
X1888876Y132466D02*
X1907070Y150660D01*
X1888876Y-31750D02*
Y132466D01*
X1913260Y150660D02*
X1956760D01*
X1913260Y131560D02*
X1956480D01*
X1913260D02*
X1914276Y130544D01*
Y-31750D02*
Y130544D01*
X1956480Y131560D02*
X1957070Y130970D01*
X1956760Y150660D02*
X1957070Y150970D01*
X1863476Y-31750D02*
Y127386D01*
X1905850Y169760D01*
X1913260D01*
D14*
X1375013Y402920D02*
Y428320D01*
Y377520D02*
Y402920D01*
X691753D02*
Y428320D01*
Y377520D02*
Y402920D01*
X8622D02*
Y428320D01*
Y377520D02*
Y402920D01*
X691753Y301320D02*
Y326720D01*
Y275920D02*
Y301320D01*
X2021443Y372440D02*
Y397840D01*
Y347040D02*
Y372440D01*
X1375013Y301320D02*
Y326720D01*
Y275920D02*
Y301320D01*
X1338183Y372440D02*
Y397840D01*
Y347040D02*
Y372440D01*
X654793D02*
Y397840D01*
Y347040D02*
Y372440D01*
X8622Y301320D02*
Y326720D01*
Y275920D02*
Y301320D01*
D15*
X1926590Y405130D02*
X2014153D01*
X1816100D02*
X1926590D01*
X1905933Y425787D02*
X1926590Y405130D01*
X1905933Y425787D02*
Y446180D01*
X1800860Y420370D02*
X1816100Y405130D01*
X1800860Y420370D02*
Y446107D01*
X1800933Y446180D01*
X2014153Y405130D02*
X2021443Y397840D01*
X1595397Y324226D02*
Y352783D01*
X1583690Y364490D02*
X1595397Y352783D01*
X1469390Y364490D02*
X1583690D01*
X1412783D02*
X1469390D01*
X1490523Y343357D01*
Y324100D02*
Y343357D01*
X1595397Y324226D02*
X1595523Y324100D01*
X1375013Y326720D02*
X1412783Y364490D01*
X1244600Y405130D02*
X1330893D01*
X1132840D02*
X1244600D01*
X1222673Y427057D02*
X1244600Y405130D01*
X1222673Y427057D02*
Y446180D01*
X1330893Y405130D02*
X1338183Y397840D01*
X1117673Y420297D02*
X1132840Y405130D01*
X1117673Y420297D02*
Y446180D01*
X452120Y403860D02*
X563880D01*
X539283Y428457D02*
Y446180D01*
X434283Y421697D02*
X452120Y403860D01*
X434283Y421697D02*
Y446180D01*
X912203Y324100D02*
Y352717D01*
X899160Y365760D02*
X912203Y352717D01*
X783590Y365760D02*
X899160D01*
X730793D02*
X783590D01*
X807203Y342147D01*
Y324100D02*
Y342147D01*
X691753Y326720D02*
X730793Y365760D01*
X45720Y367030D02*
X97790D01*
X8622Y329933D02*
X45720Y367030D01*
X229133Y324100D02*
Y356337D01*
X218440Y367030D02*
X229133Y356337D01*
X97790Y367030D02*
X218440D01*
X97790D02*
X124133Y340687D01*
Y324100D02*
Y340687D01*
X8622Y326720D02*
Y329933D01*
X648773Y403860D02*
X654793Y397840D01*
X539283Y428457D02*
X563880Y403860D01*
X648773D01*
D16*
X1210310Y932750D02*
D03*
X1581100Y61894D02*
D03*
X895300Y61895D02*
D03*
X214183Y61894D02*
D03*
X778460Y932750D02*
D03*
D17*
X0Y986000D02*
D03*
X-77500Y693000D02*
D03*
Y493000D02*
D03*
Y293000D02*
D03*
X0Y0D02*
D03*
X642500D02*
D03*
X1382500D02*
D03*
X2025000D02*
D03*
X2102500Y293000D02*
D03*
Y493000D02*
D03*
Y693000D02*
D03*
X2025000Y986000D02*
D03*
X1782500D02*
D03*
X1582500D02*
D03*
X1382500D02*
D03*
X642500D02*
D03*
X442500D02*
D03*
D18*
X-12700Y842010D02*
D03*
D19*
Y867410D02*
D03*
Y892810D02*
D03*
D20*
X86360Y816606D02*
D03*
Y892810D02*
D03*
Y969010D02*
D03*
D21*
X289560Y816610D02*
D03*
Y969010D02*
D03*
D22*
X1338183Y347040D02*
D03*
Y245440D02*
D03*
X654793Y347040D02*
D03*
Y245440D02*
D03*
X691753Y326720D02*
D03*
Y428320D02*
D03*
X8622Y326720D02*
D03*
Y428320D02*
D03*
X1375013Y326720D02*
D03*
Y428320D02*
D03*
X2021443Y347040D02*
D03*
Y245440D02*
D03*
D23*
X1338183Y372440D02*
D03*
Y397840D02*
D03*
Y270840D02*
D03*
Y296240D02*
D03*
X654793Y372440D02*
D03*
Y397840D02*
D03*
Y270840D02*
D03*
Y296240D02*
D03*
X691753Y301320D02*
D03*
Y275920D02*
D03*
Y402920D02*
D03*
Y377520D02*
D03*
X8622Y301320D02*
D03*
Y275920D02*
D03*
Y402920D02*
D03*
Y377520D02*
D03*
X1375013Y301320D02*
D03*
Y275920D02*
D03*
Y402920D02*
D03*
Y377520D02*
D03*
X2021443Y372440D02*
D03*
Y397840D02*
D03*
Y270840D02*
D03*
Y296240D02*
D03*
D24*
X1699260Y100660D02*
D03*
Y200660D02*
D03*
X1014333Y100660D02*
D03*
Y200660D02*
D03*
X332343Y100660D02*
D03*
Y200660D02*
D03*
X894080Y793750D02*
D03*
Y893750D02*
D03*
D25*
X1913260Y131560D02*
D03*
Y169760D02*
D03*
Y150660D02*
D03*
X1228333Y131560D02*
D03*
Y169760D02*
D03*
Y150660D02*
D03*
X546343Y131560D02*
D03*
Y169760D02*
D03*
Y150660D02*
D03*
X1108080Y824650D02*
D03*
Y862850D02*
D03*
Y843750D02*
D03*
D26*
X1156920Y985460D02*
D03*
Y933360D02*
D03*
Y881260D02*
D03*
X1264920D02*
D03*
Y933360D02*
D03*
Y985460D02*
D03*
X1634490Y9190D02*
D03*
Y61290D02*
D03*
Y113390D02*
D03*
X1526490D02*
D03*
Y61290D02*
D03*
Y9190D02*
D03*
X948690D02*
D03*
Y61290D02*
D03*
Y113390D02*
D03*
X840690D02*
D03*
Y61290D02*
D03*
Y9190D02*
D03*
X267573D02*
D03*
Y61290D02*
D03*
Y113390D02*
D03*
X159573D02*
D03*
Y61290D02*
D03*
Y9190D02*
D03*
X831850Y880050D02*
D03*
Y932150D02*
D03*
Y984250D02*
D03*
X723850D02*
D03*
Y932150D02*
D03*
Y880050D02*
D03*
X1595993Y689140D02*
D03*
Y589140D02*
D03*
X229473Y689140D02*
D03*
Y589140D02*
D03*
X102747Y689140D02*
D03*
Y589140D02*
D03*
X785878Y689140D02*
D03*
Y589140D02*
D03*
X1469138Y689140D02*
D03*
Y589140D02*
D03*
X912733Y689140D02*
D03*
Y589140D02*
D03*
D27*
X2008743Y630250D02*
D03*
X1733743D02*
D03*
X1325483D02*
D03*
X1050483D02*
D03*
X642903D02*
D03*
X367903D02*
D03*
X1631950Y906780D02*
D03*
Y856780D02*
D03*
D28*
X546089Y-31750D02*
D03*
X1056640Y937260D02*
D03*
X1228079Y-31750D02*
D03*
X1914276D02*
D03*
D29*
X520689D02*
D03*
X495289D02*
D03*
X1082040Y937260D02*
D03*
X1107440D02*
D03*
X1202679Y-31750D02*
D03*
X1177279D02*
D03*
X1888876D02*
D03*
X1863476D02*
D03*
D30*
X1480820Y865340D02*
D03*
Y916940D02*
D03*
Y813740D02*
D03*
D31*
X2140002Y831300D02*
D03*
X2126002Y803300D02*
D03*
X2140002Y775300D02*
D03*
X2126002Y747300D02*
D03*
Y635300D02*
D03*
X2140002Y607300D02*
D03*
X2126002Y579300D02*
D03*
X2140002Y551300D02*
D03*
Y439300D02*
D03*
X2126002Y411300D02*
D03*
X2140002Y383300D02*
D03*
X2126002Y355300D02*
D03*
X2140002Y327300D02*
D03*
X2126002Y243300D02*
D03*
X2140002Y215300D02*
D03*
X2126002Y187300D02*
D03*
X2140002Y159300D02*
D03*
X2098002Y859300D02*
D03*
X2112002Y831300D02*
D03*
X2098002Y803300D02*
D03*
X2112002Y775300D02*
D03*
X2098002Y747300D02*
D03*
Y635300D02*
D03*
X2112002Y607300D02*
D03*
X2098002Y579300D02*
D03*
X2112002Y551300D02*
D03*
Y439300D02*
D03*
X2098002Y411300D02*
D03*
X2112002Y383300D02*
D03*
X2098002Y355300D02*
D03*
Y243300D02*
D03*
X2112002Y215300D02*
D03*
X2098002Y187300D02*
D03*
X2112002Y159300D02*
D03*
X2098002Y131300D02*
D03*
X2070002Y859300D02*
D03*
X2084002Y831300D02*
D03*
X2070002Y803300D02*
D03*
X2084002Y775300D02*
D03*
X2070002Y747300D02*
D03*
Y635300D02*
D03*
X2084002Y607300D02*
D03*
X2070002Y579300D02*
D03*
X2084002Y551300D02*
D03*
Y439300D02*
D03*
X2070002Y411300D02*
D03*
X2084002Y383300D02*
D03*
X2070002Y355300D02*
D03*
Y243300D02*
D03*
X2084002Y215300D02*
D03*
X2070002Y187300D02*
D03*
X2084002Y159300D02*
D03*
X2070002Y131300D02*
D03*
X2056002Y943300D02*
D03*
X2042002Y915300D02*
D03*
X2056002Y887300D02*
D03*
X2042002Y859300D02*
D03*
X2056002Y831300D02*
D03*
X2042002Y803300D02*
D03*
X2056002Y775300D02*
D03*
X2042002Y747300D02*
D03*
X2056002Y719300D02*
D03*
X2042002Y691300D02*
D03*
X2056002Y663300D02*
D03*
X2042002Y635300D02*
D03*
X2056002Y607300D02*
D03*
X2042002Y579300D02*
D03*
X2056002Y551300D02*
D03*
X2042002Y523300D02*
D03*
Y467300D02*
D03*
X2056002Y439300D02*
D03*
X2042002Y411300D02*
D03*
X2056002Y383300D02*
D03*
X2042002Y355300D02*
D03*
X2056002Y327300D02*
D03*
X2042002Y299300D02*
D03*
X2056002Y271300D02*
D03*
X2042002Y243300D02*
D03*
X2056002Y215300D02*
D03*
X2042002Y187300D02*
D03*
X2056002Y159300D02*
D03*
X2042002Y131300D02*
D03*
X2056002Y103300D02*
D03*
X2042002Y75300D02*
D03*
X2056002Y47300D02*
D03*
X2014002Y915300D02*
D03*
X2028002Y887300D02*
D03*
X2014002Y859300D02*
D03*
X2028002Y831300D02*
D03*
X2014002Y803300D02*
D03*
X2028002Y775300D02*
D03*
X2014002Y747300D02*
D03*
X2028002Y719300D02*
D03*
X2014002Y691300D02*
D03*
X2028002Y663300D02*
D03*
Y607300D02*
D03*
X2014002Y579300D02*
D03*
X2028002Y551300D02*
D03*
X2014002Y523300D02*
D03*
X2028002Y495300D02*
D03*
X2014002Y467300D02*
D03*
X2028002Y439300D02*
D03*
Y327300D02*
D03*
Y215300D02*
D03*
X2014002Y187300D02*
D03*
X2028002Y159300D02*
D03*
X2014002Y131300D02*
D03*
X2028002Y103300D02*
D03*
X2014002Y75300D02*
D03*
X2000002Y943300D02*
D03*
X1986002Y915300D02*
D03*
X2000002Y887300D02*
D03*
X1986002Y859300D02*
D03*
X2000002Y831300D02*
D03*
X1986002Y803300D02*
D03*
X2000002Y775300D02*
D03*
X1986002Y747300D02*
D03*
X2000002Y719300D02*
D03*
X1986002Y691300D02*
D03*
X2000002Y663300D02*
D03*
X1986002Y635300D02*
D03*
X2000002Y607300D02*
D03*
X1986002Y579300D02*
D03*
X2000002Y551300D02*
D03*
X1986002Y523300D02*
D03*
X2000002Y495300D02*
D03*
X1986002Y467300D02*
D03*
X2000002Y439300D02*
D03*
Y383300D02*
D03*
X1986002Y355300D02*
D03*
X2000002Y327300D02*
D03*
X1986002Y299300D02*
D03*
X2000002Y271300D02*
D03*
X1986002Y243300D02*
D03*
X2000002Y215300D02*
D03*
X1986002Y187300D02*
D03*
X2000002Y159300D02*
D03*
X1986002Y131300D02*
D03*
X2000002Y103300D02*
D03*
X1986002Y75300D02*
D03*
X2000002Y47300D02*
D03*
X1986002Y-36700D02*
D03*
X1972002Y999300D02*
D03*
X1958002Y971300D02*
D03*
X1972002Y943300D02*
D03*
X1958002Y915300D02*
D03*
X1972002Y887300D02*
D03*
X1958002Y859300D02*
D03*
X1972002Y831300D02*
D03*
X1958002Y803300D02*
D03*
X1972002Y775300D02*
D03*
X1958002Y747300D02*
D03*
X1972002Y719300D02*
D03*
X1958002Y691300D02*
D03*
X1972002Y663300D02*
D03*
X1958002Y635300D02*
D03*
X1972002Y607300D02*
D03*
X1958002Y579300D02*
D03*
X1972002Y551300D02*
D03*
X1958002Y523300D02*
D03*
X1972002Y495300D02*
D03*
X1958002Y467300D02*
D03*
X1972002Y439300D02*
D03*
Y215300D02*
D03*
X1958002Y187300D02*
D03*
X1972002Y103300D02*
D03*
X1958002Y75300D02*
D03*
X1972002Y47300D02*
D03*
X1958002Y19300D02*
D03*
X1972002Y-8700D02*
D03*
X1958002Y-36700D02*
D03*
X1944002Y999300D02*
D03*
X1930002Y971300D02*
D03*
X1944002Y943300D02*
D03*
X1930002Y915300D02*
D03*
X1944002Y887300D02*
D03*
X1930002Y859300D02*
D03*
X1944002Y831300D02*
D03*
X1930002Y803300D02*
D03*
X1944002Y775300D02*
D03*
X1930002Y747300D02*
D03*
X1944002Y719300D02*
D03*
X1930002Y691300D02*
D03*
X1944002Y663300D02*
D03*
X1930002Y635300D02*
D03*
X1944002Y607300D02*
D03*
X1930002Y579300D02*
D03*
X1944002Y551300D02*
D03*
X1930002Y523300D02*
D03*
X1944002Y495300D02*
D03*
X1930002Y467300D02*
D03*
X1944002Y439300D02*
D03*
Y103300D02*
D03*
Y47300D02*
D03*
Y-8700D02*
D03*
X1916002Y999300D02*
D03*
X1902002Y971300D02*
D03*
X1916002Y943300D02*
D03*
X1902002Y915300D02*
D03*
X1916002Y887300D02*
D03*
X1902002Y859300D02*
D03*
X1916002Y831300D02*
D03*
Y775300D02*
D03*
Y719300D02*
D03*
Y663300D02*
D03*
Y607300D02*
D03*
Y551300D02*
D03*
X1902002Y523300D02*
D03*
X1916002Y495300D02*
D03*
X1888002Y999300D02*
D03*
X1874002Y971300D02*
D03*
X1888002Y943300D02*
D03*
X1874002Y915300D02*
D03*
X1888002Y887300D02*
D03*
X1874002Y859300D02*
D03*
X1888002Y495300D02*
D03*
X1860002Y999300D02*
D03*
X1846002Y971300D02*
D03*
X1860002Y943300D02*
D03*
X1846002Y915300D02*
D03*
X1860002Y887300D02*
D03*
X1846002Y859300D02*
D03*
X1860002Y495300D02*
D03*
Y159300D02*
D03*
X1832002Y999300D02*
D03*
Y943300D02*
D03*
X1818002Y915300D02*
D03*
X1832002Y887300D02*
D03*
X1818002Y859300D02*
D03*
X1832002Y495300D02*
D03*
X1818002Y467300D02*
D03*
X1832002Y159300D02*
D03*
X1818002Y131300D02*
D03*
X1832002Y103300D02*
D03*
X1818002Y75300D02*
D03*
X1832002Y47300D02*
D03*
X1818002Y19300D02*
D03*
X1832002Y-8700D02*
D03*
X1818002Y-36700D02*
D03*
X1790002Y915300D02*
D03*
X1804002Y887300D02*
D03*
X1790002Y859300D02*
D03*
X1804002Y495300D02*
D03*
X1790002Y411300D02*
D03*
X1804002Y159300D02*
D03*
Y103300D02*
D03*
Y47300D02*
D03*
Y-8700D02*
D03*
X1790002Y-36700D02*
D03*
X1762002Y915300D02*
D03*
X1776002Y887300D02*
D03*
X1762002Y859300D02*
D03*
X1776002Y495300D02*
D03*
X1762002Y467300D02*
D03*
Y411300D02*
D03*
X1776002Y159300D02*
D03*
X1734002Y971300D02*
D03*
X1748002Y943300D02*
D03*
X1734002Y915300D02*
D03*
X1748002Y887300D02*
D03*
X1734002Y859300D02*
D03*
X1748002Y495300D02*
D03*
X1734002Y411300D02*
D03*
X1720002Y999300D02*
D03*
X1706002Y971300D02*
D03*
X1720002Y943300D02*
D03*
X1706002Y915300D02*
D03*
X1720002Y887300D02*
D03*
X1706002Y859300D02*
D03*
X1692002Y999300D02*
D03*
X1678002Y971300D02*
D03*
X1692002Y943300D02*
D03*
X1678002Y915300D02*
D03*
X1692002Y887300D02*
D03*
X1678002Y859300D02*
D03*
X1664002Y999300D02*
D03*
X1650002Y971300D02*
D03*
X1664002Y943300D02*
D03*
X1650002Y915300D02*
D03*
X1664002Y887300D02*
D03*
X1650002Y691300D02*
D03*
X1636002Y999300D02*
D03*
Y943300D02*
D03*
Y887300D02*
D03*
Y719300D02*
D03*
X1622002Y691300D02*
D03*
X1636002Y663300D02*
D03*
X1608002Y943300D02*
D03*
X1594002Y915300D02*
D03*
X1608002Y887300D02*
D03*
Y719300D02*
D03*
Y663300D02*
D03*
X1566002Y915300D02*
D03*
X1580002Y887300D02*
D03*
Y719300D02*
D03*
X1566002Y691300D02*
D03*
X1580002Y663300D02*
D03*
X1552002Y943300D02*
D03*
X1538002Y915300D02*
D03*
X1552002Y719300D02*
D03*
X1538002Y691300D02*
D03*
X1552002Y663300D02*
D03*
X1524002Y999300D02*
D03*
X1510002Y971300D02*
D03*
X1524002Y943300D02*
D03*
Y719300D02*
D03*
X1510002Y691300D02*
D03*
X1524002Y663300D02*
D03*
X1496002Y999300D02*
D03*
X1482002Y971300D02*
D03*
X1496002Y943300D02*
D03*
Y719300D02*
D03*
Y663300D02*
D03*
X1482002Y243300D02*
D03*
Y187300D02*
D03*
X1468002Y999300D02*
D03*
X1454002Y971300D02*
D03*
X1468002Y943300D02*
D03*
Y719300D02*
D03*
Y663300D02*
D03*
X1454002Y299300D02*
D03*
X1468002Y271300D02*
D03*
X1454002Y243300D02*
D03*
X1468002Y215300D02*
D03*
X1454002Y187300D02*
D03*
Y131300D02*
D03*
Y75300D02*
D03*
Y19300D02*
D03*
Y-36700D02*
D03*
X1440002Y999300D02*
D03*
Y943300D02*
D03*
X1426002Y915300D02*
D03*
X1440002Y887300D02*
D03*
X1426002Y859300D02*
D03*
X1440002Y719300D02*
D03*
X1426002Y691300D02*
D03*
X1440002Y663300D02*
D03*
X1426002Y299300D02*
D03*
X1440002Y271300D02*
D03*
X1426002Y243300D02*
D03*
X1440002Y215300D02*
D03*
X1426002Y187300D02*
D03*
X1440002Y159300D02*
D03*
X1426002Y131300D02*
D03*
X1440002Y103300D02*
D03*
X1426002Y75300D02*
D03*
X1440002Y47300D02*
D03*
Y-8700D02*
D03*
X1426002Y-36700D02*
D03*
X1412002Y943300D02*
D03*
X1398002Y915300D02*
D03*
X1412002Y887300D02*
D03*
X1398002Y859300D02*
D03*
X1412002Y719300D02*
D03*
X1398002Y691300D02*
D03*
X1412002Y663300D02*
D03*
X1398002Y635300D02*
D03*
X1412002Y271300D02*
D03*
X1398002Y243300D02*
D03*
X1412002Y215300D02*
D03*
X1398002Y187300D02*
D03*
X1412002Y159300D02*
D03*
X1398002Y131300D02*
D03*
X1412002Y103300D02*
D03*
X1398002Y75300D02*
D03*
X1412002Y47300D02*
D03*
X1370002Y915300D02*
D03*
X1384002Y887300D02*
D03*
X1370002Y859300D02*
D03*
X1384002Y719300D02*
D03*
X1370002Y691300D02*
D03*
X1384002Y663300D02*
D03*
X1370002Y635300D02*
D03*
X1384002Y607300D02*
D03*
X1370002Y579300D02*
D03*
X1384002Y551300D02*
D03*
X1370002Y523300D02*
D03*
X1384002Y495300D02*
D03*
X1370002Y467300D02*
D03*
Y243300D02*
D03*
X1384002Y215300D02*
D03*
X1370002Y187300D02*
D03*
X1384002Y159300D02*
D03*
X1370002Y131300D02*
D03*
X1384002Y103300D02*
D03*
X1370002Y75300D02*
D03*
X1356002Y943300D02*
D03*
X1342002Y915300D02*
D03*
X1356002Y887300D02*
D03*
X1342002Y859300D02*
D03*
X1356002Y719300D02*
D03*
X1342002Y691300D02*
D03*
X1356002Y663300D02*
D03*
X1342002Y635300D02*
D03*
X1356002Y607300D02*
D03*
X1342002Y579300D02*
D03*
X1356002Y551300D02*
D03*
X1342002Y523300D02*
D03*
X1356002Y495300D02*
D03*
X1342002Y467300D02*
D03*
X1356002Y215300D02*
D03*
X1342002Y187300D02*
D03*
X1356002Y159300D02*
D03*
X1342002Y131300D02*
D03*
X1356002Y103300D02*
D03*
X1342002Y75300D02*
D03*
X1356002Y47300D02*
D03*
X1342002Y-36700D02*
D03*
X1328002Y999300D02*
D03*
X1314003Y971300D02*
D03*
X1328002Y943300D02*
D03*
X1314003Y915300D02*
D03*
X1328002Y887300D02*
D03*
X1314003Y859300D02*
D03*
Y691300D02*
D03*
X1328002Y663300D02*
D03*
Y607300D02*
D03*
X1314003Y579300D02*
D03*
X1328002Y551300D02*
D03*
X1314003Y523300D02*
D03*
X1328002Y495300D02*
D03*
X1314003Y467300D02*
D03*
X1328002Y439300D02*
D03*
X1314003Y355300D02*
D03*
X1328002Y327300D02*
D03*
X1314003Y299300D02*
D03*
Y243300D02*
D03*
X1328002Y215300D02*
D03*
X1314003Y187300D02*
D03*
X1328002Y159300D02*
D03*
X1314003Y131300D02*
D03*
X1328002Y103300D02*
D03*
X1314003Y75300D02*
D03*
X1328002Y47300D02*
D03*
X1314003Y19300D02*
D03*
X1328002Y-8700D02*
D03*
X1314003Y-36700D02*
D03*
X1300002Y999300D02*
D03*
X1286003Y971300D02*
D03*
X1300002Y943300D02*
D03*
X1286003Y915300D02*
D03*
X1300002Y887300D02*
D03*
X1286003Y859300D02*
D03*
X1300002Y551300D02*
D03*
X1286003Y523300D02*
D03*
X1300002Y495300D02*
D03*
X1286003Y467300D02*
D03*
X1300002Y439300D02*
D03*
Y383300D02*
D03*
Y327300D02*
D03*
Y271300D02*
D03*
Y215300D02*
D03*
X1286003Y187300D02*
D03*
X1300002Y159300D02*
D03*
Y103300D02*
D03*
X1286003Y75300D02*
D03*
X1300002Y47300D02*
D03*
X1286003Y19300D02*
D03*
X1300002Y-8700D02*
D03*
X1286003Y-36700D02*
D03*
X1258002Y523300D02*
D03*
X1272002Y495300D02*
D03*
X1258002Y467300D02*
D03*
X1272002Y439300D02*
D03*
X1258002Y187300D02*
D03*
X1272002Y103300D02*
D03*
X1258002Y75300D02*
D03*
X1272002Y47300D02*
D03*
X1258002Y19300D02*
D03*
X1272002Y-8700D02*
D03*
X1258002Y-36700D02*
D03*
X1230003Y971300D02*
D03*
Y915300D02*
D03*
Y859300D02*
D03*
X1244003Y495300D02*
D03*
Y439300D02*
D03*
X1216003Y999300D02*
D03*
X1202002Y971300D02*
D03*
X1216003Y943300D02*
D03*
X1202002Y915300D02*
D03*
X1216003Y887300D02*
D03*
X1202002Y859300D02*
D03*
X1216003Y495300D02*
D03*
X1188002Y999300D02*
D03*
Y943300D02*
D03*
Y887300D02*
D03*
X1174003Y859300D02*
D03*
X1188002Y495300D02*
D03*
Y439300D02*
D03*
X1160003Y495300D02*
D03*
Y159300D02*
D03*
X1146003Y131300D02*
D03*
Y75300D02*
D03*
Y19300D02*
D03*
Y-36700D02*
D03*
X1132002Y999300D02*
D03*
X1118002Y971300D02*
D03*
X1132002Y943300D02*
D03*
Y887300D02*
D03*
Y495300D02*
D03*
Y439300D02*
D03*
Y159300D02*
D03*
X1118002Y131300D02*
D03*
X1132002Y103300D02*
D03*
X1118002Y75300D02*
D03*
X1132002Y47300D02*
D03*
X1118002Y19300D02*
D03*
X1132002Y-8700D02*
D03*
X1118002Y-36700D02*
D03*
X1104003Y999300D02*
D03*
X1090003Y971300D02*
D03*
X1104003Y495300D02*
D03*
X1090003Y411300D02*
D03*
X1104003Y159300D02*
D03*
X1076003Y999300D02*
D03*
X1062002Y971300D02*
D03*
X1076003Y495300D02*
D03*
X1062002Y411300D02*
D03*
X1048002Y999300D02*
D03*
X1034003Y971300D02*
D03*
Y915300D02*
D03*
Y859300D02*
D03*
X1048002Y495300D02*
D03*
X1020003Y999300D02*
D03*
X1006003Y971300D02*
D03*
X1020003Y943300D02*
D03*
X1006003Y915300D02*
D03*
X1020003Y887300D02*
D03*
X1006003Y859300D02*
D03*
X992002Y999300D02*
D03*
Y943300D02*
D03*
Y887300D02*
D03*
X978002Y859300D02*
D03*
X964003Y719300D02*
D03*
X950003Y691300D02*
D03*
X964003Y663300D02*
D03*
X936003Y719300D02*
D03*
Y663300D02*
D03*
X908002Y719300D02*
D03*
Y663300D02*
D03*
X880003Y719300D02*
D03*
X866003Y691300D02*
D03*
X880003Y663300D02*
D03*
X852002Y719300D02*
D03*
X838002Y691300D02*
D03*
X852002Y663300D02*
D03*
X824003Y719300D02*
D03*
Y663300D02*
D03*
X796003Y719300D02*
D03*
Y663300D02*
D03*
X782003Y299300D02*
D03*
X796003Y271300D02*
D03*
X782003Y243300D02*
D03*
X796003Y215300D02*
D03*
X782003Y187300D02*
D03*
Y-36700D02*
D03*
X768003Y719300D02*
D03*
X754003Y691300D02*
D03*
X768003Y663300D02*
D03*
X754003Y299300D02*
D03*
X768003Y271300D02*
D03*
X754003Y243300D02*
D03*
X768003Y215300D02*
D03*
X754003Y187300D02*
D03*
X768003Y159300D02*
D03*
X754003Y131300D02*
D03*
X768003Y103300D02*
D03*
X754003Y75300D02*
D03*
X768003Y47300D02*
D03*
X754003Y19300D02*
D03*
X768003Y-8700D02*
D03*
X754003Y-36700D02*
D03*
X740003Y719300D02*
D03*
X726003Y691300D02*
D03*
X740003Y663300D02*
D03*
X726003Y299300D02*
D03*
X740003Y271300D02*
D03*
X726003Y243300D02*
D03*
X740003Y215300D02*
D03*
X726003Y187300D02*
D03*
X740003Y159300D02*
D03*
X726003Y131300D02*
D03*
X740003Y103300D02*
D03*
X726003Y75300D02*
D03*
X740003Y47300D02*
D03*
X726003Y19300D02*
D03*
X740003Y-8700D02*
D03*
X726003Y-36700D02*
D03*
X712003Y719300D02*
D03*
X698003Y691300D02*
D03*
X712003Y663300D02*
D03*
X698003Y635300D02*
D03*
Y579300D02*
D03*
Y523300D02*
D03*
Y467300D02*
D03*
Y243300D02*
D03*
X712003Y215300D02*
D03*
X698003Y187300D02*
D03*
X712003Y159300D02*
D03*
X698003Y131300D02*
D03*
X712003Y103300D02*
D03*
X698003Y75300D02*
D03*
X712003Y47300D02*
D03*
X698003Y19300D02*
D03*
X712003Y-8700D02*
D03*
X698003Y-36700D02*
D03*
X670003Y915300D02*
D03*
Y859300D02*
D03*
X684003Y719300D02*
D03*
X670003Y691300D02*
D03*
X684003Y663300D02*
D03*
X670003Y635300D02*
D03*
X684003Y607300D02*
D03*
X670003Y579300D02*
D03*
X684003Y551300D02*
D03*
X670003Y523300D02*
D03*
X684003Y495300D02*
D03*
X670003Y467300D02*
D03*
Y243300D02*
D03*
X684003Y215300D02*
D03*
X670003Y187300D02*
D03*
X684003Y159300D02*
D03*
X670003Y131300D02*
D03*
X684003Y103300D02*
D03*
X670003Y75300D02*
D03*
X684003Y47300D02*
D03*
X642003Y915300D02*
D03*
X656003Y887300D02*
D03*
X642003Y859300D02*
D03*
Y691300D02*
D03*
X656003Y663300D02*
D03*
Y607300D02*
D03*
X642003Y579300D02*
D03*
X656003Y551300D02*
D03*
X642003Y523300D02*
D03*
X656003Y495300D02*
D03*
X642003Y467300D02*
D03*
X656003Y439300D02*
D03*
Y327300D02*
D03*
X642003Y299300D02*
D03*
Y243300D02*
D03*
X656003Y215300D02*
D03*
X642003Y187300D02*
D03*
X656003Y159300D02*
D03*
X642003Y131300D02*
D03*
X656003Y103300D02*
D03*
X642003Y75300D02*
D03*
X656003Y47300D02*
D03*
X614003Y915300D02*
D03*
X628003Y887300D02*
D03*
X614003Y859300D02*
D03*
X628003Y663300D02*
D03*
Y607300D02*
D03*
Y551300D02*
D03*
X614003Y523300D02*
D03*
X628003Y495300D02*
D03*
X614003Y467300D02*
D03*
X628003Y439300D02*
D03*
Y383300D02*
D03*
Y327300D02*
D03*
Y271300D02*
D03*
X614003Y243300D02*
D03*
X628003Y215300D02*
D03*
X614003Y187300D02*
D03*
X628003Y159300D02*
D03*
X614003Y131300D02*
D03*
X628003Y103300D02*
D03*
X614003Y75300D02*
D03*
X628003Y47300D02*
D03*
X586003Y971300D02*
D03*
X600003Y943300D02*
D03*
X586003Y915300D02*
D03*
X600003Y887300D02*
D03*
X586003Y859300D02*
D03*
Y523300D02*
D03*
X600003Y495300D02*
D03*
X586003Y467300D02*
D03*
X600003Y439300D02*
D03*
X586003Y187300D02*
D03*
X600003Y103300D02*
D03*
X586003Y75300D02*
D03*
X600003Y47300D02*
D03*
X586003Y19300D02*
D03*
Y-36700D02*
D03*
X572003Y999300D02*
D03*
X558003Y971300D02*
D03*
X572003Y943300D02*
D03*
X558003Y915300D02*
D03*
X572003Y887300D02*
D03*
X558003Y859300D02*
D03*
X572003Y495300D02*
D03*
X558003Y467300D02*
D03*
X572003Y439300D02*
D03*
Y103300D02*
D03*
Y47300D02*
D03*
Y-8700D02*
D03*
X544003Y999300D02*
D03*
X530003Y971300D02*
D03*
X544003Y943300D02*
D03*
X530003Y915300D02*
D03*
X544003Y887300D02*
D03*
X530003Y859300D02*
D03*
X544003Y495300D02*
D03*
X516003Y999300D02*
D03*
X502003Y971300D02*
D03*
X516003Y943300D02*
D03*
X502003Y915300D02*
D03*
X516003Y887300D02*
D03*
X502003Y859300D02*
D03*
X516003Y495300D02*
D03*
X502003Y467300D02*
D03*
X488003Y943300D02*
D03*
X474003Y915300D02*
D03*
X488003Y887300D02*
D03*
X474003Y859300D02*
D03*
X488003Y495300D02*
D03*
Y159300D02*
D03*
X474003Y131300D02*
D03*
Y75300D02*
D03*
Y19300D02*
D03*
X446003Y915300D02*
D03*
X460003Y887300D02*
D03*
X446003Y859300D02*
D03*
X460003Y495300D02*
D03*
Y159300D02*
D03*
X446003Y131300D02*
D03*
X460003Y103300D02*
D03*
X446003Y75300D02*
D03*
X460003Y47300D02*
D03*
X446003Y19300D02*
D03*
X460003Y-8700D02*
D03*
X446003Y-36700D02*
D03*
X418003Y915300D02*
D03*
X432003Y887300D02*
D03*
X418003Y859300D02*
D03*
X432003Y495300D02*
D03*
X418003Y411300D02*
D03*
X432003Y159300D02*
D03*
X418003Y-36700D02*
D03*
X390003Y971300D02*
D03*
X404003Y943300D02*
D03*
X390003Y915300D02*
D03*
X404003Y887300D02*
D03*
X390003Y859300D02*
D03*
X404003Y495300D02*
D03*
X390003Y411300D02*
D03*
X376003Y999300D02*
D03*
X362003Y971300D02*
D03*
X376003Y943300D02*
D03*
X362003Y915300D02*
D03*
X376003Y887300D02*
D03*
X362003Y859300D02*
D03*
X376003Y495300D02*
D03*
X362003Y411300D02*
D03*
X348003Y999300D02*
D03*
X334003Y971300D02*
D03*
X348003Y943300D02*
D03*
X334003Y915300D02*
D03*
X348003Y887300D02*
D03*
X334003Y859300D02*
D03*
X320003Y999300D02*
D03*
X306003Y971300D02*
D03*
X320003Y943300D02*
D03*
X306003Y915300D02*
D03*
X320003Y887300D02*
D03*
X306003Y859300D02*
D03*
X292003Y999300D02*
D03*
Y943300D02*
D03*
X278003Y915300D02*
D03*
X292003Y887300D02*
D03*
X278003Y859300D02*
D03*
X292003Y775300D02*
D03*
X278003Y747300D02*
D03*
X292003Y719300D02*
D03*
X278003Y691300D02*
D03*
X292003Y663300D02*
D03*
X264003Y999300D02*
D03*
X250003Y971300D02*
D03*
X264003Y943300D02*
D03*
X250003Y915300D02*
D03*
X264003Y887300D02*
D03*
X250003Y859300D02*
D03*
X264003Y831300D02*
D03*
X250003Y747300D02*
D03*
X264003Y719300D02*
D03*
Y663300D02*
D03*
X236003Y999300D02*
D03*
X222003Y971300D02*
D03*
X236003Y943300D02*
D03*
X222003Y915300D02*
D03*
X236003Y887300D02*
D03*
X222003Y859300D02*
D03*
X236003Y831300D02*
D03*
X222003Y803300D02*
D03*
Y747300D02*
D03*
X236003Y719300D02*
D03*
Y663300D02*
D03*
X208003Y999300D02*
D03*
X194003Y971300D02*
D03*
X208003Y943300D02*
D03*
X194003Y915300D02*
D03*
X208003Y887300D02*
D03*
X194003Y859300D02*
D03*
X208003Y831300D02*
D03*
X194003Y803300D02*
D03*
X208003Y775300D02*
D03*
X194003Y747300D02*
D03*
X208003Y719300D02*
D03*
X194003Y691300D02*
D03*
X208003Y663300D02*
D03*
X180003Y999300D02*
D03*
X166003Y971300D02*
D03*
X180003Y943300D02*
D03*
X166003Y915300D02*
D03*
X180003Y887300D02*
D03*
X166003Y859300D02*
D03*
X180003Y831300D02*
D03*
X166003Y803300D02*
D03*
X180003Y775300D02*
D03*
X166003Y747300D02*
D03*
X180003Y719300D02*
D03*
X166003Y691300D02*
D03*
X180003Y663300D02*
D03*
X152003Y999300D02*
D03*
X138003Y971300D02*
D03*
X152003Y943300D02*
D03*
X138003Y915300D02*
D03*
X152003Y887300D02*
D03*
X138003Y859300D02*
D03*
X152003Y831300D02*
D03*
X138003Y803300D02*
D03*
X152003Y775300D02*
D03*
X138003Y747300D02*
D03*
X152003Y719300D02*
D03*
X138003Y691300D02*
D03*
X152003Y663300D02*
D03*
X124003Y999300D02*
D03*
Y943300D02*
D03*
X110003Y915300D02*
D03*
X124003Y887300D02*
D03*
X110003Y803300D02*
D03*
X124003Y775300D02*
D03*
X110003Y747300D02*
D03*
X124003Y719300D02*
D03*
Y663300D02*
D03*
X110003Y243300D02*
D03*
Y187300D02*
D03*
Y-36700D02*
D03*
X96003Y999300D02*
D03*
Y943300D02*
D03*
Y775300D02*
D03*
X82003Y747300D02*
D03*
X96003Y719300D02*
D03*
Y663300D02*
D03*
X82003Y299300D02*
D03*
X96003Y271300D02*
D03*
X82003Y243300D02*
D03*
X96003Y215300D02*
D03*
X82003Y187300D02*
D03*
X96003Y159300D02*
D03*
X82003Y131300D02*
D03*
X96003Y103300D02*
D03*
X82003Y75300D02*
D03*
X96003Y47300D02*
D03*
X82003Y19300D02*
D03*
X96003Y-8700D02*
D03*
X82003Y-36700D02*
D03*
X68003Y999300D02*
D03*
Y775300D02*
D03*
X54003Y747300D02*
D03*
X68003Y719300D02*
D03*
X54003Y691300D02*
D03*
X68003Y663300D02*
D03*
X54003Y299300D02*
D03*
X68003Y271300D02*
D03*
X54003Y243300D02*
D03*
X68003Y215300D02*
D03*
X54003Y187300D02*
D03*
X68003Y159300D02*
D03*
X54003Y131300D02*
D03*
X68003Y103300D02*
D03*
X54003Y75300D02*
D03*
X68003Y47300D02*
D03*
X54003Y19300D02*
D03*
X68003Y-8700D02*
D03*
X54003Y-36700D02*
D03*
X40003Y775300D02*
D03*
X26003Y747300D02*
D03*
X40003Y719300D02*
D03*
X26003Y691300D02*
D03*
X40003Y663300D02*
D03*
X26003Y635300D02*
D03*
X40003Y271300D02*
D03*
X26003Y243300D02*
D03*
X40003Y215300D02*
D03*
X26003Y187300D02*
D03*
X40003Y159300D02*
D03*
X26003Y131300D02*
D03*
X40003Y103300D02*
D03*
X26003Y75300D02*
D03*
X40003Y47300D02*
D03*
X-1997Y803300D02*
D03*
X12003Y775300D02*
D03*
X-1997Y747300D02*
D03*
X12003Y719300D02*
D03*
X-1997Y691300D02*
D03*
X12003Y663300D02*
D03*
X-1997Y635300D02*
D03*
X12003Y607300D02*
D03*
X-1997Y579300D02*
D03*
X12003Y551300D02*
D03*
X-1997Y523300D02*
D03*
X12003Y495300D02*
D03*
X-1997Y467300D02*
D03*
Y243300D02*
D03*
X12003Y215300D02*
D03*
X-1997Y187300D02*
D03*
X12003Y159300D02*
D03*
X-1997Y131300D02*
D03*
X12003Y103300D02*
D03*
X-1997Y75300D02*
D03*
X-29997Y915300D02*
D03*
Y803300D02*
D03*
X-15997Y775300D02*
D03*
X-29997Y747300D02*
D03*
X-15997Y719300D02*
D03*
Y663300D02*
D03*
X-29997Y635300D02*
D03*
X-15997Y607300D02*
D03*
X-29997Y579300D02*
D03*
X-15997Y551300D02*
D03*
X-29997Y523300D02*
D03*
X-15997Y495300D02*
D03*
X-29997Y467300D02*
D03*
X-15997Y439300D02*
D03*
X-29997Y411300D02*
D03*
X-15997Y383300D02*
D03*
X-29997Y355300D02*
D03*
X-15997Y327300D02*
D03*
Y271300D02*
D03*
X-29997Y243300D02*
D03*
X-15997Y215300D02*
D03*
X-29997Y187300D02*
D03*
X-15997Y159300D02*
D03*
X-29997Y131300D02*
D03*
X-15997Y103300D02*
D03*
X-29997Y75300D02*
D03*
X-15997Y47300D02*
D03*
X-43997Y887300D02*
D03*
X-57997Y859300D02*
D03*
X-43997Y831300D02*
D03*
X-57997Y803300D02*
D03*
X-43997Y775300D02*
D03*
X-57997Y747300D02*
D03*
Y635300D02*
D03*
X-43997Y607300D02*
D03*
X-57997Y579300D02*
D03*
X-43997Y551300D02*
D03*
Y439300D02*
D03*
X-57997Y411300D02*
D03*
X-43997Y383300D02*
D03*
X-57997Y355300D02*
D03*
Y243300D02*
D03*
X-43997Y215300D02*
D03*
X-57997Y187300D02*
D03*
X-43997Y159300D02*
D03*
X-57997Y131300D02*
D03*
X-43997Y103300D02*
D03*
X-71997Y831300D02*
D03*
X-85997Y803300D02*
D03*
X-71997Y775300D02*
D03*
X-85997Y747300D02*
D03*
Y635300D02*
D03*
X-71997Y607300D02*
D03*
X-85997Y579300D02*
D03*
X-71997Y551300D02*
D03*
Y439300D02*
D03*
X-85997Y411300D02*
D03*
X-71997Y383300D02*
D03*
X-85997Y355300D02*
D03*
Y243300D02*
D03*
X-71997Y215300D02*
D03*
X-85997Y187300D02*
D03*
X-71997Y159300D02*
D03*
X-85997Y131300D02*
D03*
X-99997Y831300D02*
D03*
X-113997Y803300D02*
D03*
X-99997Y775300D02*
D03*
X-113997Y747300D02*
D03*
Y635300D02*
D03*
X-99997Y607300D02*
D03*
X-113997Y579300D02*
D03*
X-99997Y551300D02*
D03*
Y439300D02*
D03*
X-113997Y411300D02*
D03*
X-99997Y383300D02*
D03*
X-113997Y355300D02*
D03*
Y243300D02*
D03*
X-99997Y215300D02*
D03*
X-113997Y187300D02*
D03*
X-99997Y159300D02*
D03*
X1959002Y371300D02*
D03*
Y341300D02*
D03*
Y311300D02*
D03*
Y281300D02*
D03*
Y251300D02*
D03*
X1944002Y371300D02*
D03*
X1951502Y356300D02*
D03*
X1944002Y341300D02*
D03*
X1951502Y326300D02*
D03*
X1944002Y311300D02*
D03*
X1951502Y296300D02*
D03*
X1944002Y281300D02*
D03*
X1951502Y266300D02*
D03*
X1944002Y251300D02*
D03*
X1951502Y236300D02*
D03*
X1944002Y221300D02*
D03*
X1929002Y371300D02*
D03*
X1936502Y356300D02*
D03*
X1929002Y341300D02*
D03*
X1936502Y326300D02*
D03*
X1929002Y311300D02*
D03*
X1936502Y296300D02*
D03*
X1929002Y281300D02*
D03*
X1936502Y266300D02*
D03*
X1929002Y251300D02*
D03*
X1936502Y236300D02*
D03*
X1929002Y221300D02*
D03*
X1921502Y236300D02*
D03*
X1914002Y221300D02*
D03*
X1921502Y206300D02*
D03*
X1906502Y236300D02*
D03*
X1899002Y221300D02*
D03*
X1906502Y206300D02*
D03*
X1899002Y191300D02*
D03*
X1891502Y236300D02*
D03*
X1884002Y221300D02*
D03*
X1891502Y206300D02*
D03*
X1884002Y191300D02*
D03*
X1876502Y236300D02*
D03*
X1869002Y221300D02*
D03*
X1876502Y206300D02*
D03*
X1869002Y191300D02*
D03*
X1861502Y236300D02*
D03*
X1854002Y221300D02*
D03*
X1861502Y206300D02*
D03*
X1854002Y191300D02*
D03*
X1846502Y236300D02*
D03*
X1839002Y221300D02*
D03*
X1846502Y206300D02*
D03*
X1839002Y191300D02*
D03*
X1831502Y236300D02*
D03*
X1824002Y221300D02*
D03*
X1831502Y206300D02*
D03*
X1824002Y191300D02*
D03*
X1816502Y236300D02*
D03*
X1809002Y221300D02*
D03*
X1816502Y206300D02*
D03*
X1809002Y191300D02*
D03*
X1801502Y236300D02*
D03*
X1794002Y221300D02*
D03*
X1801502Y206300D02*
D03*
X1794002Y191300D02*
D03*
X1786502Y236300D02*
D03*
X1779002Y221300D02*
D03*
X1786502Y206300D02*
D03*
X1779002Y191300D02*
D03*
X1771502Y236300D02*
D03*
X1764002Y221300D02*
D03*
X1771502Y206300D02*
D03*
X1764002Y191300D02*
D03*
X1756502Y236300D02*
D03*
X1749002Y221300D02*
D03*
X1756502Y206300D02*
D03*
X1749002Y191300D02*
D03*
X1741502Y236300D02*
D03*
X1734002Y221300D02*
D03*
X1741502Y206300D02*
D03*
X1734002Y191300D02*
D03*
X1726502Y236300D02*
D03*
X1719002Y161300D02*
D03*
X1689002Y341300D02*
D03*
X1696502Y326300D02*
D03*
X1689002Y311300D02*
D03*
X1696502Y296300D02*
D03*
X1689002Y281300D02*
D03*
X1696502Y266300D02*
D03*
X1689002Y251300D02*
D03*
X1681502Y326300D02*
D03*
Y296300D02*
D03*
X1674002Y281300D02*
D03*
X1681502Y266300D02*
D03*
X1674002Y251300D02*
D03*
Y161300D02*
D03*
X1659002Y281300D02*
D03*
X1666502Y266300D02*
D03*
X1659002Y251300D02*
D03*
X1666502Y236300D02*
D03*
X1659002Y221300D02*
D03*
X1666502Y206300D02*
D03*
X1659002Y191300D02*
D03*
X1666502Y176300D02*
D03*
X1644002Y281300D02*
D03*
X1651502Y266300D02*
D03*
X1644002Y251300D02*
D03*
X1651502Y236300D02*
D03*
X1644002Y221300D02*
D03*
X1651502Y206300D02*
D03*
X1644002Y191300D02*
D03*
X1636502Y326300D02*
D03*
Y296300D02*
D03*
X1629002Y281300D02*
D03*
X1636502Y266300D02*
D03*
X1629002Y251300D02*
D03*
X1636502Y236300D02*
D03*
X1629002Y221300D02*
D03*
X1636502Y206300D02*
D03*
X1629002Y191300D02*
D03*
X1614002Y281300D02*
D03*
X1621502Y266300D02*
D03*
X1614002Y251300D02*
D03*
X1621502Y236300D02*
D03*
X1614002Y221300D02*
D03*
X1621502Y206300D02*
D03*
X1614002Y191300D02*
D03*
X1599002Y281300D02*
D03*
X1606502Y266300D02*
D03*
X1599002Y251300D02*
D03*
X1606502Y236300D02*
D03*
X1599002Y221300D02*
D03*
X1606502Y206300D02*
D03*
X1599002Y191300D02*
D03*
X1584002Y281300D02*
D03*
X1591502Y266300D02*
D03*
X1584002Y251300D02*
D03*
X1591502Y236300D02*
D03*
X1584002Y221300D02*
D03*
X1591502Y206300D02*
D03*
X1584002Y191300D02*
D03*
X1576502Y326300D02*
D03*
Y296300D02*
D03*
X1569002Y281300D02*
D03*
X1576502Y266300D02*
D03*
X1569002Y251300D02*
D03*
X1576502Y236300D02*
D03*
X1569002Y221300D02*
D03*
X1576502Y206300D02*
D03*
X1569002Y191300D02*
D03*
X1554002Y281300D02*
D03*
X1561502Y266300D02*
D03*
X1554002Y251300D02*
D03*
X1561502Y236300D02*
D03*
X1554002Y221300D02*
D03*
X1561502Y206300D02*
D03*
X1554002Y191300D02*
D03*
X1539002Y281300D02*
D03*
X1546502Y266300D02*
D03*
X1539002Y251300D02*
D03*
X1546502Y236300D02*
D03*
X1539002Y221300D02*
D03*
X1546502Y206300D02*
D03*
X1539002Y191300D02*
D03*
X1531502Y326300D02*
D03*
Y296300D02*
D03*
X1524002Y281300D02*
D03*
X1531502Y266300D02*
D03*
X1524002Y251300D02*
D03*
X1531502Y236300D02*
D03*
X1524002Y221300D02*
D03*
X1531502Y206300D02*
D03*
X1524002Y191300D02*
D03*
X1509002Y281300D02*
D03*
X1516502Y266300D02*
D03*
X1509002Y251300D02*
D03*
X1516502Y236300D02*
D03*
X1509002Y221300D02*
D03*
X1516502Y206300D02*
D03*
X1269002Y371300D02*
D03*
X1276502Y356300D02*
D03*
X1269002Y341300D02*
D03*
X1276502Y326300D02*
D03*
X1269002Y311300D02*
D03*
X1276502Y296300D02*
D03*
X1269002Y281300D02*
D03*
X1276502Y266300D02*
D03*
X1269002Y251300D02*
D03*
X1254002Y371300D02*
D03*
X1261502Y356300D02*
D03*
X1254002Y341300D02*
D03*
X1261502Y326300D02*
D03*
X1254002Y311300D02*
D03*
X1261502Y296300D02*
D03*
X1254002Y281300D02*
D03*
X1261502Y266300D02*
D03*
X1254002Y251300D02*
D03*
X1261502Y236300D02*
D03*
X1254002Y221300D02*
D03*
X1246502Y356300D02*
D03*
Y326300D02*
D03*
Y296300D02*
D03*
Y266300D02*
D03*
Y236300D02*
D03*
X1239002Y221300D02*
D03*
X1246502Y206300D02*
D03*
X1231502Y236300D02*
D03*
X1224002Y221300D02*
D03*
X1231502Y206300D02*
D03*
X1216502Y236300D02*
D03*
X1209002Y221300D02*
D03*
X1216502Y206300D02*
D03*
X1209002Y191300D02*
D03*
X1201502Y236300D02*
D03*
X1194002Y221300D02*
D03*
X1201502Y206300D02*
D03*
X1194002Y191300D02*
D03*
X1186502Y236300D02*
D03*
X1179002Y221300D02*
D03*
X1186502Y206300D02*
D03*
X1179002Y191300D02*
D03*
X1171502Y236300D02*
D03*
X1164002Y221300D02*
D03*
X1171502Y206300D02*
D03*
X1164002Y191300D02*
D03*
X1156502Y236300D02*
D03*
X1149002Y221300D02*
D03*
X1156502Y206300D02*
D03*
X1149002Y191300D02*
D03*
X1141502Y236300D02*
D03*
X1134002Y221300D02*
D03*
X1141502Y206300D02*
D03*
X1134002Y191300D02*
D03*
X1126502Y236300D02*
D03*
X1119002Y221300D02*
D03*
X1126502Y206300D02*
D03*
X1119002Y191300D02*
D03*
X1111502Y236300D02*
D03*
X1104002Y221300D02*
D03*
X1111502Y206300D02*
D03*
X1104002Y191300D02*
D03*
X1096502Y236300D02*
D03*
X1089002Y221300D02*
D03*
X1096502Y206300D02*
D03*
X1089002Y191300D02*
D03*
X1081502Y236300D02*
D03*
X1074002Y221300D02*
D03*
X1081502Y206300D02*
D03*
X1074002Y191300D02*
D03*
X1066502Y236300D02*
D03*
X1059002Y221300D02*
D03*
X1066502Y206300D02*
D03*
X1059002Y191300D02*
D03*
X1051502Y236300D02*
D03*
Y206300D02*
D03*
X1036502Y236300D02*
D03*
X1014002Y341300D02*
D03*
Y311300D02*
D03*
Y281300D02*
D03*
Y251300D02*
D03*
X999002Y341300D02*
D03*
X1006502Y326300D02*
D03*
X999002Y311300D02*
D03*
X1006502Y296300D02*
D03*
X999002Y281300D02*
D03*
X1006502Y266300D02*
D03*
X999002Y251300D02*
D03*
X984002Y281300D02*
D03*
X991502Y266300D02*
D03*
X984002Y251300D02*
D03*
X991502Y236300D02*
D03*
X984002Y221300D02*
D03*
Y191300D02*
D03*
X969002Y281300D02*
D03*
X976502Y266300D02*
D03*
X969002Y251300D02*
D03*
X976502Y236300D02*
D03*
X969002Y221300D02*
D03*
X976502Y206300D02*
D03*
X969002Y191300D02*
D03*
X954002Y281300D02*
D03*
X961502Y266300D02*
D03*
X954002Y251300D02*
D03*
X961502Y236300D02*
D03*
X954002Y221300D02*
D03*
X961502Y206300D02*
D03*
X954002Y191300D02*
D03*
X946502Y296300D02*
D03*
X939002Y281300D02*
D03*
X946502Y266300D02*
D03*
X939002Y251300D02*
D03*
X946502Y236300D02*
D03*
X939002Y221300D02*
D03*
X946502Y206300D02*
D03*
X939002Y191300D02*
D03*
X924002Y281300D02*
D03*
X931502Y266300D02*
D03*
X924002Y251300D02*
D03*
X931502Y236300D02*
D03*
X924002Y221300D02*
D03*
X931502Y206300D02*
D03*
X924002Y191300D02*
D03*
X909002Y281300D02*
D03*
X916502Y266300D02*
D03*
X909002Y251300D02*
D03*
X916502Y236300D02*
D03*
X909002Y221300D02*
D03*
X916502Y206300D02*
D03*
X909002Y191300D02*
D03*
X894002Y341300D02*
D03*
Y311300D02*
D03*
Y281300D02*
D03*
X901502Y266300D02*
D03*
X894002Y251300D02*
D03*
X901502Y236300D02*
D03*
X894002Y221300D02*
D03*
X901502Y206300D02*
D03*
X894002Y191300D02*
D03*
X879002Y281300D02*
D03*
X886502Y266300D02*
D03*
X879002Y251300D02*
D03*
X886502Y236300D02*
D03*
X879002Y221300D02*
D03*
X886502Y206300D02*
D03*
X879002Y191300D02*
D03*
X864002Y281300D02*
D03*
X871502Y266300D02*
D03*
X864002Y251300D02*
D03*
X871502Y236300D02*
D03*
X864002Y221300D02*
D03*
X871502Y206300D02*
D03*
X864002Y191300D02*
D03*
X849002Y281300D02*
D03*
X856502Y266300D02*
D03*
X849002Y251300D02*
D03*
X856502Y236300D02*
D03*
X849002Y221300D02*
D03*
X856502Y206300D02*
D03*
X849002Y191300D02*
D03*
X841502Y296300D02*
D03*
X834002Y281300D02*
D03*
X841502Y266300D02*
D03*
X834002Y251300D02*
D03*
X841502Y236300D02*
D03*
X834002Y221300D02*
D03*
X841502Y206300D02*
D03*
X834002Y191300D02*
D03*
X594002Y371300D02*
D03*
Y341300D02*
D03*
Y311300D02*
D03*
Y281300D02*
D03*
Y251300D02*
D03*
X579002Y371300D02*
D03*
X586502Y356300D02*
D03*
X579002Y341300D02*
D03*
X586502Y326300D02*
D03*
X579002Y311300D02*
D03*
X586502Y296300D02*
D03*
X579002Y281300D02*
D03*
X586502Y266300D02*
D03*
X579002Y251300D02*
D03*
X586502Y236300D02*
D03*
X579002Y221300D02*
D03*
X564002Y371300D02*
D03*
X571502Y356300D02*
D03*
X564002Y341300D02*
D03*
X571502Y326300D02*
D03*
X564002Y311300D02*
D03*
X571502Y296300D02*
D03*
X564002Y281300D02*
D03*
X571502Y266300D02*
D03*
X564002Y251300D02*
D03*
X571502Y236300D02*
D03*
X564002Y221300D02*
D03*
X556502Y236300D02*
D03*
X549002Y221300D02*
D03*
X556502Y206300D02*
D03*
X541502Y236300D02*
D03*
X534002Y221300D02*
D03*
X541502Y206300D02*
D03*
X534002Y191300D02*
D03*
X526502Y236300D02*
D03*
X519002Y221300D02*
D03*
X526502Y206300D02*
D03*
X519002Y191300D02*
D03*
X511502Y236300D02*
D03*
X504002Y221300D02*
D03*
X511502Y206300D02*
D03*
X504002Y191300D02*
D03*
X496502Y236300D02*
D03*
X489002Y221300D02*
D03*
X496502Y206300D02*
D03*
X489002Y191300D02*
D03*
X481502Y236300D02*
D03*
X474002Y221300D02*
D03*
X481502Y206300D02*
D03*
X474002Y191300D02*
D03*
X466502Y236300D02*
D03*
X459002Y221300D02*
D03*
X466502Y206300D02*
D03*
X459002Y191300D02*
D03*
X451502Y236300D02*
D03*
X444002Y221300D02*
D03*
X451502Y206300D02*
D03*
X444002Y191300D02*
D03*
X436502Y236300D02*
D03*
X429002Y221300D02*
D03*
X436502Y206300D02*
D03*
X429002Y191300D02*
D03*
X421502Y236300D02*
D03*
X414002Y221300D02*
D03*
X421502Y206300D02*
D03*
X414002Y191300D02*
D03*
X406502Y236300D02*
D03*
X399002Y221300D02*
D03*
X406502Y206300D02*
D03*
X399002Y191300D02*
D03*
X391502Y236300D02*
D03*
X384002Y221300D02*
D03*
X391502Y206300D02*
D03*
X384002Y191300D02*
D03*
X376502Y236300D02*
D03*
X369002Y221300D02*
D03*
X376502Y206300D02*
D03*
X369002Y191300D02*
D03*
X361502Y236300D02*
D03*
Y176300D02*
D03*
X354002Y161300D02*
D03*
X324002Y341300D02*
D03*
X331502Y326300D02*
D03*
X324002Y311300D02*
D03*
X331502Y296300D02*
D03*
X324002Y281300D02*
D03*
X331502Y266300D02*
D03*
X324002Y251300D02*
D03*
X316502Y326300D02*
D03*
Y296300D02*
D03*
X309002Y281300D02*
D03*
X316502Y266300D02*
D03*
X309002Y251300D02*
D03*
Y161300D02*
D03*
X294002Y281300D02*
D03*
X301502Y266300D02*
D03*
X294002Y251300D02*
D03*
X301502Y236300D02*
D03*
X294002Y221300D02*
D03*
X301502Y206300D02*
D03*
X294002Y191300D02*
D03*
X301502Y176300D02*
D03*
X279002Y281300D02*
D03*
X286502Y266300D02*
D03*
X279002Y251300D02*
D03*
X286502Y236300D02*
D03*
X279002Y221300D02*
D03*
X286502Y206300D02*
D03*
X279002Y191300D02*
D03*
X264002Y341300D02*
D03*
Y311300D02*
D03*
X271502Y296300D02*
D03*
X264002Y281300D02*
D03*
X271502Y266300D02*
D03*
X264002Y251300D02*
D03*
X271502Y236300D02*
D03*
X264002Y221300D02*
D03*
X271502Y206300D02*
D03*
X264002Y191300D02*
D03*
X249002Y281300D02*
D03*
X256502Y266300D02*
D03*
X249002Y251300D02*
D03*
X256502Y236300D02*
D03*
X249002Y221300D02*
D03*
X256502Y206300D02*
D03*
X249002Y191300D02*
D03*
X234002Y281300D02*
D03*
X241502Y266300D02*
D03*
X234002Y251300D02*
D03*
X241502Y236300D02*
D03*
X234002Y221300D02*
D03*
X241502Y206300D02*
D03*
X234002Y191300D02*
D03*
X219002Y281300D02*
D03*
X226502Y266300D02*
D03*
X219002Y251300D02*
D03*
X226502Y236300D02*
D03*
X219002Y221300D02*
D03*
X226502Y206300D02*
D03*
X219002Y191300D02*
D03*
X211502Y326300D02*
D03*
Y296300D02*
D03*
X204002Y281300D02*
D03*
X211502Y266300D02*
D03*
X204002Y251300D02*
D03*
X211502Y236300D02*
D03*
X204002Y221300D02*
D03*
X211502Y206300D02*
D03*
X204002Y191300D02*
D03*
X189002Y281300D02*
D03*
X196502Y266300D02*
D03*
X189002Y251300D02*
D03*
X196502Y236300D02*
D03*
X189002Y221300D02*
D03*
X196502Y206300D02*
D03*
X189002Y191300D02*
D03*
X174002Y281300D02*
D03*
X181502Y266300D02*
D03*
X174002Y251300D02*
D03*
X181502Y236300D02*
D03*
X174002Y221300D02*
D03*
X181502Y206300D02*
D03*
X174002Y191300D02*
D03*
X159003Y341300D02*
D03*
Y311300D02*
D03*
X166502Y296300D02*
D03*
X159003Y281300D02*
D03*
X166502Y266300D02*
D03*
X159003Y251300D02*
D03*
X166502Y236300D02*
D03*
X159003Y221300D02*
D03*
X166502Y206300D02*
D03*
X159003Y191300D02*
D03*
X144003Y281300D02*
D03*
X151502Y266300D02*
D03*
X144003Y251300D02*
D03*
X151502Y236300D02*
D03*
X144003Y221300D02*
D03*
X151502Y206300D02*
D03*
X1915383Y374980D02*
D03*
X1909383Y362980D02*
D03*
X1915383Y350980D02*
D03*
X1909383Y338980D02*
D03*
X1915383Y326980D02*
D03*
X1909383Y314980D02*
D03*
X1915383Y302980D02*
D03*
X1909383Y290980D02*
D03*
X1915383Y278980D02*
D03*
X1909383Y266980D02*
D03*
X1915383Y254980D02*
D03*
X1903383Y374980D02*
D03*
X1897383Y362980D02*
D03*
X1903383Y350980D02*
D03*
X1897383Y338980D02*
D03*
X1903383Y326980D02*
D03*
X1897383Y314980D02*
D03*
X1903383Y302980D02*
D03*
X1897383Y290980D02*
D03*
X1903383Y278980D02*
D03*
X1897383Y266980D02*
D03*
X1903383Y254980D02*
D03*
X1891383Y374980D02*
D03*
X1885383Y362980D02*
D03*
X1891383Y350980D02*
D03*
X1885383Y338980D02*
D03*
X1891383Y326980D02*
D03*
X1885383Y314980D02*
D03*
X1891383Y302980D02*
D03*
X1885383Y290980D02*
D03*
X1891383Y278980D02*
D03*
X1885383Y266980D02*
D03*
X1891383Y254980D02*
D03*
X1879383Y374980D02*
D03*
X1873383Y362980D02*
D03*
X1879383Y350980D02*
D03*
X1873383Y338980D02*
D03*
X1879383Y326980D02*
D03*
X1873383Y314980D02*
D03*
X1879383Y302980D02*
D03*
X1873383Y290980D02*
D03*
X1879383Y278980D02*
D03*
X1873383Y266980D02*
D03*
X1879383Y254980D02*
D03*
X1867383Y374980D02*
D03*
X1861383Y362980D02*
D03*
X1867383Y350980D02*
D03*
X1861383Y338980D02*
D03*
X1867383Y326980D02*
D03*
X1861383Y314980D02*
D03*
X1867383Y302980D02*
D03*
X1861383Y290980D02*
D03*
X1867383Y278980D02*
D03*
X1861383Y266980D02*
D03*
X1867383Y254980D02*
D03*
X1855383Y374980D02*
D03*
X1849383Y362980D02*
D03*
X1855383Y350980D02*
D03*
X1849383Y338980D02*
D03*
X1855383Y326980D02*
D03*
X1849383Y314980D02*
D03*
X1855383Y302980D02*
D03*
X1849383Y290980D02*
D03*
X1855383Y278980D02*
D03*
X1849383Y266980D02*
D03*
X1855383Y254980D02*
D03*
X1843383Y374980D02*
D03*
X1837383Y362980D02*
D03*
X1843383Y350980D02*
D03*
X1837383Y338980D02*
D03*
X1843383Y326980D02*
D03*
X1837383Y314980D02*
D03*
X1843383Y302980D02*
D03*
X1837383Y290980D02*
D03*
X1843383Y278980D02*
D03*
X1837383Y266980D02*
D03*
X1843383Y254980D02*
D03*
X1831382Y374980D02*
D03*
X1825383Y362980D02*
D03*
X1831382Y350980D02*
D03*
X1825383Y338980D02*
D03*
X1831382Y326980D02*
D03*
X1825383Y314980D02*
D03*
X1831382Y302980D02*
D03*
X1825383Y290980D02*
D03*
X1831382Y278980D02*
D03*
X1825383Y266980D02*
D03*
X1831382Y254980D02*
D03*
X1819382Y374980D02*
D03*
X1813383Y362980D02*
D03*
X1819382Y350980D02*
D03*
X1813383Y338980D02*
D03*
X1819382Y326980D02*
D03*
X1813383Y314980D02*
D03*
X1819382Y302980D02*
D03*
X1813383Y290980D02*
D03*
X1819382Y278980D02*
D03*
X1813383Y266980D02*
D03*
X1819382Y254980D02*
D03*
X1807383Y374980D02*
D03*
X1801383Y362980D02*
D03*
X1807383Y350980D02*
D03*
X1801383Y338980D02*
D03*
X1807383Y326980D02*
D03*
X1801383Y314980D02*
D03*
X1807383Y302980D02*
D03*
X1801383Y290980D02*
D03*
X1807383Y278980D02*
D03*
X1801383Y266980D02*
D03*
X1807383Y254980D02*
D03*
X1795383Y374980D02*
D03*
X1789383Y362980D02*
D03*
X1795383Y350980D02*
D03*
X1789383Y338980D02*
D03*
X1795383Y326980D02*
D03*
X1789383Y314980D02*
D03*
X1795383Y302980D02*
D03*
X1789383Y290980D02*
D03*
X1795383Y278980D02*
D03*
X1789383Y266980D02*
D03*
X1795383Y254980D02*
D03*
X1783383Y374980D02*
D03*
X1777383Y362980D02*
D03*
X1783383Y350980D02*
D03*
X1777383Y338980D02*
D03*
X1783383Y326980D02*
D03*
X1777383Y314980D02*
D03*
X1783383Y302980D02*
D03*
X1777383Y290980D02*
D03*
X1783383Y278980D02*
D03*
X1777383Y266980D02*
D03*
X1783383Y254980D02*
D03*
X1771382Y374980D02*
D03*
X1765383Y362980D02*
D03*
X1771382Y350980D02*
D03*
X1765383Y338980D02*
D03*
X1771382Y326980D02*
D03*
X1765383Y314980D02*
D03*
X1771382Y302980D02*
D03*
X1765383Y290980D02*
D03*
X1771382Y278980D02*
D03*
X1765383Y266980D02*
D03*
X1771382Y254980D02*
D03*
X1759382Y374980D02*
D03*
X1753383Y362980D02*
D03*
X1759382Y350980D02*
D03*
X1753383Y338980D02*
D03*
X1759382Y326980D02*
D03*
X1753383Y314980D02*
D03*
X1759382Y302980D02*
D03*
X1753383Y290980D02*
D03*
X1759382Y278980D02*
D03*
X1753383Y266980D02*
D03*
X1759382Y254980D02*
D03*
X1722833Y254820D02*
D03*
X1716833Y266820D02*
D03*
X1722833Y278820D02*
D03*
X1716833Y290820D02*
D03*
X1722833Y302820D02*
D03*
X1716833Y314820D02*
D03*
X1722833Y326820D02*
D03*
X1716833Y338820D02*
D03*
X1722833Y350820D02*
D03*
X1716833Y362820D02*
D03*
X1722833Y374820D02*
D03*
X1734833Y254820D02*
D03*
X1728833Y266820D02*
D03*
X1734833Y278820D02*
D03*
X1728833Y290820D02*
D03*
X1734833Y302820D02*
D03*
X1728833Y314820D02*
D03*
X1734833Y326820D02*
D03*
X1728833Y338820D02*
D03*
X1734833Y350820D02*
D03*
X1728833Y362820D02*
D03*
X1734833Y374820D02*
D03*
X1746833Y254820D02*
D03*
X1740833Y266820D02*
D03*
X1746833Y278820D02*
D03*
X1740833Y290820D02*
D03*
X1746833Y302820D02*
D03*
X1740833Y314820D02*
D03*
X1746833Y326820D02*
D03*
X1740833Y338820D02*
D03*
X1746833Y350820D02*
D03*
X1740833Y362820D02*
D03*
X1746833Y374820D02*
D03*
X1232123Y374980D02*
D03*
X1226123Y362980D02*
D03*
X1232123Y350980D02*
D03*
X1226123Y338980D02*
D03*
X1232123Y326980D02*
D03*
X1226123Y314980D02*
D03*
X1232123Y302980D02*
D03*
X1226123Y290980D02*
D03*
X1232123Y278980D02*
D03*
X1226123Y266980D02*
D03*
X1232123Y254980D02*
D03*
X1220123Y374980D02*
D03*
X1214123Y362980D02*
D03*
X1220123Y350980D02*
D03*
X1214123Y338980D02*
D03*
X1220123Y326980D02*
D03*
X1214123Y314980D02*
D03*
X1220123Y302980D02*
D03*
X1214123Y290980D02*
D03*
X1220123Y278980D02*
D03*
X1214123Y266980D02*
D03*
X1220123Y254980D02*
D03*
X1208123Y374980D02*
D03*
X1202123Y362980D02*
D03*
X1208123Y350980D02*
D03*
X1202123Y338980D02*
D03*
X1208123Y326980D02*
D03*
X1202123Y314980D02*
D03*
X1208123Y302980D02*
D03*
X1202123Y290980D02*
D03*
X1208123Y278980D02*
D03*
X1202123Y266980D02*
D03*
X1208123Y254980D02*
D03*
X1196123Y374980D02*
D03*
X1190123Y362980D02*
D03*
X1196123Y350980D02*
D03*
X1190123Y338980D02*
D03*
X1196123Y326980D02*
D03*
X1190123Y314980D02*
D03*
X1196123Y302980D02*
D03*
X1190123Y290980D02*
D03*
X1196123Y278980D02*
D03*
X1190123Y266980D02*
D03*
X1196123Y254980D02*
D03*
X1184122Y374980D02*
D03*
X1178123Y362980D02*
D03*
X1184122Y350980D02*
D03*
X1178123Y338980D02*
D03*
X1184122Y326980D02*
D03*
X1178123Y314980D02*
D03*
X1184122Y302980D02*
D03*
X1178123Y290980D02*
D03*
X1184122Y278980D02*
D03*
X1178123Y266980D02*
D03*
X1184122Y254980D02*
D03*
X1172122Y374980D02*
D03*
X1166123Y362980D02*
D03*
X1172122Y350980D02*
D03*
X1166123Y338980D02*
D03*
X1172122Y326980D02*
D03*
X1166123Y314980D02*
D03*
X1172122Y302980D02*
D03*
X1166123Y290980D02*
D03*
X1172122Y278980D02*
D03*
X1166123Y266980D02*
D03*
X1172122Y254980D02*
D03*
X1160123Y374980D02*
D03*
X1154123Y362980D02*
D03*
X1160123Y350980D02*
D03*
X1154123Y338980D02*
D03*
X1160123Y326980D02*
D03*
X1154123Y314980D02*
D03*
X1160123Y302980D02*
D03*
X1154123Y290980D02*
D03*
X1160123Y278980D02*
D03*
X1154123Y266980D02*
D03*
X1160123Y254980D02*
D03*
X1148122Y374980D02*
D03*
X1142123Y362980D02*
D03*
X1148122Y350980D02*
D03*
X1142123Y338980D02*
D03*
X1148122Y326980D02*
D03*
X1142123Y314980D02*
D03*
X1148122Y302980D02*
D03*
X1142123Y290980D02*
D03*
X1148122Y278980D02*
D03*
X1142123Y266980D02*
D03*
X1148122Y254980D02*
D03*
X1136123Y374980D02*
D03*
X1130123Y362980D02*
D03*
X1136123Y350980D02*
D03*
X1130123Y338980D02*
D03*
X1136123Y326980D02*
D03*
X1130123Y314980D02*
D03*
X1136123Y302980D02*
D03*
X1130123Y290980D02*
D03*
X1136123Y278980D02*
D03*
X1130123Y266980D02*
D03*
X1136123Y254980D02*
D03*
X1124122Y374980D02*
D03*
X1118123Y362980D02*
D03*
X1124122Y350980D02*
D03*
X1118123Y338980D02*
D03*
X1124122Y326980D02*
D03*
X1118123Y314980D02*
D03*
X1124122Y302980D02*
D03*
X1118123Y290980D02*
D03*
X1124122Y278980D02*
D03*
X1118123Y266980D02*
D03*
X1124122Y254980D02*
D03*
X1112122Y374980D02*
D03*
X1106123Y362980D02*
D03*
X1112122Y350980D02*
D03*
X1106123Y338980D02*
D03*
X1112122Y326980D02*
D03*
X1106123Y314980D02*
D03*
X1112122Y302980D02*
D03*
X1106123Y290980D02*
D03*
X1112122Y278980D02*
D03*
X1106123Y266980D02*
D03*
X1112122Y254980D02*
D03*
X1100123Y374980D02*
D03*
X1094123Y362980D02*
D03*
X1100123Y350980D02*
D03*
X1094123Y338980D02*
D03*
X1100123Y326980D02*
D03*
X1094123Y314980D02*
D03*
X1100123Y302980D02*
D03*
X1094123Y290980D02*
D03*
X1100123Y278980D02*
D03*
X1094123Y266980D02*
D03*
X1100123Y254980D02*
D03*
X1088122Y374980D02*
D03*
X1082122Y362980D02*
D03*
X1088122Y350980D02*
D03*
X1082122Y338980D02*
D03*
X1088122Y326980D02*
D03*
X1082122Y314980D02*
D03*
X1088122Y302980D02*
D03*
X1082122Y290980D02*
D03*
X1088122Y278980D02*
D03*
X1082122Y266980D02*
D03*
X1088122Y254980D02*
D03*
X1076123Y374980D02*
D03*
X1070123Y362980D02*
D03*
X1076123Y350980D02*
D03*
X1070123Y338980D02*
D03*
X1076123Y326980D02*
D03*
X1070123Y314980D02*
D03*
X1076123Y302980D02*
D03*
X1070123Y290980D02*
D03*
X1076123Y278980D02*
D03*
X1070123Y266980D02*
D03*
X1076123Y254980D02*
D03*
X1039573Y254820D02*
D03*
X1033573Y266820D02*
D03*
X1039573Y278820D02*
D03*
X1033573Y290820D02*
D03*
X1039573Y302820D02*
D03*
X1033573Y314820D02*
D03*
X1039573Y326820D02*
D03*
X1033573Y338820D02*
D03*
X1039573Y350820D02*
D03*
X1033573Y362820D02*
D03*
X1039573Y374820D02*
D03*
X1051573Y254820D02*
D03*
X1045573Y266820D02*
D03*
X1051573Y278820D02*
D03*
X1045573Y290820D02*
D03*
X1051573Y302820D02*
D03*
X1045573Y314820D02*
D03*
X1051573Y326820D02*
D03*
X1045573Y338820D02*
D03*
X1051573Y350820D02*
D03*
X1045573Y362820D02*
D03*
X1051573Y374820D02*
D03*
X1063573Y254820D02*
D03*
X1057573Y266820D02*
D03*
X1063573Y278820D02*
D03*
X1057573Y290820D02*
D03*
X1063573Y302820D02*
D03*
X1057573Y314820D02*
D03*
X1063573Y326820D02*
D03*
X1057573Y338820D02*
D03*
X1063573Y350820D02*
D03*
X1057573Y362820D02*
D03*
X1063573Y374820D02*
D03*
X548733Y374980D02*
D03*
X542733Y362980D02*
D03*
X548733Y350980D02*
D03*
X542733Y338980D02*
D03*
X548733Y326980D02*
D03*
X542733Y314980D02*
D03*
X548733Y302980D02*
D03*
X542733Y290980D02*
D03*
X548733Y278980D02*
D03*
X542733Y266980D02*
D03*
X548733Y254980D02*
D03*
X536733Y374980D02*
D03*
X530733Y362980D02*
D03*
X536733Y350980D02*
D03*
X530733Y338980D02*
D03*
X536733Y326980D02*
D03*
X530733Y314980D02*
D03*
X536733Y302980D02*
D03*
X530733Y290980D02*
D03*
X536733Y278980D02*
D03*
X530733Y266980D02*
D03*
X536733Y254980D02*
D03*
X524733Y374980D02*
D03*
X518733Y362980D02*
D03*
X524733Y350980D02*
D03*
X518733Y338980D02*
D03*
X524733Y326980D02*
D03*
X518733Y314980D02*
D03*
X524733Y302980D02*
D03*
X518733Y290980D02*
D03*
X524733Y278980D02*
D03*
X518733Y266980D02*
D03*
X524733Y254980D02*
D03*
X512733Y374980D02*
D03*
X506733Y362980D02*
D03*
X512733Y350980D02*
D03*
X506733Y338980D02*
D03*
X512733Y326980D02*
D03*
X506733Y314980D02*
D03*
X512733Y302980D02*
D03*
X506733Y290980D02*
D03*
X512733Y278980D02*
D03*
X506733Y266980D02*
D03*
X512733Y254980D02*
D03*
X500733Y374980D02*
D03*
X494733Y362980D02*
D03*
X500733Y350980D02*
D03*
X494733Y338980D02*
D03*
X500733Y326980D02*
D03*
X494733Y314980D02*
D03*
X500733Y302980D02*
D03*
X494733Y290980D02*
D03*
X500733Y278980D02*
D03*
X494733Y266980D02*
D03*
X500733Y254980D02*
D03*
X488733Y374980D02*
D03*
X482733Y362980D02*
D03*
X488733Y350980D02*
D03*
X482733Y338980D02*
D03*
X488733Y326980D02*
D03*
X482733Y314980D02*
D03*
X488733Y302980D02*
D03*
X482733Y290980D02*
D03*
X488733Y278980D02*
D03*
X482733Y266980D02*
D03*
X488733Y254980D02*
D03*
X476733Y374980D02*
D03*
X470733Y362980D02*
D03*
X476733Y350980D02*
D03*
X470733Y338980D02*
D03*
X476733Y326980D02*
D03*
X470733Y314980D02*
D03*
X476733Y302980D02*
D03*
X470733Y290980D02*
D03*
X476733Y278980D02*
D03*
X470733Y266980D02*
D03*
X476733Y254980D02*
D03*
X464733Y374980D02*
D03*
X458733Y362980D02*
D03*
X464733Y350980D02*
D03*
X458733Y338980D02*
D03*
X464733Y326980D02*
D03*
X458733Y314980D02*
D03*
X464733Y302980D02*
D03*
X458733Y290980D02*
D03*
X464733Y278980D02*
D03*
X458733Y266980D02*
D03*
X464733Y254980D02*
D03*
X452733Y374980D02*
D03*
X446733Y362980D02*
D03*
X452733Y350980D02*
D03*
X446733Y338980D02*
D03*
X452733Y326980D02*
D03*
X446733Y314980D02*
D03*
X452733Y302980D02*
D03*
X446733Y290980D02*
D03*
X452733Y278980D02*
D03*
X446733Y266980D02*
D03*
X452733Y254980D02*
D03*
X440733Y374980D02*
D03*
X434733Y362980D02*
D03*
X440733Y350980D02*
D03*
X434733Y338980D02*
D03*
X440733Y326980D02*
D03*
X434733Y314980D02*
D03*
X440733Y302980D02*
D03*
X434733Y290980D02*
D03*
X440733Y278980D02*
D03*
X434733Y266980D02*
D03*
X440733Y254980D02*
D03*
X428733Y374980D02*
D03*
X422733Y362980D02*
D03*
X428733Y350980D02*
D03*
X422733Y338980D02*
D03*
X428733Y326980D02*
D03*
X422733Y314980D02*
D03*
X428733Y302980D02*
D03*
X422733Y290980D02*
D03*
X428733Y278980D02*
D03*
X422733Y266980D02*
D03*
X428733Y254980D02*
D03*
X416733Y374980D02*
D03*
X410733Y362980D02*
D03*
X416733Y350980D02*
D03*
X410733Y338980D02*
D03*
X416733Y326980D02*
D03*
X410733Y314980D02*
D03*
X416733Y302980D02*
D03*
X410733Y290980D02*
D03*
X416733Y278980D02*
D03*
X410733Y266980D02*
D03*
X416733Y254980D02*
D03*
X404733Y374980D02*
D03*
X398733Y362980D02*
D03*
X404733Y350980D02*
D03*
X398733Y338980D02*
D03*
X404733Y326980D02*
D03*
X398733Y314980D02*
D03*
X404733Y302980D02*
D03*
X398733Y290980D02*
D03*
X404733Y278980D02*
D03*
X398733Y266980D02*
D03*
X404733Y254980D02*
D03*
X392733Y374980D02*
D03*
X386733Y362980D02*
D03*
X392733Y350980D02*
D03*
X386733Y338980D02*
D03*
X392733Y326980D02*
D03*
X386733Y314980D02*
D03*
X392733Y302980D02*
D03*
X386733Y290980D02*
D03*
X392733Y278980D02*
D03*
X386733Y266980D02*
D03*
X392733Y254980D02*
D03*
X356183Y254820D02*
D03*
X350183Y266820D02*
D03*
X356183Y278820D02*
D03*
X350183Y290820D02*
D03*
X356183Y302820D02*
D03*
X350183Y314820D02*
D03*
X356183Y326820D02*
D03*
X350183Y338820D02*
D03*
X356183Y350820D02*
D03*
X350183Y362820D02*
D03*
X356183Y374820D02*
D03*
X368183Y254820D02*
D03*
X362183Y266820D02*
D03*
X368183Y278820D02*
D03*
X362183Y290820D02*
D03*
X368183Y302820D02*
D03*
X362183Y314820D02*
D03*
X368183Y326820D02*
D03*
X362183Y338820D02*
D03*
X368183Y350820D02*
D03*
X362183Y362820D02*
D03*
X368183Y374820D02*
D03*
X380183Y254820D02*
D03*
X374183Y266820D02*
D03*
X380183Y278820D02*
D03*
X374183Y290820D02*
D03*
X380183Y302820D02*
D03*
X374183Y314820D02*
D03*
X380183Y326820D02*
D03*
X374183Y338820D02*
D03*
X380183Y350820D02*
D03*
X374183Y362820D02*
D03*
X380183Y374820D02*
D03*
X1481073Y395300D02*
D03*
X1487073Y407300D02*
D03*
X1481073Y419300D02*
D03*
X1487073Y431300D02*
D03*
X1481073Y443300D02*
D03*
X1487073Y455300D02*
D03*
X1481073Y467300D02*
D03*
X1487073Y479300D02*
D03*
X1481073Y491300D02*
D03*
X1487073Y503300D02*
D03*
X1481073Y515300D02*
D03*
X1493073Y395300D02*
D03*
X1499073Y407300D02*
D03*
X1493073Y419300D02*
D03*
X1499073Y431300D02*
D03*
X1493073Y443300D02*
D03*
X1499073Y455300D02*
D03*
X1493073Y467300D02*
D03*
X1499073Y479300D02*
D03*
X1493073Y491300D02*
D03*
X1499073Y503300D02*
D03*
X1493073Y515300D02*
D03*
X1505073Y395300D02*
D03*
X1511073Y407300D02*
D03*
X1505073Y419300D02*
D03*
X1511073Y431300D02*
D03*
X1505073Y443300D02*
D03*
X1511073Y455300D02*
D03*
X1505073Y467300D02*
D03*
X1511073Y479300D02*
D03*
X1505073Y491300D02*
D03*
X1511073Y503300D02*
D03*
X1505073Y515300D02*
D03*
X1517073Y395300D02*
D03*
X1523073Y407300D02*
D03*
X1517073Y419300D02*
D03*
X1523073Y431300D02*
D03*
X1517073Y443300D02*
D03*
X1523073Y455300D02*
D03*
X1517073Y467300D02*
D03*
X1523073Y479300D02*
D03*
X1517073Y491300D02*
D03*
X1523073Y503300D02*
D03*
X1517073Y515300D02*
D03*
X1529073Y395300D02*
D03*
X1535073Y407300D02*
D03*
X1529073Y419300D02*
D03*
X1535073Y431300D02*
D03*
X1529073Y443300D02*
D03*
X1535073Y455300D02*
D03*
X1529073Y467300D02*
D03*
X1535073Y479300D02*
D03*
X1529073Y491300D02*
D03*
X1535073Y503300D02*
D03*
X1529073Y515300D02*
D03*
X1541073Y395300D02*
D03*
X1547073Y407300D02*
D03*
X1541073Y419300D02*
D03*
X1547073Y431300D02*
D03*
X1541073Y443300D02*
D03*
X1547073Y455300D02*
D03*
X1541073Y467300D02*
D03*
X1547073Y479300D02*
D03*
X1541073Y491300D02*
D03*
X1547073Y503300D02*
D03*
X1541073Y515300D02*
D03*
X1553073Y395300D02*
D03*
X1559073Y407300D02*
D03*
X1553073Y419300D02*
D03*
X1559073Y431300D02*
D03*
X1553073Y443300D02*
D03*
X1559073Y455300D02*
D03*
X1553073Y467300D02*
D03*
X1559073Y479300D02*
D03*
X1553073Y491300D02*
D03*
X1559073Y503300D02*
D03*
X1553073Y515300D02*
D03*
X1565074Y395300D02*
D03*
X1571073Y407300D02*
D03*
X1565074Y419300D02*
D03*
X1571073Y431300D02*
D03*
X1565074Y443300D02*
D03*
X1571073Y455300D02*
D03*
X1565074Y467300D02*
D03*
X1571073Y479300D02*
D03*
X1565074Y491300D02*
D03*
X1571073Y503300D02*
D03*
X1565074Y515300D02*
D03*
X1577074Y395300D02*
D03*
X1583073Y407300D02*
D03*
X1577074Y419300D02*
D03*
X1583073Y431300D02*
D03*
X1577074Y443300D02*
D03*
X1583073Y455300D02*
D03*
X1577074Y467300D02*
D03*
X1583073Y479300D02*
D03*
X1577074Y491300D02*
D03*
X1583073Y503300D02*
D03*
X1577074Y515300D02*
D03*
X1589073Y395300D02*
D03*
X1595073Y407300D02*
D03*
X1589073Y419300D02*
D03*
X1595073Y431300D02*
D03*
X1589073Y443300D02*
D03*
X1595073Y455300D02*
D03*
X1589073Y467300D02*
D03*
X1595073Y479300D02*
D03*
X1589073Y491300D02*
D03*
X1595073Y503300D02*
D03*
X1589073Y515300D02*
D03*
X1601073Y395300D02*
D03*
X1607073Y407300D02*
D03*
X1601073Y419300D02*
D03*
X1607073Y431300D02*
D03*
X1601073Y443300D02*
D03*
X1607073Y455300D02*
D03*
X1601073Y467300D02*
D03*
X1607073Y479300D02*
D03*
X1601073Y491300D02*
D03*
X1607073Y503300D02*
D03*
X1601073Y515300D02*
D03*
X1613073Y395300D02*
D03*
X1619073Y407300D02*
D03*
X1613073Y419300D02*
D03*
X1619073Y431300D02*
D03*
X1613073Y443300D02*
D03*
X1619073Y455300D02*
D03*
X1613073Y467300D02*
D03*
X1619073Y479300D02*
D03*
X1613073Y491300D02*
D03*
X1619073Y503300D02*
D03*
X1613073Y515300D02*
D03*
X1625074Y395300D02*
D03*
X1631073Y407300D02*
D03*
X1625074Y419300D02*
D03*
X1631073Y431300D02*
D03*
X1625074Y443300D02*
D03*
X1631073Y455300D02*
D03*
X1625074Y467300D02*
D03*
X1631073Y479300D02*
D03*
X1625074Y491300D02*
D03*
X1631073Y503300D02*
D03*
X1625074Y515300D02*
D03*
X1637074Y395300D02*
D03*
X1643073Y407300D02*
D03*
X1637074Y419300D02*
D03*
X1643073Y431300D02*
D03*
X1637074Y443300D02*
D03*
X1643073Y455300D02*
D03*
X1637074Y467300D02*
D03*
X1643073Y479300D02*
D03*
X1637074Y491300D02*
D03*
X1643073Y503300D02*
D03*
X1637074Y515300D02*
D03*
X1673623Y515460D02*
D03*
X1679623Y503460D02*
D03*
X1673623Y491460D02*
D03*
X1679623Y479460D02*
D03*
X1673623Y467460D02*
D03*
X1679623Y455460D02*
D03*
X1673623Y443460D02*
D03*
X1679623Y431460D02*
D03*
X1673623Y419460D02*
D03*
X1679623Y407460D02*
D03*
X1673623Y395460D02*
D03*
X1661623Y515460D02*
D03*
X1667623Y503460D02*
D03*
X1661623Y491460D02*
D03*
X1667623Y479460D02*
D03*
X1661623Y467460D02*
D03*
X1667623Y455460D02*
D03*
X1661623Y443460D02*
D03*
X1667623Y431460D02*
D03*
X1661623Y419460D02*
D03*
X1667623Y407460D02*
D03*
X1661623Y395460D02*
D03*
X1649623Y515460D02*
D03*
X1655623Y503460D02*
D03*
X1649623Y491460D02*
D03*
X1655623Y479460D02*
D03*
X1649623Y467460D02*
D03*
X1655623Y455460D02*
D03*
X1649623Y443460D02*
D03*
X1655623Y431460D02*
D03*
X1649623Y419460D02*
D03*
X1655623Y407460D02*
D03*
X1649623Y395460D02*
D03*
X797753Y395300D02*
D03*
X803753Y407300D02*
D03*
X797753Y419300D02*
D03*
X803753Y431300D02*
D03*
X797753Y443300D02*
D03*
X803753Y455300D02*
D03*
X797753Y467300D02*
D03*
X803753Y479300D02*
D03*
X797753Y491300D02*
D03*
X803753Y503300D02*
D03*
X797753Y515300D02*
D03*
X809753Y395300D02*
D03*
X815753Y407300D02*
D03*
X809753Y419300D02*
D03*
X815753Y431300D02*
D03*
X809753Y443300D02*
D03*
X815753Y455300D02*
D03*
X809753Y467300D02*
D03*
X815753Y479300D02*
D03*
X809753Y491300D02*
D03*
X815753Y503300D02*
D03*
X809753Y515300D02*
D03*
X821753Y395300D02*
D03*
X827753Y407300D02*
D03*
X821753Y419300D02*
D03*
X827753Y431300D02*
D03*
X821753Y443300D02*
D03*
X827753Y455300D02*
D03*
X821753Y467300D02*
D03*
X827753Y479300D02*
D03*
X821753Y491300D02*
D03*
X827753Y503300D02*
D03*
X821753Y515300D02*
D03*
X833754Y395300D02*
D03*
X839753Y407300D02*
D03*
X833754Y419300D02*
D03*
X839753Y431300D02*
D03*
X833754Y443300D02*
D03*
X839753Y455300D02*
D03*
X833754Y467300D02*
D03*
X839753Y479300D02*
D03*
X833754Y491300D02*
D03*
X839753Y503300D02*
D03*
X833754Y515300D02*
D03*
X845753Y395300D02*
D03*
X851753Y407300D02*
D03*
X845753Y419300D02*
D03*
X851753Y431300D02*
D03*
X845753Y443300D02*
D03*
X851753Y455300D02*
D03*
X845753Y467300D02*
D03*
X851753Y479300D02*
D03*
X845753Y491300D02*
D03*
X851753Y503300D02*
D03*
X845753Y515300D02*
D03*
X857754Y395300D02*
D03*
X863753Y407300D02*
D03*
X857754Y419300D02*
D03*
X863753Y431300D02*
D03*
X857754Y443300D02*
D03*
X863753Y455300D02*
D03*
X857754Y467300D02*
D03*
X863753Y479300D02*
D03*
X857754Y491300D02*
D03*
X863753Y503300D02*
D03*
X857754Y515300D02*
D03*
X869753Y395300D02*
D03*
X875753Y407300D02*
D03*
X869753Y419300D02*
D03*
X875753Y431300D02*
D03*
X869753Y443300D02*
D03*
X875753Y455300D02*
D03*
X869753Y467300D02*
D03*
X875753Y479300D02*
D03*
X869753Y491300D02*
D03*
X875753Y503300D02*
D03*
X869753Y515300D02*
D03*
X881753Y395300D02*
D03*
X887753Y407300D02*
D03*
X881753Y419300D02*
D03*
X887753Y431300D02*
D03*
X881753Y443300D02*
D03*
X887753Y455300D02*
D03*
X881753Y467300D02*
D03*
X887753Y479300D02*
D03*
X881753Y491300D02*
D03*
X887753Y503300D02*
D03*
X881753Y515300D02*
D03*
X893754Y395300D02*
D03*
X899753Y407300D02*
D03*
X893754Y419300D02*
D03*
X899753Y431300D02*
D03*
X893754Y443300D02*
D03*
X899753Y455300D02*
D03*
X893754Y467300D02*
D03*
X899753Y479300D02*
D03*
X893754Y491300D02*
D03*
X899753Y503300D02*
D03*
X893754Y515300D02*
D03*
X905753Y395300D02*
D03*
X911753Y407300D02*
D03*
X905753Y419300D02*
D03*
X911753Y431300D02*
D03*
X905753Y443300D02*
D03*
X911753Y455300D02*
D03*
X905753Y467300D02*
D03*
X911753Y479300D02*
D03*
X905753Y491300D02*
D03*
X911753Y503300D02*
D03*
X905753Y515300D02*
D03*
X917754Y395300D02*
D03*
X923753Y407300D02*
D03*
X917754Y419300D02*
D03*
X923753Y431300D02*
D03*
X917754Y443300D02*
D03*
X923753Y455300D02*
D03*
X917754Y467300D02*
D03*
X923753Y479300D02*
D03*
X917754Y491300D02*
D03*
X923753Y503300D02*
D03*
X917754Y515300D02*
D03*
X929753Y395300D02*
D03*
X935753Y407300D02*
D03*
X929753Y419300D02*
D03*
X935753Y431300D02*
D03*
X929753Y443300D02*
D03*
X935753Y455300D02*
D03*
X929753Y467300D02*
D03*
X935753Y479300D02*
D03*
X929753Y491300D02*
D03*
X935753Y503300D02*
D03*
X929753Y515300D02*
D03*
X941753Y395300D02*
D03*
X947754Y407300D02*
D03*
X941753Y419300D02*
D03*
X947754Y431300D02*
D03*
X941753Y443300D02*
D03*
X947754Y455300D02*
D03*
X941753Y467300D02*
D03*
X947754Y479300D02*
D03*
X941753Y491300D02*
D03*
X947754Y503300D02*
D03*
X941753Y515300D02*
D03*
X953754Y395300D02*
D03*
X959753Y407300D02*
D03*
X953754Y419300D02*
D03*
X959753Y431300D02*
D03*
X953754Y443300D02*
D03*
X959753Y455300D02*
D03*
X953754Y467300D02*
D03*
X959753Y479300D02*
D03*
X953754Y491300D02*
D03*
X959753Y503300D02*
D03*
X953754Y515300D02*
D03*
X990303Y515460D02*
D03*
X996303Y503460D02*
D03*
X990303Y491460D02*
D03*
X996303Y479460D02*
D03*
X990303Y467460D02*
D03*
X996303Y455460D02*
D03*
X990303Y443460D02*
D03*
X996303Y431460D02*
D03*
X990303Y419460D02*
D03*
X996303Y407460D02*
D03*
X990303Y395460D02*
D03*
X978303Y515460D02*
D03*
X984303Y503460D02*
D03*
X978303Y491460D02*
D03*
X984303Y479460D02*
D03*
X978303Y467460D02*
D03*
X984303Y455460D02*
D03*
X978303Y443460D02*
D03*
X984303Y431460D02*
D03*
X978303Y419460D02*
D03*
X984303Y407460D02*
D03*
X978303Y395460D02*
D03*
X966303Y515460D02*
D03*
X972303Y503460D02*
D03*
X966303Y491460D02*
D03*
X972303Y479460D02*
D03*
X966303Y467460D02*
D03*
X972303Y455460D02*
D03*
X966303Y443460D02*
D03*
X972303Y431460D02*
D03*
X966303Y419460D02*
D03*
X972303Y407460D02*
D03*
X966303Y395460D02*
D03*
X114683Y395300D02*
D03*
X120683Y407300D02*
D03*
X114683Y419300D02*
D03*
X120683Y431300D02*
D03*
X114683Y443300D02*
D03*
X120683Y455300D02*
D03*
X114683Y467300D02*
D03*
X120683Y479300D02*
D03*
X114683Y491300D02*
D03*
X120683Y503300D02*
D03*
X114683Y515300D02*
D03*
X126683Y395300D02*
D03*
X132683Y407300D02*
D03*
X126683Y419300D02*
D03*
X132683Y431300D02*
D03*
X126683Y443300D02*
D03*
X132683Y455300D02*
D03*
X126683Y467300D02*
D03*
X132683Y479300D02*
D03*
X126683Y491300D02*
D03*
X132683Y503300D02*
D03*
X126683Y515300D02*
D03*
X138683Y395300D02*
D03*
X144683Y407300D02*
D03*
X138683Y419300D02*
D03*
X144683Y431300D02*
D03*
X138683Y443300D02*
D03*
X144683Y455300D02*
D03*
X138683Y467300D02*
D03*
X144683Y479300D02*
D03*
X138683Y491300D02*
D03*
X144683Y503300D02*
D03*
X138683Y515300D02*
D03*
X150683Y395300D02*
D03*
X156683Y407300D02*
D03*
X150683Y419300D02*
D03*
X156683Y431300D02*
D03*
X150683Y443300D02*
D03*
X156683Y455300D02*
D03*
X150683Y467300D02*
D03*
X156683Y479300D02*
D03*
X150683Y491300D02*
D03*
X156683Y503300D02*
D03*
X150683Y515300D02*
D03*
X162683Y395300D02*
D03*
X168683Y407300D02*
D03*
X162683Y419300D02*
D03*
X168683Y431300D02*
D03*
X162683Y443300D02*
D03*
X168683Y455300D02*
D03*
X162683Y467300D02*
D03*
X168683Y479300D02*
D03*
X162683Y491300D02*
D03*
X168683Y503300D02*
D03*
X162683Y515300D02*
D03*
X174683Y395300D02*
D03*
X180683Y407300D02*
D03*
X174683Y419300D02*
D03*
X180683Y431300D02*
D03*
X174683Y443300D02*
D03*
X180683Y455300D02*
D03*
X174683Y467300D02*
D03*
X180683Y479300D02*
D03*
X174683Y491300D02*
D03*
X180683Y503300D02*
D03*
X174683Y515300D02*
D03*
X186683Y395300D02*
D03*
X192683Y407300D02*
D03*
X186683Y419300D02*
D03*
X192683Y431300D02*
D03*
X186683Y443300D02*
D03*
X192683Y455300D02*
D03*
X186683Y467300D02*
D03*
X192683Y479300D02*
D03*
X186683Y491300D02*
D03*
X192683Y503300D02*
D03*
X186683Y515300D02*
D03*
X198683Y395300D02*
D03*
X204683Y407300D02*
D03*
X198683Y419300D02*
D03*
X204683Y431300D02*
D03*
X198683Y443300D02*
D03*
X204683Y455300D02*
D03*
X198683Y467300D02*
D03*
X204683Y479300D02*
D03*
X198683Y491300D02*
D03*
X204683Y503300D02*
D03*
X198683Y515300D02*
D03*
X210683Y395300D02*
D03*
X216683Y407300D02*
D03*
X210683Y419300D02*
D03*
X216683Y431300D02*
D03*
X210683Y443300D02*
D03*
X216683Y455300D02*
D03*
X210683Y467300D02*
D03*
X216683Y479300D02*
D03*
X210683Y491300D02*
D03*
X216683Y503300D02*
D03*
X210683Y515300D02*
D03*
X222683Y395300D02*
D03*
X228683Y407300D02*
D03*
X222683Y419300D02*
D03*
X228683Y431300D02*
D03*
X222683Y443300D02*
D03*
X228683Y455300D02*
D03*
X222683Y467300D02*
D03*
X228683Y479300D02*
D03*
X222683Y491300D02*
D03*
X228683Y503300D02*
D03*
X222683Y515300D02*
D03*
X234683Y395300D02*
D03*
X240683Y407300D02*
D03*
X234683Y419300D02*
D03*
X240683Y431300D02*
D03*
X234683Y443300D02*
D03*
X240683Y455300D02*
D03*
X234683Y467300D02*
D03*
X240683Y479300D02*
D03*
X234683Y491300D02*
D03*
X240683Y503300D02*
D03*
X234683Y515300D02*
D03*
X246683Y395300D02*
D03*
X252683Y407300D02*
D03*
X246683Y419300D02*
D03*
X252683Y431300D02*
D03*
X246683Y443300D02*
D03*
X252683Y455300D02*
D03*
X246683Y467300D02*
D03*
X252683Y479300D02*
D03*
X246683Y491300D02*
D03*
X252683Y503300D02*
D03*
X246683Y515300D02*
D03*
X258683Y395300D02*
D03*
X264683Y407300D02*
D03*
X258683Y419300D02*
D03*
X264683Y431300D02*
D03*
X258683Y443300D02*
D03*
X264683Y455300D02*
D03*
X258683Y467300D02*
D03*
X264683Y479300D02*
D03*
X258683Y491300D02*
D03*
X264683Y503300D02*
D03*
X258683Y515300D02*
D03*
X270683Y395300D02*
D03*
X276683Y407300D02*
D03*
X270683Y419300D02*
D03*
X276683Y431300D02*
D03*
X270683Y443300D02*
D03*
X276683Y455300D02*
D03*
X270683Y467300D02*
D03*
X276683Y479300D02*
D03*
X270683Y491300D02*
D03*
X276683Y503300D02*
D03*
X270683Y515300D02*
D03*
X307233Y515460D02*
D03*
X313233Y503460D02*
D03*
X307233Y491460D02*
D03*
X313233Y479460D02*
D03*
X307233Y467460D02*
D03*
X313233Y455460D02*
D03*
X307233Y443460D02*
D03*
X313233Y431460D02*
D03*
X307233Y419460D02*
D03*
X313233Y407460D02*
D03*
X307233Y395460D02*
D03*
X295233Y515460D02*
D03*
X301233Y503460D02*
D03*
X295233Y491460D02*
D03*
X301233Y479460D02*
D03*
X295233Y467460D02*
D03*
X301233Y455460D02*
D03*
X295233Y443460D02*
D03*
X301233Y431460D02*
D03*
X295233Y419460D02*
D03*
X301233Y407460D02*
D03*
X295233Y395460D02*
D03*
X283233Y515460D02*
D03*
X289233Y503460D02*
D03*
X283233Y491460D02*
D03*
X289233Y479460D02*
D03*
X283233Y467460D02*
D03*
X289233Y455460D02*
D03*
X283233Y443460D02*
D03*
X289233Y431460D02*
D03*
X283233Y419460D02*
D03*
X289233Y407460D02*
D03*
X283233Y395460D02*
D03*
D32*
X1682260Y120660D02*
D03*
Y110660D02*
D03*
Y100660D02*
D03*
Y90660D02*
D03*
Y80660D02*
D03*
Y220660D02*
D03*
Y210660D02*
D03*
Y200660D02*
D03*
Y190660D02*
D03*
Y180660D02*
D03*
X1716260Y120660D02*
D03*
Y110660D02*
D03*
Y100660D02*
D03*
Y90660D02*
D03*
Y80660D02*
D03*
Y220660D02*
D03*
Y210660D02*
D03*
Y200660D02*
D03*
Y190660D02*
D03*
Y180660D02*
D03*
X1688260Y72660D02*
D03*
X1710260D02*
D03*
X1699260Y67660D02*
D03*
X1688260Y172660D02*
D03*
X1710260D02*
D03*
X1699260Y167660D02*
D03*
X1688260Y128660D02*
D03*
X1699260Y133660D02*
D03*
X1710260Y128660D02*
D03*
X1688260Y228660D02*
D03*
X1699260Y233660D02*
D03*
X1710260Y228660D02*
D03*
X997333Y120660D02*
D03*
Y110660D02*
D03*
Y100660D02*
D03*
Y90660D02*
D03*
Y80660D02*
D03*
Y220660D02*
D03*
Y210660D02*
D03*
Y200660D02*
D03*
Y190660D02*
D03*
Y180660D02*
D03*
X1031333Y120660D02*
D03*
Y110660D02*
D03*
Y100660D02*
D03*
Y90660D02*
D03*
Y80660D02*
D03*
Y220660D02*
D03*
Y210660D02*
D03*
Y200660D02*
D03*
Y190660D02*
D03*
Y180660D02*
D03*
X1003333Y72660D02*
D03*
X1025333D02*
D03*
X1014333Y67660D02*
D03*
X1003333Y172660D02*
D03*
X1025333D02*
D03*
X1014333Y167660D02*
D03*
X1003333Y128660D02*
D03*
X1014333Y133660D02*
D03*
X1025333Y128660D02*
D03*
X1003333Y228660D02*
D03*
X1014333Y233660D02*
D03*
X1025333Y228660D02*
D03*
X315343Y120660D02*
D03*
Y110660D02*
D03*
Y100660D02*
D03*
Y90660D02*
D03*
Y80660D02*
D03*
Y220660D02*
D03*
Y210660D02*
D03*
Y200660D02*
D03*
Y190660D02*
D03*
Y180660D02*
D03*
X349343Y120660D02*
D03*
Y110660D02*
D03*
Y100660D02*
D03*
Y90660D02*
D03*
Y80660D02*
D03*
Y220660D02*
D03*
Y210660D02*
D03*
Y200660D02*
D03*
Y190660D02*
D03*
Y180660D02*
D03*
X321343Y72660D02*
D03*
X343343D02*
D03*
X332343Y67660D02*
D03*
X321343Y172660D02*
D03*
X343343D02*
D03*
X332343Y167660D02*
D03*
X321343Y128660D02*
D03*
X332343Y133660D02*
D03*
X343343Y128660D02*
D03*
X321343Y228660D02*
D03*
X332343Y233660D02*
D03*
X343343Y228660D02*
D03*
X877080Y813750D02*
D03*
Y803750D02*
D03*
Y793750D02*
D03*
Y783750D02*
D03*
Y773750D02*
D03*
Y913750D02*
D03*
Y903750D02*
D03*
Y893750D02*
D03*
Y883750D02*
D03*
Y873750D02*
D03*
X911080Y813750D02*
D03*
Y803750D02*
D03*
Y793750D02*
D03*
Y783750D02*
D03*
Y773750D02*
D03*
Y913750D02*
D03*
Y903750D02*
D03*
Y893750D02*
D03*
Y883750D02*
D03*
Y873750D02*
D03*
X883080Y765750D02*
D03*
X905080D02*
D03*
X894080Y760750D02*
D03*
X883080Y865750D02*
D03*
X905080D02*
D03*
X894080Y860750D02*
D03*
X883080Y821750D02*
D03*
X894080Y826750D02*
D03*
X905080Y821750D02*
D03*
X883080Y921750D02*
D03*
X894080Y926750D02*
D03*
X905080Y921750D02*
D03*
M02*
