G04 Layer_Color=32768*
%FSLAX44Y44*%
%MOMM*%
G71*
G01*
G75*
%ADD37C,0.1270*%
%ADD69C,0.1000*%
D37*
X-25152Y829312D02*
X-253D01*
Y905512D01*
X-25152D02*
X-253D01*
X-25152Y829312D02*
Y905512D01*
X558787Y-44202D02*
Y-19303D01*
X482587D02*
X558787D01*
X482587Y-44202D02*
Y-19303D01*
Y-44202D02*
X558787D01*
X1043942Y924813D02*
Y949712D01*
Y924813D02*
X1120142D01*
Y949712D01*
X1043942D02*
X1120142D01*
X1240777Y-44202D02*
Y-19303D01*
X1164577D02*
X1240777D01*
X1164577Y-44202D02*
Y-19303D01*
Y-44202D02*
X1240777D01*
X1926974D02*
Y-19303D01*
X1850774D02*
X1926974D01*
X1850774Y-44202D02*
Y-19303D01*
Y-44202D02*
X1926974D01*
D69*
X1947570Y123470D02*
Y158470D01*
X1966570Y123470D02*
Y158470D01*
X1947570Y123470D02*
X1966570D01*
X1947570Y158470D02*
X1966570D01*
X1925980Y123470D02*
Y158470D01*
X1944980Y123470D02*
Y158470D01*
X1925980Y123470D02*
X1944980D01*
X1925980Y158470D02*
X1944980D01*
X1278230Y123470D02*
Y158470D01*
X1259230Y123470D02*
Y158470D01*
Y123470D02*
X1278230D01*
X1259230Y158470D02*
X1278230D01*
X1257910Y123470D02*
Y158470D01*
X1238910Y123470D02*
Y158470D01*
Y123470D02*
X1257910D01*
X1238910Y158470D02*
X1257910D01*
X1075030Y816890D02*
Y851890D01*
X1056030Y816890D02*
Y851890D01*
Y816890D02*
X1075030D01*
X1056030Y851890D02*
X1075030D01*
X1095350Y816890D02*
Y851890D01*
X1076350Y816890D02*
Y851890D01*
Y816890D02*
X1095350D01*
X1076350Y851890D02*
X1095350D01*
X596240Y123470D02*
Y158470D01*
X577240Y123470D02*
Y158470D01*
Y123470D02*
X596240D01*
X577240Y158470D02*
X596240D01*
X575920Y123470D02*
Y158470D01*
X556920Y123470D02*
Y158470D01*
Y123470D02*
X575920D01*
X556920Y158470D02*
X575920D01*
X98450Y837210D02*
Y872210D01*
X117450Y837210D02*
Y872210D01*
X98450D02*
X117450D01*
X98450Y837210D02*
X117450D01*
X75590D02*
Y872210D01*
X94590Y837210D02*
Y872210D01*
X75590D02*
X94590D01*
X75590Y837210D02*
X94590D01*
M02*
