G04 Layer_Color=32768*
%FSLAX44Y44*%
%MOMM*%
G71*
G01*
G75*
%ADD37C,0.1270*%
%ADD69C,0.1000*%
%ADD70C,0.0500*%
D37*
X-25152Y829312D02*
Y905512D01*
X-253D01*
Y829312D02*
Y905512D01*
X-25152Y829312D02*
X-253D01*
X482587Y-44202D02*
X558787D01*
X482587D02*
Y-19303D01*
X558787D01*
Y-44202D02*
Y-19303D01*
X1043942Y949712D02*
X1120142D01*
Y924813D02*
Y949712D01*
X1043942Y924813D02*
X1120142D01*
X1043942D02*
Y949712D01*
X1164577Y-44202D02*
X1240777D01*
X1164577D02*
Y-19303D01*
X1240777D01*
Y-44202D02*
Y-19303D01*
X1850774Y-44202D02*
X1926974D01*
X1850774D02*
Y-19303D01*
X1926974D01*
Y-44202D02*
Y-19303D01*
D69*
X-12700Y864910D02*
Y869910D01*
X-15200Y867410D02*
X-10200D01*
X1947570Y158470D02*
X1966570D01*
X1947570Y123470D02*
X1966570D01*
Y158470D01*
X1947570Y123470D02*
Y158470D01*
X1925980D02*
X1944980D01*
X1925980Y123470D02*
X1944980D01*
Y158470D01*
X1925980Y123470D02*
Y158470D01*
X518189Y-31750D02*
X523189D01*
X520689Y-34250D02*
Y-29250D01*
X1079540Y937260D02*
X1084540D01*
X1082040Y934760D02*
Y939760D01*
X1200179Y-31750D02*
X1205179D01*
X1202679Y-34250D02*
Y-29250D01*
X1886376Y-31750D02*
X1891376D01*
X1888876Y-34250D02*
Y-29250D01*
X1259230Y158470D02*
X1278230D01*
X1259230Y123470D02*
X1278230D01*
X1259230D02*
Y158470D01*
X1278230Y123470D02*
Y158470D01*
X1238910D02*
X1257910D01*
X1238910Y123470D02*
X1257910D01*
X1238910D02*
Y158470D01*
X1257910Y123470D02*
Y158470D01*
X1056030Y851890D02*
X1075030D01*
X1056030Y816890D02*
X1075030D01*
X1056030D02*
Y851890D01*
X1075030Y816890D02*
Y851890D01*
X1076350D02*
X1095350D01*
X1076350Y816890D02*
X1095350D01*
X1076350D02*
Y851890D01*
X1095350Y816890D02*
Y851890D01*
X577240Y158470D02*
X596240D01*
X577240Y123470D02*
X596240D01*
X577240D02*
Y158470D01*
X596240Y123470D02*
Y158470D01*
X556920D02*
X575920D01*
X556920Y123470D02*
X575920D01*
X556920D02*
Y158470D01*
X575920Y123470D02*
Y158470D01*
X98450Y837210D02*
X117450D01*
X98450Y872210D02*
X117450D01*
Y837210D02*
Y872210D01*
X98450Y837210D02*
Y872210D01*
X75590Y837210D02*
X94590D01*
X75590Y872210D02*
X94590D01*
Y837210D02*
Y872210D01*
X75590Y837210D02*
Y872210D01*
D70*
X1955320Y140970D02*
X1958820D01*
X1957070Y139220D02*
Y142720D01*
X1933730Y140970D02*
X1937230D01*
X1935480Y139220D02*
Y142720D01*
X1266980Y140970D02*
X1270480D01*
X1268730Y139220D02*
Y142720D01*
X1246660Y140970D02*
X1250160D01*
X1248410Y139220D02*
Y142720D01*
X1063780Y834390D02*
X1067280D01*
X1065530Y832640D02*
Y836140D01*
X1084100Y834390D02*
X1087600D01*
X1085850Y832640D02*
Y836140D01*
X584990Y140970D02*
X588490D01*
X586740Y139220D02*
Y142720D01*
X564670Y140970D02*
X568170D01*
X566420Y139220D02*
Y142720D01*
X106200Y854710D02*
X109700D01*
X107950Y852960D02*
Y856460D01*
X83340Y854710D02*
X86840D01*
X85090Y852960D02*
Y856460D01*
M02*
