G04 Layer_Color=16711935*
%FSLAX44Y44*%
%MOMM*%
G71*
G01*
G75*
G04:AMPARAMS|DCode=40|XSize=21.7032mm|YSize=13.7032mm|CornerRadius=0.4391mm|HoleSize=0mm|Usage=FLASHONLY|Rotation=180.000|XOffset=0mm|YOffset=0mm|HoleType=Round|Shape=RoundedRectangle|*
%AMROUNDEDRECTD40*
21,1,21.7032,12.8250,0,0,180.0*
21,1,20.8250,13.7032,0,0,180.0*
1,1,0.8782,-10.4125,6.4125*
1,1,0.8782,10.4125,6.4125*
1,1,0.8782,10.4125,-6.4125*
1,1,0.8782,-10.4125,-6.4125*
%
%ADD40ROUNDEDRECTD40*%
%ADD42R,1.7232X1.3032*%
%ADD43R,16.2052X17.0942*%
%ADD44C,7.2032*%
%ADD45R,2.2032X1.7032*%
%ADD46O,2.2032X1.7032*%
%ADD47C,2.7032*%
%ADD48C,2.0032*%
%ADD49R,1.7032X1.7032*%
%ADD50C,1.7032*%
%ADD51O,5.2032X8.2032*%
%ADD52C,1.7272*%
%ADD53C,4.2032*%
%ADD54C,2.2032*%
%ADD55R,1.7032X2.2032*%
%ADD56O,1.7032X2.2032*%
%ADD57O,4.7032X1.7032*%
%ADD58C,1.0032*%
%ADD59C,0.8032*%
%ADD60R,3.2032X3.7032*%
D40*
X1815833Y315290D02*
D03*
X1132572D02*
D03*
X449183D02*
D03*
X1580623Y454990D02*
D03*
X897303D02*
D03*
X214233D02*
D03*
D42*
X1268730Y130970D02*
D03*
Y150970D02*
D03*
X1248410Y130970D02*
D03*
Y150970D02*
D03*
X1065530Y824390D02*
D03*
Y844390D02*
D03*
X1085850Y824390D02*
D03*
Y844390D02*
D03*
X586740Y130970D02*
D03*
Y150970D02*
D03*
X566420Y130970D02*
D03*
Y150970D02*
D03*
X107950Y864710D02*
D03*
Y844710D02*
D03*
X85090Y864710D02*
D03*
Y844710D02*
D03*
D43*
X1210310Y932750D02*
D03*
X1581100Y61894D02*
D03*
X895300Y61895D02*
D03*
X214183Y61894D02*
D03*
X778460Y932750D02*
D03*
D44*
X0Y986000D02*
D03*
X-77500Y693000D02*
D03*
Y493000D02*
D03*
Y293000D02*
D03*
X0Y0D02*
D03*
X642500D02*
D03*
X1382500D02*
D03*
X2025000D02*
D03*
X2102500Y293000D02*
D03*
Y493000D02*
D03*
Y693000D02*
D03*
X2025000Y986000D02*
D03*
X1782500D02*
D03*
X1582500D02*
D03*
X1382500D02*
D03*
X642500D02*
D03*
X442500D02*
D03*
D45*
X-12700Y842010D02*
D03*
D46*
Y867410D02*
D03*
Y892810D02*
D03*
D47*
X86360Y816606D02*
D03*
Y892810D02*
D03*
Y969010D02*
D03*
D48*
X289560Y816610D02*
D03*
Y969010D02*
D03*
D49*
X1338183Y347040D02*
D03*
Y245440D02*
D03*
X654793Y347040D02*
D03*
Y245440D02*
D03*
X691753Y326720D02*
D03*
Y428320D02*
D03*
X8622Y326720D02*
D03*
Y428320D02*
D03*
X1375013Y326720D02*
D03*
Y428320D02*
D03*
X2021443Y347040D02*
D03*
Y245440D02*
D03*
D50*
X1338183Y372440D02*
D03*
Y397840D02*
D03*
Y270840D02*
D03*
Y296240D02*
D03*
X654793Y372440D02*
D03*
Y397840D02*
D03*
Y270840D02*
D03*
Y296240D02*
D03*
X691753Y301320D02*
D03*
Y275920D02*
D03*
Y402920D02*
D03*
Y377520D02*
D03*
X8622Y301320D02*
D03*
Y275920D02*
D03*
Y402920D02*
D03*
Y377520D02*
D03*
X1375013Y301320D02*
D03*
Y275920D02*
D03*
Y402920D02*
D03*
Y377520D02*
D03*
X2021443Y372440D02*
D03*
Y397840D02*
D03*
Y270840D02*
D03*
Y296240D02*
D03*
D51*
X1699260Y100660D02*
D03*
Y200660D02*
D03*
X1014333Y100660D02*
D03*
Y200660D02*
D03*
X332343Y100660D02*
D03*
Y200660D02*
D03*
X894080Y793750D02*
D03*
Y893750D02*
D03*
D52*
X1913260Y131560D02*
D03*
Y169760D02*
D03*
Y150660D02*
D03*
X1228333Y131560D02*
D03*
Y169760D02*
D03*
Y150660D02*
D03*
X546343Y131560D02*
D03*
Y169760D02*
D03*
Y150660D02*
D03*
X1108080Y824650D02*
D03*
Y862850D02*
D03*
Y843750D02*
D03*
D53*
X1156920Y985460D02*
D03*
Y933360D02*
D03*
Y881260D02*
D03*
X1264920D02*
D03*
Y933360D02*
D03*
Y985460D02*
D03*
X1634490Y9190D02*
D03*
Y61290D02*
D03*
Y113390D02*
D03*
X1526490D02*
D03*
Y61290D02*
D03*
Y9190D02*
D03*
X948690D02*
D03*
Y61290D02*
D03*
Y113390D02*
D03*
X840690D02*
D03*
Y61290D02*
D03*
Y9190D02*
D03*
X267573D02*
D03*
Y61290D02*
D03*
Y113390D02*
D03*
X159573D02*
D03*
Y61290D02*
D03*
Y9190D02*
D03*
X831850Y880050D02*
D03*
Y932150D02*
D03*
Y984250D02*
D03*
X723850D02*
D03*
Y932150D02*
D03*
Y880050D02*
D03*
X1595993Y689140D02*
D03*
Y589140D02*
D03*
X229473Y689140D02*
D03*
Y589140D02*
D03*
X102747Y689140D02*
D03*
Y589140D02*
D03*
X785878Y689140D02*
D03*
Y589140D02*
D03*
X1469138Y689140D02*
D03*
Y589140D02*
D03*
X912733Y689140D02*
D03*
Y589140D02*
D03*
D54*
X2008743Y630250D02*
D03*
X1733743D02*
D03*
X1325483D02*
D03*
X1050483D02*
D03*
X642903D02*
D03*
X367903D02*
D03*
X1631950Y906780D02*
D03*
Y856780D02*
D03*
D55*
X546089Y-31750D02*
D03*
X1056640Y937260D02*
D03*
X1228079Y-31750D02*
D03*
X1914276D02*
D03*
D56*
X520689D02*
D03*
X495289D02*
D03*
X1082040Y937260D02*
D03*
X1107440D02*
D03*
X1202679Y-31750D02*
D03*
X1177279D02*
D03*
X1888876D02*
D03*
X1863476D02*
D03*
D57*
X1480820Y865340D02*
D03*
Y916940D02*
D03*
Y813740D02*
D03*
D58*
X1915383Y374980D02*
D03*
X1909383Y362980D02*
D03*
X1915383Y350980D02*
D03*
X1909383Y338980D02*
D03*
X1915383Y326980D02*
D03*
X1909383Y314980D02*
D03*
X1915383Y302980D02*
D03*
X1909383Y290980D02*
D03*
X1915383Y278980D02*
D03*
X1909383Y266980D02*
D03*
X1915383Y254980D02*
D03*
X1903383Y374980D02*
D03*
X1897383Y362980D02*
D03*
X1903383Y350980D02*
D03*
X1897383Y338980D02*
D03*
X1903383Y326980D02*
D03*
X1897383Y314980D02*
D03*
X1903383Y302980D02*
D03*
X1897383Y290980D02*
D03*
X1903383Y278980D02*
D03*
X1897383Y266980D02*
D03*
X1903383Y254980D02*
D03*
X1891383Y374980D02*
D03*
X1885383Y362980D02*
D03*
X1891383Y350980D02*
D03*
X1885383Y338980D02*
D03*
X1891383Y326980D02*
D03*
X1885383Y314980D02*
D03*
X1891383Y302980D02*
D03*
X1885383Y290980D02*
D03*
X1891383Y278980D02*
D03*
X1885383Y266980D02*
D03*
X1891383Y254980D02*
D03*
X1879383Y374980D02*
D03*
X1873383Y362980D02*
D03*
X1879383Y350980D02*
D03*
X1873383Y338980D02*
D03*
X1879383Y326980D02*
D03*
X1873383Y314980D02*
D03*
X1879383Y302980D02*
D03*
X1873383Y290980D02*
D03*
X1879383Y278980D02*
D03*
X1873383Y266980D02*
D03*
X1879383Y254980D02*
D03*
X1867383Y374980D02*
D03*
X1861383Y362980D02*
D03*
X1867383Y350980D02*
D03*
X1861383Y338980D02*
D03*
X1867383Y326980D02*
D03*
X1861383Y314980D02*
D03*
X1867383Y302980D02*
D03*
X1861383Y290980D02*
D03*
X1867383Y278980D02*
D03*
X1861383Y266980D02*
D03*
X1867383Y254980D02*
D03*
X1855383Y374980D02*
D03*
X1849383Y362980D02*
D03*
X1855383Y350980D02*
D03*
X1849383Y338980D02*
D03*
X1855383Y326980D02*
D03*
X1849383Y314980D02*
D03*
X1855383Y302980D02*
D03*
X1849383Y290980D02*
D03*
X1855383Y278980D02*
D03*
X1849383Y266980D02*
D03*
X1855383Y254980D02*
D03*
X1843383Y374980D02*
D03*
X1837383Y362980D02*
D03*
X1843383Y350980D02*
D03*
X1837383Y338980D02*
D03*
X1843383Y326980D02*
D03*
X1837383Y314980D02*
D03*
X1843383Y302980D02*
D03*
X1837383Y290980D02*
D03*
X1843383Y278980D02*
D03*
X1837383Y266980D02*
D03*
X1843383Y254980D02*
D03*
X1831382Y374980D02*
D03*
X1825383Y362980D02*
D03*
X1831382Y350980D02*
D03*
X1825383Y338980D02*
D03*
X1831382Y326980D02*
D03*
X1825383Y314980D02*
D03*
X1831382Y302980D02*
D03*
X1825383Y290980D02*
D03*
X1831382Y278980D02*
D03*
X1825383Y266980D02*
D03*
X1831382Y254980D02*
D03*
X1819382Y374980D02*
D03*
X1813383Y362980D02*
D03*
X1819382Y350980D02*
D03*
X1813383Y338980D02*
D03*
X1819382Y326980D02*
D03*
X1813383Y314980D02*
D03*
X1819382Y302980D02*
D03*
X1813383Y290980D02*
D03*
X1819382Y278980D02*
D03*
X1813383Y266980D02*
D03*
X1819382Y254980D02*
D03*
X1807383Y374980D02*
D03*
X1801383Y362980D02*
D03*
X1807383Y350980D02*
D03*
X1801383Y338980D02*
D03*
X1807383Y326980D02*
D03*
X1801383Y314980D02*
D03*
X1807383Y302980D02*
D03*
X1801383Y290980D02*
D03*
X1807383Y278980D02*
D03*
X1801383Y266980D02*
D03*
X1807383Y254980D02*
D03*
X1795383Y374980D02*
D03*
X1789383Y362980D02*
D03*
X1795383Y350980D02*
D03*
X1789383Y338980D02*
D03*
X1795383Y326980D02*
D03*
X1789383Y314980D02*
D03*
X1795383Y302980D02*
D03*
X1789383Y290980D02*
D03*
X1795383Y278980D02*
D03*
X1789383Y266980D02*
D03*
X1795383Y254980D02*
D03*
X1783383Y374980D02*
D03*
X1777383Y362980D02*
D03*
X1783383Y350980D02*
D03*
X1777383Y338980D02*
D03*
X1783383Y326980D02*
D03*
X1777383Y314980D02*
D03*
X1783383Y302980D02*
D03*
X1777383Y290980D02*
D03*
X1783383Y278980D02*
D03*
X1777383Y266980D02*
D03*
X1783383Y254980D02*
D03*
X1771382Y374980D02*
D03*
X1765383Y362980D02*
D03*
X1771382Y350980D02*
D03*
X1765383Y338980D02*
D03*
X1771382Y326980D02*
D03*
X1765383Y314980D02*
D03*
X1771382Y302980D02*
D03*
X1765383Y290980D02*
D03*
X1771382Y278980D02*
D03*
X1765383Y266980D02*
D03*
X1771382Y254980D02*
D03*
X1759382Y374980D02*
D03*
X1753383Y362980D02*
D03*
X1759382Y350980D02*
D03*
X1753383Y338980D02*
D03*
X1759382Y326980D02*
D03*
X1753383Y314980D02*
D03*
X1759382Y302980D02*
D03*
X1753383Y290980D02*
D03*
X1759382Y278980D02*
D03*
X1753383Y266980D02*
D03*
X1759382Y254980D02*
D03*
X1722833Y254820D02*
D03*
X1716833Y266820D02*
D03*
X1722833Y278820D02*
D03*
X1716833Y290820D02*
D03*
X1722833Y302820D02*
D03*
X1716833Y314820D02*
D03*
X1722833Y326820D02*
D03*
X1716833Y338820D02*
D03*
X1722833Y350820D02*
D03*
X1716833Y362820D02*
D03*
X1722833Y374820D02*
D03*
X1734833Y254820D02*
D03*
X1728833Y266820D02*
D03*
X1734833Y278820D02*
D03*
X1728833Y290820D02*
D03*
X1734833Y302820D02*
D03*
X1728833Y314820D02*
D03*
X1734833Y326820D02*
D03*
X1728833Y338820D02*
D03*
X1734833Y350820D02*
D03*
X1728833Y362820D02*
D03*
X1734833Y374820D02*
D03*
X1746833Y254820D02*
D03*
X1740833Y266820D02*
D03*
X1746833Y278820D02*
D03*
X1740833Y290820D02*
D03*
X1746833Y302820D02*
D03*
X1740833Y314820D02*
D03*
X1746833Y326820D02*
D03*
X1740833Y338820D02*
D03*
X1746833Y350820D02*
D03*
X1740833Y362820D02*
D03*
X1746833Y374820D02*
D03*
X1232123Y374980D02*
D03*
X1226123Y362980D02*
D03*
X1232123Y350980D02*
D03*
X1226123Y338980D02*
D03*
X1232123Y326980D02*
D03*
X1226123Y314980D02*
D03*
X1232123Y302980D02*
D03*
X1226123Y290980D02*
D03*
X1232123Y278980D02*
D03*
X1226123Y266980D02*
D03*
X1232123Y254980D02*
D03*
X1220123Y374980D02*
D03*
X1214123Y362980D02*
D03*
X1220123Y350980D02*
D03*
X1214123Y338980D02*
D03*
X1220123Y326980D02*
D03*
X1214123Y314980D02*
D03*
X1220123Y302980D02*
D03*
X1214123Y290980D02*
D03*
X1220123Y278980D02*
D03*
X1214123Y266980D02*
D03*
X1220123Y254980D02*
D03*
X1208123Y374980D02*
D03*
X1202123Y362980D02*
D03*
X1208123Y350980D02*
D03*
X1202123Y338980D02*
D03*
X1208123Y326980D02*
D03*
X1202123Y314980D02*
D03*
X1208123Y302980D02*
D03*
X1202123Y290980D02*
D03*
X1208123Y278980D02*
D03*
X1202123Y266980D02*
D03*
X1208123Y254980D02*
D03*
X1196123Y374980D02*
D03*
X1190123Y362980D02*
D03*
X1196123Y350980D02*
D03*
X1190123Y338980D02*
D03*
X1196123Y326980D02*
D03*
X1190123Y314980D02*
D03*
X1196123Y302980D02*
D03*
X1190123Y290980D02*
D03*
X1196123Y278980D02*
D03*
X1190123Y266980D02*
D03*
X1196123Y254980D02*
D03*
X1184122Y374980D02*
D03*
X1178123Y362980D02*
D03*
X1184122Y350980D02*
D03*
X1178123Y338980D02*
D03*
X1184122Y326980D02*
D03*
X1178123Y314980D02*
D03*
X1184122Y302980D02*
D03*
X1178123Y290980D02*
D03*
X1184122Y278980D02*
D03*
X1178123Y266980D02*
D03*
X1184122Y254980D02*
D03*
X1172122Y374980D02*
D03*
X1166123Y362980D02*
D03*
X1172122Y350980D02*
D03*
X1166123Y338980D02*
D03*
X1172122Y326980D02*
D03*
X1166123Y314980D02*
D03*
X1172122Y302980D02*
D03*
X1166123Y290980D02*
D03*
X1172122Y278980D02*
D03*
X1166123Y266980D02*
D03*
X1172122Y254980D02*
D03*
X1160123Y374980D02*
D03*
X1154123Y362980D02*
D03*
X1160123Y350980D02*
D03*
X1154123Y338980D02*
D03*
X1160123Y326980D02*
D03*
X1154123Y314980D02*
D03*
X1160123Y302980D02*
D03*
X1154123Y290980D02*
D03*
X1160123Y278980D02*
D03*
X1154123Y266980D02*
D03*
X1160123Y254980D02*
D03*
X1148122Y374980D02*
D03*
X1142123Y362980D02*
D03*
X1148122Y350980D02*
D03*
X1142123Y338980D02*
D03*
X1148122Y326980D02*
D03*
X1142123Y314980D02*
D03*
X1148122Y302980D02*
D03*
X1142123Y290980D02*
D03*
X1148122Y278980D02*
D03*
X1142123Y266980D02*
D03*
X1148122Y254980D02*
D03*
X1136123Y374980D02*
D03*
X1130123Y362980D02*
D03*
X1136123Y350980D02*
D03*
X1130123Y338980D02*
D03*
X1136123Y326980D02*
D03*
X1130123Y314980D02*
D03*
X1136123Y302980D02*
D03*
X1130123Y290980D02*
D03*
X1136123Y278980D02*
D03*
X1130123Y266980D02*
D03*
X1136123Y254980D02*
D03*
X1124122Y374980D02*
D03*
X1118123Y362980D02*
D03*
X1124122Y350980D02*
D03*
X1118123Y338980D02*
D03*
X1124122Y326980D02*
D03*
X1118123Y314980D02*
D03*
X1124122Y302980D02*
D03*
X1118123Y290980D02*
D03*
X1124122Y278980D02*
D03*
X1118123Y266980D02*
D03*
X1124122Y254980D02*
D03*
X1112122Y374980D02*
D03*
X1106123Y362980D02*
D03*
X1112122Y350980D02*
D03*
X1106123Y338980D02*
D03*
X1112122Y326980D02*
D03*
X1106123Y314980D02*
D03*
X1112122Y302980D02*
D03*
X1106123Y290980D02*
D03*
X1112122Y278980D02*
D03*
X1106123Y266980D02*
D03*
X1112122Y254980D02*
D03*
X1100123Y374980D02*
D03*
X1094123Y362980D02*
D03*
X1100123Y350980D02*
D03*
X1094123Y338980D02*
D03*
X1100123Y326980D02*
D03*
X1094123Y314980D02*
D03*
X1100123Y302980D02*
D03*
X1094123Y290980D02*
D03*
X1100123Y278980D02*
D03*
X1094123Y266980D02*
D03*
X1100123Y254980D02*
D03*
X1088122Y374980D02*
D03*
X1082122Y362980D02*
D03*
X1088122Y350980D02*
D03*
X1082122Y338980D02*
D03*
X1088122Y326980D02*
D03*
X1082122Y314980D02*
D03*
X1088122Y302980D02*
D03*
X1082122Y290980D02*
D03*
X1088122Y278980D02*
D03*
X1082122Y266980D02*
D03*
X1088122Y254980D02*
D03*
X1076123Y374980D02*
D03*
X1070123Y362980D02*
D03*
X1076123Y350980D02*
D03*
X1070123Y338980D02*
D03*
X1076123Y326980D02*
D03*
X1070123Y314980D02*
D03*
X1076123Y302980D02*
D03*
X1070123Y290980D02*
D03*
X1076123Y278980D02*
D03*
X1070123Y266980D02*
D03*
X1076123Y254980D02*
D03*
X1039573Y254820D02*
D03*
X1033573Y266820D02*
D03*
X1039573Y278820D02*
D03*
X1033573Y290820D02*
D03*
X1039573Y302820D02*
D03*
X1033573Y314820D02*
D03*
X1039573Y326820D02*
D03*
X1033573Y338820D02*
D03*
X1039573Y350820D02*
D03*
X1033573Y362820D02*
D03*
X1039573Y374820D02*
D03*
X1051573Y254820D02*
D03*
X1045573Y266820D02*
D03*
X1051573Y278820D02*
D03*
X1045573Y290820D02*
D03*
X1051573Y302820D02*
D03*
X1045573Y314820D02*
D03*
X1051573Y326820D02*
D03*
X1045573Y338820D02*
D03*
X1051573Y350820D02*
D03*
X1045573Y362820D02*
D03*
X1051573Y374820D02*
D03*
X1063573Y254820D02*
D03*
X1057573Y266820D02*
D03*
X1063573Y278820D02*
D03*
X1057573Y290820D02*
D03*
X1063573Y302820D02*
D03*
X1057573Y314820D02*
D03*
X1063573Y326820D02*
D03*
X1057573Y338820D02*
D03*
X1063573Y350820D02*
D03*
X1057573Y362820D02*
D03*
X1063573Y374820D02*
D03*
X548733Y374980D02*
D03*
X542733Y362980D02*
D03*
X548733Y350980D02*
D03*
X542733Y338980D02*
D03*
X548733Y326980D02*
D03*
X542733Y314980D02*
D03*
X548733Y302980D02*
D03*
X542733Y290980D02*
D03*
X548733Y278980D02*
D03*
X542733Y266980D02*
D03*
X548733Y254980D02*
D03*
X536733Y374980D02*
D03*
X530733Y362980D02*
D03*
X536733Y350980D02*
D03*
X530733Y338980D02*
D03*
X536733Y326980D02*
D03*
X530733Y314980D02*
D03*
X536733Y302980D02*
D03*
X530733Y290980D02*
D03*
X536733Y278980D02*
D03*
X530733Y266980D02*
D03*
X536733Y254980D02*
D03*
X524733Y374980D02*
D03*
X518733Y362980D02*
D03*
X524733Y350980D02*
D03*
X518733Y338980D02*
D03*
X524733Y326980D02*
D03*
X518733Y314980D02*
D03*
X524733Y302980D02*
D03*
X518733Y290980D02*
D03*
X524733Y278980D02*
D03*
X518733Y266980D02*
D03*
X524733Y254980D02*
D03*
X512733Y374980D02*
D03*
X506733Y362980D02*
D03*
X512733Y350980D02*
D03*
X506733Y338980D02*
D03*
X512733Y326980D02*
D03*
X506733Y314980D02*
D03*
X512733Y302980D02*
D03*
X506733Y290980D02*
D03*
X512733Y278980D02*
D03*
X506733Y266980D02*
D03*
X512733Y254980D02*
D03*
X500733Y374980D02*
D03*
X494733Y362980D02*
D03*
X500733Y350980D02*
D03*
X494733Y338980D02*
D03*
X500733Y326980D02*
D03*
X494733Y314980D02*
D03*
X500733Y302980D02*
D03*
X494733Y290980D02*
D03*
X500733Y278980D02*
D03*
X494733Y266980D02*
D03*
X500733Y254980D02*
D03*
X488733Y374980D02*
D03*
X482733Y362980D02*
D03*
X488733Y350980D02*
D03*
X482733Y338980D02*
D03*
X488733Y326980D02*
D03*
X482733Y314980D02*
D03*
X488733Y302980D02*
D03*
X482733Y290980D02*
D03*
X488733Y278980D02*
D03*
X482733Y266980D02*
D03*
X488733Y254980D02*
D03*
X476733Y374980D02*
D03*
X470733Y362980D02*
D03*
X476733Y350980D02*
D03*
X470733Y338980D02*
D03*
X476733Y326980D02*
D03*
X470733Y314980D02*
D03*
X476733Y302980D02*
D03*
X470733Y290980D02*
D03*
X476733Y278980D02*
D03*
X470733Y266980D02*
D03*
X476733Y254980D02*
D03*
X464733Y374980D02*
D03*
X458733Y362980D02*
D03*
X464733Y350980D02*
D03*
X458733Y338980D02*
D03*
X464733Y326980D02*
D03*
X458733Y314980D02*
D03*
X464733Y302980D02*
D03*
X458733Y290980D02*
D03*
X464733Y278980D02*
D03*
X458733Y266980D02*
D03*
X464733Y254980D02*
D03*
X452733Y374980D02*
D03*
X446733Y362980D02*
D03*
X452733Y350980D02*
D03*
X446733Y338980D02*
D03*
X452733Y326980D02*
D03*
X446733Y314980D02*
D03*
X452733Y302980D02*
D03*
X446733Y290980D02*
D03*
X452733Y278980D02*
D03*
X446733Y266980D02*
D03*
X452733Y254980D02*
D03*
X440733Y374980D02*
D03*
X434733Y362980D02*
D03*
X440733Y350980D02*
D03*
X434733Y338980D02*
D03*
X440733Y326980D02*
D03*
X434733Y314980D02*
D03*
X440733Y302980D02*
D03*
X434733Y290980D02*
D03*
X440733Y278980D02*
D03*
X434733Y266980D02*
D03*
X440733Y254980D02*
D03*
X428733Y374980D02*
D03*
X422733Y362980D02*
D03*
X428733Y350980D02*
D03*
X422733Y338980D02*
D03*
X428733Y326980D02*
D03*
X422733Y314980D02*
D03*
X428733Y302980D02*
D03*
X422733Y290980D02*
D03*
X428733Y278980D02*
D03*
X422733Y266980D02*
D03*
X428733Y254980D02*
D03*
X416733Y374980D02*
D03*
X410733Y362980D02*
D03*
X416733Y350980D02*
D03*
X410733Y338980D02*
D03*
X416733Y326980D02*
D03*
X410733Y314980D02*
D03*
X416733Y302980D02*
D03*
X410733Y290980D02*
D03*
X416733Y278980D02*
D03*
X410733Y266980D02*
D03*
X416733Y254980D02*
D03*
X404733Y374980D02*
D03*
X398733Y362980D02*
D03*
X404733Y350980D02*
D03*
X398733Y338980D02*
D03*
X404733Y326980D02*
D03*
X398733Y314980D02*
D03*
X404733Y302980D02*
D03*
X398733Y290980D02*
D03*
X404733Y278980D02*
D03*
X398733Y266980D02*
D03*
X404733Y254980D02*
D03*
X392733Y374980D02*
D03*
X386733Y362980D02*
D03*
X392733Y350980D02*
D03*
X386733Y338980D02*
D03*
X392733Y326980D02*
D03*
X386733Y314980D02*
D03*
X392733Y302980D02*
D03*
X386733Y290980D02*
D03*
X392733Y278980D02*
D03*
X386733Y266980D02*
D03*
X392733Y254980D02*
D03*
X356183Y254820D02*
D03*
X350183Y266820D02*
D03*
X356183Y278820D02*
D03*
X350183Y290820D02*
D03*
X356183Y302820D02*
D03*
X350183Y314820D02*
D03*
X356183Y326820D02*
D03*
X350183Y338820D02*
D03*
X356183Y350820D02*
D03*
X350183Y362820D02*
D03*
X356183Y374820D02*
D03*
X368183Y254820D02*
D03*
X362183Y266820D02*
D03*
X368183Y278820D02*
D03*
X362183Y290820D02*
D03*
X368183Y302820D02*
D03*
X362183Y314820D02*
D03*
X368183Y326820D02*
D03*
X362183Y338820D02*
D03*
X368183Y350820D02*
D03*
X362183Y362820D02*
D03*
X368183Y374820D02*
D03*
X380183Y254820D02*
D03*
X374183Y266820D02*
D03*
X380183Y278820D02*
D03*
X374183Y290820D02*
D03*
X380183Y302820D02*
D03*
X374183Y314820D02*
D03*
X380183Y326820D02*
D03*
X374183Y338820D02*
D03*
X380183Y350820D02*
D03*
X374183Y362820D02*
D03*
X380183Y374820D02*
D03*
X1481073Y395300D02*
D03*
X1487073Y407300D02*
D03*
X1481073Y419300D02*
D03*
X1487073Y431300D02*
D03*
X1481073Y443300D02*
D03*
X1487073Y455300D02*
D03*
X1481073Y467300D02*
D03*
X1487073Y479300D02*
D03*
X1481073Y491300D02*
D03*
X1487073Y503300D02*
D03*
X1481073Y515300D02*
D03*
X1493073Y395300D02*
D03*
X1499073Y407300D02*
D03*
X1493073Y419300D02*
D03*
X1499073Y431300D02*
D03*
X1493073Y443300D02*
D03*
X1499073Y455300D02*
D03*
X1493073Y467300D02*
D03*
X1499073Y479300D02*
D03*
X1493073Y491300D02*
D03*
X1499073Y503300D02*
D03*
X1493073Y515300D02*
D03*
X1505073Y395300D02*
D03*
X1511073Y407300D02*
D03*
X1505073Y419300D02*
D03*
X1511073Y431300D02*
D03*
X1505073Y443300D02*
D03*
X1511073Y455300D02*
D03*
X1505073Y467300D02*
D03*
X1511073Y479300D02*
D03*
X1505073Y491300D02*
D03*
X1511073Y503300D02*
D03*
X1505073Y515300D02*
D03*
X1517073Y395300D02*
D03*
X1523073Y407300D02*
D03*
X1517073Y419300D02*
D03*
X1523073Y431300D02*
D03*
X1517073Y443300D02*
D03*
X1523073Y455300D02*
D03*
X1517073Y467300D02*
D03*
X1523073Y479300D02*
D03*
X1517073Y491300D02*
D03*
X1523073Y503300D02*
D03*
X1517073Y515300D02*
D03*
X1529073Y395300D02*
D03*
X1535073Y407300D02*
D03*
X1529073Y419300D02*
D03*
X1535073Y431300D02*
D03*
X1529073Y443300D02*
D03*
X1535073Y455300D02*
D03*
X1529073Y467300D02*
D03*
X1535073Y479300D02*
D03*
X1529073Y491300D02*
D03*
X1535073Y503300D02*
D03*
X1529073Y515300D02*
D03*
X1541073Y395300D02*
D03*
X1547073Y407300D02*
D03*
X1541073Y419300D02*
D03*
X1547073Y431300D02*
D03*
X1541073Y443300D02*
D03*
X1547073Y455300D02*
D03*
X1541073Y467300D02*
D03*
X1547073Y479300D02*
D03*
X1541073Y491300D02*
D03*
X1547073Y503300D02*
D03*
X1541073Y515300D02*
D03*
X1553073Y395300D02*
D03*
X1559073Y407300D02*
D03*
X1553073Y419300D02*
D03*
X1559073Y431300D02*
D03*
X1553073Y443300D02*
D03*
X1559073Y455300D02*
D03*
X1553073Y467300D02*
D03*
X1559073Y479300D02*
D03*
X1553073Y491300D02*
D03*
X1559073Y503300D02*
D03*
X1553073Y515300D02*
D03*
X1565074Y395300D02*
D03*
X1571073Y407300D02*
D03*
X1565074Y419300D02*
D03*
X1571073Y431300D02*
D03*
X1565074Y443300D02*
D03*
X1571073Y455300D02*
D03*
X1565074Y467300D02*
D03*
X1571073Y479300D02*
D03*
X1565074Y491300D02*
D03*
X1571073Y503300D02*
D03*
X1565074Y515300D02*
D03*
X1577074Y395300D02*
D03*
X1583073Y407300D02*
D03*
X1577074Y419300D02*
D03*
X1583073Y431300D02*
D03*
X1577074Y443300D02*
D03*
X1583073Y455300D02*
D03*
X1577074Y467300D02*
D03*
X1583073Y479300D02*
D03*
X1577074Y491300D02*
D03*
X1583073Y503300D02*
D03*
X1577074Y515300D02*
D03*
X1589073Y395300D02*
D03*
X1595073Y407300D02*
D03*
X1589073Y419300D02*
D03*
X1595073Y431300D02*
D03*
X1589073Y443300D02*
D03*
X1595073Y455300D02*
D03*
X1589073Y467300D02*
D03*
X1595073Y479300D02*
D03*
X1589073Y491300D02*
D03*
X1595073Y503300D02*
D03*
X1589073Y515300D02*
D03*
X1601073Y395300D02*
D03*
X1607073Y407300D02*
D03*
X1601073Y419300D02*
D03*
X1607073Y431300D02*
D03*
X1601073Y443300D02*
D03*
X1607073Y455300D02*
D03*
X1601073Y467300D02*
D03*
X1607073Y479300D02*
D03*
X1601073Y491300D02*
D03*
X1607073Y503300D02*
D03*
X1601073Y515300D02*
D03*
X1613073Y395300D02*
D03*
X1619073Y407300D02*
D03*
X1613073Y419300D02*
D03*
X1619073Y431300D02*
D03*
X1613073Y443300D02*
D03*
X1619073Y455300D02*
D03*
X1613073Y467300D02*
D03*
X1619073Y479300D02*
D03*
X1613073Y491300D02*
D03*
X1619073Y503300D02*
D03*
X1613073Y515300D02*
D03*
X1625074Y395300D02*
D03*
X1631073Y407300D02*
D03*
X1625074Y419300D02*
D03*
X1631073Y431300D02*
D03*
X1625074Y443300D02*
D03*
X1631073Y455300D02*
D03*
X1625074Y467300D02*
D03*
X1631073Y479300D02*
D03*
X1625074Y491300D02*
D03*
X1631073Y503300D02*
D03*
X1625074Y515300D02*
D03*
X1637074Y395300D02*
D03*
X1643073Y407300D02*
D03*
X1637074Y419300D02*
D03*
X1643073Y431300D02*
D03*
X1637074Y443300D02*
D03*
X1643073Y455300D02*
D03*
X1637074Y467300D02*
D03*
X1643073Y479300D02*
D03*
X1637074Y491300D02*
D03*
X1643073Y503300D02*
D03*
X1637074Y515300D02*
D03*
X1673623Y515460D02*
D03*
X1679623Y503460D02*
D03*
X1673623Y491460D02*
D03*
X1679623Y479460D02*
D03*
X1673623Y467460D02*
D03*
X1679623Y455460D02*
D03*
X1673623Y443460D02*
D03*
X1679623Y431460D02*
D03*
X1673623Y419460D02*
D03*
X1679623Y407460D02*
D03*
X1673623Y395460D02*
D03*
X1661623Y515460D02*
D03*
X1667623Y503460D02*
D03*
X1661623Y491460D02*
D03*
X1667623Y479460D02*
D03*
X1661623Y467460D02*
D03*
X1667623Y455460D02*
D03*
X1661623Y443460D02*
D03*
X1667623Y431460D02*
D03*
X1661623Y419460D02*
D03*
X1667623Y407460D02*
D03*
X1661623Y395460D02*
D03*
X1649623Y515460D02*
D03*
X1655623Y503460D02*
D03*
X1649623Y491460D02*
D03*
X1655623Y479460D02*
D03*
X1649623Y467460D02*
D03*
X1655623Y455460D02*
D03*
X1649623Y443460D02*
D03*
X1655623Y431460D02*
D03*
X1649623Y419460D02*
D03*
X1655623Y407460D02*
D03*
X1649623Y395460D02*
D03*
X797753Y395300D02*
D03*
X803753Y407300D02*
D03*
X797753Y419300D02*
D03*
X803753Y431300D02*
D03*
X797753Y443300D02*
D03*
X803753Y455300D02*
D03*
X797753Y467300D02*
D03*
X803753Y479300D02*
D03*
X797753Y491300D02*
D03*
X803753Y503300D02*
D03*
X797753Y515300D02*
D03*
X809753Y395300D02*
D03*
X815753Y407300D02*
D03*
X809753Y419300D02*
D03*
X815753Y431300D02*
D03*
X809753Y443300D02*
D03*
X815753Y455300D02*
D03*
X809753Y467300D02*
D03*
X815753Y479300D02*
D03*
X809753Y491300D02*
D03*
X815753Y503300D02*
D03*
X809753Y515300D02*
D03*
X821753Y395300D02*
D03*
X827753Y407300D02*
D03*
X821753Y419300D02*
D03*
X827753Y431300D02*
D03*
X821753Y443300D02*
D03*
X827753Y455300D02*
D03*
X821753Y467300D02*
D03*
X827753Y479300D02*
D03*
X821753Y491300D02*
D03*
X827753Y503300D02*
D03*
X821753Y515300D02*
D03*
X833754Y395300D02*
D03*
X839753Y407300D02*
D03*
X833754Y419300D02*
D03*
X839753Y431300D02*
D03*
X833754Y443300D02*
D03*
X839753Y455300D02*
D03*
X833754Y467300D02*
D03*
X839753Y479300D02*
D03*
X833754Y491300D02*
D03*
X839753Y503300D02*
D03*
X833754Y515300D02*
D03*
X845753Y395300D02*
D03*
X851753Y407300D02*
D03*
X845753Y419300D02*
D03*
X851753Y431300D02*
D03*
X845753Y443300D02*
D03*
X851753Y455300D02*
D03*
X845753Y467300D02*
D03*
X851753Y479300D02*
D03*
X845753Y491300D02*
D03*
X851753Y503300D02*
D03*
X845753Y515300D02*
D03*
X857754Y395300D02*
D03*
X863753Y407300D02*
D03*
X857754Y419300D02*
D03*
X863753Y431300D02*
D03*
X857754Y443300D02*
D03*
X863753Y455300D02*
D03*
X857754Y467300D02*
D03*
X863753Y479300D02*
D03*
X857754Y491300D02*
D03*
X863753Y503300D02*
D03*
X857754Y515300D02*
D03*
X869753Y395300D02*
D03*
X875753Y407300D02*
D03*
X869753Y419300D02*
D03*
X875753Y431300D02*
D03*
X869753Y443300D02*
D03*
X875753Y455300D02*
D03*
X869753Y467300D02*
D03*
X875753Y479300D02*
D03*
X869753Y491300D02*
D03*
X875753Y503300D02*
D03*
X869753Y515300D02*
D03*
X881753Y395300D02*
D03*
X887753Y407300D02*
D03*
X881753Y419300D02*
D03*
X887753Y431300D02*
D03*
X881753Y443300D02*
D03*
X887753Y455300D02*
D03*
X881753Y467300D02*
D03*
X887753Y479300D02*
D03*
X881753Y491300D02*
D03*
X887753Y503300D02*
D03*
X881753Y515300D02*
D03*
X893754Y395300D02*
D03*
X899753Y407300D02*
D03*
X893754Y419300D02*
D03*
X899753Y431300D02*
D03*
X893754Y443300D02*
D03*
X899753Y455300D02*
D03*
X893754Y467300D02*
D03*
X899753Y479300D02*
D03*
X893754Y491300D02*
D03*
X899753Y503300D02*
D03*
X893754Y515300D02*
D03*
X905753Y395300D02*
D03*
X911753Y407300D02*
D03*
X905753Y419300D02*
D03*
X911753Y431300D02*
D03*
X905753Y443300D02*
D03*
X911753Y455300D02*
D03*
X905753Y467300D02*
D03*
X911753Y479300D02*
D03*
X905753Y491300D02*
D03*
X911753Y503300D02*
D03*
X905753Y515300D02*
D03*
X917754Y395300D02*
D03*
X923753Y407300D02*
D03*
X917754Y419300D02*
D03*
X923753Y431300D02*
D03*
X917754Y443300D02*
D03*
X923753Y455300D02*
D03*
X917754Y467300D02*
D03*
X923753Y479300D02*
D03*
X917754Y491300D02*
D03*
X923753Y503300D02*
D03*
X917754Y515300D02*
D03*
X929753Y395300D02*
D03*
X935753Y407300D02*
D03*
X929753Y419300D02*
D03*
X935753Y431300D02*
D03*
X929753Y443300D02*
D03*
X935753Y455300D02*
D03*
X929753Y467300D02*
D03*
X935753Y479300D02*
D03*
X929753Y491300D02*
D03*
X935753Y503300D02*
D03*
X929753Y515300D02*
D03*
X941753Y395300D02*
D03*
X947754Y407300D02*
D03*
X941753Y419300D02*
D03*
X947754Y431300D02*
D03*
X941753Y443300D02*
D03*
X947754Y455300D02*
D03*
X941753Y467300D02*
D03*
X947754Y479300D02*
D03*
X941753Y491300D02*
D03*
X947754Y503300D02*
D03*
X941753Y515300D02*
D03*
X953754Y395300D02*
D03*
X959753Y407300D02*
D03*
X953754Y419300D02*
D03*
X959753Y431300D02*
D03*
X953754Y443300D02*
D03*
X959753Y455300D02*
D03*
X953754Y467300D02*
D03*
X959753Y479300D02*
D03*
X953754Y491300D02*
D03*
X959753Y503300D02*
D03*
X953754Y515300D02*
D03*
X990303Y515460D02*
D03*
X996303Y503460D02*
D03*
X990303Y491460D02*
D03*
X996303Y479460D02*
D03*
X990303Y467460D02*
D03*
X996303Y455460D02*
D03*
X990303Y443460D02*
D03*
X996303Y431460D02*
D03*
X990303Y419460D02*
D03*
X996303Y407460D02*
D03*
X990303Y395460D02*
D03*
X978303Y515460D02*
D03*
X984303Y503460D02*
D03*
X978303Y491460D02*
D03*
X984303Y479460D02*
D03*
X978303Y467460D02*
D03*
X984303Y455460D02*
D03*
X978303Y443460D02*
D03*
X984303Y431460D02*
D03*
X978303Y419460D02*
D03*
X984303Y407460D02*
D03*
X978303Y395460D02*
D03*
X966303Y515460D02*
D03*
X972303Y503460D02*
D03*
X966303Y491460D02*
D03*
X972303Y479460D02*
D03*
X966303Y467460D02*
D03*
X972303Y455460D02*
D03*
X966303Y443460D02*
D03*
X972303Y431460D02*
D03*
X966303Y419460D02*
D03*
X972303Y407460D02*
D03*
X966303Y395460D02*
D03*
X114683Y395300D02*
D03*
X120683Y407300D02*
D03*
X114683Y419300D02*
D03*
X120683Y431300D02*
D03*
X114683Y443300D02*
D03*
X120683Y455300D02*
D03*
X114683Y467300D02*
D03*
X120683Y479300D02*
D03*
X114683Y491300D02*
D03*
X120683Y503300D02*
D03*
X114683Y515300D02*
D03*
X126683Y395300D02*
D03*
X132683Y407300D02*
D03*
X126683Y419300D02*
D03*
X132683Y431300D02*
D03*
X126683Y443300D02*
D03*
X132683Y455300D02*
D03*
X126683Y467300D02*
D03*
X132683Y479300D02*
D03*
X126683Y491300D02*
D03*
X132683Y503300D02*
D03*
X126683Y515300D02*
D03*
X138683Y395300D02*
D03*
X144683Y407300D02*
D03*
X138683Y419300D02*
D03*
X144683Y431300D02*
D03*
X138683Y443300D02*
D03*
X144683Y455300D02*
D03*
X138683Y467300D02*
D03*
X144683Y479300D02*
D03*
X138683Y491300D02*
D03*
X144683Y503300D02*
D03*
X138683Y515300D02*
D03*
X150683Y395300D02*
D03*
X156683Y407300D02*
D03*
X150683Y419300D02*
D03*
X156683Y431300D02*
D03*
X150683Y443300D02*
D03*
X156683Y455300D02*
D03*
X150683Y467300D02*
D03*
X156683Y479300D02*
D03*
X150683Y491300D02*
D03*
X156683Y503300D02*
D03*
X150683Y515300D02*
D03*
X162683Y395300D02*
D03*
X168683Y407300D02*
D03*
X162683Y419300D02*
D03*
X168683Y431300D02*
D03*
X162683Y443300D02*
D03*
X168683Y455300D02*
D03*
X162683Y467300D02*
D03*
X168683Y479300D02*
D03*
X162683Y491300D02*
D03*
X168683Y503300D02*
D03*
X162683Y515300D02*
D03*
X174683Y395300D02*
D03*
X180683Y407300D02*
D03*
X174683Y419300D02*
D03*
X180683Y431300D02*
D03*
X174683Y443300D02*
D03*
X180683Y455300D02*
D03*
X174683Y467300D02*
D03*
X180683Y479300D02*
D03*
X174683Y491300D02*
D03*
X180683Y503300D02*
D03*
X174683Y515300D02*
D03*
X186683Y395300D02*
D03*
X192683Y407300D02*
D03*
X186683Y419300D02*
D03*
X192683Y431300D02*
D03*
X186683Y443300D02*
D03*
X192683Y455300D02*
D03*
X186683Y467300D02*
D03*
X192683Y479300D02*
D03*
X186683Y491300D02*
D03*
X192683Y503300D02*
D03*
X186683Y515300D02*
D03*
X198683Y395300D02*
D03*
X204683Y407300D02*
D03*
X198683Y419300D02*
D03*
X204683Y431300D02*
D03*
X198683Y443300D02*
D03*
X204683Y455300D02*
D03*
X198683Y467300D02*
D03*
X204683Y479300D02*
D03*
X198683Y491300D02*
D03*
X204683Y503300D02*
D03*
X198683Y515300D02*
D03*
X210683Y395300D02*
D03*
X216683Y407300D02*
D03*
X210683Y419300D02*
D03*
X216683Y431300D02*
D03*
X210683Y443300D02*
D03*
X216683Y455300D02*
D03*
X210683Y467300D02*
D03*
X216683Y479300D02*
D03*
X210683Y491300D02*
D03*
X216683Y503300D02*
D03*
X210683Y515300D02*
D03*
X222683Y395300D02*
D03*
X228683Y407300D02*
D03*
X222683Y419300D02*
D03*
X228683Y431300D02*
D03*
X222683Y443300D02*
D03*
X228683Y455300D02*
D03*
X222683Y467300D02*
D03*
X228683Y479300D02*
D03*
X222683Y491300D02*
D03*
X228683Y503300D02*
D03*
X222683Y515300D02*
D03*
X234683Y395300D02*
D03*
X240683Y407300D02*
D03*
X234683Y419300D02*
D03*
X240683Y431300D02*
D03*
X234683Y443300D02*
D03*
X240683Y455300D02*
D03*
X234683Y467300D02*
D03*
X240683Y479300D02*
D03*
X234683Y491300D02*
D03*
X240683Y503300D02*
D03*
X234683Y515300D02*
D03*
X246683Y395300D02*
D03*
X252683Y407300D02*
D03*
X246683Y419300D02*
D03*
X252683Y431300D02*
D03*
X246683Y443300D02*
D03*
X252683Y455300D02*
D03*
X246683Y467300D02*
D03*
X252683Y479300D02*
D03*
X246683Y491300D02*
D03*
X252683Y503300D02*
D03*
X246683Y515300D02*
D03*
X258683Y395300D02*
D03*
X264683Y407300D02*
D03*
X258683Y419300D02*
D03*
X264683Y431300D02*
D03*
X258683Y443300D02*
D03*
X264683Y455300D02*
D03*
X258683Y467300D02*
D03*
X264683Y479300D02*
D03*
X258683Y491300D02*
D03*
X264683Y503300D02*
D03*
X258683Y515300D02*
D03*
X270683Y395300D02*
D03*
X276683Y407300D02*
D03*
X270683Y419300D02*
D03*
X276683Y431300D02*
D03*
X270683Y443300D02*
D03*
X276683Y455300D02*
D03*
X270683Y467300D02*
D03*
X276683Y479300D02*
D03*
X270683Y491300D02*
D03*
X276683Y503300D02*
D03*
X270683Y515300D02*
D03*
X307233Y515460D02*
D03*
X313233Y503460D02*
D03*
X307233Y491460D02*
D03*
X313233Y479460D02*
D03*
X307233Y467460D02*
D03*
X313233Y455460D02*
D03*
X307233Y443460D02*
D03*
X313233Y431460D02*
D03*
X307233Y419460D02*
D03*
X313233Y407460D02*
D03*
X307233Y395460D02*
D03*
X295233Y515460D02*
D03*
X301233Y503460D02*
D03*
X295233Y491460D02*
D03*
X301233Y479460D02*
D03*
X295233Y467460D02*
D03*
X301233Y455460D02*
D03*
X295233Y443460D02*
D03*
X301233Y431460D02*
D03*
X295233Y419460D02*
D03*
X301233Y407460D02*
D03*
X295233Y395460D02*
D03*
X283233Y515460D02*
D03*
X289233Y503460D02*
D03*
X283233Y491460D02*
D03*
X289233Y479460D02*
D03*
X283233Y467460D02*
D03*
X289233Y455460D02*
D03*
X283233Y443460D02*
D03*
X289233Y431460D02*
D03*
X283233Y419460D02*
D03*
X289233Y407460D02*
D03*
X283233Y395460D02*
D03*
D59*
X1682260Y120660D02*
D03*
Y110660D02*
D03*
Y100660D02*
D03*
Y90660D02*
D03*
Y80660D02*
D03*
Y220660D02*
D03*
Y210660D02*
D03*
Y200660D02*
D03*
Y190660D02*
D03*
Y180660D02*
D03*
X1716260Y120660D02*
D03*
Y110660D02*
D03*
Y100660D02*
D03*
Y90660D02*
D03*
Y80660D02*
D03*
Y220660D02*
D03*
Y210660D02*
D03*
Y200660D02*
D03*
Y190660D02*
D03*
Y180660D02*
D03*
X1688260Y72660D02*
D03*
X1710260D02*
D03*
X1699260Y67660D02*
D03*
X1688260Y172660D02*
D03*
X1710260D02*
D03*
X1699260Y167660D02*
D03*
X1688260Y128660D02*
D03*
X1699260Y133660D02*
D03*
X1710260Y128660D02*
D03*
X1688260Y228660D02*
D03*
X1699260Y233660D02*
D03*
X1710260Y228660D02*
D03*
X997333Y120660D02*
D03*
Y110660D02*
D03*
Y100660D02*
D03*
Y90660D02*
D03*
Y80660D02*
D03*
Y220660D02*
D03*
Y210660D02*
D03*
Y200660D02*
D03*
Y190660D02*
D03*
Y180660D02*
D03*
X1031333Y120660D02*
D03*
Y110660D02*
D03*
Y100660D02*
D03*
Y90660D02*
D03*
Y80660D02*
D03*
Y220660D02*
D03*
Y210660D02*
D03*
Y200660D02*
D03*
Y190660D02*
D03*
Y180660D02*
D03*
X1003333Y72660D02*
D03*
X1025333D02*
D03*
X1014333Y67660D02*
D03*
X1003333Y172660D02*
D03*
X1025333D02*
D03*
X1014333Y167660D02*
D03*
X1003333Y128660D02*
D03*
X1014333Y133660D02*
D03*
X1025333Y128660D02*
D03*
X1003333Y228660D02*
D03*
X1014333Y233660D02*
D03*
X1025333Y228660D02*
D03*
X315343Y120660D02*
D03*
Y110660D02*
D03*
Y100660D02*
D03*
Y90660D02*
D03*
Y80660D02*
D03*
Y220660D02*
D03*
Y210660D02*
D03*
Y200660D02*
D03*
Y190660D02*
D03*
Y180660D02*
D03*
X349343Y120660D02*
D03*
Y110660D02*
D03*
Y100660D02*
D03*
Y90660D02*
D03*
Y80660D02*
D03*
Y220660D02*
D03*
Y210660D02*
D03*
Y200660D02*
D03*
Y190660D02*
D03*
Y180660D02*
D03*
X321343Y72660D02*
D03*
X343343D02*
D03*
X332343Y67660D02*
D03*
X321343Y172660D02*
D03*
X343343D02*
D03*
X332343Y167660D02*
D03*
X321343Y128660D02*
D03*
X332343Y133660D02*
D03*
X343343Y128660D02*
D03*
X321343Y228660D02*
D03*
X332343Y233660D02*
D03*
X343343Y228660D02*
D03*
X877080Y813750D02*
D03*
Y803750D02*
D03*
Y793750D02*
D03*
Y783750D02*
D03*
Y773750D02*
D03*
Y913750D02*
D03*
Y903750D02*
D03*
Y893750D02*
D03*
Y883750D02*
D03*
Y873750D02*
D03*
X911080Y813750D02*
D03*
Y803750D02*
D03*
Y793750D02*
D03*
Y783750D02*
D03*
Y773750D02*
D03*
Y913750D02*
D03*
Y903750D02*
D03*
Y893750D02*
D03*
Y883750D02*
D03*
Y873750D02*
D03*
X883080Y765750D02*
D03*
X905080D02*
D03*
X894080Y760750D02*
D03*
X883080Y865750D02*
D03*
X905080D02*
D03*
X894080Y860750D02*
D03*
X883080Y821750D02*
D03*
X894080Y826750D02*
D03*
X905080Y821750D02*
D03*
X883080Y921750D02*
D03*
X894080Y926750D02*
D03*
X905080Y921750D02*
D03*
D60*
X259080Y782320D02*
D03*
X323080D02*
D03*
M02*
