G04 Layer_Color=128*
%FSLAX44Y44*%
%MOMM*%
G71*
G01*
G75*
G04:AMPARAMS|DCode=10|XSize=21.5mm|YSize=13.5mm|CornerRadius=0.3375mm|HoleSize=0mm|Usage=FLASHONLY|Rotation=180.000|XOffset=0mm|YOffset=0mm|HoleType=Round|Shape=RoundedRectangle|*
%AMROUNDEDRECTD10*
21,1,21.5000,12.8250,0,0,180.0*
21,1,20.8250,13.5000,0,0,180.0*
1,1,0.6750,-10.4125,6.4125*
1,1,0.6750,10.4125,6.4125*
1,1,0.6750,10.4125,-6.4125*
1,1,0.6750,-10.4125,-6.4125*
%
%ADD10ROUNDEDRECTD10*%
%ADD12R,1.5200X1.1000*%
%ADD33R,3.0000X3.5000*%
D10*
X1815833Y315290D02*
D03*
X1132572D02*
D03*
X449183D02*
D03*
X1580623Y454990D02*
D03*
X897303D02*
D03*
X214233D02*
D03*
D12*
X1268730Y130970D02*
D03*
Y150970D02*
D03*
X1248410Y130970D02*
D03*
Y150970D02*
D03*
X1065530Y824390D02*
D03*
Y844390D02*
D03*
X1085850Y824390D02*
D03*
Y844390D02*
D03*
X586740Y130970D02*
D03*
Y150970D02*
D03*
X566420Y130970D02*
D03*
Y150970D02*
D03*
X107950Y864710D02*
D03*
Y844710D02*
D03*
X85090Y864710D02*
D03*
Y844710D02*
D03*
D33*
X259080Y782320D02*
D03*
X323080D02*
D03*
M02*
