G04 Layer_Color=8421504*
%FSLAX44Y44*%
%MOMM*%
G71*
G01*
G75*
G04:AMPARAMS|DCode=10|XSize=21.5mm|YSize=13.5mm|CornerRadius=0.3375mm|HoleSize=0mm|Usage=FLASHONLY|Rotation=180.000|XOffset=0mm|YOffset=0mm|HoleType=Round|Shape=RoundedRectangle|*
%AMROUNDEDRECTD10*
21,1,21.5000,12.8250,0,0,180.0*
21,1,20.8250,13.5000,0,0,180.0*
1,1,0.6750,-10.4125,6.4125*
1,1,0.6750,10.4125,6.4125*
1,1,0.6750,10.4125,-6.4125*
1,1,0.6750,-10.4125,-6.4125*
%
%ADD10ROUNDEDRECTD10*%
%ADD11R,0.8000X4.7000*%
%ADD12R,1.5200X1.1000*%
D10*
X1815833Y315290D02*
D03*
X1132572D02*
D03*
X449183D02*
D03*
X1580623Y454990D02*
D03*
X897303D02*
D03*
X214233D02*
D03*
D11*
X1829733Y446180D02*
D03*
X1842433D02*
D03*
X1855133D02*
D03*
X1880533D02*
D03*
X1893233D02*
D03*
X1905933D02*
D03*
X1800933Y446180D02*
D03*
X1788233D02*
D03*
X1775533D02*
D03*
X1750133D02*
D03*
X1737433D02*
D03*
X1724733D02*
D03*
X1146473Y446180D02*
D03*
X1159173D02*
D03*
X1171873D02*
D03*
X1197273D02*
D03*
X1209973D02*
D03*
X1222673D02*
D03*
X1117673Y446180D02*
D03*
X1104973D02*
D03*
X1092273D02*
D03*
X1066873D02*
D03*
X1054173D02*
D03*
X1041473D02*
D03*
X463083Y446180D02*
D03*
X475783D02*
D03*
X488483D02*
D03*
X513883D02*
D03*
X526583D02*
D03*
X539283D02*
D03*
X434283Y446180D02*
D03*
X421583D02*
D03*
X408883D02*
D03*
X383483D02*
D03*
X370783D02*
D03*
X358083D02*
D03*
X1566723Y324100D02*
D03*
X1554023D02*
D03*
X1541323D02*
D03*
X1515923D02*
D03*
X1503223D02*
D03*
X1490523D02*
D03*
X1595523Y324100D02*
D03*
X1608223D02*
D03*
X1620923D02*
D03*
X1646323D02*
D03*
X1659023D02*
D03*
X1671723D02*
D03*
X883403Y324100D02*
D03*
X870703D02*
D03*
X858003D02*
D03*
X832603D02*
D03*
X819903D02*
D03*
X807203D02*
D03*
X912203Y324100D02*
D03*
X924903D02*
D03*
X937603D02*
D03*
X963003D02*
D03*
X975703D02*
D03*
X988403D02*
D03*
X200333Y324100D02*
D03*
X187633D02*
D03*
X174933D02*
D03*
X149533D02*
D03*
X136833D02*
D03*
X124133D02*
D03*
X229133Y324100D02*
D03*
X241833D02*
D03*
X254533D02*
D03*
X279933D02*
D03*
X292633D02*
D03*
X305333D02*
D03*
D12*
X1957070Y130970D02*
D03*
Y150970D02*
D03*
X1935480Y130970D02*
D03*
Y150970D02*
D03*
M02*
