G04 Layer_Color=255*
%FSLAX44Y44*%
%MOMM*%
G71*
G01*
G75*
G04:AMPARAMS|DCode=10|XSize=21.5mm|YSize=13.5mm|CornerRadius=0.3375mm|HoleSize=0mm|Usage=FLASHONLY|Rotation=180.000|XOffset=0mm|YOffset=0mm|HoleType=Round|Shape=RoundedRectangle|*
%AMROUNDEDRECTD10*
21,1,21.5000,12.8250,0,0,180.0*
21,1,20.8250,13.5000,0,0,180.0*
1,1,0.6750,-10.4125,6.4125*
1,1,0.6750,10.4125,6.4125*
1,1,0.6750,10.4125,-6.4125*
1,1,0.6750,-10.4125,-6.4125*
%
%ADD10ROUNDEDRECTD10*%
%ADD11R,0.8000X4.7000*%
%ADD12R,1.5200X1.1000*%
%ADD17C,7.0000*%
%ADD18R,2.0000X1.5000*%
%ADD19O,2.0000X1.5000*%
%ADD20C,2.5000*%
%ADD21C,1.8000*%
%ADD22R,1.5000X1.5000*%
%ADD23C,1.5000*%
%ADD24O,5.0000X8.0000*%
%ADD25C,1.5240*%
%ADD26C,4.0000*%
%ADD27C,2.0000*%
%ADD28R,1.5000X2.0000*%
%ADD29O,1.5000X2.0000*%
%ADD30O,4.5000X1.5000*%
D10*
X1815833Y315290D02*
D03*
X1132572D02*
D03*
X449183D02*
D03*
X1580623Y454990D02*
D03*
X897303D02*
D03*
X214233D02*
D03*
D11*
X1829733Y446180D02*
D03*
X1842433D02*
D03*
X1855133D02*
D03*
X1880533D02*
D03*
X1893233D02*
D03*
X1905933D02*
D03*
X1800933Y446180D02*
D03*
X1788233D02*
D03*
X1775533D02*
D03*
X1750133D02*
D03*
X1737433D02*
D03*
X1724733D02*
D03*
X1146473Y446180D02*
D03*
X1159173D02*
D03*
X1171873D02*
D03*
X1197273D02*
D03*
X1209973D02*
D03*
X1222673D02*
D03*
X1117673Y446180D02*
D03*
X1104973D02*
D03*
X1092273D02*
D03*
X1066873D02*
D03*
X1054173D02*
D03*
X1041473D02*
D03*
X463083Y446180D02*
D03*
X475783D02*
D03*
X488483D02*
D03*
X513883D02*
D03*
X526583D02*
D03*
X539283D02*
D03*
X434283Y446180D02*
D03*
X421583D02*
D03*
X408883D02*
D03*
X383483D02*
D03*
X370783D02*
D03*
X358083D02*
D03*
X1566723Y324100D02*
D03*
X1554023D02*
D03*
X1541323D02*
D03*
X1515923D02*
D03*
X1503223D02*
D03*
X1490523D02*
D03*
X1595523Y324100D02*
D03*
X1608223D02*
D03*
X1620923D02*
D03*
X1646323D02*
D03*
X1659023D02*
D03*
X1671723D02*
D03*
X883403Y324100D02*
D03*
X870703D02*
D03*
X858003D02*
D03*
X832603D02*
D03*
X819903D02*
D03*
X807203D02*
D03*
X912203Y324100D02*
D03*
X924903D02*
D03*
X937603D02*
D03*
X963003D02*
D03*
X975703D02*
D03*
X988403D02*
D03*
X200333Y324100D02*
D03*
X187633D02*
D03*
X174933D02*
D03*
X149533D02*
D03*
X136833D02*
D03*
X124133D02*
D03*
X229133Y324100D02*
D03*
X241833D02*
D03*
X254533D02*
D03*
X279933D02*
D03*
X292633D02*
D03*
X305333D02*
D03*
D12*
X1957070Y130970D02*
D03*
Y150970D02*
D03*
X1935480Y130970D02*
D03*
Y150970D02*
D03*
D17*
X0Y986000D02*
D03*
X-77500Y693000D02*
D03*
Y493000D02*
D03*
Y293000D02*
D03*
X0Y0D02*
D03*
X642500D02*
D03*
X1382500D02*
D03*
X2025000D02*
D03*
X2102500Y293000D02*
D03*
Y493000D02*
D03*
Y693000D02*
D03*
X2025000Y986000D02*
D03*
X1782500D02*
D03*
X1582500D02*
D03*
X1382500D02*
D03*
X642500D02*
D03*
X442500D02*
D03*
D18*
X-12700Y842010D02*
D03*
D19*
Y867410D02*
D03*
Y892810D02*
D03*
D20*
X86360Y816606D02*
D03*
Y892810D02*
D03*
Y969010D02*
D03*
D21*
X289560Y816610D02*
D03*
Y969010D02*
D03*
D22*
X1338183Y347040D02*
D03*
Y245440D02*
D03*
X654793Y347040D02*
D03*
Y245440D02*
D03*
X691753Y326720D02*
D03*
Y428320D02*
D03*
X8622Y326720D02*
D03*
Y428320D02*
D03*
X1375013Y326720D02*
D03*
Y428320D02*
D03*
X2021443Y347040D02*
D03*
Y245440D02*
D03*
D23*
X1338183Y372440D02*
D03*
Y397840D02*
D03*
Y270840D02*
D03*
Y296240D02*
D03*
X654793Y372440D02*
D03*
Y397840D02*
D03*
Y270840D02*
D03*
Y296240D02*
D03*
X691753Y301320D02*
D03*
Y275920D02*
D03*
Y402920D02*
D03*
Y377520D02*
D03*
X8622Y301320D02*
D03*
Y275920D02*
D03*
Y402920D02*
D03*
Y377520D02*
D03*
X1375013Y301320D02*
D03*
Y275920D02*
D03*
Y402920D02*
D03*
Y377520D02*
D03*
X2021443Y372440D02*
D03*
Y397840D02*
D03*
Y270840D02*
D03*
Y296240D02*
D03*
D24*
X1699260Y100660D02*
D03*
Y200660D02*
D03*
X1014333Y100660D02*
D03*
Y200660D02*
D03*
X332343Y100660D02*
D03*
Y200660D02*
D03*
X894080Y793750D02*
D03*
Y893750D02*
D03*
D25*
X1913260Y131560D02*
D03*
Y169760D02*
D03*
Y150660D02*
D03*
X1228333Y131560D02*
D03*
Y169760D02*
D03*
Y150660D02*
D03*
X546343Y131560D02*
D03*
Y169760D02*
D03*
Y150660D02*
D03*
X1108080Y824650D02*
D03*
Y862850D02*
D03*
Y843750D02*
D03*
D26*
X1156920Y985460D02*
D03*
Y933360D02*
D03*
Y881260D02*
D03*
X1264920D02*
D03*
Y933360D02*
D03*
Y985460D02*
D03*
X1634490Y9190D02*
D03*
Y61290D02*
D03*
Y113390D02*
D03*
X1526490D02*
D03*
Y61290D02*
D03*
Y9190D02*
D03*
X948690D02*
D03*
Y61290D02*
D03*
Y113390D02*
D03*
X840690D02*
D03*
Y61290D02*
D03*
Y9190D02*
D03*
X267573D02*
D03*
Y61290D02*
D03*
Y113390D02*
D03*
X159573D02*
D03*
Y61290D02*
D03*
Y9190D02*
D03*
X831850Y880050D02*
D03*
Y932150D02*
D03*
Y984250D02*
D03*
X723850D02*
D03*
Y932150D02*
D03*
Y880050D02*
D03*
X1595993Y689140D02*
D03*
Y589140D02*
D03*
X229473Y689140D02*
D03*
Y589140D02*
D03*
X102747Y689140D02*
D03*
Y589140D02*
D03*
X785878Y689140D02*
D03*
Y589140D02*
D03*
X1469138Y689140D02*
D03*
Y589140D02*
D03*
X912733Y689140D02*
D03*
Y589140D02*
D03*
D27*
X2008743Y630250D02*
D03*
X1733743D02*
D03*
X1325483D02*
D03*
X1050483D02*
D03*
X642903D02*
D03*
X367903D02*
D03*
X1631950Y906780D02*
D03*
Y856780D02*
D03*
D28*
X546089Y-31750D02*
D03*
X1056640Y937260D02*
D03*
X1228079Y-31750D02*
D03*
X1914276D02*
D03*
D29*
X520689D02*
D03*
X495289D02*
D03*
X1082040Y937260D02*
D03*
X1107440D02*
D03*
X1202679Y-31750D02*
D03*
X1177279D02*
D03*
X1888876D02*
D03*
X1863476D02*
D03*
D30*
X1480820Y865340D02*
D03*
Y916940D02*
D03*
Y813740D02*
D03*
M02*
