M48
;Layer_Color=9474304
;FILE_FORMAT=4:4
METRIC,LZ
;TYPE=PLATED
T1F00S00C0.3000
T2F00S00C0.4000
T4F00S00C0.8000
T5F00S00C0.9000
T6F00S00C1.0000
T7F00S00C1.1000
T8F00S00C1.2000
T9F00S00C1.5000
T11F00S00C2.2000
T12F00S00C2.5700
T13F00S00C3.1000
%
T01
X0168826Y0007266
X0168226Y0008066
Y0009066
Y0010066
Y0011066
Y0012066
X0168826Y0012866
X0169926Y0013366
X0171026Y0012866
X0171626Y0012066
Y0011066
Y0010066
Y0009066
Y0008066
X0171026Y0007266
X0169926Y0006766
Y0016766
X0168826Y0017266
X0168226Y0018066
Y0019066
Y0020066
Y0021066
Y0022066
X0168826Y0022866
X0169926Y0023366
X0171026Y0022866
X0171626Y0022066
Y0021066
Y0020066
Y0019066
Y0018066
X0171026Y0017266
X01025333
X01031333Y0018066
Y0019066
Y0020066
Y0021066
Y0022066
X01025333Y0022866
X01014333Y0023366
X01003333Y0022866
X00997333Y0022066
Y0021066
Y0020066
Y0019066
Y0018066
X01003333Y0017266
X01014333Y0016766
Y0013366
X01003333Y0012866
X00997333Y0012066
Y0011066
Y0010066
Y0009066
Y0008066
X01003333Y0007266
X01014333Y0006766
X01025333Y0007266
X01031333Y0008066
Y0009066
Y0010066
Y0011066
Y0012066
X01025333Y0012866
X00343343
X00349343Y0012066
Y0011066
Y0010066
Y0009066
Y0008066
X00343343Y0007266
X00332343Y0006766
X00321343Y0007266
X00315343Y0008066
Y0009066
Y0010066
Y0011066
Y0012066
X00321343Y0012866
X00332343Y0013366
Y0016766
X00321343Y0017266
X00315343Y0018066
Y0019066
Y0020066
Y0021066
Y0022066
X00321343Y0022866
X00332343Y0023366
X00343343Y0022866
X00349343Y0022066
Y0021066
Y0020066
Y0019066
Y0018066
X00343343Y0017266
X0088308Y0076575
X0087708Y0077375
Y0078375
Y0079375
Y0080375
Y0081375
X0088308Y0082175
X0089408Y0082675
X0090508Y0082175
X0091108Y0081375
Y0080375
Y0079375
Y0078375
Y0077375
X0090508Y0076575
X0089408Y0076075
Y0086075
X0088308Y0086575
X0087708Y0087375
Y0088375
Y0089375
Y0090375
Y0091375
X0088308Y0092175
X0089408Y0092675
X0090508Y0092175
X0091108Y0091375
Y0090375
Y0089375
Y0088375
Y0087375
X0090508Y0086575
T02
X00054003Y-000367
X00082003
X00110003
X00096003Y-000087
X00068003
X00082003Y000193
X00054003
X00068003Y000473
X00096003
X00040003
X-00015997
X00460003
X00474003Y000193
X00446003
X00460003Y-000087
X00446003Y-000367
X00418003
X00586003
X00572003Y-000087
X00586003Y000193
X00600003Y000473
X00628003
X00656003
X00684003
X00712003
X00740003
X00754003Y000193
X00726003
X00698003
X00712003Y-000087
X00740003
X00754003Y-000367
X00726003
X00698003
X00572003Y000473
X00768003
Y-000087
X00782003Y-000367
X01118002
X01146003
X01132002Y-000087
X01146003Y000193
X01118002
X01132002Y000473
X01272002
X01300002
X01328002
X01356002
X01412002
X01440002
X01454002Y000193
X01440002Y-000087
X01454002Y-000367
X01426002
X01342002
X01314003
X01286003
X01258002
X01272002Y-000087
X01300002
X01328002
X01314003Y000193
X01286003
X01258002
X01818002
X01832002Y000473
X01804002
Y-000087
X01832002
X01818002Y-000367
X01790002
X01944002Y-000087
Y000473
X01972002
X02000002
X02056002
X01958002Y000193
X01972002Y-000087
X01986002Y-000367
X01958002
Y000753
X01986002
X02014002
X02042002
X02056002Y001033
X02028002
X02000002
X01972002
X01986002Y001313
X02014002
X02042002
X02070002
X02098002
X02112002Y001593
X02140002
X02126002Y001873
X02098002
X02070002
X02042002
X02014002
X01986002
X01958002
X01972002Y002153
X02000002
X02028002
X02056002
X02084002
X02112002
X02140002
X02126002Y002433
X02098002
X02070002
X02042002
X02056002Y002713
X02042002Y002993
X02056002Y003273
X02028002
X02000002
X01986002Y003553
X01951502Y003563
X01959002Y003713
Y003413
X01951502Y003263
X01959002Y003113
X01951502Y002963
X01959002Y002813
X01951502Y002663
X01959002Y002513
X01951502Y002363
X01986002Y002433
X02000002Y002713
X01986002Y002993
X02000002Y003833
X02056002
X02084002
X02112002
X02140002
X02126002Y004113
X02098002
X02070002
X02042002
X02056002Y004393
X02084002
X02112002
X02140002
X02126002Y003553
X02098002
X02070002
X02042002
X02028002Y004393
X02000002
X01972002
X02140002Y003273
X02084002Y001593
X02056002
X02028002
X02000002
X01944002Y001033
X01832002
X01804002
X01818002Y001313
X01832002Y001593
X01860002
X01854002Y001913
X01869002
X01884002
X01899002
X01906502Y002063
X01921502
X01914002Y002213
X01929002
X01944002
X01936502Y002363
X01921502
X01906502
X01891502
X01876502
X01861502
X01846502
X01831502
X01816502
X01801502
X01786502
X01771502
X01756502
X01741502
X01726502
X01722833Y0025482
X01734833
X01746833
X01759382Y0025498
X01771382
X01783383
X01795383
X01807383
X01819382
X01831382
X01843383
X01855383
X01867383
X01879383
X01891383
X01903383
X01915383
X01929002Y002513
X01944002
X01936502Y002663
X01929002Y002813
X01944002
X01936502Y002963
X01929002Y003113
X01944002
X01936502Y003263
X01915383Y0032698
X01903383
X01891383
X01879383
X01867383
X01855383
X01843383
X01831382
X01819382
X01807383
X01795383
X01783383
X01771382
X01759382
X01746833Y0032682
X01734833
X01722833
X01716833Y0031482
X01728833
X01740833
X01753383Y0031498
X01765383
X01777383
X01789383
X01801383
X01813383
X01825383
X01837383
X01849383
X01861383
X01873383
X01885383
X01897383
X01909383
X01915383Y0030298
X01903383
X01891383
X01879383
X01867383
X01855383
X01843383
X01831382
X01819382
X01807383
X01795383
X01783383
X01771382
X01759382
X01746833Y0030282
X01734833
X01722833
X01716833Y0029082
X01728833
X01740833
X01753383Y0029098
X01765383
X01777383
X01789383
X01801383
X01813383
X01825383
X01837383
X01849383
X01861383
X01873383
X01885383
X01897383
X01909383
X01915383Y0027898
X01903383
X01891383
X01879383
X01867383
X01855383
X01843383
X01831382
X01819382
X01807383
X01795383
X01783383
X01771382
X01759382
X01746833Y0027882
X01734833
X01722833
X01716833Y0026682
X01728833
X01740833
X01753383Y0026698
X01765383
X01777383
X01789383
X01801383
X01813383
X01825383
X01837383
X01849383
X01861383
X01873383
X01885383
X01897383
X01909383
X01899002Y002213
X01884002
X01869002
X01854002
X01839002
X01824002
X01809002
X01794002
X01779002
X01764002
X01749002
X01734002
X01741502Y002063
X01756502
X01771502
X01786502
X01801502
X01816502
X01831502
X01846502
X01861502
X01876502
X01891502
X01839002Y001913
X01824002
X01809002
X01794002
X01779002
X01764002
X01749002
X01734002
X01719002Y001613
X01674002
X01666502Y001763
X01659002Y001913
X01644002
X01629002
X01614002
X01599002
X01584002
X01569002
X01554002
X01561502Y002063
X01576502
X01591502
X01606502
X01621502
X01636502
X01651502
X01666502
X01659002Y002213
X01644002
X01629002
X01614002
X01599002
X01584002
X01569002
X01554002
X01561502Y002363
X01576502
X01591502
X01606502
X01621502
X01636502
X01651502
X01666502
X01659002Y002513
X01674002
X01689002
X01696502Y002663
X01681502
X01666502
X01651502
X01636502
X01621502
X01606502
X01591502
X01576502
X01561502
X01554002Y002813
X01569002
X01584002
X01599002
X01614002
X01629002
X01644002
X01659002
X01674002
X01689002
X01696502Y002963
X01681502
X01689002Y003113
X01696502Y003263
X01681502
X01689002Y003413
X01716833Y0033882
X01728833
X01740833
X01753383Y0033898
X01765383
X01777383
X01789383
X01801383
X01813383
X01825383
X01837383
X01849383
X01861383
X01873383
X01885383
X01897383
X01909383
X01915383Y0035098
X01903383
X01891383
X01879383
X01867383
X01855383
X01843383
X01831382
X01819382
X01807383
X01795383
X01783383
X01771382
X01759382
X01746833Y0035082
X01734833
X01722833
X01716833Y0036282
X01728833
X01740833
X01753383Y0036298
X01765383
X01777383
X01789383
X01801383
X01813383
X01825383
X01837383
X01849383
X01861383
X01873383
X01885383
X01897383
X01909383
X01915383Y0037498
X01903383
X01891383
X01879383
X01867383
X01855383
X01843383
X01831382
X01819382
X01807383
X01795383
X01783383
X01771382
X01759382
X01746833Y0037482
X01734833
X01722833
X01734002Y004113
X01762002
X01790002
X01679623Y0040746
X01667623
X01655623
X01643073Y004073
X01631073
X01619073
X01607073
X01595073
X01583073
X01571073
X01559073
X01553073Y003953
X01565074
X01577074
X01589073
X01601073
X01613073
X01625074
X01637074
X01649623Y0039546
X01661623
X01673623
Y0041946
X01661623
X01649623
X01637074Y004193
X01625074
X01613073
X01601073
X01589073
X01577074
X01565074
X01553073
X01559073Y004313
X01571073
X01583073
X01595073
X01607073
X01619073
X01631073
X01643073
X01655623Y0043146
X01667623
X01679623
X01673623Y0044346
X01661623
X01649623
X01637074Y004433
X01625074
X01613073
X01601073
X01589073
X01577074
X01565074
X01553073
X01559073Y004553
X01571073
X01583073
X01595073
X01607073
X01619073
X01631073
X01643073
X01655623Y0045546
X01667623
X01679623
X01636502Y003263
Y002963
X01629002Y002513
X01644002
X01614002
X01599002
X01584002
X01569002
X01554002
X01576502Y002963
Y003263
X01776002Y001593
X01804002
X01818002Y000753
X01929002Y003413
X01944002
X01936502Y003563
X01929002Y003713
X01944002
X01944002Y004393
X01547073Y004313
X01535073
X01523073
X01511073
X01499073
X01487073
X01481073Y004193
X01493073
X01505073
X01517073
X01529073
X01541073
X01547073Y004073
X01535073
X01523073
X01511073
X01499073
X01487073
X01481073Y003953
X01493073
X01505073
X01517073
X01529073
X01541073
Y004433
X01529073
X01517073
X01505073
X01493073
X01481073
X01487073Y004553
X01499073
X01511073
X01523073
X01535073
X01547073
X01531502Y003263
Y002963
X01524002Y002813
X01539002
X01546502Y002663
X01531502
X01516502
X01509002Y002813
Y002513
X01524002
X01539002
X01546502Y002363
X01531502
X01516502
X01509002Y002213
X01524002
X01539002
X01546502Y002063
X01531502
X01516502
X01524002Y001913
X01539002
X01482002Y001873
X01454002
X01426002
X01398002
X01370002
X01342002
X01314003
X01286003
X01258002
X01246502Y002063
X01231502
X01216502
X01201502
X01186502
X01171502
X01156502
X01164002Y002213
X01179002
X01194002
X01209002
X01224002
X01239002
X01254002
X01261502Y002363
X01246502
X01231502
X01216502
X01201502
X01186502
X01171502
X01156502
X01160123Y0025498
X01172122
X01184122
X01196123
X01208123
X01220123
X01232123
X01226123Y0026698
X01214123
X01202123
X01190123
X01178123
X01166123
X01154123
X01160123Y0027898
X01172122
X01184122
X01196123
X01208123
X01220123
X01232123
X01226123Y0029098
X01214123
X01202123
X01190123
X01178123
X01166123
X01154123
X01160123Y0030298
X01172122
X01184122
X01196123
X01208123
X01220123
X01232123
X01226123Y0031498
X01214123
X01202123
X01190123
X01178123
X01166123
X01154123
X01160123Y0032698
X01172122
X01184122
X01196123
X01208123
X01220123
X01232123
X01246502Y003263
X01261502
X01276502
X01269002Y003413
X01254002
X01261502Y003563
X01276502
X01269002Y003713
X01254002
X01246502Y003563
X01232123Y0035098
X01220123
X01208123
X01196123
X01184122
X01172122
X01160123
X01154123Y0036298
X01166123
X01178123
X01190123
X01202123
X01214123
X01226123
X01232123Y0037498
X01220123
X01208123
X01196123
X01184122
X01172122
X01160123
X01154123Y0033898
X01166123
X01178123
X01190123
X01202123
X01214123
X01226123
X01254002Y003113
X01269002
X01276502Y002963
X01261502
X01246502
X01254002Y002813
X01269002
X01276502Y002663
X01261502
X01246502
X01254002Y002513
X01269002
X01300002Y002713
X01314003Y002993
X01328002Y003273
X01300002
X01314003Y003553
X01300002Y003833
Y004393
X01328002
X01272002
X01244003
X01188002
X01194002Y001913
X01209002
X01179002
X01164002
X01160003Y001593
X01300002
X01328002
X01356002
X01384002
X01412002
X01440002
X01454002Y001313
X01426002
X01398002
X01370002
X01342002
X01314003
X01328002Y001033
X01356002
X01384002
X01412002
X01440002
X01454002Y000753
X01426002
X01398002
X01370002
X01342002
X01314003
X01286003
X01258002
X01272002Y001033
X01300002
Y002153
X01328002
X01356002
X01384002
X01412002
X01440002
X01468002
X01482002Y002433
X01454002
X01426002
X01398002
X01370002
X01314003
X01412002Y002713
X01440002
X01468002
X01454002Y002993
X01426002
X01148122Y0030298
X01136123
X01124122
X01112122
X01100123
X01088122
X01076123
X01063573Y0030282
X01051573
X01039573
X01033573Y0029082
X01045573
X01057573
X01070123Y0029098
X01082122
X01094123
X01106123
X01118123
X01130123
X01142123
X01148122Y0027898
X01136123
X01124122
X01112122
X01100123
X01088122
X01076123
X01063573Y0027882
X01051573
X01039573
X01033573Y0026682
X01045573
X01057573
X01070123Y0026698
X01082122
X01094123
X01106123
X01118123
X01130123
X01142123
X01148122Y0025498
X01136123
X01124122
X01112122
X01100123
X01088122
X01076123
X01063573Y0025482
X01051573
X01039573
X01036502Y002363
X01051502
X01066502
X01081502
X01096502
X01111502
X01126502
X01141502
X01134002Y002213
X01149002
X01141502Y002063
X01126502
X01111502
X01096502
X01081502
X01066502
X01051502
X01059002Y002213
X01074002
X01089002
X01104002
X01119002
Y001913
X01134002
X01149002
X01104002
X01089002
X01074002
X01059002
X00984002
X00969002
X00954002
X00939002
X00924002
X00909002
X00894002
X00879002
X00864002
X00849002
X00834002
X00841502Y002063
X00856502
X00871502
X00886502
X00901502
X00916502
X00931502
X00946502
X00961502
X00976502
X00969002Y002213
X00984002
X00991502Y002363
X00976502
X00961502
X00946502
X00931502
X00916502
X00901502
X00886502
X00871502
X00856502
X00841502
X00834002Y002513
X00849002
X00864002
X00879002
X00894002
X00909002
X00924002
X00939002
X00954002
X00969002
X00984002
X00999002
X01014002
X01006502Y002663
X00991502
X00976502
X00961502
X00946502
X00931502
X00916502
X00901502
X00886502
X00871502
X00856502
X00841502
X00834002Y002813
X00849002
X00864002
X00879002
X00894002
X00909002
X00924002
X00939002
X00954002
X00969002
X00984002
X00999002
X01014002
X01006502Y002963
X00999002Y003113
X01014002
X01006502Y003263
X00999002Y003413
X01014002
X01033573Y0033882
X01045573
X01057573
X01070123Y0033898
X01082122
X01094123
X01106123
X01118123
X01130123
X01142123
X01148122Y0035098
X01136123
X01124122
X01112122
X01100123
X01088122
X01076123
X01063573Y0035082
X01051573
X01039573
X01033573Y0036282
X01045573
X01057573
X01070123Y0036298
X01082122
X01094123
X01106123
X01118123
X01130123
X01142123
X01148122Y0037498
X01136123
X01124122
X01112122
X01100123
X01088122
X01076123
X01063573Y0037482
X01051573
X01039573
Y0032682
X01051573
X01063573
X01076123Y0032698
X01088122
X01100123
X01112122
X01124122
X01136123
X01148122
X01142123Y0031498
X01130123
X01118123
X01106123
X01094123
X01082122
X01070123
X01057573Y0031482
X01045573
X01033573
X00946502Y002963
X00894002Y003113
Y003413
X00893754Y003953
X00881753
X00869753
X00857754
X00845753
X00833754
X00821753
X00809753
X00797753
X00803753Y004073
X00815753
X00827753
X00839753
X00851753
X00863753
X00875753
X00887753
X00899753
X00911753
X00923753
X00935753
X00947754
X00959753
X00972303Y0040746
X00984303
X00996303
X00990303Y0041946
X00978303
X00966303
X00953754Y004193
X00941753
X00929753
X00917754
X00905753
X00893754
X00881753
X00869753
X00857754
X00845753
X00833754
X00821753
X00809753
X00797753
X00803753Y004313
X00815753
X00827753
X00839753
X00851753
X00863753
X00875753
X00887753
X00899753
X00911753
X00923753
X00935753
X00947754
X00959753
X00972303Y0043146
X00984303
X00996303
X00990303Y0044346
X00978303
X00966303
X00953754Y004433
X00941753
X00929753
X00917754
X00905753
X00893754
X00881753
X00869753
X00857754
X00845753
X00833754
X00821753
X00809753
X00797753
X00803753Y004553
X00815753
X00827753
X00839753
X00851753
X00863753
X00875753
X00887753
X00899753
X00911753
X00923753
X00935753
X00947754
X00959753
X00972303Y0045546
X00984303
X00996303
X00990303Y0039546
X00978303
X00966303
X00953754Y003953
X00941753
X00929753
X00917754
X00905753
X00841502Y002963
X00782003Y002993
X00796003Y002713
X00768003
X00782003Y002433
X00796003Y002153
X00768003
X00782003Y001873
X00768003Y001593
Y001033
X00834002Y002213
X00849002
X00864002
X00879002
X00894002
X00909002
X00924002
X00939002
X00954002
X01104003Y001593
X01132002
X01146003Y001313
X01118002
X01132002Y001033
X01146003Y000753
X01118002
X01090003Y004113
X01062002
X01132002Y004393
X00656003
X00628003
X00600003
X00572003
X00579002Y003713
X00594002
X00586502Y003563
X00571502
X00564002Y003713
X00548733Y0037498
X00536733
X00524733
X00512733
X00500733
X00488733
X00476733
X00464733
X00452733
X00440733
X00428733
X00416733
X00404733
X00392733
X00380183Y0037482
X00368183
X00362183Y0036282
X00374183
X00386733Y0036298
X00398733
X00410733
X00422733
X00434733
X00446733
X00458733
X00470733
X00482733
X00494733
X00506733
X00518733
X00530733
X00542733
X00548733Y0035098
X00536733
X00524733
X00512733
X00500733
X00488733
X00476733
X00464733
X00452733
X00440733
X00428733
X00416733
X00404733
X00392733
X00380183Y0035082
X00368183
X00362183Y0033882
X00374183
X00386733Y0033898
X00398733
X00410733
X00422733
X00434733
X00446733
X00458733
X00470733
X00482733
X00494733
X00506733
X00518733
X00530733
X00542733
X00548733Y0032698
X00536733
X00524733
X00512733
X00500733
X00488733
X00476733
X00464733
X00452733
X00440733
X00428733
X00416733
X00404733
X00392733
X00380183Y0032682
X00368183
X00362183Y0031482
X00374183
X00386733Y0031498
X00398733
X00410733
X00422733
X00434733
X00446733
X00458733
X00470733
X00482733
X00494733
X00506733
X00518733
X00530733
X00542733
X00548733Y0030298
X00536733
X00524733
X00512733
X00500733
X00488733
X00476733
X00464733
X00452733
X00440733
X00428733
X00416733
X00404733
X00392733
X00380183Y0030282
X00368183
X00362183Y0029082
X00374183
X00386733Y0029098
X00398733
X00410733
X00422733
X00434733
X00446733
X00458733
X00470733
X00482733
X00494733
X00506733
X00518733
X00530733
X00542733
X00548733Y0027898
X00536733
X00524733
X00512733
X00500733
X00488733
X00476733
X00464733
X00452733
X00440733
X00428733
X00416733
X00404733
X00392733
X00380183Y0027882
X00368183
X00362183Y0026682
X00374183
X00386733Y0026698
X00398733
X00410733
X00422733
X00434733
X00446733
X00458733
X00470733
X00482733
X00494733
X00506733
X00518733
X00530733
X00542733
X00548733Y0025498
X00536733
X00524733
X00512733
X00500733
X00488733
X00476733
X00464733
X00452733
X00440733
X00428733
X00416733
X00404733
X00392733
X00380183Y0025482
X00368183
X00361502Y002363
X00376502
X00391502
X00406502
X00421502
X00436502
X00451502
X00466502
X00481502
X00496502
X00511502
X00526502
X00541502
X00556502
X00571502
X00586502
X00579002Y002513
X00594002
X00586502Y002663
X00571502
X00564002Y002813
X00579002
X00594002
X00586502Y002963
X00571502
X00564002Y003113
X00579002
X00594002
X00586502Y003263
X00571502
X00564002Y003413
X00579002
X00594002
X00628003Y003273
X00656003
X00642003Y002993
X00628003Y002713
X00642003Y002433
X00670003
X00698003
X00726003
X00754003
X00740003Y002713
X00754003Y002993
X00726003
X00740003Y002153
X00712003
X00684003
X00656003
X00628003
X00642003Y001873
X00670003
X00698003
X00726003
X00754003
X00740003Y001593
X00712003
X00684003
X00656003
X00628003
X00642003Y001313
X00670003
X00698003
X00726003
X00754003
X00740003Y001033
X00712003
X00684003
X00656003
X00628003
X00600003
X00572003
X00586003Y000753
X00614003
X00642003
X00670003
X00698003
X00726003
X00754003
X00614003Y001313
Y001873
X00586003
X00579002Y002213
X00564002
X00549002
X00534002
X00519002
X00504002
X00489002
X00474002
X00459002
X00444002
X00429002
X00414002
X00399002
X00384002
X00369002
X00376502Y002063
X00391502
X00406502
X00421502
X00436502
X00451502
X00466502
X00481502
X00496502
X00511502
X00526502
X00541502
X00556502
X00534002Y001913
X00519002
X00504002
X00489002
X00474002
X00459002
X00444002
X00429002
X00414002
X00399002
X00384002
X00369002
X00361502Y001763
X00432003Y001593
X00460003
X00488003
X00474003Y001313
X00446003
X00460003Y001033
X00474003Y000753
X00446003
X00564002Y002513
X00614003Y002433
X00628003Y003833
X00418003Y004113
X00390003
X00362003
X00356183Y0037482
X00350183Y0036282
X00356183Y0035082
X00350183Y0033882
X00356183Y0032682
X00350183Y0031482
X00356183Y0030282
X00350183Y0029082
X00356183Y0027882
X00350183Y0026682
X00356183Y0025482
X00324002Y002513
X00309002
X00294002
X00279002
X00264002
X00249002
X00234002
X00219002
X00204002
X00189002
X00174002
X00159003
X00144003
X00151502Y002663
X00166502
X00181502
X00196502
X00211502
X00226502
X00241502
X00256502
X00271502
X00286502
X00301502
X00316502
X00331502
X00324002Y002813
X00309002
X00294002
X00279002
X00264002
X00249002
X00234002
X00219002
X00204002
X00189002
X00174002
X00159003
X00144003
X00166502Y002963
X00159003Y003113
Y003413
X00162683Y003953
X00150683
X00138683
X00126683
X00114683
X00120683Y004073
X00132683
X00144683
X00156683
X00168683
X00180683
X00192683
X00204683
X00216683
X00228683
X00240683
X00252683
X00264683
X00276683
X00289233Y0040746
X00301233
X00313233
X00307233Y0041946
X00295233
X00283233
X00270683Y004193
X00258683
X00246683
X00234683
X00222683
X00210683
X00198683
X00186683
X00174683
X00162683
X00150683
X00138683
X00126683
X00114683
X00120683Y004313
X00132683
X00144683
X00156683
X00168683
X00180683
X00192683
X00204683
X00216683
X00228683
X00240683
X00252683
X00264683
X00276683
X00289233Y0043146
X00301233
X00313233
X00307233Y0044346
X00295233
X00283233
X00270683Y004433
X00258683
X00246683
X00234683
X00222683
X00210683
X00198683
X00186683
X00174683
X00162683
X00150683
X00138683
X00126683
X00114683
X00120683Y004553
X00132683
X00144683
X00156683
X00168683
X00180683
X00192683
X00204683
X00216683
X00228683
X00240683
X00252683
X00264683
X00276683
X00289233Y0045546
X00301233
X00313233
X00307233Y0039546
X00295233
X00283233
X00270683Y003953
X00258683
X00246683
X00234683
X00222683
X00210683
X00198683
X00186683
X00174683
X00211502Y003263
Y002963
X00271502
X00264002Y003113
Y003413
X00324002
X00331502Y003263
X00316502
X00324002Y003113
X00331502Y002963
X00316502
X00301502Y002363
X00286502
X00271502
X00256502
X00241502
X00226502
X00211502
X00196502
X00181502
X00166502
X00151502
X00144003Y002213
X00159003
X00174002
X00189002
X00204002
X00219002
X00234002
X00249002
X00264002
X00279002
X00294002
X00301502Y002063
X00286502
X00271502
X00256502
X00241502
X00226502
X00211502
X00196502
X00181502
X00166502
X00151502
X00159003Y001913
X00174002
X00189002
X00204002
X00219002
X00234002
X00249002
X00264002
X00279002
X00294002
X00301502Y001763
X00309002Y001613
X00354002
X00096003Y001593
X00068003
X00040003
X00012003
X-00015997
X-00001997Y001873
X00026003
X00054003
X00082003
X00110003
X00096003Y002153
X00068003
X00040003
X00012003
X-00015997
X-00001997Y002433
X00026003
X00054003
X00082003
X00110003
X00096003Y002713
X00068003
X00040003
X00054003Y002993
X00082003
X-00015997Y003273
X-00029997Y003553
X-00015997Y003833
X-00029997Y004113
X-00015997Y004393
Y002713
X-00029997Y002433
Y001873
Y001313
X-00001997
X00026003
X00054003
X00082003
X00096003Y001033
X00068003
X00040003
X00012003
X-00015997
X-00001997Y000753
X00026003
X00054003
X00082003
X-00029997
X-00043997Y001033
X-00057997Y001313
X-00085997
X-00071997Y001593
X-00043997
X-00057997Y001873
X-00085997
X-00113997
X-00099997Y002153
X-00071997
X-00043997
X-00057997Y002433
X-00085997
X-00113997
X-00099997Y001593
X-00085997Y003553
X-00057997
X-00043997Y003833
X-00071997
X-00099997
X-00085997Y004113
X-00057997
X-00043997Y004393
X-00071997
X-00099997
X-00113997Y004113
Y003553
X-00099997Y005513
X-00071997
X-00043997
X-00057997Y005793
X-00085997
X-00113997
X-00099997Y006073
X-00071997
X-00043997
X-00057997Y006353
X-00085997
X-00113997
Y007473
X-00085997
X-00057997
X-00043997Y007753
X-00071997
X-00099997
X-00085997Y008033
X-00057997
X-00043997Y008313
X-00071997
X-00099997
X-00113997Y008033
X-00029997
X-00001997
X00012003Y007753
X00040003
X00068003
X00096003
X00124003
X00152003
X00180003
X00208003
X00222003Y008033
X00194003
X00166003
X00138003
X00110003
Y007473
X00138003
X00166003
X00194003
X00222003
X00250003
X00278003
X00292003Y007753
Y007193
X00264003
X00236003
X00208003
X00180003
X00152003
X00124003
X00096003
X00068003
X00040003
X00012003
X-00015997
X-00001997Y007473
X00026003
X00054003
X00082003
X00054003Y006913
X00026003
X-00001997
X00012003Y006633
X00040003
X00068003
X00096003
X00124003
X00152003
X00180003
X00208003
X00236003
X00264003
X00292003
X00278003Y006913
X00194003
X00166003
X00138003
X00152003Y008313
X00180003
X00208003
X00236003
X00264003
X00258683Y005153
X00246683
X00234683
X00222683
X00210683
X00198683
X00186683
X00174683
X00162683
X00150683
X00138683
X00126683
X00114683
X00120683Y005033
X00132683
X00144683
X00156683
X00168683
X00180683
X00192683
X00204683
X00216683
X00228683
X00240683
X00252683
X00264683
X00276683
X00289233Y0050346
X00301233
X00313233
X00307233Y0051546
X00295233
X00283233
X00270683Y005153
Y004913
X00258683
X00246683
X00234683
X00222683
X00210683
X00198683
X00186683
X00174683
X00162683
X00150683
X00138683
X00126683
X00114683
X00120683Y004793
X00132683
X00144683
X00156683
X00168683
X00180683
X00192683
X00204683
X00216683
X00228683
X00240683
X00252683
X00264683
X00276683
X00289233Y0047946
X00301233
X00313233
X00307233Y0049146
X00295233
X00283233
Y0046746
X00295233
X00307233
X00270683Y004673
X00258683
X00246683
X00234683
X00222683
X00210683
X00198683
X00186683
X00174683
X00162683
X00150683
X00138683
X00126683
X00114683
X-00001997Y004673
X-00029997
X-00015997Y004953
X00012003
X-00001997Y005233
X-00029997
X-00015997Y005513
X00012003
X-00001997Y005793
X-00029997
X-00015997Y006073
X00012003
X00026003Y006353
X-00001997
X-00029997
X-00015997Y006633
X-00029997Y007473
X-00015997Y007753
X00376003Y004953
X00404003
X00432003
X00460003
X00488003
X00516003
X00544003
X00572003
X00600003
X00628003
X00656003
X00684003
X00698003Y005233
X00670003
X00642003
X00614003
X00586003
Y004673
X00614003
X00642003
X00670003
X00698003
X00684003Y005513
X00656003
X00628003
X00642003Y005793
X00670003
X00698003
X00684003Y006073
X00656003
X00628003
Y006633
X00656003
X00684003
X00712003
X00740003
X00754003Y006913
X00726003
X00698003
X00670003
X00642003
X00684003Y007193
X00712003
X00740003
X00698003Y006353
X00670003
X00558003Y004673
X00502003
X00797753Y004673
X00809753
X00821753
X00833754
X00845753
X00857754
X00869753
X00881753
X00893754
X00905753
X00917754
X00929753
X00941753
X00953754
X00966303Y0046746
X00978303
X00990303
X00996303Y0047946
X00984303
X00972303
X00959753Y004793
X00947754
X00935753
X00923753
X00911753
X00899753
X00887753
X00875753
X00863753
X00851753
X00839753
X00827753
X00815753
X00803753
X00797753Y004913
X00809753
X00821753
X00833754
X00845753
X00857754
X00869753
X00881753
X00893754
X00905753
X00917754
X00929753
X00941753
X00953754
X00966303Y0049146
X00978303
X00990303
X00996303Y0050346
X00984303
X00972303
X00959753Y005033
X00947754
X00935753
X00923753
X00911753
X00899753
X00887753
X00875753
X00863753
X00851753
X00839753
X00827753
X00815753
X00803753
X00797753Y005153
X00809753
X00821753
X00833754
X00845753
X00857754
X00869753
X00881753
X00893754
X00905753
X00917754
X00929753
X00941753
X00953754
X00966303Y0051546
X00978303
X00990303
X01048002Y004953
X01076003
X01104003
X01132002
X00964003Y006633
X00936003
X00908002
X00880003
X00852002
X00824003
X00796003
X00768003
Y007193
X00796003
X00824003
X00852002
X00880003
X00908002
X00936003
X00964003
X00950003Y006913
X00866003
X00838002
X01314003
X01342002
X01370002
X01398002
X01426002
X01440002Y007193
X01468002
X01496002
X01524002
X01538002Y006913
X01510002
X01524002Y006633
X01496002
X01468002
X01440002
X01412002
X01384002
X01356002
X01328002
X01342002Y006353
X01370002
X01398002
X01384002Y006073
X01356002
X01328002
X01342002Y005793
X01370002
X01384002Y005513
X01356002
X01328002
X01300002
X01314003Y005793
Y005233
X01342002
X01370002
X01384002Y004953
X01356002
X01328002
X01300002
X01272002
X01244003
X01216003
X01188002
X01160003
X01258002Y005233
X01286003
Y004673
X01314003
X01342002
X01370002
X01481073Y004673
X01493073
X01505073
X01517073
X01529073
X01541073
X01547073Y004793
X01535073
X01523073
X01511073
X01499073
X01487073
X01481073Y004913
X01493073
X01505073
X01517073
X01529073
X01541073
X01547073Y005033
X01535073
X01523073
X01511073
X01499073
X01487073
X01481073Y005153
X01493073
X01505073
X01517073
X01529073
X01541073
X01258002Y004673
X01356002Y007193
X01384002
X01412002
X01552002
X01580002
X01608002
X01636002
X01650002Y006913
X01622002
X01636002Y006633
X01608002
X01580002
X01552002
X01566002Y006913
X01565074Y005153
X01553073
X01559073Y005033
X01571073
X01583073
X01595073
X01607073
X01619073
X01631073
X01643073
X01655623Y0050346
X01667623
X01679623
X01673623Y0051546
X01661623
X01649623
X01637074Y005153
X01625074
X01613073
X01601073
X01589073
X01577074
Y004913
X01565074
X01553073
X01559073Y004793
X01571073
X01583073
X01595073
X01607073
X01619073
X01631073
X01643073
X01655623Y0047946
X01667623
X01679623
X01673623Y0049146
X01661623
X01649623
X01637074Y004913
X01625074
X01613073
X01601073
X01589073
Y004673
X01577074
X01565074
X01553073
X01601073
X01613073
X01625074
X01637074
X01649623Y0046746
X01661623
X01673623
X01762002Y004673
X01776002Y004953
X01804002
X01832002
X01860002
X01888002
X01916002
X01944002
X01930002Y005233
X01902002
X01916002Y005513
X01944002
X01930002Y005793
X01944002Y006073
X01916002
X01930002Y006353
X01944002Y006633
X01916002
X01930002Y006913
X01944002Y007193
X01916002
X01930002Y007473
X01944002Y007753
X01916002
X01930002Y008033
X01944002Y008313
X01916002
X01930002Y004673
X01818002
X01748002Y004953
X01972002
X02000002
X02028002
X02042002Y005233
X02014002
X01986002
X01958002
X01972002Y005513
X02000002
X02028002
X02056002
X02084002
X02112002
X02140002
X02126002Y005793
X02098002
X02070002
X02042002
X02014002
X01986002
X01958002
X01972002Y006073
X02000002
X02028002
X02056002
X02084002
X02112002
X02140002
X02126002Y006353
X02098002
X02070002
X02042002
X02056002Y006633
X02028002
X02000002
X01972002
X01986002Y006913
X02014002
X02042002
X02056002Y007193
X02028002
X02000002
X01972002
X01986002Y007473
X02014002
X02042002
X02070002
X02098002
X02126002
X02140002Y007753
X02112002
X02084002
X02056002
X02028002
X02000002
X01972002
X01986002Y008033
X02014002
X02042002
X02070002
X02098002
X02126002
X02140002Y008313
X02112002
X02084002
X02056002
X02028002
X02000002
X01972002
X01958002Y008033
Y007473
Y006913
Y006353
X01986002
Y004673
X02014002
X02042002
X01958002
Y008593
X01986002
X02014002
X02042002
X02070002
X02098002
X02056002Y008873
X02028002
X02000002
X01972002
X01986002Y009153
X02014002
X02042002
X02056002Y009433
X02000002
X01972002
X01958002Y009713
X01972002Y009993
X01958002Y009153
X01930002
X01902002
X01874002
X01846002
X01818002
X01790002
X01762002
X01734002
X01706002
X01678002
X01650002
X01664002Y009433
X01692002
X01720002
X01748002
X01734002Y009713
X01706002
X01678002
X01650002
X01664002Y009993
X01692002
X01720002
X01636002
Y009433
X01608002
X01594002Y009153
X01566002
X01580002Y008873
X01608002
X01636002
X01664002
X01692002
X01720002
X01748002
X01776002
X01804002
X01832002
X01860002
X01888002
X01916002
X01944002
X01930002Y008593
X01902002
X01874002
X01846002
X01818002
X01790002
X01762002
X01734002
X01706002
X01678002
X01552002Y009433
X01832002
X01860002
X01888002
X01916002
X01944002
X01930002Y009713
X01902002
X01874002
X01846002
X01860002Y009993
X01888002
X01916002
X01944002
X01832002
X01524002
X01496002
X01468002
X01440002
X01454002Y009713
X01482002
X01510002
X01524002Y009433
X01496002
X01468002
X01440002
X01412002
X01426002Y009153
X01398002
X01370002
X01342002
X01314003
X01286003
X01300002Y009433
X01328002
X01356002
Y008873
X01384002
X01412002
X01440002
X01426002Y008593
X01398002
X01370002
X01342002
X01314003
X01286003
X01300002Y008873
X01328002
X01314003Y009713
X01286003
X01300002Y009993
X01328002
X01216003
X01188002
X01202002Y009713
X01230003
X01216003Y009433
X01188002
X01202002Y009153
X01230003
X01216003Y008873
X01188002
X01202002Y008593
X01230003
X01174003
X01538002Y009153
X01132002Y009433
X01118002Y009713
X01090003
X01062002
X01034003
X01006003
X01020003Y009993
X01048002
X01076003
X01104003
X01132002
Y008873
X01020003
X00992002
X01006003Y009153
X01034003
X01020003Y009433
X00992002
Y009993
X01006003Y008593
X01034003
X00978002
X00670003
X00642003
X00614003
X00586003
X00558003
X00530003
X00502003
X00474003
X00446003
X00418003
X00390003
X00362003
X00376003Y008873
X00404003
X00432003
X00460003
X00488003
X00516003
X00544003
X00572003
X00600003
X00628003
X00656003
X00670003Y009153
X00642003
X00614003
X00586003
X00558003
X00530003
X00502003
X00474003
X00446003
X00418003
X00390003
X00362003
X00376003Y009433
X00404003
X00390003Y009713
X00362003
X00376003Y009993
X00516003
X00544003
X00572003
X00586003Y009713
X00558003
X00530003
X00502003
X00516003Y009433
X00544003
X00572003
X00600003
X00488003
X00348003
X00320003
X00292003
X00264003
X00236003
X00208003
X00180003
X00152003
X00124003
X00096003
X00110003Y009153
X00138003
X00166003
X00194003
X00222003
X00250003
X00278003
X00306003
X00334003
X00348003Y008873
X00320003
X00292003
X00264003
X00236003
X00208003
X00180003
X00152003
X00124003
X00138003Y008593
X00166003
X00194003
X00222003
X00250003
X00278003
X00306003
X00334003
Y009713
X00306003
X00320003Y009993
X00348003
X00292003
X00264003
X00236003
X00208003
X00180003
X00152003
X00124003
X00096003
X00068003
X00138003Y009713
X00166003
X00194003
X00222003
X00250003
X-00029997Y009153
X-00043997Y008873
X-00057997Y008593
T04
X0191326Y0013156
Y0015066
Y0016976
X01228333
Y0015066
Y0013156
X00546343
Y0015066
Y0016976
X0110808Y0082465
Y0084375
Y0086285
T05
X00495289Y-0003175
X00520689
X00546089
X01177279
X01202679
X01228079
X01863476
X01888876
X01914276
X02021443Y0024544
Y0027084
Y0029624
Y0034704
Y0037244
Y0039784
X01375013Y0040292
Y0042832
Y0037752
X01338183Y0037244
Y0034704
Y0039784
Y0029624
Y0027084
Y0024544
X01375013Y0027592
Y0030132
Y0032672
X00691753
Y0030132
Y0027592
X00654793Y0027084
Y0024544
Y0029624
Y0034704
Y0037244
Y0039784
X00691753Y0040292
Y0042832
Y0037752
X00008622
Y0040292
Y0042832
Y0032672
Y0030132
Y0027592
X-000127Y0084201
X0105664Y0093726
X0108204
X0110744
X-000127Y0089281
Y0086741
T06
X0163195Y0085678
Y0090678
T07
X0028956Y0081661
Y0096901
T08
X00367903Y0063025
X00642903
X01050483
X01325483
X01733743
X02008743
T09
X0008636Y00816606
Y0089281
Y0096901
T11
X00102747Y0058914
Y0068914
X00229473
Y0058914
X00785878
Y0068914
X00912733
Y0058914
X01469138
Y0068914
X01595993
Y0058914
T12
X00159573Y0000919
Y0006129
X00267573
Y0000919
X0084069
Y0006129
X0094869
Y0000919
X0152649
Y0006129
X0163449
Y0000919
Y0011339
X0152649
X0094869
X0084069
X00267573
X00159573
X0115692Y0088126
Y0093336
Y0098546
X0126492
Y0093336
Y0088126
X0083185Y0088005
Y0093215
Y0098425
X0072385
Y0093215
Y0088005
T13
X0Y0
X006425
X013825
X02025
X021025Y00293
X-000775
Y00493
Y00693
X021025
Y00493
X02025Y00986
X017825
X015825
X013825
X006425
X004425
X0
M30
